<svg width="597" height="89" viewBox="0 0 597 89" fill="none" xmlns="http://www.w3.org/2000/svg">
<g filter="url(#filter0_d)">
<rect x="156" y="4" width="132" height="81" rx="5" fill="white"/>
<path d="M201.625 29H198.875L195.883 24.1875L194.859 24.9219V29H192.438V17.5781H194.859V22.8047L195.812 21.4609L198.906 17.5781H201.594L197.609 22.6328L201.625 29ZM202.773 18.0078C202.773 17.2318 203.206 16.8438 204.07 16.8438C204.935 16.8438 205.367 17.2318 205.367 18.0078C205.367 18.3776 205.258 18.6667 205.039 18.875C204.826 19.0781 204.503 19.1797 204.07 19.1797C203.206 19.1797 202.773 18.7891 202.773 18.0078ZM205.258 29H202.875V20.2656H205.258V29ZM211.445 27.2578C211.862 27.2578 212.362 27.1667 212.945 26.9844V28.7578C212.352 29.0234 211.622 29.1562 210.758 29.1562C209.805 29.1562 209.109 28.9167 208.672 28.4375C208.24 27.9531 208.023 27.2292 208.023 26.2656V22.0547H206.883V21.0469L208.195 20.25L208.883 18.4062H210.406V20.2656H212.852V22.0547H210.406V26.2656C210.406 26.6042 210.5 26.8542 210.688 27.0156C210.88 27.1771 211.133 27.2578 211.445 27.2578ZM218.266 29.1562C215.547 29.1562 214.188 27.6641 214.188 24.6797C214.188 23.1953 214.557 22.0625 215.297 21.2812C216.036 20.4948 217.096 20.1016 218.477 20.1016C219.487 20.1016 220.393 20.2995 221.195 20.6953L220.492 22.5391C220.117 22.388 219.768 22.2656 219.445 22.1719C219.122 22.0729 218.799 22.0234 218.477 22.0234C217.237 22.0234 216.617 22.9036 216.617 24.6641C216.617 26.3724 217.237 27.2266 218.477 27.2266C218.935 27.2266 219.359 27.1667 219.75 27.0469C220.141 26.9219 220.531 26.7292 220.922 26.4688V28.5078C220.536 28.7526 220.146 28.9219 219.75 29.0156C219.359 29.1094 218.865 29.1562 218.266 29.1562ZM231.016 29H228.633V23.8984C228.633 22.638 228.164 22.0078 227.227 22.0078C226.56 22.0078 226.078 22.2344 225.781 22.6875C225.484 23.1406 225.336 23.875 225.336 24.8906V29H222.953V16.8438H225.336V19.3203C225.336 19.513 225.318 19.9661 225.281 20.6797L225.227 21.3828H225.352C225.883 20.5286 226.727 20.1016 227.883 20.1016C228.909 20.1016 229.688 20.3776 230.219 20.9297C230.75 21.4818 231.016 22.2734 231.016 23.3047V29ZM237.086 21.7969C236.581 21.7969 236.185 21.9583 235.898 22.2812C235.612 22.599 235.448 23.0521 235.406 23.6406H238.75C238.74 23.0521 238.586 22.599 238.289 22.2812C237.992 21.9583 237.591 21.7969 237.086 21.7969ZM237.422 29.1562C236.016 29.1562 234.917 28.7682 234.125 27.9922C233.333 27.2161 232.938 26.1172 232.938 24.6953C232.938 23.2318 233.302 22.1016 234.031 21.3047C234.766 20.5026 235.779 20.1016 237.07 20.1016C238.305 20.1016 239.266 20.4531 239.953 21.1562C240.641 21.8594 240.984 22.8307 240.984 24.0703V25.2266H235.352C235.378 25.9036 235.578 26.4323 235.953 26.8125C236.328 27.1927 236.854 27.3828 237.531 27.3828C238.057 27.3828 238.555 27.3281 239.023 27.2188C239.492 27.1094 239.982 26.9349 240.492 26.6953V28.5391C240.076 28.7474 239.63 28.901 239.156 29C238.682 29.1042 238.104 29.1562 237.422 29.1562ZM250.984 29H248.602V23.8984C248.602 23.2682 248.49 22.7969 248.266 22.4844C248.042 22.1667 247.685 22.0078 247.195 22.0078C246.529 22.0078 246.047 22.2318 245.75 22.6797C245.453 23.1224 245.305 23.8594 245.305 24.8906V29H242.922V20.2656H244.742L245.062 21.3828H245.195C245.461 20.9609 245.826 20.6432 246.289 20.4297C246.758 20.2109 247.289 20.1016 247.883 20.1016C248.898 20.1016 249.669 20.3776 250.195 20.9297C250.721 21.4766 250.984 22.2682 250.984 23.3047V29Z" fill="#B3404A"/>
<g clip-path="url(#clip0)">
<path d="M226.785 63.6016C226.785 63.9791 226.479 64.2852 226.102 64.2852C225.724 64.2852 225.418 63.9791 225.418 63.6016C225.418 63.224 225.724 62.918 226.102 62.918C226.479 62.918 226.785 63.224 226.785 63.6016Z" fill="#B3404A"/>
<path d="M222.684 63.6016C222.684 63.9791 222.378 64.2852 222 64.2852C221.622 64.2852 221.316 63.9791 221.316 63.6016C221.316 63.224 221.622 62.918 222 62.918C222.378 62.918 222.684 63.224 222.684 63.6016Z" fill="#B3404A"/>
<path d="M218.582 63.6016C218.582 63.9791 218.276 64.2852 217.898 64.2852C217.521 64.2852 217.215 63.9791 217.215 63.6016C217.215 63.224 217.521 62.918 217.898 62.918C218.276 62.918 218.582 63.224 218.582 63.6016Z" fill="#B3404A"/>
<path d="M238.816 60.1836H205.184C204.806 60.1836 204.5 60.4896 204.5 60.8672V74.5391C204.5 74.9166 204.806 75.2227 205.184 75.2227H238.816C239.194 75.2227 239.5 74.9166 239.5 74.5391V60.8672C239.5 60.4896 239.194 60.1836 238.816 60.1836ZM238.133 65.6523H229.52V61.5508H238.133V65.6523ZM215.848 61.5508H228.152V73.8555H215.848V61.5508ZM214.48 61.5508V65.6523H205.867V61.5508H214.48ZM205.867 67.0195H214.48V73.8555H205.867V67.0195ZM229.52 73.8555V67.0195H238.133V73.8555H229.52Z" fill="#B3404A"/>
<path d="M235.193 68.3867H232.459C232.081 68.3867 231.775 68.6927 231.775 69.0703C231.775 69.4479 232.081 69.7539 232.459 69.7539H235.193C235.571 69.7539 235.877 69.4479 235.877 69.0703C235.877 68.6927 235.571 68.3867 235.193 68.3867Z" fill="#B3404A"/>
<path d="M232.459 64.2852H235.193C235.571 64.2852 235.877 63.9791 235.877 63.6016C235.877 63.224 235.571 62.918 235.193 62.918H232.459C232.081 62.918 231.775 63.224 231.775 63.6016C231.775 63.9791 232.081 64.2852 232.459 64.2852Z" fill="#B3404A"/>
<path d="M232.459 49.2461H235.193C235.571 49.2461 235.877 48.9401 235.877 48.5625C235.877 48.1849 235.571 47.8789 235.193 47.8789H232.459C232.081 47.8789 231.775 48.1849 231.775 48.5625C231.775 48.9401 232.081 49.2461 232.459 49.2461Z" fill="#B3404A"/>
<path d="M211.541 47.8789H208.807C208.429 47.8789 208.123 48.1849 208.123 48.5625C208.123 48.9401 208.429 49.2461 208.807 49.2461H211.541C211.919 49.2461 212.225 48.9401 212.225 48.5625C212.225 48.1849 211.919 47.8789 211.541 47.8789Z" fill="#B3404A"/>
<path d="M208.807 64.2852H211.541C211.919 64.2852 212.225 63.9791 212.225 63.6016C212.225 63.224 211.919 62.918 211.541 62.918H208.807C208.429 62.918 208.123 63.224 208.123 63.6016C208.123 63.9791 208.429 64.2852 208.807 64.2852Z" fill="#B3404A"/>
<path d="M211.541 68.3867H208.807C208.429 68.3867 208.123 68.6927 208.123 69.0703C208.123 69.4479 208.429 69.7539 208.807 69.7539H211.541C211.919 69.7539 212.225 69.4479 212.225 69.0703C212.225 68.6927 211.919 68.3867 211.541 68.3867Z" fill="#B3404A"/>
<path d="M226.102 65.6523H217.898C217.521 65.6523 217.215 65.9584 217.215 66.3359V71.8047C217.215 72.1823 217.521 72.4883 217.898 72.4883H226.102C226.479 72.4883 226.785 72.1823 226.785 71.8047V66.3359C226.785 65.9584 226.479 65.6523 226.102 65.6523ZM225.418 71.1211H218.582V67.0195H225.418V71.1211Z" fill="#B3404A"/>
<path d="M220.633 69.7539H223.367C223.745 69.7539 224.051 69.4479 224.051 69.0703C224.051 68.6927 223.745 68.3867 223.367 68.3867H220.633C220.255 68.3867 219.949 68.6927 219.949 69.0703C219.949 69.4479 220.255 69.7539 220.633 69.7539Z" fill="#B3404A"/>
<path d="M238.816 43.7773H228.836C228.458 43.7773 228.152 44.0834 228.152 44.4609V51.2969C228.152 51.6745 228.458 51.9805 228.836 51.9805H238.816C239.194 51.9805 239.5 51.6745 239.5 51.2969V44.4609C239.5 44.0834 239.194 43.7773 238.816 43.7773ZM238.133 50.6133H229.52V45.1445H238.133V50.6133Z" fill="#B3404A"/>
<path d="M205.184 51.9805H215.164C215.542 51.9805 215.848 51.6745 215.848 51.2969V44.4609C215.848 44.0834 215.542 43.7773 215.164 43.7773H205.184C204.806 43.7773 204.5 44.0834 204.5 44.4609V51.2969C204.5 51.6745 204.806 51.9805 205.184 51.9805ZM205.867 45.1445H214.48V50.6133H205.867V45.1445Z" fill="#B3404A"/>
<path d="M214.681 54.9151C214.485 55.1106 214.427 55.4046 214.532 55.6601C214.638 55.9154 214.887 56.082 215.164 56.082H219.265C219.643 56.082 219.949 55.776 219.949 55.3984C219.949 55.0209 219.643 54.7148 219.265 54.7148H216.814L219.549 51.9805H224.451L227.186 54.7148H224.734C224.357 54.7148 224.051 55.0209 224.051 55.3984C224.051 55.776 224.357 56.082 224.734 56.082H228.836C229.112 56.082 229.362 55.9154 229.467 55.6601C229.573 55.4046 229.515 55.1106 229.319 54.9151L225.418 51.0136V44.4609C225.418 44.0834 225.112 43.7773 224.734 43.7773H219.265C218.888 43.7773 218.582 44.0834 218.582 44.4609V51.0136L214.681 54.9151ZM224.051 45.1445V50.6133H219.949V45.1445H224.051Z" fill="#B3404A"/>
<path d="M222.684 55.3984C222.684 55.776 222.378 56.082 222 56.082C221.622 56.082 221.316 55.776 221.316 55.3984C221.316 55.0209 221.622 54.7148 222 54.7148C222.378 54.7148 222.684 55.0209 222.684 55.3984Z" fill="#B3404A"/>
</g>
</g>
<g filter="url(#filter1_d)">
<rect x="309" y="4" width="133" height="81" rx="5" fill="white"/>
<path d="M336.438 17.5781H339.992C341.612 17.5781 342.786 17.8099 343.516 18.2734C344.25 18.7318 344.617 19.4635 344.617 20.4688C344.617 21.151 344.456 21.7109 344.133 22.1484C343.815 22.5859 343.391 22.849 342.859 22.9375V23.0156C343.583 23.1771 344.104 23.4792 344.422 23.9219C344.745 24.3646 344.906 24.9531 344.906 25.6875C344.906 26.7292 344.529 27.5417 343.773 28.125C343.023 28.7083 342.003 29 340.711 29H336.438V17.5781ZM338.859 22.1016H340.266C340.922 22.1016 341.396 22 341.688 21.7969C341.984 21.5938 342.133 21.2578 342.133 20.7891C342.133 20.3516 341.971 20.0391 341.648 19.8516C341.331 19.6589 340.826 19.5625 340.133 19.5625H338.859V22.1016ZM338.859 24.0234V27H340.438C341.104 27 341.596 26.8724 341.914 26.6172C342.232 26.362 342.391 25.9714 342.391 25.4453C342.391 24.4974 341.714 24.0234 340.359 24.0234H338.859ZM352.547 29L352.086 27.8125H352.023C351.622 28.3177 351.208 28.6693 350.781 28.8672C350.359 29.0599 349.807 29.1562 349.125 29.1562C348.286 29.1562 347.625 28.9167 347.141 28.4375C346.661 27.9583 346.422 27.276 346.422 26.3906C346.422 25.4635 346.745 24.7812 347.391 24.3438C348.042 23.901 349.021 23.6562 350.328 23.6094L351.844 23.5625V23.1797C351.844 22.2943 351.391 21.8516 350.484 21.8516C349.786 21.8516 348.966 22.0625 348.023 22.4844L347.234 20.875C348.24 20.349 349.354 20.0859 350.578 20.0859C351.75 20.0859 352.648 20.3411 353.273 20.8516C353.898 21.362 354.211 22.138 354.211 23.1797V29H352.547ZM351.844 24.9531L350.922 24.9844C350.229 25.0052 349.714 25.1302 349.375 25.3594C349.036 25.5885 348.867 25.9375 348.867 26.4062C348.867 27.0781 349.253 27.4141 350.023 27.4141C350.576 27.4141 351.016 27.2552 351.344 26.9375C351.677 26.6198 351.844 26.1979 351.844 25.6719V24.9531ZM360.352 27.2578C360.768 27.2578 361.268 27.1667 361.852 26.9844V28.7578C361.258 29.0234 360.529 29.1562 359.664 29.1562C358.711 29.1562 358.016 28.9167 357.578 28.4375C357.146 27.9531 356.93 27.2292 356.93 26.2656V22.0547H355.789V21.0469L357.102 20.25L357.789 18.4062H359.312V20.2656H361.758V22.0547H359.312V26.2656C359.312 26.6042 359.406 26.8542 359.594 27.0156C359.786 27.1771 360.039 27.2578 360.352 27.2578ZM371.688 29H369.305V23.8984C369.305 22.638 368.836 22.0078 367.898 22.0078C367.232 22.0078 366.75 22.2344 366.453 22.6875C366.156 23.1406 366.008 23.875 366.008 24.8906V29H363.625V16.8438H366.008V19.3203C366.008 19.513 365.99 19.9661 365.953 20.6797L365.898 21.3828H366.023C366.555 20.5286 367.398 20.1016 368.555 20.1016C369.581 20.1016 370.359 20.3776 370.891 20.9297C371.422 21.4818 371.688 22.2734 371.688 23.3047V29ZM379.016 20.1016C379.339 20.1016 379.607 20.125 379.82 20.1719L379.641 22.4062C379.448 22.3542 379.214 22.3281 378.938 22.3281C378.177 22.3281 377.583 22.5234 377.156 22.9141C376.734 23.3047 376.523 23.8516 376.523 24.5547V29H374.141V20.2656H375.945L376.297 21.7344H376.414C376.685 21.2448 377.049 20.8516 377.508 20.5547C377.971 20.2526 378.474 20.1016 379.016 20.1016ZM383.305 24.6172C383.305 25.4818 383.445 26.1354 383.727 26.5781C384.013 27.0208 384.477 27.2422 385.117 27.2422C385.753 27.2422 386.208 27.0234 386.484 26.5859C386.766 26.1432 386.906 25.487 386.906 24.6172C386.906 23.7526 386.766 23.1042 386.484 22.6719C386.203 22.2396 385.742 22.0234 385.102 22.0234C384.466 22.0234 384.008 22.2396 383.727 22.6719C383.445 23.099 383.305 23.7474 383.305 24.6172ZM389.344 24.6172C389.344 26.0391 388.969 27.151 388.219 27.9531C387.469 28.7552 386.424 29.1562 385.086 29.1562C384.247 29.1562 383.508 28.974 382.867 28.6094C382.227 28.2396 381.734 27.7109 381.391 27.0234C381.047 26.3359 380.875 25.5339 380.875 24.6172C380.875 23.1901 381.247 22.0807 381.992 21.2891C382.737 20.4974 383.784 20.1016 385.133 20.1016C385.971 20.1016 386.711 20.2839 387.352 20.6484C387.992 21.013 388.484 21.5365 388.828 22.2188C389.172 22.901 389.344 23.7005 389.344 24.6172ZM393.211 24.6172C393.211 25.4818 393.352 26.1354 393.633 26.5781C393.919 27.0208 394.383 27.2422 395.023 27.2422C395.659 27.2422 396.115 27.0234 396.391 26.5859C396.672 26.1432 396.812 25.487 396.812 24.6172C396.812 23.7526 396.672 23.1042 396.391 22.6719C396.109 22.2396 395.648 22.0234 395.008 22.0234C394.372 22.0234 393.914 22.2396 393.633 22.6719C393.352 23.099 393.211 23.7474 393.211 24.6172ZM399.25 24.6172C399.25 26.0391 398.875 27.151 398.125 27.9531C397.375 28.7552 396.331 29.1562 394.992 29.1562C394.154 29.1562 393.414 28.974 392.773 28.6094C392.133 28.2396 391.641 27.7109 391.297 27.0234C390.953 26.3359 390.781 25.5339 390.781 24.6172C390.781 23.1901 391.154 22.0807 391.898 21.2891C392.643 20.4974 393.69 20.1016 395.039 20.1016C395.878 20.1016 396.617 20.2839 397.258 20.6484C397.898 21.013 398.391 21.5365 398.734 22.2188C399.078 22.901 399.25 23.7005 399.25 24.6172ZM409.039 29H406.656V23.8984C406.656 23.2682 406.549 22.7969 406.336 22.4844C406.128 22.1667 405.797 22.0078 405.344 22.0078C404.734 22.0078 404.292 22.2318 404.016 22.6797C403.74 23.1276 403.602 23.8646 403.602 24.8906V29H401.219V20.2656H403.039L403.359 21.3828H403.492C403.727 20.9818 404.065 20.6693 404.508 20.4453C404.951 20.2161 405.458 20.1016 406.031 20.1016C407.339 20.1016 408.224 20.5286 408.688 21.3828H408.898C409.133 20.9766 409.477 20.6615 409.93 20.4375C410.388 20.2135 410.904 20.1016 411.477 20.1016C412.466 20.1016 413.214 20.3568 413.719 20.8672C414.229 21.3724 414.484 22.1849 414.484 23.3047V29H412.094V23.8984C412.094 23.2682 411.987 22.7969 411.773 22.4844C411.565 22.1667 411.234 22.0078 410.781 22.0078C410.198 22.0078 409.76 22.2161 409.469 22.6328C409.182 23.0495 409.039 23.7109 409.039 24.6172V29Z" fill="#B3404A"/>
<path d="M390.812 59.4355H360.188C358.981 59.4355 358 60.417 358 61.623C358 62.8291 358.981 63.8105 360.188 63.8105H390.812C392.019 63.8105 393 62.8291 393 61.623C393 60.417 392.019 59.4355 390.812 59.4355ZM390.812 62.3522H360.188C359.786 62.3522 359.458 62.0255 359.458 61.623C359.458 61.2205 359.786 60.8938 360.188 60.8938H390.812C391.214 60.8938 391.542 61.2205 391.542 61.623C391.542 62.0255 391.214 62.3522 390.812 62.3522Z" fill="#B3404A"/>
<path d="M391.014 62.3794C390.619 62.27 390.222 62.4932 390.113 62.8811L388.103 69.9161C387.658 71.4722 386.216 72.5601 384.597 72.5601H366.405C364.786 72.5601 363.345 71.4721 362.899 69.9161L360.889 62.881C360.78 62.4931 360.382 62.27 359.988 62.3793C359.6 62.4902 359.377 62.8927 359.488 63.2806L361.497 70.3156C362.12 72.4958 364.137 74.0183 366.405 74.0183H384.596C386.864 74.0183 388.882 72.4958 389.505 70.3156L391.514 63.2806C391.625 62.8942 391.402 62.4902 391.014 62.3794Z" fill="#B3404A"/>
<path d="M366.404 69.645C366.08 69.645 365.793 69.4263 365.703 69.1157L364.756 65.7994C364.647 65.413 364.246 65.1869 363.855 65.2977C363.469 65.4085 363.244 65.811 363.355 66.199L364.301 69.5152C364.567 70.45 365.433 71.1019 366.404 71.1019C366.807 71.1019 367.133 70.7767 367.133 70.3742C367.133 69.9717 366.807 69.645 366.404 69.645Z" fill="#B3404A"/>
<path d="M367.805 72.6362C367.445 72.4598 367.009 72.6012 366.826 72.9629L365.368 75.8796C365.189 76.2398 365.334 76.6773 365.695 76.8582C365.801 76.9107 365.912 76.9355 366.021 76.9355C366.288 76.9355 366.545 76.7882 366.673 76.5315L368.132 73.6149C368.311 73.2545 368.165 72.817 367.805 72.6362Z" fill="#B3404A"/>
<path d="M385.633 75.8809L384.174 72.9642C383.993 72.6025 383.556 72.4581 383.196 72.6375C382.836 72.8183 382.69 73.2558 382.869 73.6161L384.327 76.5328C384.456 76.7879 384.712 76.9353 384.979 76.9353C385.089 76.9353 385.199 76.9104 385.306 76.8595C385.666 76.6786 385.812 76.2411 385.633 75.8809Z" fill="#B3404A"/>
<path d="M387.291 42.0645C386.547 42.0645 385.847 42.3546 385.321 42.8811L383.006 45.1955C382.722 45.4799 382.722 45.9422 383.006 46.2266C383.291 46.511 383.753 46.511 384.037 46.2266L386.352 43.9136C386.601 43.6628 386.935 43.5243 387.298 43.5243C388.03 43.5243 388.625 44.1193 388.625 44.8513V60.1638C388.625 60.5663 388.952 60.893 389.354 60.893C389.757 60.893 390.084 60.5663 390.085 60.1624V44.8499C390.085 43.3143 388.837 42.0645 387.291 42.0645Z" fill="#B3404A"/>
<path d="M384.768 45.9262L383.31 44.4678C383.142 44.3002 382.91 44.2228 382.675 44.2637L379.029 44.8616C378.761 44.9039 378.541 45.0935 378.455 45.3516C378.369 45.6097 378.434 45.8941 378.624 46.088L382.999 50.5943C383.136 50.7387 383.327 50.816 383.521 50.816C383.59 50.816 383.66 50.8058 383.73 50.7868C383.989 50.711 384.186 50.4966 384.239 50.2312L384.968 46.5853C385.016 46.3462 384.94 46.0982 384.768 45.9262ZM383.078 48.5832L380.641 46.0735L382.541 45.7628L383.458 46.6802L383.078 48.5832Z" fill="#B3404A"/>
<path d="M375.286 50.8998C375.001 50.6154 374.539 50.6154 374.254 50.8998L372.796 52.3581C372.512 52.6425 372.512 53.1048 372.796 53.3892C372.939 53.5306 373.126 53.6021 373.312 53.6021C373.499 53.6021 373.686 53.5307 373.827 53.3892L375.286 51.9309C375.57 51.6464 375.57 51.1842 375.286 50.8998Z" fill="#B3404A"/>
<path d="M378.202 53.8158C377.918 53.5314 377.455 53.5314 377.171 53.8158L375.713 55.2741C375.428 55.5585 375.428 56.0208 375.713 56.3052C375.856 56.4466 376.042 56.5181 376.229 56.5181C376.416 56.5181 376.602 56.4467 376.744 56.3052L378.202 54.8469C378.487 54.5625 378.487 54.1002 378.202 53.8158Z" fill="#B3404A"/>
<path d="M379.661 49.4408C379.376 49.1564 378.914 49.1564 378.629 49.4408L377.171 50.8991C376.887 51.1835 376.887 51.6458 377.171 51.9302C377.314 52.0716 377.501 52.1431 377.687 52.1431C377.874 52.1431 378.061 52.0717 378.202 51.9302L379.661 50.4719C379.945 50.1875 379.945 49.7252 379.661 49.4408Z" fill="#B3404A"/>
</g>
<g filter="url(#filter2_d)">
<rect x="4" y="4" width="132" height="81" rx="5" fill="white"/>
<path d="M34.4375 17.5781H37.9922C39.612 17.5781 40.7865 17.8099 41.5156 18.2734C42.25 18.7318 42.6172 19.4635 42.6172 20.4688C42.6172 21.151 42.4557 21.7109 42.1328 22.1484C41.8151 22.5859 41.3906 22.849 40.8594 22.9375V23.0156C41.5833 23.1771 42.1042 23.4792 42.4219 23.9219C42.7448 24.3646 42.9062 24.9531 42.9062 25.6875C42.9062 26.7292 42.5286 27.5417 41.7734 28.125C41.0234 28.7083 40.0026 29 38.7109 29H34.4375V17.5781ZM36.8594 22.1016H38.2656C38.9219 22.1016 39.3958 22 39.6875 21.7969C39.9844 21.5938 40.1328 21.2578 40.1328 20.7891C40.1328 20.3516 39.9714 20.0391 39.6484 19.8516C39.3307 19.6589 38.8255 19.5625 38.1328 19.5625H36.8594V22.1016ZM36.8594 24.0234V27H38.4375C39.1042 27 39.5964 26.8724 39.9141 26.6172C40.2318 26.362 40.3906 25.9714 40.3906 25.4453C40.3906 24.4974 39.7135 24.0234 38.3594 24.0234H36.8594ZM48.6172 21.7969C48.112 21.7969 47.7161 21.9583 47.4297 22.2812C47.1432 22.599 46.9792 23.0521 46.9375 23.6406H50.2812C50.2708 23.0521 50.1172 22.599 49.8203 22.2812C49.5234 21.9583 49.1224 21.7969 48.6172 21.7969ZM48.9531 29.1562C47.5469 29.1562 46.4479 28.7682 45.6562 27.9922C44.8646 27.2161 44.4688 26.1172 44.4688 24.6953C44.4688 23.2318 44.8333 22.1016 45.5625 21.3047C46.2969 20.5026 47.3099 20.1016 48.6016 20.1016C49.8359 20.1016 50.7969 20.4531 51.4844 21.1562C52.1719 21.8594 52.5156 22.8307 52.5156 24.0703V25.2266H46.8828C46.9089 25.9036 47.1094 26.4323 47.4844 26.8125C47.8594 27.1927 48.3854 27.3828 49.0625 27.3828C49.5885 27.3828 50.0859 27.3281 50.5547 27.2188C51.0234 27.1094 51.513 26.9349 52.0234 26.6953V28.5391C51.6068 28.7474 51.1615 28.901 50.6875 29C50.2135 29.1042 49.6354 29.1562 48.9531 29.1562ZM57.2188 29.1562C56.1927 29.1562 55.3854 28.7578 54.7969 27.9609C54.2135 27.1641 53.9219 26.0599 53.9219 24.6484C53.9219 23.2161 54.2188 22.1016 54.8125 21.3047C55.4115 20.5026 56.2344 20.1016 57.2812 20.1016C58.3802 20.1016 59.2188 20.5286 59.7969 21.3828H59.875C59.7552 20.7318 59.6953 20.151 59.6953 19.6406V16.8438H62.0859V29H60.2578L59.7969 27.8672H59.6953C59.1536 28.7266 58.3281 29.1562 57.2188 29.1562ZM58.0547 27.2578C58.6641 27.2578 59.1094 27.0807 59.3906 26.7266C59.6771 26.3724 59.8333 25.7708 59.8594 24.9219V24.6641C59.8594 23.7266 59.7135 23.0547 59.4219 22.6484C59.1354 22.2422 58.6667 22.0391 58.0156 22.0391C57.4844 22.0391 57.0703 22.2656 56.7734 22.7188C56.4818 23.1667 56.3359 23.8203 56.3359 24.6797C56.3359 25.5391 56.4844 26.1849 56.7812 26.6172C57.0781 27.0443 57.5026 27.2578 58.0547 27.2578ZM69.4531 20.1016C69.776 20.1016 70.0443 20.125 70.2578 20.1719L70.0781 22.4062C69.8854 22.3542 69.651 22.3281 69.375 22.3281C68.6146 22.3281 68.0208 22.5234 67.5938 22.9141C67.1719 23.3047 66.9609 23.8516 66.9609 24.5547V29H64.5781V20.2656H66.3828L66.7344 21.7344H66.8516C67.1224 21.2448 67.487 20.8516 67.9453 20.5547C68.4089 20.2526 68.9115 20.1016 69.4531 20.1016ZM73.7422 24.6172C73.7422 25.4818 73.8828 26.1354 74.1641 26.5781C74.4505 27.0208 74.9141 27.2422 75.5547 27.2422C76.1901 27.2422 76.6458 27.0234 76.9219 26.5859C77.2031 26.1432 77.3438 25.487 77.3438 24.6172C77.3438 23.7526 77.2031 23.1042 76.9219 22.6719C76.6406 22.2396 76.1797 22.0234 75.5391 22.0234C74.9036 22.0234 74.4453 22.2396 74.1641 22.6719C73.8828 23.099 73.7422 23.7474 73.7422 24.6172ZM79.7812 24.6172C79.7812 26.0391 79.4062 27.151 78.6562 27.9531C77.9062 28.7552 76.862 29.1562 75.5234 29.1562C74.6849 29.1562 73.9453 28.974 73.3047 28.6094C72.6641 28.2396 72.1719 27.7109 71.8281 27.0234C71.4844 26.3359 71.3125 25.5339 71.3125 24.6172C71.3125 23.1901 71.6849 22.0807 72.4297 21.2891C73.1745 20.4974 74.2214 20.1016 75.5703 20.1016C76.4089 20.1016 77.1484 20.2839 77.7891 20.6484C78.4297 21.013 78.9219 21.5365 79.2656 22.2188C79.6094 22.901 79.7812 23.7005 79.7812 24.6172ZM83.6484 24.6172C83.6484 25.4818 83.7891 26.1354 84.0703 26.5781C84.3568 27.0208 84.8203 27.2422 85.4609 27.2422C86.0964 27.2422 86.5521 27.0234 86.8281 26.5859C87.1094 26.1432 87.25 25.487 87.25 24.6172C87.25 23.7526 87.1094 23.1042 86.8281 22.6719C86.5469 22.2396 86.0859 22.0234 85.4453 22.0234C84.8099 22.0234 84.3516 22.2396 84.0703 22.6719C83.7891 23.099 83.6484 23.7474 83.6484 24.6172ZM89.6875 24.6172C89.6875 26.0391 89.3125 27.151 88.5625 27.9531C87.8125 28.7552 86.7682 29.1562 85.4297 29.1562C84.5911 29.1562 83.8516 28.974 83.2109 28.6094C82.5703 28.2396 82.0781 27.7109 81.7344 27.0234C81.3906 26.3359 81.2188 25.5339 81.2188 24.6172C81.2188 23.1901 81.5911 22.0807 82.3359 21.2891C83.0807 20.4974 84.1276 20.1016 85.4766 20.1016C86.3151 20.1016 87.0547 20.2839 87.6953 20.6484C88.3359 21.013 88.8281 21.5365 89.1719 22.2188C89.5156 22.901 89.6875 23.7005 89.6875 24.6172ZM99.4766 29H97.0938V23.8984C97.0938 23.2682 96.987 22.7969 96.7734 22.4844C96.5651 22.1667 96.2344 22.0078 95.7812 22.0078C95.1719 22.0078 94.7292 22.2318 94.4531 22.6797C94.1771 23.1276 94.0391 23.8646 94.0391 24.8906V29H91.6562V20.2656H93.4766L93.7969 21.3828H93.9297C94.1641 20.9818 94.5026 20.6693 94.9453 20.4453C95.388 20.2161 95.8958 20.1016 96.4688 20.1016C97.776 20.1016 98.6615 20.5286 99.125 21.3828H99.3359C99.5703 20.9766 99.9141 20.6615 100.367 20.4375C100.826 20.2135 101.341 20.1016 101.914 20.1016C102.904 20.1016 103.651 20.3568 104.156 20.8672C104.667 21.3724 104.922 22.1849 104.922 23.3047V29H102.531V23.8984C102.531 23.2682 102.424 22.7969 102.211 22.4844C102.003 22.1667 101.672 22.0078 101.219 22.0078C100.635 22.0078 100.198 22.2161 99.9062 22.6328C99.6198 23.0495 99.4766 23.7109 99.4766 24.6172V29Z" fill="#B3404A"/>
<g clip-path="url(#clip1)">
<path d="M86.9167 61.833H86.3333V60.083C86.3318 58.9247 85.645 57.877 84.5833 57.4137V48.4163C84.5832 48.1845 84.4458 47.9748 84.2333 47.882C84.4609 47.5173 84.5821 47.0963 84.5833 46.6663C84.5833 45.3777 83.5387 44.333 82.25 44.333C80.9613 44.333 79.9167 45.3777 79.9167 46.6663C79.9191 47.0772 80.0311 47.4799 80.241 47.833H59.759C59.9689 47.4799 60.0809 47.0772 60.0833 46.6663C60.0833 45.3777 59.0387 44.333 57.75 44.333C56.4613 44.333 55.4167 45.3777 55.4167 46.6663C55.4179 47.0963 55.5391 47.5173 55.7667 47.882C55.5542 47.9748 55.4168 48.1845 55.4167 48.4163V57.4137C54.355 57.877 53.6682 58.9247 53.6667 60.083V61.833H53.0833C52.7612 61.833 52.5 62.0942 52.5 62.4163V70.583C52.5 70.9052 52.7612 71.1663 53.0833 71.1663H53.6667V74.083C53.6667 74.4052 53.9279 74.6663 54.25 74.6663H56.5833C56.9055 74.6663 57.1667 74.4052 57.1667 74.083V71.1663H82.8333V74.083C82.8333 74.4052 83.0945 74.6663 83.4167 74.6663H85.75C86.0721 74.6663 86.3333 74.4052 86.3333 74.083V71.1663H86.9167C87.2388 71.1663 87.5 70.9052 87.5 70.583V62.4163C87.5 62.0942 87.2388 61.833 86.9167 61.833ZM82.25 45.4997C82.8944 45.4997 83.4167 46.022 83.4167 46.6663C83.4167 47.3107 82.8944 47.833 82.25 47.833C81.6056 47.833 81.0833 47.3107 81.0833 46.6663C81.0833 46.022 81.6056 45.4997 82.25 45.4997ZM57.75 45.4997C58.3944 45.4997 58.9167 46.022 58.9167 46.6663C58.9167 47.3107 58.3944 47.833 57.75 47.833C57.1056 47.833 56.5833 47.3107 56.5833 46.6663C56.5833 46.022 57.1056 45.4997 57.75 45.4997ZM56.5833 48.9997H83.4167V57.1663H81.0682C81.4542 56.6645 81.6646 56.0495 81.6667 55.4163V54.2497C81.6648 52.6397 80.36 51.3349 78.75 51.333H74.0833C72.4733 51.3349 71.1686 52.6397 71.1667 54.2497V55.4163C71.1688 56.0495 71.3791 56.6645 71.7652 57.1663H68.2348C68.6209 56.6645 68.8312 56.0495 68.8333 55.4163V54.2497C68.8314 52.6397 67.5267 51.3349 65.9167 51.333H61.25C59.64 51.3349 58.3352 52.6397 58.3333 54.2497V55.4163C58.3354 56.0495 58.5458 56.6645 58.9318 57.1663H56.5833V48.9997ZM80.5 54.2497V55.4163C80.5 56.3829 79.7165 57.1663 78.75 57.1663H74.0833C73.1168 57.1663 72.3333 56.3829 72.3333 55.4163V54.2497C72.3333 53.2832 73.1168 52.4997 74.0833 52.4997H78.75C79.7165 52.4997 80.5 53.2832 80.5 54.2497ZM67.6667 54.2497V55.4163C67.6667 56.3829 66.8832 57.1663 65.9167 57.1663H61.25C60.2835 57.1663 59.5 56.3829 59.5 55.4163V54.2497C59.5 53.2832 60.2835 52.4997 61.25 52.4997H65.9167C66.8832 52.4997 67.6667 53.2832 67.6667 54.2497ZM54.8333 60.083C54.8333 59.1165 55.6168 58.333 56.5833 58.333H83.4167C84.3832 58.333 85.1667 59.1165 85.1667 60.083V61.833H54.8333V60.083ZM56 73.4997H54.8333V71.1663H56V73.4997ZM85.1667 73.4997H84V71.1663H85.1667V73.4997ZM86.3333 69.9997H53.6667V62.9997H86.3333V69.9997Z" fill="#B3404A"/>
<path d="M57.75 67.667H55.4166C55.0945 67.667 54.8333 67.9282 54.8333 68.2503C54.8333 68.5725 55.0945 68.8337 55.4166 68.8337H57.75C58.0721 68.8337 58.3333 68.5725 58.3333 68.2503C58.3333 67.9282 58.0721 67.667 57.75 67.667Z" fill="#B3404A"/>
<path d="M84.5833 67.667H60.0833C59.7612 67.667 59.5 67.9282 59.5 68.2503C59.5 68.5725 59.7612 68.8337 60.0833 68.8337H84.5833C84.9055 68.8337 85.1667 68.5725 85.1667 68.2503C85.1667 67.9282 84.9055 67.667 84.5833 67.667Z" fill="#B3404A"/>
</g>
</g>
<g filter="url(#filter3_d)">
<rect x="461" y="4" width="132" height="81" rx="5" fill="white"/>
<path d="M499.859 21.9531H500.656C501.401 21.9531 501.958 21.8073 502.328 21.5156C502.698 21.2188 502.883 20.7891 502.883 20.2266C502.883 19.6589 502.727 19.2396 502.414 18.9688C502.107 18.6979 501.622 18.5625 500.961 18.5625H499.859V21.9531ZM505.328 20.1406C505.328 21.3698 504.943 22.3099 504.172 22.9609C503.406 23.612 502.315 23.9375 500.898 23.9375H499.859V28H497.438V16.5781H501.086C502.471 16.5781 503.523 16.8776 504.242 17.4766C504.966 18.0703 505.328 18.9583 505.328 20.1406ZM512.844 28L512.383 26.8125H512.32C511.919 27.3177 511.505 27.6693 511.078 27.8672C510.656 28.0599 510.104 28.1562 509.422 28.1562C508.583 28.1562 507.922 27.9167 507.438 27.4375C506.958 26.9583 506.719 26.276 506.719 25.3906C506.719 24.4635 507.042 23.7812 507.688 23.3438C508.339 22.901 509.318 22.6562 510.625 22.6094L512.141 22.5625V22.1797C512.141 21.2943 511.688 20.8516 510.781 20.8516C510.083 20.8516 509.263 21.0625 508.32 21.4844L507.531 19.875C508.536 19.349 509.651 19.0859 510.875 19.0859C512.047 19.0859 512.945 19.3411 513.57 19.8516C514.195 20.362 514.508 21.138 514.508 22.1797V28H512.844ZM512.141 23.9531L511.219 23.9844C510.526 24.0052 510.01 24.1302 509.672 24.3594C509.333 24.5885 509.164 24.9375 509.164 25.4062C509.164 26.0781 509.549 26.4141 510.32 26.4141C510.872 26.4141 511.312 26.2552 511.641 25.9375C511.974 25.6198 512.141 25.1979 512.141 24.6719V23.9531ZM521.844 19.1016C522.167 19.1016 522.435 19.125 522.648 19.1719L522.469 21.4062C522.276 21.3542 522.042 21.3281 521.766 21.3281C521.005 21.3281 520.411 21.5234 519.984 21.9141C519.562 22.3047 519.352 22.8516 519.352 23.5547V28H516.969V19.2656H518.773L519.125 20.7344H519.242C519.513 20.2448 519.878 19.8516 520.336 19.5547C520.799 19.2526 521.302 19.1016 521.844 19.1016ZM526.523 23.25L527.562 21.9219L530.008 19.2656H532.695L529.227 23.0547L532.906 28H530.156L527.641 24.4609L526.617 25.2812V28H524.234V15.8438H526.617V21.2656L526.492 23.25H526.523ZM534.055 17.0078C534.055 16.2318 534.487 15.8438 535.352 15.8438C536.216 15.8438 536.648 16.2318 536.648 17.0078C536.648 17.3776 536.539 17.6667 536.32 17.875C536.107 18.0781 535.784 18.1797 535.352 18.1797C534.487 18.1797 534.055 17.7891 534.055 17.0078ZM536.539 28H534.156V19.2656H536.539V28ZM547.109 28H544.727V22.8984C544.727 22.2682 544.615 21.7969 544.391 21.4844C544.167 21.1667 543.81 21.0078 543.32 21.0078C542.654 21.0078 542.172 21.2318 541.875 21.6797C541.578 22.1224 541.43 22.8594 541.43 23.8906V28H539.047V19.2656H540.867L541.188 20.3828H541.32C541.586 19.9609 541.951 19.6432 542.414 19.4297C542.883 19.2109 543.414 19.1016 544.008 19.1016C545.023 19.1016 545.794 19.3776 546.32 19.9297C546.846 20.4766 547.109 21.2682 547.109 22.3047V28ZM557.164 19.2656V20.4766L555.797 20.8281C556.047 21.2188 556.172 21.6562 556.172 22.1406C556.172 23.0781 555.844 23.8099 555.188 24.3359C554.536 24.8568 553.63 25.1172 552.469 25.1172L552.039 25.0938L551.688 25.0547C551.443 25.2422 551.32 25.4505 551.32 25.6797C551.32 26.0234 551.758 26.1953 552.633 26.1953H554.117C555.076 26.1953 555.805 26.401 556.305 26.8125C556.81 27.224 557.062 27.8281 557.062 28.625C557.062 29.6458 556.635 30.4375 555.781 31C554.932 31.5625 553.711 31.8438 552.117 31.8438C550.898 31.8438 549.966 31.6302 549.32 31.2031C548.68 30.7812 548.359 30.1875 548.359 29.4219C548.359 28.8958 548.523 28.4557 548.852 28.1016C549.18 27.7474 549.661 27.4948 550.297 27.3438C550.052 27.2396 549.839 27.0703 549.656 26.8359C549.474 26.5964 549.383 26.3438 549.383 26.0781C549.383 25.7448 549.479 25.4688 549.672 25.25C549.865 25.026 550.143 24.8073 550.508 24.5938C550.049 24.3958 549.685 24.0781 549.414 23.6406C549.148 23.2031 549.016 22.6875 549.016 22.0938C549.016 21.1406 549.326 20.4036 549.945 19.8828C550.565 19.362 551.451 19.1016 552.602 19.1016C552.846 19.1016 553.135 19.125 553.469 19.1719C553.807 19.2135 554.023 19.2448 554.117 19.2656H557.164ZM550.422 29.2344C550.422 29.5625 550.578 29.8203 550.891 30.0078C551.208 30.1953 551.651 30.2891 552.219 30.2891C553.073 30.2891 553.742 30.1719 554.227 29.9375C554.711 29.7031 554.953 29.3828 554.953 28.9766C554.953 28.6484 554.81 28.4219 554.523 28.2969C554.237 28.1719 553.794 28.1094 553.195 28.1094H551.961C551.523 28.1094 551.156 28.2109 550.859 28.4141C550.568 28.6224 550.422 28.8958 550.422 29.2344ZM551.289 22.125C551.289 22.599 551.396 22.974 551.609 23.25C551.828 23.526 552.159 23.6641 552.602 23.6641C553.049 23.6641 553.378 23.526 553.586 23.25C553.794 22.974 553.898 22.599 553.898 22.125C553.898 21.0729 553.466 20.5469 552.602 20.5469C551.727 20.5469 551.289 21.0729 551.289 22.125Z" fill="#B3404A"/>
<g clip-path="url(#clip2)">
<path d="M543.512 59.5064C541.55 58.1304 538.777 57.8417 536.795 57.8417H536.361L529.456 54.6195C528.596 54.2179 527.64 54.0059 526.691 54.0059H520.595C520.003 54.0059 519.427 54.1242 518.882 54.3573L512.555 57.0692C512.207 57.2182 511.839 57.2938 511.461 57.2938H511.04C510.153 57.2935 509.432 58.0153 509.432 58.9024V62.3828C509.432 63.1511 509.979 63.8152 510.733 63.9618L512.762 64.3565C513.013 65.9026 514.356 67.0868 515.972 67.0868C517.181 67.0868 518.236 66.4238 518.797 65.4427H536.162C536.723 66.4238 537.779 67.0868 538.987 67.0868C540.196 67.0868 541.252 66.4238 541.812 65.4427H542.823C543.71 65.4427 544.432 64.7212 544.432 63.8342V61.2747C544.432 60.5716 544.088 59.9104 543.512 59.5064ZM529.023 55.5488L533.936 57.8417H526.62L524.21 55.0313H526.69C527.491 55.0313 528.297 55.2102 529.023 55.5488ZM522.86 55.0313L525.269 57.8417H524.4C524.069 57.8417 523.756 57.6978 523.541 57.4465L521.471 55.0313H522.86ZM519.171 64.4173C519.206 64.228 519.225 64.0334 519.225 63.8342C519.225 63.6157 519.203 63.397 519.16 63.1842C519.103 62.9068 518.833 62.7276 518.555 62.7837C518.278 62.84 518.098 63.1108 518.155 63.3882C518.184 63.5337 518.199 63.6838 518.199 63.8342C518.199 65.0622 517.2 66.0612 515.972 66.0612C514.744 66.0612 513.745 65.0622 513.745 63.8342C513.745 62.6061 514.744 61.6069 515.972 61.6069C516.283 61.6069 516.583 61.6696 516.865 61.7932C517.124 61.9067 517.427 61.7887 517.541 61.5294C517.655 61.2701 517.537 60.9679 517.277 60.8541C516.865 60.6733 516.425 60.5815 515.972 60.5815C514.356 60.5815 513.013 61.7657 512.762 63.3118L510.929 62.9554C510.655 62.9022 510.457 62.6614 510.457 62.3828V60.511H511.04C511.323 60.511 511.553 60.2813 511.553 59.9983C511.553 59.7152 511.323 59.4856 511.04 59.4856H510.457V58.9024C510.457 58.5806 510.719 58.3192 511.04 58.3192H511.461C511.979 58.3192 512.483 58.2156 512.959 58.0118L519.286 55.2999C519.564 55.1811 519.852 55.1023 520.147 55.0622L522.763 58.1138C523.173 58.5926 523.77 58.8671 524.4 58.8671H536.795C538.165 58.8671 540.61 59.0276 542.421 60.0335H542.275C541.992 60.0335 541.762 60.2632 541.762 60.5462C541.762 60.8295 541.992 61.0589 542.275 61.0589H543.385C543.399 61.1294 543.406 61.2015 543.406 61.2747V62.2256H541.812C541.252 61.2445 540.196 60.5817 538.987 60.5817C537.779 60.5817 536.723 61.2445 536.162 62.2256H535.152C534.868 62.2256 534.639 62.4549 534.639 62.7383C534.639 63.0213 534.868 63.251 535.152 63.251H535.788C535.754 63.4403 535.735 63.6349 535.735 63.8342C535.735 64.0334 535.754 64.228 535.788 64.4173H519.171ZM538.987 66.0612C537.759 66.0612 536.76 65.0622 536.76 63.8342C536.76 62.6061 537.759 61.6069 538.987 61.6069C540.215 61.6069 541.215 62.6061 541.215 63.8342C541.215 65.0622 540.215 66.0612 538.987 66.0612ZM542.823 64.4173H542.187C542.221 64.228 542.24 64.0334 542.24 63.8342C542.24 63.6349 542.221 63.4403 542.187 63.251H543.406V63.8342C543.406 64.1557 543.145 64.4173 542.823 64.4173Z" fill="#B3404A"/>
<path d="M532.96 62.2253H526.092L524.931 60.6767C524.629 60.2738 524.148 60.0332 523.644 60.0332H521.452C521.258 60.0332 521.081 60.143 520.994 60.3168C520.907 60.4904 520.925 60.6984 521.042 60.8535L522.357 62.6071C522.659 63.0101 523.14 63.2507 523.644 63.2507H532.96C533.243 63.2507 533.473 63.021 533.473 62.738C533.473 62.4546 533.243 62.2253 532.96 62.2253ZM523.644 62.2253C523.461 62.2253 523.287 62.1379 523.178 61.9919L522.478 61.0586H523.644C523.827 61.0586 524.001 61.1459 524.111 61.292L524.811 62.2253H523.644Z" fill="#B3404A"/>
<path d="M515.972 62.7734C515.387 62.7734 514.911 63.2493 514.911 63.8341C514.911 64.4189 515.387 64.8947 515.972 64.8947C516.557 64.8947 517.033 64.4189 517.033 63.8341C517.033 63.2493 516.557 62.7734 515.972 62.7734Z" fill="#B3404A"/>
<path d="M538.987 62.7734C538.403 62.7734 537.927 63.2493 537.927 63.8341C537.927 64.4189 538.403 64.8947 538.987 64.8947C539.572 64.8947 540.048 64.4189 540.048 63.8341C540.048 63.2493 539.572 62.7734 538.987 62.7734Z" fill="#B3404A"/>
</g>
</g>
<defs>
<filter id="filter0_d" x="152" y="0" width="140" height="89" filterUnits="userSpaceOnUse" color-interpolation-filters="sRGB">
<feFlood flood-opacity="0" result="BackgroundImageFix"/>
<feColorMatrix in="SourceAlpha" type="matrix" values="0 0 0 0 0 0 0 0 0 0 0 0 0 0 0 0 0 0 127 0"/>
<feOffset/>
<feGaussianBlur stdDeviation="2"/>
<feColorMatrix type="matrix" values="0 0 0 0 0 0 0 0 0 0 0 0 0 0 0 0 0 0 0.25 0"/>
<feBlend mode="normal" in2="BackgroundImageFix" result="effect1_dropShadow"/>
<feBlend mode="normal" in="SourceGraphic" in2="effect1_dropShadow" result="shape"/>
</filter>
<filter id="filter1_d" x="305" y="0" width="141" height="89" filterUnits="userSpaceOnUse" color-interpolation-filters="sRGB">
<feFlood flood-opacity="0" result="BackgroundImageFix"/>
<feColorMatrix in="SourceAlpha" type="matrix" values="0 0 0 0 0 0 0 0 0 0 0 0 0 0 0 0 0 0 127 0"/>
<feOffset/>
<feGaussianBlur stdDeviation="2"/>
<feColorMatrix type="matrix" values="0 0 0 0 0 0 0 0 0 0 0 0 0 0 0 0 0 0 0.25 0"/>
<feBlend mode="normal" in2="BackgroundImageFix" result="effect1_dropShadow"/>
<feBlend mode="normal" in="SourceGraphic" in2="effect1_dropShadow" result="shape"/>
</filter>
<filter id="filter2_d" x="0" y="0" width="140" height="89" filterUnits="userSpaceOnUse" color-interpolation-filters="sRGB">
<feFlood flood-opacity="0" result="BackgroundImageFix"/>
<feColorMatrix in="SourceAlpha" type="matrix" values="0 0 0 0 0 0 0 0 0 0 0 0 0 0 0 0 0 0 127 0"/>
<feOffset/>
<feGaussianBlur stdDeviation="2"/>
<feColorMatrix type="matrix" values="0 0 0 0 0 0 0 0 0 0 0 0 0 0 0 0 0 0 0.25 0"/>
<feBlend mode="normal" in2="BackgroundImageFix" result="effect1_dropShadow"/>
<feBlend mode="normal" in="SourceGraphic" in2="effect1_dropShadow" result="shape"/>
</filter>
<filter id="filter3_d" x="457" y="0" width="140" height="89" filterUnits="userSpaceOnUse" color-interpolation-filters="sRGB">
<feFlood flood-opacity="0" result="BackgroundImageFix"/>
<feColorMatrix in="SourceAlpha" type="matrix" values="0 0 0 0 0 0 0 0 0 0 0 0 0 0 0 0 0 0 127 0"/>
<feOffset/>
<feGaussianBlur stdDeviation="2"/>
<feColorMatrix type="matrix" values="0 0 0 0 0 0 0 0 0 0 0 0 0 0 0 0 0 0 0.25 0"/>
<feBlend mode="normal" in2="BackgroundImageFix" result="effect1_dropShadow"/>
<feBlend mode="normal" in="SourceGraphic" in2="effect1_dropShadow" result="shape"/>
</filter>
<clipPath id="clip0">
<rect width="35" height="35" fill="white" transform="translate(204.5 42)"/>
</clipPath>
<clipPath id="clip1">
<rect width="35" height="35" fill="white" transform="translate(52.5 42)"/>
</clipPath>
<clipPath id="clip2">
<rect width="35" height="35" fill="white" transform="translate(509.5 43)"/>
</clipPath>
</defs>
</svg>
