<svg width="844" height="155" viewBox="0 0 844 155" fill="none" xmlns="http://www.w3.org/2000/svg">
<g filter="url(#filter0_d)">
<rect x="840" y="151" width="836" height="147" transform="rotate(-180 840 151)" fill="#B3404A"/>
</g>
<circle opacity="0.3" cx="774" cy="35" r="20" fill="white"/>
<circle opacity="0.3" cx="609.5" cy="127.5" r="9.5" fill="white"/>
<circle opacity="0.3" cx="747.5" cy="116.5" r="7.5" fill="white"/>
<circle opacity="0.3" cx="643" cy="48" r="14" fill="white"/>
<circle opacity="0.3" cx="204" cy="31" r="7" fill="white"/>
<circle opacity="0.3" cx="99" cy="110" r="4" fill="white"/>
<circle opacity="0.3" cx="202.5" cy="125.5" r="12.5" fill="white"/>
<circle opacity="0.3" cx="36.5" cy="45.5" r="12.5" fill="white"/>
<path d="M264.617 54V41.1504H267.342V54H264.617ZM279.436 54H276.755V48.2607C276.755 47.5518 276.629 47.0215 276.377 46.6699C276.125 46.3125 275.724 46.1338 275.173 46.1338C274.423 46.1338 273.881 46.3857 273.547 46.8896C273.213 47.3877 273.046 48.2168 273.046 49.377V54H270.365V44.1738H272.413L272.773 45.4307H272.923C273.222 44.9561 273.632 44.5986 274.153 44.3584C274.681 44.1123 275.278 43.9893 275.946 43.9893C277.089 43.9893 277.956 44.2998 278.548 44.9209C279.14 45.5361 279.436 46.4268 279.436 47.5928V54ZM286.335 52.04C286.804 52.04 287.366 51.9375 288.022 51.7324V53.7275C287.354 54.0264 286.534 54.1758 285.562 54.1758C284.489 54.1758 283.707 53.9062 283.215 53.3672C282.729 52.8223 282.485 52.0078 282.485 50.9238V46.1865H281.202V45.0527L282.679 44.1562L283.452 42.082H285.166V44.1738H287.917V46.1865H285.166V50.9238C285.166 51.3047 285.271 51.5859 285.482 51.7676C285.699 51.9492 285.983 52.04 286.335 52.04ZM295.502 43.9893C295.865 43.9893 296.167 44.0156 296.407 44.0684L296.205 46.582C295.988 46.5234 295.725 46.4941 295.414 46.4941C294.559 46.4941 293.891 46.7139 293.41 47.1533C292.936 47.5928 292.698 48.208 292.698 48.999V54H290.018V44.1738H292.048L292.443 45.8262H292.575C292.88 45.2754 293.29 44.833 293.806 44.499C294.327 44.1592 294.893 43.9893 295.502 43.9893ZM302.261 45.8965C301.692 45.8965 301.247 46.0781 300.925 46.4414C300.603 46.7988 300.418 47.3086 300.371 47.9707H304.133C304.121 47.3086 303.948 46.7988 303.614 46.4414C303.28 46.0781 302.829 45.8965 302.261 45.8965ZM302.639 54.1758C301.057 54.1758 299.82 53.7393 298.93 52.8662C298.039 51.9932 297.594 50.7568 297.594 49.1572C297.594 47.5107 298.004 46.2393 298.824 45.3428C299.65 44.4404 300.79 43.9893 302.243 43.9893C303.632 43.9893 304.713 44.3848 305.486 45.1758C306.26 45.9668 306.646 47.0596 306.646 48.4541V49.7549H300.31C300.339 50.5166 300.564 51.1113 300.986 51.5391C301.408 51.9668 302 52.1807 302.762 52.1807C303.354 52.1807 303.913 52.1191 304.44 51.9961C304.968 51.873 305.519 51.6768 306.093 51.4072V53.4814C305.624 53.7158 305.123 53.8887 304.59 54C304.057 54.1172 303.406 54.1758 302.639 54.1758ZM315.682 51.082C315.682 52.0898 315.33 52.8574 314.627 53.3848C313.93 53.9121 312.884 54.1758 311.489 54.1758C310.774 54.1758 310.165 54.126 309.661 54.0264C309.157 53.9326 308.686 53.792 308.246 53.6045V51.3896C308.744 51.624 309.304 51.8203 309.925 51.9785C310.552 52.1367 311.103 52.2158 311.577 52.2158C312.55 52.2158 313.036 51.9346 313.036 51.3721C313.036 51.1611 312.972 50.9912 312.843 50.8623C312.714 50.7275 312.491 50.5781 312.175 50.4141C311.858 50.2441 311.437 50.0479 310.909 49.8252C310.153 49.5088 309.597 49.2158 309.239 48.9463C308.888 48.6768 308.63 48.3691 308.466 48.0234C308.308 47.6719 308.229 47.2412 308.229 46.7314C308.229 45.8584 308.565 45.1846 309.239 44.71C309.919 44.2295 310.88 43.9893 312.122 43.9893C313.306 43.9893 314.457 44.2471 315.576 44.7627L314.768 46.6963C314.275 46.4854 313.815 46.3125 313.388 46.1777C312.96 46.043 312.523 45.9756 312.078 45.9756C311.287 45.9756 310.892 46.1895 310.892 46.6172C310.892 46.8574 311.018 47.0654 311.27 47.2412C311.527 47.417 312.087 47.6777 312.948 48.0234C313.716 48.334 314.278 48.624 314.636 48.8936C314.993 49.1631 315.257 49.4736 315.427 49.8252C315.597 50.1768 315.682 50.5957 315.682 51.082ZM321.913 52.04C322.382 52.04 322.944 51.9375 323.601 51.7324V53.7275C322.933 54.0264 322.112 54.1758 321.14 54.1758C320.067 54.1758 319.285 53.9062 318.793 53.3672C318.307 52.8223 318.063 52.0078 318.063 50.9238V46.1865H316.78V45.0527L318.257 44.1562L319.03 42.082H320.744V44.1738H323.495V46.1865H320.744V50.9238C320.744 51.3047 320.85 51.5859 321.061 51.7676C321.277 51.9492 321.562 52.04 321.913 52.04ZM329.665 45.8965C329.097 45.8965 328.651 46.0781 328.329 46.4414C328.007 46.7988 327.822 47.3086 327.775 47.9707H331.537C331.525 47.3086 331.353 46.7988 331.019 46.4414C330.685 46.0781 330.233 45.8965 329.665 45.8965ZM330.043 54.1758C328.461 54.1758 327.225 53.7393 326.334 52.8662C325.443 51.9932 324.998 50.7568 324.998 49.1572C324.998 47.5107 325.408 46.2393 326.229 45.3428C327.055 44.4404 328.194 43.9893 329.647 43.9893C331.036 43.9893 332.117 44.3848 332.891 45.1758C333.664 45.9668 334.051 47.0596 334.051 48.4541V49.7549H327.714C327.743 50.5166 327.969 51.1113 328.391 51.5391C328.812 51.9668 329.404 52.1807 330.166 52.1807C330.758 52.1807 331.317 52.1191 331.845 51.9961C332.372 51.873 332.923 51.6768 333.497 51.4072V53.4814C333.028 53.7158 332.527 53.8887 331.994 54C331.461 54.1172 330.811 54.1758 330.043 54.1758ZM339.342 54.1758C338.188 54.1758 337.279 53.7275 336.617 52.8311C335.961 51.9346 335.633 50.6924 335.633 49.1045C335.633 47.4932 335.967 46.2393 336.635 45.3428C337.309 44.4404 338.234 43.9893 339.412 43.9893C340.648 43.9893 341.592 44.4697 342.242 45.4307H342.33C342.195 44.6982 342.128 44.0449 342.128 43.4707V40.3242H344.817V54H342.761L342.242 52.7256H342.128C341.519 53.6924 340.59 54.1758 339.342 54.1758ZM340.282 52.04C340.968 52.04 341.469 51.8408 341.785 51.4424C342.107 51.0439 342.283 50.3672 342.312 49.4121V49.1221C342.312 48.0674 342.148 47.3115 341.82 46.8545C341.498 46.3975 340.971 46.1689 340.238 46.1689C339.641 46.1689 339.175 46.4238 338.841 46.9336C338.513 47.4375 338.349 48.1729 338.349 49.1396C338.349 50.1064 338.516 50.833 338.85 51.3193C339.184 51.7998 339.661 52.04 340.282 52.04ZM352.183 41.6338C352.183 40.7607 352.669 40.3242 353.642 40.3242C354.614 40.3242 355.101 40.7607 355.101 41.6338C355.101 42.0498 354.978 42.375 354.731 42.6094C354.491 42.8379 354.128 42.9521 353.642 42.9521C352.669 42.9521 352.183 42.5127 352.183 41.6338ZM354.978 54H352.297V44.1738H354.978V54ZM366.869 54H364.188V48.2607C364.188 47.5518 364.062 47.0215 363.811 46.6699C363.559 46.3125 363.157 46.1338 362.606 46.1338C361.856 46.1338 361.314 46.3857 360.98 46.8896C360.646 47.3877 360.479 48.2168 360.479 49.377V54H357.799V44.1738H359.847L360.207 45.4307H360.356C360.655 44.9561 361.065 44.5986 361.587 44.3584C362.114 44.1123 362.712 43.9893 363.38 43.9893C364.522 43.9893 365.39 44.2998 365.981 44.9209C366.573 45.5361 366.869 46.4268 366.869 47.5928V54ZM380.545 54L380.026 52.6641H379.956C379.505 53.2324 379.039 53.6279 378.559 53.8506C378.084 54.0674 377.463 54.1758 376.695 54.1758C375.752 54.1758 375.008 53.9062 374.463 53.3672C373.924 52.8281 373.654 52.0605 373.654 51.0645C373.654 50.0215 374.018 49.2539 374.744 48.7617C375.477 48.2637 376.578 47.9883 378.049 47.9355L379.754 47.8828V47.4521C379.754 46.4561 379.244 45.958 378.225 45.958C377.439 45.958 376.517 46.1953 375.456 46.6699L374.568 44.8594C375.699 44.2676 376.953 43.9717 378.33 43.9717C379.648 43.9717 380.659 44.2588 381.362 44.833C382.065 45.4072 382.417 46.2803 382.417 47.4521V54H380.545ZM379.754 49.4473L378.717 49.4824C377.938 49.5059 377.357 49.6465 376.977 49.9043C376.596 50.1621 376.405 50.5547 376.405 51.082C376.405 51.8379 376.839 52.2158 377.706 52.2158C378.327 52.2158 378.822 52.0371 379.191 51.6797C379.566 51.3223 379.754 50.8477 379.754 50.2559V49.4473ZM394.256 54H391.575V48.2607C391.575 47.5518 391.449 47.0215 391.197 46.6699C390.945 46.3125 390.544 46.1338 389.993 46.1338C389.243 46.1338 388.701 46.3857 388.367 46.8896C388.033 47.3877 387.866 48.2168 387.866 49.377V54H385.186V44.1738H387.233L387.594 45.4307H387.743C388.042 44.9561 388.452 44.5986 388.974 44.3584C389.501 44.1123 390.099 43.9893 390.767 43.9893C391.909 43.9893 392.776 44.2998 393.368 44.9209C393.96 45.5361 394.256 46.4268 394.256 47.5928V54ZM395.609 44.1738H398.545L400.399 49.7021C400.558 50.1826 400.666 50.751 400.725 51.4072H400.777C400.842 50.8037 400.968 50.2354 401.155 49.7021L402.975 44.1738H405.849L401.691 55.2568C401.311 56.2822 400.766 57.0498 400.057 57.5596C399.354 58.0693 398.53 58.3242 397.587 58.3242C397.124 58.3242 396.67 58.2744 396.225 58.1748V56.0479C396.547 56.124 396.898 56.1621 397.279 56.1621C397.754 56.1621 398.167 56.0156 398.519 55.7227C398.876 55.4355 399.154 54.999 399.354 54.4131L399.512 53.9297L395.609 44.1738ZM414.075 49.0693C414.075 50.042 414.233 50.7773 414.55 51.2754C414.872 51.7734 415.394 52.0225 416.114 52.0225C416.829 52.0225 417.342 51.7764 417.652 51.2842C417.969 50.7861 418.127 50.0479 418.127 49.0693C418.127 48.0967 417.969 47.3672 417.652 46.8809C417.336 46.3945 416.817 46.1514 416.097 46.1514C415.382 46.1514 414.866 46.3945 414.55 46.8809C414.233 47.3613 414.075 48.0908 414.075 49.0693ZM420.869 49.0693C420.869 50.6689 420.447 51.9199 419.604 52.8223C418.76 53.7246 417.585 54.1758 416.079 54.1758C415.136 54.1758 414.304 53.9707 413.583 53.5605C412.862 53.1445 412.309 52.5498 411.922 51.7764C411.535 51.0029 411.342 50.1006 411.342 49.0693C411.342 47.4639 411.761 46.2158 412.599 45.3252C413.437 44.4346 414.614 43.9893 416.132 43.9893C417.075 43.9893 417.907 44.1943 418.628 44.6045C419.349 45.0146 419.902 45.6035 420.289 46.3711C420.676 47.1387 420.869 48.0381 420.869 49.0693ZM428.516 46.1865H426.195V54H423.515V46.1865H422.038V44.8945L423.515 44.1738V43.4531C423.515 42.334 423.79 41.5166 424.341 41.001C424.892 40.4854 425.773 40.2275 426.986 40.2275C427.912 40.2275 428.735 40.3652 429.456 40.6406L428.771 42.6094C428.231 42.4395 427.733 42.3545 427.276 42.3545C426.896 42.3545 426.62 42.4688 426.45 42.6973C426.28 42.9199 426.195 43.207 426.195 43.5586V44.1738H428.516V46.1865ZM438.878 52.04C439.347 52.04 439.909 51.9375 440.565 51.7324V53.7275C439.897 54.0264 439.077 54.1758 438.104 54.1758C437.032 54.1758 436.25 53.9062 435.758 53.3672C435.271 52.8223 435.028 52.0078 435.028 50.9238V46.1865H433.745V45.0527L435.222 44.1562L435.995 42.082H437.709V44.1738H440.46V46.1865H437.709V50.9238C437.709 51.3047 437.814 51.5859 438.025 51.7676C438.242 51.9492 438.526 52.04 438.878 52.04ZM451.631 54H448.95V48.2607C448.95 46.8428 448.423 46.1338 447.368 46.1338C446.618 46.1338 446.076 46.3887 445.742 46.8984C445.408 47.4082 445.241 48.2344 445.241 49.377V54H442.561V40.3242H445.241V43.1104C445.241 43.3271 445.221 43.8369 445.18 44.6396L445.118 45.4307H445.259C445.856 44.4697 446.806 43.9893 448.106 43.9893C449.261 43.9893 450.137 44.2998 450.734 44.9209C451.332 45.542 451.631 46.4326 451.631 47.5928V54ZM458.46 45.8965C457.892 45.8965 457.446 46.0781 457.124 46.4414C456.802 46.7988 456.617 47.3086 456.57 47.9707H460.332C460.32 47.3086 460.147 46.7988 459.813 46.4414C459.479 46.0781 459.028 45.8965 458.46 45.8965ZM458.838 54.1758C457.256 54.1758 456.02 53.7393 455.129 52.8662C454.238 51.9932 453.793 50.7568 453.793 49.1572C453.793 47.5107 454.203 46.2393 455.023 45.3428C455.85 44.4404 456.989 43.9893 458.442 43.9893C459.831 43.9893 460.912 44.3848 461.686 45.1758C462.459 45.9668 462.846 47.0596 462.846 48.4541V49.7549H456.509C456.538 50.5166 456.764 51.1113 457.186 51.5391C457.607 51.9668 458.199 52.1807 458.961 52.1807C459.553 52.1807 460.112 52.1191 460.64 51.9961C461.167 51.873 461.718 51.6768 462.292 51.4072V53.4814C461.823 53.7158 461.322 53.8887 460.789 54C460.256 54.1172 459.605 54.1758 458.838 54.1758ZM471.881 51.082C471.881 52.0898 471.529 52.8574 470.826 53.3848C470.129 53.9121 469.083 54.1758 467.688 54.1758C466.974 54.1758 466.364 54.126 465.86 54.0264C465.356 53.9326 464.885 53.792 464.445 53.6045V51.3896C464.943 51.624 465.503 51.8203 466.124 51.9785C466.751 52.1367 467.302 52.2158 467.776 52.2158C468.749 52.2158 469.235 51.9346 469.235 51.3721C469.235 51.1611 469.171 50.9912 469.042 50.8623C468.913 50.7275 468.69 50.5781 468.374 50.4141C468.058 50.2441 467.636 50.0479 467.108 49.8252C466.353 49.5088 465.796 49.2158 465.438 48.9463C465.087 48.6768 464.829 48.3691 464.665 48.0234C464.507 47.6719 464.428 47.2412 464.428 46.7314C464.428 45.8584 464.765 45.1846 465.438 44.71C466.118 44.2295 467.079 43.9893 468.321 43.9893C469.505 43.9893 470.656 44.2471 471.775 44.7627L470.967 46.6963C470.475 46.4854 470.015 46.3125 469.587 46.1777C469.159 46.043 468.723 45.9756 468.277 45.9756C467.486 45.9756 467.091 46.1895 467.091 46.6172C467.091 46.8574 467.217 47.0654 467.469 47.2412C467.727 47.417 468.286 47.6777 469.147 48.0234C469.915 48.334 470.478 48.624 470.835 48.8936C471.192 49.1631 471.456 49.4736 471.626 49.8252C471.796 50.1768 471.881 50.5957 471.881 51.082ZM478.042 45.8965C477.474 45.8965 477.028 46.0781 476.706 46.4414C476.384 46.7988 476.199 47.3086 476.152 47.9707H479.914C479.902 47.3086 479.729 46.7988 479.396 46.4414C479.062 46.0781 478.61 45.8965 478.042 45.8965ZM478.42 54.1758C476.838 54.1758 475.602 53.7393 474.711 52.8662C473.82 51.9932 473.375 50.7568 473.375 49.1572C473.375 47.5107 473.785 46.2393 474.605 45.3428C475.432 44.4404 476.571 43.9893 478.024 43.9893C479.413 43.9893 480.494 44.3848 481.268 45.1758C482.041 45.9668 482.428 47.0596 482.428 48.4541V49.7549H476.091C476.12 50.5166 476.346 51.1113 476.768 51.5391C477.189 51.9668 477.781 52.1807 478.543 52.1807C479.135 52.1807 479.694 52.1191 480.222 51.9961C480.749 51.873 481.3 51.6768 481.874 51.4072V53.4814C481.405 53.7158 480.904 53.8887 480.371 54C479.838 54.1172 479.188 54.1758 478.42 54.1758ZM494.68 54.1758C493.525 54.1758 492.62 53.7568 491.964 52.9189H491.823C491.917 53.7393 491.964 54.2139 491.964 54.3428V58.3242H489.283V44.1738H491.463L491.841 45.4482H491.964C492.591 44.4756 493.52 43.9893 494.75 43.9893C495.91 43.9893 496.818 44.4375 497.475 45.334C498.131 46.2305 498.459 47.4756 498.459 49.0693C498.459 50.1182 498.304 51.0293 497.993 51.8027C497.688 52.5762 497.252 53.165 496.684 53.5693C496.115 53.9736 495.447 54.1758 494.68 54.1758ZM493.889 46.1338C493.227 46.1338 492.743 46.3389 492.438 46.749C492.134 47.1533 491.976 47.8242 491.964 48.7617V49.0518C491.964 50.1064 492.119 50.8623 492.43 51.3193C492.746 51.7764 493.244 52.0049 493.924 52.0049C495.125 52.0049 495.726 51.0146 495.726 49.0342C495.726 48.0674 495.576 47.3438 495.277 46.8633C494.984 46.377 494.521 46.1338 493.889 46.1338ZM506.158 43.9893C506.521 43.9893 506.823 44.0156 507.063 44.0684L506.861 46.582C506.645 46.5234 506.381 46.4941 506.07 46.4941C505.215 46.4941 504.547 46.7139 504.066 47.1533C503.592 47.5928 503.354 48.208 503.354 48.999V54H500.674V44.1738H502.704L503.1 45.8262H503.231C503.536 45.2754 503.946 44.833 504.462 44.499C504.983 44.1592 505.549 43.9893 506.158 43.9893ZM510.983 49.0693C510.983 50.042 511.142 50.7773 511.458 51.2754C511.78 51.7734 512.302 52.0225 513.022 52.0225C513.737 52.0225 514.25 51.7764 514.561 51.2842C514.877 50.7861 515.035 50.0479 515.035 49.0693C515.035 48.0967 514.877 47.3672 514.561 46.8809C514.244 46.3945 513.726 46.1514 513.005 46.1514C512.29 46.1514 511.774 46.3945 511.458 46.8809C511.142 47.3613 510.983 48.0908 510.983 49.0693ZM517.777 49.0693C517.777 50.6689 517.355 51.9199 516.512 52.8223C515.668 53.7246 514.493 54.1758 512.987 54.1758C512.044 54.1758 511.212 53.9707 510.491 53.5605C509.771 53.1445 509.217 52.5498 508.83 51.7764C508.443 51.0029 508.25 50.1006 508.25 49.0693C508.25 47.4639 508.669 46.2158 509.507 45.3252C510.345 44.4346 511.522 43.9893 513.04 43.9893C513.983 43.9893 514.815 44.1943 515.536 44.6045C516.257 45.0146 516.811 45.6035 517.197 46.3711C517.584 47.1387 517.777 48.0381 517.777 49.0693ZM525.389 54.1758C524.234 54.1758 523.329 53.7568 522.673 52.9189H522.532C522.626 53.7393 522.673 54.2139 522.673 54.3428V58.3242H519.992V44.1738H522.172L522.55 45.4482H522.673C523.3 44.4756 524.229 43.9893 525.459 43.9893C526.619 43.9893 527.527 44.4375 528.184 45.334C528.84 46.2305 529.168 47.4756 529.168 49.0693C529.168 50.1182 529.013 51.0293 528.702 51.8027C528.397 52.5762 527.961 53.165 527.393 53.5693C526.824 53.9736 526.156 54.1758 525.389 54.1758ZM524.598 46.1338C523.936 46.1338 523.452 46.3389 523.147 46.749C522.843 47.1533 522.685 47.8242 522.673 48.7617V49.0518C522.673 50.1064 522.828 50.8623 523.139 51.3193C523.455 51.7764 523.953 52.0049 524.633 52.0049C525.834 52.0049 526.435 51.0146 526.435 49.0342C526.435 48.0674 526.285 47.3438 525.986 46.8633C525.693 46.377 525.23 46.1338 524.598 46.1338ZM535.452 45.8965C534.884 45.8965 534.438 46.0781 534.116 46.4414C533.794 46.7988 533.609 47.3086 533.562 47.9707H537.324C537.312 47.3086 537.14 46.7988 536.806 46.4414C536.472 46.0781 536.021 45.8965 535.452 45.8965ZM535.83 54.1758C534.248 54.1758 533.012 53.7393 532.121 52.8662C531.23 51.9932 530.785 50.7568 530.785 49.1572C530.785 47.5107 531.195 46.2393 532.016 45.3428C532.842 44.4404 533.981 43.9893 535.435 43.9893C536.823 43.9893 537.904 44.3848 538.678 45.1758C539.451 45.9668 539.838 47.0596 539.838 48.4541V49.7549H533.501C533.53 50.5166 533.756 51.1113 534.178 51.5391C534.6 51.9668 535.191 52.1807 535.953 52.1807C536.545 52.1807 537.104 52.1191 537.632 51.9961C538.159 51.873 538.71 51.6768 539.284 51.4072V53.4814C538.815 53.7158 538.314 53.8887 537.781 54C537.248 54.1172 536.598 54.1758 535.83 54.1758ZM547.502 43.9893C547.865 43.9893 548.167 44.0156 548.407 44.0684L548.205 46.582C547.988 46.5234 547.725 46.4941 547.414 46.4941C546.559 46.4941 545.891 46.7139 545.41 47.1533C544.936 47.5928 544.698 48.208 544.698 48.999V54H542.018V44.1738H544.048L544.443 45.8262H544.575C544.88 45.2754 545.29 44.833 545.806 44.499C546.327 44.1592 546.893 43.9893 547.502 43.9893ZM554.331 52.04C554.8 52.04 555.362 51.9375 556.019 51.7324V53.7275C555.351 54.0264 554.53 54.1758 553.558 54.1758C552.485 54.1758 551.703 53.9062 551.211 53.3672C550.725 52.8223 550.481 52.0078 550.481 50.9238V46.1865H549.198V45.0527L550.675 44.1562L551.448 42.082H553.162V44.1738H555.913V46.1865H553.162V50.9238C553.162 51.3047 553.268 51.5859 553.479 51.7676C553.695 51.9492 553.979 52.04 554.331 52.04ZM556.607 44.1738H559.543L561.397 49.7021C561.556 50.1826 561.664 50.751 561.723 51.4072H561.775C561.84 50.8037 561.966 50.2354 562.153 49.7021L563.973 44.1738H566.847L562.689 55.2568C562.309 56.2822 561.764 57.0498 561.055 57.5596C560.352 58.0693 559.528 58.3242 558.585 58.3242C558.122 58.3242 557.668 58.2744 557.223 58.1748V56.0479C557.545 56.124 557.896 56.1621 558.277 56.1621C558.752 56.1621 559.165 56.0156 559.517 55.7227C559.874 55.4355 560.152 54.999 560.352 54.4131L560.51 53.9297L556.607 44.1738ZM573.957 49.7373V49.0869C573.957 48.5244 574.077 48.0352 574.317 47.6191C574.558 47.2031 574.997 46.7607 575.636 46.292C576.251 45.8525 576.655 45.4951 576.849 45.2197C577.048 44.9443 577.147 44.6367 577.147 44.2969C577.147 43.916 577.007 43.626 576.726 43.4268C576.444 43.2275 576.052 43.1279 575.548 43.1279C574.669 43.1279 573.667 43.415 572.542 43.9893L571.584 42.0645C572.891 41.332 574.276 40.9658 575.741 40.9658C576.948 40.9658 577.906 41.2559 578.615 41.8359C579.33 42.416 579.688 43.1895 579.688 44.1562C579.688 44.8008 579.541 45.3574 579.248 45.8262C578.955 46.2949 578.398 46.8223 577.578 47.4082C577.016 47.8242 576.658 48.1406 576.506 48.3574C576.359 48.5742 576.286 48.8584 576.286 49.21V49.7373H573.957ZM573.676 52.7432C573.676 52.251 573.808 51.8789 574.071 51.627C574.335 51.375 574.719 51.249 575.223 51.249C575.709 51.249 576.084 51.3779 576.348 51.6357C576.617 51.8936 576.752 52.2627 576.752 52.7432C576.752 53.2061 576.617 53.5723 576.348 53.8418C576.078 54.1055 575.703 54.2373 575.223 54.2373C574.73 54.2373 574.35 54.1084 574.08 53.8506C573.811 53.5869 573.676 53.2178 573.676 52.7432Z" fill="white"/>
<path d="M301.434 95.6445C300.066 95.6445 299.008 96.1602 298.258 97.1914C297.508 98.2148 297.133 99.6445 297.133 101.48C297.133 105.301 298.566 107.211 301.434 107.211C302.637 107.211 304.094 106.91 305.805 106.309V109.355C304.398 109.941 302.828 110.234 301.094 110.234C298.602 110.234 296.695 109.48 295.375 107.973C294.055 106.457 293.395 104.285 293.395 101.457C293.395 99.6758 293.719 98.1172 294.367 96.7812C295.016 95.4375 295.945 94.4102 297.156 93.6992C298.375 92.9805 299.801 92.6211 301.434 92.6211C303.098 92.6211 304.77 93.0234 306.449 93.8281L305.277 96.7812C304.637 96.4766 303.992 96.2109 303.344 95.9844C302.695 95.7578 302.059 95.6445 301.434 95.6445ZM317.5 110L316.809 108.219H316.715C316.113 108.977 315.492 109.504 314.852 109.801C314.219 110.09 313.391 110.234 312.367 110.234C311.109 110.234 310.117 109.875 309.391 109.156C308.672 108.438 308.312 107.414 308.312 106.086C308.312 104.695 308.797 103.672 309.766 103.016C310.742 102.352 312.211 101.984 314.172 101.914L316.445 101.844V101.27C316.445 99.9414 315.766 99.2773 314.406 99.2773C313.359 99.2773 312.129 99.5938 310.715 100.227L309.531 97.8125C311.039 97.0234 312.711 96.6289 314.547 96.6289C316.305 96.6289 317.652 97.0117 318.59 97.7773C319.527 98.543 319.996 99.707 319.996 101.27V110H317.5ZM316.445 103.93L315.062 103.977C314.023 104.008 313.25 104.195 312.742 104.539C312.234 104.883 311.98 105.406 311.98 106.109C311.98 107.117 312.559 107.621 313.715 107.621C314.543 107.621 315.203 107.383 315.695 106.906C316.195 106.43 316.445 105.797 316.445 105.008V103.93ZM327.262 110H323.688V91.7656H327.262V110ZM334.598 110H331.023V91.7656H334.598V110ZM350.113 107.387C350.738 107.387 351.488 107.25 352.363 106.977V109.637C351.473 110.035 350.379 110.234 349.082 110.234C347.652 110.234 346.609 109.875 345.953 109.156C345.305 108.43 344.98 107.344 344.98 105.898V99.582H343.27V98.0703L345.238 96.875L346.27 94.1094H348.555V96.8984H352.223V99.582H348.555V105.898C348.555 106.406 348.695 106.781 348.977 107.023C349.266 107.266 349.645 107.387 350.113 107.387ZM357.871 103.426C357.871 104.723 358.082 105.703 358.504 106.367C358.934 107.031 359.629 107.363 360.59 107.363C361.543 107.363 362.227 107.035 362.641 106.379C363.062 105.715 363.273 104.73 363.273 103.426C363.273 102.129 363.062 101.156 362.641 100.508C362.219 99.8594 361.527 99.5352 360.566 99.5352C359.613 99.5352 358.926 99.8594 358.504 100.508C358.082 101.148 357.871 102.121 357.871 103.426ZM366.93 103.426C366.93 105.559 366.367 107.227 365.242 108.43C364.117 109.633 362.551 110.234 360.543 110.234C359.285 110.234 358.176 109.961 357.215 109.414C356.254 108.859 355.516 108.066 355 107.035C354.484 106.004 354.227 104.801 354.227 103.426C354.227 101.285 354.785 99.6211 355.902 98.4336C357.02 97.2461 358.59 96.6523 360.613 96.6523C361.871 96.6523 362.98 96.9258 363.941 97.4727C364.902 98.0195 365.641 98.8047 366.156 99.8281C366.672 100.852 366.93 102.051 366.93 103.426ZM393.32 101.434C393.32 104.426 392.828 106.641 391.844 108.078C390.867 109.516 389.359 110.234 387.32 110.234C385.344 110.234 383.852 109.492 382.844 108.008C381.844 106.523 381.344 104.332 381.344 101.434C381.344 98.4102 381.832 96.1836 382.809 94.7539C383.785 93.3164 385.289 92.5977 387.32 92.5977C389.297 92.5977 390.789 93.3477 391.797 94.8477C392.812 96.3477 393.32 98.543 393.32 101.434ZM384.941 101.434C384.941 103.535 385.121 105.043 385.48 105.957C385.848 106.863 386.461 107.316 387.32 107.316C388.164 107.316 388.773 106.855 389.148 105.934C389.523 105.012 389.711 103.512 389.711 101.434C389.711 99.332 389.52 97.8242 389.137 96.9102C388.762 95.9883 388.156 95.5273 387.32 95.5273C386.469 95.5273 385.859 95.9883 385.492 96.9102C385.125 97.8242 384.941 99.332 384.941 101.434ZM407.512 106.449H405.449V110H401.91V106.449H394.598V103.93L402.109 92.8672H405.449V103.637H407.512V106.449ZM401.91 103.637V100.73C401.91 100.246 401.93 99.543 401.969 98.6211C402.008 97.6992 402.039 97.1641 402.062 97.0156H401.969C401.68 97.6562 401.332 98.2812 400.926 98.8906L397.785 103.637H401.91ZM421.223 106.449H419.16V110H415.621V106.449H408.309V103.93L415.82 92.8672H419.16V103.637H421.223V106.449ZM415.621 103.637V100.73C415.621 100.246 415.641 99.543 415.68 98.6211C415.719 97.6992 415.75 97.1641 415.773 97.0156H415.68C415.391 97.6562 415.043 98.2812 414.637 98.8906L411.496 103.637H415.621ZM432.402 103.309L428.184 96.8984H432.238L434.781 101.07L437.348 96.8984H441.402L437.137 103.309L441.602 110H437.535L434.781 105.512L432.016 110H427.961L432.402 103.309ZM446.277 103.309L442.059 96.8984H446.113L448.656 101.07L451.223 96.8984H455.277L451.012 103.309L455.477 110H451.41L448.656 105.512L445.891 110H441.836L446.277 103.309ZM460.152 103.309L455.934 96.8984H459.988L462.531 101.07L465.098 96.8984H469.152L464.887 103.309L469.352 110H465.285L462.531 105.512L459.766 110H455.711L460.152 103.309ZM474.027 103.309L469.809 96.8984H473.863L476.406 101.07L478.973 96.8984H483.027L478.762 103.309L483.227 110H479.16L476.406 105.512L473.641 110H469.586L474.027 103.309ZM487.902 103.309L483.684 96.8984H487.738L490.281 101.07L492.848 96.8984H496.902L492.637 103.309L497.102 110H493.035L490.281 105.512L487.516 110H483.461L487.902 103.309ZM501.777 103.309L497.559 96.8984H501.613L504.156 101.07L506.723 96.8984H510.777L506.512 103.309L510.977 110H506.91L504.156 105.512L501.391 110H497.336L501.777 103.309ZM515.652 103.309L511.434 96.8984H515.488L518.031 101.07L520.598 96.8984H524.652L520.387 103.309L524.852 110H520.785L518.031 105.512L515.266 110H511.211L515.652 103.309ZM529.527 103.309L525.309 96.8984H529.363L531.906 101.07L534.473 96.8984H538.527L534.262 103.309L538.727 110H534.66L531.906 105.512L529.141 110H525.086L529.527 103.309ZM543.402 103.309L539.184 96.8984H543.238L545.781 101.07L548.348 96.8984H552.402L548.137 103.309L552.602 110H548.535L545.781 105.512L543.016 110H538.961L543.402 103.309Z" fill="white"/>
<defs>
<filter id="filter0_d" x="0" y="0" width="844" height="155" filterUnits="userSpaceOnUse" color-interpolation-filters="sRGB">
<feFlood flood-opacity="0" result="BackgroundImageFix"/>
<feColorMatrix in="SourceAlpha" type="matrix" values="0 0 0 0 0 0 0 0 0 0 0 0 0 0 0 0 0 0 127 0"/>
<feOffset/>
<feGaussianBlur stdDeviation="2"/>
<feColorMatrix type="matrix" values="0 0 0 0 0 0 0 0 0 0 0 0 0 0 0 0 0 0 0.25 0"/>
<feBlend mode="normal" in2="BackgroundImageFix" result="effect1_dropShadow"/>
<feBlend mode="normal" in="SourceGraphic" in2="effect1_dropShadow" result="shape"/>
</filter>
</defs>
</svg>
