<svg width="1208" height="232" viewBox="0 0 1208 232" fill="none" xmlns="http://www.w3.org/2000/svg">
<g filter="url(#filter0_d)">
<rect x="4" y="4" width="1200" height="224" rx="8" fill="white"/>
</g>
<path d="M4 58H1204" stroke="#C4C4C4"/>
<path d="M4 114H1204" stroke="#C4C4C4"/>
<path d="M4 170H1204" stroke="#C4C4C4"/>
<path d="M74.9141 31.1797C74.9141 33.0599 74.3776 34.5 73.3047 35.5C72.237 36.5 70.6927 37 68.6719 37H65.4375V25.5781H69.0234C70.888 25.5781 72.3359 26.0703 73.3672 27.0547C74.3984 28.0391 74.9141 29.4141 74.9141 31.1797ZM72.3984 31.2422C72.3984 28.7891 71.3151 27.5625 69.1484 27.5625H67.8594V35H68.8984C71.2318 35 72.3984 33.7474 72.3984 31.2422ZM78.9922 32.6172C78.9922 33.4818 79.1328 34.1354 79.4141 34.5781C79.7005 35.0208 80.1641 35.2422 80.8047 35.2422C81.4401 35.2422 81.8958 35.0234 82.1719 34.5859C82.4531 34.1432 82.5938 33.487 82.5938 32.6172C82.5938 31.7526 82.4531 31.1042 82.1719 30.6719C81.8906 30.2396 81.4297 30.0234 80.7891 30.0234C80.1536 30.0234 79.6953 30.2396 79.4141 30.6719C79.1328 31.099 78.9922 31.7474 78.9922 32.6172ZM85.0312 32.6172C85.0312 34.0391 84.6562 35.151 83.9062 35.9531C83.1562 36.7552 82.112 37.1562 80.7734 37.1562C79.9349 37.1562 79.1953 36.974 78.5547 36.6094C77.9141 36.2396 77.4219 35.7109 77.0781 35.0234C76.7344 34.3359 76.5625 33.5339 76.5625 32.6172C76.5625 31.1901 76.9349 30.0807 77.6797 29.2891C78.4245 28.4974 79.4714 28.1016 80.8203 28.1016C81.6589 28.1016 82.3984 28.2839 83.0391 28.6484C83.6797 29.013 84.1719 29.5365 84.5156 30.2188C84.8594 30.901 85.0312 31.7005 85.0312 32.6172ZM90.5469 37.1562C87.8281 37.1562 86.4688 35.6641 86.4688 32.6797C86.4688 31.1953 86.8385 30.0625 87.5781 29.2812C88.3177 28.4948 89.3776 28.1016 90.7578 28.1016C91.7682 28.1016 92.6745 28.2995 93.4766 28.6953L92.7734 30.5391C92.3984 30.388 92.0495 30.2656 91.7266 30.1719C91.4036 30.0729 91.0807 30.0234 90.7578 30.0234C89.5182 30.0234 88.8984 30.9036 88.8984 32.6641C88.8984 34.3724 89.5182 35.2266 90.7578 35.2266C91.2161 35.2266 91.6406 35.1667 92.0312 35.0469C92.4219 34.9219 92.8125 34.7292 93.2031 34.4688V36.5078C92.8177 36.7526 92.4271 36.9219 92.0312 37.0156C91.6406 37.1094 91.1458 37.1562 90.5469 37.1562ZM101.422 37L101.102 35.8828H100.977C100.721 36.2891 100.359 36.6042 99.8906 36.8281C99.4219 37.0469 98.888 37.1562 98.2891 37.1562C97.263 37.1562 96.4896 36.8828 95.9688 36.3359C95.4479 35.7839 95.1875 34.9922 95.1875 33.9609V28.2656H97.5703V33.3672C97.5703 33.9974 97.6823 34.4714 97.9062 34.7891C98.1302 35.1016 98.487 35.2578 98.9766 35.2578C99.6432 35.2578 100.125 35.0365 100.422 34.5938C100.719 34.1458 100.867 33.4062 100.867 32.375V28.2656H103.25V37H101.422ZM113.57 37H111.188V31.8984C111.188 31.2682 111.081 30.7969 110.867 30.4844C110.659 30.1667 110.328 30.0078 109.875 30.0078C109.266 30.0078 108.823 30.2318 108.547 30.6797C108.271 31.1276 108.133 31.8646 108.133 32.8906V37H105.75V28.2656H107.57L107.891 29.3828H108.023C108.258 28.9818 108.596 28.6693 109.039 28.4453C109.482 28.2161 109.99 28.1016 110.562 28.1016C111.87 28.1016 112.755 28.5286 113.219 29.3828H113.43C113.664 28.9766 114.008 28.6615 114.461 28.4375C114.919 28.2135 115.435 28.1016 116.008 28.1016C116.997 28.1016 117.745 28.3568 118.25 28.8672C118.76 29.3724 119.016 30.1849 119.016 31.3047V37H116.625V31.8984C116.625 31.2682 116.518 30.7969 116.305 30.4844C116.096 30.1667 115.766 30.0078 115.312 30.0078C114.729 30.0078 114.292 30.2161 114 30.6328C113.714 31.0495 113.57 31.7109 113.57 32.6172V37ZM125.086 29.7969C124.581 29.7969 124.185 29.9583 123.898 30.2812C123.612 30.599 123.448 31.0521 123.406 31.6406H126.75C126.74 31.0521 126.586 30.599 126.289 30.2812C125.992 29.9583 125.591 29.7969 125.086 29.7969ZM125.422 37.1562C124.016 37.1562 122.917 36.7682 122.125 35.9922C121.333 35.2161 120.938 34.1172 120.938 32.6953C120.938 31.2318 121.302 30.1016 122.031 29.3047C122.766 28.5026 123.779 28.1016 125.07 28.1016C126.305 28.1016 127.266 28.4531 127.953 29.1562C128.641 29.8594 128.984 30.8307 128.984 32.0703V33.2266H123.352C123.378 33.9036 123.578 34.4323 123.953 34.8125C124.328 35.1927 124.854 35.3828 125.531 35.3828C126.057 35.3828 126.555 35.3281 127.023 35.2188C127.492 35.1094 127.982 34.9349 128.492 34.6953V36.5391C128.076 36.7474 127.63 36.901 127.156 37C126.682 37.1042 126.104 37.1562 125.422 37.1562ZM138.984 37H136.602V31.8984C136.602 31.2682 136.49 30.7969 136.266 30.4844C136.042 30.1667 135.685 30.0078 135.195 30.0078C134.529 30.0078 134.047 30.2318 133.75 30.6797C133.453 31.1224 133.305 31.8594 133.305 32.8906V37H130.922V28.2656H132.742L133.062 29.3828H133.195C133.461 28.9609 133.826 28.6432 134.289 28.4297C134.758 28.2109 135.289 28.1016 135.883 28.1016C136.898 28.1016 137.669 28.3776 138.195 28.9297C138.721 29.4766 138.984 30.2682 138.984 31.3047V37ZM145.117 35.2578C145.534 35.2578 146.034 35.1667 146.617 34.9844V36.7578C146.023 37.0234 145.294 37.1562 144.43 37.1562C143.477 37.1562 142.781 36.9167 142.344 36.4375C141.911 35.9531 141.695 35.2292 141.695 34.2656V30.0547H140.555V29.0469L141.867 28.25L142.555 26.4062H144.078V28.2656H146.523V30.0547H144.078V34.2656C144.078 34.6042 144.172 34.8542 144.359 35.0156C144.552 35.1771 144.805 35.2578 145.117 35.2578ZM162.867 37H159.789L154.82 28.3594H154.75C154.849 29.8854 154.898 30.974 154.898 31.625V37H152.734V25.5781H155.789L160.75 34.1328H160.805C160.727 32.6484 160.688 31.599 160.688 30.9844V25.5781H162.867V37ZM171.109 37L170.648 35.8125H170.586C170.185 36.3177 169.771 36.6693 169.344 36.8672C168.922 37.0599 168.37 37.1562 167.688 37.1562C166.849 37.1562 166.188 36.9167 165.703 36.4375C165.224 35.9583 164.984 35.276 164.984 34.3906C164.984 33.4635 165.307 32.7812 165.953 32.3438C166.604 31.901 167.583 31.6562 168.891 31.6094L170.406 31.5625V31.1797C170.406 30.2943 169.953 29.8516 169.047 29.8516C168.349 29.8516 167.529 30.0625 166.586 30.4844L165.797 28.875C166.802 28.349 167.917 28.0859 169.141 28.0859C170.312 28.0859 171.211 28.3411 171.836 28.8516C172.461 29.362 172.773 30.138 172.773 31.1797V37H171.109ZM170.406 32.9531L169.484 32.9844C168.792 33.0052 168.276 33.1302 167.938 33.3594C167.599 33.5885 167.43 33.9375 167.43 34.4062C167.43 35.0781 167.815 35.4141 168.586 35.4141C169.138 35.4141 169.578 35.2552 169.906 34.9375C170.24 34.6198 170.406 34.1979 170.406 33.6719V32.9531ZM183.055 37H180.672V31.8984C180.672 31.2682 180.565 30.7969 180.352 30.4844C180.143 30.1667 179.812 30.0078 179.359 30.0078C178.75 30.0078 178.307 30.2318 178.031 30.6797C177.755 31.1276 177.617 31.8646 177.617 32.8906V37H175.234V28.2656H177.055L177.375 29.3828H177.508C177.742 28.9818 178.081 28.6693 178.523 28.4453C178.966 28.2161 179.474 28.1016 180.047 28.1016C181.354 28.1016 182.24 28.5286 182.703 29.3828H182.914C183.148 28.9766 183.492 28.6615 183.945 28.4375C184.404 28.2135 184.919 28.1016 185.492 28.1016C186.482 28.1016 187.229 28.3568 187.734 28.8672C188.245 29.3724 188.5 30.1849 188.5 31.3047V37H186.109V31.8984C186.109 31.2682 186.003 30.7969 185.789 30.4844C185.581 30.1667 185.25 30.0078 184.797 30.0078C184.214 30.0078 183.776 30.2161 183.484 30.6328C183.198 31.0495 183.055 31.7109 183.055 32.6172V37ZM194.57 29.7969C194.065 29.7969 193.669 29.9583 193.383 30.2812C193.096 30.599 192.932 31.0521 192.891 31.6406H196.234C196.224 31.0521 196.07 30.599 195.773 30.2812C195.477 29.9583 195.076 29.7969 194.57 29.7969ZM194.906 37.1562C193.5 37.1562 192.401 36.7682 191.609 35.9922C190.818 35.2161 190.422 34.1172 190.422 32.6953C190.422 31.2318 190.786 30.1016 191.516 29.3047C192.25 28.5026 193.263 28.1016 194.555 28.1016C195.789 28.1016 196.75 28.4531 197.438 29.1562C198.125 29.8594 198.469 30.8307 198.469 32.0703V33.2266H192.836C192.862 33.9036 193.062 34.4323 193.438 34.8125C193.812 35.1927 194.339 35.3828 195.016 35.3828C195.542 35.3828 196.039 35.3281 196.508 35.2188C196.977 35.1094 197.466 34.9349 197.977 34.6953V36.5391C197.56 36.7474 197.115 36.901 196.641 37C196.167 37.1042 195.589 37.1562 194.906 37.1562Z" fill="#1F1F1F"/>
<path d="M102.461 81.6016C101.206 81.6016 100.214 82.0208 99.4844 82.8594C98.7604 83.6927 98.3984 84.8359 98.3984 86.2891C98.3984 87.7839 98.7474 88.9401 99.4453 89.7578C100.148 90.5703 101.148 90.9766 102.445 90.9766C103.242 90.9766 104.151 90.8333 105.172 90.5469V91.7109C104.38 92.0078 103.404 92.1562 102.242 92.1562C100.56 92.1562 99.2604 91.6458 98.3438 90.625C97.4323 89.6042 96.9766 88.1536 96.9766 86.2734C96.9766 85.0964 97.1953 84.0651 97.6328 83.1797C98.0755 82.2943 98.7109 81.612 99.5391 81.1328C100.372 80.6536 101.352 80.4141 102.477 80.4141C103.674 80.4141 104.721 80.6328 105.617 81.0703L105.055 82.2109C104.19 81.8047 103.326 81.6016 102.461 81.6016ZM111.086 92.1562C109.82 92.1562 108.82 91.7708 108.086 91C107.357 90.2292 106.992 89.1589 106.992 87.7891C106.992 86.4089 107.331 85.3125 108.008 84.5C108.69 83.6875 109.604 83.2812 110.75 83.2812C111.823 83.2812 112.672 83.6354 113.297 84.3438C113.922 85.0469 114.234 85.9766 114.234 87.1328V87.9531H108.336C108.362 88.9583 108.615 89.7214 109.094 90.2422C109.578 90.763 110.258 91.0234 111.133 91.0234C112.055 91.0234 112.966 90.8307 113.867 90.4453V91.6016C113.409 91.7995 112.974 91.9401 112.562 92.0234C112.156 92.112 111.664 92.1562 111.086 92.1562ZM110.734 84.3672C110.047 84.3672 109.497 84.5911 109.086 85.0391C108.68 85.487 108.44 86.1068 108.367 86.8984H112.844C112.844 86.0807 112.661 85.4557 112.297 85.0234C111.932 84.5859 111.411 84.3672 110.734 84.3672ZM120.359 83.2812C120.74 83.2812 121.081 83.3125 121.383 83.375L121.203 84.5781C120.849 84.5 120.536 84.4609 120.266 84.4609C119.573 84.4609 118.979 84.7422 118.484 85.3047C117.995 85.8672 117.75 86.5677 117.75 87.4062V92H116.453V83.4375H117.523L117.672 85.0234H117.734C118.052 84.4661 118.435 84.0365 118.883 83.7344C119.331 83.4323 119.823 83.2812 120.359 83.2812ZM125.75 91.0859C125.979 91.0859 126.201 91.0703 126.414 91.0391C126.628 91.0026 126.797 90.9661 126.922 90.9297V91.9219C126.781 91.9896 126.573 92.0443 126.297 92.0859C126.026 92.1328 125.781 92.1562 125.562 92.1562C123.906 92.1562 123.078 91.2839 123.078 89.5391V84.4453H121.852V83.8203L123.078 83.2812L123.625 81.4531H124.375V83.4375H126.859V84.4453H124.375V89.4844C124.375 90 124.497 90.3958 124.742 90.6719C124.987 90.9479 125.323 91.0859 125.75 91.0859ZM129.938 92H128.641V83.4375H129.938V92ZM128.531 81.1172C128.531 80.8203 128.604 80.6042 128.75 80.4688C128.896 80.3281 129.078 80.2578 129.297 80.2578C129.505 80.2578 129.685 80.3281 129.836 80.4688C129.987 80.6094 130.062 80.8255 130.062 81.1172C130.062 81.4089 129.987 81.6276 129.836 81.7734C129.685 81.9141 129.505 81.9844 129.297 81.9844C129.078 81.9844 128.896 81.9141 128.75 81.7734C128.604 81.6276 128.531 81.4089 128.531 81.1172ZM136.547 84.4453H134.367V92H133.07V84.4453H131.539V83.8594L133.07 83.3906V82.9141C133.07 80.8099 133.99 79.7578 135.828 79.7578C136.281 79.7578 136.812 79.849 137.422 80.0312L137.086 81.0703C136.586 80.9089 136.159 80.8281 135.805 80.8281C135.315 80.8281 134.953 80.9922 134.719 81.3203C134.484 81.6432 134.367 82.1641 134.367 82.8828V83.4375H136.547V84.4453ZM139.406 92H138.109V83.4375H139.406V92ZM138 81.1172C138 80.8203 138.073 80.6042 138.219 80.4688C138.365 80.3281 138.547 80.2578 138.766 80.2578C138.974 80.2578 139.154 80.3281 139.305 80.4688C139.456 80.6094 139.531 80.8255 139.531 81.1172C139.531 81.4089 139.456 81.6276 139.305 81.7734C139.154 81.9141 138.974 81.9844 138.766 81.9844C138.547 81.9844 138.365 81.9141 138.219 81.7734C138.073 81.6276 138 81.4089 138 81.1172ZM145.578 92.1562C144.339 92.1562 143.378 91.776 142.695 91.0156C142.018 90.25 141.68 89.1693 141.68 87.7734C141.68 86.3411 142.023 85.2344 142.711 84.4531C143.404 83.6719 144.388 83.2812 145.664 83.2812C146.076 83.2812 146.487 83.3255 146.898 83.4141C147.31 83.5026 147.633 83.6068 147.867 83.7266L147.469 84.8281C147.182 84.7135 146.87 84.6198 146.531 84.5469C146.193 84.4688 145.893 84.4297 145.633 84.4297C143.893 84.4297 143.023 85.5391 143.023 87.7578C143.023 88.8099 143.234 89.6172 143.656 90.1797C144.083 90.7422 144.714 91.0234 145.547 91.0234C146.26 91.0234 146.992 90.8698 147.742 90.5625V91.7109C147.169 92.0078 146.448 92.1562 145.578 92.1562ZM155.047 92L154.789 90.7812H154.727C154.299 91.3177 153.872 91.6823 153.445 91.875C153.023 92.0625 152.495 92.1562 151.859 92.1562C151.01 92.1562 150.344 91.9375 149.859 91.5C149.38 91.0625 149.141 90.4401 149.141 89.6328C149.141 87.9036 150.523 86.9974 153.289 86.9141L154.742 86.8672V86.3359C154.742 85.6641 154.596 85.1693 154.305 84.8516C154.018 84.5286 153.557 84.3672 152.922 84.3672C152.208 84.3672 151.401 84.5859 150.5 85.0234L150.102 84.0312C150.523 83.8021 150.984 83.6224 151.484 83.4922C151.99 83.362 152.495 83.2969 153 83.2969C154.021 83.2969 154.776 83.5234 155.266 83.9766C155.76 84.4297 156.008 85.1562 156.008 86.1562V92H155.047ZM152.117 91.0859C152.924 91.0859 153.557 90.8646 154.016 90.4219C154.479 89.9792 154.711 89.3594 154.711 88.5625V87.7891L153.414 87.8438C152.383 87.8802 151.638 88.0417 151.18 88.3281C150.727 88.6094 150.5 89.0495 150.5 89.6484C150.5 90.1172 150.641 90.474 150.922 90.7188C151.208 90.9635 151.607 91.0859 152.117 91.0859ZM161.453 91.0859C161.682 91.0859 161.904 91.0703 162.117 91.0391C162.331 91.0026 162.5 90.9661 162.625 90.9297V91.9219C162.484 91.9896 162.276 92.0443 162 92.0859C161.729 92.1328 161.484 92.1562 161.266 92.1562C159.609 92.1562 158.781 91.2839 158.781 89.5391V84.4453H157.555V83.8203L158.781 83.2812L159.328 81.4531H160.078V83.4375H162.562V84.4453H160.078V89.4844C160.078 90 160.201 90.3958 160.445 90.6719C160.69 90.9479 161.026 91.0859 161.453 91.0859ZM167.961 92.1562C166.695 92.1562 165.695 91.7708 164.961 91C164.232 90.2292 163.867 89.1589 163.867 87.7891C163.867 86.4089 164.206 85.3125 164.883 84.5C165.565 83.6875 166.479 83.2812 167.625 83.2812C168.698 83.2812 169.547 83.6354 170.172 84.3438C170.797 85.0469 171.109 85.9766 171.109 87.1328V87.9531H165.211C165.237 88.9583 165.49 89.7214 165.969 90.2422C166.453 90.763 167.133 91.0234 168.008 91.0234C168.93 91.0234 169.841 90.8307 170.742 90.4453V91.6016C170.284 91.7995 169.849 91.9401 169.438 92.0234C169.031 92.112 168.539 92.1562 167.961 92.1562ZM167.609 84.3672C166.922 84.3672 166.372 84.5911 165.961 85.0391C165.555 85.487 165.315 86.1068 165.242 86.8984H169.719C169.719 86.0807 169.536 85.4557 169.172 85.0234C168.807 84.5859 168.286 84.3672 167.609 84.3672ZM184.875 87.7109C184.875 89.1068 184.523 90.1979 183.82 90.9844C183.117 91.7656 182.146 92.1562 180.906 92.1562C180.141 92.1562 179.461 91.9766 178.867 91.6172C178.273 91.2578 177.815 90.7422 177.492 90.0703C177.169 89.3984 177.008 88.612 177.008 87.7109C177.008 86.3151 177.357 85.2292 178.055 84.4531C178.753 83.6719 179.721 83.2812 180.961 83.2812C182.159 83.2812 183.109 83.6797 183.812 84.4766C184.521 85.2734 184.875 86.3516 184.875 87.7109ZM178.352 87.7109C178.352 88.8047 178.57 89.638 179.008 90.2109C179.445 90.7839 180.089 91.0703 180.938 91.0703C181.786 91.0703 182.43 90.7865 182.867 90.2188C183.31 89.6458 183.531 88.8099 183.531 87.7109C183.531 86.6224 183.31 85.7969 182.867 85.2344C182.43 84.6667 181.781 84.3828 180.922 84.3828C180.073 84.3828 179.432 84.6615 179 85.2188C178.568 85.776 178.352 86.6068 178.352 87.7109ZM191.016 84.4453H188.836V92H187.539V84.4453H186.008V83.8594L187.539 83.3906V82.9141C187.539 80.8099 188.458 79.7578 190.297 79.7578C190.75 79.7578 191.281 79.849 191.891 80.0312L191.555 81.0703C191.055 80.9089 190.628 80.8281 190.273 80.8281C189.784 80.8281 189.422 80.9922 189.188 81.3203C188.953 81.6432 188.836 82.1641 188.836 82.8828V83.4375H191.016V84.4453ZM206.844 86.2734C206.844 88.1016 206.38 89.5391 205.453 90.5859C204.531 91.6328 203.247 92.1562 201.602 92.1562C199.919 92.1562 198.62 91.6432 197.703 90.6172C196.792 89.5859 196.336 88.1328 196.336 86.2578C196.336 84.3984 196.794 82.9583 197.711 81.9375C198.628 80.9115 199.93 80.3984 201.617 80.3984C203.258 80.3984 204.539 80.9193 205.461 81.9609C206.383 83.0026 206.844 84.4401 206.844 86.2734ZM197.742 86.2734C197.742 87.8203 198.07 88.9948 198.727 89.7969C199.388 90.5938 200.346 90.9922 201.602 90.9922C202.867 90.9922 203.823 90.5938 204.469 89.7969C205.115 89 205.438 87.8255 205.438 86.2734C205.438 84.737 205.115 83.5729 204.469 82.7812C203.828 81.9844 202.878 81.5859 201.617 81.5859C200.352 81.5859 199.388 81.987 198.727 82.7891C198.07 83.5859 197.742 84.7474 197.742 86.2734ZM212.625 92.1562C211.385 92.1562 210.424 91.776 209.742 91.0156C209.065 90.25 208.727 89.1693 208.727 87.7734C208.727 86.3411 209.07 85.2344 209.758 84.4531C210.451 83.6719 211.435 83.2812 212.711 83.2812C213.122 83.2812 213.534 83.3255 213.945 83.4141C214.357 83.5026 214.68 83.6068 214.914 83.7266L214.516 84.8281C214.229 84.7135 213.917 84.6198 213.578 84.5469C213.24 84.4688 212.94 84.4297 212.68 84.4297C210.94 84.4297 210.07 85.5391 210.07 87.7578C210.07 88.8099 210.281 89.6172 210.703 90.1797C211.13 90.7422 211.76 91.0234 212.594 91.0234C213.307 91.0234 214.039 90.8698 214.789 90.5625V91.7109C214.216 92.0078 213.495 92.1562 212.625 92.1562ZM220.25 92.1562C219.01 92.1562 218.049 91.776 217.367 91.0156C216.69 90.25 216.352 89.1693 216.352 87.7734C216.352 86.3411 216.695 85.2344 217.383 84.4531C218.076 83.6719 219.06 83.2812 220.336 83.2812C220.747 83.2812 221.159 83.3255 221.57 83.4141C221.982 83.5026 222.305 83.6068 222.539 83.7266L222.141 84.8281C221.854 84.7135 221.542 84.6198 221.203 84.5469C220.865 84.4688 220.565 84.4297 220.305 84.4297C218.565 84.4297 217.695 85.5391 217.695 87.7578C217.695 88.8099 217.906 89.6172 218.328 90.1797C218.755 90.7422 219.385 91.0234 220.219 91.0234C220.932 91.0234 221.664 90.8698 222.414 90.5625V91.7109C221.841 92.0078 221.12 92.1562 220.25 92.1562ZM225.672 83.4375V88.9922C225.672 89.6901 225.831 90.2109 226.148 90.5547C226.466 90.8984 226.964 91.0703 227.641 91.0703C228.536 91.0703 229.19 90.8255 229.602 90.3359C230.018 89.8464 230.227 89.0469 230.227 87.9375V83.4375H231.523V92H230.453L230.266 90.8516H230.195C229.93 91.2734 229.56 91.5964 229.086 91.8203C228.617 92.0443 228.081 92.1562 227.477 92.1562C226.435 92.1562 225.654 91.9089 225.133 91.4141C224.617 90.9193 224.359 90.1276 224.359 89.0391V83.4375H225.672ZM238.266 92.1562C237.708 92.1562 237.198 92.0547 236.734 91.8516C236.276 91.6432 235.891 91.3255 235.578 90.8984H235.484C235.547 91.3984 235.578 91.8724 235.578 92.3203V95.8438H234.281V83.4375H235.336L235.516 84.6094H235.578C235.911 84.1406 236.299 83.8021 236.742 83.5938C237.185 83.3854 237.693 83.2812 238.266 83.2812C239.401 83.2812 240.276 83.6693 240.891 84.4453C241.51 85.2214 241.82 86.3099 241.82 87.7109C241.82 89.1172 241.505 90.2109 240.875 90.9922C240.25 91.7682 239.38 92.1562 238.266 92.1562ZM238.078 84.3828C237.203 84.3828 236.57 84.625 236.18 85.1094C235.789 85.5938 235.589 86.3646 235.578 87.4219V87.7109C235.578 88.9141 235.779 89.776 236.18 90.2969C236.581 90.8125 237.224 91.0703 238.109 91.0703C238.849 91.0703 239.427 90.7708 239.844 90.1719C240.266 89.5729 240.477 88.7474 240.477 87.6953C240.477 86.6276 240.266 85.8099 239.844 85.2422C239.427 84.6693 238.839 84.3828 238.078 84.3828ZM249.359 92L249.102 90.7812H249.039C248.612 91.3177 248.185 91.6823 247.758 91.875C247.336 92.0625 246.807 92.1562 246.172 92.1562C245.323 92.1562 244.656 91.9375 244.172 91.5C243.693 91.0625 243.453 90.4401 243.453 89.6328C243.453 87.9036 244.836 86.9974 247.602 86.9141L249.055 86.8672V86.3359C249.055 85.6641 248.909 85.1693 248.617 84.8516C248.331 84.5286 247.87 84.3672 247.234 84.3672C246.521 84.3672 245.714 84.5859 244.812 85.0234L244.414 84.0312C244.836 83.8021 245.297 83.6224 245.797 83.4922C246.302 83.362 246.807 83.2969 247.312 83.2969C248.333 83.2969 249.089 83.5234 249.578 83.9766C250.073 84.4297 250.32 85.1562 250.32 86.1562V92H249.359ZM246.43 91.0859C247.237 91.0859 247.87 90.8646 248.328 90.4219C248.792 89.9792 249.023 89.3594 249.023 88.5625V87.7891L247.727 87.8438C246.695 87.8802 245.951 88.0417 245.492 88.3281C245.039 88.6094 244.812 89.0495 244.812 89.6484C244.812 90.1172 244.953 90.474 245.234 90.7188C245.521 90.9635 245.919 91.0859 246.43 91.0859ZM258.859 92V86.4609C258.859 85.763 258.701 85.2422 258.383 84.8984C258.065 84.5547 257.568 84.3828 256.891 84.3828C255.995 84.3828 255.339 84.625 254.922 85.1094C254.505 85.5938 254.297 86.3932 254.297 87.5078V92H253V83.4375H254.055L254.266 84.6094H254.328C254.594 84.1875 254.966 83.862 255.445 83.6328C255.924 83.3984 256.458 83.2812 257.047 83.2812C258.078 83.2812 258.854 83.5312 259.375 84.0312C259.896 84.526 260.156 85.3203 260.156 86.4141V92H258.859ZM266.25 92.1562C265.01 92.1562 264.049 91.776 263.367 91.0156C262.69 90.25 262.352 89.1693 262.352 87.7734C262.352 86.3411 262.695 85.2344 263.383 84.4531C264.076 83.6719 265.06 83.2812 266.336 83.2812C266.747 83.2812 267.159 83.3255 267.57 83.4141C267.982 83.5026 268.305 83.6068 268.539 83.7266L268.141 84.8281C267.854 84.7135 267.542 84.6198 267.203 84.5469C266.865 84.4688 266.565 84.4297 266.305 84.4297C264.565 84.4297 263.695 85.5391 263.695 87.7578C263.695 88.8099 263.906 89.6172 264.328 90.1797C264.755 90.7422 265.385 91.0234 266.219 91.0234C266.932 91.0234 267.664 90.8698 268.414 90.5625V91.7109C267.841 92.0078 267.12 92.1562 266.25 92.1562ZM269.094 83.4375H270.484L272.359 88.3203C272.771 89.4349 273.026 90.2396 273.125 90.7344H273.188C273.255 90.4688 273.396 90.0156 273.609 89.375C273.828 88.7292 274.536 86.75 275.734 83.4375H277.125L273.445 93.1875C273.081 94.151 272.654 94.8333 272.164 95.2344C271.68 95.6406 271.083 95.8438 270.375 95.8438C269.979 95.8438 269.589 95.7995 269.203 95.7109V94.6719C269.49 94.7344 269.81 94.7656 270.164 94.7656C271.055 94.7656 271.69 94.2656 272.07 93.2656L272.547 92.0469L269.094 83.4375Z" fill="#1F1F1F"/>
<path d="M84.4988 76.7168H83.797V93.9574C83.797 95.1028 82.8647 96.0351 81.7193 96.0351H74.609H68.9549V96.6742C68.9549 97.406 69.5489 98 70.2807 98H77.3885H84.4963C85.2281 98 85.8221 97.406 85.8221 96.6742V78.0426C85.8221 77.3108 85.2306 76.7168 84.4988 76.7168Z" fill="#B3404A"/>
<path d="M74.609 95.2832H81.7168C82.4486 95.2832 83.0426 94.6892 83.0426 93.9574V76.7168V75.3258C83.0426 74.594 82.4486 74 81.7168 74H74.609H72.2456V74.4386C72.2506 74.4837 72.2531 74.5313 72.2531 74.5789V77.4687V78.2105C72.2531 79.2406 71.416 80.0777 70.3859 80.0777H69.6441H66.7544C66.7168 80.0777 66.6767 80.0752 66.6391 80.0727H66.1779V93.9574C66.1779 94.6892 66.7719 95.2832 67.5037 95.2832H68.9574H74.609ZM74.8772 90.777H70.2431C69.8972 90.777 69.6165 90.4962 69.6165 90.1504C69.6165 89.8045 69.8972 89.5238 70.2431 89.5238H74.8797C75.2255 89.5238 75.5062 89.8045 75.5062 90.1504C75.5062 90.4962 75.223 90.777 74.8772 90.777ZM79.5138 87.579H70.2431C69.8972 87.579 69.6165 87.2983 69.6165 86.9524C69.6165 86.6065 69.8972 86.3259 70.2431 86.3259H79.5138C79.8596 86.3259 80.1403 86.6065 80.1403 86.9524C80.1403 87.2983 79.8596 87.579 79.5138 87.579ZM70.2431 82.9298H79.5138C79.8596 82.9298 80.1403 83.2105 80.1403 83.5564C80.1403 83.9023 79.8596 84.183 79.5138 84.183H70.2431C69.8972 84.183 69.6165 83.9023 69.6165 83.5564C69.6165 83.2105 69.8972 82.9298 70.2431 82.9298Z" fill="#B3404A"/>
<path d="M66.7562 79.3282H70.3878C70.3903 79.3282 70.3953 79.3282 70.3978 79.3282C71.0043 79.3232 71.4956 78.832 71.5006 78.2255C71.5006 78.223 71.5006 78.218 71.5006 78.2154V74.5814C71.5006 74.2455 71.2249 74.0225 70.9392 74.0225C70.8014 74.0225 70.6635 74.0726 70.5482 74.1879L66.3602 78.3758C66.0094 78.7267 66.2575 79.3282 66.7562 79.3282Z" fill="#B3404A"/>
<path d="M84.4988 132.717H83.797V149.957C83.797 151.103 82.8647 152.035 81.7193 152.035H74.609H68.9549V152.674C68.9549 153.406 69.5489 154 70.2807 154H77.3885H84.4963C85.2281 154 85.8221 153.406 85.8221 152.674V134.043C85.8221 133.311 85.2306 132.717 84.4988 132.717Z" fill="#B3404A"/>
<path d="M74.609 151.283H81.7168C82.4486 151.283 83.0426 150.689 83.0426 149.957V132.717V131.326C83.0426 130.594 82.4486 130 81.7168 130H74.609H72.2456V130.439C72.2506 130.484 72.2531 130.531 72.2531 130.579V133.469V134.211C72.2531 135.241 71.416 136.078 70.3859 136.078H69.6441H66.7544C66.7168 136.078 66.6767 136.075 66.6391 136.073H66.1779V149.957C66.1779 150.689 66.7719 151.283 67.5037 151.283H68.9574H74.609ZM74.8772 146.777H70.2431C69.8972 146.777 69.6165 146.496 69.6165 146.15C69.6165 145.805 69.8972 145.524 70.2431 145.524H74.8797C75.2255 145.524 75.5062 145.805 75.5062 146.15C75.5062 146.496 75.223 146.777 74.8772 146.777ZM79.5138 143.579H70.2431C69.8972 143.579 69.6165 143.298 69.6165 142.952C69.6165 142.607 69.8972 142.326 70.2431 142.326H79.5138C79.8596 142.326 80.1403 142.607 80.1403 142.952C80.1403 143.298 79.8596 143.579 79.5138 143.579ZM70.2431 138.93H79.5138C79.8596 138.93 80.1403 139.211 80.1403 139.556C80.1403 139.902 79.8596 140.183 79.5138 140.183H70.2431C69.8972 140.183 69.6165 139.902 69.6165 139.556C69.6165 139.211 69.8972 138.93 70.2431 138.93Z" fill="#B3404A"/>
<path d="M66.7562 135.328H70.3878C70.3903 135.328 70.3953 135.328 70.3978 135.328C71.0043 135.323 71.4956 134.832 71.5006 134.225C71.5006 134.223 71.5006 134.218 71.5006 134.215V130.581C71.5006 130.246 71.2249 130.022 70.9392 130.022C70.8014 130.022 70.6635 130.073 70.5482 130.188L66.3602 134.376C66.0094 134.727 66.2575 135.328 66.7562 135.328Z" fill="#B3404A"/>
<path d="M102.594 142.016H106.477V147.57C105.872 147.763 105.258 147.909 104.633 148.008C104.008 148.107 103.284 148.156 102.461 148.156C100.732 148.156 99.3854 147.643 98.4219 146.617C97.4583 145.586 96.9766 144.143 96.9766 142.289C96.9766 141.102 97.2135 140.062 97.6875 139.172C98.1667 138.276 98.8542 137.594 99.75 137.125C100.646 136.651 101.695 136.414 102.898 136.414C104.117 136.414 105.253 136.638 106.305 137.086L105.789 138.258C104.758 137.82 103.766 137.602 102.812 137.602C101.422 137.602 100.336 138.016 99.5547 138.844C98.7734 139.672 98.3828 140.82 98.3828 142.289C98.3828 143.831 98.7578 145 99.5078 145.797C100.263 146.594 101.37 146.992 102.828 146.992C103.62 146.992 104.393 146.901 105.148 146.719V143.203H102.594V142.016ZM116.422 143.711C116.422 145.107 116.07 146.198 115.367 146.984C114.664 147.766 113.693 148.156 112.453 148.156C111.688 148.156 111.008 147.977 110.414 147.617C109.82 147.258 109.362 146.742 109.039 146.07C108.716 145.398 108.555 144.612 108.555 143.711C108.555 142.315 108.904 141.229 109.602 140.453C110.299 139.672 111.268 139.281 112.508 139.281C113.706 139.281 114.656 139.68 115.359 140.477C116.068 141.273 116.422 142.352 116.422 143.711ZM109.898 143.711C109.898 144.805 110.117 145.638 110.555 146.211C110.992 146.784 111.635 147.07 112.484 147.07C113.333 147.07 113.977 146.786 114.414 146.219C114.857 145.646 115.078 144.81 115.078 143.711C115.078 142.622 114.857 141.797 114.414 141.234C113.977 140.667 113.328 140.383 112.469 140.383C111.62 140.383 110.979 140.661 110.547 141.219C110.115 141.776 109.898 142.607 109.898 143.711ZM120.578 148L117.328 139.438H118.719L120.562 144.516C120.979 145.703 121.224 146.474 121.297 146.828H121.359C121.417 146.552 121.596 145.982 121.898 145.117C122.206 144.247 122.891 142.354 123.953 139.438H125.344L122.094 148H120.578ZM130.336 148.156C129.07 148.156 128.07 147.771 127.336 147C126.607 146.229 126.242 145.159 126.242 143.789C126.242 142.409 126.581 141.312 127.258 140.5C127.94 139.688 128.854 139.281 130 139.281C131.073 139.281 131.922 139.635 132.547 140.344C133.172 141.047 133.484 141.977 133.484 143.133V143.953H127.586C127.612 144.958 127.865 145.721 128.344 146.242C128.828 146.763 129.508 147.023 130.383 147.023C131.305 147.023 132.216 146.831 133.117 146.445V147.602C132.659 147.799 132.224 147.94 131.812 148.023C131.406 148.112 130.914 148.156 130.336 148.156ZM129.984 140.367C129.297 140.367 128.747 140.591 128.336 141.039C127.93 141.487 127.69 142.107 127.617 142.898H132.094C132.094 142.081 131.911 141.456 131.547 141.023C131.182 140.586 130.661 140.367 129.984 140.367ZM139.609 139.281C139.99 139.281 140.331 139.312 140.633 139.375L140.453 140.578C140.099 140.5 139.786 140.461 139.516 140.461C138.823 140.461 138.229 140.742 137.734 141.305C137.245 141.867 137 142.568 137 143.406V148H135.703V139.438H136.773L136.922 141.023H136.984C137.302 140.466 137.685 140.036 138.133 139.734C138.581 139.432 139.073 139.281 139.609 139.281ZM148.094 148V142.461C148.094 141.763 147.935 141.242 147.617 140.898C147.299 140.555 146.802 140.383 146.125 140.383C145.229 140.383 144.573 140.625 144.156 141.109C143.74 141.594 143.531 142.393 143.531 143.508V148H142.234V139.438H143.289L143.5 140.609H143.562C143.828 140.188 144.201 139.862 144.68 139.633C145.159 139.398 145.693 139.281 146.281 139.281C147.312 139.281 148.089 139.531 148.609 140.031C149.13 140.526 149.391 141.32 149.391 142.414V148H148.094ZM159.453 143.711C159.453 145.107 159.102 146.198 158.398 146.984C157.695 147.766 156.724 148.156 155.484 148.156C154.719 148.156 154.039 147.977 153.445 147.617C152.852 147.258 152.393 146.742 152.07 146.07C151.747 145.398 151.586 144.612 151.586 143.711C151.586 142.315 151.935 141.229 152.633 140.453C153.331 139.672 154.299 139.281 155.539 139.281C156.737 139.281 157.688 139.68 158.391 140.477C159.099 141.273 159.453 142.352 159.453 143.711ZM152.93 143.711C152.93 144.805 153.148 145.638 153.586 146.211C154.023 146.784 154.667 147.07 155.516 147.07C156.365 147.07 157.008 146.786 157.445 146.219C157.888 145.646 158.109 144.81 158.109 143.711C158.109 142.622 157.888 141.797 157.445 141.234C157.008 140.667 156.359 140.383 155.5 140.383C154.651 140.383 154.01 140.661 153.578 141.219C153.146 141.776 152.93 142.607 152.93 143.711ZM165.641 139.281C166.021 139.281 166.362 139.312 166.664 139.375L166.484 140.578C166.13 140.5 165.818 140.461 165.547 140.461C164.854 140.461 164.26 140.742 163.766 141.305C163.276 141.867 163.031 142.568 163.031 143.406V148H161.734V139.438H162.805L162.953 141.023H163.016C163.333 140.466 163.716 140.036 164.164 139.734C164.612 139.432 165.104 139.281 165.641 139.281ZM169.305 136.578L169.422 136.75C169.286 137.271 169.091 137.878 168.836 138.57C168.581 139.258 168.315 139.898 168.039 140.492H167.086C167.451 139.008 167.716 137.703 167.883 136.578H169.305ZM176.508 145.664C176.508 146.461 176.211 147.076 175.617 147.508C175.023 147.94 174.19 148.156 173.117 148.156C171.982 148.156 171.096 147.977 170.461 147.617V146.414C170.872 146.622 171.312 146.786 171.781 146.906C172.255 147.026 172.711 147.086 173.148 147.086C173.826 147.086 174.346 146.979 174.711 146.766C175.076 146.547 175.258 146.216 175.258 145.773C175.258 145.44 175.112 145.156 174.82 144.922C174.534 144.682 173.971 144.401 173.133 144.078C172.336 143.781 171.768 143.523 171.43 143.305C171.096 143.081 170.846 142.828 170.68 142.547C170.518 142.266 170.438 141.93 170.438 141.539C170.438 140.841 170.721 140.292 171.289 139.891C171.857 139.484 172.635 139.281 173.625 139.281C174.547 139.281 175.448 139.469 176.328 139.844L175.867 140.898C175.008 140.544 174.229 140.367 173.531 140.367C172.917 140.367 172.453 140.464 172.141 140.656C171.828 140.849 171.672 141.115 171.672 141.453C171.672 141.682 171.729 141.878 171.844 142.039C171.964 142.201 172.154 142.354 172.414 142.5C172.674 142.646 173.174 142.857 173.914 143.133C174.93 143.503 175.615 143.875 175.969 144.25C176.328 144.625 176.508 145.096 176.508 145.664ZM187.867 137.602C186.612 137.602 185.62 138.021 184.891 138.859C184.167 139.693 183.805 140.836 183.805 142.289C183.805 143.784 184.154 144.94 184.852 145.758C185.555 146.57 186.555 146.977 187.852 146.977C188.648 146.977 189.557 146.833 190.578 146.547V147.711C189.786 148.008 188.81 148.156 187.648 148.156C185.966 148.156 184.667 147.646 183.75 146.625C182.839 145.604 182.383 144.154 182.383 142.273C182.383 141.096 182.602 140.065 183.039 139.18C183.482 138.294 184.117 137.612 184.945 137.133C185.779 136.654 186.758 136.414 187.883 136.414C189.081 136.414 190.128 136.633 191.023 137.07L190.461 138.211C189.596 137.805 188.732 137.602 187.867 137.602ZM200.266 143.711C200.266 145.107 199.914 146.198 199.211 146.984C198.508 147.766 197.536 148.156 196.297 148.156C195.531 148.156 194.852 147.977 194.258 147.617C193.664 147.258 193.206 146.742 192.883 146.07C192.56 145.398 192.398 144.612 192.398 143.711C192.398 142.315 192.747 141.229 193.445 140.453C194.143 139.672 195.112 139.281 196.352 139.281C197.549 139.281 198.5 139.68 199.203 140.477C199.911 141.273 200.266 142.352 200.266 143.711ZM193.742 143.711C193.742 144.805 193.961 145.638 194.398 146.211C194.836 146.784 195.479 147.07 196.328 147.07C197.177 147.07 197.82 146.786 198.258 146.219C198.701 145.646 198.922 144.81 198.922 143.711C198.922 142.622 198.701 141.797 198.258 141.234C197.82 140.667 197.172 140.383 196.312 140.383C195.464 140.383 194.823 140.661 194.391 141.219C193.958 141.776 193.742 142.607 193.742 143.711ZM208.406 148V142.461C208.406 141.763 208.247 141.242 207.93 140.898C207.612 140.555 207.115 140.383 206.438 140.383C205.542 140.383 204.885 140.625 204.469 141.109C204.052 141.594 203.844 142.393 203.844 143.508V148H202.547V139.438H203.602L203.812 140.609H203.875C204.141 140.188 204.513 139.862 204.992 139.633C205.471 139.398 206.005 139.281 206.594 139.281C207.625 139.281 208.401 139.531 208.922 140.031C209.443 140.526 209.703 141.32 209.703 142.414V148H208.406ZM217.898 145.664C217.898 146.461 217.602 147.076 217.008 147.508C216.414 147.94 215.581 148.156 214.508 148.156C213.372 148.156 212.487 147.977 211.852 147.617V146.414C212.263 146.622 212.703 146.786 213.172 146.906C213.646 147.026 214.102 147.086 214.539 147.086C215.216 147.086 215.737 146.979 216.102 146.766C216.466 146.547 216.648 146.216 216.648 145.773C216.648 145.44 216.503 145.156 216.211 144.922C215.924 144.682 215.362 144.401 214.523 144.078C213.727 143.781 213.159 143.523 212.82 143.305C212.487 143.081 212.237 142.828 212.07 142.547C211.909 142.266 211.828 141.93 211.828 141.539C211.828 140.841 212.112 140.292 212.68 139.891C213.247 139.484 214.026 139.281 215.016 139.281C215.938 139.281 216.839 139.469 217.719 139.844L217.258 140.898C216.398 140.544 215.62 140.367 214.922 140.367C214.307 140.367 213.844 140.464 213.531 140.656C213.219 140.849 213.062 141.115 213.062 141.453C213.062 141.682 213.12 141.878 213.234 142.039C213.354 142.201 213.544 142.354 213.805 142.5C214.065 142.646 214.565 142.857 215.305 143.133C216.32 143.503 217.005 143.875 217.359 144.25C217.719 144.625 217.898 145.096 217.898 145.664ZM223.633 148.156C222.367 148.156 221.367 147.771 220.633 147C219.904 146.229 219.539 145.159 219.539 143.789C219.539 142.409 219.878 141.312 220.555 140.5C221.237 139.688 222.151 139.281 223.297 139.281C224.37 139.281 225.219 139.635 225.844 140.344C226.469 141.047 226.781 141.977 226.781 143.133V143.953H220.883C220.909 144.958 221.161 145.721 221.641 146.242C222.125 146.763 222.805 147.023 223.68 147.023C224.602 147.023 225.513 146.831 226.414 146.445V147.602C225.956 147.799 225.521 147.94 225.109 148.023C224.703 148.112 224.211 148.156 223.633 148.156ZM223.281 140.367C222.594 140.367 222.044 140.591 221.633 141.039C221.227 141.487 220.987 142.107 220.914 142.898H225.391C225.391 142.081 225.208 141.456 224.844 141.023C224.479 140.586 223.958 140.367 223.281 140.367ZM234.859 148V142.461C234.859 141.763 234.701 141.242 234.383 140.898C234.065 140.555 233.568 140.383 232.891 140.383C231.995 140.383 231.339 140.625 230.922 141.109C230.505 141.594 230.297 142.393 230.297 143.508V148H229V139.438H230.055L230.266 140.609H230.328C230.594 140.188 230.966 139.862 231.445 139.633C231.924 139.398 232.458 139.281 233.047 139.281C234.078 139.281 234.854 139.531 235.375 140.031C235.896 140.526 236.156 141.32 236.156 142.414V148H234.859ZM241.594 147.086C241.823 147.086 242.044 147.07 242.258 147.039C242.471 147.003 242.641 146.966 242.766 146.93V147.922C242.625 147.99 242.417 148.044 242.141 148.086C241.87 148.133 241.625 148.156 241.406 148.156C239.75 148.156 238.922 147.284 238.922 145.539V140.445H237.695V139.82L238.922 139.281L239.469 137.453H240.219V139.438H242.703V140.445H240.219V145.484C240.219 146 240.341 146.396 240.586 146.672C240.831 146.948 241.167 147.086 241.594 147.086Z" fill="#1F1F1F"/>
<path d="M84.4988 188.717H83.797V205.957C83.797 207.103 82.8647 208.035 81.7193 208.035H74.609H68.9549V208.674C68.9549 209.406 69.5489 210 70.2807 210H77.3885H84.4963C85.2281 210 85.8221 209.406 85.8221 208.674V190.043C85.8221 189.311 85.2306 188.717 84.4988 188.717Z" fill="#B3404A"/>
<path d="M74.609 207.283H81.7168C82.4486 207.283 83.0426 206.689 83.0426 205.957V188.717V187.326C83.0426 186.594 82.4486 186 81.7168 186H74.609H72.2456V186.439C72.2506 186.484 72.2531 186.531 72.2531 186.579V189.469V190.211C72.2531 191.241 71.416 192.078 70.3859 192.078H69.6441H66.7544C66.7168 192.078 66.6767 192.075 66.6391 192.073H66.1779V205.957C66.1779 206.689 66.7719 207.283 67.5037 207.283H68.9574H74.609ZM74.8772 202.777H70.2431C69.8972 202.777 69.6165 202.496 69.6165 202.15C69.6165 201.805 69.8972 201.524 70.2431 201.524H74.8797C75.2255 201.524 75.5062 201.805 75.5062 202.15C75.5062 202.496 75.223 202.777 74.8772 202.777ZM79.5138 199.579H70.2431C69.8972 199.579 69.6165 199.298 69.6165 198.952C69.6165 198.607 69.8972 198.326 70.2431 198.326H79.5138C79.8596 198.326 80.1403 198.607 80.1403 198.952C80.1403 199.298 79.8596 199.579 79.5138 199.579ZM70.2431 194.93H79.5138C79.8596 194.93 80.1403 195.211 80.1403 195.556C80.1403 195.902 79.8596 196.183 79.5138 196.183H70.2431C69.8972 196.183 69.6165 195.902 69.6165 195.556C69.6165 195.211 69.8972 194.93 70.2431 194.93Z" fill="#B3404A"/>
<path d="M66.7562 191.328H70.3878C70.3903 191.328 70.3953 191.328 70.3978 191.328C71.0043 191.323 71.4956 190.832 71.5006 190.225C71.5006 190.223 71.5006 190.218 71.5006 190.215V186.581C71.5006 186.246 71.2249 186.022 70.9392 186.022C70.8014 186.022 70.6635 186.073 70.5482 186.188L66.3602 190.376C66.0094 190.727 66.2575 191.328 66.7562 191.328Z" fill="#B3404A"/>
<path d="M101.594 198.016H105.477V203.57C104.872 203.763 104.258 203.909 103.633 204.008C103.008 204.107 102.284 204.156 101.461 204.156C99.7318 204.156 98.3854 203.643 97.4219 202.617C96.4583 201.586 95.9766 200.143 95.9766 198.289C95.9766 197.102 96.2135 196.062 96.6875 195.172C97.1667 194.276 97.8542 193.594 98.75 193.125C99.6458 192.651 100.695 192.414 101.898 192.414C103.117 192.414 104.253 192.638 105.305 193.086L104.789 194.258C103.758 193.82 102.766 193.602 101.812 193.602C100.422 193.602 99.3359 194.016 98.5547 194.844C97.7734 195.672 97.3828 196.82 97.3828 198.289C97.3828 199.831 97.7578 201 98.5078 201.797C99.263 202.594 100.37 202.992 101.828 202.992C102.62 202.992 103.393 202.901 104.148 202.719V199.203H101.594V198.016ZM115.422 199.711C115.422 201.107 115.07 202.198 114.367 202.984C113.664 203.766 112.693 204.156 111.453 204.156C110.688 204.156 110.008 203.977 109.414 203.617C108.82 203.258 108.362 202.742 108.039 202.07C107.716 201.398 107.555 200.612 107.555 199.711C107.555 198.315 107.904 197.229 108.602 196.453C109.299 195.672 110.268 195.281 111.508 195.281C112.706 195.281 113.656 195.68 114.359 196.477C115.068 197.273 115.422 198.352 115.422 199.711ZM108.898 199.711C108.898 200.805 109.117 201.638 109.555 202.211C109.992 202.784 110.635 203.07 111.484 203.07C112.333 203.07 112.977 202.786 113.414 202.219C113.857 201.646 114.078 200.81 114.078 199.711C114.078 198.622 113.857 197.797 113.414 197.234C112.977 196.667 112.328 196.383 111.469 196.383C110.62 196.383 109.979 196.661 109.547 197.219C109.115 197.776 108.898 198.607 108.898 199.711ZM119.578 204L116.328 195.438H117.719L119.562 200.516C119.979 201.703 120.224 202.474 120.297 202.828H120.359C120.417 202.552 120.596 201.982 120.898 201.117C121.206 200.247 121.891 198.354 122.953 195.438H124.344L121.094 204H119.578ZM129.336 204.156C128.07 204.156 127.07 203.771 126.336 203C125.607 202.229 125.242 201.159 125.242 199.789C125.242 198.409 125.581 197.312 126.258 196.5C126.94 195.688 127.854 195.281 129 195.281C130.073 195.281 130.922 195.635 131.547 196.344C132.172 197.047 132.484 197.977 132.484 199.133V199.953H126.586C126.612 200.958 126.865 201.721 127.344 202.242C127.828 202.763 128.508 203.023 129.383 203.023C130.305 203.023 131.216 202.831 132.117 202.445V203.602C131.659 203.799 131.224 203.94 130.812 204.023C130.406 204.112 129.914 204.156 129.336 204.156ZM128.984 196.367C128.297 196.367 127.747 196.591 127.336 197.039C126.93 197.487 126.69 198.107 126.617 198.898H131.094C131.094 198.081 130.911 197.456 130.547 197.023C130.182 196.586 129.661 196.367 128.984 196.367ZM138.609 195.281C138.99 195.281 139.331 195.312 139.633 195.375L139.453 196.578C139.099 196.5 138.786 196.461 138.516 196.461C137.823 196.461 137.229 196.742 136.734 197.305C136.245 197.867 136 198.568 136 199.406V204H134.703V195.438H135.773L135.922 197.023H135.984C136.302 196.466 136.685 196.036 137.133 195.734C137.581 195.432 138.073 195.281 138.609 195.281ZM147.094 204V198.461C147.094 197.763 146.935 197.242 146.617 196.898C146.299 196.555 145.802 196.383 145.125 196.383C144.229 196.383 143.573 196.625 143.156 197.109C142.74 197.594 142.531 198.393 142.531 199.508V204H141.234V195.438H142.289L142.5 196.609H142.562C142.828 196.188 143.201 195.862 143.68 195.633C144.159 195.398 144.693 195.281 145.281 195.281C146.312 195.281 147.089 195.531 147.609 196.031C148.13 196.526 148.391 197.32 148.391 198.414V204H147.094ZM161.977 204V198.43C161.977 197.747 161.831 197.237 161.539 196.898C161.247 196.555 160.794 196.383 160.18 196.383C159.372 196.383 158.776 196.615 158.391 197.078C158.005 197.542 157.812 198.255 157.812 199.219V204H156.516V198.43C156.516 197.747 156.37 197.237 156.078 196.898C155.786 196.555 155.331 196.383 154.711 196.383C153.898 196.383 153.302 196.628 152.922 197.117C152.547 197.602 152.359 198.398 152.359 199.508V204H151.062V195.438H152.117L152.328 196.609H152.391C152.635 196.193 152.979 195.867 153.422 195.633C153.87 195.398 154.37 195.281 154.922 195.281C156.26 195.281 157.135 195.766 157.547 196.734H157.609C157.865 196.286 158.234 195.932 158.719 195.672C159.203 195.411 159.755 195.281 160.375 195.281C161.344 195.281 162.068 195.531 162.547 196.031C163.031 196.526 163.273 197.32 163.273 198.414V204H161.977ZM169.57 204.156C168.305 204.156 167.305 203.771 166.57 203C165.841 202.229 165.477 201.159 165.477 199.789C165.477 198.409 165.815 197.312 166.492 196.5C167.174 195.688 168.089 195.281 169.234 195.281C170.307 195.281 171.156 195.635 171.781 196.344C172.406 197.047 172.719 197.977 172.719 199.133V199.953H166.82C166.846 200.958 167.099 201.721 167.578 202.242C168.062 202.763 168.742 203.023 169.617 203.023C170.539 203.023 171.451 202.831 172.352 202.445V203.602C171.893 203.799 171.458 203.94 171.047 204.023C170.641 204.112 170.148 204.156 169.57 204.156ZM169.219 196.367C168.531 196.367 167.982 196.591 167.57 197.039C167.164 197.487 166.924 198.107 166.852 198.898H171.328C171.328 198.081 171.146 197.456 170.781 197.023C170.417 196.586 169.896 196.367 169.219 196.367ZM180.797 204V198.461C180.797 197.763 180.638 197.242 180.32 196.898C180.003 196.555 179.505 196.383 178.828 196.383C177.932 196.383 177.276 196.625 176.859 197.109C176.443 197.594 176.234 198.393 176.234 199.508V204H174.938V195.438H175.992L176.203 196.609H176.266C176.531 196.188 176.904 195.862 177.383 195.633C177.862 195.398 178.396 195.281 178.984 195.281C180.016 195.281 180.792 195.531 181.312 196.031C181.833 196.526 182.094 197.32 182.094 198.414V204H180.797ZM187.531 203.086C187.76 203.086 187.982 203.07 188.195 203.039C188.409 203.003 188.578 202.966 188.703 202.93V203.922C188.562 203.99 188.354 204.044 188.078 204.086C187.807 204.133 187.562 204.156 187.344 204.156C185.688 204.156 184.859 203.284 184.859 201.539V196.445H183.633V195.82L184.859 195.281L185.406 193.453H186.156V195.438H188.641V196.445H186.156V201.484C186.156 202 186.279 202.396 186.523 202.672C186.768 202.948 187.104 203.086 187.531 203.086ZM199.797 198.016H203.68V203.57C203.076 203.763 202.461 203.909 201.836 204.008C201.211 204.107 200.487 204.156 199.664 204.156C197.935 204.156 196.589 203.643 195.625 202.617C194.661 201.586 194.18 200.143 194.18 198.289C194.18 197.102 194.417 196.062 194.891 195.172C195.37 194.276 196.057 193.594 196.953 193.125C197.849 192.651 198.898 192.414 200.102 192.414C201.32 192.414 202.456 192.638 203.508 193.086L202.992 194.258C201.961 193.82 200.969 193.602 200.016 193.602C198.625 193.602 197.539 194.016 196.758 194.844C195.977 195.672 195.586 196.82 195.586 198.289C195.586 199.831 195.961 201 196.711 201.797C197.466 202.594 198.573 202.992 200.031 202.992C200.823 202.992 201.596 202.901 202.352 202.719V199.203H199.797V198.016ZM211.5 204L211.242 202.781H211.18C210.753 203.318 210.326 203.682 209.898 203.875C209.477 204.062 208.948 204.156 208.312 204.156C207.464 204.156 206.797 203.938 206.312 203.5C205.833 203.062 205.594 202.44 205.594 201.633C205.594 199.904 206.977 198.997 209.742 198.914L211.195 198.867V198.336C211.195 197.664 211.049 197.169 210.758 196.852C210.471 196.529 210.01 196.367 209.375 196.367C208.661 196.367 207.854 196.586 206.953 197.023L206.555 196.031C206.977 195.802 207.438 195.622 207.938 195.492C208.443 195.362 208.948 195.297 209.453 195.297C210.474 195.297 211.229 195.523 211.719 195.977C212.214 196.43 212.461 197.156 212.461 198.156V204H211.5ZM208.57 203.086C209.378 203.086 210.01 202.865 210.469 202.422C210.932 201.979 211.164 201.359 211.164 200.562V199.789L209.867 199.844C208.836 199.88 208.091 200.042 207.633 200.328C207.18 200.609 206.953 201.049 206.953 201.648C206.953 202.117 207.094 202.474 207.375 202.719C207.661 202.964 208.06 203.086 208.57 203.086ZM220.617 204H214.406V203.117L219.078 196.445H214.695V195.438H220.5V196.445L215.891 202.992H220.617V204ZM228.102 204H221.891V203.117L226.562 196.445H222.18V195.438H227.984V196.445L223.375 202.992H228.102V204ZM233.727 204.156C232.461 204.156 231.461 203.771 230.727 203C229.997 202.229 229.633 201.159 229.633 199.789C229.633 198.409 229.971 197.312 230.648 196.5C231.331 195.688 232.245 195.281 233.391 195.281C234.464 195.281 235.312 195.635 235.938 196.344C236.562 197.047 236.875 197.977 236.875 199.133V199.953H230.977C231.003 200.958 231.255 201.721 231.734 202.242C232.219 202.763 232.898 203.023 233.773 203.023C234.695 203.023 235.607 202.831 236.508 202.445V203.602C236.049 203.799 235.615 203.94 235.203 204.023C234.797 204.112 234.305 204.156 233.727 204.156ZM233.375 196.367C232.688 196.367 232.138 196.591 231.727 197.039C231.32 197.487 231.081 198.107 231.008 198.898H235.484C235.484 198.081 235.302 197.456 234.938 197.023C234.573 196.586 234.052 196.367 233.375 196.367ZM241.859 203.086C242.089 203.086 242.31 203.07 242.523 203.039C242.737 203.003 242.906 202.966 243.031 202.93V203.922C242.891 203.99 242.682 204.044 242.406 204.086C242.135 204.133 241.891 204.156 241.672 204.156C240.016 204.156 239.188 203.284 239.188 201.539V196.445H237.961V195.82L239.188 195.281L239.734 193.453H240.484V195.438H242.969V196.445H240.484V201.484C240.484 202 240.607 202.396 240.852 202.672C241.096 202.948 241.432 203.086 241.859 203.086ZM248.367 204.156C247.102 204.156 246.102 203.771 245.367 203C244.638 202.229 244.273 201.159 244.273 199.789C244.273 198.409 244.612 197.312 245.289 196.5C245.971 195.688 246.885 195.281 248.031 195.281C249.104 195.281 249.953 195.635 250.578 196.344C251.203 197.047 251.516 197.977 251.516 199.133V199.953H245.617C245.643 200.958 245.896 201.721 246.375 202.242C246.859 202.763 247.539 203.023 248.414 203.023C249.336 203.023 250.247 202.831 251.148 202.445V203.602C250.69 203.799 250.255 203.94 249.844 204.023C249.438 204.112 248.945 204.156 248.367 204.156ZM248.016 196.367C247.328 196.367 246.779 196.591 246.367 197.039C245.961 197.487 245.721 198.107 245.648 198.898H250.125C250.125 198.081 249.943 197.456 249.578 197.023C249.214 196.586 248.693 196.367 248.016 196.367Z" fill="#1F1F1F"/>
<path d="M430.43 37L429.602 34.2812H425.438L424.609 37H422L426.031 25.5312H428.992L433.039 37H430.43ZM429.023 32.25C428.258 29.7865 427.826 28.3932 427.727 28.0703C427.633 27.7474 427.565 27.4922 427.523 27.3047C427.352 27.9714 426.859 29.6198 426.047 32.25H429.023ZM437.062 37.1562C436.036 37.1562 435.229 36.7578 434.641 35.9609C434.057 35.1641 433.766 34.0599 433.766 32.6484C433.766 31.2161 434.062 30.1016 434.656 29.3047C435.255 28.5026 436.078 28.1016 437.125 28.1016C438.224 28.1016 439.062 28.5286 439.641 29.3828H439.719C439.599 28.7318 439.539 28.151 439.539 27.6406V24.8438H441.93V37H440.102L439.641 35.8672H439.539C438.997 36.7266 438.172 37.1562 437.062 37.1562ZM437.898 35.2578C438.508 35.2578 438.953 35.0807 439.234 34.7266C439.521 34.3724 439.677 33.7708 439.703 32.9219V32.6641C439.703 31.7266 439.557 31.0547 439.266 30.6484C438.979 30.2422 438.51 30.0391 437.859 30.0391C437.328 30.0391 436.914 30.2656 436.617 30.7188C436.326 31.1667 436.18 31.8203 436.18 32.6797C436.18 33.5391 436.328 34.1849 436.625 34.6172C436.922 35.0443 437.346 35.2578 437.898 35.2578ZM447.188 37.1562C446.161 37.1562 445.354 36.7578 444.766 35.9609C444.182 35.1641 443.891 34.0599 443.891 32.6484C443.891 31.2161 444.188 30.1016 444.781 29.3047C445.38 28.5026 446.203 28.1016 447.25 28.1016C448.349 28.1016 449.188 28.5286 449.766 29.3828H449.844C449.724 28.7318 449.664 28.151 449.664 27.6406V24.8438H452.055V37H450.227L449.766 35.8672H449.664C449.122 36.7266 448.297 37.1562 447.188 37.1562ZM448.023 35.2578C448.633 35.2578 449.078 35.0807 449.359 34.7266C449.646 34.3724 449.802 33.7708 449.828 32.9219V32.6641C449.828 31.7266 449.682 31.0547 449.391 30.6484C449.104 30.2422 448.635 30.0391 447.984 30.0391C447.453 30.0391 447.039 30.2656 446.742 30.7188C446.451 31.1667 446.305 31.8203 446.305 32.6797C446.305 33.5391 446.453 34.1849 446.75 34.6172C447.047 35.0443 447.471 35.2578 448.023 35.2578ZM458.164 29.7969C457.659 29.7969 457.263 29.9583 456.977 30.2812C456.69 30.599 456.526 31.0521 456.484 31.6406H459.828C459.818 31.0521 459.664 30.599 459.367 30.2812C459.07 29.9583 458.669 29.7969 458.164 29.7969ZM458.5 37.1562C457.094 37.1562 455.995 36.7682 455.203 35.9922C454.411 35.2161 454.016 34.1172 454.016 32.6953C454.016 31.2318 454.38 30.1016 455.109 29.3047C455.844 28.5026 456.857 28.1016 458.148 28.1016C459.383 28.1016 460.344 28.4531 461.031 29.1562C461.719 29.8594 462.062 30.8307 462.062 32.0703V33.2266H456.43C456.456 33.9036 456.656 34.4323 457.031 34.8125C457.406 35.1927 457.932 35.3828 458.609 35.3828C459.135 35.3828 459.633 35.3281 460.102 35.2188C460.57 35.1094 461.06 34.9349 461.57 34.6953V36.5391C461.154 36.7474 460.708 36.901 460.234 37C459.76 37.1042 459.182 37.1562 458.5 37.1562ZM466.766 37.1562C465.74 37.1562 464.932 36.7578 464.344 35.9609C463.76 35.1641 463.469 34.0599 463.469 32.6484C463.469 31.2161 463.766 30.1016 464.359 29.3047C464.958 28.5026 465.781 28.1016 466.828 28.1016C467.927 28.1016 468.766 28.5286 469.344 29.3828H469.422C469.302 28.7318 469.242 28.151 469.242 27.6406V24.8438H471.633V37H469.805L469.344 35.8672H469.242C468.701 36.7266 467.875 37.1562 466.766 37.1562ZM467.602 35.2578C468.211 35.2578 468.656 35.0807 468.938 34.7266C469.224 34.3724 469.38 33.7708 469.406 32.9219V32.6641C469.406 31.7266 469.26 31.0547 468.969 30.6484C468.682 30.2422 468.214 30.0391 467.562 30.0391C467.031 30.0391 466.617 30.2656 466.32 30.7188C466.029 31.1667 465.883 31.8203 465.883 32.6797C465.883 33.5391 466.031 34.1849 466.328 34.6172C466.625 35.0443 467.049 35.2578 467.602 35.2578ZM480.18 32.6172C480.18 33.4818 480.32 34.1354 480.602 34.5781C480.888 35.0208 481.352 35.2422 481.992 35.2422C482.628 35.2422 483.083 35.0234 483.359 34.5859C483.641 34.1432 483.781 33.487 483.781 32.6172C483.781 31.7526 483.641 31.1042 483.359 30.6719C483.078 30.2396 482.617 30.0234 481.977 30.0234C481.341 30.0234 480.883 30.2396 480.602 30.6719C480.32 31.099 480.18 31.7474 480.18 32.6172ZM486.219 32.6172C486.219 34.0391 485.844 35.151 485.094 35.9531C484.344 36.7552 483.299 37.1562 481.961 37.1562C481.122 37.1562 480.383 36.974 479.742 36.6094C479.102 36.2396 478.609 35.7109 478.266 35.0234C477.922 34.3359 477.75 33.5339 477.75 32.6172C477.75 31.1901 478.122 30.0807 478.867 29.2891C479.612 28.4974 480.659 28.1016 482.008 28.1016C482.846 28.1016 483.586 28.2839 484.227 28.6484C484.867 29.013 485.359 29.5365 485.703 30.2188C486.047 30.901 486.219 31.7005 486.219 32.6172ZM496.25 37H493.867V31.8984C493.867 31.2682 493.755 30.7969 493.531 30.4844C493.307 30.1667 492.951 30.0078 492.461 30.0078C491.794 30.0078 491.312 30.2318 491.016 30.6797C490.719 31.1224 490.57 31.8594 490.57 32.8906V37H488.188V28.2656H490.008L490.328 29.3828H490.461C490.727 28.9609 491.091 28.6432 491.555 28.4297C492.023 28.2109 492.555 28.1016 493.148 28.1016C494.164 28.1016 494.935 28.3776 495.461 28.9297C495.987 29.4766 496.25 30.2682 496.25 31.3047V37Z" fill="#1F1F1F"/>
<path d="M416.289 93H408.781V91.8828L411.789 88.8594C412.706 87.9323 413.31 87.2708 413.602 86.875C413.893 86.4792 414.112 86.0938 414.258 85.7188C414.404 85.3438 414.477 84.9401 414.477 84.5078C414.477 83.8984 414.292 83.4167 413.922 83.0625C413.552 82.7031 413.039 82.5234 412.383 82.5234C411.909 82.5234 411.458 82.6016 411.031 82.7578C410.609 82.9141 410.138 83.1979 409.617 83.6094L408.93 82.7266C409.982 81.8516 411.128 81.4141 412.367 81.4141C413.44 81.4141 414.281 81.6901 414.891 82.2422C415.5 82.7891 415.805 83.526 415.805 84.4531C415.805 85.1771 415.602 85.8932 415.195 86.6016C414.789 87.3099 414.029 88.2057 412.914 89.2891L410.414 91.7344V91.7969H416.289V93ZM422.742 93H421.477V84.8594C421.477 84.1823 421.497 83.5417 421.539 82.9375C421.43 83.0469 421.307 83.1615 421.172 83.2812C421.036 83.401 420.417 83.9089 419.312 84.8047L418.625 83.9141L421.648 81.5781H422.742V93ZM436.18 81.5781L431.922 93H430.625L434.883 81.5781H436.18ZM446.086 93H444.82V84.8594C444.82 84.1823 444.841 83.5417 444.883 82.9375C444.773 83.0469 444.651 83.1615 444.516 83.2812C444.38 83.401 443.76 83.9089 442.656 84.8047L441.969 83.9141L444.992 81.5781H446.086V93ZM458.008 87.2734C458.008 89.2474 457.695 90.7214 457.07 91.6953C456.451 92.6693 455.5 93.1562 454.219 93.1562C452.99 93.1562 452.055 92.6589 451.414 91.6641C450.773 90.6641 450.453 89.2005 450.453 87.2734C450.453 85.2839 450.763 83.8073 451.383 82.8438C452.003 81.8802 452.948 81.3984 454.219 81.3984C455.458 81.3984 456.398 81.901 457.039 82.9062C457.685 83.9115 458.008 85.3672 458.008 87.2734ZM451.766 87.2734C451.766 88.9349 451.961 90.1458 452.352 90.9062C452.742 91.6615 453.365 92.0391 454.219 92.0391C455.083 92.0391 455.708 91.6562 456.094 90.8906C456.484 90.1198 456.68 88.9141 456.68 87.2734C456.68 85.6328 456.484 84.4323 456.094 83.6719C455.708 82.9062 455.083 82.5234 454.219 82.5234C453.365 82.5234 452.742 82.901 452.352 83.6562C451.961 84.4062 451.766 85.612 451.766 87.2734ZM468.68 81.5781L464.422 93H463.125L467.383 81.5781H468.68ZM481.289 93H473.781V91.8828L476.789 88.8594C477.706 87.9323 478.31 87.2708 478.602 86.875C478.893 86.4792 479.112 86.0938 479.258 85.7188C479.404 85.3438 479.477 84.9401 479.477 84.5078C479.477 83.8984 479.292 83.4167 478.922 83.0625C478.552 82.7031 478.039 82.5234 477.383 82.5234C476.909 82.5234 476.458 82.6016 476.031 82.7578C475.609 82.9141 475.138 83.1979 474.617 83.6094L473.93 82.7266C474.982 81.8516 476.128 81.4141 477.367 81.4141C478.44 81.4141 479.281 81.6901 479.891 82.2422C480.5 82.7891 480.805 83.526 480.805 84.4531C480.805 85.1771 480.602 85.8932 480.195 86.6016C479.789 87.3099 479.029 88.2057 477.914 89.2891L475.414 91.7344V91.7969H481.289V93ZM490.508 87.2734C490.508 89.2474 490.195 90.7214 489.57 91.6953C488.951 92.6693 488 93.1562 486.719 93.1562C485.49 93.1562 484.555 92.6589 483.914 91.6641C483.273 90.6641 482.953 89.2005 482.953 87.2734C482.953 85.2839 483.263 83.8073 483.883 82.8438C484.503 81.8802 485.448 81.3984 486.719 81.3984C487.958 81.3984 488.898 81.901 489.539 82.9062C490.185 83.9115 490.508 85.3672 490.508 87.2734ZM484.266 87.2734C484.266 88.9349 484.461 90.1458 484.852 90.9062C485.242 91.6615 485.865 92.0391 486.719 92.0391C487.583 92.0391 488.208 91.6562 488.594 90.8906C488.984 90.1198 489.18 88.9141 489.18 87.2734C489.18 85.6328 488.984 84.4323 488.594 83.6719C488.208 82.9062 487.583 82.5234 486.719 82.5234C485.865 82.5234 485.242 82.901 484.852 83.6562C484.461 84.4062 484.266 85.612 484.266 87.2734ZM499.602 93H492.094V91.8828L495.102 88.8594C496.018 87.9323 496.622 87.2708 496.914 86.875C497.206 86.4792 497.424 86.0938 497.57 85.7188C497.716 85.3438 497.789 84.9401 497.789 84.5078C497.789 83.8984 497.604 83.4167 497.234 83.0625C496.865 82.7031 496.352 82.5234 495.695 82.5234C495.221 82.5234 494.771 82.6016 494.344 82.7578C493.922 82.9141 493.451 83.1979 492.93 83.6094L492.242 82.7266C493.294 81.8516 494.44 81.4141 495.68 81.4141C496.753 81.4141 497.594 81.6901 498.203 82.2422C498.812 82.7891 499.117 83.526 499.117 84.4531C499.117 85.1771 498.914 85.8932 498.508 86.6016C498.102 87.3099 497.341 88.2057 496.227 89.2891L493.727 91.7344V91.7969H499.602V93ZM508.82 87.2734C508.82 89.2474 508.508 90.7214 507.883 91.6953C507.263 92.6693 506.312 93.1562 505.031 93.1562C503.802 93.1562 502.867 92.6589 502.227 91.6641C501.586 90.6641 501.266 89.2005 501.266 87.2734C501.266 85.2839 501.576 83.8073 502.195 82.8438C502.815 81.8802 503.76 81.3984 505.031 81.3984C506.271 81.3984 507.211 81.901 507.852 82.9062C508.497 83.9115 508.82 85.3672 508.82 87.2734ZM502.578 87.2734C502.578 88.9349 502.773 90.1458 503.164 90.9062C503.555 91.6615 504.177 92.0391 505.031 92.0391C505.896 92.0391 506.521 91.6562 506.906 90.8906C507.297 90.1198 507.492 88.9141 507.492 87.2734C507.492 85.6328 507.297 84.4323 506.906 83.6719C506.521 82.9062 505.896 82.5234 505.031 82.5234C504.177 82.5234 503.555 82.901 503.164 83.6562C502.773 84.4062 502.578 85.612 502.578 87.2734Z" fill="#1F1F1F"/>
<path d="M416.289 149H408.781V147.883L411.789 144.859C412.706 143.932 413.31 143.271 413.602 142.875C413.893 142.479 414.112 142.094 414.258 141.719C414.404 141.344 414.477 140.94 414.477 140.508C414.477 139.898 414.292 139.417 413.922 139.062C413.552 138.703 413.039 138.523 412.383 138.523C411.909 138.523 411.458 138.602 411.031 138.758C410.609 138.914 410.138 139.198 409.617 139.609L408.93 138.727C409.982 137.852 411.128 137.414 412.367 137.414C413.44 137.414 414.281 137.69 414.891 138.242C415.5 138.789 415.805 139.526 415.805 140.453C415.805 141.177 415.602 141.893 415.195 142.602C414.789 143.31 414.029 144.206 412.914 145.289L410.414 147.734V147.797H416.289V149ZM422.742 149H421.477V140.859C421.477 140.182 421.497 139.542 421.539 138.938C421.43 139.047 421.307 139.161 421.172 139.281C421.036 139.401 420.417 139.909 419.312 140.805L418.625 139.914L421.648 137.578H422.742V149ZM436.18 137.578L431.922 149H430.625L434.883 137.578H436.18ZM446.086 149H444.82V140.859C444.82 140.182 444.841 139.542 444.883 138.938C444.773 139.047 444.651 139.161 444.516 139.281C444.38 139.401 443.76 139.909 442.656 140.805L441.969 139.914L444.992 137.578H446.086V149ZM458.008 143.273C458.008 145.247 457.695 146.721 457.07 147.695C456.451 148.669 455.5 149.156 454.219 149.156C452.99 149.156 452.055 148.659 451.414 147.664C450.773 146.664 450.453 145.201 450.453 143.273C450.453 141.284 450.763 139.807 451.383 138.844C452.003 137.88 452.948 137.398 454.219 137.398C455.458 137.398 456.398 137.901 457.039 138.906C457.685 139.911 458.008 141.367 458.008 143.273ZM451.766 143.273C451.766 144.935 451.961 146.146 452.352 146.906C452.742 147.661 453.365 148.039 454.219 148.039C455.083 148.039 455.708 147.656 456.094 146.891C456.484 146.12 456.68 144.914 456.68 143.273C456.68 141.633 456.484 140.432 456.094 139.672C455.708 138.906 455.083 138.523 454.219 138.523C453.365 138.523 452.742 138.901 452.352 139.656C451.961 140.406 451.766 141.612 451.766 143.273ZM468.68 137.578L464.422 149H463.125L467.383 137.578H468.68ZM481.289 149H473.781V147.883L476.789 144.859C477.706 143.932 478.31 143.271 478.602 142.875C478.893 142.479 479.112 142.094 479.258 141.719C479.404 141.344 479.477 140.94 479.477 140.508C479.477 139.898 479.292 139.417 478.922 139.062C478.552 138.703 478.039 138.523 477.383 138.523C476.909 138.523 476.458 138.602 476.031 138.758C475.609 138.914 475.138 139.198 474.617 139.609L473.93 138.727C474.982 137.852 476.128 137.414 477.367 137.414C478.44 137.414 479.281 137.69 479.891 138.242C480.5 138.789 480.805 139.526 480.805 140.453C480.805 141.177 480.602 141.893 480.195 142.602C479.789 143.31 479.029 144.206 477.914 145.289L475.414 147.734V147.797H481.289V149ZM490.508 143.273C490.508 145.247 490.195 146.721 489.57 147.695C488.951 148.669 488 149.156 486.719 149.156C485.49 149.156 484.555 148.659 483.914 147.664C483.273 146.664 482.953 145.201 482.953 143.273C482.953 141.284 483.263 139.807 483.883 138.844C484.503 137.88 485.448 137.398 486.719 137.398C487.958 137.398 488.898 137.901 489.539 138.906C490.185 139.911 490.508 141.367 490.508 143.273ZM484.266 143.273C484.266 144.935 484.461 146.146 484.852 146.906C485.242 147.661 485.865 148.039 486.719 148.039C487.583 148.039 488.208 147.656 488.594 146.891C488.984 146.12 489.18 144.914 489.18 143.273C489.18 141.633 488.984 140.432 488.594 139.672C488.208 138.906 487.583 138.523 486.719 138.523C485.865 138.523 485.242 138.901 484.852 139.656C484.461 140.406 484.266 141.612 484.266 143.273ZM499.602 149H492.094V147.883L495.102 144.859C496.018 143.932 496.622 143.271 496.914 142.875C497.206 142.479 497.424 142.094 497.57 141.719C497.716 141.344 497.789 140.94 497.789 140.508C497.789 139.898 497.604 139.417 497.234 139.062C496.865 138.703 496.352 138.523 495.695 138.523C495.221 138.523 494.771 138.602 494.344 138.758C493.922 138.914 493.451 139.198 492.93 139.609L492.242 138.727C493.294 137.852 494.44 137.414 495.68 137.414C496.753 137.414 497.594 137.69 498.203 138.242C498.812 138.789 499.117 139.526 499.117 140.453C499.117 141.177 498.914 141.893 498.508 142.602C498.102 143.31 497.341 144.206 496.227 145.289L493.727 147.734V147.797H499.602V149ZM508.82 143.273C508.82 145.247 508.508 146.721 507.883 147.695C507.263 148.669 506.312 149.156 505.031 149.156C503.802 149.156 502.867 148.659 502.227 147.664C501.586 146.664 501.266 145.201 501.266 143.273C501.266 141.284 501.576 139.807 502.195 138.844C502.815 137.88 503.76 137.398 505.031 137.398C506.271 137.398 507.211 137.901 507.852 138.906C508.497 139.911 508.82 141.367 508.82 143.273ZM502.578 143.273C502.578 144.935 502.773 146.146 503.164 146.906C503.555 147.661 504.177 148.039 505.031 148.039C505.896 148.039 506.521 147.656 506.906 146.891C507.297 146.12 507.492 144.914 507.492 143.273C507.492 141.633 507.297 140.432 506.906 139.672C506.521 138.906 505.896 138.523 505.031 138.523C504.177 138.523 503.555 138.901 503.164 139.656C502.773 140.406 502.578 141.612 502.578 143.273Z" fill="#1F1F1F"/>
<path d="M416.289 205H408.781V203.883L411.789 200.859C412.706 199.932 413.31 199.271 413.602 198.875C413.893 198.479 414.112 198.094 414.258 197.719C414.404 197.344 414.477 196.94 414.477 196.508C414.477 195.898 414.292 195.417 413.922 195.062C413.552 194.703 413.039 194.523 412.383 194.523C411.909 194.523 411.458 194.602 411.031 194.758C410.609 194.914 410.138 195.198 409.617 195.609L408.93 194.727C409.982 193.852 411.128 193.414 412.367 193.414C413.44 193.414 414.281 193.69 414.891 194.242C415.5 194.789 415.805 195.526 415.805 196.453C415.805 197.177 415.602 197.893 415.195 198.602C414.789 199.31 414.029 200.206 412.914 201.289L410.414 203.734V203.797H416.289V205ZM422.742 205H421.477V196.859C421.477 196.182 421.497 195.542 421.539 194.938C421.43 195.047 421.307 195.161 421.172 195.281C421.036 195.401 420.417 195.909 419.312 196.805L418.625 195.914L421.648 193.578H422.742V205ZM436.18 193.578L431.922 205H430.625L434.883 193.578H436.18ZM446.086 205H444.82V196.859C444.82 196.182 444.841 195.542 444.883 194.938C444.773 195.047 444.651 195.161 444.516 195.281C444.38 195.401 443.76 195.909 442.656 196.805L441.969 195.914L444.992 193.578H446.086V205ZM458.008 199.273C458.008 201.247 457.695 202.721 457.07 203.695C456.451 204.669 455.5 205.156 454.219 205.156C452.99 205.156 452.055 204.659 451.414 203.664C450.773 202.664 450.453 201.201 450.453 199.273C450.453 197.284 450.763 195.807 451.383 194.844C452.003 193.88 452.948 193.398 454.219 193.398C455.458 193.398 456.398 193.901 457.039 194.906C457.685 195.911 458.008 197.367 458.008 199.273ZM451.766 199.273C451.766 200.935 451.961 202.146 452.352 202.906C452.742 203.661 453.365 204.039 454.219 204.039C455.083 204.039 455.708 203.656 456.094 202.891C456.484 202.12 456.68 200.914 456.68 199.273C456.68 197.633 456.484 196.432 456.094 195.672C455.708 194.906 455.083 194.523 454.219 194.523C453.365 194.523 452.742 194.901 452.352 195.656C451.961 196.406 451.766 197.612 451.766 199.273ZM468.68 193.578L464.422 205H463.125L467.383 193.578H468.68ZM481.289 205H473.781V203.883L476.789 200.859C477.706 199.932 478.31 199.271 478.602 198.875C478.893 198.479 479.112 198.094 479.258 197.719C479.404 197.344 479.477 196.94 479.477 196.508C479.477 195.898 479.292 195.417 478.922 195.062C478.552 194.703 478.039 194.523 477.383 194.523C476.909 194.523 476.458 194.602 476.031 194.758C475.609 194.914 475.138 195.198 474.617 195.609L473.93 194.727C474.982 193.852 476.128 193.414 477.367 193.414C478.44 193.414 479.281 193.69 479.891 194.242C480.5 194.789 480.805 195.526 480.805 196.453C480.805 197.177 480.602 197.893 480.195 198.602C479.789 199.31 479.029 200.206 477.914 201.289L475.414 203.734V203.797H481.289V205ZM490.508 199.273C490.508 201.247 490.195 202.721 489.57 203.695C488.951 204.669 488 205.156 486.719 205.156C485.49 205.156 484.555 204.659 483.914 203.664C483.273 202.664 482.953 201.201 482.953 199.273C482.953 197.284 483.263 195.807 483.883 194.844C484.503 193.88 485.448 193.398 486.719 193.398C487.958 193.398 488.898 193.901 489.539 194.906C490.185 195.911 490.508 197.367 490.508 199.273ZM484.266 199.273C484.266 200.935 484.461 202.146 484.852 202.906C485.242 203.661 485.865 204.039 486.719 204.039C487.583 204.039 488.208 203.656 488.594 202.891C488.984 202.12 489.18 200.914 489.18 199.273C489.18 197.633 488.984 196.432 488.594 195.672C488.208 194.906 487.583 194.523 486.719 194.523C485.865 194.523 485.242 194.901 484.852 195.656C484.461 196.406 484.266 197.612 484.266 199.273ZM499.602 205H492.094V203.883L495.102 200.859C496.018 199.932 496.622 199.271 496.914 198.875C497.206 198.479 497.424 198.094 497.57 197.719C497.716 197.344 497.789 196.94 497.789 196.508C497.789 195.898 497.604 195.417 497.234 195.062C496.865 194.703 496.352 194.523 495.695 194.523C495.221 194.523 494.771 194.602 494.344 194.758C493.922 194.914 493.451 195.198 492.93 195.609L492.242 194.727C493.294 193.852 494.44 193.414 495.68 193.414C496.753 193.414 497.594 193.69 498.203 194.242C498.812 194.789 499.117 195.526 499.117 196.453C499.117 197.177 498.914 197.893 498.508 198.602C498.102 199.31 497.341 200.206 496.227 201.289L493.727 203.734V203.797H499.602V205ZM508.82 199.273C508.82 201.247 508.508 202.721 507.883 203.695C507.263 204.669 506.312 205.156 505.031 205.156C503.802 205.156 502.867 204.659 502.227 203.664C501.586 202.664 501.266 201.201 501.266 199.273C501.266 197.284 501.576 195.807 502.195 194.844C502.815 193.88 503.76 193.398 505.031 193.398C506.271 193.398 507.211 193.901 507.852 194.906C508.497 195.911 508.82 197.367 508.82 199.273ZM502.578 199.273C502.578 200.935 502.773 202.146 503.164 202.906C503.555 203.661 504.177 204.039 505.031 204.039C505.896 204.039 506.521 203.656 506.906 202.891C507.297 202.12 507.492 200.914 507.492 199.273C507.492 197.633 507.297 196.432 506.906 195.672C506.521 194.906 505.896 194.523 505.031 194.523C504.177 194.523 503.555 194.901 503.164 195.656C502.773 196.406 502.578 197.612 502.578 199.273Z" fill="#1F1F1F"/>
<path d="M641.953 25.5781H644.398L640.516 37H637.875L634 25.5781H636.445L638.594 32.375C638.714 32.776 638.836 33.2448 638.961 33.7812C639.091 34.3125 639.172 34.6823 639.203 34.8906C639.26 34.4115 639.456 33.5729 639.789 32.375L641.953 25.5781ZM645.555 26.0078C645.555 25.2318 645.987 24.8438 646.852 24.8438C647.716 24.8438 648.148 25.2318 648.148 26.0078C648.148 26.3776 648.039 26.6667 647.82 26.875C647.607 27.0781 647.284 27.1797 646.852 27.1797C645.987 27.1797 645.555 26.7891 645.555 26.0078ZM648.039 37H645.656V28.2656H648.039V37ZM654.164 29.7969C653.659 29.7969 653.263 29.9583 652.977 30.2812C652.69 30.599 652.526 31.0521 652.484 31.6406H655.828C655.818 31.0521 655.664 30.599 655.367 30.2812C655.07 29.9583 654.669 29.7969 654.164 29.7969ZM654.5 37.1562C653.094 37.1562 651.995 36.7682 651.203 35.9922C650.411 35.2161 650.016 34.1172 650.016 32.6953C650.016 31.2318 650.38 30.1016 651.109 29.3047C651.844 28.5026 652.857 28.1016 654.148 28.1016C655.383 28.1016 656.344 28.4531 657.031 29.1562C657.719 29.8594 658.062 30.8307 658.062 32.0703V33.2266H652.43C652.456 33.9036 652.656 34.4323 653.031 34.8125C653.406 35.1927 653.932 35.3828 654.609 35.3828C655.135 35.3828 655.633 35.3281 656.102 35.2188C656.57 35.1094 657.06 34.9349 657.57 34.6953V36.5391C657.154 36.7474 656.708 36.901 656.234 37C655.76 37.1042 655.182 37.1562 654.5 37.1562ZM667.18 37L666.508 33.9453L665.602 30.0859H665.547L663.953 37H661.391L658.906 28.2656H661.281L662.289 32.1328C662.451 32.8255 662.615 33.7812 662.781 35H662.828C662.849 34.6042 662.94 33.9766 663.102 33.1172L663.227 32.4531L664.305 28.2656H666.93L667.953 32.4531C667.974 32.5677 668.005 32.737 668.047 32.9609C668.094 33.1849 668.138 33.4245 668.18 33.6797C668.221 33.9297 668.258 34.1771 668.289 34.4219C668.326 34.6615 668.346 34.8542 668.352 35H668.398C668.445 34.625 668.529 34.112 668.648 33.4609C668.768 32.8047 668.854 32.362 668.906 32.1328L669.953 28.2656H672.289L669.773 37H667.18ZM687.523 31.1797C687.523 33.0599 686.987 34.5 685.914 35.5C684.846 36.5 683.302 37 681.281 37H678.047V25.5781H681.633C683.497 25.5781 684.945 26.0703 685.977 27.0547C687.008 28.0391 687.523 29.4141 687.523 31.1797ZM685.008 31.2422C685.008 28.7891 683.924 27.5625 681.758 27.5625H680.469V35H681.508C683.841 35 685.008 33.7474 685.008 31.2422ZM691.602 32.6172C691.602 33.4818 691.742 34.1354 692.023 34.5781C692.31 35.0208 692.773 35.2422 693.414 35.2422C694.049 35.2422 694.505 35.0234 694.781 34.5859C695.062 34.1432 695.203 33.487 695.203 32.6172C695.203 31.7526 695.062 31.1042 694.781 30.6719C694.5 30.2396 694.039 30.0234 693.398 30.0234C692.763 30.0234 692.305 30.2396 692.023 30.6719C691.742 31.099 691.602 31.7474 691.602 32.6172ZM697.641 32.6172C697.641 34.0391 697.266 35.151 696.516 35.9531C695.766 36.7552 694.721 37.1562 693.383 37.1562C692.544 37.1562 691.805 36.974 691.164 36.6094C690.523 36.2396 690.031 35.7109 689.688 35.0234C689.344 34.3359 689.172 33.5339 689.172 32.6172C689.172 31.1901 689.544 30.0807 690.289 29.2891C691.034 28.4974 692.081 28.1016 693.43 28.1016C694.268 28.1016 695.008 28.2839 695.648 28.6484C696.289 29.013 696.781 29.5365 697.125 30.2188C697.469 30.901 697.641 31.7005 697.641 32.6172ZM703.156 37.1562C700.438 37.1562 699.078 35.6641 699.078 32.6797C699.078 31.1953 699.448 30.0625 700.188 29.2812C700.927 28.4948 701.987 28.1016 703.367 28.1016C704.378 28.1016 705.284 28.2995 706.086 28.6953L705.383 30.5391C705.008 30.388 704.659 30.2656 704.336 30.1719C704.013 30.0729 703.69 30.0234 703.367 30.0234C702.128 30.0234 701.508 30.9036 701.508 32.6641C701.508 34.3724 702.128 35.2266 703.367 35.2266C703.826 35.2266 704.25 35.1667 704.641 35.0469C705.031 34.9219 705.422 34.7292 705.812 34.4688V36.5078C705.427 36.7526 705.036 36.9219 704.641 37.0156C704.25 37.1094 703.755 37.1562 703.156 37.1562ZM714.031 37L713.711 35.8828H713.586C713.331 36.2891 712.969 36.6042 712.5 36.8281C712.031 37.0469 711.497 37.1562 710.898 37.1562C709.872 37.1562 709.099 36.8828 708.578 36.3359C708.057 35.7839 707.797 34.9922 707.797 33.9609V28.2656H710.18V33.3672C710.18 33.9974 710.292 34.4714 710.516 34.7891C710.74 35.1016 711.096 35.2578 711.586 35.2578C712.253 35.2578 712.734 35.0365 713.031 34.5938C713.328 34.1458 713.477 33.4062 713.477 32.375V28.2656H715.859V37H714.031ZM726.18 37H723.797V31.8984C723.797 31.2682 723.69 30.7969 723.477 30.4844C723.268 30.1667 722.938 30.0078 722.484 30.0078C721.875 30.0078 721.432 30.2318 721.156 30.6797C720.88 31.1276 720.742 31.8646 720.742 32.8906V37H718.359V28.2656H720.18L720.5 29.3828H720.633C720.867 28.9818 721.206 28.6693 721.648 28.4453C722.091 28.2161 722.599 28.1016 723.172 28.1016C724.479 28.1016 725.365 28.5286 725.828 29.3828H726.039C726.273 28.9766 726.617 28.6615 727.07 28.4375C727.529 28.2135 728.044 28.1016 728.617 28.1016C729.607 28.1016 730.354 28.3568 730.859 28.8672C731.37 29.3724 731.625 30.1849 731.625 31.3047V37H729.234V31.8984C729.234 31.2682 729.128 30.7969 728.914 30.4844C728.706 30.1667 728.375 30.0078 727.922 30.0078C727.339 30.0078 726.901 30.2161 726.609 30.6328C726.323 31.0495 726.18 31.7109 726.18 32.6172V37ZM737.695 29.7969C737.19 29.7969 736.794 29.9583 736.508 30.2812C736.221 30.599 736.057 31.0521 736.016 31.6406H739.359C739.349 31.0521 739.195 30.599 738.898 30.2812C738.602 29.9583 738.201 29.7969 737.695 29.7969ZM738.031 37.1562C736.625 37.1562 735.526 36.7682 734.734 35.9922C733.943 35.2161 733.547 34.1172 733.547 32.6953C733.547 31.2318 733.911 30.1016 734.641 29.3047C735.375 28.5026 736.388 28.1016 737.68 28.1016C738.914 28.1016 739.875 28.4531 740.562 29.1562C741.25 29.8594 741.594 30.8307 741.594 32.0703V33.2266H735.961C735.987 33.9036 736.188 34.4323 736.562 34.8125C736.938 35.1927 737.464 35.3828 738.141 35.3828C738.667 35.3828 739.164 35.3281 739.633 35.2188C740.102 35.1094 740.591 34.9349 741.102 34.6953V36.5391C740.685 36.7474 740.24 36.901 739.766 37C739.292 37.1042 738.714 37.1562 738.031 37.1562ZM751.594 37H749.211V31.8984C749.211 31.2682 749.099 30.7969 748.875 30.4844C748.651 30.1667 748.294 30.0078 747.805 30.0078C747.138 30.0078 746.656 30.2318 746.359 30.6797C746.062 31.1224 745.914 31.8594 745.914 32.8906V37H743.531V28.2656H745.352L745.672 29.3828H745.805C746.07 28.9609 746.435 28.6432 746.898 28.4297C747.367 28.2109 747.898 28.1016 748.492 28.1016C749.508 28.1016 750.279 28.3776 750.805 28.9297C751.331 29.4766 751.594 30.2682 751.594 31.3047V37ZM757.727 35.2578C758.143 35.2578 758.643 35.1667 759.227 34.9844V36.7578C758.633 37.0234 757.904 37.1562 757.039 37.1562C756.086 37.1562 755.391 36.9167 754.953 36.4375C754.521 35.9531 754.305 35.2292 754.305 34.2656V30.0547H753.164V29.0469L754.477 28.25L755.164 26.4062H756.688V28.2656H759.133V30.0547H756.688V34.2656C756.688 34.6042 756.781 34.8542 756.969 35.0156C757.161 35.1771 757.414 35.2578 757.727 35.2578Z" fill="#1F1F1F"/>
<path d="M702.648 79.6484H691.352C687.849 79.6484 685 82.4977 685 86C685 89.5023 687.849 92.3516 691.352 92.3516H702.648C706.151 92.3516 709 89.5023 709 86C709 82.4977 706.151 79.6484 702.648 79.6484ZM702.648 90.9453C699.922 90.9453 697.703 88.7269 697.703 86C697.703 83.2732 699.922 81.0547 702.648 81.0547C705.375 81.0547 707.594 83.2732 707.594 86C707.594 88.7269 705.375 90.9453 702.648 90.9453Z" fill="#B3404A"/>
<path d="M702.648 135.648H691.352C687.849 135.648 685 138.498 685 142C685 145.502 687.849 148.352 691.352 148.352H702.648C706.151 148.352 709 145.502 709 142C709 138.498 706.151 135.648 702.648 135.648ZM702.648 146.945C699.922 146.945 697.703 144.727 697.703 142C697.703 139.273 699.922 137.055 702.648 137.055C705.375 137.055 707.594 139.273 707.594 142C707.594 144.727 705.375 146.945 702.648 146.945Z" fill="#B3404A"/>
<path d="M702.648 191.648H691.352C687.849 191.648 685 194.498 685 198C685 201.502 687.849 204.352 691.352 204.352H702.648C706.151 204.352 709 201.502 709 198C709 194.498 706.151 191.648 702.648 191.648ZM702.648 202.945C699.922 202.945 697.703 200.727 697.703 198C697.703 195.273 699.922 193.055 702.648 193.055C705.375 193.055 707.594 195.273 707.594 198C707.594 200.727 705.375 202.945 702.648 202.945Z" fill="#B3404A"/>
<path d="M908.18 33.8281C908.18 34.8594 907.807 35.6719 907.062 36.2656C906.323 36.8594 905.292 37.1562 903.969 37.1562C902.75 37.1562 901.672 36.9271 900.734 36.4688V34.2188C901.505 34.5625 902.156 34.8047 902.688 34.9453C903.224 35.0859 903.714 35.1562 904.156 35.1562C904.688 35.1562 905.094 35.0547 905.375 34.8516C905.661 34.6484 905.805 34.3464 905.805 33.9453C905.805 33.7214 905.742 33.5234 905.617 33.3516C905.492 33.1745 905.307 33.0052 905.062 32.8438C904.823 32.6823 904.331 32.4245 903.586 32.0703C902.888 31.7422 902.365 31.4271 902.016 31.125C901.667 30.8229 901.388 30.4714 901.18 30.0703C900.971 29.6693 900.867 29.2005 900.867 28.6641C900.867 27.6536 901.208 26.8594 901.891 26.2812C902.578 25.7031 903.526 25.4141 904.734 25.4141C905.328 25.4141 905.893 25.4844 906.43 25.625C906.971 25.7656 907.536 25.9635 908.125 26.2188L907.344 28.1016C906.734 27.8516 906.229 27.6771 905.828 27.5781C905.432 27.4792 905.042 27.4297 904.656 27.4297C904.198 27.4297 903.846 27.5365 903.602 27.75C903.357 27.9635 903.234 28.2422 903.234 28.5859C903.234 28.7995 903.284 28.987 903.383 29.1484C903.482 29.3047 903.638 29.4583 903.852 29.6094C904.07 29.7552 904.583 30.0208 905.391 30.4062C906.458 30.9167 907.19 31.4297 907.586 31.9453C907.982 32.4557 908.18 33.0833 908.18 33.8281ZM913.742 35.2578C914.159 35.2578 914.659 35.1667 915.242 34.9844V36.7578C914.648 37.0234 913.919 37.1562 913.055 37.1562C912.102 37.1562 911.406 36.9167 910.969 36.4375C910.536 35.9531 910.32 35.2292 910.32 34.2656V30.0547H909.18V29.0469L910.492 28.25L911.18 26.4062H912.703V28.2656H915.148V30.0547H912.703V34.2656C912.703 34.6042 912.797 34.8542 912.984 35.0156C913.177 35.1771 913.43 35.2578 913.742 35.2578ZM922.562 37L922.102 35.8125H922.039C921.638 36.3177 921.224 36.6693 920.797 36.8672C920.375 37.0599 919.823 37.1562 919.141 37.1562C918.302 37.1562 917.641 36.9167 917.156 36.4375C916.677 35.9583 916.438 35.276 916.438 34.3906C916.438 33.4635 916.76 32.7812 917.406 32.3438C918.057 31.901 919.036 31.6562 920.344 31.6094L921.859 31.5625V31.1797C921.859 30.2943 921.406 29.8516 920.5 29.8516C919.802 29.8516 918.982 30.0625 918.039 30.4844L917.25 28.875C918.255 28.349 919.37 28.0859 920.594 28.0859C921.766 28.0859 922.664 28.3411 923.289 28.8516C923.914 29.362 924.227 30.138 924.227 31.1797V37H922.562ZM921.859 32.9531L920.938 32.9844C920.245 33.0052 919.729 33.1302 919.391 33.3594C919.052 33.5885 918.883 33.9375 918.883 34.4062C918.883 35.0781 919.268 35.4141 920.039 35.4141C920.591 35.4141 921.031 35.2552 921.359 34.9375C921.693 34.6198 921.859 34.1979 921.859 33.6719V32.9531ZM930.367 35.2578C930.784 35.2578 931.284 35.1667 931.867 34.9844V36.7578C931.273 37.0234 930.544 37.1562 929.68 37.1562C928.727 37.1562 928.031 36.9167 927.594 36.4375C927.161 35.9531 926.945 35.2292 926.945 34.2656V30.0547H925.805V29.0469L927.117 28.25L927.805 26.4062H929.328V28.2656H931.773V30.0547H929.328V34.2656C929.328 34.6042 929.422 34.8542 929.609 35.0156C929.802 35.1771 930.055 35.2578 930.367 35.2578ZM939.828 37L939.508 35.8828H939.383C939.128 36.2891 938.766 36.6042 938.297 36.8281C937.828 37.0469 937.294 37.1562 936.695 37.1562C935.669 37.1562 934.896 36.8828 934.375 36.3359C933.854 35.7839 933.594 34.9922 933.594 33.9609V28.2656H935.977V33.3672C935.977 33.9974 936.089 34.4714 936.312 34.7891C936.536 35.1016 936.893 35.2578 937.383 35.2578C938.049 35.2578 938.531 35.0365 938.828 34.5938C939.125 34.1458 939.273 33.4062 939.273 32.375V28.2656H941.656V37H939.828ZM950.25 34.4062C950.25 35.3021 949.938 35.9844 949.312 36.4531C948.693 36.9219 947.763 37.1562 946.523 37.1562C945.888 37.1562 945.346 37.112 944.898 37.0234C944.451 36.9401 944.031 36.8151 943.641 36.6484V34.6797C944.083 34.888 944.581 35.0625 945.133 35.2031C945.69 35.3438 946.18 35.4141 946.602 35.4141C947.466 35.4141 947.898 35.1641 947.898 34.6641C947.898 34.4766 947.841 34.3255 947.727 34.2109C947.612 34.0911 947.414 33.9583 947.133 33.8125C946.852 33.6615 946.477 33.487 946.008 33.2891C945.336 33.0078 944.841 32.7474 944.523 32.5078C944.211 32.2682 943.982 31.9948 943.836 31.6875C943.695 31.375 943.625 30.9922 943.625 30.5391C943.625 29.763 943.924 29.1641 944.523 28.7422C945.128 28.3151 945.982 28.1016 947.086 28.1016C948.138 28.1016 949.161 28.3307 950.156 28.7891L949.438 30.5078C949 30.3203 948.591 30.1667 948.211 30.0469C947.831 29.9271 947.443 29.8672 947.047 29.8672C946.344 29.8672 945.992 30.0573 945.992 30.4375C945.992 30.651 946.104 30.8359 946.328 30.9922C946.557 31.1484 947.055 31.3802 947.82 31.6875C948.503 31.9635 949.003 32.2214 949.32 32.4609C949.638 32.7005 949.872 32.9766 950.023 33.2891C950.174 33.6016 950.25 33.974 950.25 34.4062Z" fill="#1F1F1F"/>
<rect x="883" y="74" width="85" height="24" rx="12" fill="#29CC97"/>
<path d="M903.501 90L902.983 88.3008H900.381L899.863 90H898.232L900.752 82.832H902.603L905.132 90H903.501ZM902.622 87.0312C902.144 85.4915 901.873 84.6208 901.812 84.4189C901.753 84.2171 901.711 84.0576 901.685 83.9404C901.577 84.3571 901.27 85.3874 900.762 87.0312H902.622ZM907.549 86.2207H908.047C908.512 86.2207 908.861 86.1296 909.092 85.9473C909.323 85.7617 909.438 85.4932 909.438 85.1416C909.438 84.7868 909.341 84.5247 909.146 84.3555C908.953 84.1862 908.651 84.1016 908.237 84.1016H907.549V86.2207ZM910.967 85.0879C910.967 85.8561 910.726 86.4437 910.244 86.8506C909.766 87.2575 909.084 87.4609 908.198 87.4609H907.549V90H906.035V82.8613H908.315C909.181 82.8613 909.839 83.0485 910.288 83.4229C910.741 83.7939 910.967 84.349 910.967 85.0879ZM913.828 86.2207H914.326C914.792 86.2207 915.14 86.1296 915.371 85.9473C915.602 85.7617 915.718 85.4932 915.718 85.1416C915.718 84.7868 915.62 84.5247 915.425 84.3555C915.233 84.1862 914.93 84.1016 914.517 84.1016H913.828V86.2207ZM917.246 85.0879C917.246 85.8561 917.005 86.4437 916.523 86.8506C916.045 87.2575 915.363 87.4609 914.478 87.4609H913.828V90H912.314V82.8613H914.595C915.461 82.8613 916.118 83.0485 916.567 83.4229C917.02 83.7939 917.246 84.349 917.246 85.0879ZM920.107 86.0303H920.596C921.074 86.0303 921.427 85.9505 921.655 85.791C921.883 85.6315 921.997 85.3809 921.997 85.0391C921.997 84.7005 921.88 84.4596 921.646 84.3164C921.414 84.1732 921.055 84.1016 920.566 84.1016H920.107V86.0303ZM920.107 87.2607V90H918.594V82.8613H920.674C921.644 82.8613 922.362 83.0387 922.827 83.3936C923.293 83.7451 923.525 84.2806 923.525 85C923.525 85.4199 923.41 85.7943 923.179 86.123C922.948 86.4486 922.62 86.7041 922.197 86.8896C923.271 88.4945 923.971 89.5312 924.297 90H922.617L920.913 87.2607H920.107ZM931.675 86.4209C931.675 87.6025 931.382 88.5107 930.796 89.1455C930.21 89.7803 929.37 90.0977 928.276 90.0977C927.183 90.0977 926.343 89.7803 925.757 89.1455C925.171 88.5107 924.878 87.5993 924.878 86.4111C924.878 85.223 925.171 84.3164 925.757 83.6914C926.346 83.0632 927.189 82.749 928.286 82.749C929.383 82.749 930.221 83.0648 930.801 83.6963C931.383 84.3278 931.675 85.236 931.675 86.4209ZM926.465 86.4209C926.465 87.2184 926.616 87.819 926.919 88.2227C927.222 88.6263 927.674 88.8281 928.276 88.8281C929.484 88.8281 930.088 88.0257 930.088 86.4209C930.088 84.8128 929.487 84.0088 928.286 84.0088C927.684 84.0088 927.23 84.2122 926.924 84.6191C926.618 85.0228 926.465 85.6234 926.465 86.4209ZM937.227 82.8613H938.755L936.328 90H934.678L932.256 82.8613H933.784L935.127 87.1094C935.202 87.36 935.278 87.653 935.356 87.9883C935.438 88.3203 935.488 88.5514 935.508 88.6816C935.544 88.3822 935.666 87.8581 935.874 87.1094L937.227 82.8613ZM943.77 90H939.658V82.8613H943.77V84.1016H941.172V85.6689H943.589V86.9092H941.172V88.75H943.77V90ZM951.187 86.3623C951.187 87.5374 950.851 88.4375 950.181 89.0625C949.513 89.6875 948.548 90 947.285 90H945.264V82.8613H947.505C948.67 82.8613 949.575 83.1689 950.22 83.7842C950.864 84.3994 951.187 85.2588 951.187 86.3623ZM949.614 86.4014C949.614 84.8682 948.937 84.1016 947.583 84.1016H946.777V88.75H947.427C948.885 88.75 949.614 87.9671 949.614 86.4014Z" fill="white"/>
<rect x="883" y="130" width="85" height="24" rx="12" fill="#29CC97"/>
<path d="M903.501 146L902.983 144.301H900.381L899.863 146H898.232L900.752 138.832H902.603L905.132 146H903.501ZM902.622 143.031C902.144 141.492 901.873 140.621 901.812 140.419C901.753 140.217 901.711 140.058 901.685 139.94C901.577 140.357 901.27 141.387 900.762 143.031H902.622ZM907.549 142.221H908.047C908.512 142.221 908.861 142.13 909.092 141.947C909.323 141.762 909.438 141.493 909.438 141.142C909.438 140.787 909.341 140.525 909.146 140.355C908.953 140.186 908.651 140.102 908.237 140.102H907.549V142.221ZM910.967 141.088C910.967 141.856 910.726 142.444 910.244 142.851C909.766 143.257 909.084 143.461 908.198 143.461H907.549V146H906.035V138.861H908.315C909.181 138.861 909.839 139.049 910.288 139.423C910.741 139.794 910.967 140.349 910.967 141.088ZM913.828 142.221H914.326C914.792 142.221 915.14 142.13 915.371 141.947C915.602 141.762 915.718 141.493 915.718 141.142C915.718 140.787 915.62 140.525 915.425 140.355C915.233 140.186 914.93 140.102 914.517 140.102H913.828V142.221ZM917.246 141.088C917.246 141.856 917.005 142.444 916.523 142.851C916.045 143.257 915.363 143.461 914.478 143.461H913.828V146H912.314V138.861H914.595C915.461 138.861 916.118 139.049 916.567 139.423C917.02 139.794 917.246 140.349 917.246 141.088ZM920.107 142.03H920.596C921.074 142.03 921.427 141.951 921.655 141.791C921.883 141.632 921.997 141.381 921.997 141.039C921.997 140.701 921.88 140.46 921.646 140.316C921.414 140.173 921.055 140.102 920.566 140.102H920.107V142.03ZM920.107 143.261V146H918.594V138.861H920.674C921.644 138.861 922.362 139.039 922.827 139.394C923.293 139.745 923.525 140.281 923.525 141C923.525 141.42 923.41 141.794 923.179 142.123C922.948 142.449 922.62 142.704 922.197 142.89C923.271 144.494 923.971 145.531 924.297 146H922.617L920.913 143.261H920.107ZM931.675 142.421C931.675 143.603 931.382 144.511 930.796 145.146C930.21 145.78 929.37 146.098 928.276 146.098C927.183 146.098 926.343 145.78 925.757 145.146C925.171 144.511 924.878 143.599 924.878 142.411C924.878 141.223 925.171 140.316 925.757 139.691C926.346 139.063 927.189 138.749 928.286 138.749C929.383 138.749 930.221 139.065 930.801 139.696C931.383 140.328 931.675 141.236 931.675 142.421ZM926.465 142.421C926.465 143.218 926.616 143.819 926.919 144.223C927.222 144.626 927.674 144.828 928.276 144.828C929.484 144.828 930.088 144.026 930.088 142.421C930.088 140.813 929.487 140.009 928.286 140.009C927.684 140.009 927.23 140.212 926.924 140.619C926.618 141.023 926.465 141.623 926.465 142.421ZM937.227 138.861H938.755L936.328 146H934.678L932.256 138.861H933.784L935.127 143.109C935.202 143.36 935.278 143.653 935.356 143.988C935.438 144.32 935.488 144.551 935.508 144.682C935.544 144.382 935.666 143.858 935.874 143.109L937.227 138.861ZM943.77 146H939.658V138.861H943.77V140.102H941.172V141.669H943.589V142.909H941.172V144.75H943.77V146ZM951.187 142.362C951.187 143.537 950.851 144.438 950.181 145.062C949.513 145.688 948.548 146 947.285 146H945.264V138.861H947.505C948.67 138.861 949.575 139.169 950.22 139.784C950.864 140.399 951.187 141.259 951.187 142.362ZM949.614 142.401C949.614 140.868 948.937 140.102 947.583 140.102H946.777V144.75H947.427C948.885 144.75 949.614 143.967 949.614 142.401Z" fill="white"/>
<rect x="883" y="186" width="85" height="24" rx="12" fill="#29CC97"/>
<path d="M903.501 202L902.983 200.301H900.381L899.863 202H898.232L900.752 194.832H902.603L905.132 202H903.501ZM902.622 199.031C902.144 197.492 901.873 196.621 901.812 196.419C901.753 196.217 901.711 196.058 901.685 195.94C901.577 196.357 901.27 197.387 900.762 199.031H902.622ZM907.549 198.221H908.047C908.512 198.221 908.861 198.13 909.092 197.947C909.323 197.762 909.438 197.493 909.438 197.142C909.438 196.787 909.341 196.525 909.146 196.355C908.953 196.186 908.651 196.102 908.237 196.102H907.549V198.221ZM910.967 197.088C910.967 197.856 910.726 198.444 910.244 198.851C909.766 199.257 909.084 199.461 908.198 199.461H907.549V202H906.035V194.861H908.315C909.181 194.861 909.839 195.049 910.288 195.423C910.741 195.794 910.967 196.349 910.967 197.088ZM913.828 198.221H914.326C914.792 198.221 915.14 198.13 915.371 197.947C915.602 197.762 915.718 197.493 915.718 197.142C915.718 196.787 915.62 196.525 915.425 196.355C915.233 196.186 914.93 196.102 914.517 196.102H913.828V198.221ZM917.246 197.088C917.246 197.856 917.005 198.444 916.523 198.851C916.045 199.257 915.363 199.461 914.478 199.461H913.828V202H912.314V194.861H914.595C915.461 194.861 916.118 195.049 916.567 195.423C917.02 195.794 917.246 196.349 917.246 197.088ZM920.107 198.03H920.596C921.074 198.03 921.427 197.951 921.655 197.791C921.883 197.632 921.997 197.381 921.997 197.039C921.997 196.701 921.88 196.46 921.646 196.316C921.414 196.173 921.055 196.102 920.566 196.102H920.107V198.03ZM920.107 199.261V202H918.594V194.861H920.674C921.644 194.861 922.362 195.039 922.827 195.394C923.293 195.745 923.525 196.281 923.525 197C923.525 197.42 923.41 197.794 923.179 198.123C922.948 198.449 922.62 198.704 922.197 198.89C923.271 200.494 923.971 201.531 924.297 202H922.617L920.913 199.261H920.107ZM931.675 198.421C931.675 199.603 931.382 200.511 930.796 201.146C930.21 201.78 929.37 202.098 928.276 202.098C927.183 202.098 926.343 201.78 925.757 201.146C925.171 200.511 924.878 199.599 924.878 198.411C924.878 197.223 925.171 196.316 925.757 195.691C926.346 195.063 927.189 194.749 928.286 194.749C929.383 194.749 930.221 195.065 930.801 195.696C931.383 196.328 931.675 197.236 931.675 198.421ZM926.465 198.421C926.465 199.218 926.616 199.819 926.919 200.223C927.222 200.626 927.674 200.828 928.276 200.828C929.484 200.828 930.088 200.026 930.088 198.421C930.088 196.813 929.487 196.009 928.286 196.009C927.684 196.009 927.23 196.212 926.924 196.619C926.618 197.023 926.465 197.623 926.465 198.421ZM937.227 194.861H938.755L936.328 202H934.678L932.256 194.861H933.784L935.127 199.109C935.202 199.36 935.278 199.653 935.356 199.988C935.438 200.32 935.488 200.551 935.508 200.682C935.544 200.382 935.666 199.858 935.874 199.109L937.227 194.861ZM943.77 202H939.658V194.861H943.77V196.102H941.172V197.669H943.589V198.909H941.172V200.75H943.77V202ZM951.187 198.362C951.187 199.537 950.851 200.438 950.181 201.062C949.513 201.688 948.548 202 947.285 202H945.264V194.861H947.505C948.67 194.861 949.575 195.169 950.22 195.784C950.864 196.399 951.187 197.259 951.187 198.362ZM949.614 198.401C949.614 196.868 948.937 196.102 947.583 196.102H946.777V200.75H947.427C948.885 200.75 949.614 199.967 949.614 198.401Z" fill="white"/>
<path d="M1100.43 37L1099.6 34.2812H1095.44L1094.61 37H1092L1096.03 25.5312H1098.99L1103.04 37H1100.43ZM1099.02 32.25C1098.26 29.7865 1097.83 28.3932 1097.73 28.0703C1097.63 27.7474 1097.57 27.4922 1097.52 27.3047C1097.35 27.9714 1096.86 29.6198 1096.05 32.25H1099.02ZM1107.84 37.1562C1105.12 37.1562 1103.77 35.6641 1103.77 32.6797C1103.77 31.1953 1104.14 30.0625 1104.88 29.2812C1105.61 28.4948 1106.67 28.1016 1108.05 28.1016C1109.07 28.1016 1109.97 28.2995 1110.77 28.6953L1110.07 30.5391C1109.7 30.388 1109.35 30.2656 1109.02 30.1719C1108.7 30.0729 1108.38 30.0234 1108.05 30.0234C1106.82 30.0234 1106.2 30.9036 1106.2 32.6641C1106.2 34.3724 1106.82 35.2266 1108.05 35.2266C1108.51 35.2266 1108.94 35.1667 1109.33 35.0469C1109.72 34.9219 1110.11 34.7292 1110.5 34.4688V36.5078C1110.11 36.7526 1109.72 36.9219 1109.33 37.0156C1108.94 37.1094 1108.44 37.1562 1107.84 37.1562ZM1116.21 35.2578C1116.63 35.2578 1117.13 35.1667 1117.71 34.9844V36.7578C1117.12 37.0234 1116.39 37.1562 1115.52 37.1562C1114.57 37.1562 1113.88 36.9167 1113.44 36.4375C1113.01 35.9531 1112.79 35.2292 1112.79 34.2656V30.0547H1111.65V29.0469L1112.96 28.25L1113.65 26.4062H1115.17V28.2656H1117.62V30.0547H1115.17V34.2656C1115.17 34.6042 1115.27 34.8542 1115.45 35.0156C1115.65 35.1771 1115.9 35.2578 1116.21 35.2578ZM1119.38 26.0078C1119.38 25.2318 1119.82 24.8438 1120.68 24.8438C1121.54 24.8438 1121.98 25.2318 1121.98 26.0078C1121.98 26.3776 1121.87 26.6667 1121.65 26.875C1121.43 27.0781 1121.11 27.1797 1120.68 27.1797C1119.82 27.1797 1119.38 26.7891 1119.38 26.0078ZM1121.87 37H1119.48V28.2656H1121.87V37ZM1126.27 32.6172C1126.27 33.4818 1126.41 34.1354 1126.7 34.5781C1126.98 35.0208 1127.45 35.2422 1128.09 35.2422C1128.72 35.2422 1129.18 35.0234 1129.45 34.5859C1129.73 34.1432 1129.88 33.487 1129.88 32.6172C1129.88 31.7526 1129.73 31.1042 1129.45 30.6719C1129.17 30.2396 1128.71 30.0234 1128.07 30.0234C1127.43 30.0234 1126.98 30.2396 1126.7 30.6719C1126.41 31.099 1126.27 31.7474 1126.27 32.6172ZM1132.31 32.6172C1132.31 34.0391 1131.94 35.151 1131.19 35.9531C1130.44 36.7552 1129.39 37.1562 1128.05 37.1562C1127.22 37.1562 1126.48 36.974 1125.84 36.6094C1125.2 36.2396 1124.7 35.7109 1124.36 35.0234C1124.02 34.3359 1123.84 33.5339 1123.84 32.6172C1123.84 31.1901 1124.22 30.0807 1124.96 29.2891C1125.71 28.4974 1126.75 28.1016 1128.1 28.1016C1128.94 28.1016 1129.68 28.2839 1130.32 28.6484C1130.96 29.013 1131.45 29.5365 1131.8 30.2188C1132.14 30.901 1132.31 31.7005 1132.31 32.6172ZM1142.34 37H1139.96V31.8984C1139.96 31.2682 1139.85 30.7969 1139.62 30.4844C1139.4 30.1667 1139.04 30.0078 1138.55 30.0078C1137.89 30.0078 1137.41 30.2318 1137.11 30.6797C1136.81 31.1224 1136.66 31.8594 1136.66 32.8906V37H1134.28V28.2656H1136.1L1136.42 29.3828H1136.55C1136.82 28.9609 1137.18 28.6432 1137.65 28.4297C1138.12 28.2109 1138.65 28.1016 1139.24 28.1016C1140.26 28.1016 1141.03 28.3776 1141.55 28.9297C1142.08 29.4766 1142.34 30.2682 1142.34 31.3047V37Z" fill="#1F1F1F"/>
<path d="M1117 78H1110C1109.47 78 1108.96 78.2107 1108.59 78.5858C1108.21 78.9609 1108 79.4696 1108 80V94C1108 94.5304 1108.21 95.0391 1108.59 95.4142C1108.96 95.7893 1109.47 96 1110 96H1124C1124.53 96 1125.04 95.7893 1125.41 95.4142C1125.79 95.0391 1126 94.5304 1126 94V87" stroke="#1F1F1F" stroke-width="2" stroke-linecap="round" stroke-linejoin="round"/>
<path d="M1124.5 76.5002C1124.9 76.1024 1125.44 75.8789 1126 75.8789C1126.56 75.8789 1127.1 76.1024 1127.5 76.5002C1127.9 76.8981 1128.12 77.4376 1128.12 78.0002C1128.12 78.5628 1127.9 79.1024 1127.5 79.5002L1118 89.0002L1114 90.0002L1115 86.0002L1124.5 76.5002Z" stroke="#1F1F1F" stroke-width="2" stroke-linecap="round" stroke-linejoin="round"/>
<path d="M1117 134H1110C1109.47 134 1108.96 134.211 1108.59 134.586C1108.21 134.961 1108 135.47 1108 136V150C1108 150.53 1108.21 151.039 1108.59 151.414C1108.96 151.789 1109.47 152 1110 152H1124C1124.53 152 1125.04 151.789 1125.41 151.414C1125.79 151.039 1126 150.53 1126 150V143" stroke="#1F1F1F" stroke-width="2" stroke-linecap="round" stroke-linejoin="round"/>
<path d="M1124.5 132.5C1124.9 132.102 1125.44 131.879 1126 131.879C1126.56 131.879 1127.1 132.102 1127.5 132.5C1127.9 132.898 1128.12 133.438 1128.12 134C1128.12 134.563 1127.9 135.102 1127.5 135.5L1118 145L1114 146L1115 142L1124.5 132.5Z" stroke="#1F1F1F" stroke-width="2" stroke-linecap="round" stroke-linejoin="round"/>
<path d="M1117 190H1110C1109.47 190 1108.96 190.211 1108.59 190.586C1108.21 190.961 1108 191.47 1108 192V206C1108 206.53 1108.21 207.039 1108.59 207.414C1108.96 207.789 1109.47 208 1110 208H1124C1124.53 208 1125.04 207.789 1125.41 207.414C1125.79 207.039 1126 206.53 1126 206V199" stroke="#1F1F1F" stroke-width="2" stroke-linecap="round" stroke-linejoin="round"/>
<path d="M1124.5 188.5C1124.9 188.102 1125.44 187.879 1126 187.879C1126.56 187.879 1127.1 188.102 1127.5 188.5C1127.9 188.898 1128.12 189.438 1128.12 190C1128.12 190.563 1127.9 191.102 1127.5 191.5L1118 201L1114 202L1115 198L1124.5 188.5Z" stroke="#1F1F1F" stroke-width="2" stroke-linecap="round" stroke-linejoin="round"/>
<defs>
<filter id="filter0_d" x="0" y="0" width="1208" height="232" filterUnits="userSpaceOnUse" color-interpolation-filters="sRGB">
<feFlood flood-opacity="0" result="BackgroundImageFix"/>
<feColorMatrix in="SourceAlpha" type="matrix" values="0 0 0 0 0 0 0 0 0 0 0 0 0 0 0 0 0 0 127 0"/>
<feOffset/>
<feGaussianBlur stdDeviation="2"/>
<feColorMatrix type="matrix" values="0 0 0 0 0 0 0 0 0 0 0 0 0 0 0 0 0 0 0.25 0"/>
<feBlend mode="normal" in2="BackgroundImageFix" result="effect1_dropShadow"/>
<feBlend mode="normal" in="SourceGraphic" in2="effect1_dropShadow" result="shape"/>
</filter>
</defs>
</svg>
