<svg width="293" height="293" viewBox="0 0 293 293" fill="none" xmlns="http://www.w3.org/2000/svg">
<path d="M246.981 52.0193H244.637C244.639 52.2852 244.587 52.5487 244.485 52.7942C244.383 53.0397 244.233 53.2622 244.043 53.4485C243.853 53.6349 243.628 53.7812 243.381 53.879C243.134 53.9768 242.869 54.0239 242.604 54.0176C242.211 54.0317 241.824 53.9229 241.496 53.7066C241.169 53.4902 240.917 53.1769 240.775 52.8104C240.652 52.5053 240.602 52.1752 240.631 51.8473C240.659 51.5193 240.765 51.2028 240.939 50.9235C241.338 50.2672 242.205 49.6753 243.776 49.9508V44.6768H241.473V47.7591C240.528 48.0373 239.7 48.6179 239.117 49.4119C238.533 50.2058 238.227 51.1691 238.244 52.1541C238.244 55.5646 241.303 56.3557 242.615 56.3557C243.617 56.3792 247.028 56.1389 246.981 52.0193Z" fill="#B3404A"/>
<path d="M241.455 43.6104H243.793V41.4246H241.455V43.6104Z" fill="#B3404A"/>
<path d="M259.762 48.9016C259.769 48.8022 259.769 48.7022 259.762 48.6028C259.762 48.3918 259.762 48.1047 259.762 47.7355C259.762 47.548 259.762 47.3312 259.732 47.0968C259.703 46.8624 259.668 46.6045 259.627 46.335C259.586 46.0654 259.545 45.749 259.498 45.4384L259.252 44.4422C258.816 42.7266 258.104 41.0936 257.142 39.6077C255.746 37.4071 253.863 35.5561 251.639 34.1968C249.416 32.8376 246.91 32.0064 244.315 31.767C243.535 31.6982 242.752 31.6825 241.971 31.7201C241.578 31.7201 241.174 31.7201 240.799 31.7963L239.591 31.978C237.935 32.2858 236.332 32.8326 234.833 33.6012C233.268 34.4294 231.829 35.4772 230.561 36.7128C229.263 38.0289 228.177 39.5394 227.344 41.1899C226.447 42.8915 225.86 44.7387 225.609 46.6455C225.536 47.1287 225.495 47.6161 225.486 48.1047C225.447 48.5939 225.437 49.0851 225.457 49.5755C225.585 52.7191 226.567 55.7683 228.299 58.3948V58.2132C227.485 60.2466 226.682 62.2449 225.897 64.1904L225.756 64.5478L226.125 64.4424L232.513 62.6844L232.36 62.6492C234.511 64.2778 237.017 65.3742 239.673 65.8488C240.906 66.0784 242.161 66.1552 243.412 66.0773C244.015 66.0683 244.617 66.0115 245.211 65.9074L246.084 65.7726C246.371 65.7198 246.67 65.6319 246.928 65.5675C250.864 64.57 254.317 62.2039 256.667 58.8929C257.544 57.6732 258.248 56.3382 258.759 54.9257C258.871 54.6151 258.976 54.3397 259.076 54.035C259.176 53.7303 259.228 53.449 259.293 53.1853C259.357 52.9216 259.428 52.652 259.486 52.4059C259.545 52.1598 259.562 51.9195 259.597 51.691C259.65 51.2398 259.732 50.8413 259.75 50.519C259.767 50.1967 259.75 49.8861 259.75 49.64C259.75 49.3939 259.75 49.2415 259.75 49.1067C259.75 48.972 259.75 48.9251 259.75 48.9251C259.741 48.9853 259.741 49.0465 259.75 49.1067C259.75 49.2415 259.75 49.4173 259.709 49.64C259.668 49.8627 259.674 50.1733 259.65 50.5131C259.627 50.853 259.539 51.2515 259.469 51.6851C258.91 54.9284 257.421 57.9396 255.183 60.353C252.946 62.7664 250.055 64.4781 246.864 65.2803C246.588 65.3448 246.313 65.4268 246.032 65.4796L245.17 65.6085C244.589 65.7055 244.001 65.7584 243.412 65.7667C242.184 65.8314 240.953 65.7508 239.744 65.5265C237.15 65.0491 234.703 63.9714 232.6 62.3796L232.53 62.321H232.442L226.049 64.079L226.272 64.331L228.68 58.3597L228.715 58.2659L228.662 58.178C227.508 56.4322 226.69 54.4867 226.248 52.4411C226.046 51.492 225.924 50.5275 225.885 49.558C225.865 49.0792 225.875 48.5998 225.914 48.1223C225.918 47.6453 225.957 47.1694 226.031 46.6983C226.256 44.8361 226.81 43.0286 227.666 41.3598C228.481 39.7468 229.538 38.2685 230.801 36.9765C232.042 35.7635 233.452 34.7353 234.985 33.9235C236.451 33.1611 238.021 32.6182 239.644 32.312L240.816 32.1303C241.209 32.0717 241.601 32.0776 241.988 32.0483C242.752 32.0119 243.517 32.0256 244.279 32.0893C246.832 32.3128 249.3 33.1149 251.497 34.4349C253.693 35.7549 255.559 37.558 256.955 39.7073C257.922 41.1673 258.646 42.7742 259.099 44.4656L259.363 45.4501C259.416 45.7607 259.463 46.0361 259.51 46.3291C259.556 46.6221 259.592 46.8565 259.633 47.0909C259.674 47.3253 259.662 47.5363 259.679 47.7238C259.679 48.0871 259.726 48.3742 259.744 48.5852C259.733 48.6909 259.739 48.7978 259.762 48.9016Z" fill="#263238"/>
<path d="M85.0104 118.009H118.852C118.852 118.009 118.852 89.5941 148.38 89.0902C163.716 88.8206 171.668 98.8705 174.903 106.565C178.653 115.501 177.516 125.686 172.488 133.978C166.752 143.442 154.387 152.952 131.58 148.932L131.363 224.333H164.829V179.633C164.829 179.633 211.762 167.503 211.762 115.759C211.762 66.2713 171.744 55.5827 150.232 54.8912C138.266 54.5103 133.93 53.9946 119.127 56.0984C100.264 58.794 84.6119 80.6986 85.0104 118.009Z" fill="#B3404A"/>
<path d="M165.234 240.05H131.27V271.77H165.234V240.05Z" fill="#B3404A"/>
<path opacity="0.1" d="M165.234 240.05H131.27V271.77H165.234V240.05Z" fill="black"/>
<path opacity="0.1" d="M85.0104 118.009H118.852C118.852 118.009 118.852 89.5941 148.38 89.0902C163.716 88.8206 171.668 98.8705 174.903 106.565C178.653 115.501 177.516 125.686 172.488 133.978C166.752 143.442 154.387 152.952 131.58 148.932L131.363 224.333H164.829V179.633C164.829 179.633 211.762 167.503 211.762 115.759C211.762 66.2713 171.744 55.5827 150.232 54.8912C138.266 54.5103 133.93 53.9946 119.127 56.0984C100.264 58.794 84.6119 80.6986 85.0104 118.009Z" fill="black"/>
<path d="M70.9876 118.01H104.835C104.835 118.01 104.835 89.5945 134.363 89.0906C149.699 88.821 157.651 98.8709 160.88 106.565C164.636 115.502 163.499 125.686 158.472 133.978C152.735 143.442 140.153 152.045 117.346 148.042V224.334H150.812V179.633C150.812 179.633 197.745 167.503 197.745 115.759C197.745 66.2717 153.362 54.7803 134.369 54.7803C119.842 54.7979 70.3488 58.308 70.9876 118.01Z" fill="#B3404A"/>
<path opacity="0.3" d="M70.9876 118.01H104.835C104.835 118.01 104.835 89.5945 134.363 89.0906C149.699 88.821 157.651 98.8709 160.88 106.565C164.636 115.502 163.499 125.686 158.472 133.978C152.735 143.442 140.153 152.045 117.346 148.042V224.334H150.812V179.633C150.812 179.633 197.745 167.503 197.745 115.759C197.745 66.2717 153.362 54.7803 134.369 54.7803C119.842 54.7979 70.3488 58.308 70.9876 118.01Z" fill="black"/>
<path d="M151.217 240.05H117.253V271.77H151.217V240.05Z" fill="#B3404A"/>
<path opacity="0.3" d="M151.217 240.05H117.253V271.77H151.217V240.05Z" fill="black"/>
<path d="M138.184 89.2422C138.016 89.2567 137.848 89.2567 137.68 89.2422C137.346 89.2422 136.865 89.1309 136.238 89.125C134.466 89.0379 132.688 89.1125 130.929 89.3477C128.32 89.678 125.753 90.2809 123.27 91.1467C121.806 91.6584 120.381 92.2733 119.004 92.9868C117.516 93.7304 116.115 94.6364 114.826 95.6882C113.546 96.7496 112.399 97.9616 111.41 99.298C110.472 100.534 109.616 101.829 108.849 103.177C107.567 105.473 106.551 107.907 105.819 110.432C105.323 112.136 104.982 113.882 104.799 115.647C104.729 116.269 104.712 116.761 104.694 117.089C104.694 117.258 104.679 117.427 104.647 117.593C104.632 117.425 104.632 117.257 104.647 117.089C104.647 116.755 104.647 116.263 104.7 115.636C104.835 113.851 105.147 112.084 105.632 110.362C106.336 107.807 107.339 105.345 108.62 103.025C109.389 101.662 110.249 100.353 111.193 99.1046C112.19 97.7464 113.352 96.5163 114.65 95.4421C115.955 94.3758 117.374 93.458 118.881 92.7055C120.266 91.9789 121.702 91.3522 123.176 90.8303C125.682 89.9678 128.274 89.3784 130.906 89.0723C132.677 88.8547 134.465 88.8135 136.244 88.9492C136.728 88.9802 137.209 89.0388 137.686 89.125C137.854 89.1524 138.021 89.1915 138.184 89.2422Z" fill="#263238"/>
<path d="M189.178 83.2127C189.178 83.2127 189.137 83.1717 189.067 83.0838C188.996 82.9959 188.891 82.8436 188.774 82.6736L187.654 81.0914C187.414 80.7515 187.156 80.3589 186.852 79.9546L185.797 78.6712L184.59 77.1887C184.15 76.673 183.634 76.1749 183.119 75.6299C182.603 75.0849 182.076 74.5048 181.478 73.9481C180.88 73.3914 180.241 72.823 179.585 72.237C179.257 71.944 178.935 71.651 178.583 71.3404L177.493 70.479C176.749 69.893 176.011 69.307 175.208 68.721C171.708 66.2174 167.997 64.0252 164.115 62.1695L161.027 60.7748L157.962 59.6028C156.96 59.1867 155.94 58.8937 154.956 58.5656C153.971 58.2374 153.01 57.9034 152.026 57.6749L149.224 56.9424C148.316 56.7021 147.414 56.5556 146.552 56.3564C145.691 56.1571 144.859 55.9813 144.044 55.8817L141.7 55.5418C140.218 55.2898 138.858 55.2371 137.674 55.1199C137.088 55.073 136.502 55.0086 136.016 54.9851L134.621 54.95L132.688 54.8855H132.184H132.014C132.07 54.8767 132.127 54.8767 132.184 54.8855H132.688H134.621H136.022C136.532 54.8855 137.088 54.9558 137.686 54.9968C138.858 55.0965 140.241 55.1375 141.724 55.3777L144.068 55.6942C144.882 55.7879 145.714 55.9989 146.582 56.1571C147.449 56.3153 148.34 56.4794 149.271 56.7431L152.084 57.4698C153.057 57.6924 154.018 58.0558 155.014 58.3546C156.01 58.6535 157.024 58.9406 158.026 59.386L161.109 60.558L164.214 61.9585C168.117 63.8184 171.843 66.0268 175.348 68.5569C176.157 69.1429 176.895 69.7699 177.64 70.35L178.73 71.1411C179.081 71.4341 179.403 71.7271 179.732 72.0436L181.619 73.8016C182.205 74.3876 182.732 74.9736 183.254 75.5068C183.775 76.0401 184.273 76.5616 184.713 77.0832L185.885 78.5775L186.928 79.8784C187.227 80.2886 187.479 80.6871 187.713 81.0504C188.17 81.736 188.528 82.2751 188.779 82.6619L189.055 83.0897C189.101 83.1252 189.142 83.1666 189.178 83.2127Z" fill="#263238"/>
<path d="M185.65 155.877C185.581 156.004 185.496 156.122 185.398 156.229L184.59 157.184C184.255 157.612 183.834 158.121 183.312 158.69C182.791 159.258 182.234 159.926 181.554 160.618C180.874 161.309 180.148 162.083 179.321 162.862C178.495 163.641 177.599 164.462 176.643 165.317C172.454 168.974 167.861 172.141 162.954 174.758C161.818 175.344 160.745 175.93 159.708 176.381C158.671 176.832 157.704 177.295 156.813 177.67C155.922 178.045 155.102 178.356 154.387 178.631C153.672 178.907 153.045 179.129 152.529 179.293L151.357 179.674C151.221 179.728 151.08 179.768 150.936 179.792C151.062 179.719 151.195 179.66 151.334 179.616L152.506 179.182C153.016 179 153.631 178.766 154.34 178.473C155.049 178.18 155.87 177.887 156.749 177.471C157.628 177.055 158.6 176.662 159.614 176.153C160.628 175.643 161.712 175.104 162.843 174.512C165.076 173.281 167.484 171.84 169.916 170.175C172.348 168.511 174.534 166.759 176.479 165.106C177.434 164.263 178.349 163.472 179.163 162.675C179.978 161.878 180.739 161.157 181.413 160.465C182.087 159.774 182.679 159.135 183.207 158.573C183.734 158.01 184.168 157.518 184.519 157.108L185.34 156.176C185.435 156.068 185.539 155.968 185.65 155.877Z" fill="#263238"/>
<path d="M150.221 221.672C150.133 221.672 150.062 212.261 150.062 200.653C150.062 189.044 150.133 179.627 150.221 179.627C150.309 179.627 150.373 189.038 150.373 200.653C150.373 212.267 150.303 221.672 150.221 221.672Z" fill="#263238"/>
<path d="M151.51 269.619C151.422 269.619 151.357 263.015 151.357 254.87C151.357 246.724 151.422 240.114 151.51 240.114C151.598 240.114 151.662 246.718 151.662 254.87C151.662 263.021 151.592 269.619 151.51 269.619Z" fill="#263238"/>
<path d="M184.824 113.514C184.238 114.686 186.424 115.647 187.684 116.028C188.969 116.344 190.3 116.435 191.616 116.298C193.374 116.204 195.173 116.04 196.691 115.173C198.02 114.349 199.082 113.159 199.75 111.745C200.408 110.335 200.928 108.865 201.303 107.355C201.303 107.355 187.456 108.258 184.824 113.514Z" fill="#B3404A"/>
<g opacity="0.4">
<path opacity="0.4" d="M184.824 113.514C184.238 114.686 186.424 115.647 187.684 116.028C188.969 116.344 190.3 116.435 191.616 116.298C193.374 116.204 195.173 116.04 196.691 115.173C198.02 114.349 199.082 113.159 199.75 111.745C200.408 110.335 200.928 108.865 201.303 107.355C201.303 107.355 187.456 108.258 184.824 113.514Z" fill="black"/>
</g>
<path d="M223.934 109.763C226.217 111.382 228.952 112.239 231.751 112.212C233.093 112.287 234.415 111.871 235.472 111.04C235.923 110.624 236.263 110.097 236.726 109.699C237.043 109.429 237.412 109.224 237.711 108.937C237.868 108.801 237.99 108.628 238.065 108.434C238.139 108.24 238.165 108.03 238.138 107.823C238.023 107.314 237.738 106.86 237.33 106.534C235.742 105.632 233.843 105.667 232.015 105.708C230.185 105.787 228.377 106.141 226.653 106.757C225.235 107.237 223.752 107.929 223.031 109.218" fill="#B3404A"/>
<g opacity="0.4">
<path opacity="0.4" d="M238.138 107.824C237.931 107.33 237.567 106.918 237.101 106.652C235.513 105.749 233.843 105.667 232.015 105.708C230.185 105.788 228.377 106.141 226.653 106.757C225.235 107.238 223.752 107.929 223.031 109.219L223.934 109.764C226.217 111.383 228.952 112.24 231.751 112.213C233.093 112.288 234.415 111.871 235.472 111.041C235.923 110.625 236.263 110.098 236.726 109.699C237.043 109.43 237.412 109.224 237.711 108.937C237.868 108.801 237.99 108.629 238.065 108.434C238.139 108.24 238.165 108.03 238.138 107.824Z" fill="black"/>
</g>
<path d="M196.896 130.795L226.108 131.182C226.168 131.182 226.226 131.168 226.279 131.141C226.332 131.114 226.378 131.075 226.414 131.028C226.449 130.98 226.473 130.924 226.483 130.866C226.493 130.807 226.489 130.747 226.471 130.69L223.043 120.001C223.043 120.001 223.547 114.657 224.245 108.234C225.305 98.4776 226.718 86.2126 226.735 86.2478C224.737 80.6456 212.947 79.6963 212.947 79.6963L199.51 80.4932L199.041 79.7021L195.173 81.5012C194.33 81.8936 193.518 82.3521 192.747 82.8724C190.192 84.5777 184.039 88.498 182.914 92.8637C180.318 102.972 184.713 114.253 184.713 114.253L187.538 112.043C188.249 111.495 188.997 110.996 189.776 110.549L195.437 125.721C195.1 125.933 194.815 126.218 194.602 126.555C194.389 126.891 194.254 127.271 194.206 127.666C194.159 128.897 194.792 130.374 196.896 130.795Z" fill="#B3404A"/>
<g opacity="0.3">
<path opacity="0.3" d="M209.43 112.911C210.356 107.93 209.87 102.808 209.372 97.7686C207.754 101.871 207.813 106.559 206.096 110.625C205.886 111.055 205.732 111.51 205.639 111.979C205.594 112.215 205.606 112.458 205.673 112.688C205.74 112.918 205.861 113.129 206.026 113.303C206.495 113.731 207.198 113.497 207.819 113.426C208.375 113.32 208.916 113.147 209.43 112.911Z" fill="black"/>
</g>
<g opacity="0.4">
<path opacity="0.4" d="M198.654 124.443C200.998 125.257 203.495 123.739 205.973 123.47C207.614 123.294 209.255 123.669 210.884 123.933C214.178 124.466 217.53 124.548 220.846 124.179C221.355 124.151 221.853 124.021 222.311 123.798C222.548 123.637 222.742 123.42 222.875 123.167C223.009 122.913 223.079 122.631 223.079 122.345C217.559 121.759 212.044 121.442 206.524 120.874C205.15 120.639 203.743 120.685 202.387 121.009C200.723 121.524 199.457 122.831 198.285 124.126" fill="black"/>
</g>
<path d="M237.295 105.902C234.91 100.528 226.501 85.667 226.501 85.667L219.99 93.83L221.508 109.857C221.508 109.857 224.948 106.019 234.564 105.943C235.263 105.971 235.947 106.155 236.565 106.481C237.184 106.807 237.721 107.268 238.139 107.83L237.295 105.902Z" fill="#B3404A"/>
<path d="M198.202 103.06C197.738 101.921 197.369 100.745 197.101 99.5443C196.737 98.3749 196.47 97.1773 196.304 95.9639C196.761 97.1051 197.128 98.2807 197.4 99.4799C197.764 100.65 198.032 101.847 198.202 103.06Z" fill="#263238"/>
<path d="M219.498 92.7461C219.71 92.8959 219.906 93.0667 220.084 93.2559C220.602 93.7559 221.087 94.2883 221.537 94.8498C223.053 96.702 224.118 98.8804 224.649 101.214C224.925 102.504 224.986 103.83 224.831 105.14C224.684 106.341 224.455 107.396 224.303 108.287C224.151 109.178 224.057 109.904 224.01 110.408C224.009 110.67 223.981 110.931 223.928 111.188C223.887 110.926 223.875 110.661 223.893 110.396C223.919 109.678 223.985 108.962 224.092 108.252C224.215 107.355 224.42 106.289 224.555 105.111C224.691 103.83 224.621 102.537 224.35 101.278C223.825 98.9885 222.807 96.8407 221.367 94.9846C220.295 93.543 219.451 92.793 219.498 92.7461Z" fill="#263238"/>
<path d="M213.533 129.506C213.329 129.597 213.114 129.66 212.894 129.694C212.644 129.76 212.389 129.809 212.132 129.84C211.833 129.881 211.494 129.946 211.113 129.963C210.22 130.045 209.322 130.045 208.429 129.963C207.336 129.851 206.257 129.635 205.206 129.319C204.16 128.982 203.147 128.549 202.182 128.024C201.4 127.587 200.656 127.083 199.961 126.518C199.656 126.283 199.41 126.037 199.188 125.832C198.996 125.659 198.814 125.475 198.643 125.281C198.48 125.13 198.34 124.957 198.227 124.765C198.268 124.724 198.895 125.428 200.096 126.348C200.798 126.882 201.54 127.36 202.317 127.777C203.271 128.279 204.267 128.696 205.294 129.026C206.327 129.337 207.386 129.557 208.458 129.682C209.334 129.776 210.215 129.804 211.095 129.764C212.601 129.682 213.521 129.459 213.533 129.506Z" fill="#263238"/>
<path d="M222.551 126.178C222.689 126.443 222.767 126.735 222.779 127.033C222.873 127.748 222.819 128.474 222.621 129.166C222.42 129.875 222.012 130.507 221.449 130.983C221.021 131.34 220.693 131.452 220.676 131.422C220.658 131.393 220.933 131.2 221.303 130.836C221.777 130.342 222.121 129.738 222.305 129.078C222.773 127.531 222.439 126.184 222.551 126.178Z" fill="#263238"/>
<path d="M220.963 128.24C221.091 128.843 221.04 129.47 220.817 130.044C220.594 130.618 220.21 131.115 219.709 131.475C219.645 131.411 220.19 130.83 220.53 129.934C220.87 129.037 220.875 128.246 220.963 128.24Z" fill="#263238"/>
<path d="M215.736 108.961C215.425 109.486 215.076 109.987 214.692 110.461C214.39 110.99 214.047 111.496 213.667 111.973C213.78 111.355 214.046 110.774 214.441 110.285C214.753 109.741 215.199 109.285 215.736 108.961Z" fill="#263238"/>
<path d="M195.683 94.768C195.236 94.5058 194.804 94.2202 194.388 93.9124C192.304 92.5433 189.938 91.6601 187.467 91.3282C186.95 91.2905 186.435 91.222 185.926 91.1231C186.445 91.0514 186.971 91.0514 187.49 91.1231C190.029 91.3398 192.461 92.2455 194.522 93.7425C194.955 94.0289 195.345 94.374 195.683 94.768Z" fill="#263238"/>
<path d="M226.501 85.4736C225.452 86.3182 224.472 87.2451 223.571 88.2454C222.741 89.313 221.998 90.4457 221.35 91.6325C221.419 91.2334 221.556 90.8489 221.754 90.4957C222.178 89.617 222.71 88.7942 223.336 88.0462C223.964 87.2996 224.685 86.6361 225.481 86.0714C225.784 85.8149 226.129 85.6127 226.501 85.4736Z" fill="#263238"/>
<path d="M214.441 80.6455C214.494 80.73 214.538 80.8205 214.57 80.9151C214.684 81.1805 214.776 81.4549 214.845 81.7355C215.092 82.7798 215.092 83.8673 214.845 84.9116C214.481 86.4705 213.646 87.8799 212.454 88.9491C210.95 90.2233 209.034 90.9065 207.063 90.8712C205.091 90.878 203.169 90.2469 201.584 89.0722C200.321 88.1082 199.297 86.8672 198.59 85.4449C198.113 84.4925 197.778 83.4759 197.593 82.427C197.54 82.1444 197.504 81.8586 197.488 81.5714C197.471 81.4705 197.471 81.3676 197.488 81.2667C197.488 81.2667 197.552 81.6769 197.717 82.4035C197.944 83.4228 198.305 84.4079 198.789 85.3335C199.504 86.713 200.519 87.9145 201.76 88.8495C203.287 89.9802 205.134 90.5959 207.034 90.6075C208.933 90.6424 210.782 89.9936 212.243 88.7792C213.395 87.7491 214.211 86.398 214.587 84.8999C214.848 83.8886 214.884 82.8325 214.693 81.8058C214.582 81.0323 214.406 80.6572 214.441 80.6455Z" fill="#263238"/>
<g opacity="0.3">
<path opacity="0.3" d="M216.492 109.998C216.492 109.705 216.445 109.36 216.187 109.213C216.105 109.172 216.015 109.15 215.923 109.15C215.831 109.15 215.741 109.172 215.659 109.213C215.495 109.302 215.35 109.421 215.232 109.565C214.543 110.282 214.01 111.134 213.667 112.067L216.538 111.815C216.521 111.223 216.509 110.602 216.492 109.998Z" fill="black"/>
</g>
<g opacity="0.3">
<path opacity="0.3" d="M226.026 103.957C225.737 102.313 225.017 100.776 223.939 99.5029C225.182 103.558 224.766 105.849 224.068 108.627L224.221 108.24C225.024 106.617 226.242 105.597 226.026 103.957Z" fill="black"/>
</g>
<path d="M220.289 240.178L218.537 266.46L207.11 266.325L205.311 239L220.289 240.178Z" fill="#FFBE9D"/>
<path d="M218.86 263.003V263.765C218.86 263.765 231.752 268.945 231.875 271.383L206.272 271.242L206.671 262.728C210.486 264.515 214.476 264.738 218.86 263.003Z" fill="#B3404A"/>
<path d="M209.267 265.458C209.024 265.532 208.816 265.691 208.682 265.907C208.548 266.123 208.498 266.38 208.54 266.63C208.603 266.88 208.76 267.096 208.978 267.233C209.197 267.369 209.46 267.416 209.712 267.363C209.973 267.285 210.195 267.113 210.336 266.88C210.477 266.647 210.526 266.37 210.474 266.103C210.381 265.85 210.193 265.643 209.95 265.526C209.707 265.409 209.429 265.391 209.173 265.476" fill="white"/>
<path d="M206.272 271.241L206.366 269.196L230.884 270.087C230.884 270.087 232.021 270.591 231.887 271.388L206.272 271.241Z" fill="#263238"/>
<path d="M218.954 263.834C218.954 263.957 218.321 264.01 217.705 264.42C217.09 264.831 216.756 265.34 216.645 265.294C216.533 265.247 216.721 264.52 217.477 264.051C218.233 263.582 218.983 263.7 218.954 263.834Z" fill="#263238"/>
<path d="M221.631 264.96C221.661 265.083 221.116 265.288 220.688 265.816C220.26 266.343 220.137 266.9 220.008 266.894C219.879 266.888 219.809 266.179 220.354 265.54C220.899 264.902 221.625 264.872 221.631 264.96Z" fill="#263238"/>
<path d="M223.137 268.182C223.02 268.182 222.85 267.596 223.178 266.899C223.506 266.202 224.086 265.95 224.139 266.049C224.192 266.149 223.829 266.518 223.553 267.086C223.278 267.655 223.266 268.171 223.137 268.182Z" fill="#263238"/>
<path d="M218.203 47.964C218.865 46.3232 218.063 44.3367 216.639 43.276C215.138 42.2881 213.308 41.9322 211.546 42.2857C209.808 42.6501 208.126 43.2411 206.542 44.0437C205.805 43.3008 204.877 42.7773 203.86 42.5316C202.843 42.286 201.778 42.3278 200.783 42.6523C199.789 42.9769 198.904 43.5716 198.228 44.3698C197.552 45.1681 197.111 46.1386 196.955 47.1729C196.321 47.0134 195.656 47.0295 195.031 47.2193C194.406 47.4092 193.844 47.7657 193.406 48.2506C192.968 48.7354 192.671 49.3304 192.545 49.9716C192.42 50.6128 192.472 51.2761 192.695 51.8902L200.617 54.6737L209.267 69.9097C210.545 71.0003 212.176 71.5885 213.857 71.5647C215.537 71.5409 217.151 70.9067 218.398 69.7803C219.644 68.654 220.439 67.1125 220.633 65.4434C220.827 63.7743 220.407 62.0917 219.451 60.7095C219.936 60.2785 220.348 59.7719 220.67 59.2093C221.361 58.8006 221.964 58.2586 222.444 57.6147C222.924 56.9709 223.271 56.2381 223.465 55.4589C224.233 52.066 221.608 48.3625 218.203 47.964Z" fill="#263238"/>
<path d="M212.958 79.6955C212.466 77.2167 212.126 75.5173 212.132 75.5349C212.138 75.5525 216.82 73.7183 216.48 67.1961C216.316 63.9497 215.08 58.8339 213.931 54.685C212.9 50.9463 209.413 46.8268 205.727 48.0163L194.552 53.4661C193.433 53.8295 193.24 54.8843 193.503 56.027V56.613L197.845 74.5797L199.68 82.6079C200.071 84.2564 201.065 85.6988 202.466 86.651C203.867 87.6033 205.574 87.9964 207.251 87.753C208.166 87.6242 209.046 87.3097 209.836 86.8286C210.626 86.3476 211.309 85.7103 211.843 84.9557C212.378 84.2012 212.752 83.3454 212.944 82.4408C213.136 81.5362 213.141 80.602 212.958 79.6955Z" fill="#FFBE9D"/>
<path d="M213.89 59.0215C213.937 59.2294 213.902 59.4475 213.793 59.6306C213.684 59.8138 213.509 59.9482 213.304 60.006C213.2 60.0349 213.092 60.0425 212.985 60.0285C212.879 60.0145 212.776 59.979 212.683 59.9243C212.591 59.8695 212.51 59.7966 212.447 59.7099C212.383 59.6233 212.338 59.5246 212.313 59.42C212.266 59.2128 212.301 58.9955 212.41 58.8133C212.519 58.6311 212.695 58.4979 212.899 58.4413C213.002 58.4115 213.111 58.4029 213.217 58.4162C213.324 58.4295 213.426 58.4644 213.519 58.5187C213.612 58.5729 213.692 58.6455 213.756 58.732C213.82 58.8184 213.865 58.9169 213.89 59.0215Z" fill="#263238"/>
<path d="M213.38 57.774C213.298 57.9029 212.589 57.5806 211.722 57.774C210.855 57.9673 210.304 58.5299 210.186 58.442C210.069 58.3541 210.186 58.19 210.427 57.9322C210.749 57.5915 211.169 57.3583 211.628 57.2641C212.081 57.1664 212.554 57.2178 212.976 57.4106C213.304 57.5454 213.415 57.7212 213.38 57.774Z" fill="#263238"/>
<path d="M205.381 60.9435C205.428 61.1507 205.393 61.3679 205.284 61.5501C205.175 61.7324 205 61.8656 204.795 61.9221C204.694 61.9516 204.588 61.9607 204.483 61.9489C204.378 61.9371 204.277 61.9046 204.185 61.8534C204.093 61.8022 204.012 61.7332 203.946 61.6504C203.881 61.5677 203.833 61.4728 203.805 61.3713C203.758 61.1633 203.792 60.9453 203.901 60.7621C204.01 60.5789 204.185 60.4446 204.391 60.3868C204.492 60.3574 204.599 60.3486 204.704 60.3608C204.809 60.3729 204.91 60.4059 205.002 60.4577C205.095 60.5095 205.176 60.5792 205.241 60.6626C205.306 60.746 205.353 60.8415 205.381 60.9435Z" fill="#263238"/>
<path d="M204.953 59.842C204.877 59.971 204.162 59.6428 203.295 59.842C202.428 60.0413 201.877 60.5921 201.76 60.5101C201.643 60.428 201.76 60.2581 202 59.9944C202.324 59.6568 202.743 59.4258 203.201 59.3322C203.654 59.2359 204.126 59.2852 204.549 59.4729C204.86 59.6135 204.994 59.7717 204.953 59.842Z" fill="#263238"/>
<path d="M209.367 65.3511C209.796 65.1141 210.253 64.9292 210.726 64.8002C210.943 64.7299 211.148 64.642 211.154 64.4838C211.123 64.2507 211.023 64.0323 210.867 63.8568L209.853 62.298C208.435 60.0771 207.357 58.237 207.444 58.196C207.532 58.155 208.757 59.8954 210.175 62.1164L211.166 63.6868C211.36 63.9272 211.466 64.2273 211.464 64.5365C211.447 64.6208 211.411 64.7003 211.359 64.7691C211.308 64.838 211.242 64.8946 211.166 64.935C211.051 64.9957 210.929 65.041 210.802 65.0698C210.339 65.2285 209.856 65.3231 209.367 65.3511Z" fill="#263238"/>
<path d="M212.132 75.5352C209.168 76.2051 206.076 76.0387 203.201 75.0547C203.201 75.0547 206.272 79.0629 212.466 77.1467L212.132 75.5352Z" fill="#EB996E"/>
<path d="M205.1 58.5998C205.042 58.8518 204.145 58.8459 203.125 59.0979C202.106 59.3499 201.297 59.7308 201.133 59.5315C201.063 59.4378 201.18 59.1916 201.49 58.9455C201.903 58.5979 202.394 58.3547 202.92 58.2365C203.442 58.1126 203.986 58.1126 204.508 58.2365C204.924 58.3126 205.141 58.4826 205.1 58.5998Z" fill="#263238"/>
<path d="M213.047 55.0076C212.906 55.242 212.156 55.1834 211.289 55.3533C210.421 55.5232 209.736 55.8162 209.531 55.6463C209.437 55.5584 209.531 55.3357 209.783 55.0603C210.17 54.7349 210.637 54.5202 211.136 54.4391C211.627 54.3403 212.136 54.3767 212.607 54.5446C212.965 54.7087 213.105 54.8904 213.047 55.0076Z" fill="#263238"/>
<path d="M197.312 49.2707C197.441 49.9055 197.709 50.504 198.096 51.0236C198.483 51.5432 198.98 51.9712 199.551 52.2771C200.122 52.5831 200.754 52.7596 201.401 52.7939C202.048 52.8283 202.694 52.7198 203.295 52.4761C204.22 52.1011 205.182 51.3979 206.119 51.7378C207.057 52.0776 207.443 53.4137 208.34 53.9118C209.659 54.6502 211.27 53.3727 212.741 53.5016C213.913 53.6012 214.798 54.4978 215.706 55.2596C216.614 56.0214 217.868 56.5957 218.894 56.0449C218.659 55.0662 218.311 54.1183 217.857 53.2203C217.398 52.3163 216.64 51.5996 215.712 51.1928C215.196 50.9877 214.64 50.9174 214.147 50.6654C213.087 50.1263 212.612 48.9074 211.844 47.9874C211.34 47.4076 210.705 46.9563 209.992 46.671C209.278 46.3856 208.507 46.2744 207.742 46.3466C206.477 46.4755 205.275 47.1142 203.998 47.0615C203.054 47.0205 202.152 46.5985 201.208 46.6161C199.374 46.6161 197.997 48.2569 196.978 49.7864" fill="#263238"/>
<path d="M203.489 50.6133C202.645 50.5489 200.922 50.3731 200.353 49.7754C199.776 49.1295 199.039 48.6466 198.216 48.3751C197.394 48.1036 196.514 48.053 195.665 48.2283C194.824 48.4793 194.084 48.994 193.557 49.6966C193.029 50.3992 192.742 51.2525 192.735 52.1311C191.71 52.3813 190.771 52.9038 190.018 53.6433C189.266 54.3829 188.726 55.312 188.458 56.3327C188.185 57.4012 188.176 58.5199 188.431 59.5927C188.686 60.6655 189.198 61.6603 189.923 62.4916C190.275 62.9317 190.596 63.3958 190.884 63.8804C190.486 64.3733 190.137 64.9031 189.841 65.4626C188.499 68.4277 192.138 69.5646 192.138 69.5646C192.138 71.557 193.984 71.5453 195.162 71.5394C196.339 71.5335 196.99 74.6804 197.91 74.5573L196.978 64.8473C197.115 64.9003 197.26 64.9281 197.406 64.9293C199.627 64.9703 199.047 60.7629 198.332 59.6553C198.993 58.8316 199.552 57.9303 199.996 56.9714C200.398 55.5056 200.426 53.9622 200.078 52.4827C200.822 52.3889 203.852 50.6368 203.489 50.6133Z" fill="#263238"/>
<path d="M197.272 65.3627C197.196 65.0541 197.043 64.7698 196.828 64.5361C196.613 64.3025 196.342 64.1272 196.041 64.0266C195.739 63.9259 195.417 63.9032 195.105 63.9606C194.793 64.018 194.5 64.1536 194.254 64.3547C193.668 64.8587 193.357 65.7025 193.709 67.1148C194.658 70.8887 198.25 69.1599 198.227 69.0545C198.203 68.949 197.682 66.9214 197.272 65.3627Z" fill="#FFBE9D"/>
<path d="M196.714 67.911C196.714 67.911 196.662 67.9754 196.562 68.0516C196.424 68.1578 196.249 68.2062 196.076 68.1864C195.642 68.1395 195.144 67.6004 194.956 66.9148C194.867 66.5944 194.849 66.2584 194.904 65.9303C194.91 65.8029 194.946 65.6787 195.011 65.5685C195.075 65.4583 195.165 65.3653 195.273 65.2974C195.344 65.2591 195.426 65.2469 195.506 65.2629C195.585 65.279 195.656 65.3223 195.707 65.3853C195.783 65.4732 195.777 65.5553 195.8 65.5611C195.824 65.567 195.865 65.4732 195.8 65.3267C195.755 65.2398 195.683 65.1699 195.595 65.1275C195.471 65.0773 195.332 65.0773 195.208 65.1275C195.061 65.1974 194.934 65.3033 194.839 65.4355C194.744 65.5676 194.683 65.7217 194.663 65.8834C194.587 66.2525 194.601 66.6344 194.704 66.9968C194.77 67.3371 194.934 67.6505 195.177 67.8976C195.42 68.1447 195.731 68.3145 196.07 68.3856C196.18 68.3901 196.29 68.3698 196.391 68.3262C196.493 68.2826 196.583 68.2168 196.656 68.1337C196.732 68.0047 196.732 67.9168 196.714 67.911Z" fill="#EB996E"/>
<path d="M217.506 60.094C217.506 60.094 217.851 59.8303 218.332 59.2443C218.995 58.3999 219.402 57.383 219.504 56.3143C219.582 55.5847 219.51 54.847 219.293 54.1461C219.043 53.3421 218.579 52.6211 217.951 52.0599C217.226 51.4268 216.348 50.9943 215.405 50.8052C214.461 50.616 213.484 50.6769 212.572 50.9817C212.396 51.0403 212.232 51.1282 212.068 51.1985C211.904 51.2688 211.757 51.3743 211.605 51.4622L211.37 51.5911V51.3333C211.365 50.8793 211.197 50.4424 210.896 50.1027C210.587 49.773 210.209 49.5166 209.788 49.3526C208.992 49.0209 208.11 48.9552 207.274 49.1651C205.657 49.5343 204.285 50.2726 202.99 50.425C201.975 50.6015 200.93 50.3925 200.06 49.839C199.831 49.6811 199.632 49.4825 199.474 49.253C199.381 49.0948 199.334 49.0069 199.346 49.001C199.558 49.2904 199.817 49.542 200.113 49.7452C200.969 50.2391 201.974 50.4076 202.944 50.2199C203.618 50.0929 204.278 49.8965 204.913 49.6339C205.657 49.3362 206.421 49.0876 207.198 48.8897C207.631 48.7848 208.077 48.7395 208.522 48.7549C208.992 48.7797 209.455 48.8868 209.888 49.0713C210.336 49.2628 210.736 49.5509 211.06 49.9152C211.406 50.3119 211.601 50.8183 211.61 51.345L211.376 51.2161L211.862 50.9348C212.044 50.8645 212.214 50.7707 212.402 50.7063C213.364 50.3768 214.396 50.3079 215.393 50.5065C216.391 50.7051 217.318 51.1643 218.08 51.8372C218.739 52.4339 219.221 53.2001 219.475 54.0523C219.738 54.9555 219.773 55.9098 219.578 56.83C219.382 57.7502 218.963 58.6078 218.355 59.3263C218.162 59.5466 217.944 59.7433 217.705 59.9123C217.646 59.9807 217.579 60.0417 217.506 60.094Z" fill="#455A64"/>
<path d="M216.744 46.8448C216.36 46.6495 215.949 46.5094 215.525 46.4287C215.041 46.3625 214.548 46.4086 214.084 46.5635C213.483 46.7473 212.961 47.1269 212.601 47.6417L212.455 47.8468L212.367 47.6124C212.061 46.8921 211.568 46.2664 210.94 45.7997C210.312 45.3331 209.57 45.0425 208.792 44.9579C207.57 44.9119 206.366 45.2613 205.358 45.9541C204.5 46.5137 203.587 46.9849 202.633 47.3605C201.976 47.6091 201.268 47.6936 200.571 47.6066C200.385 47.5723 200.202 47.5213 200.026 47.4542C199.909 47.4015 199.844 47.3722 199.85 47.3605C199.856 47.3487 200.114 47.4366 200.588 47.4835C201.262 47.5256 201.937 47.4155 202.563 47.1612C203.49 46.7572 204.378 46.2708 205.218 45.7079C205.736 45.3859 206.286 45.1169 206.859 44.9051C207.488 44.6756 208.161 44.5895 208.827 44.6531C209.659 44.7439 210.45 45.0583 211.116 45.5629C211.783 46.0675 212.3 46.7434 212.613 47.5187H212.385C212.787 46.968 213.363 46.5678 214.019 46.3818C214.518 46.2372 215.044 46.2111 215.555 46.3057C215.878 46.3671 216.188 46.4862 216.469 46.6573C216.569 46.7063 216.662 46.7695 216.744 46.8448Z" fill="#455A64"/>
<path d="M209.026 67.0848C208.889 66.9704 208.73 66.8861 208.558 66.8377C208.386 66.7892 208.206 66.7776 208.03 66.8035C207.823 66.8476 207.629 66.9345 207.458 67.0587C207.287 67.1828 207.145 67.3415 207.039 67.5243C207.039 67.5243 207.01 67.5536 207.004 67.5712C206.924 67.705 206.887 67.8607 206.899 68.0165C206.924 68.1863 206.991 68.3472 207.093 68.4851C207.195 68.623 207.33 68.7338 207.485 68.8076C207.732 68.9332 208.013 68.9792 208.288 68.9393C208.562 68.8995 208.818 68.7757 209.02 68.585C209.212 68.3825 209.319 68.1147 209.32 67.836C209.321 67.5573 209.216 67.2887 209.026 67.0848Z" fill="#B3404A"/>
<path d="M209.319 68.9079C209.272 68.9079 209.22 68.7321 209.061 68.4918C208.871 68.1697 208.586 67.9139 208.245 67.7588C207.905 67.6037 207.525 67.5568 207.157 67.6246C206.87 67.6656 206.694 67.7476 206.676 67.7066C206.659 67.6656 206.794 67.525 207.11 67.4136C207.524 67.2803 207.973 67.3054 208.37 67.4839C208.77 67.6622 209.087 67.9873 209.255 68.3922C209.378 68.6969 209.36 68.902 209.319 68.9079Z" fill="#263238"/>
<path d="M197.359 69.6341C197.359 69.6341 197.529 69.9271 197.306 70.3725C197.18 70.639 196.958 70.8482 196.685 70.9585C196.514 71.0195 196.332 71.0402 196.152 71.0189C195.972 70.9975 195.799 70.9347 195.648 70.8354C195.494 70.7416 195.363 70.6135 195.267 70.4611C195.17 70.3086 195.11 70.1359 195.091 69.9564C195.073 69.667 195.159 69.3806 195.331 69.1477C195.636 68.761 195.976 68.7492 195.976 68.7844C195.976 68.8196 195.718 68.9192 195.513 69.2708C195.394 69.4678 195.345 69.6988 195.372 69.9271C195.394 70.0608 195.445 70.1883 195.521 70.3005C195.597 70.4128 195.696 70.5073 195.812 70.5776C195.926 70.6507 196.055 70.699 196.189 70.7192C196.323 70.7394 196.46 70.7311 196.591 70.6948C196.808 70.6173 196.994 70.4738 197.125 70.2846C197.353 69.9212 197.312 69.6341 197.359 69.6341Z" fill="#B3404A"/>
<path d="M195.385 69.4052C195.414 69.4052 195.385 69.6044 195.109 69.7333C194.974 69.7895 194.825 69.8059 194.681 69.7804C194.537 69.7549 194.403 69.6886 194.295 69.5894C194.187 69.4902 194.11 69.3622 194.072 69.2205C194.035 69.0788 194.039 68.9294 194.084 68.7899C194.141 68.6314 194.251 68.4971 194.394 68.409C194.634 68.2625 194.816 68.3211 194.81 68.3562C194.804 68.3914 194.67 68.4324 194.523 68.5789C194.451 68.669 194.407 68.7783 194.397 68.8932C194.387 69.0081 194.411 69.1235 194.466 69.2248C194.521 69.3262 194.604 69.4091 194.706 69.463C194.808 69.517 194.924 69.5397 195.039 69.5282C195.238 69.4872 195.344 69.3817 195.385 69.4052Z" fill="#B3404A"/>
<path d="M201.824 121.448C201.824 121.448 216.334 122.292 224.913 122.368C231.552 122.432 234.517 120.669 235.841 116.397C236.955 112.816 234.564 105.942 234.564 105.942C230.069 105.942 227.298 106.587 224.409 107.941L225.176 111.082L201.783 113.097L201.824 121.448Z" fill="#FFBE9D"/>
<path d="M230.052 114.434C229.423 113.616 228.688 112.885 227.866 112.26C226.985 111.721 226.035 111.303 225.042 111.018C225.355 110.973 225.674 111.001 225.974 111.1C226.711 111.274 227.41 111.582 228.036 112.008C228.664 112.436 229.206 112.976 229.636 113.602C229.964 114.083 230.087 114.417 230.052 114.434Z" fill="#EB996E"/>
<path d="M196.515 107.918C196.515 107.918 192.026 108.996 188.727 111.2L192.243 120.728C193.415 123.857 196.995 125.416 199.861 123.775C204.273 121.25 205.832 113.889 205.832 113.889L210.678 92.8638L202.644 87.8301L196.544 107.918" fill="#FFBE9D"/>
<path d="M202.616 87.8296L202.944 80.9148L201.145 73.8828C201.045 73.496 200.998 73.0097 201.315 72.7753C201.472 72.6549 201.666 72.5927 201.863 72.5991C202.061 72.6055 202.25 72.6802 202.399 72.8104C202.885 73.3144 205.229 79.4615 205.229 79.4615C205.229 79.4615 208.786 77.3285 209.419 77.223C210.052 77.1175 210.843 79.0337 210.896 79.1802C210.919 79.6096 210.919 80.04 210.896 80.4694C210.896 80.4694 213.093 80.5339 213.293 80.8328C213.452 81.4433 213.537 82.0711 213.545 82.7021C213.545 82.7021 214.476 83.001 214.623 83.7042C214.769 84.4074 215.074 85.5676 214.623 85.8255C214.172 86.0833 213.258 86.5873 213.258 86.5873C213.258 86.5873 212.888 90.1736 212.789 90.5018C212.689 90.8299 210.632 92.8458 210.632 92.8458L202.616 87.8296Z" fill="#FFBE9D"/>
<path d="M195.138 123.915C195.138 123.915 195.355 124.044 195.812 124.191C196.48 124.401 197.187 124.457 197.88 124.355C198.994 124.196 200.036 123.715 200.88 122.972C201.996 121.96 202.938 120.772 203.67 119.456C204.101 118.682 204.463 117.872 204.754 117.036C205.059 116.115 205.311 115.178 205.51 114.229C205.967 112.254 206.465 110.127 206.992 107.865C208.047 103.347 209.231 98.2955 210.508 92.8515V92.8105H210.538C210.942 92.412 211.346 92.0077 211.751 91.5858C211.95 91.3748 212.149 91.1638 212.337 90.947C212.431 90.8357 212.53 90.7243 212.606 90.613C212.666 90.5027 212.7 90.3806 212.706 90.2556C212.864 89.0835 212.987 87.8705 213.116 86.6458V86.5696L213.187 86.5344L214.306 85.9074C214.388 85.8547 214.517 85.7961 214.569 85.7492C214.625 85.6985 214.663 85.6304 214.675 85.5558C214.702 85.3614 214.702 85.1642 214.675 84.9698C214.618 84.5401 214.53 84.1151 214.411 83.6982C214.212 83.3337 213.877 83.0621 213.48 82.9423L213.38 82.9071V82.8075C213.38 82.4676 213.345 82.116 213.304 81.7703C213.288 81.5971 213.262 81.425 213.228 81.2546C213.214 81.1795 213.19 81.1066 213.157 81.0378C213.157 80.9967 213.157 81.0378 213.122 81.0026C213.09 80.9859 213.057 80.9722 213.022 80.9616C212.318 80.808 211.599 80.7275 210.878 80.7213H210.725V80.569C210.725 80.2056 210.725 79.8013 210.725 79.397C210.701 79.259 210.654 79.1263 210.585 79.0043C210.526 78.8637 210.456 78.7289 210.385 78.5883C210.248 78.3169 210.087 78.058 209.905 77.8148C209.822 77.7014 209.721 77.6024 209.606 77.5218C209.564 77.4858 209.511 77.4633 209.456 77.4571C209.401 77.4508 209.345 77.4611 209.295 77.4866C209.012 77.5952 208.736 77.7224 208.469 77.8675C207.379 78.4535 206.313 79.0395 205.27 79.6724L205.117 79.7661L205.053 79.6021C204.502 78.2132 203.951 76.842 203.412 75.5001C203.142 74.8262 202.879 74.1523 202.609 73.4901C202.568 73.3417 202.485 73.2081 202.371 73.1045C202.257 73.0008 202.116 72.9314 201.965 72.9041C201.825 72.8576 201.673 72.8601 201.534 72.9112C201.396 72.9624 201.279 73.059 201.203 73.1854C201.13 73.3111 201.099 73.4569 201.115 73.6014C201.115 73.7303 201.197 73.9296 201.232 74.0878C201.326 74.4277 201.414 74.7617 201.502 75.0957C201.677 75.7696 201.847 76.4318 202.023 77.0881C202.367 78.4086 202.705 79.6978 203.037 80.9557V80.9967C202.92 83.4033 202.808 85.7082 202.703 87.9115V87.8998L197.364 105.269L195.858 110.103C195.683 110.648 195.548 111.076 195.454 111.375C195.36 111.674 195.302 111.803 195.302 111.803C195.302 111.803 195.331 111.65 195.413 111.363L195.782 110.08C196.122 108.949 196.609 107.314 197.224 105.228C198.49 101.032 200.289 95.0432 202.463 87.8236V87.8529C202.564 85.6574 202.668 83.3525 202.773 80.9381V80.9792C202.439 79.7193 202.094 78.4301 201.748 77.1174L201.22 75.125C201.132 74.791 201.045 74.4511 200.951 74.1171C200.9 73.9417 200.859 73.7636 200.828 73.5838C200.806 73.3804 200.849 73.1754 200.951 72.9978C201.059 72.8151 201.227 72.6745 201.425 72.5994C201.622 72.5418 201.83 72.5353 202.03 72.5804C202.23 72.6255 202.415 72.7208 202.568 72.8572C202.715 72.9952 202.824 73.1688 202.885 73.3612L203.687 75.3711C204.232 76.7189 204.777 78.0902 205.334 79.4731L205.117 79.397C206.166 78.7758 207.221 78.1546 208.334 77.5745C208.616 77.4274 208.905 77.2963 209.202 77.1819C209.294 77.1434 209.395 77.1293 209.495 77.1409C209.595 77.1554 209.691 77.1913 209.776 77.2463C209.917 77.3476 210.042 77.4702 210.145 77.6097C210.341 77.8661 210.512 78.1408 210.655 78.4301C210.731 78.5766 210.801 78.7172 210.866 78.8637C210.949 79.0189 211.005 79.1874 211.03 79.3618C211.03 79.7779 211.03 80.1646 211.03 80.5338L210.884 80.3756C211.637 80.3806 212.387 80.4671 213.122 80.6334C213.172 80.651 213.221 80.6726 213.269 80.6979C213.333 80.733 213.386 80.7859 213.421 80.8502C213.466 80.9454 213.5 81.0457 213.521 81.1491C213.556 81.3366 213.579 81.5124 213.603 81.6941C213.638 82.0515 213.661 82.4031 213.679 82.7547L213.573 82.6141C213.813 82.6844 214.036 82.8027 214.228 82.9619C214.421 83.1211 214.579 83.3178 214.693 83.54C214.821 83.9853 214.915 84.4398 214.974 84.8995C215.015 85.1341 215.015 85.374 214.974 85.6086C214.948 85.7507 214.874 85.8793 214.763 85.9719C214.667 86.0362 214.567 86.0949 214.464 86.1477L213.351 86.7278L213.427 86.6165C213.292 87.8412 213.169 89.0425 213.005 90.2321L212.97 90.4606C212.956 90.5532 212.918 90.6403 212.858 90.7126C212.772 90.8409 212.676 90.9624 212.571 91.0759C212.372 91.2986 212.173 91.5154 211.985 91.7264C211.581 92.1483 211.177 92.5527 210.766 92.9511L210.807 92.8808C209.518 98.3189 208.323 103.37 207.25 107.888C206.717 110.144 206.207 112.272 205.738 114.241C205.538 115.197 205.28 116.14 204.965 117.065C204.663 117.91 204.291 118.727 203.852 119.509C203.103 120.842 202.139 122.042 200.998 123.06C200.128 123.808 199.059 124.285 197.921 124.431C197.213 124.526 196.493 124.454 195.817 124.22C195.646 124.157 195.479 124.081 195.319 123.992L195.138 123.915Z" fill="#EB996E"/>
<path d="M210.902 80.4867C210.902 80.5278 210.703 80.5512 210.392 80.5629C209.998 80.5704 209.605 80.6175 209.22 80.7035C208.849 80.7949 208.506 80.9783 208.224 81.2368C208.013 81.4361 207.919 81.606 207.872 81.5884C207.825 81.5708 207.872 81.3599 208.066 81.0903C208.339 80.7491 208.718 80.5096 209.144 80.4105C209.554 80.3095 209.98 80.2895 210.398 80.3519C210.714 80.393 210.902 80.4457 210.902 80.4867Z" fill="#EB996E"/>
<path d="M209.202 80.5519C209.126 80.5226 209.12 80.341 209.202 80.1476C209.284 79.9542 209.401 79.8194 209.477 79.8487C209.554 79.878 209.565 80.0597 209.477 80.2531C209.389 80.4464 209.261 80.5812 209.202 80.5519Z" fill="#EB996E"/>
<path d="M213.644 82.6786C213.075 82.8546 212.482 82.9358 211.886 82.9189C211.699 82.9126 211.513 82.9514 211.344 83.0319C211.174 83.1125 211.027 83.2325 210.914 83.3818C210.761 83.6221 210.814 83.8213 210.767 83.833C210.72 83.8447 210.58 83.6397 210.726 83.288C210.807 83.0901 210.954 82.9264 211.142 82.8251C211.359 82.7061 211.599 82.6342 211.845 82.6141C212.444 82.5225 213.054 82.5444 213.644 82.6786Z" fill="#EB996E"/>
<path d="M213.258 84.7881C213.34 84.7881 213.387 85.2218 213.363 85.755C213.34 86.2883 213.252 86.7102 213.17 86.7102C213.088 86.7102 213.035 86.2707 213.058 85.7375C213.082 85.2042 213.17 84.7823 213.258 84.7881Z" fill="#EB996E"/>
<path d="M215.689 100.57L216.211 98.7766C216.235 98.6945 216.28 98.6201 216.341 98.5606C216.402 98.5011 216.478 98.4586 216.561 98.4373C216.644 98.416 216.731 98.4166 216.813 98.4391C216.896 98.4617 216.971 98.5052 217.031 98.5656L217.717 99.263L218.139 97.5694C218.164 97.4716 218.218 97.3838 218.294 97.3178C218.371 97.2519 218.466 97.211 218.566 97.2008C218.667 97.1905 218.768 97.2114 218.856 97.2606C218.944 97.3098 219.015 97.3849 219.059 97.4757L220.014 99.4798L215.689 100.57Z" fill="white"/>
<path d="M220.026 100.247C219.37 100.564 218.674 100.789 217.957 100.915C217.264 101.142 216.542 101.268 215.812 101.29C217.162 100.748 218.58 100.397 220.026 100.247Z" fill="white"/>
<path d="M185.176 90.2441C185.176 90.2441 184.959 90.4668 184.654 90.9415C184.245 91.6174 183.976 92.3687 183.863 93.1507C183.696 94.315 183.661 95.4945 183.758 96.6667C183.822 97.9969 183.928 99.4502 184.092 100.974C184.369 103.576 184.782 106.162 185.328 108.721C185.533 109.705 185.721 110.479 185.85 111.065C185.908 111.311 185.961 111.516 186.002 111.692C186.043 111.868 186.049 111.914 186.049 111.914C186.049 111.914 186.02 111.844 185.979 111.703C185.938 111.563 185.873 111.317 185.809 111.076C185.662 110.531 185.463 109.746 185.223 108.762C184.653 106.204 184.229 103.615 183.951 101.009C183.787 99.4854 183.687 98.0262 183.629 96.696C183.54 95.5229 183.583 94.3435 183.758 93.18C183.884 92.3878 184.171 91.6299 184.602 90.9532C184.76 90.6921 184.953 90.4536 185.176 90.2441Z" fill="white"/>
<path d="M197.511 82.2628L197.376 82.3331L196.99 82.5207C196.656 82.6789 196.169 82.9133 195.589 83.2356C194.077 84.079 192.608 84.9983 191.188 85.9898C189.512 87.1618 188.03 88.2283 186.945 89.0018L185.662 89.9101L185.305 90.1504C185.265 90.1822 185.222 90.2098 185.176 90.2324C185.209 90.1931 185.249 90.1594 185.293 90.1328L185.633 89.875L186.893 88.9315C187.965 88.1404 189.442 87.0387 191.118 85.8902C192.54 84.8944 194.019 83.9826 195.548 83.1594C196.134 82.8488 196.626 82.6261 196.972 82.4796L197.365 82.3156C197.482 82.2745 197.482 82.257 197.511 82.2628Z" fill="white"/>
<path d="M225.457 86.0777C225.42 86.0573 225.387 86.0316 225.358 86.0015L225.094 85.7729C224.767 85.4973 224.425 85.2409 224.068 85.0053C222.879 84.2468 221.617 83.6088 220.3 83.1008C218.988 82.581 217.648 82.135 216.286 81.7647C215.759 81.6182 215.337 81.5127 215.038 81.4424L214.704 81.3545C214.663 81.3461 214.624 81.3323 214.587 81.3135H214.71L215.05 81.3779C215.349 81.4365 215.776 81.5303 216.304 81.6651C217.679 82.0121 219.029 82.4487 220.347 82.9719C221.671 83.4798 222.935 84.1322 224.115 84.9174C224.607 85.2501 225.057 85.6395 225.457 86.0777Z" fill="white"/>
<path d="M197.675 130.807C197.595 130.793 197.518 130.767 197.446 130.73C197.243 130.641 197.047 130.535 196.86 130.414C196.545 130.225 196.269 129.975 196.05 129.68C195.831 129.384 195.672 129.048 195.583 128.691C195.422 127.97 195.502 127.217 195.811 126.546C195.901 126.338 196.015 126.141 196.151 125.96C196.245 125.837 196.31 125.779 196.315 125.785C196.156 126.035 196.013 126.295 195.888 126.564C195.615 127.222 195.552 127.949 195.706 128.644C195.874 129.331 196.292 129.931 196.878 130.326C197.364 130.678 197.687 130.783 197.675 130.807Z" fill="white"/>
<path d="M195.812 124.461C195.936 124.694 196.029 124.942 196.087 125.199C196.179 125.446 196.234 125.704 196.251 125.967C196.118 125.74 196.023 125.492 195.97 125.234C195.874 124.987 195.82 124.726 195.812 124.461Z" fill="white"/>
<path d="M203.734 255.847L221.607 255.759L221.285 193.966L221.115 131.106L196.895 130.795L192.541 138.999C190.76 142.297 189.624 145.905 189.195 149.629C188.902 152.477 191.035 161.736 191.774 164.08L198.437 185.211L203.734 255.847Z" fill="#263238"/>
<path d="M226.36 131.182L246.003 184.724C247.167 188.174 247.553 191.839 247.135 195.455C246.717 199.072 245.504 202.552 243.583 205.645L220.776 250.181L207.954 234.136L227.034 194.288L210.216 167.01L213.046 131.264L220.969 131.135L226.36 131.182Z" fill="#263238"/>
<path d="M219.486 149.119C219.486 149.119 219.486 149.213 219.486 149.395C219.486 149.576 219.516 149.858 219.539 150.203C219.58 150.924 219.633 151.961 219.703 153.303C219.838 156.016 220.025 159.913 220.289 164.724C220.553 169.535 220.776 175.272 221.069 181.66C221.209 184.848 221.362 188.194 221.514 191.663C221.625 193.421 221.578 195.179 221.596 196.937C221.614 198.695 221.596 200.547 221.596 202.387C221.596 217.113 221.643 230.444 221.66 240.107C221.66 244.924 221.66 248.827 221.66 251.54C221.66 252.882 221.66 253.925 221.66 254.652C221.66 254.992 221.66 255.238 221.66 255.461C221.66 255.683 221.66 255.736 221.66 255.736C221.66 255.736 221.66 255.642 221.66 255.461V254.652C221.66 253.925 221.66 252.894 221.625 251.54C221.625 248.827 221.578 244.93 221.543 240.113C221.502 230.45 221.449 217.119 221.391 202.392C221.391 200.552 221.391 198.736 221.391 196.943C221.391 195.149 221.426 193.38 221.315 191.669C221.168 188.205 221.022 184.859 220.887 181.671C220.617 175.296 220.371 169.559 220.172 164.73C219.973 159.902 219.826 156.022 219.715 153.309C219.668 151.973 219.633 150.93 219.609 150.203C219.609 149.858 219.609 149.617 219.609 149.395C219.609 149.172 219.486 149.119 219.486 149.119Z" fill="#455A64"/>
<path d="M219.035 132.236C219.104 132.425 219.145 132.622 219.158 132.822C219.223 133.197 219.293 133.742 219.375 134.422C219.527 135.776 219.692 137.657 219.785 139.737C219.879 141.817 219.885 143.704 219.856 145.07C219.856 145.749 219.815 146.306 219.785 146.687C219.791 146.885 219.768 147.082 219.715 147.273C219.641 146.541 219.616 145.805 219.639 145.07C219.639 143.704 219.574 141.829 219.481 139.749C219.387 137.669 219.258 135.799 219.158 134.475C219.075 133.732 219.034 132.984 219.035 132.236Z" fill="#455A64"/>
<path d="M215.097 133.443C215.126 133.485 214.792 133.637 214.699 134.112C214.672 134.24 214.68 134.374 214.72 134.499C214.76 134.624 214.831 134.737 214.927 134.826C215.043 134.934 215.188 135.006 215.343 135.035C215.499 135.063 215.66 135.045 215.806 134.985C215.947 134.912 216.064 134.802 216.145 134.666C216.225 134.531 216.267 134.375 216.263 134.217C216.258 134.086 216.219 133.958 216.15 133.846C216.081 133.735 215.985 133.642 215.871 133.578C215.632 133.463 215.366 133.416 215.103 133.443C215.103 133.443 215.162 133.367 215.314 133.32C215.534 133.267 215.765 133.29 215.97 133.385C216.134 133.453 216.275 133.565 216.379 133.709C216.482 133.853 216.544 134.023 216.556 134.199C216.579 134.418 216.534 134.638 216.425 134.828C216.317 135.019 216.152 135.171 215.952 135.263C215.753 135.355 215.53 135.382 215.315 135.34C215.099 135.299 214.902 135.191 214.751 135.032C214.627 134.908 214.538 134.752 214.496 134.582C214.454 134.411 214.459 134.232 214.511 134.065C214.57 133.845 214.702 133.653 214.886 133.52C215.003 133.438 215.091 133.426 215.097 133.443Z" fill="#455A64"/>
<path d="M205.722 132.383C205.808 132.567 205.862 132.766 205.88 132.969C205.974 133.495 205.992 134.032 205.933 134.563C205.848 135.353 205.62 136.122 205.259 136.831C204.822 137.712 204.176 138.472 203.377 139.046C202.578 139.619 201.651 139.987 200.676 140.118C199.896 140.234 199.101 140.205 198.332 140.03C197.812 139.917 197.311 139.73 196.844 139.473C196.667 139.39 196.505 139.279 196.363 139.145C197.011 139.437 197.686 139.662 198.379 139.819C199.213 139.992 200.073 139.991 200.906 139.815C201.739 139.639 202.526 139.292 203.218 138.797C203.91 138.301 204.492 137.668 204.927 136.936C205.362 136.204 205.641 135.39 205.745 134.545C205.814 133.826 205.806 133.101 205.722 132.383Z" fill="#455A64"/>
<path d="M228.715 137.516C228.333 137.56 227.946 137.514 227.584 137.381C226.699 137.103 225.904 136.593 225.281 135.905C224.653 135.22 224.222 134.377 224.033 133.467C223.941 133.096 223.941 132.707 224.033 132.336C224.086 132.336 224.092 132.764 224.267 133.42C224.505 134.268 224.937 135.049 225.529 135.701C226.121 136.353 226.857 136.858 227.678 137.176C228.287 137.417 228.721 137.458 228.715 137.516Z" fill="#455A64"/>
<path d="M235.695 195.237C235.401 195.573 235.05 195.852 234.658 196.064C234.246 196.325 233.798 196.522 233.328 196.65C232.736 196.807 232.111 196.79 231.529 196.603C230.505 196.217 229.628 195.52 229.021 194.61C228.742 194.269 228.511 193.89 228.335 193.485C228.651 193.787 228.938 194.119 229.191 194.476C229.813 195.301 230.653 195.936 231.617 196.31C232.108 196.441 232.622 196.471 233.126 196.397C233.629 196.324 234.113 196.149 234.547 195.882C234.917 195.645 235.3 195.43 235.695 195.237Z" fill="#455A64"/>
<path d="M231.218 198.654C230.526 197.937 229.907 197.151 229.372 196.31C228.756 195.526 228.218 194.684 227.767 193.796C228.464 194.511 229.084 195.296 229.618 196.14C230.239 196.919 230.776 197.761 231.218 198.654Z" fill="#455A64"/>
<path d="M201.192 151.188C201.109 151.218 200.904 150.884 200.723 150.432C200.541 149.981 200.465 149.6 200.541 149.565C200.617 149.53 200.828 149.87 201.004 150.321C201.18 150.772 201.268 151.188 201.192 151.188Z" fill="#FAFAFA"/>
<path d="M212.536 152.817C212.448 152.817 212.384 152.529 212.384 152.172C212.384 151.814 212.448 151.521 212.536 151.521C212.624 151.521 212.689 151.814 212.689 152.172C212.689 152.529 212.618 152.817 212.536 152.817Z" fill="#FAFAFA"/>
<path d="M207.872 158.982C207.79 158.982 207.696 158.63 207.667 158.179C207.638 157.728 207.667 157.364 207.761 157.358C207.855 157.353 207.943 157.71 207.972 158.161C208.001 158.612 207.954 158.976 207.872 158.982Z" fill="#FAFAFA"/>
<path d="M199.352 163.494C199.281 163.547 199.041 163.33 198.725 163.107C198.408 162.885 198.139 162.715 198.139 162.633C198.139 162.551 198.525 162.597 198.883 162.855C199.24 163.113 199.422 163.494 199.352 163.494Z" fill="#FAFAFA"/>
<path d="M214.37 169.242C214.3 169.196 214.37 168.944 214.57 168.656C214.769 168.369 214.95 168.205 215.021 168.252C215.091 168.299 215.021 168.557 214.822 168.838C214.622 169.119 214.441 169.289 214.37 169.242Z" fill="#FAFAFA"/>
<path d="M205.1 170.865C205.018 170.865 204.947 170.379 204.947 169.787C204.947 169.195 205.018 168.703 205.1 168.703C205.182 168.703 205.252 169.189 205.252 169.787C205.252 170.385 205.164 170.865 205.1 170.865Z" fill="#FAFAFA"/>
<path d="M202.064 177.441C202.017 177.506 201.713 177.371 201.385 177.13C201.056 176.89 200.799 176.644 200.875 176.574C200.951 176.503 201.232 176.644 201.56 176.884C201.889 177.125 202.117 177.371 202.064 177.441Z" fill="#FAFAFA"/>
<path d="M211.452 179.726C211.488 179.803 211.3 179.961 211.031 180.084C210.761 180.207 210.515 180.236 210.48 180.16C210.445 180.084 210.638 179.926 210.908 179.803C211.177 179.68 211.423 179.65 211.452 179.726Z" fill="#FAFAFA"/>
<path d="M205.1 190.449C205.029 190.485 204.724 190.033 204.426 189.436C204.127 188.838 203.945 188.322 204.021 188.264C204.097 188.205 204.402 188.68 204.695 189.277C204.988 189.875 205.152 190.385 205.1 190.449Z" fill="#FAFAFA"/>
<path d="M215.455 189.454C215.379 189.413 215.514 189.02 215.748 188.569C215.982 188.118 216.246 187.79 216.334 187.831C216.422 187.872 216.275 188.264 216.035 188.715C215.795 189.167 215.525 189.495 215.455 189.454Z" fill="#FAFAFA"/>
<path d="M210.913 198.53C210.826 198.53 210.837 198.056 210.743 197.505C210.65 196.954 210.509 196.515 210.591 196.473C210.673 196.432 210.954 196.849 211.048 197.458C211.142 198.067 210.995 198.548 210.913 198.53Z" fill="#FAFAFA"/>
<path d="M206.05 203.718C205.991 203.776 205.698 203.553 205.399 203.225C205.1 202.897 204.907 202.587 204.971 202.528C205.036 202.469 205.323 202.692 205.622 203.02C205.921 203.348 206.114 203.659 206.05 203.718Z" fill="#FAFAFA"/>
<path d="M217.851 205.686C217.793 205.628 218.01 205.311 218.338 204.977C218.666 204.643 218.971 204.427 219.035 204.485C219.1 204.544 218.877 204.866 218.555 205.194C218.232 205.522 217.916 205.745 217.851 205.686Z" fill="#FAFAFA"/>
<path d="M211.065 213.451C210.983 213.451 210.983 212.988 211.065 212.449C211.147 211.909 211.276 211.488 211.364 211.499C211.452 211.511 211.446 211.956 211.364 212.495C211.282 213.035 211.147 213.462 211.065 213.451Z" fill="#FAFAFA"/>
<path d="M206.501 217.219C206.424 217.26 206.167 216.955 205.915 216.539C205.663 216.123 205.534 215.754 205.604 215.713C205.674 215.672 205.932 215.971 206.19 216.387C206.448 216.803 206.571 217.172 206.501 217.219Z" fill="#FAFAFA"/>
<path d="M217.499 221.971C217.552 222.041 217.253 222.34 216.831 222.639C216.409 222.938 216.04 223.125 215.987 223.055C215.935 222.985 216.239 222.686 216.655 222.387C217.072 222.088 217.452 221.907 217.499 221.971Z" fill="#FAFAFA"/>
<path d="M208.335 228.141C208.253 228.112 208.335 227.643 208.411 227.057C208.487 226.471 208.44 225.99 208.528 225.979C208.616 225.967 208.769 226.459 208.71 227.086C208.651 227.713 208.411 228.176 208.335 228.141Z" fill="#FAFAFA"/>
<path d="M211.998 237.002C211.927 237.054 211.681 236.855 211.441 236.556C211.201 236.258 211.066 235.97 211.13 235.918C211.195 235.865 211.441 236.064 211.681 236.363C211.921 236.662 212.062 236.949 211.998 237.002Z" fill="#FAFAFA"/>
<path d="M207.995 242.944C207.925 242.991 207.603 242.645 207.275 242.165C206.946 241.684 206.741 241.262 206.806 241.215C206.87 241.168 207.198 241.514 207.527 241.995C207.855 242.475 208.066 242.897 207.995 242.944Z" fill="#FAFAFA"/>
<path d="M219.018 235.484C218.942 235.454 218.948 235.238 219.018 235.003C219.088 234.769 219.246 234.593 219.328 234.622C219.411 234.652 219.399 234.868 219.328 235.109C219.258 235.349 219.1 235.519 219.018 235.484Z" fill="#FAFAFA"/>
<path d="M214.154 249.636C214.078 249.595 214.224 249.179 214.341 248.657C214.459 248.136 214.5 247.696 214.587 247.69C214.675 247.685 214.763 248.159 214.64 248.722C214.517 249.284 214.224 249.683 214.154 249.636Z" fill="#FAFAFA"/>
<path d="M217.318 159.075C217.242 159.11 217.055 158.876 216.902 158.547C216.75 158.219 216.685 157.926 216.762 157.891C216.838 157.856 217.025 158.09 217.178 158.419C217.33 158.747 217.406 159.04 217.318 159.075Z" fill="#FAFAFA"/>
<path d="M209.203 140.828C209.249 140.898 208.839 141.226 208.4 141.695C207.96 142.164 207.661 142.597 207.585 142.556C207.509 142.515 207.708 141.97 208.171 141.49C208.634 141.009 209.144 140.751 209.203 140.828Z" fill="#FAFAFA"/>
<path d="M216.427 140.639C216.339 140.639 216.204 140.305 215.999 139.907C215.794 139.508 215.607 139.18 215.671 139.122C215.736 139.063 216.052 139.321 216.257 139.766C216.462 140.211 216.503 140.592 216.427 140.639Z" fill="#FAFAFA"/>
<path d="M193.866 146.564C193.79 146.529 193.866 146.142 194.048 145.697C194.23 145.252 194.429 144.906 194.511 144.941C194.593 144.976 194.511 145.357 194.329 145.808C194.148 146.259 193.966 146.593 193.866 146.564Z" fill="#FAFAFA"/>
<path d="M194.598 155.413C194.54 155.477 194.206 155.29 193.848 154.991C193.491 154.692 193.262 154.405 193.298 154.335C193.333 154.264 193.69 154.458 194.048 154.757C194.405 155.056 194.651 155.349 194.598 155.413Z" fill="#FAFAFA"/>
<path d="M209.402 133.801C209.326 133.801 209.161 133.613 209.044 133.315C208.927 133.016 208.892 132.729 208.968 132.729C209.044 132.729 209.208 132.916 209.326 133.215C209.443 133.514 209.478 133.772 209.402 133.801Z" fill="#FAFAFA"/>
<path d="M223.577 138.126C223.495 138.126 223.501 137.757 223.577 137.341C223.653 136.925 223.805 136.596 223.888 136.614C223.97 136.632 223.964 136.989 223.888 137.405C223.811 137.821 223.659 138.143 223.577 138.126Z" fill="#FAFAFA"/>
<path d="M226.906 144.824C226.829 144.789 226.935 144.355 227.146 143.845C227.357 143.336 227.585 142.955 227.662 142.984C227.738 143.013 227.662 143.453 227.427 143.963C227.193 144.472 226.988 144.853 226.906 144.824Z" fill="#FAFAFA"/>
<path d="M224.531 150.227C224.455 150.262 224.174 149.858 223.904 149.325C223.635 148.791 223.482 148.317 223.559 148.281C223.635 148.246 223.91 148.651 224.18 149.184C224.449 149.717 224.608 150.186 224.531 150.227Z" fill="#FAFAFA"/>
<path d="M229.607 155.63C229.53 155.601 229.607 155.261 229.735 154.874C229.864 154.487 230.069 154.194 230.152 154.224C230.234 154.253 230.152 154.593 230.023 154.98C229.894 155.366 229.712 155.659 229.607 155.63Z" fill="#FAFAFA"/>
<path d="M225.071 160.921C225.001 160.968 224.819 160.81 224.673 160.576C224.526 160.341 224.456 160.107 224.532 160.06C224.608 160.013 224.778 160.171 224.931 160.412C225.083 160.652 225.141 160.88 225.071 160.921Z" fill="#FAFAFA"/>
<path d="M226.038 171.845C225.98 171.897 225.61 171.61 225.224 171.188C224.837 170.766 224.573 170.385 224.638 170.327C224.702 170.268 225.065 170.561 225.452 170.983C225.839 171.405 226.103 171.786 226.038 171.845Z" fill="#FAFAFA"/>
<path d="M231.986 165.568C231.922 165.62 231.6 165.327 231.271 164.906C230.943 164.484 230.732 164.109 230.797 164.056C230.861 164.003 231.183 164.302 231.512 164.718C231.84 165.134 232.057 165.521 231.986 165.568Z" fill="#FAFAFA"/>
<path d="M235.25 174.223C235.174 174.188 235.308 173.748 235.549 173.245C235.789 172.741 236.041 172.354 236.135 172.389C236.228 172.424 236.082 172.869 235.842 173.373C235.601 173.877 235.326 174.264 235.25 174.223Z" fill="#FAFAFA"/>
<path d="M228.311 181.349C228.235 181.39 227.965 181.068 227.59 180.722C227.215 180.376 226.87 180.136 226.905 180.048C226.94 179.96 227.385 180.118 227.796 180.499C228.206 180.88 228.382 181.308 228.311 181.349Z" fill="#FAFAFA"/>
<path d="M228.745 188.691C228.745 188.773 228.452 188.844 228.095 188.844C227.737 188.844 227.45 188.773 227.45 188.691C227.45 188.609 227.737 188.539 228.095 188.539C228.452 188.539 228.745 188.609 228.745 188.691Z" fill="#FAFAFA"/>
<path d="M235.877 186.641C235.801 186.6 235.953 186.231 236.064 185.774C236.176 185.317 236.223 184.918 236.311 184.912C236.399 184.906 236.492 185.334 236.363 185.844C236.234 186.354 235.941 186.688 235.877 186.641Z" fill="#FAFAFA"/>
<path d="M242.961 189.108C242.885 189.137 242.668 188.721 242.481 188.188C242.293 187.654 242.205 187.197 242.281 187.174C242.357 187.15 242.58 187.555 242.768 188.088C242.955 188.621 243.043 189.078 242.961 189.108Z" fill="#FAFAFA"/>
<path d="M241.831 199.188C241.76 199.146 241.942 198.654 242.235 198.086C242.528 197.517 242.821 197.09 242.909 197.131C242.997 197.172 242.803 197.664 242.504 198.226C242.206 198.789 241.907 199.24 241.831 199.188Z" fill="#FAFAFA"/>
<path d="M235.367 205.1C235.291 205.129 235.05 204.725 234.828 204.192C234.605 203.658 234.494 203.201 234.576 203.166C234.658 203.131 234.892 203.541 235.109 204.074C235.326 204.608 235.443 205.1 235.367 205.1Z" fill="#FAFAFA"/>
<path d="M228.206 207.391C228.206 207.473 227.96 207.543 227.661 207.543C227.362 207.543 227.122 207.473 227.122 207.391C227.122 207.309 227.368 207.238 227.661 207.238C227.954 207.238 228.206 207.309 228.206 207.391Z" fill="#FAFAFA"/>
<path d="M232.308 216.82C232.232 216.82 232.068 216.498 231.945 216.053C231.822 215.607 231.798 215.22 231.88 215.203C231.962 215.185 232.12 215.525 232.244 215.97C232.367 216.416 232.39 216.773 232.308 216.82Z" fill="#FAFAFA"/>
<path d="M227.122 213.656C227.052 213.615 227.122 213.339 227.316 213.04C227.509 212.742 227.703 212.536 227.773 212.577C227.843 212.619 227.773 212.9 227.579 213.199C227.386 213.498 227.199 213.703 227.122 213.656Z" fill="#FAFAFA"/>
<path d="M227.016 224.034C226.934 224.034 226.817 223.641 226.758 223.131C226.7 222.621 226.717 222.205 226.799 222.194C226.881 222.182 226.998 222.586 227.057 223.096C227.116 223.606 227.098 224.022 227.016 224.034Z" fill="#FAFAFA"/>
</svg>
