<svg width="20" height="20" viewBox="0 0 20 20" fill="none" xmlns="http://www.w3.org/2000/svg">
<path d="M6.34471 5.30997H6.56174V9.68497C6.56202 9.93353 6.66088 10.1718 6.83664 10.3476C7.01239 10.5233 7.25068 10.6222 7.49924 10.6225H13.7492C13.9978 10.6222 14.2361 10.5233 14.4118 10.3476C14.5876 10.1718 14.6865 9.93353 14.6867 9.68497V5.30997H14.9037C15.0223 5.30945 15.1378 5.27176 15.2338 5.20221C15.3299 5.13266 15.4017 5.03475 15.4392 4.92225C15.4767 4.80975 15.478 4.68832 15.4429 4.57505C15.4078 4.46177 15.3381 4.36234 15.2436 4.29075L10.9639 1.04915C10.866 0.975422 10.7468 0.935547 10.6242 0.935547C10.5016 0.935547 10.3824 0.975422 10.2845 1.04915L6.00502 4.29071C5.91046 4.3623 5.84073 4.46173 5.80562 4.57501C5.77052 4.6883 5.77182 4.80974 5.80933 4.92225C5.84684 5.03476 5.91869 5.13268 6.01475 5.20223C6.11081 5.27178 6.22627 5.30946 6.34486 5.30997H6.34471ZM14.0617 9.68497C14.0616 9.76783 14.0287 9.84726 13.9701 9.90584C13.9115 9.96443 13.8321 9.99738 13.7492 9.99747H12.1867V7.80997C12.1866 7.64427 12.1206 7.48541 12.0035 7.36824C11.8863 7.25107 11.7274 7.18516 11.5617 7.18497H9.67803C9.51233 7.18516 9.35346 7.25107 9.23629 7.36824C9.11912 7.48541 9.05321 7.64427 9.05303 7.80997V9.99747H7.4992C7.41635 9.99738 7.33692 9.96443 7.27833 9.90584C7.21975 9.84726 7.18679 9.76783 7.1867 9.68497V5.30997H14.0617L14.0617 9.68497Z" fill="white"/>
<path d="M18.5542 9.36216L18.437 9.24498C18.2721 9.07858 18.0507 8.98032 17.8167 8.96971C17.5827 8.9591 17.3532 9.03692 17.1739 9.18771L14.375 11.5201V12.8124C14.3747 13.0609 14.2758 13.2992 14.1001 13.475C13.9243 13.6507 13.686 13.7496 13.4375 13.7499H8.74996C8.66708 13.7499 8.5876 13.7169 8.52899 13.6583C8.47039 13.5997 8.43746 13.5202 8.43746 13.4374C8.43746 13.3545 8.47039 13.275 8.52899 13.2164C8.5876 13.1578 8.66708 13.1249 8.74996 13.1249H13.4375C13.5203 13.1248 13.5997 13.0918 13.6583 13.0332C13.7169 12.9746 13.7499 12.8952 13.75 12.8124V11.8451L7.87258 11.3109C7.6195 11.2877 7.36461 11.3268 7.13003 11.4245C6.89545 11.5223 6.68829 11.6758 6.52653 11.8718L1.00903 18.5508C0.956223 18.6147 0.930951 18.6969 0.938774 18.7795C0.946598 18.862 0.986877 18.938 1.05075 18.9908L6.24965 19.0624C6.30228 19.0624 6.35408 19.0492 6.40022 19.0239C6.44637 18.9986 6.48537 18.962 6.5136 18.9176L8.60246 15.6351L13.7316 15.9368C13.7787 15.9396 13.8259 15.9316 13.8695 15.9135C13.9132 15.8954 13.9521 15.8677 13.9835 15.8324L18.592 10.6479C18.7506 10.4691 18.8351 10.2365 18.8281 9.99756C18.821 9.75861 18.7231 9.53135 18.5542 9.36216Z" fill="white"/>
</svg>
