<svg width="20" height="20" viewBox="0 0 20 20" fill="none" xmlns="http://www.w3.org/2000/svg">
<path d="M17.5312 0H9.99997C8.63644 0 7.53125 1.10321 7.53125 2.46872V13.7656C7.53125 14.2448 8.08087 14.5251 8.46875 14.2343L10.8229 12.4687H17.5312C18.8948 12.4687 20 11.3655 20 10V2.46872C20 1.10519 18.8968 0 17.5312 0V0ZM13.7655 9.64447C13.4422 9.64447 13.1796 9.38202 13.1796 9.05853C13.1796 8.7352 13.4422 8.4726 13.7655 8.4726C14.089 8.4726 14.3515 8.7352 14.3515 9.05853C14.3515 9.38202 14.089 9.64447 13.7655 9.64447ZM14.3515 7.05322V7.17575C14.3515 7.49939 14.0892 7.76169 13.7655 7.76169C13.442 7.76169 13.1796 7.49939 13.1796 7.17575V6.54816C13.1796 6.22452 13.442 5.96222 13.7655 5.96222C14.3077 5.96222 14.7487 5.52124 14.7487 4.9791C14.7487 4.4371 14.3077 3.99612 13.7655 3.99612C13.2206 3.99612 12.7826 4.4368 12.7826 4.97849C12.7826 5.30212 12.5201 5.56488 12.1966 5.56488C11.873 5.56488 11.6107 5.30273 11.6107 4.97925V4.97849C11.6107 3.78677 12.5753 2.82425 13.7649 2.82425C14.9539 2.82425 15.9205 3.79089 15.9205 4.97925C15.9205 5.96436 15.256 6.79733 14.3515 7.05322Z" fill="white"/>
<path d="M6.49365 12.184C6.49365 13.7137 5.25357 14.9538 3.72388 14.9538C2.19418 14.9538 0.954102 13.7137 0.954102 12.184C0.954102 10.6541 2.19418 9.41406 3.72388 9.41406C5.25357 9.41406 6.49365 10.6541 6.49365 12.184Z" fill="white"/>
<path d="M3.72391 14.9531C1.66733 14.9531 0 16.6205 0 18.677V19.4139C0 19.7375 0.262299 19.9998 0.585938 19.9998H6.86203C7.18552 19.9998 7.44797 19.7375 7.44797 19.4139V18.677C7.44797 16.6205 5.78064 14.9531 3.72391 14.9531Z" fill="white"/>
</svg>
