<svg width="145" height="50" viewBox="0 0 145 50" fill="none" xmlns="http://www.w3.org/2000/svg">
<rect width="145" height="50" rx="5" fill="#B3404A"/>
<g clip-path="url(#clip0)">
<path d="M53.9696 16.3594C57.0238 16.3594 59.5 18.8356 59.5 21.8892C59.5 26.9365 49.4997 33.6401 49.4997 33.6401C49.4997 33.6401 39.5 27.1781 39.5 21.8892C39.5 18.0873 41.9762 16.3594 45.0298 16.3594C46.8692 16.3594 48.494 17.2614 49.4997 18.6426C50.5056 17.2614 52.1307 16.3594 53.9696 16.3594Z" fill="white"/>
</g>
<path d="M75.6797 27.8281C75.6797 28.8594 75.3073 29.6719 74.5625 30.2656C73.8229 30.8594 72.7917 31.1562 71.4688 31.1562C70.25 31.1562 69.1719 30.9271 68.2344 30.4688V28.2188C69.0052 28.5625 69.6562 28.8047 70.1875 28.9453C70.724 29.0859 71.2135 29.1562 71.6562 29.1562C72.1875 29.1562 72.5938 29.0547 72.875 28.8516C73.1615 28.6484 73.3047 28.3464 73.3047 27.9453C73.3047 27.7214 73.2422 27.5234 73.1172 27.3516C72.9922 27.1745 72.8073 27.0052 72.5625 26.8438C72.3229 26.6823 71.8307 26.4245 71.0859 26.0703C70.388 25.7422 69.8646 25.4271 69.5156 25.125C69.1667 24.8229 68.888 24.4714 68.6797 24.0703C68.4714 23.6693 68.3672 23.2005 68.3672 22.6641C68.3672 21.6536 68.7083 20.8594 69.3906 20.2812C70.0781 19.7031 71.026 19.4141 72.2344 19.4141C72.8281 19.4141 73.3932 19.4844 73.9297 19.625C74.4714 19.7656 75.0365 19.9635 75.625 20.2188L74.8438 22.1016C74.2344 21.8516 73.7292 21.6771 73.3281 21.5781C72.9323 21.4792 72.5417 21.4297 72.1562 21.4297C71.6979 21.4297 71.3464 21.5365 71.1016 21.75C70.8568 21.9635 70.7344 22.2422 70.7344 22.5859C70.7344 22.7995 70.7839 22.987 70.8828 23.1484C70.9818 23.3047 71.138 23.4583 71.3516 23.6094C71.5703 23.7552 72.0833 24.0208 72.8906 24.4062C73.9583 24.9167 74.6901 25.4297 75.0859 25.9453C75.4818 26.4557 75.6797 27.0833 75.6797 27.8281ZM83.1094 31L82.6484 29.8125H82.5859C82.1849 30.3177 81.7708 30.6693 81.3438 30.8672C80.9219 31.0599 80.3698 31.1562 79.6875 31.1562C78.849 31.1562 78.1875 30.9167 77.7031 30.4375C77.224 29.9583 76.9844 29.276 76.9844 28.3906C76.9844 27.4635 77.3073 26.7812 77.9531 26.3438C78.6042 25.901 79.5833 25.6562 80.8906 25.6094L82.4062 25.5625V25.1797C82.4062 24.2943 81.9531 23.8516 81.0469 23.8516C80.349 23.8516 79.5286 24.0625 78.5859 24.4844L77.7969 22.875C78.8021 22.349 79.9167 22.0859 81.1406 22.0859C82.3125 22.0859 83.2109 22.3411 83.8359 22.8516C84.4609 23.362 84.7734 24.138 84.7734 25.1797V31H83.1094ZM82.4062 26.9531L81.4844 26.9844C80.7917 27.0052 80.276 27.1302 79.9375 27.3594C79.599 27.5885 79.4297 27.9375 79.4297 28.4062C79.4297 29.0781 79.8151 29.4141 80.5859 29.4141C81.138 29.4141 81.5781 29.2552 81.9062 28.9375C82.2396 28.6198 82.4062 28.1979 82.4062 27.6719V26.9531ZM89.3125 31L85.9844 22.2656H88.4766L90.1641 27.2422C90.3516 27.8724 90.4688 28.4688 90.5156 29.0312H90.5625C90.5885 28.5312 90.7057 27.9349 90.9141 27.2422L92.5938 22.2656H95.0859L91.7578 31H89.3125ZM99.9609 23.7969C99.4557 23.7969 99.0599 23.9583 98.7734 24.2812C98.487 24.599 98.3229 25.0521 98.2812 25.6406H101.625C101.615 25.0521 101.461 24.599 101.164 24.2812C100.867 23.9583 100.466 23.7969 99.9609 23.7969ZM100.297 31.1562C98.8906 31.1562 97.7917 30.7682 97 29.9922C96.2083 29.2161 95.8125 28.1172 95.8125 26.6953C95.8125 25.2318 96.1771 24.1016 96.9062 23.3047C97.6406 22.5026 98.6536 22.1016 99.9453 22.1016C101.18 22.1016 102.141 22.4531 102.828 23.1562C103.516 23.8594 103.859 24.8307 103.859 26.0703V27.2266H98.2266C98.2526 27.9036 98.4531 28.4323 98.8281 28.8125C99.2031 29.1927 99.7292 29.3828 100.406 29.3828C100.932 29.3828 101.43 29.3281 101.898 29.2188C102.367 29.1094 102.857 28.9349 103.367 28.6953V30.5391C102.951 30.7474 102.505 30.901 102.031 31C101.557 31.1042 100.979 31.1562 100.297 31.1562Z" fill="white"/>
<defs>
<clipPath id="clip0">
<rect width="20" height="20" fill="white" transform="translate(39.5 15)"/>
</clipPath>
</defs>
</svg>
