<svg width="327" height="162" viewBox="0 0 327 162" fill="none" xmlns="http://www.w3.org/2000/svg">
<g filter="url(#filter0_d)">
<rect x="4" y="4" width="319" height="154" rx="5" fill="white"/>
</g>
<path d="M29.1543 27.5107C29.1543 28.6533 28.7412 29.5498 27.915 30.2002C27.0889 30.8506 25.9492 31.1758 24.4961 31.1758C23.043 31.1758 21.8535 30.9502 20.9277 30.499V28.5127C21.5137 28.7881 22.1348 29.0049 22.791 29.1631C23.4531 29.3213 24.0684 29.4004 24.6367 29.4004C25.4688 29.4004 26.0811 29.2422 26.4736 28.9258C26.8721 28.6094 27.0713 28.1846 27.0713 27.6514C27.0713 27.1709 26.8896 26.7637 26.5264 26.4297C26.1631 26.0957 25.4131 25.7002 24.2764 25.2432C23.1045 24.7686 22.2783 24.2266 21.7979 23.6172C21.3174 23.0078 21.0771 22.2754 21.0771 21.4199C21.0771 20.3477 21.458 19.5039 22.2197 18.8887C22.9814 18.2734 24.0039 17.9658 25.2871 17.9658C26.5176 17.9658 27.7422 18.2354 28.9609 18.7744L28.293 20.4883C27.1504 20.0078 26.1309 19.7676 25.2344 19.7676C24.5547 19.7676 24.0391 19.917 23.6875 20.2158C23.3359 20.5088 23.1602 20.8984 23.1602 21.3848C23.1602 21.7188 23.2305 22.0059 23.3711 22.2461C23.5117 22.4805 23.7432 22.7031 24.0654 22.9141C24.3877 23.125 24.9678 23.4033 25.8057 23.749C26.749 24.1416 27.4404 24.5078 27.8799 24.8477C28.3193 25.1875 28.6416 25.5713 28.8467 25.999C29.0518 26.4268 29.1543 26.9307 29.1543 27.5107ZM35.667 31.1758C34.1553 31.1758 32.9717 30.7363 32.1162 29.8574C31.2666 28.9727 30.8418 27.7568 30.8418 26.21C30.8418 24.6221 31.2373 23.374 32.0283 22.4658C32.8193 21.5576 33.9062 21.1035 35.2891 21.1035C36.5723 21.1035 37.5859 21.4932 38.3301 22.2725C39.0742 23.0518 39.4463 24.124 39.4463 25.4893V26.6055H32.9688C32.998 27.5488 33.2529 28.2754 33.7334 28.7852C34.2139 29.2891 34.8906 29.541 35.7637 29.541C36.3379 29.541 36.8711 29.4883 37.3633 29.3828C37.8613 29.2715 38.3945 29.0898 38.9629 28.8379V30.5166C38.459 30.7568 37.9492 30.9268 37.4336 31.0264C36.918 31.126 36.3291 31.1758 35.667 31.1758ZM35.2891 22.668C34.6328 22.668 34.1055 22.876 33.707 23.292C33.3145 23.708 33.0801 24.3145 33.0039 25.1113H37.416C37.4043 24.3086 37.2109 23.7021 36.8359 23.292C36.4609 22.876 35.9453 22.668 35.2891 22.668ZM47.875 31L47.4619 29.6465H47.3916C46.9229 30.2383 46.4512 30.6426 45.9766 30.8594C45.502 31.0703 44.8926 31.1758 44.1484 31.1758C43.1934 31.1758 42.4463 30.918 41.9072 30.4023C41.374 29.8867 41.1074 29.1572 41.1074 28.2139C41.1074 27.2119 41.4795 26.4561 42.2236 25.9463C42.9678 25.4365 44.1016 25.1582 45.625 25.1113L47.3037 25.0586V24.54C47.3037 23.9189 47.1572 23.4561 46.8643 23.1514C46.5771 22.8408 46.1289 22.6855 45.5195 22.6855C45.0215 22.6855 44.5439 22.7588 44.0869 22.9053C43.6299 23.0518 43.1904 23.2246 42.7686 23.4238L42.1006 21.9473C42.6279 21.6719 43.2051 21.4639 43.832 21.3232C44.459 21.1768 45.0508 21.1035 45.6074 21.1035C46.8438 21.1035 47.7754 21.373 48.4023 21.9121C49.0352 22.4512 49.3516 23.2979 49.3516 24.4521V31H47.875ZM44.7988 29.5938C45.5488 29.5938 46.1494 29.3857 46.6006 28.9697C47.0576 28.5479 47.2861 27.959 47.2861 27.2031V26.3594L46.0381 26.4121C45.0654 26.4473 44.3564 26.6113 43.9111 26.9043C43.4717 27.1914 43.252 27.6338 43.252 28.2314C43.252 28.665 43.3809 29.002 43.6387 29.2422C43.8965 29.4766 44.2832 29.5938 44.7988 29.5938ZM57.165 21.1035C57.5811 21.1035 57.9238 21.1328 58.1934 21.1914L57.9912 23.1162C57.6982 23.0459 57.3936 23.0107 57.0771 23.0107C56.251 23.0107 55.5801 23.2803 55.0645 23.8193C54.5547 24.3584 54.2998 25.0586 54.2998 25.9199V31H52.2344V21.2793H53.8516L54.124 22.9932H54.2295C54.5518 22.4131 54.9707 21.9531 55.4863 21.6133C56.0078 21.2734 56.5674 21.1035 57.165 21.1035ZM63.9238 31.1758C62.4531 31.1758 61.334 30.748 60.5664 29.8926C59.8047 29.0312 59.4238 27.7979 59.4238 26.1924C59.4238 24.5576 59.8223 23.3008 60.6191 22.4219C61.4219 21.543 62.5791 21.1035 64.0908 21.1035C65.1162 21.1035 66.0391 21.2939 66.8594 21.6748L66.2354 23.3359C65.3623 22.9961 64.6416 22.8262 64.0732 22.8262C62.3916 22.8262 61.5508 23.9424 61.5508 26.1748C61.5508 27.2646 61.7588 28.085 62.1748 28.6357C62.5967 29.1807 63.2119 29.4531 64.0205 29.4531C64.9404 29.4531 65.8105 29.2246 66.6309 28.7676V30.5693C66.2617 30.7861 65.8662 30.9414 65.4443 31.0352C65.0283 31.1289 64.5215 31.1758 63.9238 31.1758ZM77.4678 31H75.3936V25.0234C75.3936 24.2734 75.2412 23.7139 74.9365 23.3447C74.6377 22.9756 74.1602 22.791 73.5039 22.791C72.6367 22.791 71.998 23.0518 71.5879 23.5732C71.1836 24.0889 70.9814 24.9561 70.9814 26.1748V31H68.916V17.3242H70.9814V20.7959C70.9814 21.3525 70.9463 21.9473 70.876 22.5801H71.0078C71.2891 22.1113 71.6787 21.748 72.1768 21.4902C72.6807 21.2324 73.2666 21.1035 73.9346 21.1035C76.29 21.1035 77.4678 22.29 77.4678 24.6631V31ZM93.7451 22.0352C93.7451 23.377 93.3057 24.4053 92.4268 25.1201C91.5479 25.835 90.2969 26.1924 88.6738 26.1924H87.3379V31H85.2373V18.1504H88.9375C90.543 18.1504 91.7441 18.4785 92.541 19.1348C93.3438 19.791 93.7451 20.7578 93.7451 22.0352ZM87.3379 24.4258H88.4541C89.5322 24.4258 90.3232 24.2383 90.8271 23.8633C91.3311 23.4883 91.583 22.9023 91.583 22.1055C91.583 21.3672 91.3574 20.8164 90.9062 20.4531C90.4551 20.0898 89.752 19.9082 88.7969 19.9082H87.3379V24.4258ZM101.022 21.1035C101.438 21.1035 101.781 21.1328 102.051 21.1914L101.849 23.1162C101.556 23.0459 101.251 23.0107 100.935 23.0107C100.108 23.0107 99.4375 23.2803 98.9219 23.8193C98.4121 24.3584 98.1572 25.0586 98.1572 25.9199V31H96.0918V21.2793H97.709L97.9814 22.9932H98.0869C98.4092 22.4131 98.8281 21.9531 99.3438 21.6133C99.8652 21.2734 100.425 21.1035 101.022 21.1035ZM112.483 26.1221C112.483 27.71 112.076 28.9492 111.262 29.8398C110.447 30.7305 109.313 31.1758 107.86 31.1758C106.952 31.1758 106.149 30.9707 105.452 30.5605C104.755 30.1504 104.219 29.5615 103.844 28.7939C103.469 28.0264 103.281 27.1357 103.281 26.1221C103.281 24.5459 103.686 23.3154 104.494 22.4307C105.303 21.5459 106.442 21.1035 107.913 21.1035C109.319 21.1035 110.433 21.5576 111.253 22.4658C112.073 23.3682 112.483 24.5869 112.483 26.1221ZM105.408 26.1221C105.408 28.3662 106.237 29.4883 107.896 29.4883C109.536 29.4883 110.356 28.3662 110.356 26.1221C110.356 23.9014 109.53 22.791 107.878 22.791C107.011 22.791 106.381 23.0781 105.988 23.6523C105.602 24.2266 105.408 25.0498 105.408 26.1221ZM119.796 31.1758C118.565 31.1758 117.61 30.7334 116.931 29.8486H116.808C116.89 30.6689 116.931 31.167 116.931 31.3428V35.3242H114.865V21.2793H116.535C116.582 21.4609 116.679 21.8945 116.825 22.5801H116.931C117.575 21.5957 118.542 21.1035 119.831 21.1035C121.044 21.1035 121.987 21.543 122.661 22.4219C123.341 23.3008 123.681 24.5342 123.681 26.1221C123.681 27.71 123.335 28.9492 122.644 29.8398C121.958 30.7305 121.009 31.1758 119.796 31.1758ZM119.295 22.791C118.475 22.791 117.874 23.0312 117.493 23.5117C117.118 23.9922 116.931 24.7598 116.931 25.8145V26.1221C116.931 27.3057 117.118 28.1641 117.493 28.6973C117.868 29.2246 118.48 29.4883 119.33 29.4883C120.045 29.4883 120.596 29.1953 120.982 28.6094C121.369 28.0234 121.562 27.1885 121.562 26.1045C121.562 25.0146 121.369 24.1914 120.982 23.6348C120.602 23.0723 120.039 22.791 119.295 22.791ZM130.325 31.1758C128.813 31.1758 127.63 30.7363 126.774 29.8574C125.925 28.9727 125.5 27.7568 125.5 26.21C125.5 24.6221 125.896 23.374 126.687 22.4658C127.478 21.5576 128.564 21.1035 129.947 21.1035C131.23 21.1035 132.244 21.4932 132.988 22.2725C133.732 23.0518 134.104 24.124 134.104 25.4893V26.6055H127.627C127.656 27.5488 127.911 28.2754 128.392 28.7852C128.872 29.2891 129.549 29.541 130.422 29.541C130.996 29.541 131.529 29.4883 132.021 29.3828C132.52 29.2715 133.053 29.0898 133.621 28.8379V30.5166C133.117 30.7568 132.607 30.9268 132.092 31.0264C131.576 31.126 130.987 31.1758 130.325 31.1758ZM129.947 22.668C129.291 22.668 128.764 22.876 128.365 23.292C127.973 23.708 127.738 24.3145 127.662 25.1113H132.074C132.062 24.3086 131.869 23.7021 131.494 23.292C131.119 22.876 130.604 22.668 129.947 22.668ZM141.382 21.1035C141.798 21.1035 142.141 21.1328 142.41 21.1914L142.208 23.1162C141.915 23.0459 141.61 23.0107 141.294 23.0107C140.468 23.0107 139.797 23.2803 139.281 23.8193C138.771 24.3584 138.517 25.0586 138.517 25.9199V31H136.451V21.2793H138.068L138.341 22.9932H138.446C138.769 22.4131 139.188 21.9531 139.703 21.6133C140.225 21.2734 140.784 21.1035 141.382 21.1035ZM147.842 29.5059C148.346 29.5059 148.85 29.4268 149.354 29.2686V30.8242C149.125 30.9238 148.829 31.0059 148.466 31.0703C148.108 31.1406 147.736 31.1758 147.35 31.1758C145.393 31.1758 144.414 30.1445 144.414 28.082V22.8438H143.087V21.9297L144.511 21.1738L145.214 19.1172H146.488V21.2793H149.257V22.8438H146.488V28.0469C146.488 28.5449 146.611 28.9141 146.857 29.1543C147.109 29.3887 147.438 29.5059 147.842 29.5059ZM149.828 21.2793H152.078L154.056 26.79C154.354 27.5752 154.554 28.3135 154.653 29.0049H154.724C154.776 28.6826 154.873 28.293 155.014 27.8359C155.154 27.373 155.898 25.1875 157.246 21.2793H159.479L155.321 32.292C154.565 34.3135 153.306 35.3242 151.542 35.3242C151.085 35.3242 150.64 35.2744 150.206 35.1748V33.54C150.517 33.6104 150.871 33.6455 151.27 33.6455C152.266 33.6455 152.966 33.0684 153.37 31.9141L153.73 31L149.828 21.2793ZM170.597 21.1035C171.81 21.1035 172.753 21.543 173.427 22.4219C174.106 23.3008 174.446 24.5342 174.446 26.1221C174.446 27.7158 174.104 28.958 173.418 29.8486C172.732 30.7334 171.78 31.1758 170.562 31.1758C169.331 31.1758 168.376 30.7334 167.696 29.8486H167.556L167.178 31H165.631V17.3242H167.696V20.5762C167.696 20.8164 167.685 21.1738 167.661 21.6484C167.638 22.123 167.62 22.4248 167.608 22.5537H167.696C168.353 21.5869 169.319 21.1035 170.597 21.1035ZM170.061 22.791C169.229 22.791 168.628 23.0371 168.259 23.5293C167.896 24.0156 167.708 24.833 167.696 25.9814V26.1221C167.696 27.3057 167.884 28.1641 168.259 28.6973C168.634 29.2246 169.246 29.4883 170.096 29.4883C170.828 29.4883 171.382 29.1982 171.757 28.6182C172.138 28.0381 172.328 27.2002 172.328 26.1045C172.328 23.8955 171.572 22.791 170.061 22.791ZM175.369 21.2793H177.619L179.597 26.79C179.896 27.5752 180.095 28.3135 180.194 29.0049H180.265C180.317 28.6826 180.414 28.293 180.555 27.8359C180.695 27.373 181.439 25.1875 182.787 21.2793H185.02L180.862 32.292C180.106 34.3135 178.847 35.3242 177.083 35.3242C176.626 35.3242 176.181 35.2744 175.747 35.1748V33.54C176.058 33.6104 176.412 33.6455 176.811 33.6455C177.807 33.6455 178.507 33.0684 178.911 31.9141L179.271 31L175.369 21.2793ZM186.188 29.9014C186.188 29.4736 186.3 29.1455 186.522 28.917C186.745 28.6885 187.067 28.5742 187.489 28.5742C187.917 28.5742 188.242 28.6943 188.465 28.9346C188.688 29.1689 188.799 29.4912 188.799 29.9014C188.799 30.3174 188.685 30.6484 188.456 30.8945C188.233 31.1348 187.911 31.2549 187.489 31.2549C187.067 31.2549 186.745 31.1348 186.522 30.8945C186.3 30.6543 186.188 30.3232 186.188 29.9014ZM186.188 22.3955C186.188 21.5107 186.622 21.0684 187.489 21.0684C187.929 21.0684 188.257 21.1855 188.474 21.4199C188.69 21.6543 188.799 21.9795 188.799 22.3955C188.799 22.8115 188.685 23.1426 188.456 23.3887C188.233 23.6289 187.911 23.749 187.489 23.749C187.067 23.749 186.745 23.6289 186.522 23.3887C186.3 23.1484 186.188 22.8174 186.188 22.3955Z" fill="#1F1F1F"/>
<path d="M31.5576 73.4258C31.5576 72.7168 31.7217 72.1777 32.0498 71.8086C32.3838 71.4395 32.8672 71.2549 33.5 71.2549C34.1152 71.2549 34.5928 71.4365 34.9326 71.7998C35.2725 72.1631 35.4424 72.7051 35.4424 73.4258C35.4424 74.123 35.2725 74.6621 34.9326 75.043C34.5986 75.418 34.1211 75.6055 33.5 75.6055C32.873 75.6055 32.3926 75.415 32.0586 75.0342C31.7246 74.6475 31.5576 74.1113 31.5576 73.4258ZM56.9141 70.8945C56.9141 72.1953 56.4688 73.1973 55.5781 73.9004C54.6934 74.5977 53.4248 74.9463 51.7725 74.9463H50.2607V80H48.7666V67.1504H52.0977C55.3086 67.1504 56.9141 68.3984 56.9141 70.8945ZM50.2607 73.6631H51.6055C52.9297 73.6631 53.8877 73.4492 54.4795 73.0215C55.0713 72.5938 55.3672 71.9082 55.3672 70.9648C55.3672 70.1152 55.0889 69.4824 54.5322 69.0664C53.9756 68.6504 53.1084 68.4424 51.9307 68.4424H50.2607V73.6631ZM63.7871 70.1914C64.2148 70.1914 64.5986 70.2266 64.9385 70.2969L64.7363 71.6504C64.3379 71.5625 63.9863 71.5186 63.6816 71.5186C62.9023 71.5186 62.2344 71.835 61.6777 72.4678C61.127 73.1006 60.8516 73.8887 60.8516 74.832V80H59.3926V70.3672H60.5967L60.7637 72.1514H60.834C61.1914 71.5244 61.6221 71.041 62.126 70.7012C62.6299 70.3613 63.1836 70.1914 63.7871 70.1914ZM75.0547 75.1748C75.0547 76.7451 74.6592 77.9727 73.8682 78.8574C73.0771 79.7363 71.9844 80.1758 70.5898 80.1758C69.7285 80.1758 68.9639 79.9736 68.2959 79.5693C67.6279 79.165 67.1123 78.585 66.749 77.8291C66.3857 77.0732 66.2041 76.1885 66.2041 75.1748C66.2041 73.6045 66.5967 72.3828 67.3818 71.5098C68.167 70.6309 69.2568 70.1914 70.6514 70.1914C71.999 70.1914 73.0684 70.6396 73.8594 71.5361C74.6562 72.4326 75.0547 73.6455 75.0547 75.1748ZM67.7158 75.1748C67.7158 76.4053 67.9619 77.3428 68.4541 77.9873C68.9463 78.6318 69.6699 78.9541 70.625 78.9541C71.5801 78.9541 72.3037 78.6348 72.7959 77.9961C73.2939 77.3516 73.543 76.4111 73.543 75.1748C73.543 73.9502 73.2939 73.0215 72.7959 72.3887C72.3037 71.75 71.5742 71.4307 70.6074 71.4307C69.6523 71.4307 68.9316 71.7441 68.4453 72.3711C67.959 72.998 67.7158 73.9326 67.7158 75.1748ZM82.1035 80.1758C81.4766 80.1758 80.9023 80.0615 80.3809 79.833C79.8652 79.5986 79.4316 79.2412 79.0801 78.7607H78.9746C79.0449 79.3232 79.0801 79.8564 79.0801 80.3604V84.3242H77.6211V70.3672H78.8076L79.0098 71.6855H79.0801C79.4551 71.1582 79.8916 70.7773 80.3896 70.543C80.8877 70.3086 81.459 70.1914 82.1035 70.1914C83.3809 70.1914 84.3652 70.6279 85.0566 71.501C85.7539 72.374 86.1025 73.5986 86.1025 75.1748C86.1025 76.7568 85.748 77.9873 85.0391 78.8662C84.3359 79.7393 83.3574 80.1758 82.1035 80.1758ZM81.8926 71.4307C80.9082 71.4307 80.1963 71.7031 79.7568 72.248C79.3174 72.793 79.0918 73.6602 79.0801 74.8496V75.1748C79.0801 76.5283 79.3057 77.498 79.7568 78.084C80.208 78.6641 80.9316 78.9541 81.9277 78.9541C82.7598 78.9541 83.4102 78.6172 83.8789 77.9434C84.3535 77.2695 84.5908 76.3408 84.5908 75.1572C84.5908 73.9561 84.3535 73.0361 83.8789 72.3975C83.4102 71.7529 82.748 71.4307 81.8926 71.4307ZM92.7295 80.1758C91.3057 80.1758 90.1807 79.7422 89.3545 78.875C88.5342 78.0078 88.124 76.8037 88.124 75.2627C88.124 73.71 88.5049 72.4766 89.2666 71.5625C90.0342 70.6484 91.0625 70.1914 92.3516 70.1914C93.5586 70.1914 94.5137 70.5898 95.2168 71.3867C95.9199 72.1777 96.2715 73.2236 96.2715 74.5244V75.4473H89.6357C89.665 76.5781 89.9492 77.4365 90.4883 78.0225C91.0332 78.6084 91.7979 78.9014 92.7822 78.9014C93.8193 78.9014 94.8447 78.6846 95.8584 78.251V79.5518C95.3428 79.7744 94.8535 79.9326 94.3906 80.0264C93.9336 80.126 93.3799 80.1758 92.7295 80.1758ZM92.334 71.4131C91.5605 71.4131 90.9424 71.665 90.4795 72.1689C90.0225 72.6729 89.7529 73.3701 89.6709 74.2607H94.707C94.707 73.3408 94.502 72.6377 94.0918 72.1514C93.6816 71.6592 93.0957 71.4131 92.334 71.4131ZM103.162 70.1914C103.59 70.1914 103.974 70.2266 104.313 70.2969L104.111 71.6504C103.713 71.5625 103.361 71.5186 103.057 71.5186C102.277 71.5186 101.609 71.835 101.053 72.4678C100.502 73.1006 100.227 73.8887 100.227 74.832V80H98.7676V70.3672H99.9717L100.139 72.1514H100.209C100.566 71.5244 100.997 71.041 101.501 70.7012C102.005 70.3613 102.559 70.1914 103.162 70.1914ZM109.227 78.9717C109.484 78.9717 109.733 78.9541 109.974 78.9189C110.214 78.8779 110.404 78.8369 110.545 78.7959V79.9121C110.387 79.9883 110.152 80.0498 109.842 80.0967C109.537 80.1494 109.262 80.1758 109.016 80.1758C107.152 80.1758 106.221 79.1943 106.221 77.2314V71.501H104.841V70.7979L106.221 70.1914L106.836 68.1348H107.68V70.3672H110.475V71.501H107.68V77.1699C107.68 77.75 107.817 78.1953 108.093 78.5059C108.368 78.8164 108.746 78.9717 109.227 78.9717ZM110.949 70.3672H112.514L114.623 75.8604C115.086 77.1143 115.373 78.0195 115.484 78.5762H115.555C115.631 78.2773 115.789 77.7676 116.029 77.0469C116.275 76.3203 117.072 74.0938 118.42 70.3672H119.984L115.845 81.3359C115.435 82.4199 114.954 83.1875 114.403 83.6387C113.858 84.0957 113.188 84.3242 112.391 84.3242C111.945 84.3242 111.506 84.2744 111.072 84.1748V83.0059C111.395 83.0762 111.755 83.1113 112.153 83.1113C113.155 83.1113 113.87 82.5488 114.298 81.4238L114.834 80.0527L110.949 70.3672ZM129.336 78.9717C129.594 78.9717 129.843 78.9541 130.083 78.9189C130.323 78.8779 130.514 78.8369 130.654 78.7959V79.9121C130.496 79.9883 130.262 80.0498 129.951 80.0967C129.646 80.1494 129.371 80.1758 129.125 80.1758C127.262 80.1758 126.33 79.1943 126.33 77.2314V71.501H124.95V70.7979L126.33 70.1914L126.945 68.1348H127.789V70.3672H130.584V71.501H127.789V77.1699C127.789 77.75 127.927 78.1953 128.202 78.5059C128.478 78.8164 128.855 78.9717 129.336 78.9717ZM131.059 70.3672H132.623L134.732 75.8604C135.195 77.1143 135.482 78.0195 135.594 78.5762H135.664C135.74 78.2773 135.898 77.7676 136.139 77.0469C136.385 76.3203 137.182 74.0938 138.529 70.3672H140.094L135.954 81.3359C135.544 82.4199 135.063 83.1875 134.513 83.6387C133.968 84.0957 133.297 84.3242 132.5 84.3242C132.055 84.3242 131.615 84.2744 131.182 84.1748V83.0059C131.504 83.0762 131.864 83.1113 132.263 83.1113C133.265 83.1113 133.979 82.5488 134.407 81.4238L134.943 80.0527L131.059 70.3672ZM146.141 80.1758C145.514 80.1758 144.939 80.0615 144.418 79.833C143.902 79.5986 143.469 79.2412 143.117 78.7607H143.012C143.082 79.3232 143.117 79.8564 143.117 80.3604V84.3242H141.658V70.3672H142.845L143.047 71.6855H143.117C143.492 71.1582 143.929 70.7773 144.427 70.543C144.925 70.3086 145.496 70.1914 146.141 70.1914C147.418 70.1914 148.402 70.6279 149.094 71.501C149.791 72.374 150.14 73.5986 150.14 75.1748C150.14 76.7568 149.785 77.9873 149.076 78.8662C148.373 79.7393 147.395 80.1758 146.141 80.1758ZM145.93 71.4307C144.945 71.4307 144.233 71.7031 143.794 72.248C143.354 72.793 143.129 73.6602 143.117 74.8496V75.1748C143.117 76.5283 143.343 77.498 143.794 78.084C144.245 78.6641 144.969 78.9541 145.965 78.9541C146.797 78.9541 147.447 78.6172 147.916 77.9434C148.391 77.2695 148.628 76.3408 148.628 75.1572C148.628 73.9561 148.391 73.0361 147.916 72.3975C147.447 71.7529 146.785 71.4307 145.93 71.4307ZM156.767 80.1758C155.343 80.1758 154.218 79.7422 153.392 78.875C152.571 78.0078 152.161 76.8037 152.161 75.2627C152.161 73.71 152.542 72.4766 153.304 71.5625C154.071 70.6484 155.1 70.1914 156.389 70.1914C157.596 70.1914 158.551 70.5898 159.254 71.3867C159.957 72.1777 160.309 73.2236 160.309 74.5244V75.4473H153.673C153.702 76.5781 153.986 77.4365 154.525 78.0225C155.07 78.6084 155.835 78.9014 156.819 78.9014C157.856 78.9014 158.882 78.6846 159.896 78.251V79.5518C159.38 79.7744 158.891 79.9326 158.428 80.0264C157.971 80.126 157.417 80.1758 156.767 80.1758ZM156.371 71.4131C155.598 71.4131 154.979 71.665 154.517 72.1689C154.06 72.6729 153.79 73.3701 153.708 74.2607H158.744C158.744 73.3408 158.539 72.6377 158.129 72.1514C157.719 71.6592 157.133 71.4131 156.371 71.4131Z" fill="#1F1F1F"/>
<path d="M31.5576 102.426C31.5576 101.717 31.7217 101.178 32.0498 100.809C32.3838 100.439 32.8672 100.255 33.5 100.255C34.1152 100.255 34.5928 100.437 34.9326 100.8C35.2725 101.163 35.4424 101.705 35.4424 102.426C35.4424 103.123 35.2725 103.662 34.9326 104.043C34.5986 104.418 34.1211 104.605 33.5 104.605C32.873 104.605 32.3926 104.415 32.0586 104.034C31.7246 103.647 31.5576 103.111 31.5576 102.426ZM56.9141 99.8945C56.9141 101.195 56.4688 102.197 55.5781 102.9C54.6934 103.598 53.4248 103.946 51.7725 103.946H50.2607V109H48.7666V96.1504H52.0977C55.3086 96.1504 56.9141 97.3984 56.9141 99.8945ZM50.2607 102.663H51.6055C52.9297 102.663 53.8877 102.449 54.4795 102.021C55.0713 101.594 55.3672 100.908 55.3672 99.9648C55.3672 99.1152 55.0889 98.4824 54.5322 98.0664C53.9756 97.6504 53.1084 97.4424 51.9307 97.4424H50.2607V102.663ZM63.7871 99.1914C64.2148 99.1914 64.5986 99.2266 64.9385 99.2969L64.7363 100.65C64.3379 100.562 63.9863 100.519 63.6816 100.519C62.9023 100.519 62.2344 100.835 61.6777 101.468C61.127 102.101 60.8516 102.889 60.8516 103.832V109H59.3926V99.3672H60.5967L60.7637 101.151H60.834C61.1914 100.524 61.6221 100.041 62.126 99.7012C62.6299 99.3613 63.1836 99.1914 63.7871 99.1914ZM68.1992 109H66.7402V99.3672H68.1992V109ZM66.6172 96.7568C66.6172 96.4229 66.6992 96.1797 66.8633 96.0273C67.0273 95.8691 67.2324 95.79 67.4785 95.79C67.7129 95.79 67.915 95.8691 68.085 96.0273C68.2549 96.1855 68.3398 96.4287 68.3398 96.7568C68.3398 97.085 68.2549 97.3311 68.085 97.4951C67.915 97.6533 67.7129 97.7324 67.4785 97.7324C67.2324 97.7324 67.0273 97.6533 66.8633 97.4951C66.6992 97.3311 66.6172 97.085 66.6172 96.7568ZM75.1426 109.176C73.748 109.176 72.667 108.748 71.8994 107.893C71.1377 107.031 70.7568 105.815 70.7568 104.245C70.7568 102.634 71.1436 101.389 71.917 100.51C72.6963 99.6309 73.8037 99.1914 75.2393 99.1914C75.7021 99.1914 76.165 99.2412 76.6279 99.3408C77.0908 99.4404 77.4541 99.5576 77.7178 99.6924L77.2695 100.932C76.9473 100.803 76.5957 100.697 76.2148 100.615C75.834 100.527 75.4971 100.483 75.2041 100.483C73.2471 100.483 72.2686 101.731 72.2686 104.228C72.2686 105.411 72.5059 106.319 72.9805 106.952C73.4609 107.585 74.1699 107.901 75.1074 107.901C75.9102 107.901 76.7334 107.729 77.5771 107.383V108.675C76.9326 109.009 76.1211 109.176 75.1426 109.176ZM83.9404 109.176C82.5166 109.176 81.3916 108.742 80.5654 107.875C79.7451 107.008 79.335 105.804 79.335 104.263C79.335 102.71 79.7158 101.477 80.4775 100.562C81.2451 99.6484 82.2734 99.1914 83.5625 99.1914C84.7695 99.1914 85.7246 99.5898 86.4277 100.387C87.1309 101.178 87.4824 102.224 87.4824 103.524V104.447H80.8467C80.876 105.578 81.1602 106.437 81.6992 107.022C82.2441 107.608 83.0088 107.901 83.9932 107.901C85.0303 107.901 86.0557 107.685 87.0693 107.251V108.552C86.5537 108.774 86.0645 108.933 85.6016 109.026C85.1445 109.126 84.5908 109.176 83.9404 109.176ZM83.5449 100.413C82.7715 100.413 82.1533 100.665 81.6904 101.169C81.2334 101.673 80.9639 102.37 80.8818 103.261H85.918C85.918 102.341 85.7129 101.638 85.3027 101.151C84.8926 100.659 84.3066 100.413 83.5449 100.413ZM99.0488 99.1914C99.4766 99.1914 99.8604 99.2266 100.2 99.2969L99.998 100.65C99.5996 100.562 99.248 100.519 98.9434 100.519C98.1641 100.519 97.4961 100.835 96.9395 101.468C96.3887 102.101 96.1133 102.889 96.1133 103.832V109H94.6543V99.3672H95.8584L96.0254 101.151H96.0957C96.4531 100.524 96.8838 100.041 97.3877 99.7012C97.8916 99.3613 98.4453 99.1914 99.0488 99.1914ZM107.926 109L107.636 107.629H107.565C107.085 108.232 106.604 108.643 106.124 108.859C105.649 109.07 105.055 109.176 104.34 109.176C103.385 109.176 102.635 108.93 102.09 108.438C101.551 107.945 101.281 107.245 101.281 106.337C101.281 104.392 102.837 103.372 105.948 103.278L107.583 103.226V102.628C107.583 101.872 107.419 101.315 107.091 100.958C106.769 100.595 106.25 100.413 105.535 100.413C104.732 100.413 103.824 100.659 102.811 101.151L102.362 100.035C102.837 99.7773 103.355 99.5752 103.918 99.4287C104.486 99.2822 105.055 99.209 105.623 99.209C106.771 99.209 107.621 99.4639 108.172 99.9736C108.729 100.483 109.007 101.301 109.007 102.426V109H107.926ZM104.63 107.972C105.538 107.972 106.25 107.723 106.766 107.225C107.287 106.727 107.548 106.029 107.548 105.133V104.263L106.089 104.324C104.929 104.365 104.091 104.547 103.575 104.869C103.065 105.186 102.811 105.681 102.811 106.354C102.811 106.882 102.969 107.283 103.285 107.559C103.607 107.834 104.056 107.972 104.63 107.972ZM118.613 109V102.769C118.613 101.983 118.435 101.397 118.077 101.011C117.72 100.624 117.16 100.431 116.398 100.431C115.391 100.431 114.652 100.703 114.184 101.248C113.715 101.793 113.48 102.692 113.48 103.946V109H112.021V99.3672H113.208L113.445 100.686H113.516C113.814 100.211 114.233 99.8447 114.772 99.5869C115.312 99.3232 115.912 99.1914 116.574 99.1914C117.734 99.1914 118.607 99.4727 119.193 100.035C119.779 100.592 120.072 101.485 120.072 102.716V109H118.613ZM130.962 99.3672V100.29L129.178 100.501C129.342 100.706 129.488 100.976 129.617 101.31C129.746 101.638 129.811 102.01 129.811 102.426C129.811 103.369 129.488 104.122 128.844 104.685C128.199 105.247 127.314 105.528 126.189 105.528C125.902 105.528 125.633 105.505 125.381 105.458C124.76 105.786 124.449 106.199 124.449 106.697C124.449 106.961 124.558 107.157 124.774 107.286C124.991 107.409 125.363 107.471 125.891 107.471H127.596C128.639 107.471 129.438 107.69 129.995 108.13C130.558 108.569 130.839 109.208 130.839 110.046C130.839 111.112 130.411 111.924 129.556 112.48C128.7 113.043 127.452 113.324 125.812 113.324C124.552 113.324 123.579 113.09 122.894 112.621C122.214 112.152 121.874 111.49 121.874 110.635C121.874 110.049 122.062 109.542 122.437 109.114C122.812 108.687 123.339 108.396 124.019 108.244C123.772 108.133 123.564 107.96 123.395 107.726C123.23 107.491 123.148 107.219 123.148 106.908C123.148 106.557 123.242 106.249 123.43 105.985C123.617 105.722 123.913 105.467 124.317 105.221C123.819 105.016 123.412 104.667 123.096 104.175C122.785 103.683 122.63 103.12 122.63 102.487C122.63 101.433 122.946 100.621 123.579 100.053C124.212 99.4785 125.108 99.1914 126.269 99.1914C126.772 99.1914 127.227 99.25 127.631 99.3672H130.962ZM123.28 110.617C123.28 111.139 123.5 111.534 123.939 111.804C124.379 112.073 125.009 112.208 125.829 112.208C127.054 112.208 127.959 112.023 128.545 111.654C129.137 111.291 129.433 110.796 129.433 110.169C129.433 109.647 129.271 109.284 128.949 109.079C128.627 108.88 128.021 108.78 127.13 108.78H125.381C124.719 108.78 124.203 108.938 123.834 109.255C123.465 109.571 123.28 110.025 123.28 110.617ZM124.071 102.452C124.071 103.126 124.262 103.636 124.643 103.981C125.023 104.327 125.554 104.5 126.233 104.5C127.657 104.5 128.369 103.809 128.369 102.426C128.369 100.979 127.648 100.255 126.207 100.255C125.521 100.255 124.994 100.439 124.625 100.809C124.256 101.178 124.071 101.726 124.071 102.452ZM137.009 109.176C135.585 109.176 134.46 108.742 133.634 107.875C132.813 107.008 132.403 105.804 132.403 104.263C132.403 102.71 132.784 101.477 133.546 100.562C134.313 99.6484 135.342 99.1914 136.631 99.1914C137.838 99.1914 138.793 99.5898 139.496 100.387C140.199 101.178 140.551 102.224 140.551 103.524V104.447H133.915C133.944 105.578 134.229 106.437 134.768 107.022C135.312 107.608 136.077 107.901 137.062 107.901C138.099 107.901 139.124 107.685 140.138 107.251V108.552C139.622 108.774 139.133 108.933 138.67 109.026C138.213 109.126 137.659 109.176 137.009 109.176ZM136.613 100.413C135.84 100.413 135.222 100.665 134.759 101.169C134.302 101.673 134.032 102.37 133.95 103.261H138.986C138.986 102.341 138.781 101.638 138.371 101.151C137.961 100.659 137.375 100.413 136.613 100.413Z" fill="#1F1F1F"/>
<path d="M31.5576 130.426C31.5576 129.717 31.7217 129.178 32.0498 128.809C32.3838 128.439 32.8672 128.255 33.5 128.255C34.1152 128.255 34.5928 128.437 34.9326 128.8C35.2725 129.163 35.4424 129.705 35.4424 130.426C35.4424 131.123 35.2725 131.662 34.9326 132.043C34.5986 132.418 34.1211 132.605 33.5 132.605C32.873 132.605 32.3926 132.415 32.0586 132.034C31.7246 131.647 31.5576 131.111 31.5576 130.426ZM50.2607 137H48.7666V124.15H55.9297V125.478H50.2607V130.18H55.5869V131.507H50.2607V137ZM59.2168 127.367V133.616C59.2168 134.401 59.3955 134.987 59.7529 135.374C60.1104 135.761 60.6699 135.954 61.4316 135.954C62.4395 135.954 63.1748 135.679 63.6377 135.128C64.1064 134.577 64.3408 133.678 64.3408 132.43V127.367H65.7998V137H64.5957L64.3848 135.708H64.3057C64.0068 136.183 63.5908 136.546 63.0576 136.798C62.5303 137.05 61.9268 137.176 61.2471 137.176C60.0752 137.176 59.1963 136.897 58.6104 136.341C58.0303 135.784 57.7402 134.894 57.7402 133.669V127.367H59.2168ZM73.2969 127.191C73.7246 127.191 74.1084 127.227 74.4482 127.297L74.2461 128.65C73.8477 128.562 73.4961 128.519 73.1914 128.519C72.4121 128.519 71.7441 128.835 71.1875 129.468C70.6367 130.101 70.3613 130.889 70.3613 131.832V137H68.9023V127.367H70.1064L70.2734 129.151H70.3438C70.7012 128.524 71.1318 128.041 71.6357 127.701C72.1396 127.361 72.6934 127.191 73.2969 127.191ZM82.8418 137V130.769C82.8418 129.983 82.6631 129.397 82.3057 129.011C81.9482 128.624 81.3887 128.431 80.627 128.431C79.6191 128.431 78.8809 128.703 78.4121 129.248C77.9434 129.793 77.709 130.692 77.709 131.946V137H76.25V127.367H77.4365L77.6738 128.686H77.7441C78.043 128.211 78.4619 127.845 79.001 127.587C79.54 127.323 80.1406 127.191 80.8027 127.191C81.9629 127.191 82.8359 127.473 83.4219 128.035C84.0078 128.592 84.3008 129.485 84.3008 130.716V137H82.8418ZM88.7656 137H87.3066V127.367H88.7656V137ZM87.1836 124.757C87.1836 124.423 87.2656 124.18 87.4297 124.027C87.5938 123.869 87.7988 123.79 88.0449 123.79C88.2793 123.79 88.4814 123.869 88.6514 124.027C88.8213 124.186 88.9062 124.429 88.9062 124.757C88.9062 125.085 88.8213 125.331 88.6514 125.495C88.4814 125.653 88.2793 125.732 88.0449 125.732C87.7988 125.732 87.5938 125.653 87.4297 125.495C87.2656 125.331 87.1836 125.085 87.1836 124.757ZM98.0732 134.372C98.0732 135.269 97.7393 135.96 97.0713 136.446C96.4033 136.933 95.4658 137.176 94.2588 137.176C92.9814 137.176 91.9854 136.974 91.2705 136.569V135.216C91.7334 135.45 92.2285 135.635 92.7559 135.77C93.2891 135.904 93.8018 135.972 94.2939 135.972C95.0557 135.972 95.6416 135.852 96.0518 135.611C96.4619 135.365 96.667 134.993 96.667 134.495C96.667 134.12 96.5029 133.801 96.1748 133.537C95.8525 133.268 95.2197 132.951 94.2764 132.588C93.3799 132.254 92.7412 131.964 92.3604 131.718C91.9854 131.466 91.7041 131.182 91.5166 130.865C91.335 130.549 91.2441 130.171 91.2441 129.731C91.2441 128.946 91.5635 128.328 92.2021 127.877C92.8408 127.42 93.7168 127.191 94.8301 127.191C95.8672 127.191 96.8809 127.402 97.8711 127.824L97.3525 129.011C96.3857 128.612 95.5098 128.413 94.7246 128.413C94.0332 128.413 93.5117 128.521 93.1602 128.738C92.8086 128.955 92.6328 129.254 92.6328 129.635C92.6328 129.893 92.6973 130.112 92.8262 130.294C92.9609 130.476 93.1748 130.648 93.4678 130.812C93.7607 130.977 94.3232 131.214 95.1553 131.524C96.2979 131.94 97.0684 132.359 97.4668 132.781C97.8711 133.203 98.0732 133.733 98.0732 134.372ZM107.047 137V130.769C107.047 129.983 106.868 129.397 106.511 129.011C106.153 128.624 105.594 128.431 104.832 128.431C103.818 128.431 103.077 128.706 102.608 129.257C102.146 129.808 101.914 130.71 101.914 131.964V137H100.455V123.324H101.914V127.464C101.914 127.962 101.891 128.375 101.844 128.703H101.932C102.219 128.24 102.626 127.877 103.153 127.613C103.687 127.344 104.293 127.209 104.973 127.209C106.15 127.209 107.032 127.49 107.618 128.053C108.21 128.609 108.506 129.497 108.506 130.716V137H107.047ZM112.971 137H111.512V127.367H112.971V137ZM111.389 124.757C111.389 124.423 111.471 124.18 111.635 124.027C111.799 123.869 112.004 123.79 112.25 123.79C112.484 123.79 112.687 123.869 112.856 124.027C113.026 124.186 113.111 124.429 113.111 124.757C113.111 125.085 113.026 125.331 112.856 125.495C112.687 125.653 112.484 125.732 112.25 125.732C112.004 125.732 111.799 125.653 111.635 125.495C111.471 125.331 111.389 125.085 111.389 124.757ZM122.656 137V130.769C122.656 129.983 122.478 129.397 122.12 129.011C121.763 128.624 121.203 128.431 120.441 128.431C119.434 128.431 118.695 128.703 118.227 129.248C117.758 129.793 117.523 130.692 117.523 131.946V137H116.064V127.367H117.251L117.488 128.686H117.559C117.857 128.211 118.276 127.845 118.815 127.587C119.354 127.323 119.955 127.191 120.617 127.191C121.777 127.191 122.65 127.473 123.236 128.035C123.822 128.592 124.115 129.485 124.115 130.716V137H122.656ZM135.005 127.367V128.29L133.221 128.501C133.385 128.706 133.531 128.976 133.66 129.31C133.789 129.638 133.854 130.01 133.854 130.426C133.854 131.369 133.531 132.122 132.887 132.685C132.242 133.247 131.357 133.528 130.232 133.528C129.945 133.528 129.676 133.505 129.424 133.458C128.803 133.786 128.492 134.199 128.492 134.697C128.492 134.961 128.601 135.157 128.817 135.286C129.034 135.409 129.406 135.471 129.934 135.471H131.639C132.682 135.471 133.481 135.69 134.038 136.13C134.601 136.569 134.882 137.208 134.882 138.046C134.882 139.112 134.454 139.924 133.599 140.48C132.743 141.043 131.495 141.324 129.854 141.324C128.595 141.324 127.622 141.09 126.937 140.621C126.257 140.152 125.917 139.49 125.917 138.635C125.917 138.049 126.104 137.542 126.479 137.114C126.854 136.687 127.382 136.396 128.062 136.244C127.815 136.133 127.607 135.96 127.438 135.726C127.273 135.491 127.191 135.219 127.191 134.908C127.191 134.557 127.285 134.249 127.473 133.985C127.66 133.722 127.956 133.467 128.36 133.221C127.862 133.016 127.455 132.667 127.139 132.175C126.828 131.683 126.673 131.12 126.673 130.487C126.673 129.433 126.989 128.621 127.622 128.053C128.255 127.479 129.151 127.191 130.312 127.191C130.815 127.191 131.27 127.25 131.674 127.367H135.005ZM127.323 138.617C127.323 139.139 127.543 139.534 127.982 139.804C128.422 140.073 129.052 140.208 129.872 140.208C131.097 140.208 132.002 140.023 132.588 139.654C133.18 139.291 133.476 138.796 133.476 138.169C133.476 137.647 133.314 137.284 132.992 137.079C132.67 136.88 132.063 136.78 131.173 136.78H129.424C128.762 136.78 128.246 136.938 127.877 137.255C127.508 137.571 127.323 138.025 127.323 138.617ZM128.114 130.452C128.114 131.126 128.305 131.636 128.686 131.981C129.066 132.327 129.597 132.5 130.276 132.5C131.7 132.5 132.412 131.809 132.412 130.426C132.412 128.979 131.691 128.255 130.25 128.255C129.564 128.255 129.037 128.439 128.668 128.809C128.299 129.178 128.114 129.726 128.114 130.452Z" fill="#1F1F1F"/>
<line x1="4" y1="44.5" x2="324" y2="44.5" stroke="#C4C4C4"/>
<defs>
<filter id="filter0_d" x="0" y="0" width="327" height="162" filterUnits="userSpaceOnUse" color-interpolation-filters="sRGB">
<feFlood flood-opacity="0" result="BackgroundImageFix"/>
<feColorMatrix in="SourceAlpha" type="matrix" values="0 0 0 0 0 0 0 0 0 0 0 0 0 0 0 0 0 0 127 0"/>
<feOffset/>
<feGaussianBlur stdDeviation="2"/>
<feColorMatrix type="matrix" values="0 0 0 0 0 0 0 0 0 0 0 0 0 0 0 0 0 0 0.25 0"/>
<feBlend mode="normal" in2="BackgroundImageFix" result="effect1_dropShadow"/>
<feBlend mode="normal" in="SourceGraphic" in2="effect1_dropShadow" result="shape"/>
</filter>
</defs>
</svg>
