<svg width="153" height="58" viewBox="0 0 153 58" fill="none" xmlns="http://www.w3.org/2000/svg">
<g filter="url(#filter0_d)">
<rect x="4" y="4" width="145" height="50" rx="5" fill="white"/>
<path d="M76.1797 31.8281C76.1797 32.8594 75.8073 33.6719 75.0625 34.2656C74.3229 34.8594 73.2917 35.1562 71.9688 35.1562C70.75 35.1562 69.6719 34.9271 68.7344 34.4688V32.2188C69.5052 32.5625 70.1562 32.8047 70.6875 32.9453C71.224 33.0859 71.7135 33.1562 72.1562 33.1562C72.6875 33.1562 73.0938 33.0547 73.375 32.8516C73.6615 32.6484 73.8047 32.3464 73.8047 31.9453C73.8047 31.7214 73.7422 31.5234 73.6172 31.3516C73.4922 31.1745 73.3073 31.0052 73.0625 30.8438C72.8229 30.6823 72.3307 30.4245 71.5859 30.0703C70.888 29.7422 70.3646 29.4271 70.0156 29.125C69.6667 28.8229 69.388 28.4714 69.1797 28.0703C68.9714 27.6693 68.8672 27.2005 68.8672 26.6641C68.8672 25.6536 69.2083 24.8594 69.8906 24.2812C70.5781 23.7031 71.526 23.4141 72.7344 23.4141C73.3281 23.4141 73.8932 23.4844 74.4297 23.625C74.9714 23.7656 75.5365 23.9635 76.125 24.2188L75.3438 26.1016C74.7344 25.8516 74.2292 25.6771 73.8281 25.5781C73.4323 25.4792 73.0417 25.4297 72.6562 25.4297C72.1979 25.4297 71.8464 25.5365 71.6016 25.75C71.3568 25.9635 71.2344 26.2422 71.2344 26.5859C71.2344 26.7995 71.2839 26.987 71.3828 27.1484C71.4818 27.3047 71.638 27.4583 71.8516 27.6094C72.0703 27.7552 72.5833 28.0208 73.3906 28.4062C74.4583 28.9167 75.1901 29.4297 75.5859 29.9453C75.9818 30.4557 76.1797 31.0833 76.1797 31.8281ZM86.125 35H83.7422V29.8984C83.7422 28.638 83.2734 28.0078 82.3359 28.0078C81.6693 28.0078 81.1875 28.2344 80.8906 28.6875C80.5938 29.1406 80.4453 29.875 80.4453 30.8906V35H78.0625V22.8438H80.4453V25.3203C80.4453 25.513 80.4271 25.9661 80.3906 26.6797L80.3359 27.3828H80.4609C80.9922 26.5286 81.8359 26.1016 82.9922 26.1016C84.0182 26.1016 84.7969 26.3776 85.3281 26.9297C85.8594 27.4818 86.125 28.2734 86.125 29.3047V35ZM94.125 35L93.6641 33.8125H93.6016C93.2005 34.3177 92.7865 34.6693 92.3594 34.8672C91.9375 35.0599 91.3854 35.1562 90.7031 35.1562C89.8646 35.1562 89.2031 34.9167 88.7188 34.4375C88.2396 33.9583 88 33.276 88 32.3906C88 31.4635 88.3229 30.7812 88.9688 30.3438C89.6198 29.901 90.599 29.6562 91.9062 29.6094L93.4219 29.5625V29.1797C93.4219 28.2943 92.9688 27.8516 92.0625 27.8516C91.3646 27.8516 90.5443 28.0625 89.6016 28.4844L88.8125 26.875C89.8177 26.349 90.9323 26.0859 92.1562 26.0859C93.3281 26.0859 94.2266 26.3411 94.8516 26.8516C95.4766 27.362 95.7891 28.138 95.7891 29.1797V35H94.125ZM93.4219 30.9531L92.5 30.9844C91.8073 31.0052 91.2917 31.1302 90.9531 31.3594C90.6146 31.5885 90.4453 31.9375 90.4453 32.4062C90.4453 33.0781 90.8307 33.4141 91.6016 33.4141C92.1536 33.4141 92.5938 33.2552 92.9219 32.9375C93.2552 32.6198 93.4219 32.1979 93.4219 31.6719V30.9531ZM103.125 26.1016C103.448 26.1016 103.716 26.125 103.93 26.1719L103.75 28.4062C103.557 28.3542 103.323 28.3281 103.047 28.3281C102.286 28.3281 101.693 28.5234 101.266 28.9141C100.844 29.3047 100.633 29.8516 100.633 30.5547V35H98.25V26.2656H100.055L100.406 27.7344H100.523C100.794 27.2448 101.159 26.8516 101.617 26.5547C102.081 26.2526 102.583 26.1016 103.125 26.1016ZM109.133 27.7969C108.628 27.7969 108.232 27.9583 107.945 28.2812C107.659 28.599 107.495 29.0521 107.453 29.6406H110.797C110.786 29.0521 110.633 28.599 110.336 28.2812C110.039 27.9583 109.638 27.7969 109.133 27.7969ZM109.469 35.1562C108.062 35.1562 106.964 34.7682 106.172 33.9922C105.38 33.2161 104.984 32.1172 104.984 30.6953C104.984 29.2318 105.349 28.1016 106.078 27.3047C106.812 26.5026 107.826 26.1016 109.117 26.1016C110.352 26.1016 111.312 26.4531 112 27.1562C112.688 27.8594 113.031 28.8307 113.031 30.0703V31.2266H107.398C107.424 31.9036 107.625 32.4323 108 32.8125C108.375 33.1927 108.901 33.3828 109.578 33.3828C110.104 33.3828 110.602 33.3281 111.07 33.2188C111.539 33.1094 112.029 32.9349 112.539 32.6953V34.5391C112.122 34.7474 111.677 34.901 111.203 35C110.729 35.1042 110.151 35.1562 109.469 35.1562Z" fill="#B3404A"/>
<g clip-path="url(#clip0)">
<path d="M55 26.667C56.3807 26.667 57.5 25.5477 57.5 24.167C57.5 22.7863 56.3807 21.667 55 21.667C53.6193 21.667 52.5 22.7863 52.5 24.167C52.5 25.5477 53.6193 26.667 55 26.667Z" stroke="#B3404A" stroke-width="3.63636" stroke-linecap="round" stroke-linejoin="round"/>
<path d="M44.9995 32.5C46.3802 32.5 47.4995 31.3807 47.4995 30C47.4995 28.6193 46.3802 27.5 44.9995 27.5C43.6188 27.5 42.4995 28.6193 42.4995 30C42.4995 31.3807 43.6188 32.5 44.9995 32.5Z" stroke="#B3404A" stroke-width="3.63636" stroke-linecap="round" stroke-linejoin="round"/>
<path d="M55 38.333C56.3807 38.333 57.5 37.2137 57.5 35.833C57.5 34.4523 56.3807 33.333 55 33.333C53.6193 33.333 52.5 34.4523 52.5 35.833C52.5 37.2137 53.6193 38.333 55 38.333Z" stroke="#B3404A" stroke-width="3.63636" stroke-linecap="round" stroke-linejoin="round"/>
<path d="M47.1576 31.2588L52.8493 34.5755" stroke="#B3404A" stroke-width="3.63636" stroke-linecap="round" stroke-linejoin="round"/>
<path d="M52.8409 25.4248L47.1576 28.7415" stroke="#B3404A" stroke-width="3.63636" stroke-linecap="round" stroke-linejoin="round"/>
</g>
</g>
<defs>
<filter id="filter0_d" x="0" y="0" width="153" height="58" filterUnits="userSpaceOnUse" color-interpolation-filters="sRGB">
<feFlood flood-opacity="0" result="BackgroundImageFix"/>
<feColorMatrix in="SourceAlpha" type="matrix" values="0 0 0 0 0 0 0 0 0 0 0 0 0 0 0 0 0 0 127 0"/>
<feOffset/>
<feGaussianBlur stdDeviation="2"/>
<feColorMatrix type="matrix" values="0 0 0 0 0 0 0 0 0 0 0 0 0 0 0 0 0 0 0.25 0"/>
<feBlend mode="normal" in2="BackgroundImageFix" result="effect1_dropShadow"/>
<feBlend mode="normal" in="SourceGraphic" in2="effect1_dropShadow" result="shape"/>
</filter>
<clipPath id="clip0">
<rect width="20" height="20" fill="white" transform="translate(40 20)"/>
</clipPath>
</defs>
</svg>
