<svg width="293" height="320" viewBox="0 0 293 320" fill="none" xmlns="http://www.w3.org/2000/svg">
<path d="M146.5 311.149C222.746 311.149 284.556 272.174 284.556 224.096C284.556 176.018 222.746 137.043 146.5 137.043C70.254 137.043 8.44434 176.018 8.44434 224.096C8.44434 272.174 70.254 311.149 146.5 311.149Z" fill="#B3404A"/>
<path d="M44.8996 243.545C47.6186 244.787 52.3711 245.222 53.9826 243.033C54.0939 237.913 57.4986 215.424 57.4986 215.424H43.4229L44.8996 243.545Z" fill="#FFBDA7"/>
<path d="M43.124 247.302V245.286C43.124 245.286 44.0675 244.749 44.3839 246.848C44.7004 248.947 43.8331 258.323 45.8958 261.325C47.9585 264.326 56.7603 260.365 56.9302 258.451C56.9302 259.251 57.0884 263.027 55.5179 265.632C53.9474 268.237 48.6676 267.296 46.7807 266.368C44.8937 265.44 43.921 263.321 43.4522 261.075C42.9541 258.72 43.0889 256.825 43.5166 253.069C43.7603 251.138 43.6265 249.173 43.124 247.302Z" fill="#F0F0F0"/>
<path d="M54.2756 241.613C54.2756 242.157 54.3401 242.707 54.3694 243.257C54.428 244.345 54.4983 245.44 54.6448 246.528C55.178 250.4 56.8071 254.848 56.9478 258.745C56.9527 260.253 56.6229 261.74 55.9867 263.078C55.137 264.781 53.1505 266.419 51.6152 266.483C48.5328 266.617 47.2963 265.645 46.1595 264.064C43.8155 260.774 43.1357 258.707 43.6866 254.976C44.0438 253.162 44.1954 251.307 44.1378 249.453C44.0909 248.499 43.1768 245.824 43.1416 245.286C43.16 243.992 43.3093 242.704 43.587 241.446C43.6338 241.216 43.7921 240.499 43.8389 240.269C44.0558 239.104 43.8389 238.432 44.1788 237.92C44.2255 237.845 44.2861 237.781 44.3568 237.734C44.4276 237.687 44.5067 237.656 44.589 237.645L44.6593 239.027C44.7297 239.878 45.0344 239.757 45.0578 240.409C45.093 241.305 44.9289 242.285 45.0227 242.528C45.1164 242.771 45.1809 242.566 45.4211 242.323C45.6614 242.08 45.9251 242.195 46.1947 242.835C46.1947 242.835 46.1947 241.337 46.4056 241.03C46.9272 240.32 49.5466 239.424 50.326 239.43C51.6855 239.43 54.2287 240.64 54.2756 241.613Z" fill="#37474F"/>
<path d="M44.4015 246.848C45.3801 249.223 44.4425 254.65 44.9875 254.387C45.4685 254.023 45.8821 253.563 46.2064 253.03L46.8803 254.784C46.8803 254.784 45.7727 257.344 45.7962 257.984C45.8196 258.624 46.64 260.23 48.3511 260.992C50.0623 261.754 53.1563 261.261 54.1701 260.742C55.233 260.007 56.0078 258.867 56.3442 257.542C56.4204 256.742 55.5589 255.456 55.5589 255.456L55.641 253.139L56.1098 253.382C56.5427 255.128 56.8175 256.916 56.9302 258.72C56.9351 260.228 56.6053 261.715 55.9691 263.053C55.1194 264.755 53.1329 266.394 51.5976 266.458C48.5152 266.592 47.2788 265.619 46.1419 264.038C43.7979 260.749 43.1182 258.682 43.669 254.95C44.0263 253.137 44.1778 251.282 44.1202 249.427C44.0733 248.474 43.1592 245.798 43.124 245.261C43.1424 243.967 43.2917 242.679 43.5694 241.421C43.2354 243.642 43.4287 244.48 44.4015 246.848Z" fill="#B3404A"/>
<g opacity="0.25">
<path opacity="0.25" d="M44.4015 246.848C45.3801 249.223 44.4425 254.65 44.9875 254.387C45.4685 254.023 45.8821 253.563 46.2064 253.03L46.8803 254.784C46.8803 254.784 45.7727 257.344 45.7962 257.984C45.8196 258.624 46.64 260.23 48.3511 260.992C50.0623 261.754 53.1563 261.261 54.1701 260.742C55.233 260.007 56.0078 258.867 56.3442 257.542C56.4204 256.742 55.5589 255.456 55.5589 255.456L55.641 253.139L56.1098 253.382C56.5427 255.128 56.8175 256.916 56.9302 258.72C56.9351 260.228 56.6053 261.715 55.9691 263.053C55.1194 264.755 53.1329 266.394 51.5976 266.458C48.5152 266.592 47.2788 265.619 46.1419 264.038C43.7979 260.749 43.1182 258.682 43.669 254.95C44.0263 253.137 44.1778 251.282 44.1202 249.427C44.0733 248.474 43.1592 245.798 43.124 245.261C43.1424 243.967 43.2917 242.679 43.5694 241.421C43.2354 243.642 43.4287 244.48 44.4015 246.848Z" fill="black"/>
</g>
<path d="M51.5271 256.249C52.8397 256.121 54.6622 255.987 54.627 253.331C54.5918 250.675 54.7266 247.065 54.7266 247.065C54.9669 248.556 55.3126 250.118 55.717 251.692C55.717 251.692 56.4905 255.737 55.5763 257.075C54.6622 258.412 48.8373 258.412 47.5012 257.414C46.1652 256.416 45.919 254.316 45.6143 250.604C45.3096 246.892 45.0283 242.496 45.0283 242.496C45.1397 242.784 45.1865 242.534 45.4268 242.291C45.6671 242.048 45.9308 242.163 46.2003 242.803C46.3996 245.235 47.1672 252.46 47.4426 253.977C47.7181 255.494 50.1968 256.384 51.5271 256.249Z" fill="#B3404A"/>
<path d="M55.33 255.29L55.1542 256.372C52.73 254.648 49.8891 253.757 46.9971 253.812L46.6807 252.532C52.7926 252.263 55.33 255.29 55.33 255.29Z" fill="#E0E0E0"/>
<path d="M54.9848 251.673L55.0376 253.171C51.3106 250.349 46.3823 250.553 46.3823 250.553L46.1831 249.075C52.2951 248.825 54.9848 251.673 54.9848 251.673Z" fill="#E0E0E0"/>
<path d="M54.7558 248.711V250.195C50.9527 246.957 46.0772 246.746 46.0772 246.746L45.9072 245.568C52.0485 245.325 54.7558 248.711 54.7558 248.711Z" fill="#E0E0E0"/>
<path d="M54.709 245.203L54.7676 246.707C50.982 243.469 45.708 244.346 45.708 244.346L45.5615 242.95C51.4039 241.965 54.709 245.203 54.709 245.203Z" fill="#E0E0E0"/>
<path d="M54.4982 265.549C53.8419 265.837 54.2638 262.989 53.1094 262.855C51.9549 262.72 48.9429 262.266 48.7788 263.04C48.6147 263.815 48.2456 265.671 47.7123 265.466C47.179 265.261 45.3039 265.133 44.4131 263.29C43.5547 261.49 43.1502 259.474 43.2411 257.447C43.3173 255.271 43.8271 251.168 43.6455 249.568C43.3994 247.744 43.0595 247.303 43.0595 247.303V248.583C43.0618 248.914 43.134 249.24 43.2704 249.536C43.5283 250.394 43.3642 252.736 43.0595 255.2C42.6669 258.4 43.0595 261.549 43.6455 262.925C45.005 266.183 45.6965 268.084 51.1756 268.327C56.0042 268.544 57.2231 262.823 56.9184 259.476C56.6605 261.447 56.6019 264.634 54.4982 265.549Z" fill="#455A64"/>
<path d="M55.1542 256.372C52.6133 256.247 50.0676 256.32 47.5362 256.589L47.2432 255.45C49.89 254.674 52.6709 254.619 55.3417 255.29L55.1542 256.372Z" fill="#F5F5F5"/>
<path d="M47.2319 255.45C47.2319 255.45 48.2281 252.16 54.9847 251.674C55.0884 251.906 55.1466 252.159 55.1556 252.417C55.1647 252.674 55.1245 252.932 55.0375 253.171C55.0375 253.171 49.8982 253.53 47.5249 256.589L47.2319 255.45Z" fill="#F5F5F5"/>
<path d="M46.6807 252.512C46.6807 252.512 47.9992 249.196 54.7557 248.71C54.8818 248.933 54.9485 249.19 54.9485 249.452C54.9485 249.715 54.8818 249.972 54.7557 250.195C54.7557 250.195 49.347 250.752 46.9678 253.811L46.6807 252.512Z" fill="#F5F5F5"/>
<path d="M46.1831 249.075C46.1831 249.075 47.9411 245.696 54.7094 245.203C54.8844 245.683 54.9051 246.213 54.768 246.707C54.768 246.707 48.7556 247.494 46.3823 250.547L46.1831 249.075Z" fill="#F5F5F5"/>
<path d="M45.937 245.567C45.937 245.567 47.695 242.598 54.4809 242.111C54.5787 242.321 54.6335 242.552 54.6416 242.787C54.6497 243.023 54.6109 243.257 54.5278 243.475C54.5278 243.475 48.4861 243.686 46.107 246.745L45.937 245.567Z" fill="#F5F5F5"/>
<path d="M70.0624 227.629C71.7676 232.314 75.4887 231.226 79.6786 228.608L80.7276 198.624L66.728 201.6L70.0624 227.629Z" fill="#FFBDA7"/>
<path d="M67.1496 238.137C68.4271 239.795 70.7125 239.718 73.4022 240.749C73.886 240.943 74.3528 241.186 74.7969 241.472C77.1702 242.969 79.8013 245.683 84.378 246.477C89.8747 247.43 94.2579 245.971 95.1721 245.139C96.0863 244.307 96.0335 243.667 96.1214 242.445C94.8732 244.064 91.6561 244.8 87.8705 244.544C84.085 244.288 81.7468 242.47 78.1254 239.475C75.0899 236.96 73.5956 236.787 72.0134 236.397C71.7145 236.32 71.4274 236.243 71.0816 236.128C69.1537 235.488 67.636 234.733 67.2668 233.568C67.2506 233.529 67.2388 233.488 67.2316 233.446C67.0341 235.001 67.0065 236.576 67.1496 238.137Z" fill="#F0F0F0"/>
<path d="M77.481 226.368C78.0399 225.767 78.7265 225.327 79.4793 225.088C80.3342 225.248 81.0966 225.77 81.6006 226.541C81.9873 227.097 82.4737 228.32 83.1476 229.254C85.392 232.358 86.0776 233.344 90.1796 236.217C91.2872 236.985 94.3285 238.931 95.4126 239.737C95.7111 240.035 95.934 240.412 96.0597 240.832C96.1854 241.251 96.2097 241.699 96.1301 242.132C96.0504 242.565 95.8697 242.968 95.6054 243.302C95.341 243.636 95.0021 243.889 94.6215 244.038C92.7522 244.934 86.605 245.881 82.0928 243.353C77.4458 240.761 76.0922 237.888 72.6465 237.197C70.4549 236.755 67.7065 235.501 67.2612 234.323C67.0678 231.673 67.2612 230.733 68.0347 228.633C68.3925 227.658 68.5602 226.612 68.5269 225.561C68.5269 224.825 68.5269 224.141 68.984 223.712C69.1382 223.574 69.3183 223.476 69.5114 223.424C69.5114 223.539 69.6638 224.589 69.6638 224.589C69.8432 224.803 70.0393 225 70.2498 225.177C70.701 225.619 71.2284 225.817 70.7186 226.854C70.2498 227.776 70.8182 228.678 72.0839 228.23C72.7202 227.932 73.3404 227.594 73.9416 227.219C74.5253 226.909 75.1777 226.787 75.8226 226.867C76.5786 227.117 76.7895 228.192 77.3814 229.043C76.9712 228.166 76.561 227.392 77.481 226.368Z" fill="#37474F"/>
<path d="M82.1044 243.36C77.4575 240.768 76.1038 237.894 72.6581 237.203C70.4665 236.762 67.7181 235.507 67.2728 234.33C67.1146 232.141 67.0911 231.021 67.6947 229.619C67.8353 232.07 69.7809 231.93 72.3241 232.275C74.8673 232.621 77.7739 237.395 79.3561 237.434C80.9383 237.472 84.5832 236.365 84.5832 236.365L86.2064 237.709C85.4505 238.893 82.1044 238.989 83.2178 239.795C84.3312 240.602 85.5618 240.346 89.4529 241.043C91.7969 241.466 94.5159 240.051 94.0119 238.784C94.5979 239.162 95.0726 239.507 95.3949 239.744C95.6934 240.042 95.9163 240.419 96.0421 240.838C96.1678 241.258 96.192 241.706 96.1124 242.139C96.0328 242.571 95.852 242.974 95.5877 243.308C95.3234 243.642 94.9844 243.896 94.6038 244.045C92.7638 244.941 86.6166 245.888 82.1044 243.36Z" fill="#B3404A"/>
<g opacity="0.25">
<path opacity="0.25" d="M82.1044 243.36C77.4575 240.768 76.1038 237.894 72.6581 237.203C70.4665 236.762 67.7181 235.507 67.2728 234.33C67.1146 232.141 67.0911 231.021 67.6947 229.619C67.8353 232.07 69.7809 231.93 72.3241 232.275C74.8673 232.621 77.7739 237.395 79.3561 237.434C80.9383 237.472 84.5832 236.365 84.5832 236.365L86.2064 237.709C85.4505 238.893 82.1044 238.989 83.2178 239.795C84.3312 240.602 85.5618 240.346 89.4529 241.043C91.7969 241.466 94.5159 240.051 94.0119 238.784C94.5979 239.162 95.0726 239.507 95.3949 239.744C95.6934 240.042 95.9163 240.419 96.0421 240.838C96.1678 241.258 96.192 241.706 96.1124 242.139C96.0328 242.571 95.852 242.974 95.5877 243.308C95.3234 243.642 94.9844 243.896 94.6038 244.045C92.7638 244.941 86.6166 245.888 82.1044 243.36Z" fill="black"/>
</g>
<path d="M67.1498 238.138C68.4272 239.796 70.7126 239.719 73.4024 240.749C73.8862 240.944 74.353 241.186 74.7971 241.472C75.3831 241.805 75.3831 241.3 74.9143 240.474C74.1031 238.982 73.1182 237.612 71.9843 236.397C71.4945 235.876 70.8885 235.503 70.2263 235.316C68.0463 234.804 67.5131 234.164 67.2963 233.549C67.2709 233.496 67.2493 233.44 67.2318 233.383C67.04 234.959 67.0125 236.555 67.1498 238.138Z" fill="#E0E0E0"/>
<path d="M67.6715 237.075C67.5543 237.945 67.5485 238.105 68.1989 238.425C69.4484 238.988 70.7331 239.452 72.0431 239.814C73.4261 240.172 73.2151 239.68 73.2503 239.392C73.2854 239.104 71.0117 237.472 70.4316 237.113C69.8515 236.755 67.6715 237.075 67.6715 237.075Z" fill="#B3404A"/>
<path d="M73.4025 240.748C73.8864 240.943 74.3532 241.185 74.7972 241.471C77.1705 242.969 79.8017 245.683 84.3783 246.476C85.2573 246.628 86.1437 246.724 87.0329 246.764H87.9939C89.623 246.828 91.0236 246.553 92.0959 245.535C92.5882 245.075 92.0549 242.579 92.5647 242.335C93.8107 242.391 95.0507 242.119 96.1804 241.542C96.1804 241.542 96.7195 244.524 95.776 245.689C94.018 247.609 88.4276 248.204 84.056 247.34C79.45 246.431 77.024 243.999 75.0843 242.63C72.9337 241.113 70.7069 241.196 68.7731 240.371C68.1588 240.113 67.6101 239.698 67.1733 239.161L67.1206 238.111C68.4274 239.795 70.7128 239.718 73.4025 240.748Z" fill="#455A64"/>
<path d="M77.1181 231.597C75.842 230.227 74.4897 228.945 73.0688 227.757C73.397 227.571 73.7252 227.367 73.9713 227.232C74.5551 226.922 75.2075 226.8 75.8523 226.88C76.6083 227.13 76.8193 228.205 77.4111 229.056C78.7706 231.341 84.6365 235.872 86.1542 236.736C87.672 237.6 89.8871 236.032 89.8871 236.032L89.9281 236.064L90.1918 236.25C90.6723 236.583 91.5161 237.139 92.401 237.722C91.5775 238.51 90.5741 239.041 89.4971 239.257C88.4201 239.473 87.3096 239.367 86.2832 238.951C82.6265 237.498 78.9406 233.6 77.1181 231.597Z" fill="#B3404A"/>
<path d="M88.5329 235.021C87.2261 234.054 84.5363 233.92 82.6025 235.45L83.5519 236.166C84.5481 235.566 85.7103 235.382 86.8217 235.648C88.1109 235.869 89.3883 236.166 90.6483 236.538L88.5329 235.021Z" fill="#E0E0E0"/>
<path d="M86.3708 233.228C85.064 232.268 81.5187 232.019 80.1768 233.004L81.0265 234.003C82.1267 233.572 83.3128 233.472 84.4604 233.715C85.6179 233.905 86.7645 234.168 87.8944 234.502L86.3708 233.228Z" fill="#E0E0E0"/>
<path d="M84.7009 231.366C83.3941 230.406 79.632 229.862 78.0205 230.886L78.9171 231.904C78.9171 231.904 79.6027 231.424 81.8119 231.558C83.192 231.672 84.5459 232.031 85.8202 232.621L84.7009 231.366Z" fill="#E0E0E0"/>
<path d="M83.0071 228.902C81.7003 227.942 77.6687 226.982 75.7349 228.512C75.811 228.992 76.3209 229.35 76.8541 229.549C76.8541 229.549 77.5339 229.081 79.7431 229.216C81.1967 229.352 82.6221 229.734 83.9682 230.349L83.0071 228.902Z" fill="#E0E0E0"/>
<path d="M90.6485 236.538C90.6485 236.538 87.8592 236.839 86.1422 238.119C85.7829 238.022 85.4695 237.782 85.2632 237.447C85.7956 236.843 86.4405 236.371 87.1542 236.063C87.8679 235.755 88.6339 235.618 89.4003 235.661C89.6638 235.659 89.922 235.741 90.1436 235.897C90.3652 236.053 90.5406 236.275 90.6485 236.538Z" fill="#F5F5F5"/>
<path d="M88.5331 235.021C87.9012 235.223 87.3291 235.603 86.8745 236.123C86.4198 236.643 86.0985 237.285 85.943 237.984C85.943 237.984 85.2046 237.754 84.9995 237.267C84.9995 237.267 85.8082 234.976 87.49 234.221C87.7073 234.261 87.9135 234.354 88.0939 234.493C88.2743 234.631 88.4243 234.811 88.5331 235.021Z" fill="#F5F5F5"/>
<path d="M86.3705 233.228C86.3705 233.228 84.0265 233.977 83.5519 236.166C83.5519 236.166 82.8135 235.935 82.6025 235.449C82.7767 234.695 83.1276 234.003 83.6208 233.442C84.114 232.881 84.7325 232.47 85.4153 232.249C85.6406 232.303 85.8484 232.422 86.0166 232.595C86.1848 232.767 86.3071 232.986 86.3705 233.228Z" fill="#F5F5F5"/>
<path d="M84.3374 230.893C84.3374 230.893 81.8644 231.565 81.0265 234.004C81.0265 234.004 80.294 233.626 80.1768 233.005C80.1768 233.005 81.1437 230.445 83.4818 229.729C83.7181 229.8 83.9277 229.952 84.0812 230.161C84.2347 230.369 84.3243 230.626 84.3374 230.893Z" fill="#F5F5F5"/>
<path d="M82.5444 228.288C82.5444 228.288 79.7023 229.446 78.8702 231.884C78.8702 231.884 78.1377 231.507 78.0205 230.886C78.0205 230.886 79.5148 227.686 81.8529 226.976C82.0684 227.103 82.2471 227.293 82.3693 227.524C82.4914 227.756 82.5521 228.02 82.5444 228.288Z" fill="#F5F5F5"/>
<path d="M46.1416 129.491C43.6628 149.574 44.5301 179.11 44.0203 186.406C43.698 191.027 42.9186 194.688 42.9538 204.166C42.9948 213.766 43.7332 224.646 43.7332 224.646C43.7332 224.646 50.8706 228.416 56.3263 225.139C56.3263 225.139 59.1567 204.019 61.0612 192.346C62.7313 182.106 65.128 163.411 65.128 163.411L66.7278 183.354C66.7278 183.354 65.8722 194.368 66.8098 203.379C67.6947 211.891 68.7143 217.126 68.7143 217.126C70.4066 218.264 72.3368 218.911 74.3222 219.007C76.3075 219.102 78.2822 218.642 80.0593 217.67C80.0593 217.67 82.5088 187.104 82.6963 182.125C82.919 176.454 82.0458 123.885 82.0458 123.885L46.1416 129.491Z" fill="#37474F"/>
<path d="M57.4283 218.342C57.4283 218.342 55.8871 219.705 50.4314 219.437C44.9758 219.168 43.2295 217.702 43.2295 217.702L43.9151 227.507C45.8308 228.634 47.9807 229.2 50.156 229.152C54.0939 229.19 56.1391 227.52 56.1391 227.52L57.4283 218.342Z" fill="#455A64"/>
<path d="M67.3433 209.011C69.7164 209.78 72.1756 210.184 74.6507 210.215C79.1512 210.362 80.9619 208.935 80.9619 208.935L80.2001 217.991C80.2001 217.991 78.7117 219.667 74.7796 219.629C70.8475 219.591 68.6618 217.779 68.6618 217.779L67.3433 209.011Z" fill="#455A64"/>
<path d="M65.1284 163.404L66.7985 147.404C66.7985 147.404 73.8305 145.196 77.704 139.475C77.704 139.475 77.4461 145.721 69.5703 149.715L67.115 163.891L66.7282 183.347L65.1284 163.404Z" fill="#263238"/>
<path d="M112.664 66.3039C113.045 64.0703 113.25 63.1551 112.94 62.5471C112.717 62.0863 112.453 61.9071 112.172 61.9071C112.248 61.2671 112.26 60.1279 111.235 59.8911L111.34 58.8799C111.422 58.0351 111.059 57.4463 110.502 57.3567C111 55.9039 110.947 54.7071 110.238 54.4191C110.004 54.3231 108.756 55.3983 108.023 56.1663C105.509 58.7967 105.521 57.6191 103.669 62.5663C103.036 64.2623 101.741 66.6559 101.267 69.4783C100.997 71.0655 101.976 76.3391 100.47 80.4095C99.2392 83.7439 96.7311 88.7295 93.3675 94.8927C93.3675 94.8927 90.4023 91.8719 86.8863 87.8015C80.581 80.5055 80.118 79.0463 75.5941 78.0799C71.0057 80.3775 73.3907 91.5199 76.1215 96.7999C80.9616 101.693 86.1288 106.185 91.5802 110.24C97.1472 114.266 99.9424 113.478 101.947 108.96C104.701 102.758 108.592 86.6175 109.371 83.5903C110.08 80.8383 111.803 80.4927 112.301 77.7215C113.063 73.6703 111.756 71.0335 112.108 69.1711C112.254 68.4223 112.471 67.4559 112.664 66.3039Z" fill="#FFBDA7"/>
<path d="M93.3558 94.8732C91.5978 98.1884 90.6719 100.32 91.0938 103.91C89.787 100.71 90.6777 97.0364 92.4768 93.958L93.3558 94.8732Z" fill="#F0997A"/>
<path d="M107.367 71.8076C109.154 73.7276 109.658 77.9388 108.404 80.2172C110.215 78.63 110.631 74.4252 107.367 71.8076Z" fill="#F0997A"/>
<path d="M103.722 62.3291C103.722 62.4059 103.669 62.4699 103.646 62.5467C103.534 62.8347 103.405 63.1867 103.265 63.4875L103.792 66.9947L102.802 68.0763C102.482 68.413 102.227 68.8165 102.053 69.2629C101.879 69.7093 101.789 70.1895 101.788 70.6747L104.536 68.3963L103.722 62.3291Z" fill="#F0997A"/>
<path d="M74.8909 77.6963C78.2722 78.5091 79.2625 78.8867 81.1787 80.8451C83.0949 82.8035 91.2755 92.4355 91.2755 92.4355C91.2755 92.4355 88.574 93.0051 86.189 97.0307C83.804 101.056 83.9681 104.365 83.9681 104.365C81.05 102.132 78.3342 99.5986 75.8578 96.8003C75.8578 96.8003 69.195 83.7443 74.8909 77.6963Z" fill="#B3404A"/>
<path d="M112.372 48.5632L103.236 54.3232C103.099 54.4044 102.986 54.5274 102.911 54.6774C102.836 54.8273 102.802 54.9977 102.814 55.168L105.826 78.112C105.857 78.2945 105.926 78.4667 106.028 78.6154C106.129 78.7642 106.261 78.8853 106.412 78.9696C106.584 79.0368 106.766 79.0641 106.948 79.0498C107.13 79.0354 107.306 78.9798 107.467 78.8864L116.568 73.1264C116.713 73.0283 116.831 72.889 116.91 72.7233C116.988 72.5576 117.024 72.3718 117.013 72.1856L114.036 49.3376C114.005 49.1552 113.936 48.9829 113.835 48.8342C113.733 48.6855 113.602 48.5643 113.45 48.48C113.276 48.4091 113.089 48.3798 112.903 48.3942C112.717 48.4085 112.536 48.4662 112.372 48.5632Z" fill="#B3404A"/>
<g opacity="0.05">
<path opacity="0.05" d="M112.372 48.5632L103.236 54.3232C103.099 54.4044 102.986 54.5274 102.911 54.6774C102.836 54.8273 102.802 54.9977 102.814 55.168L105.826 78.112C105.857 78.2945 105.926 78.4667 106.028 78.6154C106.129 78.7642 106.261 78.8853 106.412 78.9696C106.584 79.0368 106.766 79.0641 106.948 79.0498C107.13 79.0354 107.306 78.9798 107.467 78.8864L116.568 73.1264C116.713 73.0283 116.831 72.889 116.91 72.7233C116.988 72.5576 117.024 72.3718 117.013 72.1856L114.036 49.3376C114.005 49.1552 113.936 48.9829 113.835 48.8342C113.733 48.6855 113.602 48.5643 113.45 48.48C113.276 48.4091 113.089 48.3798 112.903 48.3942C112.717 48.4085 112.536 48.4662 112.372 48.5632Z" fill="black"/>
</g>
<path d="M107.367 78.9566C107.066 79.0782 106.736 79.0782 106.435 78.9566C106.284 78.8724 106.152 78.7512 106.05 78.6025C105.949 78.4537 105.88 78.2815 105.849 78.099L102.814 55.1678C102.8 55.0088 102.828 54.8487 102.896 54.707L103.874 55.155C103.806 55.2431 103.755 55.3451 103.724 55.455C103.693 55.5649 103.682 55.6805 103.693 55.795L106.652 78.5086C106.655 78.5985 106.679 78.6861 106.722 78.7631C106.764 78.84 106.824 78.9039 106.896 78.9487C106.967 78.9935 107.048 79.0177 107.13 79.0191C107.213 79.0205 107.294 78.999 107.367 78.9566Z" fill="#B3404A"/>
<g opacity="0.3">
<path opacity="0.3" d="M107.367 78.9566C107.066 79.0782 106.736 79.0782 106.435 78.9566C106.284 78.8724 106.152 78.7512 106.05 78.6025C105.949 78.4537 105.88 78.2815 105.849 78.099L102.814 55.1678C102.8 55.0088 102.828 54.8487 102.896 54.707L103.874 55.155C103.806 55.2431 103.755 55.3451 103.724 55.455C103.693 55.5649 103.682 55.6805 103.693 55.795L106.652 78.5086C106.655 78.5985 106.679 78.6861 106.722 78.7631C106.764 78.84 106.824 78.9039 106.896 78.9487C106.967 78.9935 107.048 79.0177 107.13 79.0191C107.213 79.0205 107.294 78.999 107.367 78.9566Z" fill="black"/>
</g>
<path d="M104.085 54.9505C103.955 55.0356 103.85 55.1586 103.78 55.3055C103.711 55.4525 103.681 55.6177 103.692 55.7825L106.652 78.5089C106.71 78.9633 107.08 79.1489 107.472 78.8865L116.573 73.1265C116.718 73.0284 116.836 72.8891 116.915 72.7234C116.993 72.5577 117.029 72.3718 117.018 72.1857L114.035 49.3377C114.028 49.2672 114.005 49.1999 113.966 49.1427C113.928 49.0854 113.876 49.0402 113.817 49.0117C113.758 48.9831 113.692 48.9722 113.628 48.98C113.563 48.9878 113.502 49.014 113.449 49.0561L104.085 54.9505Z" fill="#B3404A"/>
<g opacity="0.15">
<path opacity="0.15" d="M104.085 54.9505C103.955 55.0356 103.85 55.1586 103.78 55.3055C103.711 55.4525 103.681 55.6177 103.692 55.7825L106.652 78.5089C106.71 78.9633 107.08 79.1489 107.472 78.8865L116.573 73.1265C116.718 73.0284 116.836 72.8891 116.915 72.7234C116.993 72.5577 117.029 72.3718 117.018 72.1857L114.035 49.3377C114.028 49.2672 114.005 49.1999 113.966 49.1427C113.928 49.0854 113.876 49.0402 113.817 49.0117C113.758 48.9831 113.692 48.9722 113.628 48.98C113.563 48.9878 113.502 49.014 113.449 49.0561L104.085 54.9505Z" fill="black"/>
</g>
<path d="M104.648 56.3199C104.509 56.413 104.397 56.5457 104.322 56.7036C104.248 56.8616 104.215 57.0387 104.226 57.2159L106.904 77.6191C106.945 77.9391 107.203 78.0543 107.49 77.8815L116.028 72.4671C116.165 72.373 116.277 72.2402 116.352 72.0825C116.426 71.9248 116.46 71.7481 116.45 71.5711L113.783 51.1999C113.78 51.1273 113.759 51.0571 113.721 50.9974C113.683 50.9377 113.63 50.8911 113.568 50.863C113.507 50.8348 113.439 50.8263 113.374 50.8383C113.308 50.8504 113.247 50.8826 113.197 50.9311L104.648 56.3199Z" fill="#263238"/>
<path d="M104.788 57.4908V57.3628C104.784 57.3529 104.781 57.342 104.781 57.3308C104.781 57.3197 104.784 57.3087 104.788 57.2988V57.4268C104.793 57.4366 104.796 57.4476 104.796 57.4588C104.796 57.4701 104.793 57.4811 104.788 57.4908C104.788 57.4908 104.788 57.5228 104.788 57.4908Z" fill="white"/>
<path d="M104.894 57.4212L104.865 57.2036C104.865 57.2036 104.865 57.146 104.865 57.1396C104.865 57.1396 104.865 57.1396 104.894 57.178V57.3956C104.894 57.3956 104.894 57.4532 104.894 57.4596C104.894 57.4596 104.894 57.4532 104.894 57.4212Z" fill="white"/>
<path d="M105.005 57.3571L104.964 57.0435C104.959 57.0338 104.957 57.0227 104.957 57.0115C104.957 57.0003 104.959 56.9892 104.964 56.9795C104.964 56.9795 104.994 56.9795 104.994 57.0179L105.035 57.3251C105.035 57.3251 105.035 57.3827 105.035 57.3891C105.035 57.3891 105.011 57.3827 105.005 57.3571Z" fill="white"/>
<path d="M105.116 57.2862L105.046 56.7486C105.046 56.7486 105.046 56.691 105.046 56.6846L105.116 57.2222C105.121 57.2331 105.124 57.2451 105.124 57.2574C105.124 57.2696 105.121 57.2817 105.116 57.2926C105.116 57.2926 105.116 57.3118 105.116 57.2862Z" fill="white"/>
<path d="M105.415 57.1324V57.0556L105.292 57.1324L105.386 56.7676L105.421 57.0428V56.9596V57.0364C105.421 57.0364 105.415 57.1388 105.415 57.1324ZM105.415 56.966V56.7676L105.351 57.0236L105.415 56.966Z" fill="white"/>
<path d="M113.309 51.6414C113.3 51.6358 113.29 51.6328 113.28 51.6328C113.27 51.6328 113.259 51.6358 113.251 51.6414L112.887 51.8718C112.868 51.8908 112.854 51.9152 112.847 51.9423C112.84 51.9694 112.839 51.9981 112.846 52.0254L112.881 52.307C112.886 52.3378 112.898 52.3666 112.917 52.3902H112.946L113.315 52.1598C113.333 52.1397 113.346 52.1152 113.353 52.0885C113.36 52.0617 113.361 52.0335 113.356 52.0062L113.321 51.731C113.325 51.7005 113.321 51.6695 113.309 51.6414ZM112.928 52.3454C112.928 52.3454 112.928 52.3454 112.928 52.3006L112.893 52.0254C112.893 51.9742 112.893 51.923 112.893 51.9102L113.262 51.6798C113.267 51.6921 113.267 51.7059 113.262 51.7182L113.303 51.9998C113.306 52.0207 113.304 52.042 113.298 52.062C113.292 52.082 113.282 52.1001 113.268 52.115L112.905 52.3454H112.928Z" fill="white"/>
<path d="M113.098 51.8398L113.139 52.1662L112.946 52.2942L112.916 52.0446C112.91 52.0308 112.906 52.0155 112.906 51.9998C112.906 51.9842 112.91 51.9689 112.916 51.955L113.098 51.8398Z" fill="white"/>
<path d="M113.362 51.7248C113.362 51.7248 113.391 51.7248 113.397 51.808V51.84C113.397 51.8976 113.397 51.9552 113.397 51.9616L113.368 51.6992L113.362 51.7248Z" fill="white"/>
<path d="M106.253 56.5114C106.257 56.5413 106.254 56.5719 106.243 56.5999C106.233 56.628 106.216 56.6527 106.195 56.6714C106.154 56.6714 106.118 56.6714 106.107 56.601C106.103 56.572 106.107 56.5426 106.117 56.5156C106.127 56.4887 106.144 56.4651 106.165 56.4474C106.206 56.4218 106.242 56.4538 106.253 56.5114Z" fill="white"/>
<path d="M106.142 56.2683C106.065 56.3296 106.012 56.4214 105.996 56.5242C105.996 56.5242 105.996 56.569 105.996 56.5754C105.996 56.5754 106.031 56.5754 106.031 56.537C106.043 56.4627 106.081 56.3963 106.136 56.3515C106.147 56.3437 106.159 56.3384 106.171 56.3361C106.184 56.3339 106.197 56.3346 106.209 56.3382C106.221 56.3419 106.232 56.3484 106.242 56.3573C106.252 56.3662 106.26 56.3773 106.265 56.3899C106.265 56.3899 106.3 56.3899 106.312 56.3899C106.318 56.3712 106.318 56.3509 106.312 56.3323C106.297 56.2995 106.271 56.2745 106.239 56.2626C106.207 56.2506 106.172 56.2527 106.142 56.2683Z" fill="white"/>
<path d="M106.119 56.0903C106.002 56.1795 105.922 56.3151 105.896 56.4679C105.896 56.4679 105.896 56.5191 105.896 56.5255C105.896 56.5255 105.931 56.5255 105.937 56.4871C105.947 56.4252 105.968 56.366 105.999 56.3133C106.03 56.2605 106.071 56.2151 106.119 56.1799C106.136 56.1664 106.156 56.1569 106.177 56.1519C106.198 56.1468 106.22 56.1464 106.241 56.1505C106.263 56.1547 106.283 56.1634 106.301 56.1761C106.319 56.1888 106.335 56.2053 106.347 56.2247C106.347 56.2247 106.382 56.2247 106.394 56.2247C106.399 56.2148 106.401 56.2038 106.401 56.1927C106.401 56.1815 106.399 56.1706 106.394 56.1607C106.364 56.1138 106.32 56.0806 106.269 56.0676C106.218 56.0546 106.164 56.0627 106.119 56.0903Z" fill="white"/>
<path d="M109.037 54.4902V54.567H109.007V54.4902H109.037ZM109.066 54.7334V54.7782V54.7334Z" fill="white"/>
<path d="M109.294 54.6818V54.5858L109.154 54.6754V54.6114L109.259 54.2402L109.294 54.5282H109.335V54.5666H109.3V54.6626L109.294 54.6818ZM109.259 54.509V54.317L109.189 54.573L109.259 54.509Z" fill="white"/>
<path d="M109.436 54.4642H109.471C109.473 54.4515 109.473 54.4385 109.471 54.4258C109.474 54.4188 109.475 54.4112 109.475 54.4034C109.475 54.3956 109.474 54.388 109.471 54.381H109.441H109.406V54.3362L109.471 54.1506L109.342 54.2338L109.518 54.125L109.453 54.3042H109.494H109.582C109.592 54.302 109.602 54.302 109.611 54.3042C109.615 54.3211 109.615 54.3385 109.611 54.3554C109.617 54.3785 109.617 54.4028 109.611 54.4258C109.617 54.4445 109.617 54.4647 109.611 54.4834C109.605 54.5026 109.595 54.52 109.582 54.5346C109.573 54.5524 109.559 54.5661 109.541 54.573H109.488H109.447C109.444 54.5583 109.444 54.5429 109.447 54.5282L109.436 54.4642Z" fill="white"/>
<path d="M108.217 53.1203L109.734 52.1603C109.822 52.1091 109.904 52.1603 109.922 52.2371C109.924 52.2935 109.912 52.3494 109.887 52.399C109.862 52.4485 109.826 52.4899 109.781 52.5187L108.264 53.4787C108.17 53.5363 108.088 53.4787 108.076 53.4019C108.073 53.3453 108.085 53.2891 108.11 53.2394C108.135 53.1897 108.172 53.1485 108.217 53.1203Z" fill="#263238"/>
<path d="M110.818 51.4492C110.906 51.398 110.982 51.4492 110.994 51.5324C111 51.587 110.99 51.6421 110.967 51.691C110.944 51.7399 110.909 51.7804 110.865 51.8076C110.783 51.8588 110.701 51.8076 110.689 51.7244C110.687 51.6702 110.697 51.6161 110.72 51.5678C110.742 51.5194 110.776 51.4785 110.818 51.4492Z" fill="#263238"/>
<path d="M111.433 51.0595C111.521 51.0083 111.598 51.0595 111.609 51.1427C111.616 51.1974 111.607 51.2529 111.584 51.302C111.561 51.351 111.525 51.3914 111.48 51.4179C111.466 51.4324 111.448 51.442 111.428 51.4458C111.409 51.4496 111.389 51.4473 111.371 51.4393C111.352 51.4313 111.336 51.4179 111.325 51.4005C111.313 51.3832 111.306 51.3626 111.305 51.3411C111.302 51.286 111.313 51.2312 111.335 51.1818C111.358 51.1325 111.392 51.0904 111.433 51.0595Z" fill="#263238"/>
<path d="M106.511 54.1634C106.527 54.1494 106.546 54.1402 106.566 54.137C106.586 54.1338 106.606 54.1366 106.625 54.1452C106.644 54.1538 106.66 54.1677 106.672 54.1856C106.684 54.2035 106.691 54.2246 106.693 54.2467C106.696 54.3017 106.685 54.3567 106.661 54.4054C106.638 54.454 106.602 54.4944 106.558 54.5219C106.543 54.5365 106.524 54.5462 106.504 54.5497C106.485 54.5533 106.464 54.5505 106.446 54.5417C106.427 54.533 106.411 54.5186 106.4 54.5003C106.389 54.4821 106.383 54.4607 106.382 54.4387C106.38 54.3845 106.391 54.3307 106.413 54.2825C106.436 54.2343 106.47 54.1933 106.511 54.1634Z" fill="#263238"/>
<path d="M107.127 53.7601C107.142 53.7461 107.161 53.7369 107.181 53.7337C107.201 53.7305 107.222 53.7333 107.24 53.7419C107.259 53.7504 107.275 53.7644 107.287 53.7823C107.299 53.8002 107.306 53.8213 107.308 53.8433C107.31 53.8982 107.299 53.9526 107.275 54.001C107.252 54.0494 107.216 54.09 107.173 54.1185C107.158 54.1309 107.139 54.1386 107.12 54.1409C107.101 54.1432 107.082 54.14 107.064 54.1316C107.046 54.1232 107.031 54.11 107.019 54.0931C107.007 54.0762 107 54.0563 106.998 54.0353C106.994 53.981 107.005 53.9267 107.027 53.8783C107.05 53.8298 107.084 53.789 107.127 53.7601Z" fill="#263238"/>
<path d="M107.495 69.6254C107.47 69.632 107.444 69.632 107.419 69.6254C107.391 69.6097 107.367 69.587 107.349 69.5592C107.331 69.5314 107.319 69.4993 107.314 69.4654L106.47 63.0078C106.465 62.9358 106.478 62.8636 106.508 62.7992C106.538 62.7347 106.583 62.6807 106.64 62.643L113.355 58.4062C113.385 58.3877 113.418 58.3779 113.452 58.3779C113.486 58.3779 113.519 58.3877 113.549 58.4062C113.577 58.421 113.602 58.4435 113.62 58.4715C113.639 58.4994 113.65 58.532 113.654 58.5662L114.498 65.0238C114.503 65.0959 114.49 65.1681 114.46 65.2325C114.43 65.2969 114.385 65.351 114.328 65.3886L107.613 69.6254C107.574 69.636 107.534 69.636 107.495 69.6254ZM113.432 58.5278L106.716 62.7646C106.686 62.7859 106.661 62.8153 106.645 62.8502C106.628 62.885 106.621 62.9239 106.622 62.963L107.466 69.4206C107.466 69.4206 107.466 69.4206 107.519 69.4206L114.27 65.2094C114.3 65.1882 114.324 65.1587 114.341 65.1239C114.357 65.0891 114.365 65.0502 114.363 65.011L113.52 58.5534C113.52 58.5534 113.52 58.5534 113.467 58.5534L113.432 58.5278Z" fill="#B3404A"/>
<path d="M110.167 66.444C109.982 66.4532 109.798 66.416 109.628 66.3352C109.381 66.2016 109.17 65.9994 109.017 65.749C108.864 65.4985 108.774 65.2086 108.755 64.908C108.676 64.2263 108.788 63.5345 109.077 62.924C109.173 62.723 109.289 62.5342 109.423 62.3608C109.595 62.1262 109.806 61.9287 110.044 61.7784C110.23 61.645 110.443 61.5625 110.664 61.538C110.886 61.5135 111.109 61.5477 111.316 61.6376C111.563 61.7713 111.774 61.9735 111.927 62.2239C112.08 62.4744 112.171 62.7643 112.189 63.0648C112.268 63.7445 112.156 64.4343 111.867 65.0424C111.651 65.5169 111.318 65.916 110.906 66.1944C110.681 66.34 110.428 66.4255 110.167 66.444ZM109.634 62.508C109.51 62.6701 109.402 62.846 109.312 63.0328C109.038 63.6048 108.931 64.255 109.007 64.8952C109.018 65.151 109.091 65.399 109.217 65.6146C109.344 65.8302 109.52 66.0058 109.728 66.124C109.895 66.1915 110.075 66.2151 110.252 66.1929C110.429 66.1706 110.599 66.1032 110.747 65.996C111.128 65.7392 111.434 65.3711 111.632 64.9336C111.907 64.364 112.013 63.7158 111.937 63.0776C111.925 62.8213 111.852 62.5727 111.726 62.3562C111.6 62.1397 111.424 61.9627 111.216 61.8424C111.048 61.7788 110.869 61.7579 110.692 61.7812C110.516 61.8045 110.346 61.8714 110.197 61.9768C109.973 62.1129 109.774 62.293 109.611 62.508H109.634Z" fill="#B3404A"/>
<path d="M111.404 63.5774L110.203 65.2798C110.091 65.4398 109.986 65.4206 109.962 65.2414L109.74 63.5326C109.74 63.3534 109.804 63.2126 109.933 63.219L111.363 63.2766C111.498 63.2894 111.509 63.4238 111.404 63.5774Z" fill="#B3404A"/>
<path d="M101.319 74.7137C101.319 71.3537 101.806 69.5937 103.318 68.1921C105.31 66.3809 105.99 63.0721 106.74 63.2385C107.642 63.4625 108.433 65.5745 107.244 68.2881C105.896 71.3601 105.205 73.4081 105.421 75.0401C105.673 76.9473 101.319 74.7137 101.319 74.7137Z" fill="#FFBDA7"/>
<path d="M58.7229 77.9457C52.9215 79.2705 50.4838 79.9233 47.9991 80.8257C44.4831 82.1057 43.7858 96.4801 44.6941 103.149C45.0808 105.971 46.3114 112.435 46.1884 115.718C45.9716 121.478 45.1805 132.25 45.0164 137.19C49.5227 142.227 76.801 141.03 82.4852 131.994C82.4852 118.33 82.409 104.934 81.8992 94.7137C81.366 83.5393 77.5394 78.3745 74.5039 77.6193C69.2712 76.6493 63.9183 76.76 58.7229 77.9457Z" fill="#F0F0F0"/>
<path d="M62.5202 136.102C52.8922 132.902 49.6926 123.385 50.0032 116.038C50.3138 108.691 51.9546 99.5647 51.6206 93.7471L44.3483 95.5135C44.2796 98.0645 44.3952 100.617 44.6941 103.149C45.0808 105.971 46.3114 112.435 46.1884 115.718C45.9715 121.478 45.1804 132.249 45.0164 137.19C48.2101 140.755 62.8249 141.197 73.0975 137.939C69.5072 137.912 65.9412 137.293 62.5202 136.102Z" fill="#E0E0E0"/>
<path d="M66.9974 60.2048L50.982 59.3984C47.9582 62.0416 42.3502 67.5968 42.3912 69.0816V70.1184C42.3826 70.1606 42.3826 70.2043 42.3912 70.2464C42.9772 71.4048 45.0458 72.064 48.2512 72.0256C52.0192 71.9872 57.8499 71.4368 59.3501 69.9456C61.612 67.7056 66.9681 61.184 66.9681 61.184L66.218 61.1456L66.9974 60.2048Z" fill="#B3404A"/>
<path d="M50.9822 60.3779C47.8236 63.1427 41.8347 69.0883 42.4266 70.2467C43.0184 71.4051 45.0811 72.0643 48.2866 72.0259C52.0545 71.9875 57.8852 71.4371 59.3854 69.9459C61.6474 67.7059 67.0034 61.1843 67.0034 61.1843L50.9822 60.3779Z" fill="#B3404A"/>
<g opacity="0.3">
<path opacity="0.3" d="M50.982 60.3779C47.8351 63.1427 41.8462 69.1203 42.444 70.2467C43.0417 71.3731 45.0927 72.0643 48.2688 72.0259C52.0368 71.9875 57.8675 71.4371 59.3676 69.9459C61.6296 67.7059 66.9856 61.1843 66.9856 61.1843L50.982 60.3779Z" fill="black"/>
</g>
<path d="M50.982 60.3778C50.9468 60.8834 52.6052 61.8882 52.6052 61.8882L52.072 58.8418C51.775 58.9576 51.5147 59.1637 51.3215 59.4359C51.1284 59.7081 51.0106 60.0349 50.982 60.3778Z" fill="#263238"/>
<path d="M51.5973 52.5953C52.4645 50.5089 54.9492 50.0353 54.9492 50.0353C54.9492 50.0353 55.67 48.5313 58.1253 46.8353C60.5806 45.1393 64.2314 44.7297 68.3627 44.5889C73.1562 44.4289 76.8539 48.2177 77.5922 53.2417C77.8928 54.0462 78.0766 54.8969 78.1372 55.7633C78.2954 61.5233 74.2169 65.2481 68.9487 65.4209C67.2414 65.4775 65.5516 65.0322 64.0558 64.1315C62.56 63.2309 61.3133 61.9079 60.4459 60.3009C59.1404 61.5443 57.9 62.8669 56.7306 64.2625L57.0178 68.1409L56.4786 73.0753C56.1239 71.9351 55.693 70.8249 55.1894 69.7537C54.0566 67.7368 53.1291 65.5908 52.4235 63.3537C50.982 58.7969 50.8472 54.4001 51.5973 52.5953Z" fill="#455A64"/>
<path d="M56.8422 63.6613C56.0043 64.4997 55.2483 62.4196 54.4982 61.6196C53.7482 60.8196 51.3749 59.7765 50.279 62.5156C49.1832 65.2549 51.451 69.1076 53.3028 69.8116C53.837 70.0437 54.4306 70.0532 54.9709 69.8385C55.5111 69.6237 55.9602 69.1996 56.2328 68.6468L56.1625 80.6404C59.0104 85.9012 64.3196 85.9972 66.8687 85.6196C69.4178 85.242 69.9745 82.3172 68.0407 80.026V76.186C69.4113 76.3274 70.7934 76.2476 72.1427 75.9492C74.3695 75.3092 75.6587 73.8372 76.2857 71.0468C77.3054 66.5669 77.5691 59.0469 75.7818 50.4453C73.1213 48.3333 64.0325 48.4741 58.6002 52.4805C58.3776 61.0821 57.6919 62.8229 56.8422 63.6613Z" fill="#FFBDA7"/>
<path d="M76.8244 50.7901C78.3129 53.2861 77.7972 58.1694 75.1661 58.8414C75.7521 56.9214 75.0547 55.0013 74.3574 54.3613C74.4498 54.941 74.4358 55.5349 74.3164 56.1085C74.1856 56.8389 73.8545 57.5086 73.367 58.0285C72.8221 58.5149 71.7204 59.2637 70.9703 59.1677C71.0536 58.7042 71.087 58.2317 71.0699 57.7597C71.0487 57.1263 70.9174 56.5029 70.6832 55.9229C70.4479 56.5321 70.1277 57.0977 69.7338 57.5997C69.3088 58.0548 68.8032 58.4104 68.248 58.6447C67.6929 58.8791 67.0998 58.9874 66.505 58.9629C66.4952 58.487 66.4322 58.0142 66.3175 57.5549C66.2249 56.9117 65.9895 56.3031 65.6318 55.7822C65.4231 56.7741 64.962 57.6815 64.3016 58.3997C63.4829 59.1151 62.5309 59.6262 61.5123 59.8973C60.8501 60.1149 60.1645 60.2494 59.5081 60.4798C59.1182 60.5868 58.7393 60.7369 58.3772 60.9277C58.139 61.0682 57.9526 61.2943 57.8498 61.5677C56.5835 60.1119 55.8774 58.1806 55.8774 56.1725C55.8774 54.1645 56.5835 52.2332 57.8498 50.7773L76.8244 50.7901Z" fill="#455A64"/>
<path d="M68.046 76.217C68.046 76.217 63.2173 75.7626 60.7327 74.2394C59.6591 73.6316 58.7575 72.7155 58.125 71.5898C58.3409 72.7955 58.8722 73.9071 59.6545 74.7898C62.0864 77.4074 68.046 77.6954 68.046 77.6954V76.217Z" fill="#F0997A"/>
<path d="M64.7178 57.0179L62.409 58.2403C62.266 57.8945 62.2508 57.5018 62.3665 57.144C62.4823 56.7863 62.72 56.4912 63.0302 56.3203C63.1822 56.2399 63.3476 56.1941 63.5163 56.1859C63.685 56.1777 63.8535 56.2071 64.0115 56.2724C64.1694 56.3377 64.3135 56.4375 64.435 56.5657C64.5564 56.6938 64.6527 56.8477 64.7178 57.0179Z" fill="#263238"/>
<path d="M65.2627 68.0771L69.019 69.4724C68.9463 69.7476 68.8235 70.004 68.6579 70.2263C68.4924 70.4485 68.2876 70.632 68.0556 70.7659C67.8237 70.8997 67.5694 70.9811 67.308 71.0051C67.0467 71.0292 66.7835 70.9955 66.5343 70.906C66.0286 70.7055 65.6136 70.2989 65.3765 69.7715C65.1394 69.244 65.0986 68.6367 65.2627 68.0771Z" fill="#B16668"/>
<path d="M66.5343 70.9054C66.867 71.0272 67.2243 71.0449 67.5657 70.9566C67.554 70.6564 67.478 70.3635 67.3437 70.1012C67.2095 69.839 67.0208 69.6149 66.7928 69.4468C66.5648 69.2787 66.3039 69.1714 66.031 69.1335C65.7581 69.0956 65.4809 69.1282 65.2217 69.2286C65.2883 69.6085 65.4444 69.9629 65.6745 70.257C65.9047 70.551 66.201 70.7745 66.5343 70.9054Z" fill="#F28F8F"/>
<path d="M75.7288 57.9841L73.4141 56.7041C73.4835 56.5375 73.5832 56.388 73.7072 56.2648C73.8311 56.1416 73.9767 56.0472 74.1351 55.9873C74.2935 55.9275 74.4614 55.9034 74.6286 55.9166C74.7958 55.9298 74.9587 55.98 75.1076 56.0641C75.4167 56.2362 75.6535 56.5314 75.7691 56.8887C75.8847 57.246 75.8702 57.6381 75.7288 57.9841Z" fill="#263238"/>
<path d="M65.8137 60.8962C65.8137 61.1494 65.745 61.3968 65.6162 61.6073C65.4874 61.8178 65.3044 61.9819 65.0902 62.0788C64.8761 62.1757 64.6404 62.201 64.4131 62.1516C64.1857 62.1022 63.9769 61.9803 63.813 61.8013C63.6491 61.6223 63.5375 61.3942 63.4922 61.1459C63.447 60.8976 63.4702 60.6403 63.5589 60.4064C63.6476 60.1725 63.7979 59.9726 63.9906 59.8319C64.1833 59.6913 64.4099 59.6162 64.6417 59.6162C64.9526 59.6162 65.2507 59.7511 65.4705 59.9911C65.6903 60.2312 65.8137 60.5567 65.8137 60.8962Z" fill="#263238"/>
<path d="M74.7444 60.4675C74.7444 60.7207 74.6756 60.9681 74.5469 61.1786C74.4181 61.3891 74.235 61.5532 74.0209 61.6501C73.8067 61.7469 73.5711 61.7723 73.3437 61.7229C73.1164 61.6735 72.9076 61.5516 72.7437 61.3726C72.5798 61.1936 72.4681 60.9655 72.4229 60.7172C72.3777 60.4689 72.4009 60.2115 72.4896 59.9777C72.5783 59.7438 72.7285 59.5439 72.9213 59.4032C73.114 59.2626 73.3406 59.1875 73.5724 59.1875C73.8832 59.1875 74.1813 59.3224 74.4011 59.5624C74.6209 59.8024 74.7444 60.128 74.7444 60.4675Z" fill="#263238"/>
<path d="M69.019 58.8477L69.7047 66.8093L73.1972 65.7149L69.019 58.8477Z" fill="#F0997A"/>
<path d="M63.8739 41.7407C70.4839 40.7871 74.709 43.7247 76.9124 49.5103C77.3426 50.7028 77.5824 51.9669 77.6214 53.2479C73.5898 50.1311 64.8349 51.0143 59.3207 53.6895C56.5781 55.018 54.0876 56.8957 51.9781 59.2255C51.5884 59.5797 51.2522 59.9987 50.9819 60.4671C50.5285 59.0786 50.262 57.6256 50.1908 56.1535C49.8099 47.7631 56.0918 42.8799 63.8739 41.7407Z" fill="#37474F"/>
<path d="M75.3534 49.7342C72.4087 48.5949 69.2283 48.393 66.1825 49.1518C65.784 46.771 65.4735 44.307 70.2376 44.6718C74.0642 44.9982 75.3534 49.7342 75.3534 49.7342Z" fill="#455A64"/>
<path d="M80.6864 131.488C80.5667 131.216 80.3574 131.004 80.1004 130.893C77.7212 129.613 74.8264 130.528 72.2831 130.426C71.4627 130.387 69.2711 130.426 68.7671 129.44C68.439 128.762 70.3552 128.723 71.7381 127.802C73.1211 126.88 72.9101 124.512 71.8143 125.165C70.7185 125.818 68.9605 125.613 66.3352 125.965C63.7099 126.317 61.7761 127.245 59.8892 126.951C58.0023 126.656 54.5801 124.864 50.1382 122.567C44.0496 119.424 43.4695 118.995 43.4695 118.995L48.4564 104.32C52.9217 93.7474 50.8824 84.0642 47.9993 81.2354C40.9673 82.733 38.6877 87.5906 36.6543 93.965C34.8963 99.5266 31.5444 111.392 30.2083 118.483C28.7726 126.035 29.7923 126.765 35.6288 129.818C41.4654 132.871 54.2753 136.096 57.1819 136.813C60.0885 137.53 62.0809 139.264 67.1849 139.655C69.5699 139.84 72.5527 139.898 74.3986 137.907C74.7747 137.389 75.2144 136.931 75.7054 136.544C76.0182 136.388 76.3414 136.257 76.6723 136.154C77.0637 135.999 77.4328 135.783 77.7681 135.514C77.9546 135.373 78.1041 135.181 78.2017 134.957C78.3248 134.592 78.2017 134.176 78.3189 133.811C78.3965 133.618 78.5134 133.447 78.6606 133.311C78.8078 133.174 78.9816 133.076 79.1686 133.024C79.5446 132.921 79.9083 132.771 80.2527 132.576C80.4248 132.472 80.5606 132.31 80.639 132.113C80.7174 131.916 80.7341 131.696 80.6864 131.488Z" fill="#FFBDA7"/>
<path d="M43.4575 118.995C40.1348 117.657 36.7653 119.04 34.9312 119.865C36.4958 117.869 40.0411 116.525 43.8501 117.881L43.4575 118.995Z" fill="#F0997A"/>
<path d="M48.5735 80.6396C43.5573 81.7788 39.7132 84.0317 37.4395 91.0524C34.9724 98.6172 32.6694 107.43 32.6694 107.43C32.6694 107.43 33.2554 108.844 38.0606 111.27C42.8658 113.696 45.4735 113.337 45.4735 113.337C45.4735 113.337 48.4035 105.811 50.0092 101.363C51.6148 96.9148 53.4548 87.558 48.5735 80.6396Z" fill="#B3404A"/>
<path d="M212.929 84.314C210.585 82.8292 207.327 83.034 203.741 85.306L79.3622 163.732C72.1837 168.263 66.3647 179.271 66.3647 188.32V209.357C66.3647 213.876 67.818 217.037 70.1679 218.541C72.3478 219.917 75.8814 222.093 78.0496 223.476C80.3936 224.973 83.6576 224.756 87.2556 222.496L211.64 144.071C218.819 139.54 224.638 128.532 224.638 119.482V98.4452C224.638 93.9204 223.178 90.7652 220.829 89.2612C218.649 87.8852 215.109 85.69 212.929 84.314Z" fill="#B3404A"/>
<path d="M87.2499 168.678L211.64 90.24C218.819 85.7152 224.638 89.3824 224.638 98.432V119.469C224.638 128.518 218.819 139.526 211.64 144.058L87.2499 222.496C80.0773 227.021 74.2583 223.354 74.2583 214.304V193.28C74.2583 184.211 80.0831 173.203 87.2499 168.678Z" fill="#B3404A"/>
<g opacity="0.15">
<path opacity="0.15" d="M87.2499 168.678L211.64 90.24C218.819 85.7152 224.638 89.3824 224.638 98.432V119.469C224.638 128.518 218.819 139.526 211.64 144.058L87.2499 222.496C80.0773 227.021 74.2583 223.354 74.2583 214.304V193.28C74.2583 184.211 80.0831 173.203 87.2499 168.678Z" fill="white"/>
</g>
<path d="M78.0496 223.475C75.8755 222.093 72.3478 219.917 70.1679 218.541C67.8239 217.056 66.3647 213.875 66.3647 209.357V188.32C66.4709 184.117 67.4487 179.994 69.2244 176.263L77.1061 181.235C75.3407 184.966 74.3691 189.083 74.264 193.28V214.317C74.264 218.81 75.7056 221.984 78.0496 223.475Z" fill="#B3404A"/>
<g opacity="0.3">
<path opacity="0.3" d="M78.0496 223.475C75.8755 222.093 72.3478 219.917 70.1679 218.541C67.8239 217.056 66.3647 213.875 66.3647 209.357V188.32C66.4709 184.117 67.4487 179.994 69.2244 176.263L77.1061 181.235C75.3407 184.966 74.3691 189.083 74.264 193.28V214.317C74.264 218.81 75.7056 221.984 78.0496 223.475Z" fill="black"/>
</g>
<path d="M97.0245 177.613C97.0245 178.682 96.292 181.524 95.7236 181.882C95.4189 182.074 94.6864 181.543 93.1042 182.522C91.2641 183.687 90.9125 185.217 90.9125 186.132C90.9125 188.314 92.0845 188.378 93.4382 188.429C95.372 188.557 97.7336 188.692 97.7336 194.093C97.7336 200.557 94.9735 204.525 92.401 206.145C88.8088 208.41 86.8516 207.501 86.8516 206.145C86.8516 204.916 87.8185 202.004 88.3166 201.665C88.8147 201.325 89.8988 202.49 91.7857 201.3C92.4692 200.892 93.0372 200.288 93.4278 199.552C93.8184 198.816 94.0166 197.977 94.0008 197.127C94.0008 194.746 92.1373 195.245 90.3676 194.97C88.7385 194.689 87.1797 193.767 87.1797 189.005C87.1797 183.29 90.016 179.201 92.776 177.485C95.2782 175.937 97.0245 176.301 97.0245 177.613Z" fill="#FAFAFA"/>
<path d="M113.62 165.882V183.162C113.62 189.274 111.094 194.362 106.775 197.082C102.456 199.802 99.9307 197.908 99.9307 191.796V174.516C99.9307 173.684 100.358 172.98 101.349 172.359L102.152 171.847C103.142 171.207 103.564 171.393 103.564 172.225V189.133C103.564 191.911 104.865 193.114 106.775 191.911C108.686 190.708 110.01 187.847 110.01 185.07V168.161C110.01 167.322 110.432 166.618 111.428 165.997L112.202 165.505C113.192 164.878 113.62 165.05 113.62 165.882Z" fill="#FAFAFA"/>
<path d="M128.223 162.503C128.138 165.281 127.245 167.958 125.674 170.145V170.285C127.561 169.729 128.862 171.732 128.862 174.765C128.862 179.885 126.945 184.026 122.961 186.541L117.956 189.697C117.294 190.113 117.013 189.818 117.013 188.705V164.122C117.013 163.009 117.294 162.356 117.956 161.94L122.644 158.989C126.641 156.474 128.223 158.337 128.223 162.503ZM120.652 165.402V171.316L122.281 170.285C122.956 169.823 123.512 169.18 123.897 168.417C124.281 167.655 124.482 166.798 124.478 165.927C124.478 164.007 123.769 163.437 122.328 164.346L120.652 165.402ZM120.652 176.513V182.823L122.966 181.364C123.67 180.882 124.243 180.202 124.624 179.396C125.006 178.59 125.182 177.687 125.135 176.781C125.135 174.714 124.215 174.266 122.586 175.29L120.652 176.513Z" fill="#FAFAFA"/>
<path d="M140.33 150.305C140.33 151.38 139.597 154.221 139.029 154.58C138.724 154.772 137.992 154.241 136.409 155.22C134.569 156.378 134.218 157.914 134.218 158.823C134.218 161.005 135.39 161.069 136.743 161.121C138.677 161.249 141.039 161.389 141.039 166.785C141.039 173.255 138.273 177.217 135.7 178.842C132.114 181.101 130.157 180.193 130.157 178.842C130.157 177.613 131.124 174.701 131.622 174.362C132.12 174.023 133.198 175.188 135.091 173.997C135.775 173.589 136.343 172.983 136.734 172.246C137.124 171.509 137.322 170.669 137.306 169.818C137.306 167.437 135.442 167.943 133.673 167.668C132.044 167.386 130.485 166.465 130.485 161.697C130.485 155.981 133.321 151.898 136.081 150.177C138.583 148.628 140.33 148.999 140.33 150.305Z" fill="#FAFAFA"/>
<path d="M155.548 140.711C155.548 141.818 154.605 145.031 154.013 145.409C153.732 145.581 152.788 144.909 150.544 146.324C147.76 148.077 146.442 151.873 146.442 157.844C146.442 163.815 147.76 166.061 150.473 164.353C152.718 162.938 153.989 160.545 154.347 160.321C155.103 159.847 155.736 162.241 155.736 162.881C155.736 165.268 152.366 168.346 150.462 169.537C145.188 172.871 142.697 169.946 142.697 160.148C142.697 150.701 145.34 144.353 150.585 141.05C152.694 139.732 155.548 139.041 155.548 140.711Z" fill="#FAFAFA"/>
<path d="M169.565 136.871C169.538 139.825 168.561 142.675 166.805 144.922V145.082C167.391 145.082 168.106 146.202 168.505 147.642L170.585 155.06C170.652 155.279 170.691 155.507 170.702 155.738C170.702 156.218 170.251 156.813 169.284 157.428L168.317 158.068C167.631 158.503 167.086 158.644 166.946 158.068L165.082 151.501C164.613 150.221 164.233 149.658 162.697 150.624L161.777 151.207V160.89C161.777 161.722 161.355 162.426 160.365 163.053L159.562 163.559C158.572 164.199 158.144 164.013 158.144 163.181V138.202C158.144 137.088 158.431 136.436 159.088 136.013L163.693 133.114C167.772 130.56 169.565 132.109 169.565 136.871ZM161.777 139.52V145.92L164.022 144.506C164.989 143.866 165.838 141.856 165.838 139.949C165.838 138.042 165.082 137.389 163.858 138.183L161.777 139.52Z" fill="#FAFAFA"/>
<path d="M176.322 126.362V151.758C176.322 152.59 175.894 153.338 174.904 153.959L174.077 154.484C173.087 155.124 172.665 154.9 172.665 154.062V128.641C172.665 127.809 173.087 127.06 174.077 126.439L174.904 125.914C175.865 125.319 176.322 125.524 176.322 126.362Z" fill="#FAFAFA"/>
<path d="M190.855 123.009C190.773 125.788 189.88 128.465 188.306 130.65V130.798C190.193 130.241 191.493 132.238 191.493 135.278C191.493 140.398 189.577 144.538 185.592 147.054L180.588 150.209C179.926 150.625 179.645 150.324 179.645 149.21V124.628C179.645 123.514 179.926 122.862 180.588 122.446L185.276 119.502C189.272 116.986 190.855 118.842 190.855 123.009ZM183.301 125.908V131.841L184.93 130.81C185.606 130.348 186.162 129.705 186.546 128.942C186.931 128.18 187.131 127.323 187.128 126.452C187.128 124.532 186.419 123.962 184.977 124.871L183.301 125.908ZM183.301 137.018V143.361L185.616 141.902C186.32 141.42 186.893 140.741 187.274 139.935C187.656 139.128 187.832 138.225 187.784 137.319C187.784 135.258 186.864 134.804 185.235 135.834L183.301 137.018Z" fill="#FAFAFA"/>
<path d="M204.186 109.562V110.791C204.186 112.18 203.975 112.909 203.477 113.223L197.529 116.973V122.733L202.844 119.386C203.336 119.072 203.547 119.533 203.547 120.922V122.157C203.547 123.546 203.336 124.276 202.844 124.583L197.529 127.936V134.336L203.501 130.573C203.999 130.26 204.21 130.72 204.21 132.109V133.338C204.21 134.727 203.999 135.456 203.501 135.77L194.839 141.235C194.183 141.651 193.896 141.351 193.896 140.237V115.655C193.896 114.541 194.183 113.888 194.839 113.472L203.477 108.026C203.975 107.712 204.186 108.16 204.186 109.562Z" fill="#FAFAFA"/>
<path d="M210.72 126.393V130.048C210.72 130.88 210.298 131.584 209.308 132.211L208.552 132.685C207.562 133.325 207.134 133.139 207.134 132.307V128.64C207.134 127.808 207.562 127.097 208.552 126.477L209.308 125.997C210.31 125.395 210.72 125.561 210.72 126.393ZM211.453 103.993C211.054 109.805 210.673 115.597 210.281 121.408C210.286 121.838 210.175 122.26 209.961 122.621C209.748 122.982 209.441 123.266 209.079 123.437L208.816 123.603C207.849 124.211 207.614 123.923 207.614 123.091V106.579C207.614 105.747 208.036 105.043 209.032 104.416L210.046 103.776C210.96 103.232 211.482 103.315 211.482 104.025L211.453 103.993Z" fill="#FAFAFA"/>
<path d="M175.698 189.157C175.468 188.573 175.079 188.079 174.585 187.743L171.807 185.989C170.6 185.234 169.123 185.989 168.344 186.507L166.604 185.4C164.5 184.018 161.582 186.917 160.925 187.615L160.181 187.141C159.191 186.501 157.837 186.904 156.665 187.557V176.562C156.708 176.089 156.638 175.613 156.464 175.178C156.289 174.743 156.016 174.365 155.669 174.079H155.639H155.593L152.844 172.312C152.2 171.922 151.321 171.986 150.348 172.594C149.311 173.332 148.447 174.327 147.828 175.498C147.209 176.669 146.852 177.983 146.785 179.333V213.08L146.363 212.863C143.925 210.987 141.37 209.874 139.114 210.303C137.222 210.785 135.567 212.034 134.485 213.797C133.313 216.063 135.247 217.49 137.749 220.613C140.251 223.736 142.437 227.442 144.681 229.746C146.926 232.05 148.578 232.651 148.578 232.651V237.061L151.332 238.795L172.253 225.605V221.189C172.253 221.189 174.854 209.88 175.681 205.157C176.507 200.434 177.275 192.779 175.698 189.157Z" fill="#B3404A"/>
<g opacity="0.85">
<path opacity="0.85" d="M175.698 189.157C175.468 188.573 175.079 188.079 174.585 187.743L171.807 185.989C170.6 185.234 169.123 185.989 168.344 186.507L166.604 185.4C164.5 184.018 161.582 186.917 160.925 187.615L160.181 187.141C159.191 186.501 157.837 186.904 156.665 187.557V176.562C156.708 176.089 156.638 175.613 156.464 175.178C156.289 174.743 156.016 174.365 155.669 174.079H155.639H155.593L152.844 172.312C152.2 171.922 151.321 171.986 150.348 172.594C149.311 173.332 148.447 174.327 147.828 175.498C147.209 176.669 146.852 177.983 146.785 179.333V213.08L146.363 212.863C143.925 210.987 141.37 209.874 139.114 210.303C137.222 210.785 135.567 212.034 134.485 213.797C133.313 216.063 135.247 217.49 137.749 220.613C140.251 223.736 142.437 227.442 144.681 229.746C146.926 232.05 148.578 232.651 148.578 232.651V237.061L151.332 238.795L172.253 225.605V221.189C172.253 221.189 174.854 209.88 175.681 205.157C176.507 200.434 177.275 192.779 175.698 189.157Z" fill="white"/>
</g>
<g opacity="0.2">
<path opacity="0.2" d="M156.653 187.615V191.352C157.482 190.581 158.384 189.907 159.343 189.343L156.653 187.615ZM169.293 185.996C168.961 186.137 168.642 186.311 168.338 186.514L169.223 187.084C169.803 187.444 170.265 187.995 170.541 188.658C171.024 188.253 171.556 187.925 172.124 187.685L169.293 185.996ZM162.806 186.04C162.139 186.507 161.517 187.045 160.949 187.647L162.759 188.792L162.865 188.856C163.144 189.018 163.384 189.248 163.568 189.528C164.151 188.883 164.798 188.31 165.496 187.82L162.806 186.04ZM146.779 179.32V213.068C147.745 213.59 148.665 214.209 149.527 214.917V181.055L146.779 179.32ZM147.424 231.48C145.162 229.176 142.976 225.445 140.497 222.348C138.153 219.41 136.284 217.976 137.051 215.948L134.297 214.213C133.53 216.255 135.387 217.695 137.743 220.613C140.228 223.704 142.431 227.436 144.669 229.746C146.908 232.056 148.572 232.645 148.572 232.645V237.055L151.326 238.796V234.38C151.326 234.38 149.686 233.784 147.424 231.48Z" fill="#B3404A"/>
</g>
<path d="M151.326 238.795V234.386C151.326 234.386 149.686 233.784 147.424 231.48C145.162 229.176 142.976 225.445 140.497 222.347C138.018 219.25 136.049 217.797 137.227 215.531C138.311 213.767 139.968 212.518 141.863 212.037C144.248 211.57 146.972 212.843 149.527 214.917V181.055C149.595 179.705 149.953 178.391 150.572 177.22C151.191 176.05 152.054 175.055 153.09 174.315C155.059 173.08 156.653 174.085 156.653 176.562V191.352C156.653 191.352 161.558 186.591 163.545 189.515C163.545 189.515 168.362 183.999 170.541 188.658C170.541 188.658 174.057 185.535 175.675 189.157C177.292 192.779 176.507 200.434 175.675 205.157C174.843 209.88 172.247 221.189 172.247 221.189V225.605L151.326 238.795Z" fill="#B3404A"/>
<g opacity="0.7">
<path opacity="0.7" d="M151.326 238.795V234.386C151.326 234.386 149.686 233.784 147.424 231.48C145.162 229.176 142.976 225.445 140.497 222.347C138.018 219.25 136.049 217.797 137.227 215.531C138.311 213.767 139.968 212.518 141.863 212.037C144.248 211.57 146.972 212.843 149.527 214.917V181.055C149.595 179.705 149.953 178.391 150.572 177.22C151.191 176.05 152.054 175.055 153.09 174.315C155.059 173.08 156.653 174.085 156.653 176.562V191.352C156.653 191.352 161.558 186.591 163.545 189.515C163.545 189.515 168.362 183.999 170.541 188.658C170.541 188.658 174.057 185.535 175.675 189.157C177.292 192.779 176.507 200.434 175.675 205.157C174.843 209.88 172.247 221.189 172.247 221.189V225.605L151.326 238.795Z" fill="white"/>
</g>
<g opacity="0.3">
<path opacity="0.3" d="M140.497 222.347C138.153 219.41 136.284 217.976 137.051 215.947L134.297 214.213C133.53 216.254 135.387 217.694 137.743 220.613C140.228 223.704 142.431 227.435 144.669 229.746C146.908 232.056 148.572 232.645 148.572 232.645V237.054L151.326 238.795V234.379C151.326 234.379 149.686 233.778 147.424 231.474C145.162 229.17 142.976 225.445 140.497 222.347Z" fill="#B3404A"/>
<path opacity="0.3" d="M156.642 187.609L156.653 187.615V187.583L156.642 187.609Z" fill="#B3404A"/>
<path opacity="0.3" d="M149.528 181.055L146.779 179.32V213.068C147.746 213.59 148.666 214.209 149.528 214.917V181.055Z" fill="#B3404A"/>
<path opacity="0.3" d="M162.806 186.04C162.14 186.507 161.517 187.045 160.949 187.646L162.759 188.792L162.865 188.856C163.144 189.018 163.385 189.248 163.568 189.528V195.698C163.568 195.698 164.195 189.342 165.502 187.813L162.806 186.04Z" fill="#B3404A"/>
<path opacity="0.3" d="M172.123 187.686L169.293 185.996C168.961 186.138 168.642 186.311 168.338 186.514L169.223 187.084C169.803 187.444 170.264 187.995 170.541 188.658V194.854C170.541 194.854 170.887 188.62 172.112 187.692L172.123 187.686Z" fill="#B3404A"/>
<path opacity="0.3" d="M159.348 189.337L156.653 187.615V197.708C156.653 197.708 157.081 190.943 159.348 189.337Z" fill="#B3404A"/>
</g>
</svg>
