<svg width="20" height="20" viewBox="0 0 20 20" fill="none" xmlns="http://www.w3.org/2000/svg">
<g clip-path="url(#clip0)">
<path d="M11.0716 11.0707C11.2688 11.0707 11.4287 10.9108 11.4287 10.7136C11.4287 10.5164 11.2688 10.3564 11.0716 10.3564H8.92879C8.73156 10.3564 8.57166 10.5164 8.57166 10.7136C8.57166 10.9108 8.73156 11.0707 8.92879 11.0707H11.0716Z" fill="white"/>
<path d="M9.30666 12.7547C9.54783 12.5503 9.86678 12.4623 10.1788 12.5141C10.7023 12.615 11.0782 13.0763 11.0716 13.6094V13.5712H13.9287C14.1259 13.5712 14.2858 13.4113 14.2858 13.214V0.357136C14.2858 0.159909 14.1259 0 13.9287 0H6.07168C5.87445 0 5.71454 0.159909 5.71454 0.357136V13.214C5.71454 13.4113 5.87445 13.5712 6.07168 13.5712H8.92877C8.92842 13.2568 9.06671 12.9581 9.30666 12.7547ZM12.143 6.07132H9.64305V5.35705H12.143V6.07132ZM9.64305 4.28564V2.85709H10.3573V4.28564H9.64305ZM11.0716 4.28564V2.85709H11.7859V4.28564H11.0716ZM12.5001 2.85709H13.2144V4.28564H12.5001V2.85709ZM9.28591 1.07141H12.143V1.78568H9.28591V1.07141ZM7.85736 1.07141H8.57164V1.78568H7.85736V1.07141ZM8.92877 2.85709V4.28564H8.2145V2.85709H8.92877ZM7.85736 5.35705H8.92877V6.07132H7.85736V5.35705ZM7.85736 6.78559H12.143V7.49987H7.85736V6.78559ZM11.4287 8.21414V8.92841H8.57164V8.21414H11.4287ZM7.50022 4.28564H6.78595V2.85709H7.50022V4.28564ZM7.85736 10.7141C7.85736 10.1224 8.33709 9.64268 8.92877 9.64268H11.0716C11.6633 9.64268 12.143 10.1224 12.143 10.7141C12.143 11.3058 11.6633 11.7855 11.0716 11.7855H8.92877C8.33709 11.7855 7.85736 11.3058 7.85736 10.7141Z" fill="white"/>
<path d="M14.3482 16.0765C14.2443 16.058 14.1374 16.0864 14.0563 16.1544C13.9754 16.2223 13.9287 16.3225 13.9287 16.4282C13.9287 16.6254 13.7688 16.7853 13.5715 16.7853C13.3743 16.7853 13.2144 16.6254 13.2144 16.4282C13.2144 16.231 13.0545 16.0711 12.8572 16.0711C12.66 16.0711 12.5001 16.231 12.5001 16.4282C12.5001 16.6254 12.3402 16.7853 12.143 16.7853C11.9457 16.7853 11.7858 16.6254 11.7858 16.4282C11.7858 16.231 11.6259 16.0711 11.4287 16.0711C11.2315 16.0711 11.0716 16.231 11.0716 16.4282C11.0716 16.6254 10.9117 16.7853 10.7144 16.7853C10.5172 16.7853 10.3573 16.6254 10.3573 16.4282V13.6093C10.3641 13.4259 10.241 13.263 10.0626 13.2194C9.95865 13.2009 9.85176 13.2293 9.77067 13.2973C9.68976 13.3652 9.64302 13.4654 9.64302 13.5711V18.571C9.64302 18.6997 9.57379 18.8185 9.46166 18.8818C9.34971 18.9453 9.2123 18.9433 9.10191 18.8771L7.61303 17.9842C7.53316 17.9359 7.43394 17.9323 7.35058 17.9743L7.29373 18.0022C7.20811 18.0453 7.15144 18.1302 7.14411 18.2257C7.13679 18.3215 7.18004 18.4139 7.25798 18.4695L9.4008 19.9999H14.6429V16.4664C14.6497 16.2829 14.5266 16.1201 14.3482 16.0765Z" fill="white"/>
<path d="M0.357503 1.42871C0.160276 1.42871 0.000366211 1.58862 0.000366211 1.78585V11.7857C0.000366211 11.9829 0.160276 12.1428 0.357503 12.1428H4.286V1.42871H0.357503ZM1.42891 2.14298H2.14319V2.85725H1.42891V2.14298ZM2.85746 3.92866V5.00007H2.14319V3.92866H2.85746ZM0.714639 3.92866H1.42891V5.00007H0.714639V3.92866ZM3.57173 9.64284H2.14319C1.94596 9.64284 1.78605 9.80275 1.78605 9.99997C1.78605 10.1972 1.94596 10.3571 2.14319 10.3571H3.57173V11.0714H2.14319C1.5515 11.0714 1.07178 10.5917 1.07178 9.99997C1.07178 9.40829 1.5515 8.92857 2.14319 8.92857H3.57173V9.64284ZM3.57173 8.21429H2.85746V7.50002H3.57173V8.21429ZM3.57173 6.78575H2.14319V6.07148H3.57173V6.78575ZM3.57173 2.85725H2.85746V2.14298H3.57173V2.85725Z" fill="white"/>
<path d="M19.6429 1.42871H15.7144V12.1428H19.6429C19.8401 12.1428 20 11.9829 20 11.7857V1.78585C20 1.58862 19.8401 1.42871 19.6429 1.42871ZM16.4286 2.14298H18.2143V2.85725H16.4286V2.14298ZM17.8572 3.92866V5.00007H17.1429V3.92866H17.8572ZM16.4286 6.07148H17.5V6.78575H16.4286V6.07148ZM16.4286 7.50002H17.1429V8.21429H16.4286V7.50002ZM17.8572 11.0714H16.4286V10.3571H17.8572C18.0544 10.3571 18.2143 10.1972 18.2143 9.99997C18.2143 9.80275 18.0544 9.64284 17.8572 9.64284H16.4286V8.92857H17.8572C18.4489 8.92857 18.9286 9.40829 18.9286 9.99997C18.9286 10.5917 18.4489 11.0714 17.8572 11.0714ZM19.2857 5.00007H18.5715V3.92866H19.2857V5.00007Z" fill="white"/>
</g>
<defs>
<clipPath id="clip0">
<rect width="20" height="20" fill="white"/>
</clipPath>
</defs>
</svg>
