<svg width="495" height="297" viewBox="0 0 495 297" fill="none" xmlns="http://www.w3.org/2000/svg">
<g filter="url(#filter0_d)">
<rect x="8" y="8" width="479" height="281" rx="5" fill="white"/>
</g>
<path d="M312.85 101.918C312.85 102.93 312.503 103.709 311.811 104.256C311.122 104.798 310.136 105.069 308.851 105.069H307.675V109H306.513V99.0059H309.104C311.601 99.0059 312.85 99.9766 312.85 101.918ZM307.675 104.071H308.721C309.751 104.071 310.496 103.905 310.956 103.572C311.416 103.24 311.646 102.706 311.646 101.973C311.646 101.312 311.43 100.82 310.997 100.496C310.564 100.173 309.89 100.011 308.974 100.011H307.675V104.071ZM319.385 109L319.159 107.934H319.104C318.731 108.403 318.357 108.722 317.983 108.891C317.614 109.055 317.152 109.137 316.596 109.137C315.853 109.137 315.27 108.945 314.846 108.562C314.426 108.18 314.217 107.635 314.217 106.929C314.217 105.416 315.427 104.623 317.847 104.55L319.118 104.509V104.044C319.118 103.456 318.991 103.023 318.735 102.745C318.485 102.463 318.081 102.321 317.525 102.321C316.901 102.321 316.195 102.513 315.406 102.896L315.058 102.027C315.427 101.827 315.83 101.67 316.268 101.556C316.71 101.442 317.152 101.385 317.594 101.385C318.487 101.385 319.148 101.583 319.576 101.979C320.009 102.376 320.226 103.012 320.226 103.887V109H319.385ZM316.821 108.2C317.528 108.2 318.081 108.007 318.482 107.619C318.888 107.232 319.091 106.689 319.091 105.992V105.315L317.956 105.363C317.054 105.395 316.402 105.536 316.001 105.787C315.604 106.033 315.406 106.418 315.406 106.942C315.406 107.353 315.529 107.665 315.775 107.879C316.026 108.093 316.375 108.2 316.821 108.2ZM321.381 101.508H322.598L324.238 105.78C324.598 106.756 324.822 107.46 324.908 107.893H324.963C325.022 107.66 325.145 107.264 325.332 106.703C325.523 106.138 326.143 104.406 327.191 101.508H328.408L325.188 110.039C324.869 110.882 324.496 111.479 324.067 111.83C323.644 112.186 323.122 112.363 322.502 112.363C322.156 112.363 321.814 112.325 321.477 112.247V111.338C321.727 111.393 322.007 111.42 322.317 111.42C323.097 111.42 323.653 110.982 323.985 110.107L324.402 109.041L321.381 101.508ZM339.175 109V104.126C339.175 103.529 339.047 103.082 338.792 102.786C338.537 102.485 338.14 102.335 337.603 102.335C336.896 102.335 336.374 102.538 336.037 102.943C335.7 103.349 335.531 103.973 335.531 104.816V109H334.396V104.126C334.396 103.529 334.269 103.082 334.014 102.786C333.758 102.485 333.36 102.335 332.817 102.335C332.106 102.335 331.585 102.549 331.252 102.978C330.924 103.401 330.76 104.099 330.76 105.069V109H329.625V101.508H330.548L330.732 102.533H330.787C331.001 102.169 331.302 101.884 331.689 101.679C332.081 101.474 332.519 101.371 333.002 101.371C334.173 101.371 334.939 101.795 335.299 102.643H335.354C335.577 102.251 335.9 101.941 336.324 101.713C336.748 101.485 337.231 101.371 337.773 101.371C338.621 101.371 339.255 101.59 339.674 102.027C340.098 102.46 340.31 103.155 340.31 104.112V109H339.175ZM345.819 109.137C344.712 109.137 343.837 108.799 343.194 108.125C342.556 107.451 342.237 106.514 342.237 105.315C342.237 104.108 342.534 103.148 343.126 102.438C343.723 101.727 344.523 101.371 345.525 101.371C346.464 101.371 347.207 101.681 347.754 102.301C348.301 102.916 348.574 103.729 348.574 104.741V105.459H343.413C343.436 106.339 343.657 107.006 344.076 107.462C344.5 107.918 345.095 108.146 345.86 108.146C346.667 108.146 347.465 107.977 348.253 107.64V108.651C347.852 108.825 347.471 108.948 347.111 109.021C346.756 109.098 346.325 109.137 345.819 109.137ZM345.512 102.321C344.91 102.321 344.429 102.517 344.069 102.909C343.714 103.301 343.504 103.843 343.44 104.536H347.357C347.357 103.821 347.198 103.274 346.879 102.896C346.56 102.513 346.104 102.321 345.512 102.321ZM355.643 109V104.153C355.643 103.543 355.504 103.087 355.226 102.786C354.948 102.485 354.512 102.335 353.92 102.335C353.136 102.335 352.562 102.547 352.197 102.971C351.833 103.395 351.65 104.094 351.65 105.069V109H350.516V101.508H351.438L351.623 102.533H351.678C351.91 102.164 352.236 101.879 352.655 101.679C353.075 101.474 353.542 101.371 354.057 101.371C354.959 101.371 355.638 101.59 356.094 102.027C356.549 102.46 356.777 103.155 356.777 104.112V109H355.643ZM361.535 108.2C361.736 108.2 361.929 108.187 362.116 108.159C362.303 108.127 362.451 108.095 362.561 108.063V108.932C362.438 108.991 362.255 109.039 362.014 109.075C361.777 109.116 361.562 109.137 361.371 109.137C359.922 109.137 359.197 108.373 359.197 106.847V102.39H358.124V101.843L359.197 101.371L359.676 99.7715H360.332V101.508H362.506V102.39H360.332V106.799C360.332 107.25 360.439 107.596 360.653 107.838C360.868 108.079 361.161 108.2 361.535 108.2Z" fill="#171717"/>
<rect x="271" y="94" width="20" height="20" rx="2" fill="#B3404A"/>
<path d="M375.562 103.593H378.379V104.536H375.562V107.448H374.612V104.536H371.81V103.593H374.612V100.667H375.562V103.593ZM383.998 109H382.891V101.877C382.891 101.285 382.909 100.724 382.945 100.195C382.85 100.291 382.743 100.391 382.624 100.496C382.506 100.601 381.963 101.045 380.997 101.829L380.396 101.05L383.041 99.0059H383.998V109ZM394.375 109H387.806V108.022L390.438 105.377C391.24 104.566 391.768 103.987 392.023 103.641C392.279 103.294 392.47 102.957 392.598 102.629C392.725 102.301 392.789 101.948 392.789 101.569C392.789 101.036 392.627 100.615 392.304 100.305C391.98 99.9902 391.531 99.833 390.957 99.833C390.542 99.833 390.148 99.9014 389.774 100.038C389.405 100.175 388.993 100.423 388.537 100.783L387.936 100.011C388.856 99.2451 389.859 98.8623 390.943 98.8623C391.882 98.8623 392.618 99.1038 393.151 99.5869C393.685 100.065 393.951 100.71 393.951 101.521C393.951 102.155 393.773 102.782 393.418 103.401C393.062 104.021 392.397 104.805 391.422 105.753L389.234 107.893V107.947H394.375V109ZM402.441 103.989C402.441 105.716 402.168 107.006 401.621 107.858C401.079 108.711 400.247 109.137 399.126 109.137C398.05 109.137 397.232 108.701 396.672 107.831C396.111 106.956 395.831 105.675 395.831 103.989C395.831 102.248 396.102 100.956 396.645 100.113C397.187 99.2702 398.014 98.8486 399.126 98.8486C400.211 98.8486 401.033 99.2884 401.594 100.168C402.159 101.048 402.441 102.321 402.441 103.989ZM396.979 103.989C396.979 105.443 397.15 106.503 397.492 107.168C397.834 107.829 398.379 108.159 399.126 108.159C399.882 108.159 400.429 107.824 400.767 107.154C401.108 106.48 401.279 105.425 401.279 103.989C401.279 102.554 401.108 101.503 400.767 100.838C400.429 100.168 399.882 99.833 399.126 99.833C398.379 99.833 397.834 100.163 397.492 100.824C397.15 101.48 396.979 102.535 396.979 103.989ZM404.185 108.275C404.185 107.97 404.253 107.74 404.39 107.585C404.531 107.425 404.731 107.346 404.991 107.346C405.256 107.346 405.461 107.425 405.606 107.585C405.757 107.74 405.832 107.97 405.832 108.275C405.832 108.572 405.757 108.799 405.606 108.959C405.456 109.118 405.251 109.198 404.991 109.198C404.759 109.198 404.565 109.128 404.41 108.986C404.26 108.84 404.185 108.604 404.185 108.275ZM414.186 103.989C414.186 105.716 413.912 107.006 413.365 107.858C412.823 108.711 411.991 109.137 410.87 109.137C409.795 109.137 408.977 108.701 408.416 107.831C407.855 106.956 407.575 105.675 407.575 103.989C407.575 102.248 407.846 100.956 408.389 100.113C408.931 99.2702 409.758 98.8486 410.87 98.8486C411.955 98.8486 412.777 99.2884 413.338 100.168C413.903 101.048 414.186 102.321 414.186 103.989ZM408.724 103.989C408.724 105.443 408.895 106.503 409.236 107.168C409.578 107.829 410.123 108.159 410.87 108.159C411.627 108.159 412.174 107.824 412.511 107.154C412.853 106.48 413.023 105.425 413.023 103.989C413.023 102.554 412.853 101.503 412.511 100.838C412.174 100.168 411.627 99.833 410.87 99.833C410.123 99.833 409.578 100.163 409.236 100.824C408.895 101.48 408.724 102.535 408.724 103.989ZM422.197 103.989C422.197 105.716 421.924 107.006 421.377 107.858C420.835 108.711 420.003 109.137 418.882 109.137C417.806 109.137 416.988 108.701 416.428 107.831C415.867 106.956 415.587 105.675 415.587 103.989C415.587 102.248 415.858 100.956 416.4 100.113C416.943 99.2702 417.77 98.8486 418.882 98.8486C419.966 98.8486 420.789 99.2884 421.35 100.168C421.915 101.048 422.197 102.321 422.197 103.989ZM416.735 103.989C416.735 105.443 416.906 106.503 417.248 107.168C417.59 107.829 418.134 108.159 418.882 108.159C419.638 108.159 420.185 107.824 420.522 107.154C420.864 106.48 421.035 105.425 421.035 103.989C421.035 102.554 420.864 101.503 420.522 100.838C420.185 100.168 419.638 99.833 418.882 99.833C418.134 99.833 417.59 100.163 417.248 100.824C416.906 101.48 416.735 102.535 416.735 103.989Z" fill="#171717"/>
<path d="M432.946 156.593H435.763V157.536H432.946V160.448H431.996V157.536H429.193V156.593H431.996V153.667H432.946V156.593ZM440.302 155.896C441.354 155.896 442.182 156.158 442.783 156.682C443.389 157.201 443.692 157.914 443.692 158.821C443.692 159.856 443.362 160.667 442.701 161.255C442.045 161.843 441.138 162.137 439.98 162.137C438.855 162.137 437.996 161.957 437.403 161.597V160.503C437.722 160.708 438.119 160.87 438.593 160.988C439.067 161.102 439.534 161.159 439.994 161.159C440.796 161.159 441.418 160.97 441.86 160.592C442.307 160.214 442.53 159.667 442.53 158.951C442.53 157.557 441.676 156.859 439.967 156.859C439.534 156.859 438.955 156.925 438.23 157.058L437.643 156.682L438.019 152.006H442.988V153.052H438.989L438.736 156.053C439.26 155.948 439.782 155.896 440.302 155.896ZM451.813 156.989C451.813 158.716 451.54 160.006 450.993 160.858C450.451 161.711 449.619 162.137 448.498 162.137C447.423 162.137 446.604 161.701 446.044 160.831C445.483 159.956 445.203 158.675 445.203 156.989C445.203 155.248 445.474 153.956 446.017 153.113C446.559 152.27 447.386 151.849 448.498 151.849C449.583 151.849 450.405 152.288 450.966 153.168C451.531 154.048 451.813 155.321 451.813 156.989ZM446.352 156.989C446.352 158.443 446.522 159.503 446.864 160.168C447.206 160.829 447.751 161.159 448.498 161.159C449.255 161.159 449.801 160.824 450.139 160.154C450.48 159.48 450.651 158.425 450.651 156.989C450.651 155.554 450.48 154.503 450.139 153.838C449.801 153.168 449.255 152.833 448.498 152.833C447.751 152.833 447.206 153.163 446.864 153.824C446.522 154.48 446.352 155.535 446.352 156.989Z" fill="#171717"/>
<path d="M306.548 152.006H309.371C310.697 152.006 311.657 152.204 312.249 152.601C312.841 152.997 313.138 153.624 313.138 154.48C313.138 155.073 312.971 155.563 312.639 155.95C312.311 156.333 311.83 156.581 311.196 156.695V156.764C312.714 157.023 313.473 157.821 313.473 159.156C313.473 160.049 313.17 160.747 312.563 161.248C311.962 161.749 311.119 162 310.034 162H306.548V152.006ZM307.71 156.285H309.624C310.444 156.285 311.035 156.158 311.395 155.902C311.755 155.643 311.935 155.207 311.935 154.597C311.935 154.036 311.734 153.633 311.333 153.387C310.932 153.136 310.294 153.011 309.419 153.011H307.71V156.285ZM307.71 157.27V161.009H309.795C310.602 161.009 311.208 160.854 311.613 160.544C312.023 160.229 312.229 159.74 312.229 159.074C312.229 158.454 312.019 157.999 311.6 157.707C311.185 157.415 310.551 157.27 309.699 157.27H307.71ZM321.922 158.247C321.922 159.468 321.614 160.423 320.999 161.111C320.384 161.795 319.534 162.137 318.449 162.137C317.779 162.137 317.185 161.979 316.665 161.665C316.146 161.351 315.744 160.899 315.462 160.312C315.179 159.724 315.038 159.035 315.038 158.247C315.038 157.026 315.343 156.076 315.954 155.396C316.565 154.713 317.412 154.371 318.497 154.371C319.545 154.371 320.377 154.72 320.992 155.417C321.612 156.114 321.922 157.058 321.922 158.247ZM316.214 158.247C316.214 159.204 316.405 159.933 316.788 160.435C317.171 160.936 317.734 161.187 318.477 161.187C319.219 161.187 319.782 160.938 320.165 160.441C320.552 159.94 320.746 159.209 320.746 158.247C320.746 157.295 320.552 156.572 320.165 156.08C319.782 155.583 319.215 155.335 318.463 155.335C317.72 155.335 317.16 155.579 316.781 156.066C316.403 156.554 316.214 157.281 316.214 158.247ZM330.385 158.247C330.385 159.468 330.077 160.423 329.462 161.111C328.847 161.795 327.997 162.137 326.912 162.137C326.242 162.137 325.647 161.979 325.128 161.665C324.608 161.351 324.207 160.899 323.925 160.312C323.642 159.724 323.501 159.035 323.501 158.247C323.501 157.026 323.806 156.076 324.417 155.396C325.028 154.713 325.875 154.371 326.96 154.371C328.008 154.371 328.84 154.72 329.455 155.417C330.075 156.114 330.385 157.058 330.385 158.247ZM324.677 158.247C324.677 159.204 324.868 159.933 325.251 160.435C325.634 160.936 326.197 161.187 326.939 161.187C327.682 161.187 328.245 160.938 328.628 160.441C329.015 159.94 329.209 159.209 329.209 158.247C329.209 157.295 329.015 156.572 328.628 156.08C328.245 155.583 327.678 155.335 326.926 155.335C326.183 155.335 325.622 155.579 325.244 156.066C324.866 156.554 324.677 157.281 324.677 158.247ZM337.214 159.956C337.214 160.653 336.954 161.191 336.435 161.569C335.915 161.948 335.186 162.137 334.247 162.137C333.254 162.137 332.479 161.979 331.923 161.665V160.612C332.283 160.795 332.668 160.938 333.078 161.043C333.493 161.148 333.892 161.2 334.274 161.2C334.867 161.2 335.323 161.107 335.642 160.92C335.961 160.729 336.12 160.439 336.12 160.052C336.12 159.76 335.993 159.512 335.737 159.307C335.487 159.097 334.994 158.851 334.261 158.568C333.563 158.309 333.067 158.083 332.771 157.892C332.479 157.696 332.26 157.475 332.114 157.229C331.973 156.982 331.902 156.688 331.902 156.347C331.902 155.736 332.151 155.255 332.647 154.904C333.144 154.549 333.826 154.371 334.691 154.371C335.498 154.371 336.286 154.535 337.057 154.863L336.653 155.786C335.901 155.476 335.22 155.321 334.609 155.321C334.072 155.321 333.666 155.406 333.393 155.574C333.119 155.743 332.982 155.975 332.982 156.271C332.982 156.472 333.033 156.643 333.133 156.784C333.238 156.925 333.404 157.06 333.632 157.188C333.86 157.315 334.297 157.5 334.944 157.741C335.833 158.065 336.432 158.391 336.742 158.719C337.057 159.047 337.214 159.459 337.214 159.956ZM341.486 161.2C341.687 161.2 341.881 161.187 342.067 161.159C342.254 161.127 342.402 161.095 342.512 161.063V161.932C342.389 161.991 342.206 162.039 341.965 162.075C341.728 162.116 341.514 162.137 341.322 162.137C339.873 162.137 339.148 161.373 339.148 159.847V155.39H338.075V154.843L339.148 154.371L339.627 152.771H340.283V154.508H342.457V155.39H340.283V159.799C340.283 160.25 340.39 160.596 340.604 160.838C340.819 161.079 341.113 161.2 341.486 161.2ZM347.181 162.137C346.073 162.137 345.198 161.799 344.556 161.125C343.918 160.451 343.599 159.514 343.599 158.315C343.599 157.108 343.895 156.148 344.487 155.438C345.084 154.727 345.884 154.371 346.887 154.371C347.826 154.371 348.568 154.681 349.115 155.301C349.662 155.916 349.936 156.729 349.936 157.741V158.459H344.774C344.797 159.339 345.018 160.006 345.438 160.462C345.861 160.918 346.456 161.146 347.222 161.146C348.028 161.146 348.826 160.977 349.614 160.64V161.651C349.213 161.825 348.833 161.948 348.473 162.021C348.117 162.098 347.687 162.137 347.181 162.137ZM346.873 155.321C346.271 155.321 345.791 155.517 345.431 155.909C345.075 156.301 344.866 156.843 344.802 157.536H348.719C348.719 156.821 348.559 156.274 348.24 155.896C347.921 155.513 347.465 155.321 346.873 155.321ZM356.977 160.995H356.915C356.391 161.756 355.607 162.137 354.563 162.137C353.584 162.137 352.82 161.802 352.273 161.132C351.731 160.462 351.46 159.509 351.46 158.274C351.46 157.039 351.733 156.08 352.28 155.396C352.827 154.713 353.588 154.371 354.563 154.371C355.58 154.371 356.359 154.74 356.901 155.479H356.99L356.942 154.938L356.915 154.412V151.363H358.05V162H357.127L356.977 160.995ZM354.707 161.187C355.482 161.187 356.042 160.977 356.389 160.558C356.74 160.134 356.915 159.452 356.915 158.514V158.274C356.915 157.213 356.737 156.456 356.382 156.005C356.031 155.549 355.468 155.321 354.693 155.321C354.028 155.321 353.518 155.581 353.162 156.101C352.811 156.616 352.636 157.345 352.636 158.288C352.636 159.245 352.811 159.967 353.162 160.455C353.513 160.943 354.028 161.187 354.707 161.187ZM367.586 162.137C367.098 162.137 366.652 162.048 366.246 161.87C365.845 161.688 365.508 161.41 365.234 161.036H365.152C365.207 161.474 365.234 161.888 365.234 162.28V165.363H364.1V154.508H365.022L365.18 155.533H365.234C365.526 155.123 365.866 154.827 366.253 154.645C366.64 154.462 367.085 154.371 367.586 154.371C368.579 154.371 369.345 154.711 369.883 155.39C370.425 156.069 370.696 157.021 370.696 158.247C370.696 159.478 370.421 160.435 369.869 161.118C369.322 161.797 368.561 162.137 367.586 162.137ZM367.422 155.335C366.656 155.335 366.103 155.547 365.761 155.971C365.419 156.395 365.243 157.069 365.234 157.994V158.247C365.234 159.3 365.41 160.054 365.761 160.51C366.112 160.961 366.674 161.187 367.449 161.187C368.096 161.187 368.602 160.924 368.967 160.4C369.336 159.876 369.521 159.154 369.521 158.233C369.521 157.299 369.336 156.584 368.967 156.087C368.602 155.586 368.087 155.335 367.422 155.335ZM376.104 154.371C376.436 154.371 376.735 154.398 376.999 154.453L376.842 155.506C376.532 155.438 376.258 155.403 376.021 155.403C375.415 155.403 374.896 155.649 374.463 156.142C374.035 156.634 373.82 157.247 373.82 157.98V162H372.686V154.508H373.622L373.752 155.896H373.807C374.085 155.408 374.42 155.032 374.812 154.768C375.203 154.503 375.634 154.371 376.104 154.371ZM384.867 158.247C384.867 159.468 384.56 160.423 383.944 161.111C383.329 161.795 382.479 162.137 381.395 162.137C380.725 162.137 380.13 161.979 379.61 161.665C379.091 161.351 378.69 160.899 378.407 160.312C378.125 159.724 377.983 159.035 377.983 158.247C377.983 157.026 378.289 156.076 378.899 155.396C379.51 154.713 380.358 154.371 381.442 154.371C382.491 154.371 383.322 154.72 383.938 155.417C384.557 156.114 384.867 157.058 384.867 158.247ZM379.159 158.247C379.159 159.204 379.351 159.933 379.733 160.435C380.116 160.936 380.679 161.187 381.422 161.187C382.165 161.187 382.728 160.938 383.11 160.441C383.498 159.94 383.691 159.209 383.691 158.247C383.691 157.295 383.498 156.572 383.11 156.08C382.728 155.583 382.16 155.335 381.408 155.335C380.665 155.335 380.105 155.579 379.727 156.066C379.348 156.554 379.159 157.281 379.159 158.247ZM390.35 162.137C389.862 162.137 389.415 162.048 389.01 161.87C388.609 161.688 388.271 161.41 387.998 161.036H387.916C387.971 161.474 387.998 161.888 387.998 162.28V165.363H386.863V154.508H387.786L387.943 155.533H387.998C388.29 155.123 388.629 154.827 389.017 154.645C389.404 154.462 389.848 154.371 390.35 154.371C391.343 154.371 392.109 154.711 392.646 155.39C393.189 156.069 393.46 157.021 393.46 158.247C393.46 159.478 393.184 160.435 392.633 161.118C392.086 161.797 391.325 162.137 390.35 162.137ZM390.186 155.335C389.42 155.335 388.866 155.547 388.524 155.971C388.183 156.395 388.007 157.069 387.998 157.994V158.247C387.998 159.3 388.174 160.054 388.524 160.51C388.875 160.961 389.438 161.187 390.213 161.187C390.86 161.187 391.366 160.924 391.73 160.4C392.1 159.876 392.284 159.154 392.284 158.233C392.284 157.299 392.1 156.584 391.73 156.087C391.366 155.586 390.851 155.335 390.186 155.335ZM398.614 162.137C397.507 162.137 396.632 161.799 395.989 161.125C395.351 160.451 395.032 159.514 395.032 158.315C395.032 157.108 395.328 156.148 395.921 155.438C396.518 154.727 397.318 154.371 398.32 154.371C399.259 154.371 400.002 154.681 400.549 155.301C401.096 155.916 401.369 156.729 401.369 157.741V158.459H396.208C396.231 159.339 396.452 160.006 396.871 160.462C397.295 160.918 397.89 161.146 398.655 161.146C399.462 161.146 400.259 160.977 401.048 160.64V161.651C400.647 161.825 400.266 161.948 399.906 162.021C399.551 162.098 399.12 162.137 398.614 162.137ZM398.307 155.321C397.705 155.321 397.224 155.517 396.864 155.909C396.509 156.301 396.299 156.843 396.235 157.536H400.152C400.152 156.821 399.993 156.274 399.674 155.896C399.355 155.513 398.899 155.321 398.307 155.321ZM406.729 154.371C407.061 154.371 407.36 154.398 407.624 154.453L407.467 155.506C407.157 155.438 406.883 155.403 406.646 155.403C406.04 155.403 405.521 155.649 405.088 156.142C404.66 156.634 404.445 157.247 404.445 157.98V162H403.311V154.508H404.247L404.377 155.896H404.432C404.71 155.408 405.045 155.032 405.437 154.768C405.828 154.503 406.259 154.371 406.729 154.371ZM411.445 161.2C411.646 161.2 411.84 161.187 412.026 161.159C412.213 161.127 412.361 161.095 412.471 161.063V161.932C412.348 161.991 412.165 162.039 411.924 162.075C411.687 162.116 411.473 162.137 411.281 162.137C409.832 162.137 409.107 161.373 409.107 159.847V155.39H408.034V154.843L409.107 154.371L409.586 152.771H410.242V154.508H412.416V155.39H410.242V159.799C410.242 160.25 410.349 160.596 410.563 160.838C410.778 161.079 411.072 161.2 411.445 161.2ZM412.785 154.508H414.002L415.643 158.78C416.003 159.756 416.226 160.46 416.312 160.893H416.367C416.426 160.66 416.549 160.264 416.736 159.703C416.928 159.138 417.548 157.406 418.596 154.508H419.812L416.593 163.039C416.274 163.882 415.9 164.479 415.472 164.83C415.048 165.186 414.526 165.363 413.906 165.363C413.56 165.363 413.218 165.325 412.881 165.247V164.338C413.132 164.393 413.412 164.42 413.722 164.42C414.501 164.42 415.057 163.982 415.39 163.107L415.807 162.041L412.785 154.508Z" fill="#171717"/>
<rect x="271" y="146" width="20" height="20" rx="2" fill="#CE787F"/>
<path d="M406.946 208.593H409.763V209.536H406.946V212.448H405.996V209.536H403.193V208.593H405.996V205.667H406.946V208.593ZM417.747 214H411.178V213.022L413.81 210.377C414.612 209.566 415.14 208.987 415.396 208.641C415.651 208.294 415.842 207.957 415.97 207.629C416.097 207.301 416.161 206.948 416.161 206.569C416.161 206.036 415.999 205.615 415.676 205.305C415.352 204.99 414.903 204.833 414.329 204.833C413.914 204.833 413.52 204.901 413.146 205.038C412.777 205.175 412.365 205.423 411.909 205.783L411.308 205.011C412.228 204.245 413.231 203.862 414.315 203.862C415.254 203.862 415.99 204.104 416.523 204.587C417.057 205.065 417.323 205.71 417.323 206.521C417.323 207.155 417.146 207.782 416.79 208.401C416.435 209.021 415.769 209.805 414.794 210.753L412.606 212.893V212.947H417.747V214ZM425.813 208.989C425.813 210.716 425.54 212.006 424.993 212.858C424.451 213.711 423.619 214.137 422.498 214.137C421.423 214.137 420.604 213.701 420.044 212.831C419.483 211.956 419.203 210.675 419.203 208.989C419.203 207.248 419.474 205.956 420.017 205.113C420.559 204.27 421.386 203.849 422.498 203.849C423.583 203.849 424.405 204.288 424.966 205.168C425.531 206.048 425.813 207.321 425.813 208.989ZM420.352 208.989C420.352 210.443 420.522 211.503 420.864 212.168C421.206 212.829 421.751 213.159 422.498 213.159C423.255 213.159 423.801 212.824 424.139 212.154C424.48 211.48 424.651 210.425 424.651 208.989C424.651 207.554 424.48 206.503 424.139 205.838C423.801 205.168 423.255 204.833 422.498 204.833C421.751 204.833 421.206 205.163 420.864 205.824C420.522 206.48 420.352 207.535 420.352 208.989Z" fill="#171717"/>
<path d="M312.36 211.341C312.36 212.22 312.041 212.906 311.403 213.398C310.765 213.891 309.899 214.137 308.806 214.137C307.621 214.137 306.709 213.984 306.071 213.679V212.558C306.481 212.731 306.928 212.868 307.411 212.968C307.894 213.068 308.373 213.118 308.847 213.118C309.621 213.118 310.205 212.972 310.597 212.681C310.989 212.384 311.185 211.974 311.185 211.45C311.185 211.104 311.114 210.821 310.973 210.603C310.836 210.379 310.604 210.174 310.275 209.987C309.952 209.8 309.457 209.589 308.792 209.352C307.862 209.019 307.197 208.625 306.796 208.169C306.399 207.713 306.201 207.118 306.201 206.385C306.201 205.615 306.491 205.002 307.069 204.546C307.648 204.09 308.414 203.862 309.366 203.862C310.36 203.862 311.273 204.045 312.107 204.409L311.745 205.421C310.92 205.075 310.118 204.901 309.339 204.901C308.724 204.901 308.243 205.034 307.896 205.298C307.55 205.562 307.377 205.929 307.377 206.398C307.377 206.745 307.441 207.03 307.568 207.253C307.696 207.472 307.91 207.674 308.211 207.861C308.516 208.044 308.981 208.246 309.605 208.47C310.654 208.843 311.374 209.244 311.766 209.673C312.162 210.101 312.36 210.657 312.36 211.341ZM315.3 206.508V211.368C315.3 211.979 315.439 212.435 315.717 212.735C315.995 213.036 316.43 213.187 317.022 213.187C317.806 213.187 318.378 212.972 318.738 212.544C319.103 212.116 319.285 211.416 319.285 210.445V206.508H320.42V214H319.483L319.319 212.995H319.258C319.025 213.364 318.702 213.647 318.287 213.843C317.877 214.039 317.408 214.137 316.879 214.137C315.967 214.137 315.284 213.92 314.828 213.487C314.377 213.054 314.151 212.362 314.151 211.409V206.508H315.3ZM326.319 206.385C327.304 206.385 328.067 206.722 328.609 207.396C329.156 208.066 329.43 209.017 329.43 210.247C329.43 211.478 329.154 212.435 328.603 213.118C328.056 213.797 327.295 214.137 326.319 214.137C325.832 214.137 325.385 214.048 324.979 213.87C324.578 213.688 324.241 213.41 323.968 213.036H323.886L323.646 214H322.833V203.363H323.968V205.947C323.968 206.526 323.95 207.046 323.913 207.506H323.968C324.496 206.758 325.28 206.385 326.319 206.385ZM326.155 207.335C325.381 207.335 324.822 207.558 324.48 208.005C324.139 208.447 323.968 209.194 323.968 210.247C323.968 211.3 324.143 212.054 324.494 212.51C324.845 212.961 325.408 213.187 326.183 213.187C326.88 213.187 327.399 212.934 327.741 212.428C328.083 211.917 328.254 211.186 328.254 210.233C328.254 209.258 328.083 208.531 327.741 208.053C327.399 207.574 326.871 207.335 326.155 207.335ZM336.252 211.956C336.252 212.653 335.992 213.191 335.473 213.569C334.953 213.948 334.224 214.137 333.285 214.137C332.292 214.137 331.517 213.979 330.961 213.665V212.612C331.321 212.795 331.706 212.938 332.116 213.043C332.531 213.148 332.93 213.2 333.312 213.2C333.905 213.2 334.361 213.107 334.68 212.92C334.999 212.729 335.158 212.439 335.158 212.052C335.158 211.76 335.031 211.512 334.775 211.307C334.525 211.097 334.033 210.851 333.299 210.568C332.602 210.309 332.105 210.083 331.809 209.892C331.517 209.696 331.298 209.475 331.152 209.229C331.011 208.982 330.94 208.688 330.94 208.347C330.94 207.736 331.189 207.255 331.686 206.904C332.182 206.549 332.864 206.371 333.729 206.371C334.536 206.371 335.325 206.535 336.095 206.863L335.691 207.786C334.939 207.476 334.258 207.321 333.647 207.321C333.11 207.321 332.704 207.406 332.431 207.574C332.157 207.743 332.021 207.975 332.021 208.271C332.021 208.472 332.071 208.643 332.171 208.784C332.276 208.925 332.442 209.06 332.67 209.188C332.898 209.315 333.335 209.5 333.982 209.741C334.871 210.065 335.47 210.391 335.78 210.719C336.095 211.047 336.252 211.459 336.252 211.956ZM341.099 214.137C340.014 214.137 339.173 213.804 338.576 213.139C337.984 212.469 337.688 211.523 337.688 210.302C337.688 209.049 337.988 208.08 338.59 207.396C339.196 206.713 340.057 206.371 341.174 206.371C341.534 206.371 341.894 206.41 342.254 206.487C342.614 206.565 342.896 206.656 343.102 206.761L342.753 207.725C342.502 207.624 342.229 207.542 341.933 207.479C341.636 207.41 341.374 207.376 341.146 207.376C339.624 207.376 338.863 208.347 338.863 210.288C338.863 211.209 339.048 211.915 339.417 212.407C339.791 212.899 340.342 213.146 341.071 213.146C341.696 213.146 342.336 213.011 342.992 212.742V213.747C342.491 214.007 341.86 214.137 341.099 214.137ZM348.194 206.371C348.527 206.371 348.826 206.398 349.09 206.453L348.933 207.506C348.623 207.438 348.349 207.403 348.112 207.403C347.506 207.403 346.987 207.649 346.554 208.142C346.125 208.634 345.911 209.247 345.911 209.98V214H344.776V206.508H345.713L345.843 207.896H345.897C346.175 207.408 346.51 207.032 346.902 206.768C347.294 206.503 347.725 206.371 348.194 206.371ZM351.626 214H350.491V206.508H351.626V214ZM350.396 204.478C350.396 204.218 350.459 204.029 350.587 203.91C350.715 203.787 350.874 203.726 351.065 203.726C351.248 203.726 351.405 203.787 351.537 203.91C351.669 204.033 351.735 204.222 351.735 204.478C351.735 204.733 351.669 204.924 351.537 205.052C351.405 205.175 351.248 205.236 351.065 205.236C350.874 205.236 350.715 205.175 350.587 205.052C350.459 204.924 350.396 204.733 350.396 204.478ZM357.519 214.137C357.031 214.137 356.584 214.048 356.179 213.87C355.778 213.688 355.44 213.41 355.167 213.036H355.085C355.14 213.474 355.167 213.888 355.167 214.28V217.363H354.032V206.508H354.955L355.112 207.533H355.167C355.459 207.123 355.798 206.827 356.186 206.645C356.573 206.462 357.017 206.371 357.519 206.371C358.512 206.371 359.278 206.711 359.815 207.39C360.358 208.069 360.629 209.021 360.629 210.247C360.629 211.478 360.353 212.435 359.802 213.118C359.255 213.797 358.494 214.137 357.519 214.137ZM357.354 207.335C356.589 207.335 356.035 207.547 355.693 207.971C355.352 208.395 355.176 209.069 355.167 209.994V210.247C355.167 211.3 355.342 212.054 355.693 212.51C356.044 212.961 356.607 213.187 357.382 213.187C358.029 213.187 358.535 212.924 358.899 212.4C359.269 211.876 359.453 211.154 359.453 210.233C359.453 209.299 359.269 208.584 358.899 208.087C358.535 207.586 358.02 207.335 357.354 207.335ZM365.038 213.2C365.239 213.2 365.432 213.187 365.619 213.159C365.806 213.127 365.954 213.095 366.063 213.063V213.932C365.94 213.991 365.758 214.039 365.517 214.075C365.28 214.116 365.065 214.137 364.874 214.137C363.425 214.137 362.7 213.373 362.7 211.847V207.39H361.627V206.843L362.7 206.371L363.179 204.771H363.835V206.508H366.009V207.39H363.835V211.799C363.835 212.25 363.942 212.596 364.156 212.838C364.37 213.079 364.664 213.2 365.038 213.2ZM368.702 214H367.567V206.508H368.702V214ZM367.472 204.478C367.472 204.218 367.535 204.029 367.663 203.91C367.791 203.787 367.95 203.726 368.142 203.726C368.324 203.726 368.481 203.787 368.613 203.91C368.745 204.033 368.812 204.222 368.812 204.478C368.812 204.733 368.745 204.924 368.613 205.052C368.481 205.175 368.324 205.236 368.142 205.236C367.95 205.236 367.791 205.175 367.663 205.052C367.535 204.924 367.472 204.733 367.472 204.478ZM377.575 210.247C377.575 211.468 377.268 212.423 376.652 213.111C376.037 213.795 375.187 214.137 374.103 214.137C373.433 214.137 372.838 213.979 372.318 213.665C371.799 213.351 371.398 212.899 371.115 212.312C370.833 211.724 370.691 211.035 370.691 210.247C370.691 209.026 370.997 208.076 371.607 207.396C372.218 206.713 373.066 206.371 374.15 206.371C375.199 206.371 376.03 206.72 376.646 207.417C377.265 208.114 377.575 209.058 377.575 210.247ZM371.867 210.247C371.867 211.204 372.059 211.933 372.441 212.435C372.824 212.936 373.387 213.187 374.13 213.187C374.873 213.187 375.436 212.938 375.818 212.441C376.206 211.94 376.399 211.209 376.399 210.247C376.399 209.295 376.206 208.572 375.818 208.08C375.436 207.583 374.868 207.335 374.116 207.335C373.373 207.335 372.813 207.579 372.435 208.066C372.056 208.554 371.867 209.281 371.867 210.247ZM384.698 214V209.153C384.698 208.543 384.559 208.087 384.281 207.786C384.003 207.485 383.568 207.335 382.976 207.335C382.192 207.335 381.618 207.547 381.253 207.971C380.888 208.395 380.706 209.094 380.706 210.069V214H379.571V206.508H380.494L380.679 207.533H380.733C380.966 207.164 381.292 206.879 381.711 206.679C382.13 206.474 382.597 206.371 383.112 206.371C384.015 206.371 384.694 206.59 385.149 207.027C385.605 207.46 385.833 208.155 385.833 209.112V214H384.698ZM393.004 211.956C393.004 212.653 392.744 213.191 392.225 213.569C391.705 213.948 390.976 214.137 390.037 214.137C389.044 214.137 388.269 213.979 387.713 213.665V212.612C388.073 212.795 388.458 212.938 388.868 213.043C389.283 213.148 389.682 213.2 390.064 213.2C390.657 213.2 391.113 213.107 391.432 212.92C391.751 212.729 391.91 212.439 391.91 212.052C391.91 211.76 391.783 211.512 391.527 211.307C391.277 211.097 390.785 210.851 390.051 210.568C389.354 210.309 388.857 210.083 388.561 209.892C388.269 209.696 388.05 209.475 387.904 209.229C387.763 208.982 387.692 208.688 387.692 208.347C387.692 207.736 387.941 207.255 388.438 206.904C388.934 206.549 389.616 206.371 390.481 206.371C391.288 206.371 392.076 206.535 392.847 206.863L392.443 207.786C391.691 207.476 391.01 207.321 390.399 207.321C389.862 207.321 389.456 207.406 389.183 207.574C388.909 207.743 388.772 207.975 388.772 208.271C388.772 208.472 388.823 208.643 388.923 208.784C389.028 208.925 389.194 209.06 389.422 209.188C389.65 209.315 390.087 209.5 390.734 209.741C391.623 210.065 392.222 210.391 392.532 210.719C392.847 211.047 393.004 211.459 393.004 211.956Z" fill="#171717"/>
<rect x="271" y="198" width="20" height="20" rx="2" fill="#E4B4B8"/>
<path d="M79.5586 53H76.5312V41.2422H72.6543V38.7227H83.4355V41.2422H79.5586V53ZM91.4922 41.877C91.8958 41.877 92.2311 41.9062 92.498 41.9648L92.2734 44.7578C92.0326 44.6927 91.7396 44.6602 91.3945 44.6602C90.444 44.6602 89.7018 44.9043 89.168 45.3926C88.6406 45.8809 88.377 46.5645 88.377 47.4434V53H85.3984V42.082H87.6543L88.0938 43.918H88.2402C88.5788 43.306 89.0345 42.8145 89.6074 42.4434C90.1868 42.0658 90.8151 41.877 91.4922 41.877ZM101.414 53L100.838 51.5156H100.76C100.258 52.1471 99.7409 52.5866 99.207 52.834C98.6797 53.0749 97.9896 53.1953 97.1367 53.1953C96.0885 53.1953 95.2617 52.8958 94.6562 52.2969C94.0573 51.6979 93.7578 50.8451 93.7578 49.7383C93.7578 48.5794 94.1615 47.7266 94.9688 47.1797C95.7826 46.6263 97.0065 46.3203 98.6406 46.2617L100.535 46.2031V45.7246C100.535 44.6178 99.9688 44.0645 98.8359 44.0645C97.9635 44.0645 96.9382 44.3281 95.7598 44.8555L94.7734 42.8438C96.0299 42.1862 97.4232 41.8574 98.9531 41.8574C100.418 41.8574 101.541 42.1764 102.322 42.8145C103.104 43.4525 103.494 44.4225 103.494 45.7246V53H101.414ZM100.535 47.9414L99.3828 47.9805C98.5169 48.0065 97.8724 48.1628 97.4492 48.4492C97.026 48.7357 96.8145 49.1719 96.8145 49.7578C96.8145 50.5977 97.2962 51.0176 98.2598 51.0176C98.9499 51.0176 99.5 50.819 99.9102 50.4219C100.327 50.0247 100.535 49.4974 100.535 48.8398V47.9414ZM116.648 53H113.67V46.623C113.67 45.8353 113.53 45.2461 113.25 44.8555C112.97 44.4583 112.524 44.2598 111.912 44.2598C111.079 44.2598 110.477 44.5397 110.105 45.0996C109.734 45.653 109.549 46.5742 109.549 47.8633V53H106.57V42.082H108.846L109.246 43.4785H109.412C109.744 42.9512 110.2 42.554 110.779 42.2871C111.365 42.0137 112.029 41.877 112.771 41.877C114.041 41.877 115.005 42.222 115.662 42.9121C116.32 43.5957 116.648 44.5853 116.648 45.8809V53ZM127.332 49.7578C127.332 50.8776 126.941 51.7305 126.16 52.3164C125.385 52.9023 124.223 53.1953 122.674 53.1953C121.88 53.1953 121.202 53.14 120.643 53.0293C120.083 52.9251 119.559 52.7689 119.07 52.5605V50.0996C119.624 50.36 120.245 50.5781 120.936 50.7539C121.632 50.9297 122.244 51.0176 122.771 51.0176C123.852 51.0176 124.393 50.7051 124.393 50.0801C124.393 49.8457 124.321 49.6569 124.178 49.5137C124.035 49.3639 123.787 49.1979 123.436 49.0156C123.084 48.8268 122.615 48.6087 122.029 48.3613C121.189 48.0098 120.571 47.6842 120.174 47.3848C119.783 47.0853 119.497 46.7435 119.314 46.3594C119.139 45.9688 119.051 45.4902 119.051 44.9238C119.051 43.9538 119.425 43.2051 120.174 42.6777C120.929 42.1439 121.997 41.877 123.377 41.877C124.692 41.877 125.971 42.1634 127.215 42.7363L126.316 44.8848C125.77 44.6504 125.258 44.4583 124.783 44.3086C124.308 44.1589 123.823 44.084 123.328 44.084C122.449 44.084 122.01 44.3216 122.01 44.7969C122.01 45.0638 122.15 45.2949 122.43 45.4902C122.716 45.6855 123.338 45.9753 124.295 46.3594C125.148 46.7044 125.773 47.0267 126.17 47.3262C126.567 47.6257 126.86 47.9707 127.049 48.3613C127.238 48.752 127.332 49.2174 127.332 49.7578ZM136.59 53L136.014 51.5156H135.936C135.434 52.1471 134.917 52.5866 134.383 52.834C133.855 53.0749 133.165 53.1953 132.312 53.1953C131.264 53.1953 130.438 52.8958 129.832 52.2969C129.233 51.6979 128.934 50.8451 128.934 49.7383C128.934 48.5794 129.337 47.7266 130.145 47.1797C130.958 46.6263 132.182 46.3203 133.816 46.2617L135.711 46.2031V45.7246C135.711 44.6178 135.145 44.0645 134.012 44.0645C133.139 44.0645 132.114 44.3281 130.936 44.8555L129.949 42.8438C131.206 42.1862 132.599 41.8574 134.129 41.8574C135.594 41.8574 136.717 42.1764 137.498 42.8145C138.279 43.4525 138.67 44.4225 138.67 45.7246V53H136.59ZM135.711 47.9414L134.559 47.9805C133.693 48.0065 133.048 48.1628 132.625 48.4492C132.202 48.7357 131.99 49.1719 131.99 49.7578C131.99 50.5977 132.472 51.0176 133.436 51.0176C134.126 51.0176 134.676 50.819 135.086 50.4219C135.503 50.0247 135.711 49.4974 135.711 48.8398V47.9414ZM146.18 53.1953C142.781 53.1953 141.082 51.3301 141.082 47.5996C141.082 45.7441 141.544 44.3281 142.469 43.3516C143.393 42.3685 144.718 41.877 146.443 41.877C147.706 41.877 148.839 42.1243 149.842 42.6191L148.963 44.9238C148.494 44.735 148.058 44.582 147.654 44.4648C147.251 44.3411 146.847 44.2793 146.443 44.2793C144.894 44.2793 144.119 45.3796 144.119 47.5801C144.119 49.7155 144.894 50.7832 146.443 50.7832C147.016 50.7832 147.547 50.7083 148.035 50.5586C148.523 50.4023 149.012 50.1615 149.5 49.8359V52.3848C149.018 52.6908 148.53 52.9023 148.035 53.0195C147.547 53.1367 146.928 53.1953 146.18 53.1953ZM156.639 50.8223C157.16 50.8223 157.785 50.7083 158.514 50.4805V52.6973C157.771 53.0293 156.86 53.1953 155.779 53.1953C154.588 53.1953 153.719 52.8958 153.172 52.2969C152.632 51.6914 152.361 50.7865 152.361 49.582V44.3184H150.936V43.0586L152.576 42.0625L153.436 39.7578H155.34V42.082H158.396V44.3184H155.34V49.582C155.34 50.0052 155.457 50.3177 155.691 50.5195C155.932 50.7214 156.248 50.8223 156.639 50.8223ZM160.604 39.2598C160.604 38.2897 161.144 37.8047 162.225 37.8047C163.305 37.8047 163.846 38.2897 163.846 39.2598C163.846 39.722 163.709 40.0833 163.436 40.3438C163.169 40.5977 162.765 40.7246 162.225 40.7246C161.144 40.7246 160.604 40.2363 160.604 39.2598ZM163.709 53H160.73V42.082H163.709V53ZM169.217 47.5215C169.217 48.6022 169.393 49.4193 169.744 49.9727C170.102 50.526 170.682 50.8027 171.482 50.8027C172.277 50.8027 172.846 50.5293 173.191 49.9824C173.543 49.429 173.719 48.6087 173.719 47.5215C173.719 46.4408 173.543 45.6302 173.191 45.0898C172.84 44.5495 172.264 44.2793 171.463 44.2793C170.669 44.2793 170.096 44.5495 169.744 45.0898C169.393 45.6237 169.217 46.4342 169.217 47.5215ZM176.766 47.5215C176.766 49.2988 176.297 50.6888 175.359 51.6914C174.422 52.694 173.117 53.1953 171.443 53.1953C170.395 53.1953 169.471 52.9674 168.67 52.5117C167.869 52.0495 167.254 51.3887 166.824 50.5293C166.395 49.6699 166.18 48.6673 166.18 47.5215C166.18 45.7376 166.645 44.3509 167.576 43.3613C168.507 42.3717 169.816 41.877 171.502 41.877C172.55 41.877 173.475 42.1048 174.275 42.5605C175.076 43.0163 175.691 43.6706 176.121 44.5234C176.551 45.3763 176.766 46.3757 176.766 47.5215ZM189.305 53H186.326V46.623C186.326 45.8353 186.186 45.2461 185.906 44.8555C185.626 44.4583 185.18 44.2598 184.568 44.2598C183.735 44.2598 183.133 44.5397 182.762 45.0996C182.391 45.653 182.205 46.5742 182.205 47.8633V53H179.227V42.082H181.502L181.902 43.4785H182.068C182.4 42.9512 182.856 42.554 183.436 42.2871C184.021 42.0137 184.686 41.877 185.428 41.877C186.697 41.877 187.661 42.222 188.318 42.9121C188.976 43.5957 189.305 44.5853 189.305 45.8809V53ZM207.645 53H204.666V46.623C204.666 45.0475 204.08 44.2598 202.908 44.2598C202.075 44.2598 201.473 44.543 201.102 45.1094C200.73 45.6758 200.545 46.5938 200.545 47.8633V53H197.566V37.8047H200.545V40.9004C200.545 41.1413 200.522 41.7077 200.477 42.5996L200.408 43.4785H200.564C201.229 42.4108 202.283 41.877 203.729 41.877C205.011 41.877 205.984 42.222 206.648 42.9121C207.312 43.6022 207.645 44.5918 207.645 45.8809V53ZM210.584 39.2598C210.584 38.2897 211.124 37.8047 212.205 37.8047C213.286 37.8047 213.826 38.2897 213.826 39.2598C213.826 39.722 213.689 40.0833 213.416 40.3438C213.149 40.5977 212.745 40.7246 212.205 40.7246C211.124 40.7246 210.584 40.2363 210.584 39.2598ZM213.689 53H210.711V42.082H213.689V53ZM224.441 49.7578C224.441 50.8776 224.051 51.7305 223.27 52.3164C222.495 52.9023 221.333 53.1953 219.783 53.1953C218.989 53.1953 218.312 53.14 217.752 53.0293C217.192 52.9251 216.668 52.7689 216.18 52.5605V50.0996C216.733 50.36 217.355 50.5781 218.045 50.7539C218.742 50.9297 219.354 51.0176 219.881 51.0176C220.962 51.0176 221.502 50.7051 221.502 50.0801C221.502 49.8457 221.43 49.6569 221.287 49.5137C221.144 49.3639 220.896 49.1979 220.545 49.0156C220.193 48.8268 219.725 48.6087 219.139 48.3613C218.299 48.0098 217.68 47.6842 217.283 47.3848C216.893 47.0853 216.606 46.7435 216.424 46.3594C216.248 45.9688 216.16 45.4902 216.16 44.9238C216.16 43.9538 216.535 43.2051 217.283 42.6777C218.038 42.1439 219.106 41.877 220.486 41.877C221.801 41.877 223.081 42.1634 224.324 42.7363L223.426 44.8848C222.879 44.6504 222.368 44.4583 221.893 44.3086C221.417 44.1589 220.932 44.084 220.438 44.084C219.559 44.084 219.119 44.3216 219.119 44.7969C219.119 45.0638 219.259 45.2949 219.539 45.4902C219.826 45.6855 220.447 45.9753 221.404 46.3594C222.257 46.7044 222.882 47.0267 223.279 47.3262C223.676 47.6257 223.969 47.9707 224.158 48.3613C224.347 48.752 224.441 49.2174 224.441 49.7578ZM231.365 50.8223C231.886 50.8223 232.511 50.7083 233.24 50.4805V52.6973C232.498 53.0293 231.587 53.1953 230.506 53.1953C229.314 53.1953 228.445 52.8958 227.898 52.2969C227.358 51.6914 227.088 50.7865 227.088 49.582V44.3184H225.662V43.0586L227.303 42.0625L228.162 39.7578H230.066V42.082H233.123V44.3184H230.066V49.582C230.066 50.0052 230.184 50.3177 230.418 50.5195C230.659 50.7214 230.975 50.8223 231.365 50.8223ZM237.83 47.5215C237.83 48.6022 238.006 49.4193 238.357 49.9727C238.715 50.526 239.295 50.8027 240.096 50.8027C240.89 50.8027 241.46 50.5293 241.805 49.9824C242.156 49.429 242.332 48.6087 242.332 47.5215C242.332 46.4408 242.156 45.6302 241.805 45.0898C241.453 44.5495 240.877 44.2793 240.076 44.2793C239.282 44.2793 238.709 44.5495 238.357 45.0898C238.006 45.6237 237.83 46.4342 237.83 47.5215ZM245.379 47.5215C245.379 49.2988 244.91 50.6888 243.973 51.6914C243.035 52.694 241.73 53.1953 240.057 53.1953C239.008 53.1953 238.084 52.9674 237.283 52.5117C236.482 52.0495 235.867 51.3887 235.438 50.5293C235.008 49.6699 234.793 48.6673 234.793 47.5215C234.793 45.7376 235.258 44.3509 236.189 43.3613C237.12 42.3717 238.429 41.877 240.115 41.877C241.163 41.877 242.088 42.1048 242.889 42.5605C243.689 43.0163 244.305 43.6706 244.734 44.5234C245.164 45.3763 245.379 46.3757 245.379 47.5215ZM253.934 41.877C254.337 41.877 254.673 41.9062 254.939 41.9648L254.715 44.7578C254.474 44.6927 254.181 44.6602 253.836 44.6602C252.885 44.6602 252.143 44.9043 251.609 45.3926C251.082 45.8809 250.818 46.5645 250.818 47.4434V53H247.84V42.082H250.096L250.535 43.918H250.682C251.02 43.306 251.476 42.8145 252.049 42.4434C252.628 42.0658 253.257 41.877 253.934 41.877ZM255.359 42.082H258.621L260.682 48.2246C260.857 48.7585 260.978 49.39 261.043 50.1191H261.102C261.173 49.4486 261.313 48.8171 261.521 48.2246L263.543 42.082H266.736L262.117 54.3965C261.694 55.5358 261.089 56.3887 260.301 56.9551C259.52 57.5215 258.605 57.8047 257.557 57.8047C257.042 57.8047 256.538 57.7493 256.043 57.6387V55.2754C256.401 55.36 256.792 55.4023 257.215 55.4023C257.742 55.4023 258.201 55.2396 258.592 54.9141C258.989 54.5951 259.298 54.11 259.52 53.459L259.695 52.9219L255.359 42.082Z" fill="#1F1F1F"/>
<path d="M232.718 174.5C232.718 226.139 190.856 268 139.218 268C87.5791 268 45.7177 226.139 45.7177 174.5C45.7177 122.861 87.5791 81 139.218 81C190.856 81 232.718 122.861 232.718 174.5ZM82.3947 174.5C82.3947 205.882 107.835 231.323 139.218 231.323C170.6 231.323 196.041 205.882 196.041 174.5C196.041 143.118 170.6 117.677 139.218 117.677C107.835 117.677 82.3947 143.118 82.3947 174.5Z" fill="#B3404A"/>
<path d="M202.145 176.202H199.743V174.843H202.145V172.423H203.504V174.843H205.905V176.202H203.504V178.591H202.145V176.202ZM211.707 180H209.79V174.75L209.808 173.888L209.839 172.944C209.521 173.263 209.299 173.472 209.175 173.571L208.133 174.409L207.208 173.255L210.131 170.928H211.707V180ZM220.569 180H214.227V178.666L216.504 176.364C217.178 175.673 217.619 175.195 217.826 174.93C218.033 174.661 218.181 174.413 218.273 174.186C218.364 173.958 218.409 173.722 218.409 173.478C218.409 173.114 218.308 172.843 218.105 172.665C217.906 172.487 217.64 172.398 217.304 172.398C216.953 172.398 216.612 172.479 216.281 172.64C215.95 172.802 215.604 173.031 215.244 173.329L214.202 172.094C214.649 171.714 215.019 171.445 215.313 171.288C215.606 171.13 215.927 171.01 216.274 170.928C216.622 170.841 217.011 170.797 217.441 170.797C218.008 170.797 218.508 170.901 218.943 171.108C219.377 171.314 219.714 171.604 219.954 171.976C220.194 172.349 220.314 172.775 220.314 173.255C220.314 173.673 220.24 174.066 220.091 174.434C219.946 174.798 219.718 175.172 219.408 175.557C219.102 175.942 218.56 176.49 217.782 177.201L216.616 178.3V178.387H220.569V180ZM227.779 175.464C227.779 177.048 227.519 178.221 226.997 178.982C226.48 179.744 225.682 180.124 224.602 180.124C223.555 180.124 222.765 179.731 222.232 178.945C221.702 178.159 221.437 176.999 221.437 175.464C221.437 173.863 221.696 172.684 222.213 171.927C222.73 171.166 223.526 170.785 224.602 170.785C225.649 170.785 226.439 171.182 226.973 171.976C227.51 172.771 227.779 173.933 227.779 175.464ZM223.342 175.464C223.342 176.577 223.437 177.375 223.628 177.859C223.822 178.339 224.147 178.579 224.602 178.579C225.049 178.579 225.372 178.335 225.57 177.847C225.769 177.359 225.868 176.564 225.868 175.464C225.868 174.351 225.767 173.553 225.564 173.069C225.365 172.58 225.045 172.336 224.602 172.336C224.151 172.336 223.828 172.58 223.634 173.069C223.44 173.553 223.342 174.351 223.342 175.464Z" fill="white"/>
<path d="M45.7177 174.5C45.7177 162.221 48.1362 150.063 52.835 138.719C57.5338 127.375 64.421 117.068 73.1033 108.385C81.7856 99.7032 92.0929 92.816 103.437 88.1172C114.781 83.4184 126.939 81 139.218 81L139.218 117.788C131.77 117.788 124.396 119.255 117.515 122.105C110.635 124.955 104.383 129.133 99.1165 134.399C93.8504 139.665 89.673 145.917 86.823 152.797C83.9729 159.678 82.5061 167.053 82.5061 174.5H45.7177Z" fill="#CE787F"/>
<path d="M99.9883 266.005C81.2188 259.182 65.0606 246.456 53.8294 229.65C42.5982 212.844 36.8707 192.821 37.4677 172.452L82.4355 173.482C82.1199 184.252 84.6554 195.048 90.5936 203.934C96.5318 212.819 104.293 221.361 114.217 224.969L99.9883 266.005Z" fill="#E4B4B8"/>
<path d="M72.7748 127.202H70.3732V125.843H72.7748V123.423H74.1337V125.843H76.5352V127.202H74.1337V129.591H72.7748V127.202ZM80.8977 125.204C81.7747 125.204 82.4718 125.45 82.9889 125.943C83.5102 126.435 83.7708 127.109 83.7708 127.966C83.7708 128.979 83.4584 129.759 82.8338 130.305C82.2091 130.851 81.3155 131.124 80.153 131.124C79.1436 131.124 78.3286 130.961 77.7081 130.634V128.977C78.0349 129.151 78.4155 129.294 78.8499 129.405C79.2843 129.513 79.6959 129.567 80.0848 129.567C81.2555 129.567 81.8409 129.087 81.8409 128.127C81.8409 127.213 81.2348 126.755 80.0227 126.755C79.8034 126.755 79.5614 126.778 79.2967 126.824C79.0319 126.865 78.8168 126.911 78.6513 126.96L77.888 126.551L78.2293 121.928H83.1502V123.553H79.911L79.7435 125.334L79.9606 125.291C80.213 125.233 80.5253 125.204 80.8977 125.204ZM91.1491 126.464C91.1491 128.048 90.8884 129.221 90.3672 129.982C89.85 130.744 89.0516 131.124 87.9719 131.124C86.9252 131.124 86.1351 130.731 85.6014 129.945C85.0719 129.159 84.8071 127.999 84.8071 126.464C84.8071 124.863 85.0657 123.684 85.5828 122.927C86.0999 122.166 86.8963 121.785 87.9719 121.785C89.0185 121.785 89.8087 122.182 90.3423 122.976C90.8802 123.771 91.1491 124.933 91.1491 126.464ZM86.7122 126.464C86.7122 127.577 86.8073 128.375 86.9976 128.859C87.1921 129.339 87.5168 129.579 87.9719 129.579C88.4187 129.579 88.7413 129.335 88.9399 128.847C89.1385 128.359 89.2378 127.564 89.2378 126.464C89.2378 125.351 89.1364 124.553 88.9337 124.069C88.7351 123.58 88.4145 123.336 87.9719 123.336C87.5209 123.336 87.1983 123.58 87.0038 124.069C86.8094 124.553 86.7122 125.351 86.7122 126.464Z" fill="white"/>
<path d="M66.7748 218.202H64.3732V216.843H66.7748V214.423H68.1337V216.843H70.5352V218.202H68.1337V220.591H66.7748V218.202ZM77.9383 222H71.5964V220.666L73.8738 218.364C74.5481 217.673 74.9887 217.195 75.1955 216.93C75.4024 216.661 75.5513 216.413 75.6423 216.186C75.7333 215.958 75.7788 215.722 75.7788 215.478C75.7788 215.114 75.6775 214.843 75.4748 214.665C75.2762 214.487 75.0094 214.398 74.6743 214.398C74.3226 214.398 73.9813 214.479 73.6504 214.64C73.3194 214.802 72.974 215.031 72.6141 215.329L71.5716 214.094C72.0183 213.714 72.3886 213.445 72.6823 213.288C72.9761 213.13 73.2967 213.01 73.6442 212.928C73.9917 212.841 74.3806 212.797 74.8108 212.797C75.3776 212.797 75.8781 212.901 76.3125 213.108C76.7469 213.314 77.0841 213.604 77.324 213.976C77.5639 214.349 77.6839 214.775 77.6839 215.255C77.6839 215.673 77.6094 216.066 77.4605 216.434C77.3157 216.798 77.0882 217.172 76.7779 217.557C76.4718 217.942 75.9298 218.49 75.1521 219.201L73.9855 220.3V220.387H77.9383V222ZM85.1491 217.464C85.1491 219.048 84.8884 220.221 84.3672 220.982C83.85 221.744 83.0516 222.124 81.9719 222.124C80.9252 222.124 80.1351 221.731 79.6014 220.945C79.0719 220.159 78.8071 218.999 78.8071 217.464C78.8071 215.863 79.0657 214.684 79.5828 213.927C80.0999 213.166 80.8963 212.785 81.9719 212.785C83.0185 212.785 83.8087 213.182 84.3423 213.976C84.8802 214.771 85.1491 215.933 85.1491 217.464ZM80.7122 217.464C80.7122 218.577 80.8073 219.375 80.9976 219.859C81.1921 220.339 81.5168 220.579 81.9719 220.579C82.4187 220.579 82.7413 220.335 82.9399 219.847C83.1385 219.359 83.2378 218.564 83.2378 217.464C83.2378 216.351 83.1364 215.553 82.9337 215.069C82.7351 214.58 82.4145 214.336 81.9719 214.336C81.5209 214.336 81.1983 214.58 81.0038 215.069C80.8094 215.553 80.7122 216.351 80.7122 217.464Z" fill="white"/>
<path d="M33.4062 45.9996C33.4062 44.0096 33.9609 42.0707 35.0102 40.3922C35.7439 39.2186 36.6973 38.2051 37.8107 37.4023L37.3954 39.2013L38.7656 39.5177L39.7146 35.407L35.604 34.458L35.2876 35.8282L37.0297 36.2304C35.7509 37.144 34.6575 38.3033 33.8177 39.6467C32.6285 41.549 32 43.7458 32 45.9996C32 49.2049 33.2482 52.2184 35.5147 54.4849C37.7812 56.7514 40.7947 57.9996 44 57.9996V56.5933C41.1703 56.5933 38.51 55.4914 36.5091 53.4905C34.5082 51.4896 33.4062 48.8293 33.4062 45.9996Z" fill="#B3404A"/>
<path d="M54.1823 52.3528C55.3715 50.4505 56 48.2538 56 46C56 42.7947 54.7518 39.7812 52.4853 37.5147C50.2188 35.2482 47.2053 34 44 34V35.4062C46.8297 35.4062 49.49 36.5082 51.4909 38.5091C53.4918 40.51 54.5938 43.1703 54.5938 46C54.5938 47.9899 54.0391 49.9289 52.9898 51.6074C52.2561 52.781 51.3027 53.7945 50.1893 54.5972L50.6046 52.7983L49.2344 52.4819L48.2854 56.5925L52.396 57.5416L52.7124 56.1714L50.9703 55.7692C52.249 54.8555 53.3424 53.6962 54.1823 52.3528Z" fill="#B3404A"/>
<path d="M47.4473 50.4417L48.4747 51.469L49.469 50.4747L48.4417 49.4473C49.0469 48.6692 49.4527 47.7288 49.5811 46.7031H51.0312V45.2969H49.5811C49.4526 44.2713 49.0469 43.3307 48.4417 42.5527L49.469 41.5253L48.4747 40.531L47.4473 41.5583C46.6692 40.9531 45.7288 40.5473 44.7031 40.4189V38.9688H43.2969V40.4189C42.2713 40.5473 41.3307 40.9531 40.5527 41.5583L39.5253 40.531L38.531 41.5253L39.5583 42.5527C38.9531 43.3307 38.5473 44.2713 38.4189 45.2969H36.9688V46.7031H38.4189C38.5474 47.7288 38.9531 48.6692 39.5583 49.4473L38.531 50.4747L39.5253 51.469L40.5527 50.4417C41.3307 51.0469 42.2713 51.4527 43.2969 51.5811V53.0312H44.7031V51.5811C45.7288 51.4527 46.6692 51.0469 47.4473 50.4417ZM46.8125 45.2969V46.7031H43.2969V43.1875H44.7031V45.2969H46.8125Z" fill="#B3404A"/>
<path d="M358.09 53H356.689V45.6348H354.17V44.4336H360.609V45.6348H358.09V53ZM367.529 49.748C367.529 50.8066 367.258 51.6328 366.715 52.2266C366.172 52.8203 365.416 53.1172 364.447 53.1172C363.842 53.1172 363.307 52.9805 362.842 52.707C362.377 52.4336 362.02 52.041 361.77 51.5293C361.52 51.0176 361.395 50.4238 361.395 49.748C361.395 48.6973 361.664 47.877 362.203 47.2871C362.742 46.6973 363.502 46.4023 364.482 46.4023C365.42 46.4023 366.162 46.7051 366.709 47.3105C367.256 47.9121 367.529 48.7246 367.529 49.748ZM362.812 49.748C362.812 51.2441 363.365 51.9922 364.471 51.9922C365.564 51.9922 366.111 51.2441 366.111 49.748C366.111 48.2676 365.561 47.5273 364.459 47.5273C363.881 47.5273 363.461 47.7188 363.199 48.1016C362.941 48.4844 362.812 49.0332 362.812 49.748ZM371.303 53.1172C370.494 53.1172 369.863 52.8242 369.41 52.2383C368.957 51.6523 368.73 50.8301 368.73 49.7715C368.73 48.709 368.959 47.8828 369.416 47.293C369.877 46.6992 370.514 46.4023 371.326 46.4023C372.178 46.4023 372.826 46.7168 373.271 47.3457H373.342C373.275 46.8809 373.242 46.5137 373.242 46.2441V43.8828H374.625V53H373.547L373.307 52.1504H373.242C372.801 52.7949 372.154 53.1172 371.303 53.1172ZM371.672 52.0039C372.238 52.0039 372.65 51.8457 372.908 51.5293C373.166 51.209 373.299 50.6914 373.307 49.9766V49.7832C373.307 48.9668 373.174 48.3867 372.908 48.043C372.643 47.6992 372.227 47.5273 371.66 47.5273C371.176 47.5273 370.803 47.7246 370.541 48.1191C370.279 48.5098 370.148 49.0684 370.148 49.7949C370.148 50.5137 370.275 51.0625 370.529 51.4414C370.783 51.8164 371.164 52.0039 371.672 52.0039ZM380.648 53L380.373 52.0977H380.326C380.014 52.4922 379.699 52.7617 379.383 52.9062C379.066 53.0469 378.66 53.1172 378.164 53.1172C377.527 53.1172 377.029 52.9453 376.67 52.6016C376.314 52.2578 376.137 51.7715 376.137 51.1426C376.137 50.4746 376.385 49.9707 376.881 49.6309C377.377 49.291 378.133 49.1055 379.148 49.0742L380.268 49.0391V48.6934C380.268 48.2793 380.17 47.9707 379.975 47.7676C379.783 47.5605 379.484 47.457 379.078 47.457C378.746 47.457 378.428 47.5059 378.123 47.6035C377.818 47.7012 377.525 47.8164 377.244 47.9492L376.799 46.9648C377.15 46.7812 377.535 46.6426 377.953 46.5488C378.371 46.4512 378.766 46.4023 379.137 46.4023C379.961 46.4023 380.582 46.582 381 46.9414C381.422 47.3008 381.633 47.8652 381.633 48.6348V53H380.648ZM378.598 52.0625C379.098 52.0625 379.498 51.9238 379.799 51.6465C380.104 51.3652 380.256 50.9727 380.256 50.4688V49.9062L379.424 49.9414C378.775 49.9648 378.303 50.0742 378.006 50.2695C377.713 50.4609 377.566 50.7559 377.566 51.1543C377.566 51.4434 377.652 51.668 377.824 51.8281C377.996 51.9844 378.254 52.0625 378.598 52.0625ZM382.57 46.5195H384.07L385.389 50.1934C385.588 50.7168 385.721 51.209 385.787 51.6699H385.834C385.869 51.4551 385.934 51.1953 386.027 50.8906C386.121 50.582 386.617 49.125 387.516 46.5195H389.004L386.232 53.8613C385.729 55.209 384.889 55.8828 383.713 55.8828C383.408 55.8828 383.111 55.8496 382.822 55.7832V54.6934C383.029 54.7402 383.266 54.7637 383.531 54.7637C384.195 54.7637 384.662 54.3789 384.932 53.6094L385.172 53L382.57 46.5195ZM391.418 51.7402C391.23 52.4668 390.887 53.4023 390.387 54.5469H389.373C389.643 53.4922 389.844 52.5117 389.977 51.6055H391.33L391.418 51.7402ZM399.902 53H398.525V47.4688C398.525 46.8086 398.541 46.2852 398.572 45.8984C398.482 45.9922 398.371 46.0957 398.238 46.209C398.109 46.3223 397.672 46.6816 396.926 47.2871L396.234 46.4141L398.754 44.4336H399.902V53ZM408.826 51.1309H407.672V53H406.33V51.1309H402.416V50.0703L406.33 44.4102H407.672V49.9883H408.826V51.1309ZM406.33 49.9883V47.8379C406.33 47.0723 406.35 46.4453 406.389 45.957H406.342C406.232 46.2148 406.061 46.5273 405.826 46.8945L403.699 49.9883H406.33ZM418.605 53L417.75 50.6211H414.475L413.637 53H412.16L415.365 44.3984H416.889L420.094 53H418.605ZM417.381 49.4141L416.578 47.082C416.52 46.9258 416.438 46.6797 416.332 46.3438C416.23 46.0078 416.16 45.7617 416.121 45.6055C416.016 46.0859 415.861 46.6113 415.658 47.1816L414.885 49.4141H417.381ZM425.648 53L425.455 52.1504H425.385C425.193 52.4512 424.92 52.6875 424.564 52.8594C424.213 53.0312 423.811 53.1172 423.357 53.1172C422.572 53.1172 421.986 52.9219 421.6 52.5312C421.213 52.1406 421.02 51.5488 421.02 50.7559V46.5195H422.408V50.5156C422.408 51.0117 422.51 51.3848 422.713 51.6348C422.916 51.8809 423.234 52.0039 423.668 52.0039C424.246 52.0039 424.67 51.832 424.939 51.4883C425.213 51.1406 425.35 50.5605 425.35 49.748V46.5195H426.732V53H425.648ZM434.168 46.5195V47.2754L433.061 47.4805C433.162 47.6172 433.246 47.7852 433.312 47.9844C433.379 48.1836 433.412 48.3945 433.412 48.6172C433.412 49.2852 433.182 49.8105 432.721 50.1934C432.26 50.5762 431.625 50.7676 430.816 50.7676C430.609 50.7676 430.422 50.752 430.254 50.7207C429.957 50.9043 429.809 51.1191 429.809 51.3652C429.809 51.5137 429.877 51.625 430.014 51.6992C430.154 51.7734 430.41 51.8105 430.781 51.8105H431.912C432.627 51.8105 433.17 51.9629 433.541 52.2676C433.912 52.5723 434.098 53.0117 434.098 53.5859C434.098 54.3203 433.795 54.8867 433.189 55.2852C432.584 55.6836 431.709 55.8828 430.564 55.8828C429.682 55.8828 429.008 55.7266 428.543 55.4141C428.078 55.1016 427.846 54.6562 427.846 54.0781C427.846 53.6797 427.971 53.3438 428.221 53.0703C428.475 52.8008 428.828 52.6133 429.281 52.5078C429.098 52.4297 428.945 52.3047 428.824 52.1328C428.707 51.957 428.648 51.7734 428.648 51.582C428.648 51.3398 428.717 51.1348 428.854 50.9668C428.99 50.7988 429.193 50.6328 429.463 50.4688C429.127 50.3242 428.854 50.0898 428.643 49.7656C428.436 49.4375 428.332 49.0547 428.332 48.6172C428.332 47.9141 428.553 47.3691 428.994 46.9824C429.439 46.5957 430.072 46.4023 430.893 46.4023C431.076 46.4023 431.268 46.416 431.467 46.4434C431.67 46.4668 431.822 46.4922 431.924 46.5195H434.168ZM429.076 54.0078C429.076 54.3047 429.209 54.5332 429.475 54.6934C429.744 54.8535 430.121 54.9336 430.605 54.9336C431.355 54.9336 431.914 54.8262 432.281 54.6113C432.648 54.3965 432.832 54.1113 432.832 53.7559C432.832 53.4746 432.73 53.2734 432.527 53.1523C432.328 53.0352 431.955 52.9766 431.408 52.9766H430.365C429.971 52.9766 429.656 53.0684 429.422 53.252C429.191 53.4395 429.076 53.6914 429.076 54.0078ZM429.668 48.6172C429.668 49.0234 429.771 49.3359 429.979 49.5547C430.189 49.7734 430.49 49.8828 430.881 49.8828C431.678 49.8828 432.076 49.457 432.076 48.6055C432.076 48.1836 431.977 47.8594 431.777 47.6328C431.582 47.4023 431.283 47.2871 430.881 47.2871C430.482 47.2871 430.18 47.4004 429.973 47.627C429.77 47.8535 429.668 48.1836 429.668 48.6172ZM439.945 53L439.752 52.1504H439.682C439.49 52.4512 439.217 52.6875 438.861 52.8594C438.51 53.0312 438.107 53.1172 437.654 53.1172C436.869 53.1172 436.283 52.9219 435.896 52.5312C435.51 52.1406 435.316 51.5488 435.316 50.7559V46.5195H436.705V50.5156C436.705 51.0117 436.807 51.3848 437.01 51.6348C437.213 51.8809 437.531 52.0039 437.965 52.0039C438.543 52.0039 438.967 51.832 439.236 51.4883C439.51 51.1406 439.646 50.5605 439.646 49.748V46.5195H441.029V53H439.945ZM447.346 51.1543C447.346 51.7871 447.115 52.2734 446.654 52.6133C446.193 52.9492 445.533 53.1172 444.674 53.1172C443.811 53.1172 443.117 52.9863 442.594 52.7246V51.5352C443.355 51.8867 444.064 52.0625 444.721 52.0625C445.568 52.0625 445.992 51.8066 445.992 51.2949C445.992 51.1309 445.945 50.9941 445.852 50.8848C445.758 50.7754 445.604 50.6621 445.389 50.5449C445.174 50.4277 444.875 50.2949 444.492 50.1465C443.746 49.8574 443.24 49.5684 442.975 49.2793C442.713 48.9902 442.582 48.6152 442.582 48.1543C442.582 47.5996 442.805 47.1699 443.25 46.8652C443.699 46.5566 444.309 46.4023 445.078 46.4023C445.84 46.4023 446.561 46.5566 447.24 46.8652L446.795 47.9023C446.096 47.6133 445.508 47.4688 445.031 47.4688C444.305 47.4688 443.941 47.6758 443.941 48.0898C443.941 48.293 444.035 48.4648 444.223 48.6055C444.414 48.7461 444.828 48.9395 445.465 49.1855C446 49.3926 446.389 49.582 446.631 49.7539C446.873 49.9258 447.053 50.125 447.17 50.3516C447.287 50.5742 447.346 50.8418 447.346 51.1543ZM451.254 52.0039C451.59 52.0039 451.926 51.9512 452.262 51.8457V52.8828C452.109 52.9492 451.912 53.0039 451.67 53.0469C451.432 53.0938 451.184 53.1172 450.926 53.1172C449.621 53.1172 448.969 52.4297 448.969 51.0547V47.5625H448.084V46.9531L449.033 46.4492L449.502 45.0781H450.352V46.5195H452.197V47.5625H450.352V51.0312C450.352 51.3633 450.434 51.6094 450.598 51.7695C450.766 51.9258 450.984 52.0039 451.254 52.0039Z" fill="#6C6C6C"/>
<defs>
<filter id="filter0_d" x="0" y="0" width="495" height="297" filterUnits="userSpaceOnUse" color-interpolation-filters="sRGB">
<feFlood flood-opacity="0" result="BackgroundImageFix"/>
<feColorMatrix in="SourceAlpha" type="matrix" values="0 0 0 0 0 0 0 0 0 0 0 0 0 0 0 0 0 0 127 0"/>
<feOffset/>
<feGaussianBlur stdDeviation="4"/>
<feColorMatrix type="matrix" values="0 0 0 0 0 0 0 0 0 0 0 0 0 0 0 0 0 0 0.25 0"/>
<feBlend mode="normal" in2="BackgroundImageFix" result="effect1_dropShadow"/>
<feBlend mode="normal" in="SourceGraphic" in2="effect1_dropShadow" result="shape"/>
</filter>
</defs>
</svg>
