<svg width="20" height="20" viewBox="0 0 20 20" fill="none" xmlns="http://www.w3.org/2000/svg">
<path d="M1.17188 9.99982C1.17188 8.34153 1.63406 6.72575 2.50848 5.327C3.11988 4.34899 3.91441 3.50438 4.84227 2.83543L4.49613 4.33458L5.63797 4.59821L6.42883 1.1727L3.00332 0.381836L2.73969 1.52367L4.19145 1.85883C3.12578 2.62016 2.21461 3.58625 1.51477 4.70579C0.523789 6.29102 0 8.12165 0 9.99982C0 12.6709 1.0402 15.1821 2.92891 17.0709C4.8177 18.9597 7.32891 19.9998 10 19.9998V18.828C7.64191 18.828 5.425 17.9097 3.75758 16.2422C2.09016 14.5748 1.17188 12.3579 1.17188 9.99982Z" fill="#B3404A"/>
<path d="M18.4852 15.294C19.4762 13.7088 20 11.8782 20 10C20 7.32891 18.9598 4.8177 17.0711 2.92891C15.1823 1.04016 12.6711 0 10 0V1.17188C12.3581 1.17188 14.575 2.09016 16.2424 3.75758C17.9098 5.425 18.8281 7.64191 18.8281 10C18.8281 11.6583 18.3659 13.2741 17.4915 14.6728C16.8801 15.6508 16.0856 16.4954 15.1577 17.1644L15.5039 15.6652L14.362 15.4016L13.5712 18.8271L16.9967 19.618L17.2603 18.4761L15.8086 18.141C16.8742 17.3796 17.7854 16.4135 18.4852 15.294Z" fill="#B3404A"/>
<path d="M12.8728 13.7014L13.7289 14.5575L14.5575 13.7289L13.7014 12.8728C14.2058 12.2244 14.5439 11.4406 14.6509 10.5859H15.8594V9.41406H14.6509C14.5439 8.55937 14.2058 7.77562 13.7014 7.12723L14.5575 6.27109L13.7289 5.44246L12.8728 6.29859C12.2244 5.79422 11.4406 5.45609 10.5859 5.34906V4.14062H9.41406V5.34906C8.55937 5.45609 7.77562 5.79422 7.12723 6.29859L6.27109 5.44246L5.44246 6.27109L6.29859 7.12723C5.79422 7.77562 5.45609 8.55937 5.34906 9.41406H4.14062V10.5859H5.34906C5.45613 11.4406 5.79422 12.2244 6.29859 12.8728L5.44246 13.7289L6.27109 14.5575L7.12723 13.7014C7.77562 14.2058 8.55937 14.5439 9.41406 14.6509V15.8594H10.5859V14.6509C11.4406 14.5439 12.2244 14.2058 12.8728 13.7014ZM12.3438 9.41406V10.5859H9.41406V7.65625H10.5859V9.41406H12.3438Z" fill="#B3404A"/>
</svg>
