<svg width="25" height="25" viewBox="0 0 25 25" fill="none" xmlns="http://www.w3.org/2000/svg">
<g clip-path="url(#clip0)">
<path d="M10.4166 25C12.3032 25 13.8813 23.6551 14.2437 21.875H6.58951C6.9521 23.6551 8.53024 25 10.4166 25Z" fill="#B3404A"/>
<path d="M18.3083 15.0999C18.2812 15.0999 18.2562 15.1041 18.2291 15.1041C13.6343 15.1041 9.8959 11.3657 9.8959 6.7709C9.8959 4.96559 10.4792 3.298 11.4584 1.93119V1.0416C11.4584 0.465584 10.9917 0 10.4166 0C9.84173 0 9.375 0.465584 9.375 1.0416V2.16675C5.84679 2.67506 3.125 5.70946 3.125 9.375V12.2791C3.125 14.3406 2.22187 16.2865 0.637436 17.626C0.232315 17.9729 0 18.4771 0 19.0104C0 20.0157 0.81768 20.8334 1.82285 20.8334H19.0104C20.0157 20.8334 20.8334 20.0157 20.8334 19.0104C20.8334 18.4771 20.6011 17.9729 20.1855 17.6178C19.3645 16.923 18.7313 16.0583 18.3083 15.0999Z" fill="#B3404A"/>
<path d="M18.2291 0C14.4959 0 11.4584 3.03745 11.4584 6.7709C11.4584 10.5042 14.4959 13.5416 18.2291 13.5416C21.9626 13.5416 25 10.5042 25 6.7709C25 3.03745 21.9626 0 18.2291 0V0ZM19.2709 9.11465C19.2709 9.5459 18.9209 9.8959 18.4897 9.8959C18.0584 9.8959 17.7084 9.5459 17.7084 9.11465V5.7291H17.1875C16.7563 5.7291 16.4063 5.3791 16.4063 4.94785C16.4063 4.5166 16.7563 4.1666 17.1875 4.1666H18.4897C18.9209 4.1666 19.2709 4.5166 19.2709 4.94785V9.11465Z" fill="#B3404A"/>
</g>
<defs>
<clipPath id="clip0">
<rect width="25" height="25" fill="white"/>
</clipPath>
</defs>
</svg>
