<svg width="293" height="293" viewBox="0 0 293 293" fill="none" xmlns="http://www.w3.org/2000/svg">
<path d="M238.332 131.851H199.656V250.598H238.332V131.851Z" fill="#455A64"/>
<path d="M238.186 119.902H209.249V131.845H238.186V119.902Z" fill="#37474F"/>
<path d="M214.13 121.748H211.657V130.005H214.13V121.748Z" fill="#455A64"/>
<path d="M218.455 121.748H215.982V130.005H218.455V121.748Z" fill="#455A64"/>
<path d="M222.786 121.748H220.313V130.005H222.786V121.748Z" fill="#455A64"/>
<path d="M227.116 121.748H224.643V130.005H227.116V121.748Z" fill="#455A64"/>
<path d="M231.447 121.748H228.974V130.005H231.447V121.748Z" fill="#455A64"/>
<path d="M235.777 121.748H233.304V130.005H235.777V121.748Z" fill="#455A64"/>
<path d="M251.347 119.902H238.186V131.845H251.347V119.902Z" fill="#455A64"/>
<path d="M242.135 121.748H240.031V130.005H242.135V121.748Z" fill="#37474F"/>
<path d="M245.815 121.748H243.712V130.005H245.815V121.748Z" fill="#37474F"/>
<path d="M249.495 121.748H247.392V130.005H249.495V121.748Z" fill="#37474F"/>
<path d="M257.869 131.851H238.186V250.598H257.869V131.851Z" fill="#37474F"/>
<path d="M215.619 113.849H214.734V119.902H215.619V113.849Z" fill="#263238"/>
<path d="M232.695 113.849H231.81V119.902H232.695V113.849Z" fill="#263238"/>
<path d="M236.621 103.266H210.813V113.849H236.621V103.266Z" fill="#B3404A"/>
<path d="M214.71 140.025H207.573V150.954H214.71V140.025Z" fill="#263238"/>
<path d="M229.237 140.025H222.1V150.954H229.237V140.025Z" fill="#263238"/>
<path d="M214.71 157.254H207.573V168.183H214.71V157.254Z" fill="#263238"/>
<path d="M229.237 157.254H222.1V168.183H229.237V157.254Z" fill="#263238"/>
<path d="M214.71 174.476H207.573V185.405H214.71V174.476Z" fill="#263238"/>
<path d="M229.237 174.476H222.1V185.405H229.237V174.476Z" fill="#263238"/>
<path d="M214.71 191.705H207.573V202.634H214.71V191.705Z" fill="#263238"/>
<path d="M229.237 191.705H222.1V202.634H229.237V191.705Z" fill="#263238"/>
<path d="M214.71 208.927H207.573V219.856H214.71V208.927Z" fill="#263238"/>
<path d="M229.237 208.927H222.1V219.856H229.237V208.927Z" fill="#263238"/>
<path d="M214.71 226.149H207.573V237.078H214.71V226.149Z" fill="#263238"/>
<path d="M229.237 226.149H222.1V237.078H229.237V226.149Z" fill="#263238"/>
<path d="M245.903 140.025H241.801V150.954H245.903V140.025Z" fill="#263238"/>
<path d="M254.254 140.025H250.152V150.954H254.254V140.025Z" fill="#263238"/>
<path d="M245.903 157.254H241.801V168.183H245.903V157.254Z" fill="#263238"/>
<path d="M254.254 157.254H250.152V168.183H254.254V157.254Z" fill="#263238"/>
<path d="M245.903 174.476H241.801V185.405H245.903V174.476Z" fill="#263238"/>
<path d="M254.254 174.476H250.152V185.405H254.254V174.476Z" fill="#263238"/>
<path d="M245.903 191.705H241.801V202.634H245.903V191.705Z" fill="#263238"/>
<path d="M254.254 191.705H250.152V202.634H254.254V191.705Z" fill="#263238"/>
<path d="M245.903 208.927H241.801V219.856H245.903V208.927Z" fill="#263238"/>
<path d="M254.254 208.927H250.152V219.856H254.254V208.927Z" fill="#263238"/>
<path d="M245.903 226.149H241.801V237.078H245.903V226.149Z" fill="#263238"/>
<path d="M254.254 226.149H250.152V237.078H254.254V226.149Z" fill="#263238"/>
<path d="M135.847 98.2549H115.161V250.591H135.847V98.2549Z" fill="#37474F"/>
<path d="M135.847 106.793H115.161V108.393H135.847V106.793Z" fill="#455A64"/>
<path d="M121.103 113.099H117.294V122.006H121.103V113.099Z" fill="#263238"/>
<path d="M121.103 124.338H117.294V133.245H121.103V124.338Z" fill="#263238"/>
<path d="M121.103 135.571H117.294V144.478H121.103V135.571Z" fill="#263238"/>
<path d="M121.103 146.806H117.294V155.713H121.103V146.806Z" fill="#263238"/>
<path d="M121.103 158.045H117.294V166.952H121.103V158.045Z" fill="#263238"/>
<path d="M121.103 169.284H117.294V178.191H121.103V169.284Z" fill="#263238"/>
<path d="M121.103 180.512H117.294V189.419H121.103V180.512Z" fill="#263238"/>
<path d="M121.103 191.752H117.294V200.659H121.103V191.752Z" fill="#263238"/>
<path d="M121.103 202.991H117.294V211.898H121.103V202.991Z" fill="#263238"/>
<path d="M121.103 214.225H117.294V223.132H121.103V214.225Z" fill="#263238"/>
<path d="M121.103 225.458H117.294V234.365H121.103V225.458Z" fill="#263238"/>
<path d="M121.103 236.697H117.294V245.604H121.103V236.697Z" fill="#263238"/>
<path d="M121.103 113.099H117.294V122.006H121.103V113.099Z" fill="#263238"/>
<path d="M121.103 124.338H117.294V133.245H121.103V124.338Z" fill="#263238"/>
<path d="M121.103 135.571H117.294V144.478H121.103V135.571Z" fill="#263238"/>
<path d="M121.103 146.806H117.294V155.713H121.103V146.806Z" fill="#263238"/>
<path d="M121.103 158.045H117.294V166.952H121.103V158.045Z" fill="#263238"/>
<path d="M121.103 169.284H117.294V178.191H121.103V169.284Z" fill="#263238"/>
<path d="M121.103 180.512H117.294V189.419H121.103V180.512Z" fill="#263238"/>
<path d="M121.103 191.752H117.294V200.659H121.103V191.752Z" fill="#263238"/>
<path d="M121.103 202.991H117.294V211.898H121.103V202.991Z" fill="#263238"/>
<path d="M121.103 214.225H117.294V223.132H121.103V214.225Z" fill="#263238"/>
<path d="M121.103 225.458H117.294V234.365H121.103V225.458Z" fill="#263238"/>
<path d="M121.103 236.697H117.294V245.604H121.103V236.697Z" fill="#263238"/>
<path d="M127.408 113.099H123.599V122.006H127.408V113.099Z" fill="#263238"/>
<path d="M127.408 124.338H123.599V133.245H127.408V124.338Z" fill="#263238"/>
<path d="M127.408 135.571H123.599V144.478H127.408V135.571Z" fill="#263238"/>
<path d="M127.408 146.806H123.599V155.713H127.408V146.806Z" fill="#263238"/>
<path d="M127.408 158.045H123.599V166.952H127.408V158.045Z" fill="#263238"/>
<path d="M127.408 169.284H123.599V178.191H127.408V169.284Z" fill="#263238"/>
<path d="M127.408 180.512H123.599V189.419H127.408V180.512Z" fill="#263238"/>
<path d="M127.408 191.752H123.599V200.659H127.408V191.752Z" fill="#263238"/>
<path d="M127.408 202.991H123.599V211.898H127.408V202.991Z" fill="#263238"/>
<path d="M127.408 214.225H123.599V223.132H127.408V214.225Z" fill="#263238"/>
<path d="M127.408 225.458H123.599V234.365H127.408V225.458Z" fill="#263238"/>
<path d="M127.408 236.697H123.599V245.604H127.408V236.697Z" fill="#263238"/>
<path d="M127.408 113.099H123.599V122.006H127.408V113.099Z" fill="#263238"/>
<path d="M127.408 124.338H123.599V133.245H127.408V124.338Z" fill="#263238"/>
<path d="M127.408 135.571H123.599V144.478H127.408V135.571Z" fill="#263238"/>
<path d="M127.408 146.806H123.599V155.713H127.408V146.806Z" fill="#263238"/>
<path d="M127.408 158.045H123.599V166.952H127.408V158.045Z" fill="#263238"/>
<path d="M127.408 169.284H123.599V178.191H127.408V169.284Z" fill="#263238"/>
<path d="M127.408 180.512H123.599V189.419H127.408V180.512Z" fill="#263238"/>
<path d="M127.408 191.752H123.599V200.659H127.408V191.752Z" fill="#263238"/>
<path d="M127.408 202.991H123.599V211.898H127.408V202.991Z" fill="#263238"/>
<path d="M127.408 214.225H123.599V223.132H127.408V214.225Z" fill="#263238"/>
<path d="M127.408 225.458H123.599V234.365H127.408V225.458Z" fill="#263238"/>
<path d="M127.408 236.697H123.599V245.604H127.408V236.697Z" fill="#263238"/>
<path d="M133.714 113.099H129.905V122.006H133.714V113.099Z" fill="#263238"/>
<path d="M133.714 124.338H129.905V133.245H133.714V124.338Z" fill="#263238"/>
<path d="M133.714 135.571H129.905V144.478H133.714V135.571Z" fill="#263238"/>
<path d="M133.714 146.806H129.905V155.713H133.714V146.806Z" fill="#263238"/>
<path d="M133.714 158.045H129.905V166.952H133.714V158.045Z" fill="#263238"/>
<path d="M133.714 169.284H129.905V178.191H133.714V169.284Z" fill="#263238"/>
<path d="M133.714 180.512H129.905V189.419H133.714V180.512Z" fill="#263238"/>
<path d="M133.714 191.752H129.905V200.659H133.714V191.752Z" fill="#263238"/>
<path d="M133.714 202.991H129.905V211.898H133.714V202.991Z" fill="#263238"/>
<path d="M133.714 214.225H129.905V223.132H133.714V214.225Z" fill="#263238"/>
<path d="M133.714 225.458H129.905V234.365H133.714V225.458Z" fill="#263238"/>
<path d="M133.714 236.697H129.905V245.604H133.714V236.697Z" fill="#263238"/>
<path d="M133.714 113.099H129.905V122.006H133.714V113.099Z" fill="#263238"/>
<path d="M133.714 124.338H129.905V133.245H133.714V124.338Z" fill="#263238"/>
<path d="M133.714 135.571H129.905V144.478H133.714V135.571Z" fill="#263238"/>
<path d="M133.714 146.806H129.905V155.713H133.714V146.806Z" fill="#263238"/>
<path d="M133.714 158.045H129.905V166.952H133.714V158.045Z" fill="#263238"/>
<path d="M133.714 169.284H129.905V178.191H133.714V169.284Z" fill="#263238"/>
<path d="M133.714 180.512H129.905V189.419H133.714V180.512Z" fill="#263238"/>
<path d="M133.714 191.752H129.905V200.659H133.714V191.752Z" fill="#263238"/>
<path d="M133.714 202.991H129.905V211.898H133.714V202.991Z" fill="#263238"/>
<path d="M133.714 214.225H129.905V223.132H133.714V214.225Z" fill="#263238"/>
<path d="M133.714 225.458H129.905V234.365H133.714V225.458Z" fill="#263238"/>
<path d="M133.714 236.697H129.905V245.604H133.714V236.697Z" fill="#263238"/>
<path d="M115.161 98.2549H79.7957V250.591H115.161V98.2549Z" fill="#455A64"/>
<path d="M115.161 106.793H79.7957V108.393H115.161V106.793Z" fill="#37474F"/>
<path d="M115.161 89.6992H92.4005V98.2548H115.161V89.6992Z" fill="#37474F"/>
<path d="M115.161 98.2549H125.855V89.6993H115.161V98.2549Z" fill="#263238"/>
<path d="M89.7693 113.099H83.587V122.006H89.7693V113.099Z" fill="#263238"/>
<path d="M89.7693 124.338H83.587V133.245H89.7693V124.338Z" fill="#263238"/>
<path d="M89.7693 135.571H83.587V144.478H89.7693V135.571Z" fill="#263238"/>
<path d="M89.7693 146.806H83.587V155.713H89.7693V146.806Z" fill="#263238"/>
<path d="M89.7693 158.045H83.587V166.952H89.7693V158.045Z" fill="#263238"/>
<path d="M89.7693 169.284H83.587V178.191H89.7693V169.284Z" fill="#263238"/>
<path d="M89.7693 180.512H83.587V189.419H89.7693V180.512Z" fill="#263238"/>
<path d="M89.7693 191.752H83.587V200.659H89.7693V191.752Z" fill="#263238"/>
<path d="M89.7693 202.991H83.587V211.898H89.7693V202.991Z" fill="#263238"/>
<path d="M89.7693 214.225H83.587V223.132H89.7693V214.225Z" fill="#263238"/>
<path d="M89.7693 225.458H83.587V234.365H89.7693V225.458Z" fill="#263238"/>
<path d="M89.7693 236.697H83.587V245.604H89.7693V236.697Z" fill="#263238"/>
<path d="M89.7693 113.099H83.587V122.006H89.7693V113.099Z" fill="#263238"/>
<path d="M89.7693 124.338H83.587V133.245H89.7693V124.338Z" fill="#263238"/>
<path d="M89.7693 135.571H83.587V144.478H89.7693V135.571Z" fill="#263238"/>
<path d="M89.7693 146.806H83.587V155.713H89.7693V146.806Z" fill="#263238"/>
<path d="M89.7693 158.045H83.587V166.952H89.7693V158.045Z" fill="#263238"/>
<path d="M89.7693 169.284H83.587V178.191H89.7693V169.284Z" fill="#263238"/>
<path d="M89.7693 180.512H83.587V189.419H89.7693V180.512Z" fill="#263238"/>
<path d="M89.7693 191.752H83.587V200.659H89.7693V191.752Z" fill="#263238"/>
<path d="M89.7693 202.991H83.587V211.898H89.7693V202.991Z" fill="#263238"/>
<path d="M89.7693 214.225H83.587V223.132H89.7693V214.225Z" fill="#263238"/>
<path d="M89.7693 225.458H83.587V234.365H89.7693V225.458Z" fill="#263238"/>
<path d="M89.7693 236.697H83.587V245.604H89.7693V236.697Z" fill="#263238"/>
<path d="M100.007 113.099H93.8246V122.006H100.007V113.099Z" fill="#263238"/>
<path d="M100.007 124.338H93.8246V133.245H100.007V124.338Z" fill="#263238"/>
<path d="M100.007 135.571H93.8246V144.478H100.007V135.571Z" fill="#263238"/>
<path d="M100.007 146.806H93.8246V155.713H100.007V146.806Z" fill="#263238"/>
<path d="M100.007 158.045H93.8246V166.952H100.007V158.045Z" fill="#263238"/>
<path d="M100.007 169.284H93.8246V178.191H100.007V169.284Z" fill="#263238"/>
<path d="M100.007 180.512H93.8246V189.419H100.007V180.512Z" fill="#263238"/>
<path d="M100.007 191.752H93.8246V200.659H100.007V191.752Z" fill="#263238"/>
<path d="M100.007 202.991H93.8246V211.898H100.007V202.991Z" fill="#263238"/>
<path d="M100.007 214.225H93.8246V223.132H100.007V214.225Z" fill="#263238"/>
<path d="M100.007 225.458H93.8246V234.365H100.007V225.458Z" fill="#263238"/>
<path d="M100.007 236.697H93.8246V245.604H100.007V236.697Z" fill="#263238"/>
<path d="M100.007 113.099H93.8246V122.006H100.007V113.099Z" fill="#263238"/>
<path d="M100.007 124.338H93.8246V133.245H100.007V124.338Z" fill="#263238"/>
<path d="M100.007 135.571H93.8246V144.478H100.007V135.571Z" fill="#263238"/>
<path d="M100.007 146.806H93.8246V155.713H100.007V146.806Z" fill="#263238"/>
<path d="M100.007 158.045H93.8246V166.952H100.007V158.045Z" fill="#263238"/>
<path d="M100.007 169.284H93.8246V178.191H100.007V169.284Z" fill="#263238"/>
<path d="M100.007 180.512H93.8246V189.419H100.007V180.512Z" fill="#263238"/>
<path d="M100.007 191.752H93.8246V200.659H100.007V191.752Z" fill="#263238"/>
<path d="M100.007 202.991H93.8246V211.898H100.007V202.991Z" fill="#263238"/>
<path d="M100.007 214.225H93.8246V223.132H100.007V214.225Z" fill="#263238"/>
<path d="M100.007 225.458H93.8246V234.365H100.007V225.458Z" fill="#263238"/>
<path d="M100.007 236.697H93.8246V245.604H100.007V236.697Z" fill="#263238"/>
<path d="M110.25 113.099H104.068V122.006H110.25V113.099Z" fill="#263238"/>
<path d="M110.25 124.338H104.068V133.245H110.25V124.338Z" fill="#263238"/>
<path d="M110.25 135.571H104.068V144.478H110.25V135.571Z" fill="#263238"/>
<path d="M110.25 146.806H104.068V155.713H110.25V146.806Z" fill="#263238"/>
<path d="M110.25 158.045H104.068V166.952H110.25V158.045Z" fill="#263238"/>
<path d="M110.25 169.284H104.068V178.191H110.25V169.284Z" fill="#263238"/>
<path d="M110.25 180.512H104.068V189.419H110.25V180.512Z" fill="#263238"/>
<path d="M110.25 191.752H104.068V200.659H110.25V191.752Z" fill="#263238"/>
<path d="M110.25 202.991H104.068V211.898H110.25V202.991Z" fill="#263238"/>
<path d="M110.25 214.225H104.068V223.132H110.25V214.225Z" fill="#263238"/>
<path d="M110.25 225.458H104.068V234.365H110.25V225.458Z" fill="#263238"/>
<path d="M110.25 236.697H104.068V245.604H110.25V236.697Z" fill="#263238"/>
<path d="M110.25 113.099H104.068V122.006H110.25V113.099Z" fill="#263238"/>
<path d="M110.25 124.338H104.068V133.245H110.25V124.338Z" fill="#263238"/>
<path d="M110.25 135.571H104.068V144.478H110.25V135.571Z" fill="#263238"/>
<path d="M110.25 146.806H104.068V155.713H110.25V146.806Z" fill="#263238"/>
<path d="M110.25 158.045H104.068V166.952H110.25V158.045Z" fill="#263238"/>
<path d="M110.25 169.284H104.068V178.191H110.25V169.284Z" fill="#263238"/>
<path d="M110.25 180.512H104.068V189.419H110.25V180.512Z" fill="#263238"/>
<path d="M110.25 191.752H104.068V200.659H110.25V191.752Z" fill="#263238"/>
<path d="M110.25 202.991H104.068V211.898H110.25V202.991Z" fill="#263238"/>
<path d="M110.25 214.225H104.068V223.132H110.25V214.225Z" fill="#263238"/>
<path d="M110.25 225.458H104.068V234.365H110.25V225.458Z" fill="#263238"/>
<path d="M110.25 236.697H104.068V245.604H110.25V236.697Z" fill="#263238"/>
<path d="M66.3763 250.591H38.342V162.65L66.3763 144.479V250.591Z" fill="#B3404A"/>
<path d="M62.7724 250.592H41.4948V165.112L62.7724 151.323V250.592Z" fill="#B3404A"/>
<path opacity="0.3" d="M62.7724 250.592H41.4948V165.112L62.7724 151.323V250.592Z" fill="black"/>
<g opacity="0.3">
<path opacity="0.3" d="M62.7724 166.588H43.9325V167.268H62.7724V166.588Z" fill="black"/>
<path opacity="0.3" d="M62.7724 172.144H43.9325V172.823H62.7724V172.144Z" fill="black"/>
<path opacity="0.3" d="M62.7724 177.699H43.9325V178.379H62.7724V177.699Z" fill="black"/>
<path opacity="0.3" d="M62.7724 183.255H43.9325V183.935H62.7724V183.255Z" fill="black"/>
<path opacity="0.3" d="M62.7724 188.81H43.9325V189.489H62.7724V188.81Z" fill="black"/>
<path opacity="0.3" d="M62.7724 194.365H43.9325V195.045H62.7724V194.365Z" fill="black"/>
<path opacity="0.3" d="M62.7724 199.92H43.9325V200.6H62.7724V199.92Z" fill="black"/>
<path opacity="0.3" d="M62.7724 205.476H43.9325V206.155H62.7724V205.476Z" fill="black"/>
<path opacity="0.3" d="M62.7724 211.03H43.9325V211.71H62.7724V211.03Z" fill="black"/>
<path opacity="0.3" d="M62.7724 216.586H43.9325V217.266H62.7724V216.586Z" fill="black"/>
<path opacity="0.3" d="M62.7724 222.141H43.9325V222.82H62.7724V222.141Z" fill="black"/>
<path opacity="0.3" d="M62.7724 227.696H43.9325V228.376H62.7724V227.696Z" fill="black"/>
<path opacity="0.3" d="M62.7724 233.252H43.9325V233.932H62.7724V233.252Z" fill="black"/>
<path opacity="0.3" d="M62.7724 238.808H43.9325V239.487H62.7724V238.808Z" fill="black"/>
<path opacity="0.3" d="M62.7724 244.362H43.9325V245.042H62.7724V244.362Z" fill="black"/>
<path opacity="0.3" d="M62.7724 249.918H43.9325V250.598H62.7724V249.918Z" fill="black"/>
<path opacity="0.3" d="M53.0155 160.137L53.0155 250.598H53.6953L53.6953 160.137H53.0155Z" fill="black"/>
</g>
<path d="M62.7724 151.323V154.382L43.9325 166.589V250.592H41.5006V165.106L62.7724 151.323Z" fill="#B3404A"/>
<path opacity="0.2" d="M62.7724 151.323V154.382L43.9325 166.589V250.592H41.5006V165.106L62.7724 151.323Z" fill="black"/>
<path d="M91.0761 144.479H66.3762V250.591H91.0761V144.479Z" fill="#B3404A"/>
<path opacity="0.2" d="M91.0761 144.479H66.3762V250.591H91.0761V144.479Z" fill="black"/>
<g opacity="0.2">
<path opacity="0.2" d="M88.6795 151.323H68.7731V153.726H88.6795V151.323Z" fill="black"/>
<path opacity="0.2" d="M88.6795 156.762H68.7731V159.164H88.6795V156.762Z" fill="black"/>
<path opacity="0.2" d="M88.6795 162.205H68.7731V164.608H88.6795V162.205Z" fill="black"/>
<path opacity="0.2" d="M88.6795 167.643H68.7731V170.045H88.6795V167.643Z" fill="black"/>
<path opacity="0.2" d="M88.6795 173.087H68.7731V175.49H88.6795V173.087Z" fill="black"/>
<path opacity="0.2" d="M88.6795 178.531H68.7731V180.934H88.6795V178.531Z" fill="black"/>
<path opacity="0.2" d="M88.6795 183.969H68.7731V186.371H88.6795V183.969Z" fill="black"/>
<path opacity="0.2" d="M88.6795 189.413H68.7731V191.816H88.6795V189.413Z" fill="black"/>
<path opacity="0.2" d="M88.6795 194.852H68.7731V197.254H88.6795V194.852Z" fill="black"/>
<path opacity="0.2" d="M88.6795 200.295H68.7731V202.698H88.6795V200.295Z" fill="black"/>
<path opacity="0.2" d="M88.6795 205.739H68.7731V208.142H88.6795V205.739Z" fill="black"/>
<path opacity="0.2" d="M88.6795 211.177H68.7731V213.579H88.6795V211.177Z" fill="black"/>
<path opacity="0.2" d="M88.6795 216.621H68.7731V219.024H88.6795V216.621Z" fill="black"/>
<path opacity="0.2" d="M88.6795 222.06H68.7731V224.462H88.6795V222.06Z" fill="black"/>
<path opacity="0.2" d="M88.6795 227.503H68.7731V229.906H88.6795V227.503Z" fill="black"/>
<path opacity="0.2" d="M88.6795 232.947H68.7731V235.35H88.6795V232.947Z" fill="black"/>
<path opacity="0.2" d="M88.6795 238.386H68.7731V240.788H88.6795V238.386Z" fill="black"/>
<path opacity="0.2" d="M88.6795 243.829H68.7731V246.232H88.6795V243.829Z" fill="black"/>
</g>
<path d="M193.198 138.243H170.977V250.597H193.198V138.243Z" fill="#B3404A"/>
<path opacity="0.2" d="M193.198 138.243H170.977V250.597H193.198V138.243Z" fill="black"/>
<path d="M170.977 138.243H194.529V134.563H170.977V138.243Z" fill="#B3404A"/>
<path d="M170.971 134.563H190.942V128.815H170.971V134.563Z" fill="#B3404A"/>
<path opacity="0.2" d="M170.971 134.563H190.942V128.815H170.971V134.563Z" fill="black"/>
<path d="M170.977 128.81H186.254V116.129H170.977V128.81Z" fill="#B3404A"/>
<path opacity="0.3" d="M170.977 128.81H186.254V116.129H170.977V128.81Z" fill="black"/>
<g opacity="0.3">
<path opacity="0.3" d="M176.117 142.498H173.104V154.318H176.117V142.498Z" fill="black"/>
</g>
<g opacity="0.3">
<path opacity="0.3" d="M176.117 158.602H173.104V170.421H176.117V158.602Z" fill="black"/>
</g>
<g opacity="0.3">
<path opacity="0.3" d="M176.117 174.698H173.104V186.518H176.117V174.698Z" fill="black"/>
</g>
<g opacity="0.3">
<path opacity="0.3" d="M176.117 190.796H173.104V202.616H176.117V190.796Z" fill="black"/>
</g>
<g opacity="0.3">
<path opacity="0.3" d="M176.117 206.899H173.104V218.719H176.117V206.899Z" fill="black"/>
</g>
<g opacity="0.3">
<path opacity="0.3" d="M176.117 222.997H173.104V234.817H176.117V222.997Z" fill="black"/>
</g>
<g opacity="0.3">
<path opacity="0.3" d="M181.103 142.498H178.091V154.318H181.103V142.498Z" fill="black"/>
</g>
<g opacity="0.3">
<path opacity="0.3" d="M181.103 158.602H178.091V170.421H181.103V158.602Z" fill="black"/>
</g>
<g opacity="0.3">
<path opacity="0.3" d="M181.103 174.698H178.091V186.518H181.103V174.698Z" fill="black"/>
</g>
<g opacity="0.3">
<path opacity="0.3" d="M181.103 190.796H178.091V202.616H181.103V190.796Z" fill="black"/>
</g>
<g opacity="0.3">
<path opacity="0.3" d="M181.103 206.899H178.091V218.719H181.103V206.899Z" fill="black"/>
</g>
<g opacity="0.3">
<path opacity="0.3" d="M181.103 222.997H178.091V234.817H181.103V222.997Z" fill="black"/>
</g>
<g opacity="0.3">
<path opacity="0.3" d="M186.084 142.498H183.072V154.318H186.084V142.498Z" fill="black"/>
</g>
<g opacity="0.3">
<path opacity="0.3" d="M186.084 158.602H183.072V170.421H186.084V158.602Z" fill="black"/>
</g>
<g opacity="0.3">
<path opacity="0.3" d="M186.084 174.698H183.072V186.518H186.084V174.698Z" fill="black"/>
</g>
<g opacity="0.3">
<path opacity="0.3" d="M186.084 190.796H183.072V202.616H186.084V190.796Z" fill="black"/>
</g>
<g opacity="0.3">
<path opacity="0.3" d="M186.084 206.899H183.072V218.719H186.084V206.899Z" fill="black"/>
</g>
<g opacity="0.3">
<path opacity="0.3" d="M186.084 222.997H183.072V234.817H186.084V222.997Z" fill="black"/>
</g>
<g opacity="0.3">
<path opacity="0.3" d="M191.065 142.498H188.053V154.318H191.065V142.498Z" fill="black"/>
</g>
<g opacity="0.3">
<path opacity="0.3" d="M191.065 158.602H188.053V170.421H191.065V158.602Z" fill="black"/>
</g>
<g opacity="0.3">
<path opacity="0.3" d="M191.065 174.698H188.053V186.518H191.065V174.698Z" fill="black"/>
</g>
<g opacity="0.3">
<path opacity="0.3" d="M191.065 190.796H188.053V202.616H191.065V190.796Z" fill="black"/>
</g>
<g opacity="0.3">
<path opacity="0.3" d="M191.065 206.899H188.053V218.719H191.065V206.899Z" fill="black"/>
</g>
<g opacity="0.3">
<path opacity="0.3" d="M191.065 222.997H188.053V234.817H191.065V222.997Z" fill="black"/>
</g>
<path d="M170.971 138.243H125.422V250.597H170.971V138.243Z" fill="#B3404A"/>
<path d="M170.977 128.81H127.607V134.558H170.977V128.81Z" fill="#B3404A"/>
<path d="M170.977 116.134H138.343V128.815H170.977V116.134Z" fill="#B3404A"/>
<path opacity="0.2" d="M170.977 116.134H138.343V128.815H170.977V116.134Z" fill="black"/>
<path d="M170.977 134.558H124.062V138.238H170.977V134.558Z" fill="#B3404A"/>
<path opacity="0.2" d="M170.977 134.558H124.062V138.238H170.977V134.558Z" fill="black"/>
<g opacity="0.3">
<path opacity="0.3" d="M135.964 142.498H129.781V154.318H135.964V142.498Z" fill="black"/>
</g>
<g opacity="0.3">
<path opacity="0.3" d="M135.964 158.602H129.781V170.421H135.964V158.602Z" fill="black"/>
</g>
<g opacity="0.3">
<path opacity="0.3" d="M135.964 174.698H129.781V186.518H135.964V174.698Z" fill="black"/>
</g>
<g opacity="0.3">
<path opacity="0.3" d="M135.964 190.796H129.781V202.616H135.964V190.796Z" fill="black"/>
</g>
<g opacity="0.3">
<path opacity="0.3" d="M135.964 206.899H129.781V218.719H135.964V206.899Z" fill="black"/>
</g>
<g opacity="0.3">
<path opacity="0.3" d="M135.964 222.997H129.781V234.817H135.964V222.997Z" fill="black"/>
</g>
<g opacity="0.3">
<path opacity="0.3" d="M146.184 142.498H140.001V154.318H146.184V142.498Z" fill="black"/>
</g>
<g opacity="0.3">
<path opacity="0.3" d="M146.184 158.602H140.001V170.421H146.184V158.602Z" fill="black"/>
</g>
<g opacity="0.3">
<path opacity="0.3" d="M146.184 174.698H140.001V186.518H146.184V174.698Z" fill="black"/>
</g>
<g opacity="0.3">
<path opacity="0.3" d="M146.184 190.796H140.001V202.616H146.184V190.796Z" fill="black"/>
</g>
<g opacity="0.3">
<path opacity="0.3" d="M146.184 206.899H140.001V218.719H146.184V206.899Z" fill="black"/>
</g>
<g opacity="0.3">
<path opacity="0.3" d="M146.184 222.997H140.001V234.817H146.184V222.997Z" fill="black"/>
</g>
<g opacity="0.3">
<path opacity="0.3" d="M156.403 142.498H150.221V154.318H156.403V142.498Z" fill="black"/>
</g>
<g opacity="0.3">
<path opacity="0.3" d="M156.403 158.602H150.221V170.421H156.403V158.602Z" fill="black"/>
</g>
<g opacity="0.3">
<path opacity="0.3" d="M156.403 174.698H150.221V186.518H156.403V174.698Z" fill="black"/>
</g>
<g opacity="0.3">
<path opacity="0.3" d="M156.403 190.796H150.221V202.616H156.403V190.796Z" fill="black"/>
</g>
<g opacity="0.3">
<path opacity="0.3" d="M156.403 206.899H150.221V218.719H156.403V206.899Z" fill="black"/>
</g>
<g opacity="0.3">
<path opacity="0.3" d="M156.403 222.997H150.221V234.817H156.403V222.997Z" fill="black"/>
</g>
<g opacity="0.3">
<path opacity="0.3" d="M166.617 142.498H160.435V154.318H166.617V142.498Z" fill="black"/>
</g>
<g opacity="0.3">
<path opacity="0.3" d="M166.617 158.602H160.435V170.421H166.617V158.602Z" fill="black"/>
</g>
<g opacity="0.3">
<path opacity="0.3" d="M166.617 174.698H160.435V186.518H166.617V174.698Z" fill="black"/>
</g>
<g opacity="0.3">
<path opacity="0.3" d="M166.617 190.796H160.435V202.616H166.617V190.796Z" fill="black"/>
</g>
<g opacity="0.3">
<path opacity="0.3" d="M166.617 206.899H160.435V218.719H166.617V206.899Z" fill="black"/>
</g>
<g opacity="0.3">
<path opacity="0.3" d="M166.617 222.997H160.435V234.817H166.617V222.997Z" fill="black"/>
</g>
<path opacity="0.3" d="M156.403 239.457H140.001V250.591H156.403V239.457Z" fill="black"/>
<path d="M238.789 186.524H216.568V250.592H238.789V186.524Z" fill="#B3404A"/>
<path opacity="0.2" d="M238.789 186.524H216.568V250.592H238.789V186.524Z" fill="black"/>
<path d="M216.568 186.53H240.119V182.85H216.568V186.53Z" fill="#B3404A"/>
<path d="M216.568 182.845H236.539V177.096H216.568V182.845Z" fill="#B3404A"/>
<path opacity="0.2" d="M216.568 182.845H236.539V177.096H216.568V182.845Z" fill="black"/>
<g opacity="0.3">
<path opacity="0.3" d="M221.713 190.784H218.701V202.604H221.713V190.784Z" fill="black"/>
</g>
<g opacity="0.3">
<path opacity="0.3" d="M221.713 206.882H218.701V218.701H221.713V206.882Z" fill="black"/>
</g>
<g opacity="0.3">
<path opacity="0.3" d="M221.713 222.985H218.701V234.805H221.713V222.985Z" fill="black"/>
</g>
<g opacity="0.3">
<path opacity="0.3" d="M226.694 190.784H223.682V202.604H226.694V190.784Z" fill="black"/>
</g>
<g opacity="0.3">
<path opacity="0.3" d="M226.694 206.882H223.682V218.701H226.694V206.882Z" fill="black"/>
</g>
<g opacity="0.3">
<path opacity="0.3" d="M226.694 222.985H223.682V234.805H226.694V222.985Z" fill="black"/>
</g>
<g opacity="0.3">
<path opacity="0.3" d="M231.675 190.784H228.663V202.604H231.675V190.784Z" fill="black"/>
</g>
<g opacity="0.3">
<path opacity="0.3" d="M231.675 206.882H228.663V218.701H231.675V206.882Z" fill="black"/>
</g>
<g opacity="0.3">
<path opacity="0.3" d="M231.675 222.985H228.663V234.805H231.675V222.985Z" fill="black"/>
</g>
<g opacity="0.3">
<path opacity="0.3" d="M236.656 190.784H233.644V202.604H236.656V190.784Z" fill="black"/>
</g>
<g opacity="0.3">
<path opacity="0.3" d="M236.656 206.882H233.644V218.701H236.656V206.882Z" fill="black"/>
</g>
<g opacity="0.3">
<path opacity="0.3" d="M236.656 222.985H233.644V234.805H236.656V222.985Z" fill="black"/>
</g>
<path d="M216.568 186.524H171.018V250.592H216.568V186.524Z" fill="#B3404A"/>
<path d="M216.568 177.096H173.198V182.844H216.568V177.096Z" fill="#B3404A"/>
<path d="M216.568 182.845H169.653V186.525H216.568V182.845Z" fill="#B3404A"/>
<path opacity="0.2" d="M216.568 182.845H169.653V186.525H216.568V182.845Z" fill="black"/>
<g opacity="0.3">
<path opacity="0.3" d="M181.555 190.784H175.372V202.604H181.555V190.784Z" fill="black"/>
</g>
<g opacity="0.3">
<path opacity="0.3" d="M181.555 206.882H175.372V218.701H181.555V206.882Z" fill="black"/>
</g>
<g opacity="0.3">
<path opacity="0.3" d="M181.555 222.985H175.372V234.805H181.555V222.985Z" fill="black"/>
</g>
<g opacity="0.3">
<path opacity="0.3" d="M191.774 190.784H185.592V202.604H191.774V190.784Z" fill="black"/>
</g>
<g opacity="0.3">
<path opacity="0.3" d="M191.774 206.882H185.592V218.701H191.774V206.882Z" fill="black"/>
</g>
<g opacity="0.3">
<path opacity="0.3" d="M191.774 222.985H185.592V234.805H191.774V222.985Z" fill="black"/>
</g>
<g opacity="0.3">
<path opacity="0.3" d="M201.994 190.784H195.812V202.604H201.994V190.784Z" fill="black"/>
</g>
<g opacity="0.3">
<path opacity="0.3" d="M201.994 206.882H195.812V218.701H201.994V206.882Z" fill="black"/>
</g>
<g opacity="0.3">
<path opacity="0.3" d="M201.994 222.985H195.812V234.805H201.994V222.985Z" fill="black"/>
</g>
<g opacity="0.3">
<path opacity="0.3" d="M212.214 190.784H206.032V202.604H212.214V190.784Z" fill="black"/>
</g>
<g opacity="0.3">
<path opacity="0.3" d="M212.214 206.882H206.032V218.701H212.214V206.882Z" fill="black"/>
</g>
<g opacity="0.3">
<path opacity="0.3" d="M212.214 222.985H206.032V234.805H212.214V222.985Z" fill="black"/>
</g>
<path d="M198.777 95.9871C198.473 95.8352 198.16 95.7022 197.839 95.5886C197.512 95.4639 197.169 95.385 196.82 95.3542C196.711 95.3439 196.601 95.3558 196.498 95.3893C196.464 95.398 196.433 95.4119 196.404 95.4304L196.339 95.4772L196.228 95.571C196.098 95.6886 195.974 95.8139 195.859 95.946C195.624 96.2039 195.419 96.4734 195.214 96.7489L195.472 96.661C195.128 96.5651 194.777 96.4927 194.423 96.4441C194.243 96.4184 194.06 96.4047 193.878 96.4031C193.783 96.3946 193.686 96.3946 193.591 96.4031C193.537 96.4098 193.484 96.4216 193.433 96.4383C193.378 96.4589 193.325 96.4843 193.275 96.5145C193.119 96.6238 192.98 96.7562 192.864 96.9071C192.753 97.0477 192.653 97.1942 192.554 97.3466C192.367 97.6439 192.205 97.9555 192.067 98.2783C192.296 98.0088 192.513 97.7392 192.741 97.4814C192.853 97.3583 192.97 97.2294 193.093 97.118C193.201 97.0049 193.326 96.9082 193.462 96.8309C193.592 96.7876 193.73 96.7736 193.866 96.7899C194.032 96.8018 194.196 96.8253 194.359 96.8602C194.687 96.9188 195.021 97.0008 195.343 97.0829L195.501 97.1298L195.595 96.995C195.783 96.7254 195.988 96.4617 196.181 96.2039C196.281 96.075 196.386 95.9519 196.492 95.8406L196.574 95.7644L196.615 95.7351C196.673 95.7138 196.734 95.7019 196.796 95.6999C197.121 95.7006 197.445 95.732 197.763 95.7937C198.115 95.8581 198.443 95.9285 198.777 95.9871Z" fill="#263238"/>
<path d="M195.091 105.961C194.69 105.644 194.267 105.356 193.825 105.099C193.378 104.819 192.895 104.6 192.39 104.449C192.235 104.409 192.074 104.395 191.915 104.408C191.861 104.417 191.808 104.43 191.757 104.449L191.651 104.496L191.464 104.595C191.229 104.736 191.018 104.888 190.807 105.041C190.391 105.357 190.016 105.691 189.635 106.037L190.034 105.984C189.561 105.74 189.072 105.531 188.569 105.357C188.311 105.266 188.046 105.194 187.778 105.14C187.635 105.108 187.49 105.089 187.344 105.082C187.264 105.076 187.184 105.076 187.104 105.082C187.019 105.098 186.934 105.119 186.852 105.146C186.588 105.261 186.345 105.417 186.131 105.609C185.923 105.779 185.727 105.963 185.545 106.16C185.183 106.541 184.852 106.951 184.555 107.385C184.965 107.056 185.363 106.722 185.774 106.418C185.979 106.259 186.184 106.113 186.395 105.978C186.589 105.847 186.8 105.742 187.022 105.668C187.219 105.647 187.419 105.667 187.608 105.726C187.845 105.792 188.078 105.872 188.305 105.966C188.774 106.148 189.243 106.371 189.688 106.588L189.911 106.705L190.087 106.535C190.444 106.195 190.819 105.861 191.194 105.545C191.381 105.387 191.577 105.24 191.78 105.105C191.824 105.072 191.871 105.042 191.921 105.017L191.985 104.982C192.076 104.964 192.17 104.964 192.261 104.982C192.736 105.074 193.202 105.214 193.65 105.398C194.148 105.574 194.616 105.773 195.091 105.961Z" fill="#263238"/>
<path d="M92.9806 82.8901C92.7051 82.6888 92.4174 82.5049 92.1192 82.3392C91.8139 82.1641 91.4868 82.0301 91.1464 81.9407C91.0418 81.9221 90.9346 81.9221 90.83 81.9407C90.795 81.9355 90.7595 81.9355 90.7245 81.9407L90.6542 81.9759L90.5311 82.0462C90.3788 82.1458 90.2381 82.2513 90.1033 82.3568C89.8338 82.5736 89.5877 82.808 89.3416 83.0483L89.6052 83.0014C89.2826 82.8493 88.9498 82.7201 88.6091 82.6146C88.4347 82.5586 88.2565 82.5155 88.0758 82.4857C87.9808 82.4699 87.8849 82.4601 87.7886 82.4564H87.6304C87.5727 82.4705 87.516 82.4881 87.4605 82.5092C87.2865 82.5882 87.1278 82.6973 86.9917 82.8315C86.8595 82.949 86.7342 83.0743 86.6166 83.2065C86.3822 83.4693 86.1704 83.7516 85.9838 84.0503C86.2475 83.8218 86.5053 83.5874 86.7749 83.3764C86.9096 83.271 87.0386 83.1655 87.1792 83.0717C87.3062 82.9808 87.444 82.9061 87.5894 82.849C87.7266 82.8281 87.8668 82.8381 87.9996 82.8783C88.1593 82.9156 88.3159 82.9646 88.4684 83.0248C88.7848 83.1362 89.1013 83.271 89.406 83.4116L89.5584 83.4761L89.6697 83.3647C89.8982 83.1245 90.1444 82.8959 90.3846 82.6791C90.5018 82.5706 90.6251 82.4689 90.7538 82.3744L90.8476 82.3099H90.8886C90.9484 82.2969 91.0104 82.2969 91.0702 82.3099C91.3898 82.3651 91.7037 82.4495 92.0078 82.5619C92.3419 82.6264 92.6583 82.7729 92.9806 82.8901Z" fill="#263238"/>
<path d="M101.337 81.536C101.05 81.124 100.735 80.7324 100.393 80.364C100.05 79.9666 99.656 79.6159 99.2215 79.3209C99.0859 79.2367 98.9374 79.1753 98.782 79.1392H98.6179H98.5066L98.2956 79.1802C98.026 79.2447 97.7799 79.3267 97.5338 79.4088C97.0474 79.5846 96.5845 79.7955 96.1157 79.9948L96.5142 80.0592C96.1312 79.687 95.724 79.3405 95.2953 79.022C95.074 78.8614 94.8431 78.7147 94.6038 78.5825C94.4768 78.5138 94.3457 78.4532 94.2112 78.4009C94.1347 78.3751 94.0563 78.3556 93.9768 78.3423C93.8909 78.3364 93.8048 78.3364 93.7189 78.3423C93.4335 78.3762 93.155 78.4533 92.8927 78.5708C92.6407 78.6763 92.4063 78.7993 92.1719 78.9224C91.7146 79.1839 91.2777 79.4797 90.8651 79.8073C91.3574 79.6139 91.832 79.4088 92.3184 79.2213C92.5559 79.131 92.7986 79.0547 93.045 78.9927C93.267 78.9221 93.4978 78.8826 93.7307 78.8755C93.9408 78.9132 94.1406 78.9951 94.3167 79.1158C94.5198 79.2515 94.7155 79.3982 94.9027 79.5553C95.2953 79.8659 95.6762 80.2116 96.0395 80.5573L96.2212 80.7331L96.438 80.6218C96.8775 80.3991 97.3346 80.194 97.7858 80.0358C98.0044 79.9366 98.2296 79.8524 98.4597 79.7838L98.6179 79.7369H98.6941C98.7862 79.7481 98.8756 79.7759 98.9578 79.819C99.3743 80.0512 99.7669 80.3241 100.13 80.6335C100.558 80.8679 100.944 81.2137 101.337 81.536Z" fill="#263238"/>
<path d="M207.016 103.512C206.729 103.098 206.412 102.706 206.067 102.34C205.727 101.939 205.332 101.588 204.895 101.296C204.762 101.208 204.612 101.146 204.455 101.115C204.401 101.109 204.346 101.109 204.291 101.115H204.18C204.109 101.122 204.038 101.136 203.969 101.156C203.71 101.215 203.456 101.292 203.207 101.384C202.721 101.56 202.258 101.765 201.789 101.97L202.188 102.035C201.806 101.661 201.399 101.314 200.969 100.998C200.75 100.833 200.519 100.686 200.277 100.558C200.151 100.487 200.02 100.426 199.885 100.376C199.814 100.376 199.726 100.335 199.65 100.312C199.564 100.306 199.478 100.306 199.392 100.312C199.107 100.344 198.829 100.419 198.566 100.535C198.32 100.641 198.079 100.76 197.845 100.892C197.388 101.152 196.951 101.446 196.539 101.771C197.031 101.578 197.505 101.379 197.992 101.185C198.232 101.097 198.472 101.015 198.718 100.951C198.941 100.882 199.171 100.844 199.404 100.839C199.615 100.874 199.815 100.956 199.99 101.08C200.195 101.211 200.39 101.356 200.576 101.513C200.969 101.824 201.35 102.175 201.713 102.515L201.895 102.691L202.111 102.58C202.551 102.363 203.008 102.158 203.459 101.994C203.679 101.897 203.904 101.813 204.133 101.742C204.186 101.742 204.244 101.707 204.291 101.701H204.368C204.46 101.712 204.549 101.74 204.631 101.783C205.058 102.013 205.46 102.286 205.833 102.597C206.237 102.867 206.624 103.195 207.016 103.512Z" fill="#263238"/>
<path d="M51.8141 250.592C51.8141 250.592 51.3219 248.294 50.3374 247.937C49.3529 247.58 48.7494 248.617 48.7494 248.617C48.7494 248.617 48.5208 246.419 47.1203 245.757C45.7197 245.095 44.6767 246.449 44.6767 246.449C44.6767 246.449 43.6043 243.659 41.6881 243.659C39.7718 243.659 38.8108 247.761 38.8108 247.761C38.8108 247.761 37.6798 246.548 36.5195 247.234C35.3593 247.919 35.3475 250.615 35.3475 250.615L51.8141 250.592Z" fill="#37474F"/>
<path d="M215.214 250.592C215.214 250.592 214.722 248.294 213.738 247.937C212.753 247.58 212.155 248.617 212.155 248.617C212.155 248.617 211.921 246.419 210.526 245.757C209.132 245.095 208.083 246.449 208.083 246.449C208.083 246.449 207.01 243.659 205.094 243.659C203.178 243.659 202.211 247.761 202.211 247.761C202.211 247.761 201.086 246.548 199.926 247.234C198.765 247.919 198.754 250.615 198.754 250.615L215.214 250.592Z" fill="#455A64"/>
<path d="M95.3422 250.592H78.0259C78.0259 250.592 78.6119 248.154 79.7429 247.978C80.0885 247.947 80.4353 248.023 80.7369 248.195C81.0384 248.366 81.2804 248.626 81.4305 248.939C81.4305 248.939 81.3778 245.534 83.5226 244.954C85.6673 244.374 87.4605 247.38 87.4605 247.38C87.4605 247.38 88.8083 245.669 90.6366 245.775C92.4649 245.88 92.9396 248.705 92.9396 248.705C92.9396 248.705 94.6038 247.738 95.3422 250.592Z" fill="#37474F"/>
<path d="M36.4258 250.592H27.3135C27.3135 250.592 27.3135 249.239 28.2276 248.875C28.4713 248.77 28.7424 248.747 29.0002 248.81C29.2581 248.872 29.4887 249.016 29.6575 249.221C29.6575 249.221 30.0208 246.725 31.6909 246.725C33.361 246.725 34.1638 248.875 34.1638 248.875C34.3055 248.67 34.5042 248.511 34.7353 248.417C34.9665 248.323 35.2201 248.299 35.4647 248.348C36.3906 248.465 36.4258 250.592 36.4258 250.592Z" fill="#455A64"/>
<path d="M102.491 250.591H93.3792C93.3792 250.591 93.3791 249.238 94.2933 248.874C94.5369 248.769 94.8081 248.746 95.0659 248.809C95.3238 248.871 95.5544 249.015 95.7232 249.22C95.7232 249.22 96.104 246.706 97.7624 246.706C99.4208 246.706 100.206 248.874 100.206 248.874C100.348 248.669 100.546 248.51 100.778 248.416C101.009 248.322 101.262 248.298 101.507 248.347C102.456 248.464 102.491 250.591 102.491 250.591Z" fill="#455A64"/>
<path d="M252.39 250.592H243.278C243.278 250.592 243.278 249.239 244.192 248.875C244.436 248.77 244.707 248.747 244.965 248.81C245.222 248.872 245.453 249.016 245.622 249.221C245.622 249.221 245.985 246.725 247.655 246.725C249.325 246.725 250.128 248.875 250.128 248.875C250.269 248.669 250.468 248.51 250.699 248.416C250.931 248.322 251.184 248.298 251.429 248.348C252.355 248.465 252.39 250.592 252.39 250.592Z" fill="#455A64"/>
<path d="M265.687 250.592H250.661C250.661 250.592 250.697 248.359 252.173 247.761C252.575 247.592 253.02 247.558 253.443 247.664C253.865 247.77 254.242 248.009 254.517 248.347C254.517 248.347 255.103 244.245 257.875 244.245C260.647 244.245 261.942 247.761 261.942 247.761C262.175 247.422 262.503 247.159 262.884 247.005C263.265 246.851 263.684 246.812 264.087 246.894C265.628 247.093 265.687 250.592 265.687 250.592Z" fill="#37474F"/>
<path d="M268.757 250.593H24.2369V254.853H268.757V250.593Z" fill="#C7C7C7"/>
<path d="M41.3833 250.592C41.7661 251.986 41.7661 253.458 41.3833 254.852C41.1773 254.162 41.0785 253.445 41.0903 252.725C41.081 252.003 41.1797 251.284 41.3833 250.592Z" fill="#263238"/>
<path d="M60.4928 250.592C60.6963 251.284 60.7951 252.003 60.7858 252.725C60.7976 253.445 60.6988 254.162 60.4928 254.852C60.11 253.458 60.11 251.986 60.4928 250.592Z" fill="#263238"/>
<path d="M79.6082 250.592C79.9909 251.986 79.9909 253.458 79.6082 254.852C79.4022 254.162 79.3033 253.445 79.3152 252.725C79.3058 252.003 79.4046 251.284 79.6082 250.592Z" fill="#263238"/>
<path d="M98.7175 250.592C98.9211 251.284 99.0198 252.003 99.0105 252.725C99.0223 253.445 98.9235 254.162 98.7175 254.852C98.3347 253.458 98.3347 251.986 98.7175 250.592Z" fill="#263238"/>
<path d="M117.833 250.592C118.216 251.986 118.216 253.458 117.833 254.852C117.627 254.162 117.528 253.445 117.54 252.725C117.531 252.003 117.629 251.284 117.833 250.592Z" fill="#263238"/>
<path d="M136.942 250.592C137.146 251.284 137.245 252.003 137.235 252.725C137.247 253.445 137.148 254.162 136.942 254.852C136.56 253.458 136.56 251.986 136.942 250.592Z" fill="#263238"/>
<path d="M156.058 250.592C156.44 251.986 156.44 253.458 156.058 254.852C155.852 254.162 155.753 253.445 155.765 252.725C155.755 252.003 155.854 251.284 156.058 250.592Z" fill="#263238"/>
<path d="M175.167 250.592C175.371 251.284 175.469 252.003 175.46 252.725C175.472 253.445 175.373 254.162 175.167 254.852C174.784 253.458 174.784 251.986 175.167 250.592Z" fill="#263238"/>
<path d="M194.282 250.592C194.665 251.986 194.665 253.458 194.282 254.852C194.076 254.162 193.978 253.445 193.989 252.725C193.98 252.003 194.079 251.284 194.282 250.592Z" fill="#263238"/>
<path d="M213.392 250.592C213.595 251.284 213.694 252.003 213.685 252.725C213.697 253.445 213.598 254.162 213.392 254.852C213.009 253.458 213.009 251.986 213.392 250.592Z" fill="#263238"/>
<path d="M232.507 250.592C232.89 251.986 232.89 253.458 232.507 254.852C232.301 254.162 232.202 253.445 232.214 252.725C232.205 252.003 232.304 251.284 232.507 250.592Z" fill="#263238"/>
<path d="M251.617 250.592C251.82 251.284 251.919 252.003 251.91 252.725C251.921 253.445 251.823 254.162 251.617 254.852C251.234 253.458 251.234 251.986 251.617 250.592Z" fill="#263238"/>
<path d="M26.0477 254.852L56.1623 254.711L86.2768 254.658L146.5 254.559L206.723 254.658L236.838 254.711L266.952 254.852L236.838 254.998L206.723 255.051L146.5 255.145L86.2768 255.045L56.1623 254.998L26.0477 254.852Z" fill="#263238"/>
<path opacity="0.1" d="M172.552 75.4176C179.731 68.2386 179.731 56.5993 172.552 49.4203C165.373 42.2414 153.733 42.2414 146.555 49.4203C139.376 56.5993 139.376 68.2386 146.555 75.4176C153.733 82.5965 165.373 82.5965 172.552 75.4176Z" fill="#B3404A"/>
<path d="M159.55 73.982C165.936 73.982 171.112 68.8056 171.112 62.4202C171.112 56.0348 165.936 50.8584 159.55 50.8584C153.165 50.8584 147.988 56.0348 147.988 62.4202C147.988 68.8056 153.165 73.982 159.55 73.982Z" fill="#B3404A"/>
</svg>
