<svg width="293" height="293" viewBox="0 0 293 293" fill="none" xmlns="http://www.w3.org/2000/svg">
<path d="M142.216 138.671C152.131 148.984 181.917 194.886 184.238 196.257C184.238 196.257 184.238 226.278 167.648 220.283C151.059 214.288 135.852 160.429 132.606 143.259C130.894 134.194 134.117 130.256 142.216 138.671Z" fill="#D3766A"/>
<path d="M139.691 174.159L170.093 170.702C170.093 170.702 151.235 145.686 141.49 136.755C131.329 127.449 126.348 128.756 131.059 146.383C135.794 164.115 139.691 174.159 139.691 174.159Z" fill="#B3404A"/>
<path d="M138.261 157.598C137.927 158.437 137.714 159.319 137.629 160.218C138.689 158.752 139.35 157.035 139.545 155.237C139.002 155.956 138.57 156.752 138.261 157.598ZM155.337 158.284C154.501 157.949 153.621 157.736 152.724 157.651C154.187 158.713 155.902 159.373 157.699 159.567C156.981 159.024 156.184 158.591 155.337 158.284ZM150.808 170.109C150.45 169.283 149.976 168.511 149.401 167.818C149.536 168.708 149.796 169.574 150.175 170.391C150.521 171.222 150.991 171.997 151.569 172.688C151.438 171.797 151.182 170.929 150.808 170.109ZM132.97 132.019C132.817 131.697 132.665 131.381 132.489 131.064C132.281 131.044 132.071 131.044 131.862 131.064C132.003 131.492 132.161 131.902 132.337 132.312C132.689 133.142 133.161 133.916 133.738 134.609C133.606 133.714 133.347 132.842 132.97 132.019ZM168.007 167.965L167.421 168.199C166.591 168.556 165.816 169.027 165.118 169.599C166.011 169.467 166.881 169.209 167.702 168.832C167.936 168.726 168.165 168.615 168.394 168.492L168.007 167.965ZM144.567 143.815C143.739 144.17 142.966 144.64 142.27 145.21C143.163 145.082 144.034 144.825 144.854 144.448C145.682 144.093 146.456 143.621 147.151 143.048C146.253 143.177 145.379 143.435 144.555 143.815H144.567ZM142.528 143.868C142.493 143.892 142.46 143.917 142.428 143.944H142.533C142.533 143.944 142.516 143.886 142.516 143.868H142.528Z" fill="white"/>
<path d="M141.15 168.692C141.859 168.528 142.603 168.463 143.324 168.364L145.562 168.053C147.069 167.842 148.58 167.654 150.092 167.467C153.116 167.115 156.14 166.746 159.169 166.447C160.002 166.365 160.84 166.283 161.672 166.219C162.504 166.154 163.43 166.154 164.309 166.09C164.361 166.09 164.361 166.166 164.309 166.172C163.564 166.283 162.826 166.453 162.082 166.57C161.338 166.688 160.547 166.793 159.779 166.887C158.273 167.08 156.755 167.256 155.243 167.426C152.266 167.748 149.284 168.088 146.295 168.352L143.799 168.563C142.925 168.639 142.041 168.768 141.162 168.762C141.155 168.76 141.149 168.755 141.144 168.75C141.14 168.744 141.137 168.737 141.135 168.73C141.134 168.723 141.135 168.716 141.137 168.709C141.14 168.702 141.144 168.696 141.15 168.692Z" fill="#263238"/>
<path opacity="0.1" d="M154.44 172.483L139.696 174.159C139.696 174.159 135.799 164.115 131.058 146.382C129.06 138.905 128.808 134.363 129.957 132.318L154.44 172.483Z" fill="black"/>
<path d="M148.123 236.685H101.882C101.501 235.196 101.132 233.755 100.763 232.29C100.341 230.631 99.9246 229.014 99.5262 227.438C99.4383 227.086 99.3445 226.734 99.2566 226.389C98.9519 225.181 98.653 224.009 98.36 222.873C98.1842 222.175 98.0084 221.49 97.8385 220.81C97.6685 220.13 97.4869 219.439 97.3169 218.776C97.2701 218.601 97.229 218.425 97.1822 218.255L97.0415 217.669L96.8657 216.983C96.8013 216.743 96.7427 216.509 96.6841 216.274C96.5669 215.829 96.4555 215.389 96.35 214.962C96.186 214.329 96.0277 213.708 95.8754 213.104C95.8109 212.84 95.7406 212.577 95.6761 212.319C95.5648 211.897 95.4593 211.487 95.3597 211.082C95.2894 210.813 95.2249 210.549 95.1605 210.291C94.887 209.229 94.6331 208.232 94.3987 207.303C94.3342 207.057 94.2756 206.816 94.2111 206.582C94.1115 206.178 94.0119 205.791 93.9181 205.41C93.8517 205.175 93.7931 204.947 93.7423 204.724C93.5372 203.927 93.3497 203.201 93.1915 202.562C93.1446 202.392 93.1036 202.228 93.0626 202.07C92.9571 201.648 92.8575 201.273 92.7754 200.939C92.7403 200.804 92.711 200.675 92.6758 200.558L92.5821 200.189C92.5821 200.107 92.541 200.025 92.5235 199.954L92.4414 199.638C92.4414 199.587 92.4297 199.54 92.4063 199.497L92.3008 199.081H137.311C137.311 199.081 138.794 204.191 141.167 212.43C141.648 214.106 142.169 215.946 142.726 217.839C144.302 223.336 146.142 229.746 148.123 236.685Z" fill="#37474F"/>
<path d="M109.453 236.685H108.281C106.57 229.602 104.912 222.506 103.306 215.396C102.916 213.665 102.525 211.934 102.134 210.204L102.029 209.717C102.027 209.7 102.031 209.683 102.041 209.669C102.05 209.655 102.064 209.645 102.081 209.641C102.097 209.637 102.115 209.638 102.13 209.646C102.145 209.654 102.157 209.666 102.164 209.682C102.164 209.735 102.193 209.787 102.21 209.84C102.73 211.7 103.248 213.561 103.763 215.425C105.744 222.492 107.641 229.579 109.453 236.685Z" fill="#263238"/>
<path d="M135.852 199.087L133.866 209.049L132.237 217.206L129.465 231.106L129.178 232.53L128.703 234.903L128.334 236.685H101.876C101.501 235.19 101.126 233.755 100.763 232.29C100.341 230.631 99.9246 229.014 99.5262 227.438C99.4383 227.086 99.3445 226.734 99.2566 226.389C98.9519 225.181 98.653 224.009 98.36 222.873C98.1842 222.175 98.0084 221.49 97.8385 220.81C97.6685 220.13 97.4869 219.439 97.3169 218.776C97.2701 218.601 97.229 218.425 97.1822 218.255L97.0415 217.669L96.8657 216.983C96.8013 216.743 96.7427 216.509 96.6841 216.274C96.5669 215.829 96.4555 215.389 96.35 214.962C96.186 214.329 96.0277 213.708 95.8754 213.104C95.8051 212.834 95.7406 212.577 95.6761 212.319C95.5648 211.897 95.4593 211.487 95.3597 211.082C95.2894 210.813 95.2249 210.549 95.1605 210.291C94.887 209.229 94.6331 208.232 94.3987 207.303C94.3342 207.057 94.2756 206.816 94.2111 206.582C94.1115 206.178 94.0119 205.791 93.9181 205.41C93.8517 205.175 93.7931 204.947 93.7423 204.724C93.5372 203.927 93.3497 203.201 93.1915 202.562C93.1446 202.392 93.1036 202.228 93.0626 202.07C92.9571 201.648 92.8575 201.273 92.7754 200.939C92.7403 200.804 92.711 200.675 92.6758 200.558L92.5821 200.189C92.5821 200.107 92.541 200.025 92.5235 199.954L92.4414 199.638C92.4414 199.587 92.4297 199.54 92.4063 199.497L92.3008 199.081L135.852 199.087Z" fill="#263238"/>
<path d="M135.858 199.069C135.858 199.315 135.671 201.999 135.237 206.101C135.114 207.273 134.968 208.609 134.798 210.016C134.534 212.237 134.212 214.704 133.802 217.276C133.11 221.794 132.208 226.723 131.036 231.54C130.62 233.298 130.162 234.991 129.676 236.673H71.5742C72.2598 227.819 72.8869 219.808 73.385 213.497C74.0823 204.613 74.557 199.052 74.557 199.052H127.262L135.858 199.069Z" fill="#37474F"/>
<path d="M135.736 204.408C135.671 206.488 135.583 208.562 135.448 210.631C135.308 212.875 135.103 215.114 134.81 217.352C134.81 217.435 134.81 217.517 134.78 217.599C134.507 219.696 134.192 221.789 133.837 223.875C133.503 225.82 133.251 227.918 132.395 229.735C132.07 230.431 131.608 231.055 131.036 231.569C130.512 232.048 129.871 232.379 129.178 232.53C129.065 232.558 128.949 232.578 128.832 232.588H128.733C128.754 232.601 128.772 232.619 128.783 232.641C128.794 232.662 128.799 232.687 128.797 232.712C128.797 233.409 128.797 234.118 128.715 234.809C128.715 234.839 128.715 234.868 128.715 234.897C128.645 235.483 128.534 236.099 128.422 236.696H127.426V236.661C127.602 236.005 127.748 235.343 127.912 234.681C128.076 234.018 128.311 233.344 128.469 232.659C128.478 232.633 128.494 232.611 128.516 232.594C127.884 232.625 127.257 232.461 126.721 232.124C126.184 231.788 125.764 231.296 125.516 230.713C125.266 229.822 125.249 228.882 125.469 227.983C125.65 226.811 125.826 225.603 126.008 224.414C126.348 222.228 126.787 220.066 127.18 217.892L127.356 216.901C128.135 212.477 128.95 208.053 129.928 203.669C129.963 203.488 130.004 203.306 130.045 203.124C130.086 202.943 130.268 203.036 130.256 203.154C130.227 203.447 130.198 203.74 130.163 204.039C129.991 205.722 129.795 207.398 129.577 209.066C129.295 211.03 129.102 213.004 128.827 214.967C128.733 215.635 128.639 216.304 128.539 216.972C128.088 220.2 127.619 223.418 127.069 226.646C126.811 228.141 125.897 230.819 128.03 231.282C128.522 231.391 129.038 231.327 129.489 231.1C130.438 230.528 131.148 229.63 131.487 228.574C132.015 226.816 132.397 225.016 132.63 223.195C132.981 221.242 133.294 219.271 133.567 217.282C133.919 214.817 134.286 212.354 134.669 209.893C134.86 208.639 135.056 207.385 135.255 206.131L135.536 204.373C135.542 204.25 135.736 204.285 135.736 204.408Z" fill="#263238"/>
<path d="M84.3197 219.855C86.7393 219.83 89.1466 219.505 91.4864 218.888C92.5647 218.613 93.6312 218.267 94.6918 217.921C95.7427 217.631 96.7263 217.137 97.5867 216.468C99.2158 215.061 99.9717 212.852 100.681 210.883C101.45 208.666 102.075 206.402 102.55 204.103C102.55 203.992 102.738 204.033 102.743 204.138C102.8 206.737 102.47 209.33 101.765 211.833C101.179 213.96 100.394 216.327 98.6766 217.816C96.9597 219.304 94.4223 219.937 92.1076 220.218C89.5121 220.52 86.8884 220.485 84.3021 220.113C84.2679 220.11 84.236 220.095 84.2135 220.069C84.191 220.043 84.1796 220.009 84.1819 219.975C84.1843 219.941 84.2001 219.909 84.2259 219.887C84.2517 219.864 84.2855 219.853 84.3197 219.855Z" fill="#263238"/>
<path d="M80.2815 204.174C80.1526 207.424 80.0159 210.678 79.8713 213.937C79.5393 221.519 79.174 229.102 78.7755 236.685H77.6855C78.1856 229.087 78.711 221.492 79.2619 213.901C79.5002 210.655 79.7463 207.411 80.0002 204.168C80.001 204.131 80.0166 204.095 80.0435 204.069C80.0704 204.044 80.1065 204.03 80.1438 204.03C80.1811 204.031 80.2166 204.047 80.2424 204.074C80.2682 204.101 80.2823 204.137 80.2815 204.174Z" fill="#263238"/>
<path d="M145.861 223.136L67.0381 217.159C67.0381 217.159 82.8952 154.311 114.205 131.205C122.21 125.304 130.971 129.089 134.914 133.502C144.935 144.741 146.095 222.884 145.861 223.136Z" fill="#B3404A"/>
<path d="M117.85 134.065C117.519 134.903 117.306 135.782 117.217 136.678C117.757 135.963 118.191 135.173 118.506 134.334C118.837 133.497 119.05 132.617 119.139 131.721C118.602 132.438 118.168 133.227 117.85 134.065ZM109.294 167.971C108.957 168.808 108.746 169.691 108.667 170.59C109.723 169.122 110.381 167.406 110.578 165.609C110.04 166.331 109.608 167.126 109.294 167.971ZM81.1312 182.509C80.7977 183.348 80.5846 184.23 80.4983 185.129C81.5589 183.663 82.2193 181.946 82.4145 180.148C81.881 180.873 81.4492 181.667 81.1312 182.509ZM103.862 203.928C103.522 204.762 103.309 205.643 103.229 206.541C104.285 205.073 104.943 203.358 105.14 201.56C104.602 202.284 104.172 203.081 103.862 203.928ZM138.26 157.587C137.926 158.426 137.713 159.308 137.627 160.206C138.688 158.741 139.348 157.024 139.544 155.225C139 155.948 138.568 156.748 138.26 157.599V157.587ZM124.231 200.218C123.891 201.053 123.675 201.934 123.593 202.832C124.131 202.117 124.564 201.327 124.876 200.488C125.21 199.651 125.423 198.771 125.509 197.874C124.972 198.59 124.542 199.379 124.231 200.218ZM95.8281 155.993C95.4939 156.83 95.2808 157.71 95.1952 158.606C96.2573 157.142 96.9161 155.424 97.1055 153.625C96.5659 154.348 96.1354 155.145 95.8281 155.993ZM127.32 144.742C126.484 144.404 125.604 144.191 124.706 144.109C125.423 144.644 126.212 145.074 127.05 145.386C127.887 145.725 128.77 145.938 129.67 146.019C128.952 145.482 128.161 145.052 127.32 144.742ZM136.25 172.993C135.414 172.657 134.534 172.443 133.637 172.36C134.352 172.898 135.141 173.328 135.981 173.637C136.817 173.975 137.697 174.191 138.594 174.276C137.878 173.744 137.089 173.32 136.25 173.016V172.993ZM138.647 206.758C137.81 206.424 136.93 206.211 136.034 206.125C136.748 206.665 137.538 207.097 138.378 207.409C139.215 207.741 140.094 207.954 140.991 208.041C140.272 207.514 139.483 207.09 138.647 206.782V206.758ZM82.5376 203.98C81.7011 203.646 80.821 203.433 79.924 203.348C81.3868 204.409 83.102 205.07 84.8992 205.264C84.1763 204.733 83.381 204.309 82.5376 204.004V203.98ZM102.819 182.298C101.983 181.962 101.103 181.747 100.205 181.66C100.921 182.199 101.711 182.633 102.549 182.949C103.387 183.28 104.267 183.493 105.163 183.582C104.446 183.05 103.657 182.624 102.819 182.316V182.298ZM132.969 132.002C132.887 131.826 132.805 131.656 132.717 131.486C132.43 131.27 132.131 131.059 131.808 130.854C131.954 131.345 132.13 131.826 132.336 132.295C132.688 133.125 133.16 133.899 133.736 134.592C133.603 133.703 133.344 132.837 132.969 132.02V132.002ZM109.933 150.227C109.58 149.397 109.108 148.624 108.533 147.93C108.814 149.717 109.562 151.399 110.701 152.805C110.572 151.913 110.313 151.044 109.933 150.227ZM130.273 219.568C129.92 218.74 129.45 217.967 128.878 217.271C129.008 218.162 129.265 219.031 129.64 219.849C129.974 220.62 130.406 221.345 130.924 222.006H131.017C130.882 221.163 130.632 220.343 130.273 219.568ZM122.79 178.73C122.433 177.902 121.962 177.129 121.389 176.433C121.681 178.216 122.425 179.895 123.552 181.308C123.422 180.417 123.165 179.548 122.79 178.73ZM69.1006 209.87C69.0654 209.993 69.0303 210.116 68.9893 210.233C69.0654 210.315 69.1358 210.403 69.2061 210.485C69.1826 210.284 69.1474 210.084 69.1006 209.887V209.87ZM92.5406 194.235C92.1849 193.409 91.7133 192.637 91.1401 191.944C91.4233 193.729 92.171 195.409 93.3083 196.814C93.1685 195.927 92.9042 195.065 92.523 194.253L92.5406 194.235ZM97.5685 216.796C97.2129 215.968 96.7413 215.195 96.1679 214.499C96.4581 216.286 97.205 217.967 98.3361 219.381C98.1983 218.494 97.9339 217.631 97.5509 216.82L97.5685 216.796ZM136.989 189.653C136.161 190.01 135.388 190.481 134.692 191.053C135.583 190.922 136.452 190.663 137.27 190.286C138.101 189.932 138.877 189.46 139.573 188.885C138.672 189.019 137.796 189.284 136.971 189.67L136.989 189.653ZM74.8141 193.075L74.5152 193.884C75.1472 193.579 75.738 193.195 76.2732 192.741C75.7702 192.807 75.2753 192.925 74.7965 193.093L74.8141 193.075ZM115.002 212.601C114.173 212.953 113.4 213.423 112.705 213.995C113.598 213.865 114.468 213.608 115.289 213.233C116.117 212.874 116.89 212.401 117.586 211.827C116.684 211.96 115.808 212.226 114.984 212.618L115.002 212.601ZM79.0626 217.828L78.6583 218.021L80.0354 218.127C80.611 217.836 81.15 217.478 81.641 217.06C80.7428 217.197 79.8687 217.462 79.045 217.845L79.0626 217.828ZM92.8688 169.641C92.0432 170.002 91.2705 170.473 90.5716 171.041C92.3578 170.753 94.0392 170.008 95.453 168.879C94.5525 169.011 93.676 169.274 92.8512 169.658L92.8688 169.641ZM113.074 192.085C112.246 192.442 111.472 192.916 110.777 193.491C112.565 193.204 114.247 192.457 115.658 191.323C114.758 191.457 113.882 191.72 113.056 192.102L113.074 192.085ZM123.622 161.232C122.796 161.591 122.023 162.062 121.325 162.632C123.111 162.349 124.792 161.604 126.2 160.47C125.296 160.603 124.416 160.865 123.587 161.249L123.622 161.232Z" fill="white"/>
<path d="M130.45 146.635C125.902 145.961 121.285 136.784 120.488 130.526C120.435 130.092 127.52 116.573 128.627 113.754C128.856 113.168 144.654 125.099 144.654 125.099C144.654 125.099 140.552 130.326 138.636 135.266C138.501 135.677 134.845 147.279 130.45 146.635Z" fill="#D3766A"/>
<path d="M144.678 125.099C144.678 125.099 140.576 130.326 138.654 135.26C138.619 135.36 138.384 136.086 137.997 137.124C129.876 133.022 126.565 125.697 125.229 120.862C126.764 117.786 128.194 114.897 128.651 113.754C128.879 113.174 144.678 125.099 144.678 125.099Z" fill="#263238"/>
<path d="M132.278 91.7967C127.654 97.1468 123.03 116.444 125.673 122.374C129.512 130.965 139.737 136.128 148.012 130.637C156.057 125.31 161.636 100.053 158.314 94.2637C153.426 85.7316 139.099 83.8974 132.278 91.7967Z" fill="#D3766A"/>
<path d="M144.631 107.472C144.045 107.519 143.459 107.472 142.873 107.472C142.25 107.557 141.618 107.433 141.074 107.12C140.922 106.988 140.818 106.81 140.777 106.613C140.737 106.416 140.763 106.211 140.851 106.03C141.08 105.7 141.393 105.437 141.757 105.268C142.122 105.099 142.525 105.03 142.925 105.069C143.747 105.021 144.558 105.28 145.199 105.796C145.335 105.924 145.431 106.088 145.476 106.269C145.521 106.45 145.513 106.64 145.453 106.817C145.393 106.993 145.284 107.149 145.138 107.265C144.992 107.381 144.816 107.453 144.631 107.472Z" fill="#263238"/>
<path d="M144.115 110.303C144.115 110.25 143.997 110.344 143.986 110.402C143.769 111.721 143.294 113.197 142.023 113.397C141.982 113.397 141.97 113.467 142.023 113.473C143.505 113.555 144.115 111.592 144.115 110.303Z" fill="#263238"/>
<path d="M143.212 108.696C141.132 108.11 140.124 112.324 142.04 112.857C143.957 113.39 144.953 109.183 143.212 108.696Z" fill="#263238"/>
<path d="M151.674 111.926C151.674 111.879 151.762 112.014 151.75 112.066C151.399 113.356 151.211 114.897 152.283 115.582C152.319 115.582 152.283 115.67 152.254 115.653C150.865 115.137 151.135 113.098 151.674 111.926Z" fill="#263238"/>
<path d="M153.163 110.847C155.296 111.187 154.458 115.424 152.483 115.107C150.508 114.791 151.376 110.56 153.163 110.847Z" fill="#263238"/>
<path d="M155.325 108.762C154.787 108.511 154.262 108.232 153.755 107.924C153.159 107.703 152.654 107.291 152.319 106.752C152.246 106.563 152.237 106.355 152.294 106.161C152.351 105.967 152.472 105.798 152.635 105.679C153.356 105.21 154.188 105.427 154.927 105.791C155.68 106.133 156.279 106.743 156.609 107.502C156.678 107.68 156.693 107.875 156.653 108.062C156.613 108.249 156.519 108.42 156.382 108.554C156.245 108.688 156.072 108.78 155.885 108.816C155.697 108.853 155.502 108.834 155.325 108.762Z" fill="#263238"/>
<path d="M139.755 121.582C139.989 121.963 140.2 122.456 140.663 122.608C141.152 122.713 141.657 122.713 142.146 122.608C142.156 122.607 142.166 122.609 142.174 122.614C142.183 122.619 142.189 122.627 142.193 122.636C142.197 122.645 142.198 122.655 142.196 122.665C142.194 122.675 142.189 122.683 142.181 122.69C141.934 122.901 141.635 123.041 141.316 123.096C140.996 123.15 140.667 123.117 140.364 123.001C140.115 122.869 139.91 122.666 139.777 122.418C139.643 122.169 139.586 121.887 139.614 121.606C139.614 121.53 139.72 121.524 139.755 121.582Z" fill="#263238"/>
<path d="M142.052 118.014C142.261 118.608 142.59 119.152 143.019 119.612C143.447 120.073 143.966 120.441 144.543 120.692C145.044 120.918 145.575 121.072 146.119 121.149C146.221 121.172 146.325 121.184 146.43 121.184C146.529 121.191 146.629 121.191 146.729 121.184C146.801 121.189 146.873 121.169 146.932 121.127C146.992 121.086 147.036 121.025 147.057 120.956C147.06 120.909 147.06 120.862 147.057 120.815V120.698C147.32 119.702 147.59 118.155 147.59 118.155C147.912 118.424 149.577 119.713 149.676 119.18C150.456 114.785 151.317 109.898 151.165 105.356C151.165 105.324 151.152 105.293 151.129 105.269C151.105 105.246 151.074 105.233 151.042 105.233C151.009 105.233 150.978 105.246 150.955 105.269C150.931 105.293 150.919 105.324 150.919 105.356C150.004 109.552 149.834 113.883 148.979 118.114C148.406 117.643 147.768 117.256 147.086 116.965C146.934 116.965 146.623 119.965 146.465 120.399C146.466 120.415 146.466 120.43 146.465 120.446C144.707 120.258 143.582 119.444 142.216 117.926C142.128 117.827 142 117.891 142.052 118.014Z" fill="#263238"/>
<path d="M145.65 120.498C144.928 121.081 144.069 121.468 143.154 121.623C142.653 121.693 142.143 121.605 141.695 121.371C140.722 120.85 140.921 119.889 141.308 119.115C141.519 118.708 141.776 118.326 142.076 117.979C142.968 119.179 144.22 120.062 145.65 120.498Z" fill="#263238"/>
<path d="M143.154 121.623C142.653 121.693 142.143 121.605 141.695 121.371C140.722 120.85 140.921 119.889 141.308 119.115C142.398 119.496 143.318 120.522 143.154 121.623Z" fill="#FF97B8"/>
<path d="M160.083 101.776C151.879 105.21 143.582 95.7111 143.582 95.7111C142.641 97.1527 141.261 98.2521 139.645 98.8456C138.03 99.439 136.266 99.4947 134.616 99.0044C134.616 99.0044 130.678 110.883 127.467 110.168C122.585 109.125 124.537 92.2126 126.746 89.2709C128.955 86.3292 133.291 86.3409 133.291 86.3409C133.291 86.3409 134.118 83.8739 137.622 82.192C141.49 80.3286 152.272 86.171 152.272 86.171C153.251 84.7674 154.545 83.6133 156.052 82.8015C156.415 82.5971 156.817 82.4687 157.231 82.424C157.646 82.3793 158.066 82.4192 158.465 82.5414C158.863 82.6636 159.233 82.8654 159.552 83.1348C159.87 83.4041 160.131 83.7353 160.318 84.1083C159.517 84.8783 158.902 85.82 158.519 86.8625C157.2 90.3081 160.113 90.9117 160.763 87.6711C161.046 86.4685 160.888 85.2043 160.318 84.1083C162.193 82.2917 164.683 82.0924 165.873 83.5223C168.059 86.1417 166.91 98.9282 160.083 101.776Z" fill="#263238"/>
<path d="M139.96 116.825C138.95 116.501 138.052 115.9 137.367 115.091C136.682 114.282 136.239 113.297 136.086 112.248C135.934 111.199 136.079 110.128 136.505 109.158C136.932 108.187 137.622 107.356 138.498 106.758C139.373 106.161 140.399 105.821 141.458 105.778C142.518 105.735 143.568 105.99 144.489 106.515C145.41 107.039 146.166 107.812 146.669 108.745C147.173 109.678 147.404 110.733 147.338 111.791C147.282 112.65 147.032 113.485 146.605 114.233C146.179 114.981 145.588 115.622 144.876 116.107C144.165 116.592 143.353 116.909 142.501 117.034C141.649 117.158 140.78 117.086 139.96 116.825ZM143.195 106.775C142.815 106.652 142.421 106.575 142.023 106.546C140.774 106.458 139.538 106.849 138.567 107.64C137.597 108.432 136.965 109.563 136.801 110.805C136.636 112.046 136.952 113.303 137.682 114.32C138.413 115.337 139.505 116.036 140.734 116.276C141.963 116.516 143.237 116.277 144.296 115.61C145.355 114.942 146.12 113.895 146.434 112.683C146.748 111.471 146.588 110.185 145.986 109.087C145.384 107.989 144.385 107.162 143.195 106.775Z" fill="#B3404A"/>
<path d="M152.448 119.192C150.42 118.43 149.366 115.676 150.104 112.799C150.419 111.422 151.159 110.18 152.219 109.248C152.648 108.816 153.181 108.502 153.767 108.338C154.353 108.174 154.971 108.165 155.562 108.311C156.152 108.458 156.695 108.755 157.136 109.174C157.577 109.593 157.902 110.119 158.079 110.701C158.576 112.023 158.648 113.467 158.284 114.832C157.534 117.856 155.091 119.866 152.835 119.304C152.703 119.278 152.573 119.241 152.448 119.192ZM155.618 109.142L155.343 109.06C154.869 108.965 154.38 108.984 153.916 109.118C153.452 109.252 153.027 109.495 152.676 109.828C151.74 110.659 151.087 111.761 150.807 112.981C150.157 115.606 151.124 118.114 152.981 118.571C154.839 119.028 156.866 117.27 157.517 114.651C157.843 113.442 157.781 112.161 157.341 110.988C157.199 110.577 156.973 110.2 156.676 109.882C156.379 109.564 156.019 109.312 155.618 109.142Z" fill="#B3404A"/>
<path d="M147.027 112.4L146.664 111.738C147.643 111.193 149.776 110.63 150.848 112.324L150.204 112.722C149.248 111.205 147.115 112.347 147.027 112.4Z" fill="#B3404A"/>
<path d="M122.017 108.943L121.431 108.474C121.653 108.199 123.628 105.778 125.333 105.837C126.933 105.896 136.696 108.767 137.112 108.913L136.895 109.64C134.094 108.808 126.546 106.634 125.31 106.593C124.173 106.552 122.55 108.275 122.017 108.943Z" fill="#B3404A"/>
<path d="M129.559 109.066C129.559 109.066 127.982 101.519 124.724 101.841C121.466 102.163 120.915 111.873 123.523 114.352C123.834 114.693 124.212 114.967 124.632 115.158C125.052 115.35 125.506 115.454 125.968 115.465C126.429 115.476 126.888 115.393 127.317 115.222C127.746 115.051 128.136 114.795 128.463 114.469L129.559 109.066Z" fill="#D3766A"/>
<path d="M124.636 104.63C124.589 104.601 124.548 104.666 124.584 104.707C126.383 106.511 126.658 109.014 126.57 111.44C126.265 110.362 125.574 109.541 124.167 109.852C124.097 109.852 124.115 109.975 124.167 109.992C124.601 110.032 125.012 110.207 125.342 110.492C125.672 110.776 125.904 111.157 126.008 111.58C126.179 112.287 126.276 113.01 126.295 113.737C126.295 113.977 126.705 114.024 126.728 113.737C126.725 113.717 126.725 113.698 126.728 113.678C127.982 110.971 127.49 106.177 124.636 104.63Z" fill="#263238"/>
<path d="M169.735 162.041C171.217 158.138 205.592 165.205 204.221 171.188C199.187 193.105 185.158 212.689 181.613 217.166C176.96 223.026 167.701 221.725 164.326 218.174C159.433 213.023 168.27 165.908 169.735 162.041Z" fill="#D3766A"/>
<path d="M167.314 172.799C166.55 174.9 165.945 177.055 165.504 179.245C165.005 181.414 164.572 183.594 164.22 185.785C163.525 190.219 163.134 194.694 163.048 199.181C162.984 201.689 163.048 204.191 163.048 206.7C163.048 206.758 163.142 206.752 163.142 206.7C163.142 204.479 163.277 202.24 163.458 200.025C163.64 197.81 163.863 195.554 164.15 193.333C164.707 188.967 165.322 184.607 166.113 180.277C166.332 179.062 166.56 177.851 166.799 176.644C167.051 175.39 167.338 174.141 167.502 172.87C167.502 172.776 167.355 172.694 167.314 172.799Z" fill="#263238"/>
<path d="M161.443 100.27C161.216 103.255 160.77 106.218 160.107 109.137C159.995 109.635 159.872 110.145 159.749 110.648C159.257 112.653 158.671 114.668 157.991 116.608C157.835 117.077 157.671 117.54 157.499 117.997C155.419 123.617 152.67 128.451 149.576 130.502C148.79 131.029 147.957 131.48 147.086 131.85C142.65 129.263 138.946 125.59 136.322 121.177C133.697 116.764 132.239 111.755 132.084 106.623L131.146 106.365C131.293 106.136 131.445 105.902 131.592 105.656C131.738 105.41 131.92 105.099 132.078 104.806C132.313 97.2615 135.361 90.0774 140.622 84.6652C147.988 82.6845 156.807 85.5149 160.517 91.9785C161.419 93.5783 161.695 96.5903 161.443 100.27Z" fill="#D3766A"/>
<path d="M146.002 105.966C145.379 105.999 144.755 105.999 144.132 105.966C143.412 105.966 142.837 106.019 142.222 105.591C142.056 105.451 141.943 105.259 141.9 105.046C141.858 104.833 141.889 104.612 141.988 104.419C142.439 103.622 143.318 103.417 144.185 103.4C145.055 103.348 145.914 103.622 146.594 104.167C146.744 104.301 146.853 104.476 146.905 104.67C146.958 104.865 146.952 105.07 146.889 105.261C146.826 105.453 146.709 105.621 146.551 105.747C146.393 105.872 146.202 105.948 146.002 105.966Z" fill="#263238"/>
<path d="M145.456 108.995C145.456 108.943 145.333 109.042 145.322 109.095C145.093 110.496 144.589 112.06 143.241 112.271C143.2 112.271 143.189 112.347 143.241 112.353C144.812 112.412 145.456 110.332 145.456 108.995Z" fill="#263238"/>
<path d="M144.502 107.266C142.299 106.651 141.232 111.105 143.271 111.673C145.311 112.241 146.348 107.782 144.502 107.266Z" fill="#263238"/>
<path d="M153.468 110.683C153.468 110.636 153.561 110.777 153.544 110.836C153.169 112.201 152.958 113.83 154.13 114.586C154.165 114.586 154.13 114.68 154.101 114.662C152.612 114.082 152.893 111.926 153.468 110.683Z" fill="#263238"/>
<path d="M155.044 109.54C157.3 109.904 156.409 114.392 154.317 114.058C152.225 113.724 153.151 109.236 155.044 109.54Z" fill="#263238"/>
<path d="M157.329 107.332C156.743 107.08 156.233 106.746 155.671 106.447C155.042 106.216 154.507 105.786 154.147 105.222C154.07 105.023 154.061 104.804 154.122 104.6C154.182 104.395 154.308 104.216 154.481 104.091C155.249 103.593 156.128 103.822 156.907 104.208C157.697 104.573 158.323 105.219 158.665 106.019C158.732 106.204 158.744 106.405 158.7 106.597C158.656 106.789 158.558 106.965 158.417 107.103C158.276 107.241 158.099 107.336 157.906 107.376C157.714 107.417 157.513 107.401 157.329 107.332Z" fill="#263238"/>
<path d="M140.839 120.914C141.091 121.313 141.314 121.834 141.806 121.999C142.321 122.113 142.856 122.113 143.371 121.999C143.381 121.998 143.391 122.001 143.4 122.006C143.409 122.012 143.416 122.02 143.42 122.029C143.425 122.038 143.426 122.049 143.425 122.059C143.423 122.069 143.419 122.079 143.412 122.086C143.15 122.31 142.833 122.459 142.493 122.517C142.154 122.575 141.805 122.539 141.484 122.415C141.221 122.274 141.005 122.059 140.864 121.796C140.723 121.533 140.664 121.235 140.693 120.938C140.687 120.856 140.798 120.856 140.839 120.914Z" fill="#263238"/>
<path d="M143.277 117.129C143.496 117.759 143.842 118.337 144.295 118.826C144.748 119.315 145.297 119.705 145.908 119.971C146.439 120.211 147.001 120.373 147.578 120.452C147.688 120.477 147.8 120.491 147.912 120.493C148.016 120.499 148.12 120.499 148.223 120.493C148.3 120.498 148.376 120.477 148.44 120.433C148.504 120.39 148.551 120.326 148.575 120.253C148.581 120.206 148.581 120.159 148.575 120.112V119.989C148.856 118.934 149.161 117.293 149.161 117.293C149.5 117.581 151.264 118.946 151.364 118.383C152.19 113.695 153.122 108.544 152.946 103.733C152.946 103.699 152.933 103.666 152.908 103.642C152.884 103.618 152.851 103.604 152.817 103.604C152.783 103.604 152.75 103.618 152.726 103.642C152.702 103.666 152.688 103.699 152.688 103.733C151.715 108.175 151.516 112.764 150.631 117.211C150.004 116.726 149.312 116.332 148.575 116.039C148.416 116.039 148.082 119.216 147.918 119.678C147.921 119.694 147.921 119.71 147.918 119.725C146.084 119.526 144.865 118.671 143.424 117.053C143.353 116.936 143.218 117 143.277 117.129Z" fill="#263238"/>
<path d="M147.086 119.766C146.32 120.378 145.41 120.781 144.443 120.938C143.914 121.014 143.374 120.919 142.902 120.668C141.864 120.118 142.081 119.098 142.492 118.283C142.713 117.851 142.984 117.445 143.3 117.076C144.242 118.354 145.569 119.297 147.086 119.766Z" fill="#263238"/>
<path d="M144.437 120.956C143.908 121.032 143.368 120.938 142.896 120.687C141.859 120.136 142.075 119.116 142.486 118.302C143.634 118.706 144.613 119.784 144.437 120.956Z" fill="#FF97B8"/>
<path d="M162.368 99.9361C162.058 100.065 161.747 100.176 161.443 100.27C153.051 102.872 144.888 93.5076 144.888 93.5076C143.897 95.0394 142.437 96.2095 140.726 96.8432C139.015 97.4769 137.145 97.5402 135.395 97.0236C134.485 99.7051 133.37 102.313 132.061 104.823C132.218 99.8403 133.604 94.9733 136.094 90.6543C138.584 86.3353 142.102 82.6978 146.336 80.0648C149.009 81.0028 151.61 82.1348 154.118 83.4519C155.156 81.9654 156.529 80.7431 158.126 79.8831C158.511 79.6664 158.935 79.53 159.374 79.4821C159.813 79.4343 160.257 79.476 160.68 79.6047C161.102 79.7334 161.494 79.9465 161.831 80.2311C162.169 80.5157 162.445 80.8658 162.644 81.2602C161.798 82.0823 161.147 83.0835 160.739 84.1902C159.345 87.8352 162.427 88.4739 163.113 85.0458C163.416 83.7705 163.249 82.4288 162.644 81.2661C164.63 79.3499 167.267 79.1389 168.504 80.6801C170.813 83.3874 169.606 96.9182 162.368 99.9361Z" fill="#263238"/>
<path d="M146.716 105.562C145.741 104.749 144.532 104.269 143.265 104.191C142.884 104.166 142.501 104.18 142.122 104.232C141.172 104.354 140.266 104.703 139.479 105.249C138.692 105.794 138.047 106.521 137.598 107.367C137.469 107.603 137.359 107.85 137.27 108.105C137.067 108.646 136.946 109.215 136.913 109.793C136.831 111.123 137.194 112.442 137.944 113.543C138.694 114.644 139.788 115.465 141.056 115.875C141.531 116.025 142.023 116.117 142.521 116.151H142.896C144.332 116.154 145.722 115.641 146.814 114.707C147.905 113.773 148.625 112.478 148.844 111.059C148.844 110.889 148.885 110.719 148.896 110.543C148.908 110.367 148.896 110.285 148.896 110.162C148.894 109.282 148.698 108.413 148.321 107.618C147.944 106.823 147.396 106.121 146.716 105.562ZM142.568 115.348C141.308 115.267 140.12 114.73 139.228 113.838C138.335 112.945 137.798 111.757 137.718 110.498C137.637 109.238 138.019 107.992 138.791 106.993C139.562 105.993 140.672 105.31 141.911 105.07C142.342 104.986 142.781 104.959 143.218 104.988C143.648 105.016 144.073 105.096 144.484 105.228C145.007 105.396 145.5 105.647 145.943 105.972C146.854 106.632 147.526 107.569 147.857 108.644C148.189 109.718 148.162 110.871 147.781 111.929C147.4 112.987 146.686 113.893 145.745 114.51C144.805 115.126 143.69 115.42 142.568 115.348Z" fill="#B3404A"/>
<path d="M160.213 109.388L160.107 109.136C159.748 108.312 159.131 107.627 158.349 107.185C158.097 107.044 157.827 106.938 157.546 106.868C157.138 106.769 156.715 106.745 156.298 106.798C155.448 106.917 154.652 107.281 154.007 107.847C153.522 108.26 153.103 108.744 152.765 109.283C152.506 109.682 152.288 110.106 152.114 110.548C151.995 110.834 151.897 111.127 151.821 111.427C151.8 111.487 151.782 111.547 151.768 111.609C151.421 112.938 151.458 114.338 151.874 115.646C152.047 116.253 152.354 116.813 152.77 117.286C153.187 117.759 153.703 118.134 154.282 118.383C154.405 118.43 154.528 118.465 154.657 118.5C155.143 118.61 155.645 118.623 156.135 118.536C156.625 118.45 157.093 118.266 157.511 117.996C159.004 117.021 160.055 115.5 160.441 113.76C160.824 112.314 160.744 110.786 160.213 109.388ZM159.627 113.566C159.36 114.709 158.791 115.76 157.98 116.608C157.598 117.053 157.106 117.39 156.552 117.585C155.999 117.781 155.404 117.828 154.827 117.721C152.858 117.235 151.833 114.58 152.524 111.802C152.82 110.511 153.51 109.344 154.499 108.462C154.871 108.11 155.323 107.852 155.815 107.711C156.308 107.569 156.827 107.547 157.33 107.648C157.427 107.671 157.523 107.7 157.617 107.735C158.041 107.916 158.423 108.184 158.738 108.521C159.052 108.858 159.293 109.257 159.445 109.693C159.57 110.001 159.664 110.321 159.726 110.648C159.913 111.615 159.887 112.611 159.65 113.566H159.627Z" fill="#B3404A"/>
<path d="M148.539 111.187L148.158 110.484C149.195 109.898 151.457 109.312 152.588 111.129L151.909 111.551C150.895 109.922 148.639 111.135 148.539 111.187Z" fill="#B3404A"/>
<path d="M138.032 107.495L137.803 108.263L137.27 108.105C135.952 107.718 134.006 107.155 132.067 106.616L131.129 106.358C131.275 106.13 131.428 105.896 131.574 105.649L132.049 105.784C134.393 106.429 136.661 107.091 137.598 107.366L138.032 107.495Z" fill="#B3404A"/>
<g opacity="0.3">
<path opacity="0.3" d="M168.768 135.242C162.93 136.528 156.841 136.054 151.272 133.879C145.704 131.705 140.905 127.928 137.483 123.026C134.061 118.124 132.169 112.317 132.047 106.34C131.925 100.363 133.579 94.4839 136.798 89.4466C140.018 84.4092 144.659 80.4397 150.134 78.04C155.61 75.6403 161.674 74.9182 167.56 75.9651C173.446 77.012 178.889 79.7808 183.201 83.9213C187.514 88.0619 190.501 93.3883 191.786 99.2268C192.64 103.103 192.722 107.11 192.027 111.017C191.333 114.925 189.875 118.658 187.738 122.003C185.6 125.347 182.825 128.238 179.57 130.509C176.315 132.781 172.645 134.389 168.768 135.242Z" fill="white"/>
<path opacity="0.3" d="M135.759 120.235C139.588 127.225 146.02 132.42 153.659 134.693C161.297 136.965 169.524 136.131 176.55 132.371L135.759 120.235Z" fill="#EBEBEB"/>
<path opacity="0.3" d="M136.626 89.7453L192.495 106.37C192.544 103.97 192.308 101.572 191.792 99.2267C191.208 96.5365 190.251 93.941 188.95 91.515L147.707 79.2383C143.176 81.7353 139.36 85.3529 136.626 89.7453Z" fill="#EBEBEB"/>
<path opacity="0.3" d="M132.266 109.254L185.48 125.076C186.749 123.553 187.865 121.91 188.815 120.171L132.149 103.306C131.985 105.287 132.025 107.28 132.266 109.254Z" fill="#EBEBEB"/>
<path opacity="0.3" d="M134.692 93.4025L192.12 110.496C192.179 110.133 192.232 109.769 192.273 109.406L135.149 92.4121C134.991 92.7344 134.833 93.0626 134.692 93.4025Z" fill="#EBEBEB"/>
<path opacity="0.3" d="M157.271 75.9219L182.762 83.5048C182.099 82.8895 181.402 82.3328 180.681 81.7468L159.978 75.5938C159.07 75.6566 158.167 75.7662 157.271 75.9219Z" fill="#EBEBEB"/>
</g>
<path d="M172.928 172.607L180.688 170.898L173.173 136.773L165.413 138.482L172.928 172.607Z" fill="#EBEBEB"/>
<path d="M195.091 98.5003C193.662 92.0101 190.34 86.0895 185.546 81.4871C180.752 76.8847 174.701 73.8073 168.158 72.6439C161.615 71.4805 154.874 72.2835 148.788 74.9512C142.701 77.619 137.542 82.0317 133.963 87.6314C130.384 93.2311 128.546 99.7663 128.682 106.411C128.817 113.055 130.92 119.51 134.723 124.959C138.527 130.408 143.862 134.607 150.052 137.025C156.242 139.443 163.01 139.971 169.5 138.542C178.202 136.623 185.786 131.327 190.585 123.819C195.384 116.31 197.004 107.203 195.091 98.5003ZM168.768 135.242C162.93 136.529 156.841 136.056 151.272 133.883C145.702 131.709 140.903 127.932 137.48 123.031C134.057 118.129 132.164 112.323 132.042 106.345C131.919 100.368 133.572 94.4888 136.791 89.4509C140.01 84.413 144.65 80.4428 150.126 78.0425C155.601 75.6422 161.666 74.9196 167.552 75.966C173.438 77.0125 178.882 79.781 183.194 83.9214C187.507 88.0619 190.495 93.3882 191.78 99.2269C192.634 103.103 192.716 107.109 192.022 111.016C191.328 114.924 189.871 118.657 187.734 122.001C185.597 125.345 182.822 128.236 179.568 130.508C176.314 132.78 172.644 134.389 168.768 135.242Z" fill="#455A64"/>
<path d="M176.134 196.62L187.871 194.035L181.214 163.78L169.471 166.365L176.134 196.62Z" fill="#263238"/>
<path d="M181.255 101.765C181.243 101.731 181.233 101.695 181.226 101.659C181.085 101.155 181.378 102.146 181.273 101.818C181.167 101.489 181.015 101.027 180.869 100.646C180.356 99.2861 179.729 97.9727 178.993 96.7194C178.894 96.5436 178.782 96.3678 178.683 96.192C178.648 96.1334 178.941 96.6022 178.683 96.233L178.478 95.9166C178.208 95.5122 177.933 95.1138 177.646 94.7446C177.011 93.887 176.32 93.0727 175.577 92.3068L175.038 91.7677C174.792 91.5274 175.325 92.0314 174.985 91.7208L174.645 91.4102C174.206 91.0293 173.755 90.6602 173.286 90.3086C172.817 89.957 172.26 89.5702 171.727 89.2362C171.481 89.0838 171.235 88.9373 170.983 88.7967C170.549 88.5447 171.17 88.8846 170.848 88.7205L170.385 88.4861C168.985 87.7973 167.521 87.2477 166.013 86.8453H165.937L165.773 86.8101L165.099 86.6636C164.66 86.5757 164.226 86.4996 163.781 86.4351C162.85 86.3019 161.913 86.2159 160.974 86.1773C160.713 86.1476 160.461 86.0669 160.231 85.9397C160.001 85.8125 159.799 85.6413 159.635 85.4359C159.305 85.021 159.153 84.492 159.213 83.9651C159.273 83.4383 159.539 82.9567 159.954 82.6265C160.369 82.2963 160.898 82.1443 161.425 82.2042C167.413 82.3894 173.138 84.7017 177.575 88.7264C180.523 91.4868 182.828 94.8618 184.326 98.6122C184.669 99.4494 184.955 100.309 185.182 101.185C185.263 101.708 185.133 102.243 184.821 102.671C184.509 103.099 184.04 103.387 183.517 103.47C182.995 103.54 182.466 103.407 182.041 103.096C181.615 102.786 181.325 102.324 181.232 101.806L181.255 101.765Z" fill="white"/>
<path d="M182.076 107.654C182.135 108.039 182.308 108.398 182.571 108.685C182.835 108.973 183.178 109.175 183.557 109.267C183.936 109.359 184.334 109.337 184.7 109.202C185.066 109.068 185.384 108.828 185.613 108.513C185.843 108.198 185.974 107.822 185.989 107.432C186.005 107.043 185.904 106.657 185.7 106.325C185.497 105.992 185.199 105.728 184.844 105.565C184.49 105.402 184.096 105.348 183.711 105.409C183.197 105.492 182.737 105.774 182.43 106.194C182.124 106.615 181.996 107.14 182.076 107.654Z" fill="white"/>
<path d="M201.912 178.039C201.912 178.039 210.303 164.244 199.855 151.083C195.554 145.668 185.404 135.958 164.812 137.312C159.925 137.634 153.192 141.554 161.361 143.928C167.162 145.615 171.352 144.93 174.551 146.523C174.551 146.523 166.576 152.53 167.092 157.411C167.32 159.591 167.49 164.355 168.75 168.891C168.75 168.891 170.403 170.063 171.745 169.864C171.745 169.864 175.36 180.295 188.364 183.5L201.912 178.039Z" fill="#D3766A"/>
<path d="M195.442 149.312C192.079 147.971 184.894 145.252 178.243 145.064C170.854 144.859 156.561 146.459 156.473 151.914C156.403 155.917 161.911 155.782 161.911 155.782C161.911 155.782 156.145 157.686 156.878 161.314C157.54 164.619 161.794 164.244 161.794 164.244C161.794 164.244 158.495 166.002 159.749 169.061C161.255 172.741 167.918 168.475 172.641 170.866C173.731 171.428 195.442 149.312 195.442 149.312Z" fill="#D3766A"/>
<path d="M179.316 152.905C175.946 152.167 167.854 152.448 161.982 155.653C161.847 155.724 161.829 155.864 161.982 155.823C167.624 154.178 173.444 153.222 179.316 152.975C179.368 152.975 179.368 152.946 179.316 152.905Z" fill="#263238"/>
<path d="M178.906 160.359C175.929 160.019 167.602 160.681 161.765 164.132C161.631 164.209 161.625 164.349 161.765 164.302C167.318 162.367 173.072 161.068 178.918 160.429C178.927 160.427 178.935 160.422 178.941 160.414C178.946 160.407 178.949 160.397 178.947 160.388C178.945 160.379 178.94 160.37 178.933 160.365C178.925 160.359 178.915 160.357 178.906 160.359Z" fill="#263238"/>
<path d="M190.901 184.396C187.918 183.688 185.039 182.599 182.334 181.155C179.61 179.682 177.2 177.691 175.238 175.295C174.652 174.563 174.066 173.801 173.556 173.022C173.046 172.242 172.483 171.358 171.88 170.584C171.833 170.525 171.722 170.584 171.757 170.637C172.436 172.263 173.272 173.82 174.253 175.284C175.133 176.653 176.184 177.903 177.382 179.005C179.747 181.109 182.549 182.662 185.586 183.552C187.311 184.032 189.077 184.352 190.86 184.507C190.948 184.531 190.983 184.414 190.901 184.396Z" fill="#263238"/>
<path d="M105.363 140.253C90.2676 160.523 65.0755 213.351 61.372 221.121C58.858 226.395 86.4176 240.283 87.5837 236.451C89.0839 231.54 113.725 166.717 117.177 143.083C119.064 130.127 110.584 133.239 105.363 140.253Z" fill="#D3766A"/>
<path d="M88.3277 233.813C87.689 238.589 84.4425 248.211 82.0282 249.682C79.6139 251.153 66.927 250.854 60.5337 250.854C54.1405 250.854 52.9157 249.067 52.9919 246.869C53.0681 244.672 66.5109 244.25 66.5109 244.25C66.5109 244.25 48.5911 249.36 44.0847 250.221C39.5784 251.083 29.2003 253.679 27.6767 249.946C27.0028 248.258 29.8449 246.553 29.8449 246.553C29.8449 246.553 25.4909 247.824 24.7936 245.662C24.0084 243.195 27.4716 241.841 27.4716 241.841C27.4716 241.841 24.7467 242.386 24.6823 240.376C24.5651 235.864 41.6059 233.661 41.6059 233.661C41.6059 233.661 28.5616 240.013 28.1279 236.345C27.5419 231.276 54.287 225.715 57.0705 223.505C59.0957 221.817 60.99 219.978 62.7371 218.003L88.3277 233.813Z" fill="#D3766A"/>
<path d="M53.0856 247.959C53.0404 247.648 53.07 247.33 53.1719 247.033C53.2738 246.735 53.4451 246.466 53.6716 246.248C54.1311 245.827 54.6581 245.487 55.2304 245.24C56.4126 244.738 57.6386 244.345 58.8929 244.068C61.4127 243.429 63.9969 242.978 66.5695 242.31C63.9177 242.27 61.2715 242.566 58.6937 243.189C57.3765 243.491 56.1081 243.977 54.9257 244.631C54.3134 244.967 53.7769 245.426 53.3493 245.979C53.1391 246.258 53.0045 246.587 52.9583 246.934C52.9121 247.281 52.9559 247.634 53.0856 247.959Z" fill="#263238"/>
<path d="M29.8857 246.53C31.7316 246.079 33.5482 245.563 35.359 245.036C37.1697 244.508 38.9746 243.957 40.7795 243.412L46.1765 241.725C47.9756 241.139 49.7746 240.6 51.5912 240.055C49.7053 240.262 47.8356 240.597 45.9949 241.057C44.1431 241.479 42.3265 242.006 40.5158 242.557C38.705 243.108 36.9119 243.729 35.1422 244.385C33.3724 245.042 31.5851 245.733 29.8857 246.53Z" fill="#263238"/>
<path d="M47.2433 235.571C45.5051 235.68 43.7774 235.919 42.0748 236.286C40.3663 236.626 38.678 237.06 37.0176 237.587C35.3532 238.103 33.7195 238.714 32.1245 239.415C30.5238 240.1 28.9746 240.899 27.4893 241.806C29.1359 241.22 30.7416 240.605 32.3765 240.048C34.0114 239.492 35.6405 238.941 37.2872 238.437C38.9338 237.933 40.5805 237.435 42.2389 236.948C43.8973 236.462 45.5615 236.04 47.2433 235.571Z" fill="#263238"/>
<path d="M44.6062 231.306C41.8065 231.531 39.0484 232.122 36.4022 233.064C33.7302 233.949 31.1865 235.182 28.8369 236.732C31.4856 235.789 34.064 234.792 36.6952 233.913C39.3263 233.034 41.934 232.167 44.6062 231.306Z" fill="#263238"/>
<path d="M111.78 174.996L81.1904 174.153C81.1904 174.153 97.8621 147.618 106.793 137.885C116.116 127.747 121.191 128.62 118.009 146.581C114.803 164.665 111.78 174.996 111.78 174.996Z" fill="#B3404A"/>
<path d="M92.8518 169.658C92.0263 170.019 91.2535 170.49 90.5547 171.059C92.3409 170.77 94.0223 170.025 95.4361 168.896C94.5425 169.025 93.6721 169.281 92.8518 169.658ZM109.934 150.226C109.58 149.397 109.109 148.623 108.533 147.929C108.815 149.717 109.563 151.398 110.701 152.805C110.572 151.913 110.314 151.044 109.934 150.226ZM95.8287 155.993C95.4946 156.829 95.2814 157.709 95.1958 158.606C96.2579 157.142 96.9167 155.424 97.1062 153.625C96.5665 154.347 96.1361 155.145 95.8287 155.993ZM109.307 167.971C108.97 168.808 108.758 169.691 108.68 170.59C109.735 169.122 110.393 167.406 110.59 165.609C110.048 166.33 109.612 167.126 109.295 167.971H109.307ZM118.272 133.133C118.126 133.438 117.991 133.748 117.862 134.065C117.532 134.902 117.319 135.782 117.229 136.678C117.769 135.962 118.203 135.173 118.519 134.334C118.548 134.258 118.571 134.188 118.595 134.111C118.511 133.776 118.399 133.449 118.261 133.133H118.272Z" fill="white"/>
<path d="M109.863 169.676C109.136 169.57 108.392 169.57 107.666 169.535L105.41 169.412C103.894 169.338 102.372 169.277 100.845 169.231C97.7974 169.137 94.756 169.031 91.7147 168.99C90.8767 168.99 90.0387 168.99 89.2008 168.99C88.3628 168.99 87.4428 169.078 86.5638 169.084C86.511 169.084 86.5169 169.166 86.5638 169.166C87.3138 169.213 88.0639 169.324 88.8199 169.371C89.5758 169.418 90.361 169.465 91.1346 169.494C92.6582 169.553 94.1818 169.606 95.7054 169.641C98.6998 169.711 101.7 169.793 104.695 169.799H107.238C108.111 169.799 108.996 169.846 109.875 169.77C109.898 169.752 109.91 169.682 109.863 169.676Z" fill="#263238"/>
<path d="M117.709 155.102C117.709 155.044 117.639 155.008 117.61 155.067C117.042 156.112 116.556 157.199 116.156 158.319C116.262 157.786 116.385 157.253 116.485 156.714C116.819 154.991 117.123 153.256 117.463 151.533C117.46 151.523 117.453 151.514 117.444 151.508C117.435 151.501 117.424 151.498 117.413 151.498C117.402 151.498 117.392 151.501 117.383 151.508C117.374 151.514 117.367 151.523 117.364 151.533C116.572 154.499 115.652 157.434 114.949 160.423C114.246 163.412 113.537 166.4 112.881 169.401C112.523 171.059 112.201 173.128 111.838 174.78C110.953 174.886 109.816 174.78 108.861 174.903C108.779 174.903 108.802 175.05 108.861 175.05C109.869 175.079 111.07 175.307 112.131 175.243C112.265 175.243 114.832 164.584 115.899 159.48C116.555 158.026 117.164 156.573 117.709 155.102Z" fill="#263238"/>
<path d="M139.468 138.53C139.04 139.93 138.554 141.313 137.997 142.667C137.532 143.887 136.962 145.063 136.292 146.183C135.026 148.181 133.08 149.834 130.613 149.828C128.269 149.828 126.125 148.468 124.624 146.734C122.984 144.841 121.894 142.468 120.915 140.182C120.329 138.77 119.743 137.329 119.274 135.869C119.034 135.131 118.782 134.393 118.571 133.643C118.36 132.893 118.178 132.137 117.921 131.404C117.921 131.345 117.792 131.351 117.809 131.404C118.243 133.092 119.503 138.436 120.007 139.796C120.933 142.286 121.976 144.859 123.646 146.957C125.228 148.937 127.379 150.437 129.951 150.683C132.524 150.93 134.727 149.576 136.145 147.537C136.979 146.252 137.63 144.858 138.079 143.394C138.624 141.788 139.081 140.141 139.497 138.495C139.521 138.518 139.468 138.512 139.468 138.53Z" fill="#263238"/>
<path d="M235.49 252.273H193.468L191.593 215.331H235.49V252.273Z" fill="#DBDBDB"/>
<path d="M235.49 215.331L250.586 196.433L262.599 215.331L260.723 252.273H235.49V215.331Z" fill="#C7C7C7"/>
<path d="M206.261 190.432H251.119L267.299 216.825H262.089L251.119 198.554L238.467 219.005H187.89L206.261 190.432Z" fill="#A6A6A6"/>
<path d="M211.459 198.782H201.813L196.668 204.947H207.802L211.459 198.782Z" fill="#C7C7C7"/>
<path d="M204.151 203.892V211.399H198.783V203.892L201.467 200.534L204.151 203.892Z" fill="#DBDBDB"/>
<path d="M204.151 203.887H208.371L204.151 211.399V203.887Z" fill="#C7C7C7"/>
<path d="M202.856 204.01H199.803V209.161H202.856V204.01Z" fill="#FBFAFF"/>
<path d="M201.162 204.367H200.178V206.026H201.162V204.367Z" fill="#EBEBEB"/>
<path d="M202.476 204.367H201.491V206.026H202.476V204.367Z" fill="#EBEBEB"/>
<path d="M201.162 206.324H200.178V208.78H201.162V206.324Z" fill="#EBEBEB"/>
<path d="M202.476 206.324H201.491V208.78H202.476V206.324Z" fill="#EBEBEB"/>
<path d="M235.074 198.782H225.428L220.6 204.947H231.394L235.074 198.782Z" fill="#C7C7C7"/>
<path d="M227.767 203.892V211.399H222.399V203.892L225.083 200.534L227.767 203.892Z" fill="#DBDBDB"/>
<path d="M227.767 203.887H231.992L227.767 211.399V203.887Z" fill="#C7C7C7"/>
<path d="M226.472 204.01H223.419V209.161H226.472V204.01Z" fill="#FBFAFF"/>
<path d="M224.778 204.367H223.794V206.026H224.778V204.367Z" fill="#EBEBEB"/>
<path d="M226.097 204.367H225.112V206.026H226.097V204.367Z" fill="#EBEBEB"/>
<path d="M224.778 206.324H223.794V208.78H224.778V206.324Z" fill="#EBEBEB"/>
<path d="M226.097 206.324H225.112V208.78H226.097V206.324Z" fill="#EBEBEB"/>
<path d="M243.074 189.365H237.706V196.432H243.074V189.365Z" fill="#DBDBDB"/>
<path d="M243.073 189.365H247.292V190.502L243.073 196.432V189.365Z" fill="#C7C7C7"/>
<path d="M243.074 186.963H237.103V189.365H243.074V186.963Z" fill="#C7C7C7"/>
<path d="M247.755 186.963H243.073V189.365H247.755V186.963Z" fill="#A6A6A6"/>
<path d="M204.555 222.029H197.91V233.251H204.555V222.029Z" fill="#FBFAFF"/>
<path d="M200.869 222.809H198.73V226.424H200.869V222.809Z" fill="#EBEBEB"/>
<path d="M203.736 222.809H201.597V226.424H203.736V222.809Z" fill="#EBEBEB"/>
<path d="M200.869 227.074H198.73V232.43H200.869V227.074Z" fill="#EBEBEB"/>
<path d="M203.736 227.074H201.597V232.43H203.736V227.074Z" fill="#EBEBEB"/>
<path d="M229.238 222.029H222.593V233.251H229.238V222.029Z" fill="#FBFAFF"/>
<path d="M225.552 222.809H223.413V226.424H225.552V222.809Z" fill="#EBEBEB"/>
<path d="M228.417 222.809H226.278V226.424H228.417V222.809Z" fill="#EBEBEB"/>
<path d="M225.552 227.074H223.413V232.43H225.552V227.074Z" fill="#EBEBEB"/>
<path d="M228.417 227.074H226.278V232.43H228.417V227.074Z" fill="#EBEBEB"/>
<path d="M204.555 237.622H197.91V248.844H204.555V237.622Z" fill="#FBFAFF"/>
<path d="M200.869 238.402H198.73V242.018H200.869V238.402Z" fill="#EBEBEB"/>
<path d="M203.736 238.402H201.597V242.018H203.736V238.402Z" fill="#EBEBEB"/>
<path d="M200.869 242.668H198.73V248.024H200.869V242.668Z" fill="#EBEBEB"/>
<path d="M203.736 242.668H201.597V248.024H203.736V242.668Z" fill="#EBEBEB"/>
<path d="M229.238 237.622H222.593V248.844H229.238V237.622Z" fill="#FBFAFF"/>
<path d="M225.552 238.402H223.413V242.018H225.552V238.402Z" fill="#EBEBEB"/>
<path d="M228.417 238.402H226.278V242.018H228.417V238.402Z" fill="#EBEBEB"/>
<path d="M225.552 242.668H223.413V248.024H225.552V242.668Z" fill="#EBEBEB"/>
<path d="M228.417 242.668H226.278V248.024H228.417V242.668Z" fill="#EBEBEB"/>
<path d="M216.862 222.029H210.217V233.251H216.862V222.029Z" fill="#FBFAFF"/>
<path d="M213.176 222.809H211.037V226.424H213.176V222.809Z" fill="#EBEBEB"/>
<path d="M216.047 222.809H213.908V226.424H216.047V222.809Z" fill="#EBEBEB"/>
<path d="M213.176 227.074H211.037V232.43H213.176V227.074Z" fill="#EBEBEB"/>
<path d="M216.047 227.074H213.908V232.43H216.047V227.074Z" fill="#EBEBEB"/>
<path d="M216.862 237.699H210.217V248.921H216.862V237.699Z" fill="#FBFAFF"/>
<path d="M213.176 238.473H211.037V242.088H213.176V238.473Z" fill="#EBEBEB"/>
<path d="M216.047 238.473H213.908V242.088H216.047V238.473Z" fill="#EBEBEB"/>
<path d="M213.176 242.744H211.037V248.1H213.176V242.744Z" fill="#EBEBEB"/>
<path d="M216.047 242.744H213.908V248.1H216.047V242.744Z" fill="#EBEBEB"/>
<path d="M247.433 233.251H254.078V222.029H247.433V233.251Z" fill="#FBFAFF"/>
<path d="M253.258 222.809H251.119V226.424H253.258V222.809Z" fill="#EBEBEB"/>
<path d="M250.387 222.809H248.248V226.424H250.387V222.809Z" fill="#EBEBEB"/>
<path d="M253.258 227.074H251.119V232.43H253.258V227.074Z" fill="#EBEBEB"/>
<path d="M250.387 227.074H248.248V232.43H250.387V227.074Z" fill="#EBEBEB"/>
<path d="M247.433 215.905H254.078V206.406H247.433V215.905Z" fill="#FBFAFF"/>
<path d="M253.258 207.18H251.119V210.795H253.258V207.18Z" fill="#EBEBEB"/>
<path d="M250.387 207.18H248.248V210.795H250.387V207.18Z" fill="#EBEBEB"/>
<path d="M253.258 211.487H251.119V215.103H253.258V211.487Z" fill="#EBEBEB"/>
<path d="M250.387 211.487H248.248V215.103H250.387V211.487Z" fill="#EBEBEB"/>
<path d="M246.488 252.341L254.545 252.379L254.614 237.747L246.556 237.709L246.488 252.341Z" fill="#FBFAFF"/>
<path d="M249.707 238.722L249.696 240.914L251.431 240.922L251.441 238.731L249.707 238.722Z" fill="#EBEBEB"/>
<path d="M247.44 238.711L247.43 240.902L249.164 240.911L249.175 238.719L247.44 238.711Z" fill="#EBEBEB"/>
<path d="M248.7 248.871L252.362 248.889L252.365 248.361L248.702 248.344L248.7 248.871Z" fill="#EBEBEB"/>
<path d="M250.791 237.605V239.797H252.526V237.605H250.791Z" fill="#EBEBEB"/>
<path d="M249.701 241.489L249.69 243.681L251.425 243.689L251.435 241.497L249.701 241.489Z" fill="#EBEBEB"/>
<path d="M247.416 241.471L247.405 243.663L249.14 243.671L249.15 241.48L247.416 241.471Z" fill="#EBEBEB"/>
<path d="M251.973 241.502L251.963 243.693L253.697 243.702L253.708 241.51L251.973 241.502Z" fill="#EBEBEB"/>
<path d="M249.689 244.263L249.679 246.454L251.413 246.462L251.424 244.271L249.689 244.263Z" fill="#EBEBEB"/>
<path d="M247.411 244.251L247.4 246.442L249.135 246.451L249.145 244.259L247.411 244.251Z" fill="#EBEBEB"/>
<path d="M251.961 244.274L251.951 246.466L253.686 246.474L253.696 244.282L251.961 244.274Z" fill="#EBEBEB"/>
<path d="M119.837 252.372H82.509L80.8389 234.282H119.837V252.372Z" fill="#DBDBDB"/>
<path d="M119.826 234.259L133.234 217.476L143.911 234.259L142.241 252.348H119.826V234.259Z" fill="#C7C7C7"/>
<path d="M93.6492 212.167H134.194L149.214 237.547H145.118L133.644 218.443L122.621 237.547H77.6982L93.6492 212.167Z" fill="#A6A6A6"/>
<path d="M92.4479 240.998H86.541V249.436H92.4479V240.998Z" fill="#FBFAFF"/>
<path d="M89.1662 241.689H87.2676V244.901H89.1662V241.689Z" fill="#DBDBDB"/>
<path d="M91.715 241.689H89.8164V244.901H91.715V241.689Z" fill="#DBDBDB"/>
<path d="M89.1662 245.51H87.2676V248.721H89.1662V245.51Z" fill="#DBDBDB"/>
<path d="M91.715 245.51H89.8164V248.721H91.715V245.51Z" fill="#DBDBDB"/>
<path d="M114.141 240.998H108.234V249.436H114.141V240.998Z" fill="#FBFAFF"/>
<path d="M110.861 241.689H108.962V244.901H110.861V241.689Z" fill="#DBDBDB"/>
<path d="M113.409 241.689H111.511V244.901H113.409V241.689Z" fill="#DBDBDB"/>
<path d="M110.861 245.51H108.962V248.721H110.861V245.51Z" fill="#DBDBDB"/>
<path d="M113.409 245.51H111.511V248.721H113.409V245.51Z" fill="#DBDBDB"/>
<path d="M103.33 240.547H96.8193V252.372H103.33V240.547Z" fill="#FBFAFF"/>
<path d="M100.775 241.361H99.374V243.131H100.775V241.361Z" fill="#DBDBDB"/>
<path d="M102.615 241.361H101.215V243.131H102.615V241.361Z" fill="#DBDBDB"/>
<path d="M101.554 249.126H98.5947V249.554H101.554V249.126Z" fill="#DBDBDB"/>
<path d="M98.9347 241.361H97.5342V243.131H98.9347V241.361Z" fill="#DBDBDB"/>
<path d="M100.775 243.6H99.374V245.369H100.775V243.6Z" fill="#DBDBDB"/>
<path d="M102.615 243.6H101.215V245.369H102.615V243.6Z" fill="#DBDBDB"/>
<path d="M98.9347 243.6H97.5342V245.369H98.9347V243.6Z" fill="#DBDBDB"/>
<path d="M100.775 245.839H99.374V247.609H100.775V245.839Z" fill="#DBDBDB"/>
<path d="M102.615 245.839H101.215V247.609H102.615V245.839Z" fill="#DBDBDB"/>
<path d="M98.9347 245.839H97.5342V247.609H98.9347V245.839Z" fill="#DBDBDB"/>
<path d="M102.228 211.153H97.458V217.429H102.228V211.153Z" fill="#DBDBDB"/>
<path d="M102.229 211.153H105.979V212.161L102.229 217.429V211.153Z" fill="#C7C7C7"/>
<path d="M102.228 209.014H96.9248V211.147H102.228V209.014Z" fill="#C7C7C7"/>
<path d="M106.389 209.014H102.229V211.147H106.389V209.014Z" fill="#A6A6A6"/>
<path d="M134.593 252.378H146.7L147.854 239.902H134.593V252.378Z" fill="#C7C7C7"/>
<path d="M134.593 239.902L128.61 237.2L128.745 252.378H134.593V239.902Z" fill="#DBDBDB"/>
<path d="M143.864 243.131H138.771V252.372H143.864V243.131Z" fill="#FBFAFF"/>
<path d="M141.865 243.764H140.77V245.147H141.865V243.764Z" fill="#DBDBDB"/>
<path d="M143.301 243.764H142.205V245.147H143.301V243.764Z" fill="#DBDBDB"/>
<path d="M142.475 249.214H140.16V249.548H142.475V249.214Z" fill="#DBDBDB"/>
<path d="M140.43 243.764H139.334V245.147H140.43V243.764Z" fill="#DBDBDB"/>
<path d="M127.695 236.579H145.287L150.971 240.904H134.083L127.695 236.579Z" fill="#A6A6A6"/>
<path d="M134.083 240.904H127.695V236.579L134.083 240.904Z" fill="#C7C7C7"/>
<path d="M130.304 230.256C130.304 230.853 130.481 231.437 130.813 231.933C131.145 232.43 131.616 232.817 132.168 233.045C132.72 233.273 133.327 233.333 133.913 233.216C134.498 233.099 135.036 232.811 135.458 232.388C135.879 231.965 136.166 231.427 136.282 230.841C136.398 230.256 136.337 229.649 136.108 229.097C135.879 228.546 135.491 228.075 134.994 227.744C134.497 227.413 133.913 227.237 133.316 227.238C132.516 227.24 131.75 227.558 131.186 228.124C130.621 228.69 130.304 229.457 130.304 230.256Z" fill="#FBFAFF"/>
<path d="M130.978 230.257C130.978 230.879 131.225 231.475 131.664 231.915C132.104 232.354 132.7 232.601 133.322 232.601C133.519 232.603 133.717 232.577 133.908 232.525C134.453 232.377 134.927 232.036 135.242 231.566C135.556 231.096 135.69 230.528 135.619 229.967C135.547 229.406 135.275 228.89 134.853 228.513C134.431 228.137 133.887 227.926 133.322 227.919C133.124 227.918 132.927 227.944 132.736 227.995C132.463 228.061 132.206 228.181 131.98 228.347C131.672 228.562 131.42 228.847 131.246 229.18C131.071 229.512 130.979 229.882 130.978 230.257Z" fill="#C7C7C7"/>
<path d="M132.993 233.011H133.644V227.455H132.993V233.011Z" fill="#FBFAFF"/>
<path d="M136.099 230.556V229.905H130.543V230.556H136.099Z" fill="#FBFAFF"/>
<path d="M151.845 252.378H132.982L131.692 238.426H151.845V252.378Z" fill="#B3404A"/>
<path opacity="0.2" d="M151.845 252.378H132.982L131.692 238.426H151.845V252.378Z" fill="black"/>
<path d="M151.845 238.425L162.188 225.475L170.421 238.425L169.138 252.378H151.845V238.425Z" fill="#B3404A"/>
<path d="M153.093 240.131H127.496L143.066 220.553H162.293L173.849 240.131H170.913L162.293 226.717L153.093 240.131Z" fill="#B3404A"/>
<path opacity="0.4" d="M153.093 240.131H127.496L143.066 220.553H162.293L173.849 240.131H170.913L162.293 226.717L153.093 240.131Z" fill="black"/>
<path d="M178.924 203.236H173.592V210.257H178.924V203.236Z" fill="#B3404A"/>
<path opacity="0.2" d="M178.924 203.236H173.592V210.257H178.924V203.236Z" fill="black"/>
<path d="M183.12 203.236H178.924V210.257H183.12V203.236Z" fill="#B3404A"/>
<path d="M178.923 200.845H172.993V203.23H178.923V200.845Z" fill="#B3404A"/>
<path opacity="0.5" d="M178.923 200.845H172.993V203.23H178.923V200.845Z" fill="black"/>
<path d="M183.577 200.845H178.924V203.23H183.577V200.845Z" fill="#B3404A"/>
<path opacity="0.4" d="M183.577 200.845H178.924V203.23H183.577V200.845Z" fill="black"/>
<path d="M197.664 252.361H155.911L154.042 232.126H197.664V252.361Z" fill="#B3404A"/>
<path opacity="0.2" d="M197.664 252.361H155.911L154.042 232.126H197.664V252.361Z" fill="black"/>
<path d="M197.664 232.126L212.66 213.345L224.602 232.126L222.733 252.361H197.664V232.126Z" fill="#B3404A"/>
<path d="M212.478 214.534L224.807 233.602H229.114L212.847 207.385H168.434L145.932 235.776H200.178L212.478 214.534Z" fill="#B3404A"/>
<path opacity="0.5" d="M212.478 214.534L224.807 233.602H229.114L212.847 207.385H168.434L145.932 235.776H200.178L212.478 214.534Z" fill="black"/>
<path d="M208.763 234.968H215.367V225.527H208.763V234.968Z" fill="#FBFAFF"/>
<path d="M214.553 226.295H212.426V229.887H214.553V226.295Z" fill="#B3404A"/>
<path d="M211.705 226.295H209.578V229.887H211.705V226.295Z" fill="#B3404A"/>
<path d="M214.553 230.573H212.426V234.165H214.553V230.573Z" fill="#B3404A"/>
<path d="M211.705 230.573H209.578V234.165H211.705V230.573Z" fill="#B3404A"/>
<path d="M167.022 239.633H160.418V249.073H167.022V239.633Z" fill="#FBFAFF"/>
<path d="M163.36 240.406H161.232V243.998H163.36V240.406Z" fill="#B3404A"/>
<path d="M166.213 240.406H164.086V243.998H166.213V240.406Z" fill="#B3404A"/>
<path d="M163.36 244.684H161.232V248.276H163.36V244.684Z" fill="#B3404A"/>
<path d="M166.213 244.684H164.086V248.276H166.213V244.684Z" fill="#B3404A"/>
<path d="M179.158 239.633H172.554V249.073H179.158V239.633Z" fill="#FBFAFF"/>
<path d="M175.489 240.406H173.362V243.998H175.489V240.406Z" fill="#B3404A"/>
<path d="M178.344 240.406H176.217V243.998H178.344V240.406Z" fill="#B3404A"/>
<path d="M175.489 244.684H173.362V248.276H175.489V244.684Z" fill="#B3404A"/>
<path d="M178.344 244.684H176.217V248.276H178.344V244.684Z" fill="#B3404A"/>
<path d="M191.289 239.633H184.685V249.073H191.289V239.633Z" fill="#FBFAFF"/>
<path d="M187.626 240.406H185.499V243.998H187.626V240.406Z" fill="#B3404A"/>
<path d="M190.474 240.406H188.347V243.998H190.474V240.406Z" fill="#B3404A"/>
<path d="M187.626 244.684H185.499V248.276H187.626V244.684Z" fill="#B3404A"/>
<path d="M190.474 244.684H188.347V248.276H190.474V244.684Z" fill="#B3404A"/>
<path d="M208.423 252.354H215.707V239.128H208.423V252.354Z" fill="#FBFAFF"/>
<path d="M212.854 240.043H211.283V242.024H212.854V240.043Z" fill="#B3404A"/>
<path d="M210.796 240.043H209.226V242.024H210.796V240.043Z" fill="#B3404A"/>
<path d="M210.41 249.208H213.721V248.728H210.41V249.208Z" fill="#B3404A"/>
<path d="M214.904 240.043H213.334V242.024H214.904V240.043Z" fill="#B3404A"/>
<path d="M212.854 242.545H211.283V244.526H212.854V242.545Z" fill="#B3404A"/>
<path d="M210.796 242.545H209.226V244.526H210.796V242.545Z" fill="#B3404A"/>
<path d="M214.904 242.545H213.334V244.526H214.904V242.545Z" fill="#B3404A"/>
<path d="M212.854 245.047H211.283V247.028H212.854V245.047Z" fill="#B3404A"/>
<path d="M210.796 245.047H209.226V247.028H210.796V245.047Z" fill="#B3404A"/>
<path d="M214.904 245.047H213.334V247.028H214.904V245.047Z" fill="#B3404A"/>
<path d="M185.628 214.183H176.041L171.112 220.336H181.965L185.628 214.183Z" fill="#B3404A"/>
<path opacity="0.4" d="M185.628 214.183H176.041L171.112 220.336H181.965L185.628 214.183Z" fill="black"/>
<path d="M178.368 219.257V226.717H173.029V219.257L175.701 215.923L178.368 219.257Z" fill="#B3404A"/>
<path opacity="0.2" d="M178.368 219.257V226.717H173.029V219.257L175.701 215.923L178.368 219.257Z" fill="black"/>
<path d="M178.367 219.257H182.563L178.367 226.717V219.257Z" fill="#B3404A"/>
<path d="M177.072 219.375H174.042V224.491H177.072V219.375Z" fill="#FBFAFF"/>
<path d="M175.397 219.727H174.418V221.373H175.397V219.727Z" fill="#B3404A"/>
<path d="M176.703 219.727H175.725V221.373H176.703V219.727Z" fill="#B3404A"/>
<path d="M175.397 221.678H174.418V224.121H175.397V221.678Z" fill="#B3404A"/>
<path d="M176.703 221.678H175.725V224.121H176.703V221.678Z" fill="#B3404A"/>
<path d="M241.209 142.937C243.819 145.157 245.76 148.058 246.817 151.316C247.874 154.575 248.004 158.064 247.193 161.392C246.382 164.721 244.662 167.758 242.225 170.166C239.788 172.574 236.73 174.256 233.391 175.027L229.289 183.424L225.311 175.085C222.335 174.448 219.566 173.078 217.253 171.101C215.404 169.527 213.883 167.605 212.776 165.444C211.67 163.283 211 160.925 210.805 158.504C210.411 153.617 211.975 148.773 215.152 145.038C218.33 141.304 222.861 138.984 227.748 138.59C232.636 138.196 237.48 139.76 241.215 142.937H241.209Z" fill="white"/>
<path d="M241.209 142.937C243.818 145.157 245.763 148.055 246.829 151.311C247.096 152.121 247.311 152.947 247.473 153.784C247.614 154.626 247.702 155.475 247.737 156.327C247.817 158.037 247.657 159.749 247.262 161.414C246.874 163.083 246.257 164.69 245.428 166.19C245.009 166.937 244.537 167.654 244.016 168.335C243.513 169.029 242.956 169.683 242.352 170.292C239.908 172.753 236.825 174.483 233.45 175.285L233.632 175.144L229.577 183.565L229.284 184.18L228.991 183.565L224.983 175.244L225.229 175.437C221.737 174.68 218.535 172.939 216.001 170.419C213.468 167.9 211.709 164.707 210.933 161.219C210.157 157.731 210.396 154.094 211.622 150.738C212.848 147.382 215.01 144.447 217.851 142.281C220.105 140.592 222.708 139.427 225.469 138.871C228.229 138.312 231.08 138.387 233.807 139.092C236.534 139.797 239.065 141.111 241.209 142.937ZM241.209 142.937C239.079 141.119 236.561 139.815 233.848 139.124C231.134 138.433 228.298 138.374 225.559 138.952C222.819 139.53 220.249 140.73 218.046 142.458C215.843 144.186 214.066 146.397 212.852 148.92C211.642 151.415 211.017 154.153 211.024 156.925C211.058 159.684 211.69 162.403 212.876 164.895C214.078 167.374 215.827 169.548 217.992 171.253C220.16 172.95 222.681 174.139 225.369 174.734L225.545 174.775L225.616 174.933L229.571 183.284H228.985L233.151 174.915L233.204 174.798H233.327C236.64 174.073 239.684 172.437 242.117 170.075C242.722 169.486 243.28 168.851 243.787 168.176C244.312 167.514 244.788 166.815 245.211 166.084C246.061 164.619 246.7 163.04 247.11 161.396C247.535 159.752 247.717 158.054 247.649 156.357C247.619 155.509 247.539 154.664 247.409 153.825C247.25 152.991 247.041 152.167 246.782 151.358C245.738 148.09 243.809 145.176 241.209 142.937Z" fill="#263238"/>
<path d="M234.253 152.325C234.048 152.116 233.82 151.931 233.573 151.774C233.247 151.562 232.904 151.376 232.548 151.217C231.687 150.827 230.765 150.589 229.823 150.514V155.788L230.309 155.888C231.149 156.088 231.976 156.335 232.788 156.626C233.457 156.861 234.087 157.195 234.658 157.617C235.154 157.998 235.555 158.49 235.83 159.052C236.123 159.703 236.266 160.413 236.246 161.127C236.269 161.92 236.104 162.707 235.765 163.424C235.452 164.053 234.994 164.599 234.429 165.018C233.831 165.454 233.158 165.776 232.442 165.967C231.652 166.185 230.837 166.301 230.016 166.313V168.985H228.698V166.26C227.498 166.188 226.314 165.945 225.182 165.539C224.092 165.147 223.071 164.583 222.158 163.869L223.453 161.431C223.698 161.683 223.972 161.905 224.268 162.094C224.665 162.352 225.08 162.581 225.51 162.779C226.017 163.013 226.539 163.209 227.075 163.365C227.649 163.535 228.237 163.655 228.833 163.723V158.449C228.733 158.419 228.622 158.384 228.516 158.361C228.409 158.338 228.303 158.309 228.2 158.273C227.405 158.067 226.622 157.817 225.856 157.523C225.252 157.298 224.69 156.975 224.192 156.568C223.763 156.214 223.42 155.767 223.19 155.261C222.943 154.686 222.825 154.064 222.844 153.438C222.828 152.679 222.976 151.926 223.277 151.229C223.559 150.593 223.975 150.025 224.496 149.565C225.035 149.087 225.66 148.715 226.336 148.469C227.09 148.194 227.88 148.029 228.68 147.977V145.404H229.999V147.977C231.046 148.03 232.077 148.254 233.052 148.639C233.928 148.98 234.757 149.431 235.519 149.981L234.253 152.325ZM225.862 152.981C225.841 153.29 225.899 153.6 226.03 153.881C226.161 154.161 226.361 154.404 226.612 154.587C227.311 155.027 228.08 155.344 228.885 155.525V150.514C228.062 150.494 227.256 150.75 226.594 151.241C226.35 151.458 226.158 151.727 226.032 152.028C225.905 152.329 225.847 152.655 225.862 152.981ZM233.228 161.426C233.243 161.09 233.169 160.757 233.012 160.46C232.856 160.164 232.623 159.914 232.337 159.738C231.559 159.275 230.718 158.928 229.841 158.706V163.74C230.715 163.783 231.584 163.58 232.349 163.154C232.634 162.969 232.865 162.711 233.02 162.408C233.174 162.104 233.246 161.765 233.228 161.426Z" fill="#B3404A"/>
</svg>
