<svg width="495" height="297" viewBox="0 0 495 297" fill="none" xmlns="http://www.w3.org/2000/svg">
<g filter="url(#filter0_d)">
<rect x="8" y="8" width="479" height="281" rx="5" fill="white"/>
</g>
<path d="M125.5 271C100.702 271 76.9202 261.149 59.3855 243.614C41.8509 226.08 32 202.298 32 177.5C32 152.702 41.8509 128.92 59.3855 111.386C76.9202 93.8509 100.702 84 125.5 84V177.5L125.5 271Z" fill="#B3404A"/>
<path d="M69.2053 175.478C69.4087 175.435 69.6035 175.406 69.7899 175.389C69.9763 175.368 70.1564 175.357 70.3301 175.357C70.813 175.357 71.2387 175.429 71.6073 175.573C71.9758 175.717 72.2851 175.916 72.535 176.17C72.785 176.425 72.9735 176.723 73.1006 177.066C73.2277 177.405 73.2912 177.772 73.2912 178.166C73.2912 178.653 73.2044 179.098 73.0307 179.5C72.8612 179.902 72.624 180.248 72.319 180.536C72.014 180.82 71.6518 181.04 71.2324 181.197C70.8172 181.353 70.3639 181.432 69.8725 181.432C69.5845 181.432 69.3112 181.402 69.0528 181.343C68.7944 181.283 68.5508 181.205 68.3221 181.108C68.0976 181.006 67.8879 180.892 67.693 180.765C67.5024 180.633 67.3308 180.496 67.1783 180.352L67.6612 179.684C67.7629 179.54 67.8963 179.468 68.0615 179.468C68.1675 179.468 68.2755 179.502 68.3856 179.57C68.4958 179.638 68.6207 179.712 68.7605 179.792C68.9046 179.873 69.0719 179.947 69.2625 180.015C69.4574 180.083 69.6904 180.116 69.9615 180.116C70.2496 180.116 70.5037 180.07 70.724 179.977C70.9443 179.883 71.1265 179.754 71.2705 179.589C71.4188 179.42 71.5289 179.22 71.6009 178.992C71.6772 178.759 71.7153 178.507 71.7153 178.236C71.7153 177.736 71.5692 177.346 71.2769 177.066C70.9888 176.782 70.5609 176.641 69.9933 176.641C69.5569 176.641 69.11 176.721 68.6525 176.882L67.6739 176.602L68.4365 172.142H72.9735V172.809C72.9735 173.033 72.9036 173.216 72.7638 173.355C72.624 173.495 72.3868 173.565 72.0521 173.565H69.5294L69.2053 175.478ZM81.0509 176.736C81.0509 177.537 80.964 178.233 80.7903 178.826C80.6209 179.415 80.3837 179.902 80.0787 180.288C79.7779 180.673 79.4199 180.962 79.0048 181.152C78.5939 181.339 78.149 181.432 77.6703 181.432C77.1917 181.432 76.7468 181.339 76.3359 181.152C75.9293 180.962 75.5755 180.673 75.2748 180.288C74.974 179.902 74.7389 179.415 74.5694 178.826C74.4 178.233 74.3152 177.537 74.3152 176.736C74.3152 175.931 74.4 175.234 74.5694 174.645C74.7389 174.056 74.974 173.569 75.2748 173.184C75.5755 172.798 75.9293 172.512 76.3359 172.326C76.7468 172.135 77.1917 172.04 77.6703 172.04C78.149 172.04 78.5939 172.135 79.0048 172.326C79.4199 172.512 79.7779 172.798 80.0787 173.184C80.3837 173.569 80.6209 174.056 80.7903 174.645C80.964 175.234 81.0509 175.931 81.0509 176.736ZM79.4305 176.736C79.4305 176.071 79.3818 175.52 79.2844 175.084C79.1869 174.647 79.0556 174.3 78.8904 174.042C78.7294 173.783 78.543 173.603 78.3312 173.501C78.1194 173.396 77.8991 173.343 77.6703 173.343C77.4458 173.343 77.2277 173.396 77.0158 173.501C76.8083 173.603 76.624 173.783 76.463 174.042C76.302 174.3 76.1728 174.647 76.0754 175.084C75.9822 175.52 75.9356 176.071 75.9356 176.736C75.9356 177.401 75.9822 177.952 76.0754 178.388C76.1728 178.824 76.302 179.172 76.463 179.43C76.624 179.689 76.8083 179.871 77.0158 179.977C77.2277 180.078 77.4458 180.129 77.6703 180.129C77.8991 180.129 78.1194 180.078 78.3312 179.977C78.543 179.871 78.7294 179.689 78.8904 179.43C79.0556 179.172 79.1869 178.824 79.2844 178.388C79.3818 177.952 79.4305 177.401 79.4305 176.736ZM86.1036 174.366C86.1036 174.713 86.0443 175.027 85.9257 175.306C85.8113 175.586 85.6567 175.825 85.4618 176.024C85.2669 176.219 85.0403 176.369 84.7819 176.475C84.5235 176.581 84.2545 176.634 83.9749 176.634C83.6699 176.634 83.3882 176.581 83.1297 176.475C82.8713 176.369 82.6468 176.219 82.4562 176.024C82.2698 175.825 82.1236 175.586 82.0177 175.306C81.9118 175.027 81.8589 174.713 81.8589 174.366C81.8589 174.01 81.9118 173.688 82.0177 173.4C82.1236 173.112 82.2698 172.868 82.4562 172.669C82.6468 172.47 82.8713 172.317 83.1297 172.212C83.3882 172.101 83.6699 172.046 83.9749 172.046C84.2799 172.046 84.5616 172.101 84.82 172.212C85.0827 172.317 85.3093 172.47 85.4999 172.669C85.6906 172.868 85.8388 173.112 85.9447 173.4C86.0506 173.688 86.1036 174.01 86.1036 174.366ZM84.8963 174.366C84.8963 174.12 84.8708 173.915 84.82 173.749C84.7734 173.584 84.7077 173.451 84.623 173.349C84.5425 173.247 84.4451 173.175 84.3307 173.133C84.2206 173.086 84.102 173.063 83.9749 173.063C83.8478 173.063 83.7292 173.086 83.619 173.133C83.5089 173.175 83.4136 173.247 83.3331 173.349C83.2568 173.451 83.1954 173.584 83.1488 173.749C83.1022 173.915 83.0789 174.12 83.0789 174.366C83.0789 174.603 83.1022 174.802 83.1488 174.963C83.1954 175.12 83.2568 175.247 83.3331 175.344C83.4136 175.442 83.5089 175.512 83.619 175.554C83.7292 175.596 83.8478 175.617 83.9749 175.617C84.102 175.617 84.2206 175.596 84.3307 175.554C84.4451 175.512 84.5425 175.442 84.623 175.344C84.7077 175.247 84.7734 175.12 84.82 174.963C84.8708 174.802 84.8963 174.603 84.8963 174.366ZM89.16 172.389C89.2151 172.326 89.2787 172.269 89.3507 172.218C89.4269 172.167 89.5328 172.142 89.6684 172.142H90.8122L83.9876 181.095C83.9325 181.163 83.8669 181.22 83.7906 181.267C83.7143 181.309 83.6211 181.33 83.511 181.33H82.3418L89.16 172.389ZM91.2951 179.17C91.2951 179.517 91.2358 179.83 91.1172 180.11C91.0028 180.39 90.8482 180.629 90.6533 180.828C90.4585 181.023 90.2318 181.175 89.9734 181.286C89.715 181.392 89.446 181.444 89.1664 181.444C88.8614 181.444 88.5797 181.392 88.3213 181.286C88.0629 181.175 87.8383 181.023 87.6477 180.828C87.4613 180.629 87.3152 180.39 87.2092 180.11C87.1033 179.83 87.0504 179.517 87.0504 179.17C87.0504 178.814 87.1033 178.492 87.2092 178.204C87.3152 177.916 87.4613 177.672 87.6477 177.473C87.8383 177.274 88.0629 177.121 88.3213 177.015C88.5797 176.905 88.8614 176.85 89.1664 176.85C89.4714 176.85 89.7531 176.905 90.0115 177.015C90.2742 177.121 90.4987 177.274 90.6851 177.473C90.8757 177.672 91.024 177.916 91.1299 178.204C91.24 178.492 91.2951 178.814 91.2951 179.17ZM90.0814 179.17C90.0814 178.924 90.0581 178.718 90.0115 178.553C89.9649 178.388 89.8993 178.255 89.8145 178.153C89.7341 178.051 89.6366 177.979 89.5222 177.937C89.4121 177.89 89.2935 177.867 89.1664 177.867C89.0393 177.867 88.9207 177.89 88.8106 177.937C88.7004 177.979 88.6051 178.051 88.5246 178.153C88.4441 178.255 88.3806 178.388 88.334 178.553C88.2916 178.718 88.2704 178.924 88.2704 179.17C88.2704 179.407 88.2916 179.606 88.334 179.767C88.3806 179.928 88.4441 180.057 88.5246 180.155C88.6051 180.252 88.7004 180.322 88.8106 180.364C88.9207 180.407 89.0393 180.428 89.1664 180.428C89.2935 180.428 89.4121 180.407 89.5222 180.364C89.6366 180.322 89.7341 180.252 89.8145 180.155C89.8993 180.057 89.9649 179.928 90.0115 179.767C90.0581 179.606 90.0814 179.407 90.0814 179.17Z" fill="white"/>
<path d="M191.614 111.386C209.149 128.92 219 152.702 219 177.5L125.5 177.5L191.614 111.386Z" fill="#E4B4B8"/>
<path d="M170.586 159.276V160.451H165.502V159.276H167.364V153.919C167.364 153.707 167.371 153.489 167.383 153.264L166.062 154.37C165.985 154.429 165.909 154.467 165.833 154.484C165.761 154.497 165.691 154.497 165.623 154.484C165.56 154.472 165.502 154.451 165.452 154.421C165.401 154.387 165.363 154.351 165.337 154.313L164.842 153.633L167.644 151.25H168.934V159.276H170.586ZM177.615 158.99C177.784 158.99 177.918 159.038 178.015 159.136C178.117 159.229 178.168 159.354 178.168 159.511V160.451H171.864V159.93C171.864 159.824 171.885 159.714 171.928 159.6C171.974 159.481 172.046 159.375 172.144 159.282L174.933 156.486C175.166 156.249 175.374 156.022 175.556 155.806C175.742 155.59 175.897 155.376 176.02 155.164C176.143 154.953 176.236 154.739 176.3 154.523C176.367 154.302 176.401 154.071 176.401 153.83C176.401 153.61 176.369 153.417 176.306 153.252C176.242 153.082 176.151 152.94 176.033 152.826C175.918 152.712 175.778 152.627 175.613 152.572C175.452 152.512 175.27 152.483 175.067 152.483C174.88 152.483 174.707 152.51 174.546 152.565C174.389 152.616 174.249 152.69 174.126 152.788C174.003 152.881 173.9 152.991 173.815 153.118C173.73 153.245 173.667 153.385 173.624 153.538C173.552 153.732 173.459 153.862 173.345 153.925C173.23 153.989 173.065 154.004 172.849 153.97L172.023 153.824C172.087 153.383 172.209 152.997 172.392 152.667C172.574 152.332 172.8 152.055 173.072 151.835C173.347 151.61 173.66 151.443 174.012 151.333C174.368 151.218 174.749 151.161 175.156 151.161C175.579 151.161 175.967 151.225 176.319 151.352C176.67 151.475 176.971 151.65 177.221 151.879C177.471 152.108 177.666 152.383 177.806 152.705C177.945 153.027 178.015 153.385 178.015 153.779C178.015 154.118 177.964 154.431 177.863 154.72C177.765 155.008 177.632 155.283 177.462 155.546C177.297 155.808 177.102 156.062 176.878 156.308C176.653 156.554 176.418 156.804 176.172 157.058L174.101 159.174C174.3 159.115 174.497 159.07 174.692 159.041C174.891 159.007 175.079 158.99 175.257 158.99H177.615ZM179.3 159.587C179.3 159.456 179.323 159.331 179.37 159.212C179.421 159.093 179.488 158.992 179.573 158.907C179.658 158.822 179.759 158.755 179.878 158.704C179.997 158.653 180.124 158.627 180.259 158.627C180.395 158.627 180.52 158.653 180.634 158.704C180.753 158.755 180.854 158.822 180.939 158.907C181.028 158.992 181.098 159.093 181.149 159.212C181.2 159.331 181.225 159.456 181.225 159.587C181.225 159.723 181.2 159.85 181.149 159.968C181.098 160.083 181.028 160.182 180.939 160.267C180.854 160.352 180.753 160.417 180.634 160.464C180.52 160.515 180.395 160.54 180.259 160.54C180.124 160.54 179.997 160.515 179.878 160.464C179.759 160.417 179.658 160.352 179.573 160.267C179.488 160.182 179.421 160.083 179.37 159.968C179.323 159.85 179.3 159.723 179.3 159.587ZM184.349 154.599C184.552 154.556 184.747 154.527 184.934 154.51C185.12 154.489 185.3 154.478 185.474 154.478C185.957 154.478 186.382 154.55 186.751 154.694C187.12 154.838 187.429 155.037 187.679 155.291C187.929 155.546 188.117 155.844 188.244 156.187C188.371 156.526 188.435 156.893 188.435 157.287C188.435 157.774 188.348 158.219 188.174 158.621C188.005 159.024 187.768 159.369 187.463 159.657C187.158 159.941 186.795 160.161 186.376 160.318C185.961 160.474 185.508 160.553 185.016 160.553C184.728 160.553 184.455 160.523 184.197 160.464C183.938 160.405 183.695 160.326 183.466 160.229C183.241 160.127 183.032 160.013 182.837 159.886C182.646 159.754 182.474 159.617 182.322 159.473L182.805 158.805C182.907 158.661 183.04 158.589 183.205 158.589C183.311 158.589 183.419 158.623 183.529 158.691C183.639 158.759 183.764 158.833 183.904 158.913C184.048 158.994 184.216 159.068 184.406 159.136C184.601 159.204 184.834 159.237 185.105 159.237C185.393 159.237 185.647 159.191 185.868 159.098C186.088 159.004 186.27 158.875 186.414 158.71C186.562 158.541 186.673 158.342 186.745 158.113C186.821 157.88 186.859 157.628 186.859 157.357C186.859 156.857 186.713 156.467 186.421 156.187C186.132 155.904 185.705 155.762 185.137 155.762C184.701 155.762 184.254 155.842 183.796 156.003L182.818 155.724L183.58 151.263H188.117V151.93C188.117 152.154 188.047 152.337 187.907 152.476C187.768 152.616 187.53 152.686 187.196 152.686H184.673L184.349 154.599ZM193.875 153.487C193.875 153.834 193.816 154.148 193.697 154.427C193.583 154.707 193.428 154.946 193.233 155.145C193.039 155.34 192.812 155.491 192.554 155.596C192.295 155.702 192.026 155.755 191.747 155.755C191.441 155.755 191.16 155.702 190.901 155.596C190.643 155.491 190.418 155.34 190.228 155.145C190.041 154.946 189.895 154.707 189.789 154.427C189.683 154.148 189.63 153.834 189.63 153.487C189.63 153.131 189.683 152.809 189.789 152.521C189.895 152.233 190.041 151.989 190.228 151.79C190.418 151.591 190.643 151.439 190.901 151.333C191.16 151.223 191.441 151.167 191.747 151.167C192.052 151.167 192.333 151.223 192.592 151.333C192.854 151.439 193.081 151.591 193.272 151.79C193.462 151.989 193.61 152.233 193.716 152.521C193.822 152.809 193.875 153.131 193.875 153.487ZM192.668 153.487C192.668 153.241 192.642 153.036 192.592 152.87C192.545 152.705 192.479 152.572 192.395 152.47C192.314 152.368 192.217 152.296 192.102 152.254C191.992 152.207 191.874 152.184 191.747 152.184C191.619 152.184 191.501 152.207 191.391 152.254C191.281 152.296 191.185 152.368 191.105 152.47C191.028 152.572 190.967 152.705 190.92 152.87C190.874 153.036 190.851 153.241 190.851 153.487C190.851 153.724 190.874 153.923 190.92 154.084C190.967 154.241 191.028 154.368 191.105 154.465C191.185 154.563 191.281 154.633 191.391 154.675C191.501 154.717 191.619 154.739 191.747 154.739C191.874 154.739 191.992 154.717 192.102 154.675C192.217 154.633 192.314 154.563 192.395 154.465C192.479 154.368 192.545 154.241 192.592 154.084C192.642 153.923 192.668 153.724 192.668 153.487ZM196.932 151.511C196.987 151.447 197.05 151.39 197.122 151.339C197.199 151.288 197.304 151.263 197.44 151.263H198.584L191.759 160.216C191.704 160.284 191.638 160.341 191.562 160.388C191.486 160.43 191.393 160.451 191.283 160.451H190.113L196.932 151.511ZM199.067 158.291C199.067 158.638 199.007 158.952 198.889 159.231C198.774 159.511 198.62 159.75 198.425 159.949C198.23 160.144 198.003 160.297 197.745 160.407C197.487 160.513 197.218 160.566 196.938 160.566C196.633 160.566 196.351 160.513 196.093 160.407C195.834 160.297 195.61 160.144 195.419 159.949C195.233 159.75 195.087 159.511 194.981 159.231C194.875 158.952 194.822 158.638 194.822 158.291C194.822 157.935 194.875 157.613 194.981 157.325C195.087 157.037 195.233 156.793 195.419 156.594C195.61 156.395 195.834 156.242 196.093 156.137C196.351 156.026 196.633 155.971 196.938 155.971C197.243 155.971 197.525 156.026 197.783 156.137C198.046 156.242 198.27 156.395 198.457 156.594C198.647 156.793 198.796 157.037 198.902 157.325C199.012 157.613 199.067 157.935 199.067 158.291ZM197.853 158.291C197.853 158.045 197.83 157.84 197.783 157.674C197.737 157.509 197.671 157.376 197.586 157.274C197.506 157.172 197.408 157.1 197.294 157.058C197.184 157.011 197.065 156.988 196.938 156.988C196.811 156.988 196.692 157.011 196.582 157.058C196.472 157.1 196.377 157.172 196.296 157.274C196.216 157.376 196.152 157.509 196.106 157.674C196.063 157.84 196.042 158.045 196.042 158.291C196.042 158.528 196.063 158.727 196.106 158.888C196.152 159.049 196.216 159.178 196.296 159.276C196.377 159.373 196.472 159.443 196.582 159.485C196.692 159.528 196.811 159.549 196.938 159.549C197.065 159.549 197.184 159.528 197.294 159.485C197.408 159.443 197.506 159.373 197.586 159.276C197.671 159.178 197.737 159.049 197.783 158.888C197.83 158.727 197.853 158.528 197.853 158.291Z" fill="white"/>
<path d="M219 177.5C219 189.779 216.582 201.937 211.883 213.281C207.184 224.625 200.297 234.932 191.614 243.614C182.932 252.297 172.625 259.184 161.281 263.883C149.937 268.582 137.779 271 125.5 271L125.5 177.5H219Z" fill="#CE787F"/>
<path d="M155.466 221.626C155.635 221.626 155.769 221.675 155.866 221.773C155.968 221.866 156.019 221.991 156.019 222.147V223.088H149.715V222.567C149.715 222.461 149.736 222.351 149.779 222.236C149.825 222.118 149.897 222.012 149.995 221.919L152.784 219.123C153.017 218.886 153.225 218.659 153.407 218.443C153.594 218.227 153.748 218.013 153.871 217.801C153.994 217.589 154.087 217.375 154.151 217.159C154.218 216.939 154.252 216.708 154.252 216.467C154.252 216.246 154.221 216.054 154.157 215.888C154.093 215.719 154.002 215.577 153.884 215.463C153.769 215.348 153.63 215.264 153.464 215.208C153.303 215.149 153.121 215.12 152.918 215.12C152.732 215.12 152.558 215.147 152.397 215.202C152.24 215.253 152.1 215.327 151.977 215.425C151.855 215.518 151.751 215.628 151.666 215.755C151.581 215.882 151.518 216.022 151.475 216.174C151.403 216.369 151.31 216.498 151.196 216.562C151.081 216.625 150.916 216.64 150.7 216.606L149.874 216.46C149.938 216.02 150.061 215.634 150.243 215.304C150.425 214.969 150.652 214.692 150.923 214.471C151.198 214.247 151.511 214.08 151.863 213.969C152.219 213.855 152.6 213.798 153.007 213.798C153.43 213.798 153.818 213.861 154.17 213.988C154.521 214.111 154.822 214.287 155.072 214.516C155.322 214.745 155.517 215.02 155.657 215.342C155.796 215.664 155.866 216.022 155.866 216.416C155.866 216.755 155.815 217.068 155.714 217.356C155.616 217.644 155.483 217.92 155.313 218.182C155.148 218.445 154.953 218.699 154.729 218.945C154.504 219.191 154.269 219.44 154.024 219.695L151.952 221.811C152.151 221.751 152.348 221.707 152.543 221.677C152.742 221.643 152.931 221.626 153.109 221.626H155.466ZM159.184 217.236C159.388 217.193 159.583 217.164 159.769 217.147C159.955 217.125 160.135 217.115 160.309 217.115C160.792 217.115 161.218 217.187 161.586 217.331C161.955 217.475 162.264 217.674 162.514 217.928C162.764 218.182 162.952 218.481 163.08 218.824C163.207 219.163 163.27 219.529 163.27 219.923C163.27 220.411 163.183 220.855 163.01 221.258C162.84 221.66 162.603 222.006 162.298 222.294C161.993 222.577 161.631 222.798 161.211 222.954C160.796 223.111 160.343 223.19 159.852 223.19C159.563 223.19 159.29 223.16 159.032 223.101C158.773 223.041 158.53 222.963 158.301 222.865C158.077 222.764 157.867 222.649 157.672 222.522C157.481 222.391 157.31 222.253 157.157 222.109L157.64 221.442C157.742 221.298 157.875 221.226 158.041 221.226C158.146 221.226 158.254 221.26 158.365 221.328C158.475 221.396 158.6 221.47 158.739 221.55C158.884 221.631 159.051 221.705 159.241 221.773C159.436 221.84 159.669 221.874 159.94 221.874C160.229 221.874 160.483 221.828 160.703 221.734C160.923 221.641 161.105 221.512 161.249 221.347C161.398 221.177 161.508 220.978 161.58 220.749C161.656 220.516 161.694 220.264 161.694 219.993C161.694 219.493 161.548 219.104 161.256 218.824C160.968 218.54 160.54 218.398 159.972 218.398C159.536 218.398 159.089 218.479 158.631 218.64L157.653 218.36L158.415 213.899H162.952V214.567C162.952 214.791 162.883 214.973 162.743 215.113C162.603 215.253 162.366 215.323 162.031 215.323H159.508L159.184 217.236ZM168.71 216.124C168.71 216.471 168.651 216.784 168.533 217.064C168.418 217.344 168.264 217.583 168.069 217.782C167.874 217.977 167.647 218.127 167.389 218.233C167.13 218.339 166.861 218.392 166.582 218.392C166.277 218.392 165.995 218.339 165.737 218.233C165.478 218.127 165.254 217.977 165.063 217.782C164.877 217.583 164.731 217.344 164.625 217.064C164.519 216.784 164.466 216.471 164.466 216.124C164.466 215.768 164.519 215.446 164.625 215.158C164.731 214.87 164.877 214.626 165.063 214.427C165.254 214.228 165.478 214.075 165.737 213.969C165.995 213.859 166.277 213.804 166.582 213.804C166.887 213.804 167.168 213.859 167.427 213.969C167.69 214.075 167.916 214.228 168.107 214.427C168.297 214.626 168.446 214.87 168.552 215.158C168.658 215.446 168.71 215.768 168.71 216.124ZM167.503 216.124C167.503 215.878 167.478 215.672 167.427 215.507C167.38 215.342 167.315 215.208 167.23 215.107C167.149 215.005 167.052 214.933 166.938 214.891C166.827 214.844 166.709 214.821 166.582 214.821C166.455 214.821 166.336 214.844 166.226 214.891C166.116 214.933 166.02 215.005 165.94 215.107C165.864 215.208 165.802 215.342 165.756 215.507C165.709 215.672 165.686 215.878 165.686 216.124C165.686 216.361 165.709 216.56 165.756 216.721C165.802 216.878 165.864 217.005 165.94 217.102C166.02 217.2 166.116 217.269 166.226 217.312C166.336 217.354 166.455 217.375 166.582 217.375C166.709 217.375 166.827 217.354 166.938 217.312C167.052 217.269 167.149 217.2 167.23 217.102C167.315 217.005 167.38 216.878 167.427 216.721C167.478 216.56 167.503 216.361 167.503 216.124ZM171.767 214.147C171.822 214.084 171.886 214.027 171.958 213.976C172.034 213.925 172.14 213.899 172.275 213.899H173.419L166.594 222.853C166.539 222.921 166.474 222.978 166.398 223.024C166.321 223.067 166.228 223.088 166.118 223.088H164.949L171.767 214.147ZM173.902 220.927C173.902 221.275 173.843 221.588 173.724 221.868C173.61 222.147 173.455 222.387 173.26 222.586C173.065 222.781 172.839 222.933 172.58 223.043C172.322 223.149 172.053 223.202 171.773 223.202C171.468 223.202 171.187 223.149 170.928 223.043C170.67 222.933 170.445 222.781 170.255 222.586C170.068 222.387 169.922 222.147 169.816 221.868C169.71 221.588 169.657 221.275 169.657 220.927C169.657 220.572 169.71 220.25 169.816 219.962C169.922 219.673 170.068 219.43 170.255 219.231C170.445 219.032 170.67 218.879 170.928 218.773C171.187 218.663 171.468 218.608 171.773 218.608C172.078 218.608 172.36 218.663 172.618 218.773C172.881 218.879 173.106 219.032 173.292 219.231C173.483 219.43 173.631 219.673 173.737 219.962C173.847 220.25 173.902 220.572 173.902 220.927ZM172.688 220.927C172.688 220.682 172.665 220.476 172.618 220.311C172.572 220.146 172.506 220.012 172.421 219.911C172.341 219.809 172.244 219.737 172.129 219.695C172.019 219.648 171.9 219.625 171.773 219.625C171.646 219.625 171.528 219.648 171.417 219.695C171.307 219.737 171.212 219.809 171.132 219.911C171.051 220.012 170.987 220.146 170.941 220.311C170.899 220.476 170.877 220.682 170.877 220.927C170.877 221.165 170.899 221.364 170.941 221.525C170.987 221.686 171.051 221.815 171.132 221.912C171.212 222.01 171.307 222.08 171.417 222.122C171.528 222.164 171.646 222.186 171.773 222.186C171.9 222.186 172.019 222.164 172.129 222.122C172.244 222.08 172.341 222.01 172.421 221.912C172.506 221.815 172.572 221.686 172.618 221.525C172.665 221.364 172.688 221.165 172.688 220.927Z" fill="white"/>
<path d="M130.5 72C155.298 72 179.08 81.8509 196.614 99.3855L130.5 165.5V72Z" fill="#96363E"/>
<path d="M142.906 111.873V113.049H137.823V111.873H139.685V106.517C139.685 106.305 139.691 106.087 139.704 105.862L138.382 106.968C138.306 107.027 138.229 107.065 138.153 107.082C138.081 107.095 138.011 107.095 137.944 107.082C137.88 107.069 137.823 107.048 137.772 107.019C137.721 106.985 137.683 106.949 137.658 106.911L137.162 106.231L139.964 103.848H141.254V111.873H142.906ZM149.935 111.587C150.105 111.587 150.238 111.636 150.336 111.733C150.437 111.827 150.488 111.952 150.488 112.108V113.049H144.184V112.528C144.184 112.422 144.206 112.312 144.248 112.197C144.295 112.079 144.367 111.973 144.464 111.88L147.254 109.084C147.487 108.846 147.694 108.62 147.876 108.404C148.063 108.188 148.217 107.974 148.34 107.762C148.463 107.55 148.556 107.336 148.62 107.12C148.688 106.9 148.722 106.669 148.722 106.428C148.722 106.207 148.69 106.015 148.626 105.849C148.563 105.68 148.472 105.538 148.353 105.424C148.239 105.309 148.099 105.224 147.934 105.169C147.773 105.11 147.59 105.08 147.387 105.08C147.201 105.08 147.027 105.108 146.866 105.163C146.709 105.214 146.569 105.288 146.447 105.385C146.324 105.479 146.22 105.589 146.135 105.716C146.051 105.843 145.987 105.983 145.945 106.135C145.873 106.33 145.779 106.459 145.665 106.523C145.551 106.586 145.385 106.601 145.169 106.567L144.343 106.421C144.407 105.981 144.53 105.595 144.712 105.265C144.894 104.93 145.121 104.653 145.392 104.432C145.667 104.208 145.981 104.04 146.332 103.93C146.688 103.816 147.069 103.759 147.476 103.759C147.9 103.759 148.287 103.822 148.639 103.949C148.991 104.072 149.291 104.248 149.541 104.477C149.791 104.706 149.986 104.981 150.126 105.303C150.266 105.625 150.336 105.983 150.336 106.377C150.336 106.716 150.285 107.029 150.183 107.317C150.086 107.605 149.952 107.881 149.783 108.143C149.617 108.406 149.423 108.66 149.198 108.906C148.974 109.151 148.738 109.401 148.493 109.656L146.421 111.772C146.62 111.712 146.817 111.668 147.012 111.638C147.211 111.604 147.4 111.587 147.578 111.587H149.935ZM151.62 112.185C151.62 112.053 151.643 111.928 151.69 111.81C151.741 111.691 151.809 111.589 151.893 111.505C151.978 111.42 152.08 111.352 152.198 111.301C152.317 111.251 152.444 111.225 152.58 111.225C152.715 111.225 152.84 111.251 152.955 111.301C153.073 111.352 153.175 111.42 153.26 111.505C153.348 111.589 153.418 111.691 153.469 111.81C153.52 111.928 153.545 112.053 153.545 112.185C153.545 112.32 153.52 112.447 153.469 112.566C153.418 112.68 153.348 112.78 153.26 112.865C153.175 112.949 153.073 113.015 152.955 113.062C152.84 113.112 152.715 113.138 152.58 113.138C152.444 113.138 152.317 113.112 152.198 113.062C152.08 113.015 151.978 112.949 151.893 112.865C151.809 112.78 151.741 112.68 151.69 112.566C151.643 112.447 151.62 112.32 151.62 112.185ZM156.669 107.196C156.873 107.154 157.068 107.124 157.254 107.107C157.44 107.086 157.62 107.076 157.794 107.076C158.277 107.076 158.703 107.148 159.071 107.292C159.44 107.436 159.749 107.635 159.999 107.889C160.249 108.143 160.437 108.442 160.565 108.785C160.692 109.124 160.755 109.49 160.755 109.884C160.755 110.372 160.668 110.816 160.495 111.219C160.325 111.621 160.088 111.966 159.783 112.255C159.478 112.538 159.116 112.759 158.696 112.915C158.281 113.072 157.828 113.15 157.337 113.15C157.048 113.15 156.775 113.121 156.517 113.062C156.258 113.002 156.015 112.924 155.786 112.826C155.562 112.725 155.352 112.61 155.157 112.483C154.966 112.352 154.795 112.214 154.642 112.07L155.125 111.403C155.227 111.259 155.36 111.187 155.526 111.187C155.631 111.187 155.739 111.221 155.85 111.289C155.96 111.356 156.085 111.431 156.225 111.511C156.369 111.592 156.536 111.666 156.727 111.733C156.921 111.801 157.154 111.835 157.426 111.835C157.714 111.835 157.968 111.789 158.188 111.695C158.408 111.602 158.59 111.473 158.735 111.308C158.883 111.138 158.993 110.939 159.065 110.71C159.141 110.477 159.179 110.225 159.179 109.954C159.179 109.454 159.033 109.065 158.741 108.785C158.453 108.501 158.025 108.359 157.457 108.359C157.021 108.359 156.574 108.44 156.117 108.601L155.138 108.321L155.9 103.86H160.437V104.528C160.437 104.752 160.368 104.934 160.228 105.074C160.088 105.214 159.851 105.284 159.516 105.284H156.993L156.669 107.196ZM166.196 106.084C166.196 106.432 166.136 106.745 166.018 107.025C165.903 107.304 165.749 107.544 165.554 107.743C165.359 107.938 165.132 108.088 164.874 108.194C164.615 108.3 164.346 108.353 164.067 108.353C163.762 108.353 163.48 108.3 163.222 108.194C162.963 108.088 162.739 107.938 162.548 107.743C162.362 107.544 162.216 107.304 162.11 107.025C162.004 106.745 161.951 106.432 161.951 106.084C161.951 105.729 162.004 105.407 162.11 105.119C162.216 104.831 162.362 104.587 162.548 104.388C162.739 104.189 162.963 104.036 163.222 103.93C163.48 103.82 163.762 103.765 164.067 103.765C164.372 103.765 164.654 103.82 164.912 103.93C165.175 104.036 165.401 104.189 165.592 104.388C165.782 104.587 165.931 104.831 166.037 105.119C166.143 105.407 166.196 105.729 166.196 106.084ZM164.988 106.084C164.988 105.839 164.963 105.633 164.912 105.468C164.865 105.303 164.8 105.169 164.715 105.068C164.634 104.966 164.537 104.894 164.423 104.852C164.313 104.805 164.194 104.782 164.067 104.782C163.94 104.782 163.821 104.805 163.711 104.852C163.601 104.894 163.506 104.966 163.425 105.068C163.349 105.169 163.287 105.303 163.241 105.468C163.194 105.633 163.171 105.839 163.171 106.084C163.171 106.322 163.194 106.521 163.241 106.682C163.287 106.838 163.349 106.966 163.425 107.063C163.506 107.16 163.601 107.23 163.711 107.273C163.821 107.315 163.94 107.336 164.067 107.336C164.194 107.336 164.313 107.315 164.423 107.273C164.537 107.23 164.634 107.16 164.715 107.063C164.8 106.966 164.865 106.838 164.912 106.682C164.963 106.521 164.988 106.322 164.988 106.084ZM169.252 104.108C169.307 104.045 169.371 103.987 169.443 103.937C169.519 103.886 169.625 103.86 169.76 103.86H170.904L164.08 112.814C164.024 112.881 163.959 112.939 163.883 112.985C163.806 113.028 163.713 113.049 163.603 113.049H162.434L169.252 104.108ZM171.387 110.888C171.387 111.236 171.328 111.549 171.209 111.829C171.095 112.108 170.94 112.348 170.745 112.547C170.55 112.742 170.324 112.894 170.065 113.004C169.807 113.11 169.538 113.163 169.258 113.163C168.953 113.163 168.672 113.11 168.413 113.004C168.155 112.894 167.93 112.742 167.74 112.547C167.553 112.348 167.407 112.108 167.301 111.829C167.195 111.549 167.142 111.236 167.142 110.888C167.142 110.532 167.195 110.211 167.301 109.922C167.407 109.634 167.553 109.391 167.74 109.192C167.93 108.993 168.155 108.84 168.413 108.734C168.672 108.624 168.953 108.569 169.258 108.569C169.563 108.569 169.845 108.624 170.103 108.734C170.366 108.84 170.591 108.993 170.777 109.192C170.968 109.391 171.116 109.634 171.222 109.922C171.332 110.211 171.387 110.532 171.387 110.888ZM170.173 110.888C170.173 110.643 170.15 110.437 170.103 110.272C170.057 110.107 169.991 109.973 169.906 109.872C169.826 109.77 169.729 109.698 169.614 109.656C169.504 109.609 169.385 109.586 169.258 109.586C169.131 109.586 169.013 109.609 168.902 109.656C168.792 109.698 168.697 109.77 168.617 109.872C168.536 109.973 168.473 110.107 168.426 110.272C168.384 110.437 168.362 110.643 168.362 110.888C168.362 111.126 168.384 111.325 168.426 111.486C168.473 111.647 168.536 111.776 168.617 111.873C168.697 111.971 168.792 112.041 168.902 112.083C169.013 112.125 169.131 112.147 169.258 112.147C169.385 112.147 169.504 112.125 169.614 112.083C169.729 112.041 169.826 111.971 169.906 111.873C169.991 111.776 170.057 111.647 170.103 111.486C170.15 111.325 170.173 111.126 170.173 110.888Z" fill="white"/>
<path d="M324.147 93.918C324.147 94.9297 323.801 95.709 323.108 96.2559C322.42 96.7982 321.434 97.0693 320.148 97.0693H318.973V101H317.811V91.0059H320.401C322.899 91.0059 324.147 91.9766 324.147 93.918ZM318.973 96.0713H320.019C321.049 96.0713 321.794 95.9049 322.254 95.5723C322.714 95.2396 322.944 94.7064 322.944 93.9727C322.944 93.3118 322.728 92.8197 322.295 92.4961C321.862 92.1725 321.188 92.0107 320.271 92.0107H318.973V96.0713ZM329.493 93.3711C329.826 93.3711 330.124 93.3984 330.389 93.4531L330.231 94.5059C329.922 94.4375 329.648 94.4033 329.411 94.4033C328.805 94.4033 328.285 94.6494 327.853 95.1416C327.424 95.6338 327.21 96.2467 327.21 96.9805V101H326.075V93.5078H327.012L327.142 94.8955H327.196C327.474 94.4079 327.809 94.0319 328.201 93.7676C328.593 93.5033 329.024 93.3711 329.493 93.3711ZM338.257 97.2471C338.257 98.4684 337.949 99.4232 337.334 100.111C336.719 100.795 335.869 101.137 334.784 101.137C334.114 101.137 333.52 100.979 333 100.665C332.48 100.351 332.079 99.8994 331.797 99.3115C331.514 98.7236 331.373 98.0355 331.373 97.2471C331.373 96.0257 331.678 95.0755 332.289 94.3965C332.9 93.7129 333.747 93.3711 334.832 93.3711C335.88 93.3711 336.712 93.7197 337.327 94.417C337.947 95.1143 338.257 96.0576 338.257 97.2471ZM332.549 97.2471C332.549 98.2041 332.74 98.9333 333.123 99.4346C333.506 99.9359 334.069 100.187 334.812 100.187C335.554 100.187 336.117 99.9382 336.5 99.4414C336.887 98.9401 337.081 98.2087 337.081 97.2471C337.081 96.2946 336.887 95.5723 336.5 95.0801C336.117 94.5833 335.55 94.335 334.798 94.335C334.055 94.335 333.494 94.5788 333.116 95.0664C332.738 95.554 332.549 96.2809 332.549 97.2471ZM343.739 101.137C343.252 101.137 342.805 101.048 342.399 100.87C341.998 100.688 341.661 100.41 341.388 100.036H341.306C341.36 100.474 341.388 100.888 341.388 101.28V104.363H340.253V93.5078H341.176L341.333 94.5332H341.388C341.679 94.123 342.019 93.8268 342.406 93.6445C342.794 93.4622 343.238 93.3711 343.739 93.3711C344.733 93.3711 345.498 93.7106 346.036 94.3896C346.578 95.0687 346.85 96.0212 346.85 97.2471C346.85 98.4775 346.574 99.4346 346.022 100.118C345.476 100.797 344.715 101.137 343.739 101.137ZM343.575 94.335C342.81 94.335 342.256 94.5469 341.914 94.9707C341.572 95.3945 341.397 96.069 341.388 96.9941V97.2471C341.388 98.2998 341.563 99.054 341.914 99.5098C342.265 99.9609 342.828 100.187 343.603 100.187C344.25 100.187 344.756 99.9245 345.12 99.4004C345.489 98.8763 345.674 98.154 345.674 97.2334C345.674 96.2992 345.489 95.5837 345.12 95.0869C344.756 94.5856 344.241 94.335 343.575 94.335ZM352.004 101.137C350.896 101.137 350.021 100.799 349.379 100.125C348.741 99.4505 348.422 98.514 348.422 97.3154C348.422 96.1077 348.718 95.1484 349.311 94.4375C349.908 93.7266 350.707 93.3711 351.71 93.3711C352.649 93.3711 353.392 93.681 353.938 94.3008C354.485 94.916 354.759 95.7295 354.759 96.7412V97.459H349.598C349.62 98.3385 349.841 99.0062 350.261 99.4619C350.685 99.9176 351.279 100.146 352.045 100.146C352.852 100.146 353.649 99.9769 354.438 99.6396V100.651C354.036 100.825 353.656 100.948 353.296 101.021C352.94 101.098 352.51 101.137 352.004 101.137ZM351.696 94.3213C351.095 94.3213 350.614 94.5173 350.254 94.9092C349.898 95.3011 349.689 95.8434 349.625 96.5361H353.542C353.542 95.8206 353.382 95.2738 353.063 94.8955C352.744 94.5127 352.289 94.3213 351.696 94.3213ZM360.118 93.3711C360.451 93.3711 360.749 93.3984 361.014 93.4531L360.856 94.5059C360.547 94.4375 360.273 94.4033 360.036 94.4033C359.43 94.4033 358.91 94.6494 358.478 95.1416C358.049 95.6338 357.835 96.2467 357.835 96.9805V101H356.7V93.5078H357.637L357.767 94.8955H357.821C358.099 94.4079 358.434 94.0319 358.826 93.7676C359.218 93.5033 359.649 93.3711 360.118 93.3711ZM364.835 100.2C365.035 100.2 365.229 100.187 365.416 100.159C365.603 100.127 365.751 100.095 365.86 100.063V100.932C365.737 100.991 365.555 101.039 365.313 101.075C365.076 101.116 364.862 101.137 364.671 101.137C363.222 101.137 362.497 100.373 362.497 98.8467V94.3896H361.424V93.8428L362.497 93.3711L362.976 91.7715H363.632V93.5078H365.806V94.3896H363.632V98.7988C363.632 99.25 363.739 99.5964 363.953 99.8379C364.167 100.079 364.461 100.2 364.835 100.2ZM368.499 101H367.364V93.5078H368.499V101ZM367.269 91.4775C367.269 91.2178 367.332 91.0286 367.46 90.9102C367.588 90.7871 367.747 90.7256 367.938 90.7256C368.121 90.7256 368.278 90.7871 368.41 90.9102C368.542 91.0332 368.608 91.2223 368.608 91.4775C368.608 91.7327 368.542 91.9242 368.41 92.0518C368.278 92.1748 368.121 92.2363 367.938 92.2363C367.747 92.2363 367.588 92.1748 367.46 92.0518C367.332 91.9242 367.269 91.7327 367.269 91.4775ZM374.07 101.137C372.963 101.137 372.088 100.799 371.445 100.125C370.807 99.4505 370.488 98.514 370.488 97.3154C370.488 96.1077 370.785 95.1484 371.377 94.4375C371.974 93.7266 372.774 93.3711 373.776 93.3711C374.715 93.3711 375.458 93.681 376.005 94.3008C376.552 94.916 376.825 95.7295 376.825 96.7412V97.459H371.664C371.687 98.3385 371.908 99.0062 372.327 99.4619C372.751 99.9176 373.346 100.146 374.111 100.146C374.918 100.146 375.715 99.9769 376.504 99.6396V100.651C376.103 100.825 375.722 100.948 375.362 101.021C375.007 101.098 374.576 101.137 374.07 101.137ZM373.763 94.3213C373.161 94.3213 372.68 94.5173 372.32 94.9092C371.965 95.3011 371.755 95.8434 371.691 96.5361H375.608C375.608 95.8206 375.449 95.2738 375.13 94.8955C374.811 94.5127 374.355 94.3213 373.763 94.3213ZM383.6 98.9561C383.6 99.6533 383.34 100.191 382.82 100.569C382.301 100.948 381.572 101.137 380.633 101.137C379.639 101.137 378.865 100.979 378.309 100.665V99.6123C378.669 99.7946 379.054 99.9382 379.464 100.043C379.879 100.148 380.277 100.2 380.66 100.2C381.253 100.2 381.708 100.107 382.027 99.9199C382.346 99.7285 382.506 99.4391 382.506 99.0518C382.506 98.7601 382.378 98.5117 382.123 98.3066C381.872 98.097 381.38 97.8509 380.646 97.5684C379.949 97.3086 379.452 97.083 379.156 96.8916C378.865 96.6956 378.646 96.4746 378.5 96.2285C378.359 95.9824 378.288 95.6885 378.288 95.3467C378.288 94.736 378.536 94.2552 379.033 93.9043C379.53 93.5488 380.211 93.3711 381.077 93.3711C381.884 93.3711 382.672 93.5352 383.442 93.8633L383.039 94.7861C382.287 94.4762 381.606 94.3213 380.995 94.3213C380.457 94.3213 380.052 94.4056 379.778 94.5742C379.505 94.7428 379.368 94.9753 379.368 95.2715C379.368 95.472 379.418 95.6429 379.519 95.7842C379.623 95.9255 379.79 96.0599 380.018 96.1875C380.245 96.3151 380.683 96.4997 381.33 96.7412C382.219 97.0648 382.818 97.3906 383.128 97.7188C383.442 98.0469 383.6 98.4593 383.6 98.9561ZM391.509 100.2C391.709 100.2 391.903 100.187 392.09 100.159C392.277 100.127 392.425 100.095 392.534 100.063V100.932C392.411 100.991 392.229 101.039 391.987 101.075C391.75 101.116 391.536 101.137 391.345 101.137C389.896 101.137 389.171 100.373 389.171 98.8467V94.3896H388.098V93.8428L389.171 93.3711L389.649 91.7715H390.306V93.5078H392.479V94.3896H390.306V98.7988C390.306 99.25 390.413 99.5964 390.627 99.8379C390.841 100.079 391.135 100.2 391.509 100.2ZM400.505 97.2471C400.505 98.4684 400.197 99.4232 399.582 100.111C398.967 100.795 398.117 101.137 397.032 101.137C396.362 101.137 395.768 100.979 395.248 100.665C394.729 100.351 394.327 99.8994 394.045 99.3115C393.762 98.7236 393.621 98.0355 393.621 97.2471C393.621 96.0257 393.926 95.0755 394.537 94.3965C395.148 93.7129 395.995 93.3711 397.08 93.3711C398.128 93.3711 398.96 93.7197 399.575 94.417C400.195 95.1143 400.505 96.0576 400.505 97.2471ZM394.797 97.2471C394.797 98.2041 394.988 98.9333 395.371 99.4346C395.754 99.9359 396.317 100.187 397.06 100.187C397.802 100.187 398.365 99.9382 398.748 99.4414C399.135 98.9401 399.329 98.2087 399.329 97.2471C399.329 96.2946 399.135 95.5723 398.748 95.0801C398.365 94.5833 397.798 94.335 397.046 94.335C396.303 94.335 395.743 94.5788 395.364 95.0664C394.986 95.554 394.797 96.2809 394.797 97.2471ZM410.971 98.9561C410.971 99.6533 410.711 100.191 410.191 100.569C409.672 100.948 408.943 101.137 408.004 101.137C407.01 101.137 406.236 100.979 405.68 100.665V99.6123C406.04 99.7946 406.425 99.9382 406.835 100.043C407.25 100.148 407.648 100.2 408.031 100.2C408.624 100.2 409.079 100.107 409.398 99.9199C409.717 99.7285 409.877 99.4391 409.877 99.0518C409.877 98.7601 409.749 98.5117 409.494 98.3066C409.243 98.097 408.751 97.8509 408.018 97.5684C407.32 97.3086 406.824 97.083 406.527 96.8916C406.236 96.6956 406.017 96.4746 405.871 96.2285C405.73 95.9824 405.659 95.6885 405.659 95.3467C405.659 94.736 405.908 94.2552 406.404 93.9043C406.901 93.5488 407.582 93.3711 408.448 93.3711C409.255 93.3711 410.043 93.5352 410.813 93.8633L410.41 94.7861C409.658 94.4762 408.977 94.3213 408.366 94.3213C407.828 94.3213 407.423 94.4056 407.149 94.5742C406.876 94.7428 406.739 94.9753 406.739 95.2715C406.739 95.472 406.789 95.6429 406.89 95.7842C406.994 95.9255 407.161 96.0599 407.389 96.1875C407.617 96.3151 408.054 96.4997 408.701 96.7412C409.59 97.0648 410.189 97.3906 410.499 97.7188C410.813 98.0469 410.971 98.4593 410.971 98.9561ZM415.988 101.137C414.881 101.137 414.006 100.799 413.363 100.125C412.725 99.4505 412.406 98.514 412.406 97.3154C412.406 96.1077 412.702 95.1484 413.295 94.4375C413.892 93.7266 414.692 93.3711 415.694 93.3711C416.633 93.3711 417.376 93.681 417.923 94.3008C418.47 94.916 418.743 95.7295 418.743 96.7412V97.459H413.582C413.605 98.3385 413.826 99.0062 414.245 99.4619C414.669 99.9176 415.264 100.146 416.029 100.146C416.836 100.146 417.633 99.9769 418.422 99.6396V100.651C418.021 100.825 417.64 100.948 417.28 101.021C416.925 101.098 416.494 101.137 415.988 101.137ZM415.681 94.3213C415.079 94.3213 414.598 94.5173 414.238 94.9092C413.883 95.3011 413.673 95.8434 413.609 96.5361H417.526C417.526 95.8206 417.367 95.2738 417.048 94.8955C416.729 94.5127 416.273 94.3213 415.681 94.3213ZM421.819 101H420.685V90.3633H421.819V101ZM425.36 101H424.226V90.3633H425.36V101Z" fill="#171717"/>
<rect x="280" y="84" width="20" height="20" rx="2" fill="#B3404A"/>
<path d="M323.899 145.918C323.899 146.93 323.553 147.709 322.86 148.256C322.172 148.798 321.186 149.069 319.9 149.069H318.725V153H317.562V143.006H320.153C322.651 143.006 323.899 143.977 323.899 145.918ZM318.725 148.071H319.771C320.8 148.071 321.546 147.905 322.006 147.572C322.466 147.24 322.696 146.706 322.696 145.973C322.696 145.312 322.48 144.82 322.047 144.496C321.614 144.173 320.939 144.011 320.023 144.011H318.725V148.071ZM329.245 145.371C329.578 145.371 329.876 145.398 330.141 145.453L329.983 146.506C329.674 146.438 329.4 146.403 329.163 146.403C328.557 146.403 328.037 146.649 327.604 147.142C327.176 147.634 326.962 148.247 326.962 148.98V153H325.827V145.508H326.764L326.894 146.896H326.948C327.226 146.408 327.561 146.032 327.953 145.768C328.345 145.503 328.776 145.371 329.245 145.371ZM338.009 149.247C338.009 150.468 337.701 151.423 337.086 152.111C336.471 152.795 335.621 153.137 334.536 153.137C333.866 153.137 333.271 152.979 332.752 152.665C332.232 152.351 331.831 151.899 331.549 151.312C331.266 150.724 331.125 150.035 331.125 149.247C331.125 148.026 331.43 147.076 332.041 146.396C332.652 145.713 333.499 145.371 334.584 145.371C335.632 145.371 336.464 145.72 337.079 146.417C337.699 147.114 338.009 148.058 338.009 149.247ZM332.301 149.247C332.301 150.204 332.492 150.933 332.875 151.435C333.258 151.936 333.821 152.187 334.563 152.187C335.306 152.187 335.869 151.938 336.252 151.441C336.639 150.94 336.833 150.209 336.833 149.247C336.833 148.295 336.639 147.572 336.252 147.08C335.869 146.583 335.302 146.335 334.55 146.335C333.807 146.335 333.246 146.579 332.868 147.066C332.49 147.554 332.301 148.281 332.301 149.247ZM343.491 153.137C343.004 153.137 342.557 153.048 342.151 152.87C341.75 152.688 341.413 152.41 341.14 152.036H341.058C341.112 152.474 341.14 152.888 341.14 153.28V156.363H340.005V145.508H340.928L341.085 146.533H341.14C341.431 146.123 341.771 145.827 342.158 145.645C342.546 145.462 342.99 145.371 343.491 145.371C344.485 145.371 345.25 145.711 345.788 146.39C346.33 147.069 346.602 148.021 346.602 149.247C346.602 150.478 346.326 151.435 345.774 152.118C345.228 152.797 344.466 153.137 343.491 153.137ZM343.327 146.335C342.562 146.335 342.008 146.547 341.666 146.971C341.324 147.395 341.149 148.069 341.14 148.994V149.247C341.14 150.3 341.315 151.054 341.666 151.51C342.017 151.961 342.58 152.187 343.354 152.187C344.002 152.187 344.507 151.924 344.872 151.4C345.241 150.876 345.426 150.154 345.426 149.233C345.426 148.299 345.241 147.584 344.872 147.087C344.507 146.586 343.993 146.335 343.327 146.335ZM351.756 153.137C350.648 153.137 349.773 152.799 349.131 152.125C348.493 151.451 348.174 150.514 348.174 149.315C348.174 148.108 348.47 147.148 349.062 146.438C349.66 145.727 350.459 145.371 351.462 145.371C352.401 145.371 353.144 145.681 353.69 146.301C354.237 146.916 354.511 147.729 354.511 148.741V149.459H349.35C349.372 150.339 349.593 151.006 350.013 151.462C350.437 151.918 351.031 152.146 351.797 152.146C352.604 152.146 353.401 151.977 354.189 151.64V152.651C353.788 152.825 353.408 152.948 353.048 153.021C352.692 153.098 352.262 153.137 351.756 153.137ZM351.448 146.321C350.847 146.321 350.366 146.517 350.006 146.909C349.65 147.301 349.441 147.843 349.377 148.536H353.294C353.294 147.821 353.134 147.274 352.815 146.896C352.496 146.513 352.041 146.321 351.448 146.321ZM359.87 145.371C360.203 145.371 360.501 145.398 360.766 145.453L360.608 146.506C360.299 146.438 360.025 146.403 359.788 146.403C359.182 146.403 358.662 146.649 358.229 147.142C357.801 147.634 357.587 148.247 357.587 148.98V153H356.452V145.508H357.389L357.519 146.896H357.573C357.851 146.408 358.186 146.032 358.578 145.768C358.97 145.503 359.401 145.371 359.87 145.371ZM364.587 152.2C364.787 152.2 364.981 152.187 365.168 152.159C365.355 152.127 365.503 152.095 365.612 152.063V152.932C365.489 152.991 365.307 153.039 365.065 153.075C364.828 153.116 364.614 153.137 364.423 153.137C362.974 153.137 362.249 152.373 362.249 150.847V146.39H361.176V145.843L362.249 145.371L362.728 143.771H363.384V145.508H365.558V146.39H363.384V150.799C363.384 151.25 363.491 151.596 363.705 151.838C363.919 152.079 364.213 152.2 364.587 152.2ZM368.251 153H367.116V145.508H368.251V153ZM367.021 143.478C367.021 143.218 367.084 143.029 367.212 142.91C367.34 142.787 367.499 142.726 367.69 142.726C367.873 142.726 368.03 142.787 368.162 142.91C368.294 143.033 368.36 143.222 368.36 143.478C368.36 143.733 368.294 143.924 368.162 144.052C368.03 144.175 367.873 144.236 367.69 144.236C367.499 144.236 367.34 144.175 367.212 144.052C367.084 143.924 367.021 143.733 367.021 143.478ZM373.822 153.137C372.715 153.137 371.84 152.799 371.197 152.125C370.559 151.451 370.24 150.514 370.24 149.315C370.24 148.108 370.536 147.148 371.129 146.438C371.726 145.727 372.526 145.371 373.528 145.371C374.467 145.371 375.21 145.681 375.757 146.301C376.304 146.916 376.577 147.729 376.577 148.741V149.459H371.416C371.439 150.339 371.66 151.006 372.079 151.462C372.503 151.918 373.098 152.146 373.863 152.146C374.67 152.146 375.467 151.977 376.256 151.64V152.651C375.855 152.825 375.474 152.948 375.114 153.021C374.759 153.098 374.328 153.137 373.822 153.137ZM373.515 146.321C372.913 146.321 372.432 146.517 372.072 146.909C371.717 147.301 371.507 147.843 371.443 148.536H375.36C375.36 147.821 375.201 147.274 374.882 146.896C374.563 146.513 374.107 146.321 373.515 146.321ZM383.352 150.956C383.352 151.653 383.092 152.191 382.572 152.569C382.053 152.948 381.324 153.137 380.385 153.137C379.391 153.137 378.617 152.979 378.061 152.665V151.612C378.421 151.795 378.806 151.938 379.216 152.043C379.631 152.148 380.029 152.2 380.412 152.2C381.005 152.2 381.46 152.107 381.779 151.92C382.098 151.729 382.258 151.439 382.258 151.052C382.258 150.76 382.13 150.512 381.875 150.307C381.624 150.097 381.132 149.851 380.398 149.568C379.701 149.309 379.204 149.083 378.908 148.892C378.617 148.696 378.398 148.475 378.252 148.229C378.111 147.982 378.04 147.688 378.04 147.347C378.04 146.736 378.288 146.255 378.785 145.904C379.282 145.549 379.963 145.371 380.829 145.371C381.636 145.371 382.424 145.535 383.194 145.863L382.791 146.786C382.039 146.476 381.358 146.321 380.747 146.321C380.209 146.321 379.804 146.406 379.53 146.574C379.257 146.743 379.12 146.975 379.12 147.271C379.12 147.472 379.17 147.643 379.271 147.784C379.375 147.925 379.542 148.06 379.77 148.188C379.997 148.315 380.435 148.5 381.082 148.741C381.971 149.065 382.57 149.391 382.88 149.719C383.194 150.047 383.352 150.459 383.352 150.956ZM391.261 152.2C391.461 152.2 391.655 152.187 391.842 152.159C392.029 152.127 392.177 152.095 392.286 152.063V152.932C392.163 152.991 391.981 153.039 391.739 153.075C391.502 153.116 391.288 153.137 391.097 153.137C389.647 153.137 388.923 152.373 388.923 150.847V146.39H387.85V145.843L388.923 145.371L389.401 143.771H390.058V145.508H392.231V146.39H390.058V150.799C390.058 151.25 390.165 151.596 390.379 151.838C390.593 152.079 390.887 152.2 391.261 152.2ZM400.257 149.247C400.257 150.468 399.949 151.423 399.334 152.111C398.719 152.795 397.869 153.137 396.784 153.137C396.114 153.137 395.52 152.979 395 152.665C394.48 152.351 394.079 151.899 393.797 151.312C393.514 150.724 393.373 150.035 393.373 149.247C393.373 148.026 393.678 147.076 394.289 146.396C394.9 145.713 395.747 145.371 396.832 145.371C397.88 145.371 398.712 145.72 399.327 146.417C399.947 147.114 400.257 148.058 400.257 149.247ZM394.549 149.247C394.549 150.204 394.74 150.933 395.123 151.435C395.506 151.936 396.069 152.187 396.812 152.187C397.554 152.187 398.117 151.938 398.5 151.441C398.887 150.94 399.081 150.209 399.081 149.247C399.081 148.295 398.887 147.572 398.5 147.08C398.117 146.583 397.55 146.335 396.798 146.335C396.055 146.335 395.494 146.579 395.116 147.066C394.738 147.554 394.549 148.281 394.549 149.247ZM409.308 145.371C409.64 145.371 409.939 145.398 410.203 145.453L410.046 146.506C409.736 146.438 409.463 146.403 409.226 146.403C408.619 146.403 408.1 146.649 407.667 147.142C407.239 147.634 407.024 148.247 407.024 148.98V153H405.89V145.508H406.826L406.956 146.896H407.011C407.289 146.408 407.624 146.032 408.016 145.768C408.408 145.503 408.838 145.371 409.308 145.371ZM414.77 153.137C413.662 153.137 412.787 152.799 412.145 152.125C411.507 151.451 411.188 150.514 411.188 149.315C411.188 148.108 411.484 147.148 412.076 146.438C412.673 145.727 413.473 145.371 414.476 145.371C415.414 145.371 416.157 145.681 416.704 146.301C417.251 146.916 417.524 147.729 417.524 148.741V149.459H412.363C412.386 150.339 412.607 151.006 413.026 151.462C413.45 151.918 414.045 152.146 414.811 152.146C415.617 152.146 416.415 151.977 417.203 151.64V152.651C416.802 152.825 416.422 152.948 416.062 153.021C415.706 153.098 415.275 153.137 414.77 153.137ZM414.462 146.321C413.86 146.321 413.38 146.517 413.02 146.909C412.664 147.301 412.454 147.843 412.391 148.536H416.308C416.308 147.821 416.148 147.274 415.829 146.896C415.51 146.513 415.054 146.321 414.462 146.321ZM424.593 153V148.153C424.593 147.543 424.454 147.087 424.176 146.786C423.898 146.485 423.463 146.335 422.87 146.335C422.086 146.335 421.512 146.547 421.147 146.971C420.783 147.395 420.601 148.094 420.601 149.069V153H419.466V145.508H420.389L420.573 146.533H420.628C420.86 146.164 421.186 145.879 421.605 145.679C422.025 145.474 422.492 145.371 423.007 145.371C423.909 145.371 424.588 145.59 425.044 146.027C425.5 146.46 425.728 147.155 425.728 148.112V153H424.593ZM430.485 152.2C430.686 152.2 430.88 152.187 431.066 152.159C431.253 152.127 431.401 152.095 431.511 152.063V152.932C431.388 152.991 431.205 153.039 430.964 153.075C430.727 153.116 430.513 153.137 430.321 153.137C428.872 153.137 428.147 152.373 428.147 150.847V146.39H427.074V145.843L428.147 145.371L428.626 143.771H429.282V145.508H431.456V146.39H429.282V150.799C429.282 151.25 429.389 151.596 429.604 151.838C429.818 152.079 430.112 152.2 430.485 152.2Z" fill="#171717"/>
<rect x="280" y="136" width="20" height="20" rx="2" fill="#CE787F"/>
<path d="M323.053 202.341C323.053 203.22 322.734 203.906 322.096 204.398C321.458 204.891 320.592 205.137 319.498 205.137C318.313 205.137 317.402 204.984 316.764 204.679V203.558C317.174 203.731 317.62 203.868 318.104 203.968C318.587 204.068 319.065 204.118 319.539 204.118C320.314 204.118 320.897 203.972 321.289 203.681C321.681 203.384 321.877 202.974 321.877 202.45C321.877 202.104 321.806 201.821 321.665 201.603C321.528 201.379 321.296 201.174 320.968 200.987C320.644 200.8 320.15 200.589 319.484 200.352C318.555 200.019 317.889 199.625 317.488 199.169C317.092 198.713 316.894 198.118 316.894 197.385C316.894 196.615 317.183 196.002 317.762 195.546C318.34 195.09 319.106 194.862 320.059 194.862C321.052 194.862 321.966 195.045 322.8 195.409L322.438 196.421C321.613 196.075 320.811 195.901 320.031 195.901C319.416 195.901 318.935 196.034 318.589 196.298C318.243 196.562 318.069 196.929 318.069 197.398C318.069 197.745 318.133 198.03 318.261 198.253C318.388 198.472 318.603 198.674 318.903 198.861C319.209 199.044 319.674 199.246 320.298 199.47C321.346 199.843 322.066 200.244 322.458 200.673C322.854 201.101 323.053 201.657 323.053 202.341ZM331.393 201.247C331.393 202.468 331.085 203.423 330.47 204.111C329.854 204.795 329.005 205.137 327.92 205.137C327.25 205.137 326.655 204.979 326.136 204.665C325.616 204.351 325.215 203.899 324.933 203.312C324.65 202.724 324.509 202.035 324.509 201.247C324.509 200.026 324.814 199.076 325.425 198.396C326.035 197.713 326.883 197.371 327.968 197.371C329.016 197.371 329.848 197.72 330.463 198.417C331.083 199.114 331.393 200.058 331.393 201.247ZM325.685 201.247C325.685 202.204 325.876 202.933 326.259 203.435C326.642 203.936 327.204 204.187 327.947 204.187C328.69 204.187 329.253 203.938 329.636 203.441C330.023 202.94 330.217 202.209 330.217 201.247C330.217 200.295 330.023 199.572 329.636 199.08C329.253 198.583 328.686 198.335 327.934 198.335C327.191 198.335 326.63 198.579 326.252 199.066C325.874 199.554 325.685 200.281 325.685 201.247ZM334.523 205H333.389V194.363H334.523V205ZM342.029 203.995H341.968C341.444 204.756 340.66 205.137 339.616 205.137C338.636 205.137 337.873 204.802 337.326 204.132C336.784 203.462 336.513 202.509 336.513 201.274C336.513 200.039 336.786 199.08 337.333 198.396C337.88 197.713 338.641 197.371 339.616 197.371C340.632 197.371 341.412 197.74 341.954 198.479H342.043L341.995 197.938L341.968 197.412V194.363H343.103V205H342.18L342.029 203.995ZM339.76 204.187C340.535 204.187 341.095 203.977 341.441 203.558C341.792 203.134 341.968 202.452 341.968 201.514V201.274C341.968 200.213 341.79 199.456 341.435 199.005C341.084 198.549 340.521 198.321 339.746 198.321C339.081 198.321 338.57 198.581 338.215 199.101C337.864 199.616 337.688 200.345 337.688 201.288C337.688 202.245 337.864 202.967 338.215 203.455C338.566 203.943 339.081 204.187 339.76 204.187ZM355.619 201.247C355.619 202.468 355.312 203.423 354.696 204.111C354.081 204.795 353.231 205.137 352.146 205.137C351.477 205.137 350.882 204.979 350.362 204.665C349.843 204.351 349.442 203.899 349.159 203.312C348.877 202.724 348.735 202.035 348.735 201.247C348.735 200.026 349.041 199.076 349.651 198.396C350.262 197.713 351.11 197.371 352.194 197.371C353.243 197.371 354.074 197.72 354.689 198.417C355.309 199.114 355.619 200.058 355.619 201.247ZM349.911 201.247C349.911 202.204 350.103 202.933 350.485 203.435C350.868 203.936 351.431 204.187 352.174 204.187C352.917 204.187 353.479 203.938 353.862 203.441C354.25 202.94 354.443 202.209 354.443 201.247C354.443 200.295 354.25 199.572 353.862 199.08C353.479 198.583 352.912 198.335 352.16 198.335C351.417 198.335 350.857 198.579 350.479 199.066C350.1 199.554 349.911 200.281 349.911 201.247ZM358.682 197.508V202.368C358.682 202.979 358.821 203.435 359.099 203.735C359.377 204.036 359.812 204.187 360.404 204.187C361.188 204.187 361.76 203.972 362.12 203.544C362.485 203.116 362.667 202.416 362.667 201.445V197.508H363.802V205H362.865L362.701 203.995H362.64C362.407 204.364 362.084 204.647 361.669 204.843C361.259 205.039 360.789 205.137 360.261 205.137C359.349 205.137 358.666 204.92 358.21 204.487C357.759 204.054 357.533 203.362 357.533 202.409V197.508H358.682ZM368.635 204.2C368.835 204.2 369.029 204.187 369.216 204.159C369.403 204.127 369.551 204.095 369.66 204.063V204.932C369.537 204.991 369.355 205.039 369.113 205.075C368.876 205.116 368.662 205.137 368.471 205.137C367.021 205.137 366.297 204.373 366.297 202.847V198.39H365.224V197.843L366.297 197.371L366.775 195.771H367.432V197.508H369.605V198.39H367.432V202.799C367.432 203.25 367.539 203.596 367.753 203.838C367.967 204.079 368.261 204.2 368.635 204.2Z" fill="#171717"/>
<rect x="280" y="188" width="20" height="20" rx="2" fill="#96363E"/>
<path d="M318.956 251.844V256H317.794V246.006H320.535C321.761 246.006 322.666 246.241 323.249 246.71C323.837 247.179 324.131 247.886 324.131 248.829C324.131 250.151 323.461 251.044 322.121 251.509L324.835 256H323.461L321.041 251.844H318.956ZM318.956 250.846H320.549C321.369 250.846 321.971 250.684 322.354 250.36C322.736 250.032 322.928 249.542 322.928 248.891C322.928 248.23 322.732 247.754 322.34 247.462C321.952 247.17 321.328 247.024 320.467 247.024H318.956V250.846ZM329.442 256.137C328.335 256.137 327.46 255.799 326.817 255.125C326.179 254.451 325.86 253.514 325.86 252.315C325.86 251.108 326.157 250.148 326.749 249.438C327.346 248.727 328.146 248.371 329.148 248.371C330.087 248.371 330.83 248.681 331.377 249.301C331.924 249.916 332.197 250.729 332.197 251.741V252.459H327.036C327.059 253.339 327.28 254.006 327.699 254.462C328.123 254.918 328.718 255.146 329.483 255.146C330.29 255.146 331.088 254.977 331.876 254.64V255.651C331.475 255.825 331.094 255.948 330.734 256.021C330.379 256.098 329.948 256.137 329.442 256.137ZM329.135 249.321C328.533 249.321 328.052 249.517 327.692 249.909C327.337 250.301 327.127 250.843 327.063 251.536H330.98C330.98 250.821 330.821 250.274 330.502 249.896C330.183 249.513 329.727 249.321 329.135 249.321ZM339.266 256V251.153C339.266 250.543 339.127 250.087 338.849 249.786C338.571 249.485 338.135 249.335 337.543 249.335C336.759 249.335 336.185 249.547 335.82 249.971C335.456 250.395 335.273 251.094 335.273 252.069V256H334.139V248.508H335.062L335.246 249.533H335.301C335.533 249.164 335.859 248.879 336.278 248.679C336.698 248.474 337.165 248.371 337.68 248.371C338.582 248.371 339.261 248.59 339.717 249.027C340.173 249.46 340.4 250.155 340.4 251.112V256H339.266ZM345.158 255.2C345.359 255.2 345.552 255.187 345.739 255.159C345.926 255.127 346.074 255.095 346.184 255.063V255.932C346.061 255.991 345.878 256.039 345.637 256.075C345.4 256.116 345.186 256.137 344.994 256.137C343.545 256.137 342.82 255.373 342.82 253.847V249.39H341.747V248.843L342.82 248.371L343.299 246.771H343.955V248.508H346.129V249.39H343.955V253.799C343.955 254.25 344.062 254.596 344.276 254.838C344.491 255.079 344.785 255.2 345.158 255.2ZM350.853 256.137C349.745 256.137 348.87 255.799 348.228 255.125C347.59 254.451 347.271 253.514 347.271 252.315C347.271 251.108 347.567 250.148 348.159 249.438C348.756 248.727 349.556 248.371 350.559 248.371C351.497 248.371 352.24 248.681 352.787 249.301C353.334 249.916 353.607 250.729 353.607 251.741V252.459H348.446C348.469 253.339 348.69 254.006 349.109 254.462C349.533 254.918 350.128 255.146 350.894 255.146C351.7 255.146 352.498 254.977 353.286 254.64V255.651C352.885 255.825 352.505 255.948 352.145 256.021C351.789 256.098 351.358 256.137 350.853 256.137ZM350.545 249.321C349.943 249.321 349.463 249.517 349.103 249.909C348.747 250.301 348.537 250.843 348.474 251.536H352.391C352.391 250.821 352.231 250.274 351.912 249.896C351.593 249.513 351.137 249.321 350.545 249.321ZM360.648 254.995H360.587C360.063 255.756 359.279 256.137 358.235 256.137C357.256 256.137 356.492 255.802 355.945 255.132C355.403 254.462 355.132 253.509 355.132 252.274C355.132 251.039 355.405 250.08 355.952 249.396C356.499 248.713 357.26 248.371 358.235 248.371C359.252 248.371 360.031 248.74 360.573 249.479H360.662L360.614 248.938L360.587 248.412V245.363H361.722V256H360.799L360.648 254.995ZM358.379 255.187C359.154 255.187 359.714 254.977 360.061 254.558C360.411 254.134 360.587 253.452 360.587 252.514V252.274C360.587 251.213 360.409 250.456 360.054 250.005C359.703 249.549 359.14 249.321 358.365 249.321C357.7 249.321 357.189 249.581 356.834 250.101C356.483 250.616 356.308 251.345 356.308 252.288C356.308 253.245 356.483 253.967 356.834 254.455C357.185 254.943 357.7 255.187 358.379 255.187ZM374.238 252.247C374.238 253.468 373.931 254.423 373.315 255.111C372.7 255.795 371.85 256.137 370.766 256.137C370.096 256.137 369.501 255.979 368.981 255.665C368.462 255.351 368.061 254.899 367.778 254.312C367.496 253.724 367.354 253.035 367.354 252.247C367.354 251.026 367.66 250.076 368.271 249.396C368.881 248.713 369.729 248.371 370.813 248.371C371.862 248.371 372.693 248.72 373.309 249.417C373.928 250.114 374.238 251.058 374.238 252.247ZM368.53 252.247C368.53 253.204 368.722 253.933 369.104 254.435C369.487 254.936 370.05 255.187 370.793 255.187C371.536 255.187 372.099 254.938 372.481 254.441C372.869 253.94 373.062 253.209 373.062 252.247C373.062 251.295 372.869 250.572 372.481 250.08C372.099 249.583 371.531 249.335 370.779 249.335C370.036 249.335 369.476 249.579 369.098 250.066C368.719 250.554 368.53 251.281 368.53 252.247ZM377.301 248.508V253.368C377.301 253.979 377.44 254.435 377.718 254.735C377.996 255.036 378.431 255.187 379.023 255.187C379.807 255.187 380.379 254.972 380.739 254.544C381.104 254.116 381.286 253.416 381.286 252.445V248.508H382.421V256H381.484L381.32 254.995H381.259C381.026 255.364 380.703 255.647 380.288 255.843C379.878 256.039 379.409 256.137 378.88 256.137C377.968 256.137 377.285 255.92 376.829 255.487C376.378 255.054 376.152 254.362 376.152 253.409V248.508H377.301ZM387.254 255.2C387.454 255.2 387.648 255.187 387.835 255.159C388.022 255.127 388.17 255.095 388.279 255.063V255.932C388.156 255.991 387.974 256.039 387.732 256.075C387.495 256.116 387.281 256.137 387.09 256.137C385.641 256.137 384.916 255.373 384.916 253.847V249.39H383.843V248.843L384.916 248.371L385.395 246.771H386.051V248.508H388.225V249.39H386.051V253.799C386.051 254.25 386.158 254.596 386.372 254.838C386.586 255.079 386.88 255.2 387.254 255.2Z" fill="#171717"/>
<rect x="280" y="240" width="20" height="20" rx="2" fill="#E4B4B8"/>
<path d="M74.207 53V38.7227H77.2344V50.5H83.0254V53H74.207ZM85.1543 39.2598C85.1543 38.2897 85.6947 37.8047 86.7754 37.8047C87.8561 37.8047 88.3965 38.2897 88.3965 39.2598C88.3965 39.722 88.2598 40.0833 87.9863 40.3438C87.7194 40.5977 87.3158 40.7246 86.7754 40.7246C85.6947 40.7246 85.1543 40.2363 85.1543 39.2598ZM88.2598 53H85.2812V42.082H88.2598V53ZM99.0117 49.7578C99.0117 50.8776 98.6211 51.7305 97.8398 52.3164C97.0651 52.9023 95.903 53.1953 94.3535 53.1953C93.5592 53.1953 92.8822 53.14 92.3223 53.0293C91.7624 52.9251 91.2383 52.7689 90.75 52.5605V50.0996C91.3034 50.36 91.9251 50.5781 92.6152 50.7539C93.3118 50.9297 93.9238 51.0176 94.4512 51.0176C95.5319 51.0176 96.0723 50.7051 96.0723 50.0801C96.0723 49.8457 96.0007 49.6569 95.8574 49.5137C95.7142 49.3639 95.4668 49.1979 95.1152 49.0156C94.7637 48.8268 94.2949 48.6087 93.709 48.3613C92.8691 48.0098 92.2507 47.6842 91.8535 47.3848C91.4629 47.0853 91.1764 46.7435 90.9941 46.3594C90.8184 45.9688 90.7305 45.4902 90.7305 44.9238C90.7305 43.9538 91.1048 43.2051 91.8535 42.6777C92.6087 42.1439 93.6764 41.877 95.0566 41.877C96.3717 41.877 97.651 42.1634 98.8945 42.7363L97.9961 44.8848C97.4492 44.6504 96.9382 44.4583 96.4629 44.3086C95.9876 44.1589 95.5026 44.084 95.0078 44.084C94.1289 44.084 93.6895 44.3216 93.6895 44.7969C93.6895 45.0638 93.8294 45.2949 94.1094 45.4902C94.3958 45.6855 95.0176 45.9753 95.9746 46.3594C96.8275 46.7044 97.4525 47.0267 97.8496 47.3262C98.2467 47.6257 98.5397 47.9707 98.7285 48.3613C98.9173 48.752 99.0117 49.2174 99.0117 49.7578ZM105.936 50.8223C106.456 50.8223 107.081 50.7083 107.811 50.4805V52.6973C107.068 53.0293 106.157 53.1953 105.076 53.1953C103.885 53.1953 103.016 52.8958 102.469 52.2969C101.928 51.6914 101.658 50.7865 101.658 49.582V44.3184H100.232V43.0586L101.873 42.0625L102.732 39.7578H104.637V42.082H107.693V44.3184H104.637V49.582C104.637 50.0052 104.754 50.3177 104.988 50.5195C105.229 50.7214 105.545 50.8223 105.936 50.8223ZM109.9 39.2598C109.9 38.2897 110.441 37.8047 111.521 37.8047C112.602 37.8047 113.143 38.2897 113.143 39.2598C113.143 39.722 113.006 40.0833 112.732 40.3438C112.465 40.5977 112.062 40.7246 111.521 40.7246C110.441 40.7246 109.9 40.2363 109.9 39.2598ZM113.006 53H110.027V42.082H113.006V53ZM126.219 53H123.24V46.623C123.24 45.8353 123.1 45.2461 122.82 44.8555C122.54 44.4583 122.094 44.2598 121.482 44.2598C120.649 44.2598 120.047 44.5397 119.676 45.0996C119.305 45.653 119.119 46.5742 119.119 47.8633V53H116.141V42.082H118.416L118.816 43.4785H118.982C119.314 42.9512 119.77 42.554 120.35 42.2871C120.936 42.0137 121.6 41.877 122.342 41.877C123.611 41.877 124.575 42.222 125.232 42.9121C125.89 43.5957 126.219 44.5853 126.219 45.8809V53ZM138.787 42.082V43.5957L137.078 44.0352C137.391 44.5234 137.547 45.0703 137.547 45.6758C137.547 46.8477 137.137 47.7624 136.316 48.4199C135.503 49.071 134.37 49.3965 132.918 49.3965L132.381 49.3672L131.941 49.3184C131.635 49.5527 131.482 49.8132 131.482 50.0996C131.482 50.5293 132.029 50.7441 133.123 50.7441H134.979C136.176 50.7441 137.088 51.0013 137.713 51.5156C138.344 52.0299 138.66 52.7852 138.66 53.7812C138.66 55.0573 138.126 56.0469 137.059 56.75C135.997 57.4531 134.471 57.8047 132.479 57.8047C130.955 57.8047 129.79 57.5378 128.982 57.0039C128.182 56.4766 127.781 55.7344 127.781 54.7773C127.781 54.1198 127.986 53.5697 128.396 53.127C128.807 52.6842 129.409 52.3685 130.203 52.1797C129.897 52.0495 129.63 51.8379 129.402 51.5449C129.174 51.2454 129.061 50.9297 129.061 50.5977C129.061 50.181 129.181 49.8359 129.422 49.5625C129.663 49.2826 130.011 49.0091 130.467 48.7422C129.894 48.4948 129.438 48.0977 129.1 47.5508C128.768 47.0039 128.602 46.3594 128.602 45.6172C128.602 44.4258 128.989 43.5046 129.764 42.8535C130.538 42.2025 131.645 41.877 133.084 41.877C133.39 41.877 133.751 41.9062 134.168 41.9648C134.591 42.0169 134.861 42.056 134.979 42.082H138.787ZM130.359 54.543C130.359 54.9531 130.555 55.2754 130.945 55.5098C131.342 55.7441 131.896 55.8613 132.605 55.8613C133.673 55.8613 134.51 55.7148 135.115 55.4219C135.721 55.1289 136.023 54.7285 136.023 54.2207C136.023 53.8105 135.844 53.5273 135.486 53.3711C135.128 53.2148 134.575 53.1367 133.826 53.1367H132.283C131.736 53.1367 131.277 53.2637 130.906 53.5176C130.542 53.778 130.359 54.1198 130.359 54.543ZM131.443 45.6562C131.443 46.2487 131.577 46.7174 131.844 47.0625C132.117 47.4076 132.531 47.5801 133.084 47.5801C133.644 47.5801 134.054 47.4076 134.314 47.0625C134.575 46.7174 134.705 46.2487 134.705 45.6562C134.705 44.3411 134.165 43.6836 133.084 43.6836C131.99 43.6836 131.443 44.3411 131.443 45.6562ZM148.211 49.7578C148.211 50.8776 147.82 51.7305 147.039 52.3164C146.264 52.9023 145.102 53.1953 143.553 53.1953C142.758 53.1953 142.081 53.14 141.521 53.0293C140.962 52.9251 140.438 52.7689 139.949 52.5605V50.0996C140.503 50.36 141.124 50.5781 141.814 50.7539C142.511 50.9297 143.123 51.0176 143.65 51.0176C144.731 51.0176 145.271 50.7051 145.271 50.0801C145.271 49.8457 145.2 49.6569 145.057 49.5137C144.913 49.3639 144.666 49.1979 144.314 49.0156C143.963 48.8268 143.494 48.6087 142.908 48.3613C142.068 48.0098 141.45 47.6842 141.053 47.3848C140.662 47.0853 140.376 46.7435 140.193 46.3594C140.018 45.9688 139.93 45.4902 139.93 44.9238C139.93 43.9538 140.304 43.2051 141.053 42.6777C141.808 42.1439 142.876 41.877 144.256 41.877C145.571 41.877 146.85 42.1634 148.094 42.7363L147.195 44.8848C146.648 44.6504 146.137 44.4583 145.662 44.3086C145.187 44.1589 144.702 44.084 144.207 44.084C143.328 44.084 142.889 44.3216 142.889 44.7969C142.889 45.0638 143.029 45.2949 143.309 45.4902C143.595 45.6855 144.217 45.9753 145.174 46.3594C146.027 46.7044 146.652 47.0267 147.049 47.3262C147.446 47.6257 147.739 47.9707 147.928 48.3613C148.117 48.752 148.211 49.2174 148.211 49.7578ZM159.188 53.1953C157.905 53.1953 156.896 52.6973 156.16 51.7012C155.431 50.7051 155.066 49.3249 155.066 47.5605C155.066 45.7702 155.438 44.377 156.18 43.3809C156.928 42.3783 157.957 41.877 159.266 41.877C160.639 41.877 161.688 42.4108 162.41 43.4785H162.508C162.358 42.6647 162.283 41.9388 162.283 41.3008V37.8047H165.271V53H162.986L162.41 51.584H162.283C161.606 52.6582 160.574 53.1953 159.188 53.1953ZM160.232 50.8223C160.994 50.8223 161.551 50.6009 161.902 50.1582C162.26 49.7155 162.456 48.9635 162.488 47.9023V47.5801C162.488 46.4082 162.306 45.5684 161.941 45.0605C161.583 44.5527 160.997 44.2988 160.184 44.2988C159.52 44.2988 159.002 44.582 158.631 45.1484C158.266 45.7083 158.084 46.5254 158.084 47.5996C158.084 48.6738 158.27 49.4811 158.641 50.0215C159.012 50.5553 159.542 50.8223 160.232 50.8223ZM172.908 43.9961C172.277 43.9961 171.782 44.1979 171.424 44.6016C171.066 44.9987 170.861 45.5651 170.809 46.3008H174.988C174.975 45.5651 174.783 44.9987 174.412 44.6016C174.041 44.1979 173.54 43.9961 172.908 43.9961ZM173.328 53.1953C171.57 53.1953 170.197 52.7103 169.207 51.7402C168.217 50.7702 167.723 49.3965 167.723 47.6191C167.723 45.7897 168.178 44.377 169.09 43.3809C170.008 42.3783 171.274 41.877 172.889 41.877C174.432 41.877 175.633 42.3164 176.492 43.1953C177.352 44.0742 177.781 45.2884 177.781 46.8379V48.2832H170.74C170.773 49.1296 171.023 49.7904 171.492 50.2656C171.961 50.7409 172.618 50.9785 173.465 50.9785C174.122 50.9785 174.744 50.9102 175.33 50.7734C175.916 50.6367 176.528 50.4186 177.166 50.1191V52.4238C176.645 52.6842 176.089 52.8763 175.496 53C174.904 53.1302 174.181 53.1953 173.328 53.1953ZM184.803 50.8223C185.324 50.8223 185.949 50.7083 186.678 50.4805V52.6973C185.936 53.0293 185.024 53.1953 183.943 53.1953C182.752 53.1953 181.883 52.8958 181.336 52.2969C180.796 51.6914 180.525 50.7865 180.525 49.582V44.3184H179.1V43.0586L180.74 42.0625L181.6 39.7578H183.504V42.082H186.561V44.3184H183.504V49.582C183.504 50.0052 183.621 50.3177 183.855 50.5195C184.096 50.7214 184.412 50.8223 184.803 50.8223ZM195.828 53L195.252 51.5156H195.174C194.673 52.1471 194.155 52.5866 193.621 52.834C193.094 53.0749 192.404 53.1953 191.551 53.1953C190.503 53.1953 189.676 52.8958 189.07 52.2969C188.471 51.6979 188.172 50.8451 188.172 49.7383C188.172 48.5794 188.576 47.7266 189.383 47.1797C190.197 46.6263 191.421 46.3203 193.055 46.2617L194.949 46.2031V45.7246C194.949 44.6178 194.383 44.0645 193.25 44.0645C192.378 44.0645 191.352 44.3281 190.174 44.8555L189.188 42.8438C190.444 42.1862 191.837 41.8574 193.367 41.8574C194.832 41.8574 195.955 42.1764 196.736 42.8145C197.518 43.4525 197.908 44.4225 197.908 45.7246V53H195.828ZM194.949 47.9414L193.797 47.9805C192.931 48.0065 192.286 48.1628 191.863 48.4492C191.44 48.7357 191.229 49.1719 191.229 49.7578C191.229 50.5977 191.71 51.0176 192.674 51.0176C193.364 51.0176 193.914 50.819 194.324 50.4219C194.741 50.0247 194.949 49.4974 194.949 48.8398V47.9414ZM200.857 39.2598C200.857 38.2897 201.398 37.8047 202.479 37.8047C203.559 37.8047 204.1 38.2897 204.1 39.2598C204.1 39.722 203.963 40.0833 203.689 40.3438C203.423 40.5977 203.019 40.7246 202.479 40.7246C201.398 40.7246 200.857 40.2363 200.857 39.2598ZM203.963 53H200.984V42.082H203.963V53ZM210.076 53H207.098V37.8047H210.076V53ZM220.828 49.7578C220.828 50.8776 220.438 51.7305 219.656 52.3164C218.882 52.9023 217.719 53.1953 216.17 53.1953C215.376 53.1953 214.699 53.14 214.139 53.0293C213.579 52.9251 213.055 52.7689 212.566 52.5605V50.0996C213.12 50.36 213.742 50.5781 214.432 50.7539C215.128 50.9297 215.74 51.0176 216.268 51.0176C217.348 51.0176 217.889 50.7051 217.889 50.0801C217.889 49.8457 217.817 49.6569 217.674 49.5137C217.531 49.3639 217.283 49.1979 216.932 49.0156C216.58 48.8268 216.111 48.6087 215.525 48.3613C214.686 48.0098 214.067 47.6842 213.67 47.3848C213.279 47.0853 212.993 46.7435 212.811 46.3594C212.635 45.9688 212.547 45.4902 212.547 44.9238C212.547 43.9538 212.921 43.2051 213.67 42.6777C214.425 42.1439 215.493 41.877 216.873 41.877C218.188 41.877 219.467 42.1634 220.711 42.7363L219.812 44.8848C219.266 44.6504 218.755 44.4583 218.279 44.3086C217.804 44.1589 217.319 44.084 216.824 44.084C215.945 44.084 215.506 44.3216 215.506 44.7969C215.506 45.0638 215.646 45.2949 215.926 45.4902C216.212 45.6855 216.834 45.9753 217.791 46.3594C218.644 46.7044 219.269 47.0267 219.666 47.3262C220.063 47.6257 220.356 47.9707 220.545 48.3613C220.734 48.752 220.828 49.2174 220.828 49.7578Z" fill="#1F1F1F"/>
<path d="M54 56.8004V54.3023C54.5273 53.9916 54.8363 53.4115 54.8 52.8004C54.8 51.9168 54.2629 51.2004 53.6 51.2004C52.9371 51.2004 52.4 51.9168 52.4 52.8004C52.3637 53.4115 52.6727 53.9916 53.2 54.3023V56.8004H50.4V44.6477L48 43.4477V45.6004H49.2V46.4004H48V48.0004H49.2V48.8004H48V50.4004H49.2V51.2004H48V52.8004H49.2V53.6004H48V55.2004H49.2V56.0004H48V56.8004H47.2V40.702L42.4 39.3309V40.8004H45.2V41.6004H42.4V43.2004H45.2V44.0004H42.4V45.6004H45.2V46.4004H42.4V48.0004H45.2V48.8004H42.4V50.4004H45.2V51.2004H42.4V52.8004H45.2V53.6004H42.4V55.2004H45.2V56.0004H42.4V56.8004H41.6V34.4004H34.4V36.0004H38V36.8004H34.4V38.4004H38V39.2004H34.4V40.8004H38V41.6004H34.4V43.2004H38V44.0004H34.4V45.6004H38V46.4004H34.4V48.0004H38V48.8004H34.4V50.4004H38V51.2004H34.4V52.8004H38V53.6004H34.4V55.2004H38V56.0004H34.4V56.8004H32V57.6004H56V56.8004H54Z" fill="#B3404A"/>
<defs>
<filter id="filter0_d" x="0" y="0" width="495" height="297" filterUnits="userSpaceOnUse" color-interpolation-filters="sRGB">
<feFlood flood-opacity="0" result="BackgroundImageFix"/>
<feColorMatrix in="SourceAlpha" type="matrix" values="0 0 0 0 0 0 0 0 0 0 0 0 0 0 0 0 0 0 127 0"/>
<feOffset/>
<feGaussianBlur stdDeviation="4"/>
<feColorMatrix type="matrix" values="0 0 0 0 0 0 0 0 0 0 0 0 0 0 0 0 0 0 0.25 0"/>
<feBlend mode="normal" in2="BackgroundImageFix" result="effect1_dropShadow"/>
<feBlend mode="normal" in="SourceGraphic" in2="effect1_dropShadow" result="shape"/>
</filter>
</defs>
</svg>
