<svg width="20" height="20" viewBox="0 0 20 20" fill="none" xmlns="http://www.w3.org/2000/svg">
<path d="M18.3333 18.9997V16.918C18.7728 16.659 19.0303 16.1756 19 15.6663C19 14.93 18.5524 14.333 18 14.333C17.4476 14.333 17 14.93 17 15.6663C16.9697 16.1756 17.2272 16.659 17.6667 16.918V18.9997H15.3333V8.8724L13.3333 7.8724V9.66634H14.3333V10.333H13.3333V11.6663H14.3333V12.333H13.3333V13.6663H14.3333V14.333H13.3333V15.6663H14.3333V16.333H13.3333V17.6663H14.3333V18.333H13.3333V18.9997H12.6667V5.58431L8.66667 4.44173V5.66634H11V6.33301H8.66667V7.66634H11V8.33301H8.66667V9.66634H11V10.333H8.66667V11.6663H11V12.333H8.66667V13.6663H11V14.333H8.66667V15.6663H11V16.333H8.66667V17.6663H11V18.333H8.66667V18.9997H8V0.333008H2V1.66634H5V2.33301H2V3.66634H5V4.33301H2V5.66634H5V6.33301H2V7.66634H5V8.33301H2V9.66634H5V10.333H2V11.6663H5V12.333H2V13.6663H5V14.333H2V15.6663H5V16.333H2V17.6663H5V18.333H2V18.9997H0V19.6663H20V18.9997H18.3333Z" fill="white"/>
</svg>
