<svg width="712" height="62" viewBox="0 0 712 62" fill="none" xmlns="http://www.w3.org/2000/svg">
<g filter="url(#filter0_d)">
<rect x="4" y="4" width="704" height="54" rx="5" fill="white"/>
</g>
<path d="M70.9375 30.7891L73.6406 25.5781H75.6719L71.8672 32.5703V37H69.9922V32.6328L66.2031 25.5781H68.2344L70.9375 30.7891ZM84.6484 32.6641C84.6484 34.0755 84.2865 35.1771 83.5625 35.9688C82.8385 36.7604 81.8307 37.1562 80.5391 37.1562C79.7318 37.1562 79.0182 36.974 78.3984 36.6094C77.7786 36.2448 77.3021 35.7214 76.9688 35.0391C76.6354 34.3568 76.4688 33.5651 76.4688 32.6641C76.4688 31.263 76.8281 30.1693 77.5469 29.3828C78.2656 28.5964 79.2786 28.2031 80.5859 28.2031C81.8359 28.2031 82.8255 28.6068 83.5547 29.4141C84.2839 30.2161 84.6484 31.2995 84.6484 32.6641ZM78.3594 32.6641C78.3594 34.6589 79.0964 35.6562 80.5703 35.6562C82.0286 35.6562 82.7578 34.6589 82.7578 32.6641C82.7578 30.6901 82.0234 29.7031 80.5547 29.7031C79.7839 29.7031 79.224 29.9583 78.875 30.4688C78.5312 30.9792 78.3594 31.7109 78.3594 32.6641ZM92.8594 37L92.6016 35.8672H92.5078C92.2526 36.2682 91.888 36.5833 91.4141 36.8125C90.9453 37.0417 90.4089 37.1562 89.8047 37.1562C88.7578 37.1562 87.9766 36.8958 87.4609 36.375C86.9453 35.8542 86.6875 35.0651 86.6875 34.0078V28.3594H88.5391V33.6875C88.5391 34.349 88.6745 34.8464 88.9453 35.1797C89.2161 35.5078 89.6406 35.6719 90.2188 35.6719C90.9896 35.6719 91.5547 35.4427 91.9141 34.9844C92.2786 34.5208 92.4609 33.7474 92.4609 32.6641V28.3594H94.3047V37H92.8594ZM108.68 37H106.836V31.6875C106.836 31.0208 106.701 30.5234 106.43 30.1953C106.164 29.8672 105.74 29.7031 105.156 29.7031C104.38 29.7031 103.812 29.9323 103.453 30.3906C103.094 30.849 102.914 31.6172 102.914 32.6953V37H101.078V28.3594H102.516L102.773 29.4922H102.867C103.128 29.0807 103.497 28.763 103.977 28.5391C104.456 28.3151 104.987 28.2031 105.57 28.2031C107.643 28.2031 108.68 29.2578 108.68 31.3672V37ZM115.008 37.1562C113.664 37.1562 112.612 36.7656 111.852 35.9844C111.096 35.1979 110.719 34.1172 110.719 32.7422C110.719 31.3307 111.07 30.2214 111.773 29.4141C112.477 28.6068 113.443 28.2031 114.672 28.2031C115.812 28.2031 116.714 28.5495 117.375 29.2422C118.036 29.9349 118.367 30.888 118.367 32.1016V33.0938H112.609C112.635 33.9323 112.862 34.5781 113.289 35.0312C113.716 35.4792 114.318 35.7031 115.094 35.7031C115.604 35.7031 116.078 35.6562 116.516 35.5625C116.958 35.4635 117.432 35.3021 117.938 35.0781V36.5703C117.49 36.7839 117.036 36.9349 116.578 37.0234C116.12 37.112 115.596 37.1562 115.008 37.1562ZM114.672 29.5938C114.089 29.5938 113.62 29.7786 113.266 30.1484C112.917 30.5182 112.708 31.0573 112.641 31.7656H116.562C116.552 31.0521 116.38 30.513 116.047 30.1484C115.714 29.7786 115.255 29.5938 114.672 29.5938ZM124.227 37.1562C122.883 37.1562 121.831 36.7656 121.07 35.9844C120.315 35.1979 119.938 34.1172 119.938 32.7422C119.938 31.3307 120.289 30.2214 120.992 29.4141C121.695 28.6068 122.661 28.2031 123.891 28.2031C125.031 28.2031 125.932 28.5495 126.594 29.2422C127.255 29.9349 127.586 30.888 127.586 32.1016V33.0938H121.828C121.854 33.9323 122.081 34.5781 122.508 35.0312C122.935 35.4792 123.536 35.7031 124.312 35.7031C124.823 35.7031 125.297 35.6562 125.734 35.5625C126.177 35.4635 126.651 35.3021 127.156 35.0781V36.5703C126.708 36.7839 126.255 36.9349 125.797 37.0234C125.339 37.112 124.815 37.1562 124.227 37.1562ZM123.891 29.5938C123.307 29.5938 122.839 29.7786 122.484 30.1484C122.135 30.5182 121.927 31.0573 121.859 31.7656H125.781C125.771 31.0521 125.599 30.513 125.266 30.1484C124.932 29.7786 124.474 29.5938 123.891 29.5938ZM132.586 37.1562C131.508 37.1562 130.667 36.7656 130.062 35.9844C129.458 35.2031 129.156 34.1068 129.156 32.6953C129.156 31.2786 129.461 30.1771 130.07 29.3906C130.685 28.599 131.534 28.2031 132.617 28.2031C133.753 28.2031 134.617 28.6224 135.211 29.4609H135.305C135.216 28.8411 135.172 28.3516 135.172 27.9922V24.8438H137.016V37H135.578L135.258 35.8672H135.172C134.583 36.7266 133.721 37.1562 132.586 37.1562ZM133.078 35.6719C133.833 35.6719 134.383 35.4609 134.727 35.0391C135.07 34.612 135.247 33.9219 135.258 32.9688V32.7109C135.258 31.6224 135.081 30.849 134.727 30.3906C134.372 29.9323 133.818 29.7031 133.062 29.7031C132.417 29.7031 131.919 29.9661 131.57 30.4922C131.221 31.013 131.047 31.7578 131.047 32.7266C131.047 33.6849 131.216 34.4167 131.555 34.9219C131.893 35.4219 132.401 35.6719 133.078 35.6719ZM147.016 35.6719C147.464 35.6719 147.911 35.6016 148.359 35.4609V36.8438C148.156 36.9323 147.893 37.0052 147.57 37.0625C147.253 37.125 146.922 37.1562 146.578 37.1562C144.839 37.1562 143.969 36.2396 143.969 34.4062V29.75H142.789V28.9375L144.055 28.2656L144.68 26.4375H145.812V28.3594H148.273V29.75H145.812V34.375C145.812 34.8177 145.922 35.1458 146.141 35.3594C146.365 35.5677 146.656 35.6719 147.016 35.6719ZM157.758 32.6641C157.758 34.0755 157.396 35.1771 156.672 35.9688C155.948 36.7604 154.94 37.1562 153.648 37.1562C152.841 37.1562 152.128 36.974 151.508 36.6094C150.888 36.2448 150.411 35.7214 150.078 35.0391C149.745 34.3568 149.578 33.5651 149.578 32.6641C149.578 31.263 149.938 30.1693 150.656 29.3828C151.375 28.5964 152.388 28.2031 153.695 28.2031C154.945 28.2031 155.935 28.6068 156.664 29.4141C157.393 30.2161 157.758 31.2995 157.758 32.6641ZM151.469 32.6641C151.469 34.6589 152.206 35.6562 153.68 35.6562C155.138 35.6562 155.867 34.6589 155.867 32.6641C155.867 30.6901 155.133 29.7031 153.664 29.7031C152.893 29.7031 152.333 29.9583 151.984 30.4688C151.641 30.9792 151.469 31.7109 151.469 32.6641ZM168.414 37.1562C167.32 37.1562 166.471 36.763 165.867 35.9766H165.758C165.831 36.7057 165.867 37.1484 165.867 37.3047V40.8438H164.031V28.3594H165.516C165.557 28.5208 165.643 28.9062 165.773 29.5156H165.867C166.44 28.6406 167.299 28.2031 168.445 28.2031C169.523 28.2031 170.362 28.5938 170.961 29.375C171.565 30.1562 171.867 31.2526 171.867 32.6641C171.867 34.0755 171.56 35.1771 170.945 35.9688C170.336 36.7604 169.492 37.1562 168.414 37.1562ZM167.969 29.7031C167.24 29.7031 166.706 29.9167 166.367 30.3438C166.034 30.7708 165.867 31.4531 165.867 32.3906V32.6641C165.867 33.7161 166.034 34.4792 166.367 34.9531C166.701 35.4219 167.245 35.6562 168 35.6562C168.635 35.6562 169.125 35.3958 169.469 34.875C169.812 34.3542 169.984 33.612 169.984 32.6484C169.984 31.6797 169.812 30.9479 169.469 30.4531C169.13 29.9531 168.63 29.7031 167.969 29.7031ZM179.406 37L179.039 35.7969H178.977C178.56 36.3229 178.141 36.6823 177.719 36.875C177.297 37.0625 176.755 37.1562 176.094 37.1562C175.245 37.1562 174.581 36.9271 174.102 36.4688C173.628 36.0104 173.391 35.362 173.391 34.5234C173.391 33.6328 173.721 32.9609 174.383 32.5078C175.044 32.0547 176.052 31.8073 177.406 31.7656L178.898 31.7188V31.2578C178.898 30.7057 178.768 30.2943 178.508 30.0234C178.253 29.7474 177.854 29.6094 177.312 29.6094C176.87 29.6094 176.445 29.6745 176.039 29.8047C175.633 29.9349 175.242 30.0885 174.867 30.2656L174.273 28.9531C174.742 28.7083 175.255 28.5234 175.812 28.3984C176.37 28.2682 176.896 28.2031 177.391 28.2031C178.49 28.2031 179.318 28.4427 179.875 28.9219C180.438 29.401 180.719 30.1536 180.719 31.1797V37H179.406ZM176.672 35.75C177.339 35.75 177.872 35.5651 178.273 35.1953C178.68 34.8203 178.883 34.2969 178.883 33.625V32.875L177.773 32.9219C176.909 32.9531 176.279 33.099 175.883 33.3594C175.492 33.6146 175.297 34.0078 175.297 34.5391C175.297 34.9245 175.411 35.224 175.641 35.4375C175.87 35.6458 176.214 35.75 176.672 35.75ZM181.969 28.3594H183.969L185.727 33.2578C185.992 33.9557 186.169 34.612 186.258 35.2266H186.32C186.367 34.9401 186.453 34.5938 186.578 34.1875C186.703 33.776 187.365 31.8333 188.562 28.3594H190.547L186.852 38.1484C186.18 39.9453 185.06 40.8438 183.492 40.8438C183.086 40.8438 182.69 40.7995 182.305 40.7109V39.2578C182.581 39.3203 182.896 39.3516 183.25 39.3516C184.135 39.3516 184.758 38.8385 185.117 37.8125L185.438 37L181.969 28.3594ZM201.422 37L201.055 35.7969H200.992C200.576 36.3229 200.156 36.6823 199.734 36.875C199.312 37.0625 198.771 37.1562 198.109 37.1562C197.26 37.1562 196.596 36.9271 196.117 36.4688C195.643 36.0104 195.406 35.362 195.406 34.5234C195.406 33.6328 195.737 32.9609 196.398 32.5078C197.06 32.0547 198.068 31.8073 199.422 31.7656L200.914 31.7188V31.2578C200.914 30.7057 200.784 30.2943 200.523 30.0234C200.268 29.7474 199.87 29.6094 199.328 29.6094C198.885 29.6094 198.461 29.6745 198.055 29.8047C197.648 29.9349 197.258 30.0885 196.883 30.2656L196.289 28.9531C196.758 28.7083 197.271 28.5234 197.828 28.3984C198.385 28.2682 198.911 28.2031 199.406 28.2031C200.505 28.2031 201.333 28.4427 201.891 28.9219C202.453 29.401 202.734 30.1536 202.734 31.1797V37H201.422ZM198.688 35.75C199.354 35.75 199.888 35.5651 200.289 35.1953C200.695 34.8203 200.898 34.2969 200.898 33.625V32.875L199.789 32.9219C198.924 32.9531 198.294 33.099 197.898 33.3594C197.508 33.6146 197.312 34.0078 197.312 34.5391C197.312 34.9245 197.427 35.224 197.656 35.4375C197.885 35.6458 198.229 35.75 198.688 35.75ZM215.258 34.5391C215.258 35.3828 214.951 36.0312 214.336 36.4844C213.721 36.9323 212.841 37.1562 211.695 37.1562C210.544 37.1562 209.62 36.9818 208.922 36.6328V35.0469C209.938 35.5156 210.883 35.75 211.758 35.75C212.888 35.75 213.453 35.4089 213.453 34.7266C213.453 34.5078 213.391 34.3255 213.266 34.1797C213.141 34.0339 212.935 33.8828 212.648 33.7266C212.362 33.5703 211.964 33.3932 211.453 33.1953C210.458 32.8099 209.784 32.4245 209.43 32.0391C209.081 31.6536 208.906 31.1536 208.906 30.5391C208.906 29.7995 209.203 29.2266 209.797 28.8203C210.396 28.4089 211.208 28.2031 212.234 28.2031C213.25 28.2031 214.211 28.4089 215.117 28.8203L214.523 30.2031C213.591 29.8177 212.807 29.625 212.172 29.625C211.203 29.625 210.719 29.901 210.719 30.4531C210.719 30.724 210.844 30.9531 211.094 31.1406C211.349 31.3281 211.901 31.5859 212.75 31.9141C213.464 32.1901 213.982 32.4427 214.305 32.6719C214.628 32.901 214.867 33.1667 215.023 33.4688C215.18 33.7656 215.258 34.1224 215.258 34.5391ZM221.023 37.1562C219.68 37.1562 218.628 36.7656 217.867 35.9844C217.112 35.1979 216.734 34.1172 216.734 32.7422C216.734 31.3307 217.086 30.2214 217.789 29.4141C218.492 28.6068 219.458 28.2031 220.688 28.2031C221.828 28.2031 222.729 28.5495 223.391 29.2422C224.052 29.9349 224.383 30.888 224.383 32.1016V33.0938H218.625C218.651 33.9323 218.878 34.5781 219.305 35.0312C219.732 35.4792 220.333 35.7031 221.109 35.7031C221.62 35.7031 222.094 35.6562 222.531 35.5625C222.974 35.4635 223.448 35.3021 223.953 35.0781V36.5703C223.505 36.7839 223.052 36.9349 222.594 37.0234C222.135 37.112 221.612 37.1562 221.023 37.1562ZM220.688 29.5938C220.104 29.5938 219.635 29.7786 219.281 30.1484C218.932 30.5182 218.724 31.0573 218.656 31.7656H222.578C222.568 31.0521 222.396 30.513 222.062 30.1484C221.729 29.7786 221.271 29.5938 220.688 29.5938ZM229.953 37.1562C228.646 37.1562 227.651 36.776 226.969 36.0156C226.292 35.25 225.953 34.1536 225.953 32.7266C225.953 31.2734 226.307 30.1562 227.016 29.375C227.729 28.5938 228.758 28.2031 230.102 28.2031C231.013 28.2031 231.833 28.3724 232.562 28.7109L232.008 30.1875C231.232 29.8854 230.591 29.7344 230.086 29.7344C228.591 29.7344 227.844 30.7266 227.844 32.7109C227.844 33.6797 228.029 34.4089 228.398 34.8984C228.773 35.3828 229.32 35.625 230.039 35.625C230.857 35.625 231.63 35.4219 232.359 35.0156V36.6172C232.031 36.8099 231.68 36.9479 231.305 37.0312C230.935 37.1146 230.484 37.1562 229.953 37.1562ZM240.484 37L240.227 35.8672H240.133C239.878 36.2682 239.513 36.5833 239.039 36.8125C238.57 37.0417 238.034 37.1562 237.43 37.1562C236.383 37.1562 235.602 36.8958 235.086 36.375C234.57 35.8542 234.312 35.0651 234.312 34.0078V28.3594H236.164V33.6875C236.164 34.349 236.299 34.8464 236.57 35.1797C236.841 35.5078 237.266 35.6719 237.844 35.6719C238.615 35.6719 239.18 35.4427 239.539 34.9844C239.904 34.5208 240.086 33.7474 240.086 32.6641V28.3594H241.93V37H240.484ZM248.93 28.2031C249.299 28.2031 249.604 28.2292 249.844 28.2812L249.664 29.9922C249.404 29.9297 249.133 29.8984 248.852 29.8984C248.117 29.8984 247.521 30.138 247.062 30.6172C246.609 31.0964 246.383 31.7188 246.383 32.4844V37H244.547V28.3594H245.984L246.227 29.8828H246.32C246.607 29.3672 246.979 28.9583 247.438 28.6562C247.901 28.3542 248.398 28.2031 248.93 28.2031ZM253.289 37H251.453V28.3594H253.289V37ZM251.344 26.0703C251.344 25.7422 251.432 25.4896 251.609 25.3125C251.792 25.1354 252.049 25.0469 252.383 25.0469C252.706 25.0469 252.956 25.1354 253.133 25.3125C253.315 25.4896 253.406 25.7422 253.406 26.0703C253.406 26.3828 253.315 26.6302 253.133 26.8125C252.956 26.9896 252.706 27.0781 252.383 27.0781C252.049 27.0781 251.792 26.9896 251.609 26.8125C251.432 26.6302 251.344 26.3828 251.344 26.0703ZM259.141 35.6719C259.589 35.6719 260.036 35.6016 260.484 35.4609V36.8438C260.281 36.9323 260.018 37.0052 259.695 37.0625C259.378 37.125 259.047 37.1562 258.703 37.1562C256.964 37.1562 256.094 36.2396 256.094 34.4062V29.75H254.914V28.9375L256.18 28.2656L256.805 26.4375H257.938V28.3594H260.398V29.75H257.938V34.375C257.938 34.8177 258.047 35.1458 258.266 35.3594C258.49 35.5677 258.781 35.6719 259.141 35.6719ZM260.906 28.3594H262.906L264.664 33.2578C264.93 33.9557 265.107 34.612 265.195 35.2266H265.258C265.305 34.9401 265.391 34.5938 265.516 34.1875C265.641 33.776 266.302 31.8333 267.5 28.3594H269.484L265.789 38.1484C265.117 39.9453 263.997 40.8438 262.43 40.8438C262.023 40.8438 261.628 40.7995 261.242 40.7109V39.2578C261.518 39.3203 261.833 39.3516 262.188 39.3516C263.073 39.3516 263.695 38.8385 264.055 37.8125L264.375 37L260.906 28.3594ZM277.867 37.1562C276.789 37.1562 275.948 36.7656 275.344 35.9844C274.74 35.2031 274.438 34.1068 274.438 32.6953C274.438 31.2786 274.742 30.1771 275.352 29.3906C275.966 28.599 276.815 28.2031 277.898 28.2031C279.034 28.2031 279.898 28.6224 280.492 29.4609H280.586C280.497 28.8411 280.453 28.3516 280.453 27.9922V24.8438H282.297V37H280.859L280.539 35.8672H280.453C279.865 36.7266 279.003 37.1562 277.867 37.1562ZM278.359 35.6719C279.115 35.6719 279.664 35.4609 280.008 35.0391C280.352 34.612 280.529 33.9219 280.539 32.9688V32.7109C280.539 31.6224 280.362 30.849 280.008 30.3906C279.654 29.9323 279.099 29.7031 278.344 29.7031C277.698 29.7031 277.201 29.9661 276.852 30.4922C276.503 31.013 276.328 31.7578 276.328 32.7266C276.328 33.6849 276.497 34.4167 276.836 34.9219C277.174 35.4219 277.682 35.6719 278.359 35.6719ZM288.695 37.1562C287.352 37.1562 286.299 36.7656 285.539 35.9844C284.784 35.1979 284.406 34.1172 284.406 32.7422C284.406 31.3307 284.758 30.2214 285.461 29.4141C286.164 28.6068 287.13 28.2031 288.359 28.2031C289.5 28.2031 290.401 28.5495 291.062 29.2422C291.724 29.9349 292.055 30.888 292.055 32.1016V33.0938H286.297C286.323 33.9323 286.549 34.5781 286.977 35.0312C287.404 35.4792 288.005 35.7031 288.781 35.7031C289.292 35.7031 289.766 35.6562 290.203 35.5625C290.646 35.4635 291.12 35.3021 291.625 35.0781V36.5703C291.177 36.7839 290.724 36.9349 290.266 37.0234C289.807 37.112 289.284 37.1562 288.695 37.1562ZM288.359 29.5938C287.776 29.5938 287.307 29.7786 286.953 30.1484C286.604 30.5182 286.396 31.0573 286.328 31.7656H290.25C290.24 31.0521 290.068 30.513 289.734 30.1484C289.401 29.7786 288.943 29.5938 288.359 29.5938ZM298.523 37.1562C297.43 37.1562 296.581 36.763 295.977 35.9766H295.867C295.94 36.7057 295.977 37.1484 295.977 37.3047V40.8438H294.141V28.3594H295.625C295.667 28.5208 295.753 28.9062 295.883 29.5156H295.977C296.549 28.6406 297.409 28.2031 298.555 28.2031C299.633 28.2031 300.471 28.5938 301.07 29.375C301.674 30.1562 301.977 31.2526 301.977 32.6641C301.977 34.0755 301.669 35.1771 301.055 35.9688C300.445 36.7604 299.602 37.1562 298.523 37.1562ZM298.078 29.7031C297.349 29.7031 296.815 29.9167 296.477 30.3438C296.143 30.7708 295.977 31.4531 295.977 32.3906V32.6641C295.977 33.7161 296.143 34.4792 296.477 34.9531C296.81 35.4219 297.354 35.6562 298.109 35.6562C298.745 35.6562 299.234 35.3958 299.578 34.875C299.922 34.3542 300.094 33.612 300.094 32.6484C300.094 31.6797 299.922 30.9479 299.578 30.4531C299.24 29.9531 298.74 29.7031 298.078 29.7031ZM311.773 32.6641C311.773 34.0755 311.411 35.1771 310.688 35.9688C309.964 36.7604 308.956 37.1562 307.664 37.1562C306.857 37.1562 306.143 36.974 305.523 36.6094C304.904 36.2448 304.427 35.7214 304.094 35.0391C303.76 34.3568 303.594 33.5651 303.594 32.6641C303.594 31.263 303.953 30.1693 304.672 29.3828C305.391 28.5964 306.404 28.2031 307.711 28.2031C308.961 28.2031 309.951 28.6068 310.68 29.4141C311.409 30.2161 311.773 31.2995 311.773 32.6641ZM305.484 32.6641C305.484 34.6589 306.221 35.6562 307.695 35.6562C309.154 35.6562 309.883 34.6589 309.883 32.6641C309.883 30.6901 309.148 29.7031 307.68 29.7031C306.909 29.7031 306.349 29.9583 306 30.4688C305.656 30.9792 305.484 31.7109 305.484 32.6641ZM319.695 34.5391C319.695 35.3828 319.388 36.0312 318.773 36.4844C318.159 36.9323 317.279 37.1562 316.133 37.1562C314.982 37.1562 314.057 36.9818 313.359 36.6328V35.0469C314.375 35.5156 315.32 35.75 316.195 35.75C317.326 35.75 317.891 35.4089 317.891 34.7266C317.891 34.5078 317.828 34.3255 317.703 34.1797C317.578 34.0339 317.372 33.8828 317.086 33.7266C316.799 33.5703 316.401 33.3932 315.891 33.1953C314.896 32.8099 314.221 32.4245 313.867 32.0391C313.518 31.6536 313.344 31.1536 313.344 30.5391C313.344 29.7995 313.641 29.2266 314.234 28.8203C314.833 28.4089 315.646 28.2031 316.672 28.2031C317.688 28.2031 318.648 28.4089 319.555 28.8203L318.961 30.2031C318.029 29.8177 317.245 29.625 316.609 29.625C315.641 29.625 315.156 29.901 315.156 30.4531C315.156 30.724 315.281 30.9531 315.531 31.1406C315.786 31.3281 316.339 31.5859 317.188 31.9141C317.901 32.1901 318.419 32.4427 318.742 32.6719C319.065 32.901 319.305 33.1667 319.461 33.4688C319.617 33.7656 319.695 34.1224 319.695 34.5391ZM323.523 37H321.688V28.3594H323.523V37ZM321.578 26.0703C321.578 25.7422 321.667 25.4896 321.844 25.3125C322.026 25.1354 322.284 25.0469 322.617 25.0469C322.94 25.0469 323.19 25.1354 323.367 25.3125C323.549 25.4896 323.641 25.7422 323.641 26.0703C323.641 26.3828 323.549 26.6302 323.367 26.8125C323.19 26.9896 322.94 27.0781 322.617 27.0781C322.284 27.0781 322.026 26.9896 321.844 26.8125C321.667 26.6302 321.578 26.3828 321.578 26.0703ZM329.375 35.6719C329.823 35.6719 330.271 35.6016 330.719 35.4609V36.8438C330.516 36.9323 330.253 37.0052 329.93 37.0625C329.612 37.125 329.281 37.1562 328.938 37.1562C327.198 37.1562 326.328 36.2396 326.328 34.4062V29.75H325.148V28.9375L326.414 28.2656L327.039 26.4375H328.172V28.3594H330.633V29.75H328.172V34.375C328.172 34.8177 328.281 35.1458 328.5 35.3594C328.724 35.5677 329.016 35.6719 329.375 35.6719ZM339.828 35.6719C340.276 35.6719 340.724 35.6016 341.172 35.4609V36.8438C340.969 36.9323 340.706 37.0052 340.383 37.0625C340.065 37.125 339.734 37.1562 339.391 37.1562C337.651 37.1562 336.781 36.2396 336.781 34.4062V29.75H335.602V28.9375L336.867 28.2656L337.492 26.4375H338.625V28.3594H341.086V29.75H338.625V34.375C338.625 34.8177 338.734 35.1458 338.953 35.3594C339.177 35.5677 339.469 35.6719 339.828 35.6719ZM350.57 32.6641C350.57 34.0755 350.208 35.1771 349.484 35.9688C348.76 36.7604 347.753 37.1562 346.461 37.1562C345.654 37.1562 344.94 36.974 344.32 36.6094C343.701 36.2448 343.224 35.7214 342.891 35.0391C342.557 34.3568 342.391 33.5651 342.391 32.6641C342.391 31.263 342.75 30.1693 343.469 29.3828C344.188 28.5964 345.201 28.2031 346.508 28.2031C347.758 28.2031 348.747 28.6068 349.477 29.4141C350.206 30.2161 350.57 31.2995 350.57 32.6641ZM344.281 32.6641C344.281 34.6589 345.018 35.6562 346.492 35.6562C347.951 35.6562 348.68 34.6589 348.68 32.6641C348.68 30.6901 347.945 29.7031 346.477 29.7031C345.706 29.7031 345.146 29.9583 344.797 30.4688C344.453 30.9792 344.281 31.7109 344.281 32.6641ZM362.25 37L361.883 35.7969H361.82C361.404 36.3229 360.984 36.6823 360.562 36.875C360.141 37.0625 359.599 37.1562 358.938 37.1562C358.089 37.1562 357.424 36.9271 356.945 36.4688C356.471 36.0104 356.234 35.362 356.234 34.5234C356.234 33.6328 356.565 32.9609 357.227 32.5078C357.888 32.0547 358.896 31.8073 360.25 31.7656L361.742 31.7188V31.2578C361.742 30.7057 361.612 30.2943 361.352 30.0234C361.096 29.7474 360.698 29.6094 360.156 29.6094C359.714 29.6094 359.289 29.6745 358.883 29.8047C358.477 29.9349 358.086 30.0885 357.711 30.2656L357.117 28.9531C357.586 28.7083 358.099 28.5234 358.656 28.3984C359.214 28.2682 359.74 28.2031 360.234 28.2031C361.333 28.2031 362.161 28.4427 362.719 28.9219C363.281 29.401 363.562 30.1536 363.562 31.1797V37H362.25ZM359.516 35.75C360.182 35.75 360.716 35.5651 361.117 35.1953C361.523 34.8203 361.727 34.2969 361.727 33.625V32.875L360.617 32.9219C359.753 32.9531 359.122 33.099 358.727 33.3594C358.336 33.6146 358.141 34.0078 358.141 34.5391C358.141 34.9245 358.255 35.224 358.484 35.4375C358.714 35.6458 359.057 35.75 359.516 35.75ZM369.609 37.1562C368.302 37.1562 367.307 36.776 366.625 36.0156C365.948 35.25 365.609 34.1536 365.609 32.7266C365.609 31.2734 365.964 30.1562 366.672 29.375C367.385 28.5938 368.414 28.2031 369.758 28.2031C370.669 28.2031 371.49 28.3724 372.219 28.7109L371.664 30.1875C370.888 29.8854 370.247 29.7344 369.742 29.7344C368.247 29.7344 367.5 30.7266 367.5 32.7109C367.5 33.6797 367.685 34.4089 368.055 34.8984C368.43 35.3828 368.977 35.625 369.695 35.625C370.513 35.625 371.286 35.4219 372.016 35.0156V36.6172C371.688 36.8099 371.336 36.9479 370.961 37.0312C370.591 37.1146 370.141 37.1562 369.609 37.1562ZM377.531 37.1562C376.224 37.1562 375.229 36.776 374.547 36.0156C373.87 35.25 373.531 34.1536 373.531 32.7266C373.531 31.2734 373.885 30.1562 374.594 29.375C375.307 28.5938 376.336 28.2031 377.68 28.2031C378.591 28.2031 379.411 28.3724 380.141 28.7109L379.586 30.1875C378.81 29.8854 378.169 29.7344 377.664 29.7344C376.169 29.7344 375.422 30.7266 375.422 32.7109C375.422 33.6797 375.607 34.4089 375.977 34.8984C376.352 35.3828 376.898 35.625 377.617 35.625C378.435 35.625 379.208 35.4219 379.938 35.0156V36.6172C379.609 36.8099 379.258 36.9479 378.883 37.0312C378.513 37.1146 378.062 37.1562 377.531 37.1562ZM385.742 37.1562C384.398 37.1562 383.346 36.7656 382.586 35.9844C381.831 35.1979 381.453 34.1172 381.453 32.7422C381.453 31.3307 381.805 30.2214 382.508 29.4141C383.211 28.6068 384.177 28.2031 385.406 28.2031C386.547 28.2031 387.448 28.5495 388.109 29.2422C388.771 29.9349 389.102 30.888 389.102 32.1016V33.0938H383.344C383.37 33.9323 383.596 34.5781 384.023 35.0312C384.451 35.4792 385.052 35.7031 385.828 35.7031C386.339 35.7031 386.812 35.6562 387.25 35.5625C387.693 35.4635 388.167 35.3021 388.672 35.0781V36.5703C388.224 36.7839 387.771 36.9349 387.312 37.0234C386.854 37.112 386.331 37.1562 385.742 37.1562ZM385.406 29.5938C384.823 29.5938 384.354 29.7786 384 30.1484C383.651 30.5182 383.443 31.0573 383.375 31.7656H387.297C387.286 31.0521 387.115 30.513 386.781 30.1484C386.448 29.7786 385.99 29.5938 385.406 29.5938ZM395.57 37.1562C394.477 37.1562 393.628 36.763 393.023 35.9766H392.914C392.987 36.7057 393.023 37.1484 393.023 37.3047V40.8438H391.188V28.3594H392.672C392.714 28.5208 392.799 28.9062 392.93 29.5156H393.023C393.596 28.6406 394.456 28.2031 395.602 28.2031C396.68 28.2031 397.518 28.5938 398.117 29.375C398.721 30.1562 399.023 31.2526 399.023 32.6641C399.023 34.0755 398.716 35.1771 398.102 35.9688C397.492 36.7604 396.648 37.1562 395.57 37.1562ZM395.125 29.7031C394.396 29.7031 393.862 29.9167 393.523 30.3438C393.19 30.7708 393.023 31.4531 393.023 32.3906V32.6641C393.023 33.7161 393.19 34.4792 393.523 34.9531C393.857 35.4219 394.401 35.6562 395.156 35.6562C395.792 35.6562 396.281 35.3958 396.625 34.875C396.969 34.3542 397.141 33.612 397.141 32.6484C397.141 31.6797 396.969 30.9479 396.625 30.4531C396.286 29.9531 395.786 29.7031 395.125 29.7031ZM404.375 35.6719C404.823 35.6719 405.271 35.6016 405.719 35.4609V36.8438C405.516 36.9323 405.253 37.0052 404.93 37.0625C404.612 37.125 404.281 37.1562 403.938 37.1562C402.198 37.1562 401.328 36.2396 401.328 34.4062V29.75H400.148V28.9375L401.414 28.2656L402.039 26.4375H403.172V28.3594H405.633V29.75H403.172V34.375C403.172 34.8177 403.281 35.1458 403.5 35.3594C403.724 35.5677 404.016 35.6719 404.375 35.6719ZM414.828 35.6719C415.276 35.6719 415.724 35.6016 416.172 35.4609V36.8438C415.969 36.9323 415.706 37.0052 415.383 37.0625C415.065 37.125 414.734 37.1562 414.391 37.1562C412.651 37.1562 411.781 36.2396 411.781 34.4062V29.75H410.602V28.9375L411.867 28.2656L412.492 26.4375H413.625V28.3594H416.086V29.75H413.625V34.375C413.625 34.8177 413.734 35.1458 413.953 35.3594C414.177 35.5677 414.469 35.6719 414.828 35.6719ZM425.508 37H423.664V31.6875C423.664 31.0208 423.529 30.5234 423.258 30.1953C422.992 29.8672 422.568 29.7031 421.984 29.7031C421.214 29.7031 420.646 29.9349 420.281 30.3984C419.922 30.8568 419.742 31.6276 419.742 32.7109V37H417.906V24.8438H419.742V27.9297C419.742 28.4245 419.711 28.9531 419.648 29.5156H419.766C420.016 29.099 420.362 28.776 420.805 28.5469C421.253 28.3177 421.773 28.2031 422.367 28.2031C424.461 28.2031 425.508 29.2578 425.508 31.3672V37ZM431.836 37.1562C430.492 37.1562 429.44 36.7656 428.68 35.9844C427.924 35.1979 427.547 34.1172 427.547 32.7422C427.547 31.3307 427.898 30.2214 428.602 29.4141C429.305 28.6068 430.271 28.2031 431.5 28.2031C432.641 28.2031 433.542 28.5495 434.203 29.2422C434.865 29.9349 435.195 30.888 435.195 32.1016V33.0938H429.438C429.464 33.9323 429.69 34.5781 430.117 35.0312C430.544 35.4792 431.146 35.7031 431.922 35.7031C432.432 35.7031 432.906 35.6562 433.344 35.5625C433.786 35.4635 434.26 35.3021 434.766 35.0781V36.5703C434.318 36.7839 433.865 36.9349 433.406 37.0234C432.948 37.112 432.424 37.1562 431.836 37.1562ZM431.5 29.5938C430.917 29.5938 430.448 29.7786 430.094 30.1484C429.745 30.5182 429.536 31.0573 429.469 31.7656H433.391C433.38 31.0521 433.208 30.513 432.875 30.1484C432.542 29.7786 432.083 29.5938 431.5 29.5938ZM445.82 28.2031C446.19 28.2031 446.495 28.2292 446.734 28.2812L446.555 29.9922C446.294 29.9297 446.023 29.8984 445.742 29.8984C445.008 29.8984 444.411 30.138 443.953 30.6172C443.5 31.0964 443.273 31.7188 443.273 32.4844V37H441.438V28.3594H442.875L443.117 29.8828H443.211C443.497 29.3672 443.87 28.9583 444.328 28.6562C444.792 28.3542 445.289 28.2031 445.82 28.2031ZM452.117 37.1562C450.773 37.1562 449.721 36.7656 448.961 35.9844C448.206 35.1979 447.828 34.1172 447.828 32.7422C447.828 31.3307 448.18 30.2214 448.883 29.4141C449.586 28.6068 450.552 28.2031 451.781 28.2031C452.922 28.2031 453.823 28.5495 454.484 29.2422C455.146 29.9349 455.477 30.888 455.477 32.1016V33.0938H449.719C449.745 33.9323 449.971 34.5781 450.398 35.0312C450.826 35.4792 451.427 35.7031 452.203 35.7031C452.714 35.7031 453.188 35.6562 453.625 35.5625C454.068 35.4635 454.542 35.3021 455.047 35.0781V36.5703C454.599 36.7839 454.146 36.9349 453.688 37.0234C453.229 37.112 452.706 37.1562 452.117 37.1562ZM451.781 29.5938C451.198 29.5938 450.729 29.7786 450.375 30.1484C450.026 30.5182 449.818 31.0573 449.75 31.7656H453.672C453.661 31.0521 453.49 30.513 453.156 30.1484C452.823 29.7786 452.365 29.5938 451.781 29.5938ZM465.164 37H463.32V31.6875C463.32 31.0208 463.185 30.5234 462.914 30.1953C462.648 29.8672 462.224 29.7031 461.641 29.7031C460.865 29.7031 460.297 29.9323 459.938 30.3906C459.578 30.849 459.398 31.6172 459.398 32.6953V37H457.562V28.3594H459L459.258 29.4922H459.352C459.612 29.0807 459.982 28.763 460.461 28.5391C460.94 28.3151 461.471 28.2031 462.055 28.2031C464.128 28.2031 465.164 29.2578 465.164 31.3672V37ZM470.938 35.6719C471.385 35.6719 471.833 35.6016 472.281 35.4609V36.8438C472.078 36.9323 471.815 37.0052 471.492 37.0625C471.174 37.125 470.844 37.1562 470.5 37.1562C468.76 37.1562 467.891 36.2396 467.891 34.4062V29.75H466.711V28.9375L467.977 28.2656L468.602 26.4375H469.734V28.3594H472.195V29.75H469.734V34.375C469.734 34.8177 469.844 35.1458 470.062 35.3594C470.286 35.5677 470.578 35.6719 470.938 35.6719ZM479.422 37L479.055 35.7969H478.992C478.576 36.3229 478.156 36.6823 477.734 36.875C477.312 37.0625 476.771 37.1562 476.109 37.1562C475.26 37.1562 474.596 36.9271 474.117 36.4688C473.643 36.0104 473.406 35.362 473.406 34.5234C473.406 33.6328 473.737 32.9609 474.398 32.5078C475.06 32.0547 476.068 31.8073 477.422 31.7656L478.914 31.7188V31.2578C478.914 30.7057 478.784 30.2943 478.523 30.0234C478.268 29.7474 477.87 29.6094 477.328 29.6094C476.885 29.6094 476.461 29.6745 476.055 29.8047C475.648 29.9349 475.258 30.0885 474.883 30.2656L474.289 28.9531C474.758 28.7083 475.271 28.5234 475.828 28.3984C476.385 28.2682 476.911 28.2031 477.406 28.2031C478.505 28.2031 479.333 28.4427 479.891 28.9219C480.453 29.401 480.734 30.1536 480.734 31.1797V37H479.422ZM476.688 35.75C477.354 35.75 477.888 35.5651 478.289 35.1953C478.695 34.8203 478.898 34.2969 478.898 33.625V32.875L477.789 32.9219C476.924 32.9531 476.294 33.099 475.898 33.3594C475.508 33.6146 475.312 34.0078 475.312 34.5391C475.312 34.9245 475.427 35.224 475.656 35.4375C475.885 35.6458 476.229 35.75 476.688 35.75ZM485.133 37H483.297V24.8438H485.133V37ZM497.727 34.5391C497.727 35.3828 497.419 36.0312 496.805 36.4844C496.19 36.9323 495.31 37.1562 494.164 37.1562C493.013 37.1562 492.089 36.9818 491.391 36.6328V35.0469C492.406 35.5156 493.352 35.75 494.227 35.75C495.357 35.75 495.922 35.4089 495.922 34.7266C495.922 34.5078 495.859 34.3255 495.734 34.1797C495.609 34.0339 495.404 33.8828 495.117 33.7266C494.831 33.5703 494.432 33.3932 493.922 33.1953C492.927 32.8099 492.253 32.4245 491.898 32.0391C491.549 31.6536 491.375 31.1536 491.375 30.5391C491.375 29.7995 491.672 29.2266 492.266 28.8203C492.865 28.4089 493.677 28.2031 494.703 28.2031C495.719 28.2031 496.68 28.4089 497.586 28.8203L496.992 30.2031C496.06 29.8177 495.276 29.625 494.641 29.625C493.672 29.625 493.188 29.901 493.188 30.4531C493.188 30.724 493.312 30.9531 493.562 31.1406C493.818 31.3281 494.37 31.5859 495.219 31.9141C495.932 32.1901 496.451 32.4427 496.773 32.6719C497.096 32.901 497.336 33.1667 497.492 33.4688C497.648 33.7656 497.727 34.1224 497.727 34.5391ZM504.102 37.1562C503.008 37.1562 502.159 36.763 501.555 35.9766H501.445C501.518 36.7057 501.555 37.1484 501.555 37.3047V40.8438H499.719V28.3594H501.203C501.245 28.5208 501.331 28.9062 501.461 29.5156H501.555C502.128 28.6406 502.987 28.2031 504.133 28.2031C505.211 28.2031 506.049 28.5938 506.648 29.375C507.253 30.1562 507.555 31.2526 507.555 32.6641C507.555 34.0755 507.247 35.1771 506.633 35.9688C506.023 36.7604 505.18 37.1562 504.102 37.1562ZM503.656 29.7031C502.927 29.7031 502.393 29.9167 502.055 30.3438C501.721 30.7708 501.555 31.4531 501.555 32.3906V32.6641C501.555 33.7161 501.721 34.4792 502.055 34.9531C502.388 35.4219 502.932 35.6562 503.688 35.6562C504.323 35.6562 504.812 35.3958 505.156 34.875C505.5 34.3542 505.672 33.612 505.672 32.6484C505.672 31.6797 505.5 30.9479 505.156 30.4531C504.818 29.9531 504.318 29.7031 503.656 29.7031ZM515.094 37L514.727 35.7969H514.664C514.247 36.3229 513.828 36.6823 513.406 36.875C512.984 37.0625 512.443 37.1562 511.781 37.1562C510.932 37.1562 510.268 36.9271 509.789 36.4688C509.315 36.0104 509.078 35.362 509.078 34.5234C509.078 33.6328 509.409 32.9609 510.07 32.5078C510.732 32.0547 511.74 31.8073 513.094 31.7656L514.586 31.7188V31.2578C514.586 30.7057 514.456 30.2943 514.195 30.0234C513.94 29.7474 513.542 29.6094 513 29.6094C512.557 29.6094 512.133 29.6745 511.727 29.8047C511.32 29.9349 510.93 30.0885 510.555 30.2656L509.961 28.9531C510.43 28.7083 510.943 28.5234 511.5 28.3984C512.057 28.2682 512.583 28.2031 513.078 28.2031C514.177 28.2031 515.005 28.4427 515.562 28.9219C516.125 29.401 516.406 30.1536 516.406 31.1797V37H515.094ZM512.359 35.75C513.026 35.75 513.56 35.5651 513.961 35.1953C514.367 34.8203 514.57 34.2969 514.57 33.625V32.875L513.461 32.9219C512.596 32.9531 511.966 33.099 511.57 33.3594C511.18 33.6146 510.984 34.0078 510.984 34.5391C510.984 34.9245 511.099 35.224 511.328 35.4375C511.557 35.6458 511.901 35.75 512.359 35.75ZM522.453 37.1562C521.146 37.1562 520.151 36.776 519.469 36.0156C518.792 35.25 518.453 34.1536 518.453 32.7266C518.453 31.2734 518.807 30.1562 519.516 29.375C520.229 28.5938 521.258 28.2031 522.602 28.2031C523.513 28.2031 524.333 28.3724 525.062 28.7109L524.508 30.1875C523.732 29.8854 523.091 29.7344 522.586 29.7344C521.091 29.7344 520.344 30.7266 520.344 32.7109C520.344 33.6797 520.529 34.4089 520.898 34.8984C521.273 35.3828 521.82 35.625 522.539 35.625C523.357 35.625 524.13 35.4219 524.859 35.0156V36.6172C524.531 36.8099 524.18 36.9479 523.805 37.0312C523.435 37.1146 522.984 37.1562 522.453 37.1562ZM530.664 37.1562C529.32 37.1562 528.268 36.7656 527.508 35.9844C526.753 35.1979 526.375 34.1172 526.375 32.7422C526.375 31.3307 526.727 30.2214 527.43 29.4141C528.133 28.6068 529.099 28.2031 530.328 28.2031C531.469 28.2031 532.37 28.5495 533.031 29.2422C533.693 29.9349 534.023 30.888 534.023 32.1016V33.0938H528.266C528.292 33.9323 528.518 34.5781 528.945 35.0312C529.372 35.4792 529.974 35.7031 530.75 35.7031C531.26 35.7031 531.734 35.6562 532.172 35.5625C532.615 35.4635 533.089 35.3021 533.594 35.0781V36.5703C533.146 36.7839 532.693 36.9349 532.234 37.0234C531.776 37.112 531.253 37.1562 530.664 37.1562ZM530.328 29.5938C529.745 29.5938 529.276 29.7786 528.922 30.1484C528.573 30.5182 528.365 31.0573 528.297 31.7656H532.219C532.208 31.0521 532.036 30.513 531.703 30.1484C531.37 29.7786 530.911 29.5938 530.328 29.5938Z" fill="#1F1F1F"/>
<path d="M565 4H703C705.761 4 708 6.23858 708 9V53C708 55.7614 705.761 58 703 58H565V4Z" fill="#B3404A"/>
<path d="M625.945 30.9531H626.742C627.487 30.9531 628.044 30.8073 628.414 30.5156C628.784 30.2188 628.969 29.7891 628.969 29.2266C628.969 28.6589 628.812 28.2396 628.5 27.9688C628.193 27.6979 627.708 27.5625 627.047 27.5625H625.945V30.9531ZM631.414 29.1406C631.414 30.3698 631.029 31.3099 630.258 31.9609C629.492 32.612 628.401 32.9375 626.984 32.9375H625.945V37H623.523V25.5781H627.172C628.557 25.5781 629.609 25.8776 630.328 26.4766C631.052 27.0703 631.414 27.9583 631.414 29.1406ZM638.93 37L638.469 35.8125H638.406C638.005 36.3177 637.591 36.6693 637.164 36.8672C636.742 37.0599 636.19 37.1562 635.508 37.1562C634.669 37.1562 634.008 36.9167 633.523 36.4375C633.044 35.9583 632.805 35.276 632.805 34.3906C632.805 33.4635 633.128 32.7812 633.773 32.3438C634.424 31.901 635.404 31.6562 636.711 31.6094L638.227 31.5625V31.1797C638.227 30.2943 637.773 29.8516 636.867 29.8516C636.169 29.8516 635.349 30.0625 634.406 30.4844L633.617 28.875C634.622 28.349 635.737 28.0859 636.961 28.0859C638.133 28.0859 639.031 28.3411 639.656 28.8516C640.281 29.362 640.594 30.138 640.594 31.1797V37H638.93ZM638.227 32.9531L637.305 32.9844C636.612 33.0052 636.096 33.1302 635.758 33.3594C635.419 33.5885 635.25 33.9375 635.25 34.4062C635.25 35.0781 635.635 35.4141 636.406 35.4141C636.958 35.4141 637.398 35.2552 637.727 34.9375C638.06 34.6198 638.227 34.1979 638.227 33.6719V32.9531ZM641.805 28.2656H644.414L646.062 33.1797C646.203 33.6068 646.299 34.112 646.352 34.6953H646.398C646.456 34.1589 646.568 33.6536 646.734 33.1797L648.352 28.2656H650.906L647.211 38.1172C646.872 39.0286 646.388 39.7109 645.758 40.1641C645.133 40.6172 644.401 40.8438 643.562 40.8438C643.151 40.8438 642.747 40.7995 642.352 40.7109V38.8203C642.638 38.888 642.951 38.9219 643.289 38.9219C643.711 38.9219 644.078 38.7917 644.391 38.5312C644.708 38.276 644.956 37.888 645.133 37.3672L645.273 36.9375L641.805 28.2656Z" fill="white"/>
<defs>
<filter id="filter0_d" x="0" y="0" width="712" height="62" filterUnits="userSpaceOnUse" color-interpolation-filters="sRGB">
<feFlood flood-opacity="0" result="BackgroundImageFix"/>
<feColorMatrix in="SourceAlpha" type="matrix" values="0 0 0 0 0 0 0 0 0 0 0 0 0 0 0 0 0 0 127 0"/>
<feOffset/>
<feGaussianBlur stdDeviation="2"/>
<feColorMatrix type="matrix" values="0 0 0 0 0 0 0 0 0 0 0 0 0 0 0 0 0 0 0.25 0"/>
<feBlend mode="normal" in2="BackgroundImageFix" result="effect1_dropShadow"/>
<feBlend mode="normal" in="SourceGraphic" in2="effect1_dropShadow" result="shape"/>
</filter>
</defs>
</svg>
