<svg width="495" height="297" viewBox="0 0 495 297" fill="none" xmlns="http://www.w3.org/2000/svg">
<g filter="url(#filter0_d)">
<rect x="8" y="8" width="479" height="281" rx="5" fill="white"/>
</g>
<path d="M76.9238 45.4414H77.9199C78.8509 45.4414 79.5475 45.2591 80.0098 44.8945C80.472 44.5234 80.7031 43.9863 80.7031 43.2832C80.7031 42.5736 80.5078 42.0495 80.1172 41.7109C79.7331 41.3724 79.1276 41.2031 78.3008 41.2031H76.9238V45.4414ZM83.7598 43.1758C83.7598 44.7122 83.278 45.8874 82.3145 46.7012C81.3574 47.515 79.9935 47.9219 78.2227 47.9219H76.9238V53H73.8965V38.7227H78.457C80.1888 38.7227 81.5039 39.097 82.4023 39.8457C83.3073 40.5879 83.7598 41.6979 83.7598 43.1758ZM92.3145 41.877C92.7181 41.877 93.0534 41.9062 93.3203 41.9648L93.0957 44.7578C92.8548 44.6927 92.5618 44.6602 92.2168 44.6602C91.2663 44.6602 90.5241 44.9043 89.9902 45.3926C89.4629 45.8809 89.1992 46.5645 89.1992 47.4434V53H86.2207V42.082H88.4766L88.916 43.918H89.0625C89.401 43.306 89.8568 42.8145 90.4297 42.4434C91.0091 42.0658 91.6374 41.877 92.3145 41.877ZM95.1758 39.2598C95.1758 38.2897 95.7161 37.8047 96.7969 37.8047C97.8776 37.8047 98.418 38.2897 98.418 39.2598C98.418 39.722 98.2812 40.0833 98.0078 40.3438C97.7409 40.5977 97.3372 40.7246 96.7969 40.7246C95.7161 40.7246 95.1758 40.2363 95.1758 39.2598ZM98.2812 53H95.3027V42.082H98.2812V53ZM105.85 53.1953C102.451 53.1953 100.752 51.3301 100.752 47.5996C100.752 45.7441 101.214 44.3281 102.139 43.3516C103.063 42.3685 104.388 41.877 106.113 41.877C107.376 41.877 108.509 42.1243 109.512 42.6191L108.633 44.9238C108.164 44.735 107.728 44.582 107.324 44.4648C106.921 44.3411 106.517 44.2793 106.113 44.2793C104.564 44.2793 103.789 45.3796 103.789 47.5801C103.789 49.7155 104.564 50.7832 106.113 50.7832C106.686 50.7832 107.217 50.7083 107.705 50.5586C108.193 50.4023 108.682 50.1615 109.17 49.8359V52.3848C108.688 52.6908 108.2 52.9023 107.705 53.0195C107.217 53.1367 106.598 53.1953 105.85 53.1953ZM116.23 43.9961C115.599 43.9961 115.104 44.1979 114.746 44.6016C114.388 44.9987 114.183 45.5651 114.131 46.3008H118.311C118.298 45.5651 118.105 44.9987 117.734 44.6016C117.363 44.1979 116.862 43.9961 116.23 43.9961ZM116.65 53.1953C114.893 53.1953 113.519 52.7103 112.529 51.7402C111.54 50.7702 111.045 49.3965 111.045 47.6191C111.045 45.7897 111.501 44.377 112.412 43.3809C113.33 42.3783 114.596 41.877 116.211 41.877C117.754 41.877 118.955 42.3164 119.814 43.1953C120.674 44.0742 121.104 45.2884 121.104 46.8379V48.2832H114.062C114.095 49.1296 114.346 49.7904 114.814 50.2656C115.283 50.7409 115.941 50.9785 116.787 50.9785C117.445 50.9785 118.066 50.9102 118.652 50.7734C119.238 50.6367 119.85 50.4186 120.488 50.1191V52.4238C119.967 52.6842 119.411 52.8763 118.818 53C118.226 53.1302 117.503 53.1953 116.65 53.1953ZM138.799 53H135.82V46.623C135.82 45.0475 135.234 44.2598 134.062 44.2598C133.229 44.2598 132.627 44.543 132.256 45.1094C131.885 45.6758 131.699 46.5938 131.699 47.8633V53H128.721V37.8047H131.699V40.9004C131.699 41.1413 131.676 41.7077 131.631 42.5996L131.562 43.4785H131.719C132.383 42.4108 133.438 41.877 134.883 41.877C136.165 41.877 137.139 42.222 137.803 42.9121C138.467 43.6022 138.799 44.5918 138.799 45.8809V53ZM141.738 39.2598C141.738 38.2897 142.279 37.8047 143.359 37.8047C144.44 37.8047 144.98 38.2897 144.98 39.2598C144.98 39.722 144.844 40.0833 144.57 40.3438C144.303 40.5977 143.9 40.7246 143.359 40.7246C142.279 40.7246 141.738 40.2363 141.738 39.2598ZM144.844 53H141.865V42.082H144.844V53ZM155.596 49.7578C155.596 50.8776 155.205 51.7305 154.424 52.3164C153.649 52.9023 152.487 53.1953 150.938 53.1953C150.143 53.1953 149.466 53.14 148.906 53.0293C148.346 52.9251 147.822 52.7689 147.334 52.5605V50.0996C147.887 50.36 148.509 50.5781 149.199 50.7539C149.896 50.9297 150.508 51.0176 151.035 51.0176C152.116 51.0176 152.656 50.7051 152.656 50.0801C152.656 49.8457 152.585 49.6569 152.441 49.5137C152.298 49.3639 152.051 49.1979 151.699 49.0156C151.348 48.8268 150.879 48.6087 150.293 48.3613C149.453 48.0098 148.835 47.6842 148.438 47.3848C148.047 47.0853 147.76 46.7435 147.578 46.3594C147.402 45.9688 147.314 45.4902 147.314 44.9238C147.314 43.9538 147.689 43.2051 148.438 42.6777C149.193 42.1439 150.26 41.877 151.641 41.877C152.956 41.877 154.235 42.1634 155.479 42.7363L154.58 44.8848C154.033 44.6504 153.522 44.4583 153.047 44.3086C152.572 44.1589 152.087 44.084 151.592 44.084C150.713 44.084 150.273 44.3216 150.273 44.7969C150.273 45.0638 150.413 45.2949 150.693 45.4902C150.98 45.6855 151.602 45.9753 152.559 46.3594C153.411 46.7044 154.036 47.0267 154.434 47.3262C154.831 47.6257 155.124 47.9707 155.312 48.3613C155.501 48.752 155.596 49.2174 155.596 49.7578ZM162.52 50.8223C163.04 50.8223 163.665 50.7083 164.395 50.4805V52.6973C163.652 53.0293 162.741 53.1953 161.66 53.1953C160.469 53.1953 159.6 52.8958 159.053 52.2969C158.512 51.6914 158.242 50.7865 158.242 49.582V44.3184H156.816V43.0586L158.457 42.0625L159.316 39.7578H161.221V42.082H164.277V44.3184H161.221V49.582C161.221 50.0052 161.338 50.3177 161.572 50.5195C161.813 50.7214 162.129 50.8223 162.52 50.8223ZM168.984 47.5215C168.984 48.6022 169.16 49.4193 169.512 49.9727C169.87 50.526 170.449 50.8027 171.25 50.8027C172.044 50.8027 172.614 50.5293 172.959 49.9824C173.311 49.429 173.486 48.6087 173.486 47.5215C173.486 46.4408 173.311 45.6302 172.959 45.0898C172.607 44.5495 172.031 44.2793 171.23 44.2793C170.436 44.2793 169.863 44.5495 169.512 45.0898C169.16 45.6237 168.984 46.4342 168.984 47.5215ZM176.533 47.5215C176.533 49.2988 176.064 50.6888 175.127 51.6914C174.189 52.694 172.884 53.1953 171.211 53.1953C170.163 53.1953 169.238 52.9674 168.438 52.5117C167.637 52.0495 167.021 51.3887 166.592 50.5293C166.162 49.6699 165.947 48.6673 165.947 47.5215C165.947 45.7376 166.413 44.3509 167.344 43.3613C168.275 42.3717 169.583 41.877 171.27 41.877C172.318 41.877 173.242 42.1048 174.043 42.5605C174.844 43.0163 175.459 43.6706 175.889 44.5234C176.318 45.3763 176.533 46.3757 176.533 47.5215ZM185.088 41.877C185.492 41.877 185.827 41.9062 186.094 41.9648L185.869 44.7578C185.628 44.6927 185.335 44.6602 184.99 44.6602C184.04 44.6602 183.298 44.9043 182.764 45.3926C182.236 45.8809 181.973 46.5645 181.973 47.4434V53H178.994V42.082H181.25L181.689 43.918H181.836C182.174 43.306 182.63 42.8145 183.203 42.4434C183.783 42.0658 184.411 41.877 185.088 41.877ZM186.514 42.082H189.775L191.836 48.2246C192.012 48.7585 192.132 49.39 192.197 50.1191H192.256C192.327 49.4486 192.467 48.8171 192.676 48.2246L194.697 42.082H197.891L193.271 54.3965C192.848 55.5358 192.243 56.3887 191.455 56.9551C190.674 57.5215 189.759 57.8047 188.711 57.8047C188.197 57.8047 187.692 57.7493 187.197 57.6387V55.2754C187.555 55.36 187.946 55.4023 188.369 55.4023C188.896 55.4023 189.355 55.2396 189.746 54.9141C190.143 54.5951 190.452 54.11 190.674 53.459L190.85 52.9219L186.514 42.082Z" fill="#1F1F1F"/>
<path d="M39.1925 44.2699C39.1925 47.1081 41.4933 49.4089 44.3315 49.4089C47.1697 49.4089 49.4705 47.1081 49.4705 44.2699C49.4705 41.4317 47.1697 39.1309 44.3315 39.1309C41.4947 39.134 39.1957 41.4331 39.1925 44.2699ZM44.3315 44.5946C43.4787 44.5994 42.7561 43.9678 42.647 43.122C42.5379 42.2763 43.0765 41.4818 43.9026 41.2701V40.8357C43.9026 40.6389 44.062 40.4795 44.2588 40.4795C44.4555 40.4795 44.6149 40.6389 44.6149 40.8357V41.2484C45.423 41.3852 46.0129 42.0877 46.0077 42.9075C46.0077 43.1019 45.8501 43.2595 45.6557 43.2595C45.4614 43.2595 45.3038 43.1019 45.3038 42.9075C45.3032 42.3695 44.8667 41.9339 44.3287 41.9345C43.7907 41.9351 43.3551 42.3717 43.3559 42.9097C43.3565 43.4475 43.7931 43.8831 44.3311 43.8823C45.2034 43.8873 45.9278 44.5567 46.0015 45.426C46.0753 46.295 45.4739 47.0769 44.6149 47.2287V47.6532C44.6149 47.85 44.4555 48.0094 44.2588 48.0094C44.062 48.0094 43.9026 47.85 43.9026 47.6532V47.2069C43.1583 47.0103 42.6382 46.3394 42.6333 45.5696C42.6333 45.3707 42.7946 45.2093 42.9936 45.2093C43.1925 45.2093 43.3539 45.3707 43.3539 45.5696C43.3551 46.0671 43.7299 46.4842 44.2244 46.5385C44.2427 46.5355 44.2614 46.5341 44.28 46.5339C44.3069 46.5339 44.3335 46.5371 44.3597 46.5431C44.8939 46.53 45.3179 46.0891 45.3101 45.5549C45.3024 45.0205 44.8657 44.5922 44.3315 44.5946Z" fill="#B3404A"/>
<path d="M52.579 51.8588C52.5764 51.8602 52.5736 51.8616 52.5707 51.8629L49.2646 53.4248C49.3002 53.6079 49.3157 53.7941 49.3107 53.9805C49.3056 54.1733 49.1478 54.3269 48.955 54.3269C48.9516 54.3269 48.9482 54.3269 48.9448 54.3269L44.1063 54.1938C43.9096 54.1884 43.7545 54.0246 43.7599 53.8279C43.7653 53.6311 43.9292 53.4761 44.1258 53.4815L48.5734 53.6039C48.4259 52.742 47.691 52.1036 46.8169 52.0782L43.8736 51.9973C43.2923 51.9806 42.7223 51.8333 42.2058 51.5664L41.9063 51.4114C40.4354 50.6451 38.663 50.7448 37.2875 51.6716L37.1697 55.9534L37.6755 55.6825C38.1781 55.4122 38.7662 55.3478 39.3155 55.5031L44.3106 56.9052C45.2733 57.1023 46.2738 56.9906 47.1693 56.5856L54.0896 52.1092C53.6947 51.7049 53.0832 51.6034 52.579 51.8588Z" fill="#B3404A"/>
<path d="M33.9191 56.6968L34.0946 50.3262L36.6102 50.3955L36.4348 56.7662L33.9191 56.6968Z" fill="#B3404A"/>
<path d="M44.6658 37.2228V33.3561C44.6658 33.1594 44.5064 33 44.3096 33C44.1129 33 43.9535 33.1594 43.9535 33.3561V37.2228C43.9535 37.4196 44.1129 37.579 44.3096 37.579C44.5064 37.579 44.6658 37.4196 44.6658 37.2228Z" fill="#B3404A"/>
<path d="M47.7184 37.2229V35.3913C47.7184 35.1945 47.559 35.0352 47.3623 35.0352C47.1655 35.0352 47.0061 35.1945 47.0061 35.3913V37.2229C47.0061 37.4196 47.1655 37.579 47.3623 37.579C47.559 37.579 47.7184 37.4196 47.7184 37.2229Z" fill="#B3404A"/>
<path d="M41.6131 37.2229V35.3913C41.6131 35.1945 41.4537 35.0352 41.257 35.0352C41.0602 35.0352 40.9008 35.1945 40.9008 35.3913V37.2229C40.9008 37.4196 41.0602 37.579 41.257 37.579C41.4537 37.579 41.6131 37.4196 41.6131 37.2229Z" fill="#B3404A"/>
<path d="M38.928 272.166H34.0891V271.297L35.9299 269.446C36.4735 268.89 36.8332 268.496 37.009 268.265C37.1881 268.03 37.3183 267.811 37.3996 267.605C37.481 267.4 37.5217 267.181 37.5217 266.946C37.5217 266.624 37.4241 266.37 37.2287 266.185C37.0367 265.999 36.7698 265.906 36.428 265.906C36.1545 265.906 35.8892 265.957 35.6321 266.058C35.3782 266.159 35.0836 266.341 34.7483 266.604L34.1282 265.848C34.5253 265.512 34.911 265.275 35.2854 265.135C35.6597 264.995 36.0585 264.925 36.4817 264.925C37.1457 264.925 37.678 265.099 38.0784 265.447C38.4787 265.792 38.6789 266.258 38.6789 266.844C38.6789 267.166 38.6203 267.472 38.5032 267.762C38.3892 268.051 38.2118 268.351 37.9709 268.66C37.7333 268.966 37.3362 269.381 36.7795 269.905L35.5393 271.106V271.155H38.928V272.166ZM39.8215 269.124C39.8215 266.331 40.9592 264.935 43.2346 264.935C43.5927 264.935 43.8954 264.962 44.1428 265.018V265.975C43.8954 265.903 43.609 265.867 43.2834 265.867C42.5185 265.867 41.9439 266.072 41.5598 266.482C41.1757 266.893 40.9674 267.55 40.9348 268.455H40.9934C41.1464 268.191 41.3612 267.988 41.6379 267.845C41.9146 267.698 42.2401 267.625 42.6145 267.625C43.2623 267.625 43.7668 267.824 44.1282 268.221C44.4895 268.618 44.6702 269.157 44.6702 269.837C44.6702 270.586 44.4602 271.178 44.0403 271.614C43.6236 272.047 43.0539 272.264 42.3313 272.264C41.8202 272.264 41.3759 272.142 40.9983 271.897C40.6207 271.65 40.3293 271.292 40.1243 270.823C39.9224 270.351 39.8215 269.785 39.8215 269.124ZM42.3118 271.316C42.7056 271.316 43.0084 271.189 43.22 270.936C43.4348 270.682 43.5422 270.319 43.5422 269.847C43.5422 269.437 43.4413 269.114 43.2395 268.88C43.0409 268.646 42.7414 268.528 42.341 268.528C42.0937 268.528 41.8658 268.582 41.6575 268.689C41.4491 268.794 41.2847 268.938 41.1643 269.124C41.0438 269.306 40.9836 269.493 40.9836 269.686C40.9836 270.145 41.1073 270.532 41.3547 270.848C41.6054 271.16 41.9244 271.316 42.3118 271.316ZM48.8938 265.027L46.2375 272.166H45.1535L47.8147 265.027H48.8938ZM54.26 268.597C54.26 269.837 54.0598 270.758 53.6594 271.36C53.2623 271.963 52.6535 272.264 51.8332 272.264C51.039 272.264 50.4368 271.953 50.0266 271.331C49.6164 270.709 49.4114 269.798 49.4114 268.597C49.4114 267.337 49.6099 266.409 50.0071 265.813C50.4075 265.215 51.0162 264.915 51.8332 264.915C52.6308 264.915 53.2346 265.228 53.6448 265.853C54.0549 266.478 54.26 267.392 54.26 268.597ZM50.5735 268.597C50.5735 269.57 50.6728 270.265 50.8713 270.682C51.0731 271.098 51.3938 271.307 51.8332 271.307C52.2727 271.307 52.5933 271.095 52.7952 270.672C53.0002 270.249 53.1028 269.557 53.1028 268.597C53.1028 267.64 53.0002 266.948 52.7952 266.521C52.5933 266.092 52.2727 265.877 51.8332 265.877C51.3938 265.877 51.0731 266.087 50.8713 266.507C50.6728 266.927 50.5735 267.623 50.5735 268.597ZM58.5032 272.166H57.3557V267.557C57.3557 267.007 57.3687 266.57 57.3948 266.248C57.3199 266.326 57.2271 266.412 57.1164 266.507C57.009 266.601 56.6444 266.901 56.0227 267.405L55.4465 266.678L57.5461 265.027H58.5032V272.166ZM64.2258 265.027L61.5696 272.166H60.4856L63.1467 265.027H64.2258ZM68.1223 272.166H66.9748V267.557C66.9748 267.007 66.9879 266.57 67.0139 266.248C66.939 266.326 66.8463 266.412 66.7356 266.507C66.6282 266.601 66.2636 266.901 65.6418 267.405L65.0657 266.678L67.1653 265.027H68.1223V272.166ZM72.8879 267.708C73.6073 267.708 74.177 267.898 74.5969 268.279C75.0168 268.66 75.2268 269.179 75.2268 269.837C75.2268 270.599 74.9875 271.194 74.509 271.624C74.0338 272.05 73.3567 272.264 72.4778 272.264C71.6802 272.264 71.0536 272.135 70.5979 271.878V270.838C70.8616 270.988 71.1643 271.103 71.5061 271.185C71.8479 271.266 72.1653 271.307 72.4582 271.307C72.9758 271.307 73.3697 271.191 73.6399 270.96C73.9101 270.729 74.0452 270.39 74.0452 269.944C74.0452 269.091 73.5015 268.665 72.4143 268.665C72.2613 268.665 72.0725 268.681 71.8479 268.714C71.6233 268.743 71.4263 268.777 71.2571 268.816L70.7444 268.514L71.0178 265.027H74.7287V266.048H72.0285L71.8674 267.815C71.9813 267.796 72.1197 267.773 72.2825 267.747C72.4485 267.721 72.6503 267.708 72.8879 267.708Z" fill="#6C6C6C"/>
<path d="M131.596 272.166H126.757V271.297L128.597 269.446C129.141 268.89 129.501 268.496 129.677 268.265C129.856 268.03 129.986 267.811 130.067 267.605C130.149 267.4 130.189 267.181 130.189 266.946C130.189 266.624 130.092 266.37 129.896 266.185C129.704 265.999 129.437 265.906 129.096 265.906C128.822 265.906 128.557 265.957 128.3 266.058C128.046 266.159 127.751 266.341 127.416 266.604L126.796 265.848C127.193 265.512 127.579 265.275 127.953 265.135C128.327 264.995 128.726 264.925 129.149 264.925C129.813 264.925 130.346 265.099 130.746 265.447C131.146 265.792 131.347 266.258 131.347 266.844C131.347 267.166 131.288 267.472 131.171 267.762C131.057 268.051 130.879 268.351 130.639 268.66C130.401 268.966 130.004 269.381 129.447 269.905L128.207 271.106V271.155H131.596V272.166ZM133.28 272.166L136.102 266.048H132.391V265.037H137.328V265.838L134.52 272.166H133.28ZM141.561 265.027L138.905 272.166H137.821L140.482 265.027H141.561ZM146.928 268.597C146.928 269.837 146.727 270.758 146.327 271.36C145.93 271.963 145.321 272.264 144.501 272.264C143.707 272.264 143.104 271.953 142.694 271.331C142.284 270.709 142.079 269.798 142.079 268.597C142.079 267.337 142.278 266.409 142.675 265.813C143.075 265.215 143.684 264.915 144.501 264.915C145.298 264.915 145.902 265.228 146.312 265.853C146.722 266.478 146.928 267.392 146.928 268.597ZM143.241 268.597C143.241 269.57 143.34 270.265 143.539 270.682C143.741 271.098 144.061 271.307 144.501 271.307C144.94 271.307 145.261 271.095 145.463 270.672C145.668 270.249 145.77 269.557 145.77 268.597C145.77 267.64 145.668 266.948 145.463 266.521C145.261 266.092 144.94 265.877 144.501 265.877C144.061 265.877 143.741 266.087 143.539 266.507C143.34 266.927 143.241 267.623 143.241 268.597ZM150.214 264.935C150.891 264.935 151.426 265.091 151.82 265.403C152.214 265.713 152.411 266.128 152.411 266.648C152.411 267.381 151.972 267.964 151.093 268.396C151.653 268.676 152.05 268.971 152.284 269.28C152.522 269.59 152.64 269.935 152.64 270.315C152.64 270.905 152.424 271.377 151.991 271.731C151.558 272.086 150.972 272.264 150.233 272.264C149.458 272.264 148.858 272.098 148.431 271.766C148.005 271.434 147.792 270.963 147.792 270.354C147.792 269.957 147.903 269.601 148.124 269.285C148.348 268.966 148.715 268.683 149.222 268.436C148.786 268.175 148.475 267.9 148.29 267.61C148.104 267.321 148.012 266.995 148.012 266.634C148.012 266.116 148.215 265.704 148.622 265.398C149.029 265.089 149.559 264.935 150.214 264.935ZM148.89 270.315C148.89 270.654 149.009 270.918 149.247 271.106C149.485 271.292 149.807 271.385 150.214 271.385C150.634 271.385 150.959 271.289 151.19 271.097C151.425 270.901 151.542 270.638 151.542 270.306C151.542 270.042 151.434 269.801 151.22 269.583C151.005 269.365 150.679 269.163 150.243 268.978L150.101 268.914C149.672 269.103 149.362 269.311 149.174 269.539C148.985 269.764 148.89 270.022 148.89 270.315ZM150.204 265.818C149.878 265.818 149.616 265.9 149.418 266.062C149.219 266.222 149.12 266.44 149.12 266.717C149.12 266.886 149.156 267.037 149.227 267.171C149.299 267.304 149.403 267.426 149.54 267.537C149.677 267.645 149.908 267.775 150.233 267.928C150.624 267.755 150.899 267.575 151.058 267.386C151.221 267.194 151.303 266.971 151.303 266.717C151.303 266.44 151.202 266.222 151 266.062C150.801 265.9 150.536 265.818 150.204 265.818ZM156.893 265.027L154.237 272.166H153.153L155.814 265.027H156.893ZM160.79 272.166H159.642V267.557C159.642 267.007 159.655 266.57 159.681 266.248C159.607 266.326 159.514 266.412 159.403 266.507C159.296 266.601 158.931 266.901 158.309 267.405L157.733 266.678L159.833 265.027H160.79V272.166ZM163.944 272.166L166.766 266.048H163.055V265.037H167.992V265.838L165.184 272.166H163.944Z" fill="#6C6C6C"/>
<path d="M224.263 272.166H219.424V271.297L221.265 269.446C221.809 268.89 222.168 268.496 222.344 268.265C222.523 268.03 222.653 267.811 222.735 267.605C222.816 267.4 222.857 267.181 222.857 266.946C222.857 266.624 222.759 266.37 222.564 266.185C222.372 265.999 222.105 265.906 221.763 265.906C221.49 265.906 221.224 265.957 220.967 266.058C220.713 266.159 220.419 266.341 220.083 266.604L219.463 265.848C219.86 265.512 220.246 265.275 220.62 265.135C220.995 264.995 221.394 264.925 221.817 264.925C222.481 264.925 223.013 265.099 223.413 265.447C223.814 265.792 224.014 266.258 224.014 266.844C224.014 267.166 223.955 267.472 223.838 267.762C223.724 268.051 223.547 268.351 223.306 268.66C223.068 268.966 222.671 269.381 222.115 269.905L220.874 271.106V271.155H224.263V272.166ZM227.549 264.935C228.226 264.935 228.762 265.091 229.156 265.403C229.549 265.713 229.746 266.128 229.746 266.648C229.746 267.381 229.307 267.964 228.428 268.396C228.988 268.676 229.385 268.971 229.619 269.28C229.857 269.59 229.976 269.935 229.976 270.315C229.976 270.905 229.759 271.377 229.327 271.731C228.894 272.086 228.308 272.264 227.569 272.264C226.794 272.264 226.193 272.098 225.767 271.766C225.341 271.434 225.127 270.963 225.127 270.354C225.127 269.957 225.238 269.601 225.459 269.285C225.684 268.966 226.05 268.683 226.558 268.436C226.122 268.175 225.811 267.9 225.625 267.61C225.44 267.321 225.347 266.995 225.347 266.634C225.347 266.116 225.55 265.704 225.957 265.398C226.364 265.089 226.895 264.935 227.549 264.935ZM226.226 270.315C226.226 270.654 226.345 270.918 226.582 271.106C226.82 271.292 227.142 271.385 227.549 271.385C227.969 271.385 228.295 271.289 228.526 271.097C228.76 270.901 228.877 270.638 228.877 270.306C228.877 270.042 228.77 269.801 228.555 269.583C228.34 269.365 228.015 269.163 227.578 268.978L227.437 268.914C227.007 269.103 226.698 269.311 226.509 269.539C226.32 269.764 226.226 270.022 226.226 270.315ZM227.539 265.818C227.214 265.818 226.952 265.9 226.753 266.062C226.555 266.222 226.455 266.44 226.455 266.717C226.455 266.886 226.491 267.037 226.563 267.171C226.634 267.304 226.739 267.426 226.875 267.537C227.012 267.645 227.243 267.775 227.569 267.928C227.959 267.755 228.234 267.575 228.394 267.386C228.557 267.194 228.638 266.971 228.638 266.717C228.638 266.44 228.537 266.222 228.335 266.062C228.137 265.9 227.871 265.818 227.539 265.818ZM234.229 265.027L231.573 272.166H230.489L233.15 265.027H234.229ZM239.595 268.597C239.595 269.837 239.395 270.758 238.994 271.36C238.597 271.963 237.989 272.264 237.168 272.264C236.374 272.264 235.772 271.953 235.362 271.331C234.952 270.709 234.746 269.798 234.746 268.597C234.746 267.337 234.945 266.409 235.342 265.813C235.743 265.215 236.351 264.915 237.168 264.915C237.966 264.915 238.57 265.228 238.98 265.853C239.39 266.478 239.595 267.392 239.595 268.597ZM235.909 268.597C235.909 269.57 236.008 270.265 236.206 270.682C236.408 271.098 236.729 271.307 237.168 271.307C237.608 271.307 237.928 271.095 238.13 270.672C238.335 270.249 238.438 269.557 238.438 268.597C238.438 267.64 238.335 266.948 238.13 266.521C237.928 266.092 237.608 265.877 237.168 265.877C236.729 265.877 236.408 266.087 236.206 266.507C236.008 266.927 235.909 267.623 235.909 268.597ZM245.039 266.668C245.039 267.12 244.908 267.498 244.644 267.801C244.38 268.1 244.009 268.302 243.531 268.406V268.445C244.104 268.517 244.533 268.696 244.82 268.982C245.106 269.266 245.249 269.643 245.249 270.115C245.249 270.802 245.007 271.333 244.522 271.707C244.037 272.078 243.347 272.264 242.452 272.264C241.66 272.264 240.993 272.135 240.45 271.878V270.857C240.752 271.007 241.073 271.123 241.411 271.204C241.75 271.285 242.076 271.326 242.388 271.326C242.941 271.326 243.355 271.224 243.628 271.019C243.902 270.813 244.038 270.496 244.038 270.066C244.038 269.686 243.887 269.406 243.584 269.227C243.282 269.048 242.806 268.958 242.159 268.958H241.538V268.025H242.168C243.308 268.025 243.877 267.632 243.877 266.844C243.877 266.538 243.778 266.302 243.579 266.136C243.381 265.97 243.088 265.887 242.701 265.887C242.43 265.887 242.17 265.926 241.919 266.004C241.669 266.079 241.372 266.227 241.031 266.448L240.469 265.647C241.123 265.166 241.883 264.925 242.749 264.925C243.469 264.925 244.03 265.079 244.434 265.389C244.838 265.698 245.039 266.124 245.039 266.668ZM249.561 265.027L246.905 272.166H245.821L248.482 265.027H249.561ZM253.457 272.166H252.31V267.557C252.31 267.007 252.323 266.57 252.349 266.248C252.274 266.326 252.181 266.412 252.071 266.507C251.963 266.601 251.599 266.901 250.977 267.405L250.401 266.678L252.5 265.027H253.457V272.166ZM260.63 268.074C260.63 269.48 260.347 270.53 259.781 271.224C259.214 271.917 258.361 272.264 257.222 272.264C256.789 272.264 256.478 272.238 256.289 272.186V271.224C256.579 271.305 256.87 271.346 257.163 271.346C257.938 271.346 258.516 271.137 258.897 270.721C259.278 270.304 259.486 269.65 259.522 268.758H259.463C259.271 269.051 259.038 269.262 258.765 269.393C258.495 269.523 258.177 269.588 257.813 269.588C257.181 269.588 256.685 269.391 256.324 268.997C255.962 268.603 255.782 268.063 255.782 267.376C255.782 266.631 255.99 266.038 256.407 265.599C256.827 265.156 257.398 264.935 258.12 264.935C258.628 264.935 259.071 265.058 259.449 265.306C259.826 265.553 260.118 265.913 260.323 266.385C260.528 266.854 260.63 267.417 260.63 268.074ZM258.14 265.887C257.743 265.887 257.438 266.017 257.227 266.277C257.015 266.535 256.91 266.897 256.91 267.366C256.91 267.773 257.007 268.094 257.202 268.328C257.401 268.559 257.701 268.675 258.101 268.675C258.488 268.675 258.814 268.559 259.077 268.328C259.341 268.097 259.473 267.827 259.473 267.518C259.473 267.228 259.416 266.958 259.302 266.707C259.191 266.453 259.035 266.253 258.833 266.106C258.632 265.96 258.4 265.887 258.14 265.887Z" fill="#6C6C6C"/>
<path d="M316.133 272.166H311.294V271.297L313.135 269.446C313.678 268.89 314.038 268.496 314.214 268.265C314.393 268.03 314.523 267.811 314.604 267.605C314.686 267.4 314.726 267.181 314.726 266.946C314.726 266.624 314.629 266.37 314.433 266.185C314.241 265.999 313.974 265.906 313.633 265.906C313.359 265.906 313.094 265.957 312.837 266.058C312.583 266.159 312.288 266.341 311.953 266.604L311.333 265.848C311.73 265.512 312.116 265.275 312.49 265.135C312.864 264.995 313.263 264.925 313.686 264.925C314.35 264.925 314.883 265.099 315.283 265.447C315.683 265.792 315.884 266.258 315.884 266.844C315.884 267.166 315.825 267.472 315.708 267.762C315.594 268.051 315.417 268.351 315.176 268.66C314.938 268.966 314.541 269.381 313.984 269.905L312.744 271.106V271.155H316.133V272.166ZM321.836 268.074C321.836 269.48 321.553 270.53 320.986 271.224C320.42 271.917 319.567 272.264 318.428 272.264C317.995 272.264 317.684 272.238 317.495 272.186V271.224C317.785 271.305 318.076 271.346 318.369 271.346C319.144 271.346 319.722 271.137 320.102 270.721C320.483 270.304 320.692 269.65 320.727 268.758H320.669C320.477 269.051 320.244 269.262 319.971 269.393C319.7 269.523 319.383 269.588 319.018 269.588C318.387 269.588 317.89 269.391 317.529 268.997C317.168 268.603 316.987 268.063 316.987 267.376C316.987 266.631 317.196 266.038 317.612 265.599C318.032 265.156 318.603 264.935 319.326 264.935C319.834 264.935 320.277 265.058 320.654 265.306C321.032 265.553 321.323 265.913 321.528 266.385C321.733 266.854 321.836 267.417 321.836 268.074ZM319.346 265.887C318.948 265.887 318.644 266.017 318.432 266.277C318.221 266.535 318.115 266.897 318.115 267.366C318.115 267.773 318.213 268.094 318.408 268.328C318.607 268.559 318.906 268.675 319.307 268.675C319.694 268.675 320.019 268.559 320.283 268.328C320.547 268.097 320.679 267.827 320.679 267.518C320.679 267.228 320.622 266.958 320.508 266.707C320.397 266.453 320.241 266.253 320.039 266.106C319.837 265.96 319.606 265.887 319.346 265.887ZM326.098 265.027L323.442 272.166H322.358L325.019 265.027H326.098ZM331.465 268.597C331.465 269.837 331.265 270.758 330.864 271.36C330.467 271.963 329.858 272.264 329.038 272.264C328.244 272.264 327.641 271.953 327.231 271.331C326.821 270.709 326.616 269.798 326.616 268.597C326.616 267.337 326.815 266.409 327.212 265.813C327.612 265.215 328.221 264.915 329.038 264.915C329.835 264.915 330.439 265.228 330.849 265.853C331.26 266.478 331.465 267.392 331.465 268.597ZM327.778 268.597C327.778 269.57 327.877 270.265 328.076 270.682C328.278 271.098 328.598 271.307 329.038 271.307C329.477 271.307 329.798 271.095 330 270.672C330.205 270.249 330.307 269.557 330.307 268.597C330.307 267.64 330.205 266.948 330 266.521C329.798 266.092 329.477 265.877 329.038 265.877C328.598 265.877 328.278 266.087 328.076 266.507C327.877 266.927 327.778 267.623 327.778 268.597ZM337.178 272.166H332.339V271.297L334.18 269.446C334.723 268.89 335.083 268.496 335.259 268.265C335.438 268.03 335.568 267.811 335.649 267.605C335.731 267.4 335.771 267.181 335.771 266.946C335.771 266.624 335.674 266.37 335.478 266.185C335.286 265.999 335.019 265.906 334.678 265.906C334.404 265.906 334.139 265.957 333.882 266.058C333.628 266.159 333.333 266.341 332.998 266.604L332.378 265.848C332.775 265.512 333.161 265.275 333.535 265.135C333.909 264.995 334.308 264.925 334.731 264.925C335.395 264.925 335.928 265.099 336.328 265.447C336.728 265.792 336.929 266.258 336.929 266.844C336.929 267.166 336.87 267.472 336.753 267.762C336.639 268.051 336.461 268.351 336.221 268.66C335.983 268.966 335.586 269.381 335.029 269.905L333.789 271.106V271.155H337.178V272.166ZM341.431 265.027L338.774 272.166H337.69L340.351 265.027H341.431ZM346.797 272.166H341.958V271.297L343.799 269.446C344.342 268.89 344.702 268.496 344.878 268.265C345.057 268.03 345.187 267.811 345.268 267.605C345.35 267.4 345.39 267.181 345.39 266.946C345.39 266.624 345.293 266.37 345.098 266.185C344.905 265.999 344.639 265.906 344.297 265.906C344.023 265.906 343.758 265.957 343.501 266.058C343.247 266.159 342.952 266.341 342.617 266.604L341.997 265.848C342.394 265.512 342.78 265.275 343.154 265.135C343.529 264.995 343.927 264.925 344.35 264.925C345.015 264.925 345.547 265.099 345.947 265.447C346.348 265.792 346.548 266.258 346.548 266.844C346.548 267.166 346.489 267.472 346.372 267.762C346.258 268.051 346.081 268.351 345.84 268.66C345.602 268.966 345.205 269.381 344.648 269.905L343.408 271.106V271.155H346.797V272.166ZM352.51 268.597C352.51 269.837 352.309 270.758 351.909 271.36C351.512 271.963 350.903 272.264 350.083 272.264C349.289 272.264 348.686 271.953 348.276 271.331C347.866 270.709 347.661 269.798 347.661 268.597C347.661 267.337 347.86 266.409 348.257 265.813C348.657 265.215 349.266 264.915 350.083 264.915C350.88 264.915 351.484 265.228 351.894 265.853C352.305 266.478 352.51 267.392 352.51 268.597ZM348.823 268.597C348.823 269.57 348.922 270.265 349.121 270.682C349.323 271.098 349.643 271.307 350.083 271.307C350.522 271.307 350.843 271.095 351.045 270.672C351.25 270.249 351.352 269.557 351.352 268.597C351.352 267.64 351.25 266.948 351.045 266.521C350.843 266.092 350.522 265.877 350.083 265.877C349.643 265.877 349.323 266.087 349.121 266.507C348.922 266.927 348.823 267.623 348.823 268.597Z" fill="#6C6C6C"/>
<path d="M408.532 266.668C408.532 267.12 408.4 267.498 408.136 267.801C407.873 268.1 407.502 268.302 407.023 268.406V268.445C407.596 268.517 408.026 268.696 408.312 268.982C408.599 269.266 408.742 269.643 408.742 270.115C408.742 270.802 408.499 271.333 408.014 271.707C407.529 272.078 406.839 272.264 405.944 272.264C405.153 272.264 404.486 272.135 403.942 271.878V270.857C404.245 271.007 404.565 271.123 404.904 271.204C405.242 271.285 405.568 271.326 405.881 271.326C406.434 271.326 406.847 271.224 407.121 271.019C407.394 270.813 407.531 270.496 407.531 270.066C407.531 269.686 407.38 269.406 407.077 269.227C406.774 269.048 406.299 268.958 405.651 268.958H405.031V268.025H405.661C406.8 268.025 407.37 267.632 407.37 266.844C407.37 266.538 407.27 266.302 407.072 266.136C406.873 265.97 406.58 265.887 406.193 265.887C405.923 265.887 405.662 265.926 405.412 266.004C405.161 266.079 404.865 266.227 404.523 266.448L403.962 265.647C404.616 265.166 405.376 264.925 406.242 264.925C406.961 264.925 407.523 265.079 407.926 265.389C408.33 265.698 408.532 266.124 408.532 266.668ZM414.513 268.597C414.513 269.837 414.313 270.758 413.913 271.36C413.516 271.963 412.907 272.264 412.087 272.264C411.292 272.264 410.69 271.953 410.28 271.331C409.87 270.709 409.665 269.798 409.665 268.597C409.665 267.337 409.863 266.409 410.26 265.813C410.661 265.215 411.27 264.915 412.087 264.915C412.884 264.915 413.488 265.228 413.898 265.853C414.308 266.478 414.513 267.392 414.513 268.597ZM410.827 268.597C410.827 269.57 410.926 270.265 411.125 270.682C411.326 271.098 411.647 271.307 412.087 271.307C412.526 271.307 412.847 271.095 413.048 270.672C413.254 270.249 413.356 269.557 413.356 268.597C413.356 267.64 413.254 266.948 413.048 266.521C412.847 266.092 412.526 265.877 412.087 265.877C411.647 265.877 411.326 266.087 411.125 266.507C410.926 266.927 410.827 267.623 410.827 268.597ZM418.766 265.027L416.11 272.166H415.026L417.687 265.027H418.766ZM424.132 268.597C424.132 269.837 423.932 270.758 423.532 271.36C423.135 271.963 422.526 272.264 421.706 272.264C420.911 272.264 420.309 271.953 419.899 271.331C419.489 270.709 419.284 269.798 419.284 268.597C419.284 267.337 419.482 266.409 419.88 265.813C420.28 265.215 420.889 264.915 421.706 264.915C422.503 264.915 423.107 265.228 423.517 265.853C423.927 266.478 424.132 267.392 424.132 268.597ZM420.446 268.597C420.446 269.57 420.545 270.265 420.744 270.682C420.946 271.098 421.266 271.307 421.706 271.307C422.145 271.307 422.466 271.095 422.668 270.672C422.873 270.249 422.975 269.557 422.975 268.597C422.975 267.64 422.873 266.948 422.668 266.521C422.466 266.092 422.145 265.877 421.706 265.877C421.266 265.877 420.946 266.087 420.744 266.507C420.545 266.927 420.446 267.623 420.446 268.597ZM427.428 267.708C428.148 267.708 428.717 267.898 429.137 268.279C429.557 268.66 429.767 269.179 429.767 269.837C429.767 270.599 429.528 271.194 429.049 271.624C428.574 272.05 427.897 272.264 427.018 272.264C426.221 272.264 425.594 272.135 425.138 271.878V270.838C425.402 270.988 425.705 271.103 426.047 271.185C426.388 271.266 426.706 271.307 426.999 271.307C427.516 271.307 427.91 271.191 428.18 270.96C428.45 270.729 428.586 270.39 428.586 269.944C428.586 269.091 428.042 268.665 426.955 268.665C426.802 268.665 426.613 268.681 426.388 268.714C426.164 268.743 425.967 268.777 425.798 268.816L425.285 268.514L425.558 265.027H429.269V266.048H426.569L426.408 267.815C426.522 267.796 426.66 267.773 426.823 267.747C426.989 267.721 427.191 267.708 427.428 267.708ZM434.098 265.027L431.442 272.166H430.358L433.019 265.027H434.098ZM439.464 272.166H434.626V271.297L436.466 269.446C437.01 268.89 437.37 268.496 437.546 268.265C437.725 268.03 437.855 267.811 437.936 267.605C438.018 267.4 438.058 267.181 438.058 266.946C438.058 266.624 437.961 266.37 437.765 266.185C437.573 265.999 437.306 265.906 436.964 265.906C436.691 265.906 436.426 265.957 436.169 266.058C435.915 266.159 435.62 266.341 435.285 266.604L434.665 265.848C435.062 265.512 435.448 265.275 435.822 265.135C436.196 264.995 436.595 264.925 437.018 264.925C437.682 264.925 438.214 265.099 438.615 265.447C439.015 265.792 439.215 266.258 439.215 266.844C439.215 267.166 439.157 267.472 439.04 267.762C438.926 268.051 438.748 268.351 438.507 268.66C438.27 268.966 437.873 269.381 437.316 269.905L436.076 271.106V271.155H439.464V272.166ZM443.708 272.166H442.56V267.557C442.56 267.007 442.573 266.57 442.599 266.248C442.524 266.326 442.432 266.412 442.321 266.507C442.214 266.601 441.849 266.901 441.227 267.405L440.651 266.678L442.751 265.027H443.708V272.166Z" fill="#6C6C6C"/>
<path d="M38.4689 75.5908H37.8693V71.6163L36.667 72.0579V71.5164L38.3754 70.8749H38.4689V75.5908ZM43.159 73.5891C43.159 74.2875 43.0397 74.8065 42.8012 75.146C42.5626 75.4855 42.1898 75.6553 41.6826 75.6553C41.1819 75.6553 40.8112 75.4898 40.5705 75.1589C40.3299 74.8258 40.2052 74.3294 40.1966 73.6697V72.8735C40.1966 72.1837 40.3159 71.6711 40.5544 71.3359C40.793 71.0007 41.1669 70.833 41.6762 70.833C42.1812 70.833 42.553 70.9953 42.7915 71.3198C43.03 71.6421 43.1525 72.1407 43.159 72.8154V73.5891ZM42.5626 72.7735C42.5626 72.2685 42.4917 71.9011 42.3499 71.6711C42.208 71.439 41.9835 71.323 41.6762 71.323C41.371 71.323 41.1486 71.438 41.0089 71.6679C40.8693 71.8978 40.7973 72.2513 40.793 72.7284V73.6825C40.793 74.1897 40.866 74.5647 41.0122 74.8075C41.1604 75.0482 41.3839 75.1686 41.6826 75.1686C41.977 75.1686 42.1952 75.0547 42.337 74.8269C42.481 74.5991 42.5562 74.2402 42.5626 73.7502V72.7735ZM46.8659 73.5891C46.8659 74.2875 46.7466 74.8065 46.5081 75.146C46.2696 75.4855 45.8967 75.6553 45.3896 75.6553C44.8889 75.6553 44.5182 75.4898 44.2775 75.1589C44.0368 74.8258 43.9122 74.3294 43.9036 73.6697V72.8735C43.9036 72.1837 44.0228 71.6711 44.2614 71.3359C44.4999 71.0007 44.8738 70.833 45.3831 70.833C45.8881 70.833 46.2599 70.9953 46.4984 71.3198C46.737 71.6421 46.8595 72.1407 46.8659 72.8154V73.5891ZM46.2696 72.7735C46.2696 72.2685 46.1987 71.9011 46.0568 71.6711C45.915 71.439 45.6904 71.323 45.3831 71.323C45.078 71.323 44.8556 71.438 44.7159 71.6679C44.5762 71.8978 44.5042 72.2513 44.4999 72.7284V73.6825C44.4999 74.1897 44.573 74.5647 44.7191 74.8075C44.8674 75.0482 45.0909 75.1686 45.3896 75.1686C45.684 75.1686 45.9021 75.0547 46.0439 74.8269C46.1879 74.5991 46.2631 74.2402 46.2696 73.7502V72.7735Z" fill="#6C6C6C"/>
<path d="M42.5014 91.352C42.3767 91.5003 42.2274 91.6196 42.0533 91.7098C41.8814 91.8001 41.6923 91.8452 41.486 91.8452C41.2152 91.8452 40.9788 91.7786 40.7768 91.6454C40.577 91.5121 40.4223 91.3252 40.3127 91.0845C40.2031 90.8417 40.1483 90.5741 40.1483 90.2819C40.1483 89.9681 40.2074 89.6855 40.3256 89.4341C40.4459 89.1827 40.6157 88.9903 40.8349 88.8571C41.0541 88.7239 41.3098 88.6573 41.602 88.6573C42.0662 88.6573 42.4315 88.8313 42.698 89.1794C42.9666 89.5254 43.1009 89.9982 43.1009 90.5978V90.7718C43.1009 91.6851 42.9204 92.3524 42.5594 92.7736C42.1984 93.1926 41.6536 93.4075 40.9251 93.4183H40.8091V92.9154H40.9348C41.4269 92.9068 41.8051 92.7789 42.0694 92.5318C42.3338 92.2825 42.4777 91.8893 42.5014 91.352ZM41.5827 91.352C41.7826 91.352 41.9663 91.2908 42.1339 91.1683C42.3037 91.0458 42.4272 90.8943 42.5046 90.7138V90.4753C42.5046 90.0842 42.4197 89.7661 42.25 89.5211C42.0802 89.2762 41.8653 89.1537 41.6053 89.1537C41.3431 89.1537 41.1325 89.2547 40.9735 89.4567C40.8145 89.6565 40.7349 89.9208 40.7349 90.2496C40.7349 90.5698 40.8112 90.8341 40.9638 91.0426C41.1185 91.2489 41.3248 91.352 41.5827 91.352ZM46.8659 91.4133C46.8659 92.1117 46.7466 92.6307 46.5081 92.9702C46.2696 93.3097 45.8967 93.4795 45.3896 93.4795C44.8889 93.4795 44.5182 93.314 44.2775 92.9831C44.0368 92.65 43.9122 92.1536 43.9036 91.4939V90.6977C43.9036 90.0079 44.0228 89.4953 44.2614 89.1601C44.4999 88.8249 44.8738 88.6573 45.3831 88.6573C45.8881 88.6573 46.2599 88.8195 46.4984 89.144C46.737 89.4663 46.8595 89.9649 46.8659 90.6397V91.4133ZM46.2696 90.5978C46.2696 90.0928 46.1987 89.7253 46.0568 89.4953C45.915 89.2633 45.6904 89.1472 45.3831 89.1472C45.078 89.1472 44.8556 89.2622 44.7159 89.4921C44.5762 89.7221 44.5042 90.0756 44.4999 90.5526V91.5068C44.4999 92.0139 44.573 92.3889 44.7191 92.6317C44.8674 92.8724 45.0909 92.9928 45.3896 92.9928C45.684 92.9928 45.9021 92.8789 46.0439 92.6511C46.1879 92.4233 46.2631 92.0644 46.2696 91.5745V90.5978Z" fill="#6C6C6C"/>
<path d="M43.0623 108.431C43.0623 108.665 42.9999 108.874 42.8753 109.056C42.7528 109.239 42.5863 109.382 42.3757 109.485C42.6206 109.59 42.8141 109.744 42.9559 109.946C43.0999 110.148 43.1719 110.377 43.1719 110.633C43.1719 111.039 43.0343 111.362 42.7593 111.603C42.4863 111.844 42.1264 111.964 41.6794 111.964C41.2281 111.964 40.866 111.844 40.5931 111.603C40.3223 111.36 40.187 111.037 40.187 110.633C40.187 110.379 40.2557 110.15 40.3933 109.946C40.5329 109.742 40.7253 109.587 40.9703 109.482C40.7618 109.379 40.5974 109.236 40.4771 109.053C40.3567 108.87 40.2966 108.663 40.2966 108.431C40.2966 108.036 40.4233 107.722 40.6769 107.49C40.9305 107.258 41.2647 107.142 41.6794 107.142C42.092 107.142 42.4251 107.258 42.6787 107.49C42.9344 107.722 43.0623 108.036 43.0623 108.431ZM42.5755 110.62C42.5755 110.358 42.4917 110.144 42.3241 109.978C42.1586 109.813 41.9416 109.73 41.673 109.73C41.4043 109.73 41.1884 109.812 41.025 109.975C40.8639 110.138 40.7833 110.353 40.7833 110.62C40.7833 110.886 40.8617 111.096 41.0186 111.248C41.1776 111.401 41.3979 111.477 41.6794 111.477C41.9588 111.477 42.178 111.401 42.337 111.248C42.496 111.094 42.5755 110.884 42.5755 110.62ZM41.6794 107.632C41.4452 107.632 41.255 107.705 41.1089 107.851C40.9649 107.995 40.8929 108.191 40.8929 108.441C40.8929 108.679 40.9638 108.873 41.1056 109.021C41.2496 109.167 41.4409 109.24 41.6794 109.24C41.9179 109.24 42.1081 109.167 42.25 109.021C42.3939 108.873 42.4659 108.679 42.4659 108.441C42.4659 108.202 42.3918 108.008 42.2435 107.857C42.0952 107.707 41.9072 107.632 41.6794 107.632ZM46.8659 109.898C46.8659 110.596 46.7466 111.115 46.5081 111.455C46.2696 111.794 45.8967 111.964 45.3896 111.964C44.8889 111.964 44.5182 111.798 44.2775 111.467C44.0368 111.134 43.9122 110.638 43.9036 109.978V109.182C43.9036 108.492 44.0228 107.98 44.2614 107.644C44.4999 107.309 44.8738 107.142 45.3831 107.142C45.8881 107.142 46.2599 107.304 46.4984 107.628C46.737 107.951 46.8595 108.449 46.8659 109.124V109.898ZM46.2696 109.082C46.2696 108.577 46.1987 108.21 46.0568 107.98C45.915 107.748 45.6904 107.632 45.3831 107.632C45.078 107.632 44.8556 107.747 44.7159 107.976C44.5762 108.206 44.5042 108.56 44.4999 109.037V109.991C44.4999 110.498 44.573 110.873 44.7191 111.116C44.8674 111.357 45.0909 111.477 45.3896 111.477C45.684 111.477 45.9021 111.363 46.0439 111.135C46.1879 110.908 46.2631 110.549 46.2696 110.059V109.082Z" fill="#6C6C6C"/>
<path d="M43.246 125.366L41.3023 129.724H40.6769L42.6142 125.52H40.0741V125.03H43.246V125.366ZM46.8659 127.722C46.8659 128.42 46.7466 128.939 46.5081 129.279C46.2696 129.618 45.8967 129.788 45.3896 129.788C44.8889 129.788 44.5182 129.623 44.2775 129.292C44.0368 128.959 43.9122 128.462 43.9036 127.802V127.006C43.9036 126.316 44.0228 125.804 44.2614 125.469C44.4999 125.133 44.8738 124.966 45.3831 124.966C45.8881 124.966 46.2599 125.128 46.4984 125.453C46.737 125.775 46.8595 126.273 46.8659 126.948V127.722ZM46.2696 126.906C46.2696 126.401 46.1987 126.034 46.0568 125.804C45.915 125.572 45.6904 125.456 45.3831 125.456C45.078 125.456 44.8556 125.571 44.7159 125.801C44.5762 126.031 44.5042 126.384 44.4999 126.861V127.815C44.4999 128.323 44.573 128.698 44.7191 128.94C44.8674 129.181 45.0909 129.301 45.3896 129.301C45.684 129.301 45.9021 129.187 46.0439 128.96C46.1879 128.732 46.2631 128.373 46.2696 127.883V126.906Z" fill="#6C6C6C"/>
<path d="M42.5562 143.511V144.018H42.4466C41.9824 144.026 41.6128 144.164 41.3377 144.43C41.0627 144.697 40.9036 145.072 40.8607 145.555C41.1078 145.271 41.4452 145.13 41.8728 145.13C42.2811 145.13 42.6067 145.274 42.8495 145.562C43.0945 145.85 43.217 146.221 43.217 146.677C43.217 147.16 43.0848 147.547 42.8205 147.837C42.5583 148.127 42.2059 148.272 41.7632 148.272C41.3141 148.272 40.9498 148.101 40.6705 147.757C40.3911 147.411 40.2514 146.966 40.2514 146.422V146.193C40.2514 145.329 40.4352 144.67 40.8026 144.214C41.1723 143.756 41.7213 143.522 42.4498 143.511H42.5562ZM41.7729 145.626C41.5687 145.626 41.3807 145.687 41.2088 145.81C41.0369 145.932 40.9176 146.086 40.851 146.271V146.49C40.851 146.877 40.938 147.188 41.1121 147.425C41.2861 147.661 41.5032 147.779 41.7632 147.779C42.0318 147.779 42.2424 147.68 42.395 147.483C42.5497 147.285 42.6271 147.026 42.6271 146.706C42.6271 146.384 42.5487 146.124 42.3918 145.926C42.2371 145.726 42.0308 145.626 41.7729 145.626ZM46.8659 146.206C46.8659 146.905 46.7466 147.424 46.5081 147.763C46.2696 148.103 45.8967 148.272 45.3896 148.272C44.8889 148.272 44.5182 148.107 44.2775 147.776C44.0368 147.443 43.9122 146.947 43.9036 146.287V145.491C43.9036 144.801 44.0228 144.288 44.2614 143.953C44.4999 143.618 44.8738 143.45 45.3831 143.45C45.8881 143.45 46.2599 143.612 46.4984 143.937C46.737 144.259 46.8595 144.758 46.8659 145.433V146.206ZM46.2696 145.391C46.2696 144.886 46.1987 144.518 46.0568 144.288C45.915 144.056 45.6904 143.94 45.3831 143.94C45.078 143.94 44.8556 144.055 44.7159 144.285C44.5762 144.515 44.5042 144.869 44.4999 145.346V146.3C44.4999 146.807 44.573 147.182 44.7191 147.425C44.8674 147.665 45.0909 147.786 45.3896 147.786C45.684 147.786 45.9021 147.672 46.0439 147.444C46.1879 147.216 46.2631 146.857 46.2696 146.367V145.391Z" fill="#6C6C6C"/>
<path d="M40.49 163.68L40.7285 161.34H43.1332V161.891H41.2346L41.0927 163.171C41.3227 163.035 41.5838 162.968 41.876 162.968C42.3037 162.968 42.6432 163.11 42.8946 163.393C43.1461 163.675 43.2718 164.056 43.2718 164.538C43.2718 165.021 43.1407 165.402 42.8785 165.682C42.6185 165.959 42.2543 166.098 41.7858 166.098C41.371 166.098 41.0326 165.983 40.7704 165.753C40.5082 165.523 40.3589 165.205 40.3223 164.799H40.8864C40.923 165.067 41.0186 165.27 41.1733 165.408C41.3281 165.543 41.5322 165.611 41.7858 165.611C42.063 165.611 42.28 165.516 42.4369 165.327C42.5959 165.138 42.6754 164.877 42.6754 164.544C42.6754 164.23 42.5895 163.979 42.4176 163.79C42.2478 163.598 42.0211 163.503 41.7374 163.503C41.4774 163.503 41.2733 163.56 41.125 163.674L40.967 163.803L40.49 163.68ZM46.8659 164.031C46.8659 164.73 46.7466 165.249 46.5081 165.588C46.2696 165.928 45.8967 166.098 45.3896 166.098C44.8889 166.098 44.5182 165.932 44.2775 165.601C44.0368 165.268 43.9122 164.772 43.9036 164.112V163.316C43.9036 162.626 44.0228 162.114 44.2614 161.778C44.4999 161.443 44.8738 161.275 45.3831 161.275C45.8881 161.275 46.2599 161.438 46.4984 161.762C46.737 162.084 46.8595 162.583 46.8659 163.258V164.031ZM46.2696 163.216C46.2696 162.711 46.1987 162.343 46.0568 162.114C45.915 161.881 45.6904 161.765 45.3831 161.765C45.078 161.765 44.8556 161.88 44.7159 162.11C44.5762 162.34 44.5042 162.694 44.4999 163.171V164.125C44.4999 164.632 44.573 165.007 44.7191 165.25C44.8674 165.491 45.0909 165.611 45.3896 165.611C45.684 165.611 45.9021 165.497 46.0439 165.269C46.1879 165.041 46.2631 164.683 46.2696 164.193V163.216Z" fill="#6C6C6C"/>
<path d="M42.7335 182.941H43.3846V183.428H42.7335V184.518H42.1339V183.428H39.9968V183.077L42.0985 179.824H42.7335V182.941ZM40.6737 182.941H42.1339V180.64L42.063 180.769L40.6737 182.941ZM46.8659 182.516C46.8659 183.214 46.7466 183.733 46.5081 184.073C46.2696 184.412 45.8967 184.582 45.3896 184.582C44.8889 184.582 44.5182 184.417 44.2775 184.086C44.0368 183.753 43.9122 183.256 43.9036 182.596V181.8C43.9036 181.11 44.0228 180.598 44.2614 180.263C44.4999 179.927 44.8738 179.76 45.3831 179.76C45.8881 179.76 46.2599 179.922 46.4984 180.247C46.737 180.569 46.8595 181.067 46.8659 181.742V182.516ZM46.2696 181.7C46.2696 181.195 46.1987 180.828 46.0568 180.598C45.915 180.366 45.6904 180.25 45.3831 180.25C45.078 180.25 44.8556 180.365 44.7159 180.595C44.5762 180.825 44.5042 181.178 44.4999 181.655V182.609C44.4999 183.116 44.573 183.491 44.7191 183.734C44.8674 183.975 45.0909 184.095 45.3896 184.095C45.684 184.095 45.9021 183.981 46.0439 183.754C46.1879 183.526 46.2631 183.167 46.2696 182.677V181.7Z" fill="#6C6C6C"/>
<path d="M41.0831 199.705H41.5311C41.8126 199.701 42.034 199.627 42.1952 199.483C42.3563 199.339 42.4369 199.144 42.4369 198.899C42.4369 198.349 42.1629 198.074 41.6149 198.074C41.3571 198.074 41.1508 198.148 40.996 198.296C40.8435 198.443 40.7672 198.637 40.7672 198.88H40.1708C40.1708 198.508 40.3062 198.2 40.577 197.955C40.8499 197.708 41.1959 197.584 41.6149 197.584C42.0576 197.584 42.4047 197.701 42.6561 197.935C42.9075 198.17 43.0332 198.495 43.0332 198.912C43.0332 199.116 42.9666 199.314 42.8334 199.505C42.7023 199.696 42.5229 199.839 42.2951 199.934C42.553 200.016 42.7517 200.151 42.8914 200.34C43.0332 200.529 43.1042 200.76 43.1042 201.033C43.1042 201.454 42.9666 201.788 42.6916 202.036C42.4165 202.283 42.0587 202.406 41.6182 202.406C41.1776 202.406 40.8187 202.287 40.5415 202.048C40.2665 201.81 40.1289 201.495 40.1289 201.104H40.7285C40.7285 201.351 40.8091 201.549 40.9703 201.697C41.1314 201.845 41.3474 201.92 41.6182 201.92C41.9061 201.92 42.1264 201.844 42.279 201.694C42.4315 201.543 42.5078 201.327 42.5078 201.046C42.5078 200.773 42.424 200.564 42.2564 200.417C42.0888 200.271 41.847 200.196 41.5311 200.192H41.0831V199.705ZM46.8659 200.34C46.8659 201.038 46.7466 201.557 46.5081 201.897C46.2696 202.236 45.8967 202.406 45.3896 202.406C44.8889 202.406 44.5182 202.241 44.2775 201.91C44.0368 201.577 43.9122 201.08 43.9036 200.421V199.624C43.9036 198.935 44.0228 198.422 44.2614 198.087C44.4999 197.752 44.8738 197.584 45.3831 197.584C45.8881 197.584 46.2599 197.746 46.4984 198.071C46.737 198.393 46.8595 198.892 46.8659 199.566V200.34ZM46.2696 199.525C46.2696 199.02 46.1987 198.652 46.0568 198.422C45.915 198.19 45.6904 198.074 45.3831 198.074C45.078 198.074 44.8556 198.189 44.7159 198.419C44.5762 198.649 44.5042 199.002 44.4999 199.479V200.434C44.4999 200.941 44.573 201.316 44.7191 201.559C44.8674 201.799 45.0909 201.92 45.3896 201.92C45.684 201.92 45.9021 201.806 46.0439 201.578C46.1879 201.35 46.2631 200.991 46.2696 200.501V199.525Z" fill="#6C6C6C"/>
<path d="M43.2911 220.826H40.216V220.397L41.8406 218.592C42.0813 218.319 42.2467 218.098 42.337 217.928C42.4294 217.756 42.4756 217.579 42.4756 217.396C42.4756 217.151 42.4015 216.951 42.2532 216.794C42.1049 216.637 41.9072 216.558 41.6601 216.558C41.3635 216.558 41.1325 216.643 40.967 216.813C40.8037 216.981 40.722 217.215 40.722 217.516H40.1257C40.1257 217.084 40.2643 216.735 40.5415 216.468C40.8209 216.202 41.1937 216.068 41.6601 216.068C42.0963 216.068 42.4412 216.183 42.6948 216.413C42.9484 216.641 43.0752 216.945 43.0752 217.326C43.0752 217.788 42.7807 218.338 42.1919 218.976L40.9348 220.339H43.2911V220.826ZM46.8659 218.824C46.8659 219.523 46.7466 220.042 46.5081 220.381C46.2696 220.721 45.8967 220.891 45.3896 220.891C44.8889 220.891 44.5182 220.725 44.2775 220.394C44.0368 220.061 43.9122 219.565 43.9036 218.905V218.109C43.9036 217.419 44.0228 216.906 44.2614 216.571C44.4999 216.236 44.8738 216.068 45.3831 216.068C45.8881 216.068 46.2599 216.231 46.4984 216.555C46.737 216.877 46.8595 217.376 46.8659 218.051V218.824ZM46.2696 218.009C46.2696 217.504 46.1987 217.136 46.0568 216.906C45.915 216.674 45.6904 216.558 45.3831 216.558C45.078 216.558 44.8556 216.673 44.7159 216.903C44.5762 217.133 44.5042 217.487 44.4999 217.964V218.918C44.4999 219.425 44.573 219.8 44.7191 220.043C44.8674 220.284 45.0909 220.404 45.3896 220.404C45.684 220.404 45.9021 220.29 46.0439 220.062C46.1879 219.834 46.2631 219.476 46.2696 218.986V218.009Z" fill="#6C6C6C"/>
<path d="M42.1758 238.65H41.5763V234.676L40.3739 235.118V234.576L42.0823 233.935H42.1758V238.65ZM46.8659 236.649C46.8659 237.347 46.7466 237.866 46.5081 238.206C46.2696 238.545 45.8967 238.715 45.3896 238.715C44.8889 238.715 44.5182 238.549 44.2775 238.218C44.0368 237.885 43.9122 237.389 43.9036 236.729V235.933C43.9036 235.243 44.0228 234.731 44.2614 234.395C44.4999 234.06 44.8738 233.893 45.3831 233.893C45.8881 233.893 46.2599 234.055 46.4984 234.379C46.737 234.702 46.8595 235.2 46.8659 235.875V236.649ZM46.2696 235.833C46.2696 235.328 46.1987 234.961 46.0568 234.731C45.915 234.499 45.6904 234.383 45.3831 234.383C45.078 234.383 44.8556 234.498 44.7159 234.727C44.5762 234.957 44.5042 235.311 44.4999 235.788V236.742C44.4999 237.249 44.573 237.624 44.7191 237.867C44.8674 238.108 45.0909 238.228 45.3896 238.228C45.684 238.228 45.9021 238.114 46.0439 237.886C46.1879 237.659 46.2631 237.3 46.2696 236.81V235.833Z" fill="#6C6C6C"/>
<path d="M46.8659 255.133C46.8659 255.831 46.7466 256.35 46.5081 256.69C46.2696 257.029 45.8967 257.199 45.3896 257.199C44.8889 257.199 44.5182 257.034 44.2775 256.703C44.0368 256.37 43.9122 255.873 43.9036 255.214V254.417C43.9036 253.728 44.0228 253.215 44.2614 252.88C44.4999 252.545 44.8738 252.377 45.3831 252.377C45.8881 252.377 46.2599 252.539 46.4984 252.864C46.737 253.186 46.8595 253.685 46.8659 254.359V255.133ZM46.2696 254.317C46.2696 253.812 46.1987 253.445 46.0568 253.215C45.915 252.983 45.6904 252.867 45.3831 252.867C45.078 252.867 44.8556 252.982 44.7159 253.212C44.5762 253.442 44.5042 253.795 44.4999 254.272V255.226C44.4999 255.734 44.573 256.109 44.7191 256.351C44.8674 256.592 45.0909 256.712 45.3896 256.712C45.684 256.712 45.9021 256.599 46.0439 256.371C46.1879 256.143 46.2631 255.784 46.2696 255.294V254.317Z" fill="#6C6C6C"/>
<path d="M54.8159 254.435V72.8916" stroke="#F0F0F0" stroke-width="0.660159"/>
<path d="M147.483 254.435V72.8916" stroke="#F0F0F0" stroke-width="0.660159"/>
<path d="M240.151 254.435V72.8916" stroke="#F0F0F0" stroke-width="0.660159"/>
<path d="M332.02 254.435V72.8916" stroke="#F0F0F0" stroke-width="0.660159"/>
<path d="M424.688 254.435V72.8916" stroke="#F0F0F0" stroke-width="0.660159"/>
<path d="M54.8159 72.8916H424.688" stroke="#F0F0F0" stroke-width="0.660159"/>
<path d="M54.8159 90.7158H424.688" stroke="#F0F0F0" stroke-width="0.660159"/>
<path d="M54.8159 109.2H424.688" stroke="#F0F0F0" stroke-width="0.660159"/>
<path d="M54.8159 127.024H424.688" stroke="#F0F0F0" stroke-width="0.660159"/>
<path d="M54.8159 145.509H424.688" stroke="#F0F0F0" stroke-width="0.660159"/>
<path d="M54.8159 163.334H424.688" stroke="#F0F0F0" stroke-width="0.660159"/>
<path d="M54.8159 181.818H424.688" stroke="#F0F0F0" stroke-width="0.660159"/>
<path d="M54.8159 199.643H424.688" stroke="#F0F0F0" stroke-width="0.660159"/>
<path d="M54.8159 218.127H424.688" stroke="#F0F0F0" stroke-width="0.660159"/>
<path d="M54.8159 235.951H424.688" stroke="#F0F0F0" stroke-width="0.660159"/>
<path d="M54.8159 254.436H424.688" stroke="#F0F0F0" stroke-width="0.660159"/>
<path d="M54.8159 254.435C54.8159 254.435 101.15 97.9775 147.484 97.9775C193.817 97.9775 193.817 226.709 240.151 226.709C285.686 226.709 285.686 172.576 332.02 172.576C378.354 172.576 424.688 212.185 424.688 212.185" stroke="#A6CEE3" stroke-width="1.32032"/>
<path d="M52.0326 254.564C52.0326 255.265 52.3693 255.936 52.9686 256.432C53.5678 256.927 54.3805 257.205 55.228 257.205C56.0755 257.205 56.8882 256.927 57.4875 256.432C58.0868 255.936 58.4235 255.265 58.4235 254.564C58.4235 253.864 58.0868 253.192 57.4875 252.697C56.8882 252.202 56.0755 251.924 55.228 251.924C54.3805 251.924 53.5678 252.202 52.9686 252.697C52.3693 253.192 52.0326 253.864 52.0326 254.564Z" fill="#A6CEE3"/>
<path d="M144.501 98.4365C144.501 99.1369 144.838 99.8085 145.437 100.304C146.036 100.799 146.849 101.077 147.697 101.077C148.544 101.077 149.357 100.799 149.956 100.304C150.555 99.8085 150.892 99.1369 150.892 98.4365C150.892 97.7362 150.555 97.0645 149.956 96.5693C149.357 96.0741 148.544 95.7959 147.697 95.7959C146.849 95.7959 146.036 96.0741 145.437 96.5693C144.838 97.0645 144.501 97.7362 144.501 98.4365Z" fill="#A6CEE3"/>
<path d="M236.969 227.333C236.969 228.033 237.306 228.705 237.905 229.2C238.504 229.695 239.317 229.974 240.165 229.974C241.012 229.974 241.825 229.695 242.425 229.2C243.024 228.705 243.36 228.033 243.36 227.333C243.36 226.633 243.024 225.961 242.425 225.466C241.825 224.971 241.012 224.692 240.165 224.692C239.317 224.692 238.504 224.971 237.905 225.466C237.306 225.961 236.969 226.633 236.969 227.333Z" fill="#A6CEE3"/>
<path d="M329.437 172.869C329.437 173.569 329.774 174.241 330.373 174.736C330.972 175.232 331.785 175.51 332.633 175.51C333.48 175.51 334.293 175.232 334.892 174.736C335.491 174.241 335.828 173.569 335.828 172.869C335.828 172.169 335.491 171.497 334.892 171.002C334.293 170.507 333.48 170.229 332.633 170.229C331.785 170.229 330.972 170.507 330.373 171.002C329.774 171.497 329.437 172.169 329.437 172.869Z" fill="#A6CEE3"/>
<path d="M421.905 212.81C421.905 213.51 422.242 214.182 422.841 214.677C423.44 215.172 424.253 215.45 425.101 215.45C425.948 215.45 426.761 215.172 427.36 214.677C427.96 214.182 428.296 213.51 428.296 212.81C428.296 212.109 427.96 211.438 427.36 210.942C426.761 210.447 425.948 210.169 425.101 210.169C424.253 210.169 423.44 210.447 422.841 210.942C422.242 211.438 421.905 212.109 421.905 212.81Z" fill="#A6CEE3"/>
<path d="M54.8159 183.138C54.8159 183.138 101.15 252.455 147.484 252.455C193.817 252.455 193.817 163.333 240.151 163.333C285.686 163.333 285.686 94.6768 332.02 94.6768C378.354 94.6768 424.688 81.4736 424.688 81.4736" stroke="#1F78B4" stroke-width="1.32032"/>
<path d="M52.0326 183.763C52.0326 184.463 52.3693 185.135 52.9686 185.63C53.5678 186.125 54.3805 186.403 55.228 186.403C56.0755 186.403 56.8882 186.125 57.4875 185.63C58.0868 185.135 58.4235 184.463 58.4235 183.763C58.4235 183.062 58.0868 182.391 57.4875 181.895C56.8882 181.4 56.0755 181.122 55.228 181.122C54.3805 181.122 53.5678 181.4 52.9686 181.895C52.3693 182.391 52.0326 183.062 52.0326 183.763Z" fill="#1F78B4"/>
<path d="M144.501 252.749C144.501 253.449 144.838 254.121 145.437 254.616C146.036 255.111 146.849 255.39 147.697 255.39C148.544 255.39 149.357 255.111 149.956 254.616C150.555 254.121 150.892 253.449 150.892 252.749C150.892 252.049 150.555 251.377 149.956 250.882C149.357 250.387 148.544 250.108 147.697 250.108C146.849 250.108 146.036 250.387 145.437 250.882C144.838 251.377 144.501 252.049 144.501 252.749Z" fill="#1F78B4"/>
<path d="M236.969 163.793C236.969 164.493 237.306 165.165 237.905 165.66C238.504 166.155 239.317 166.434 240.165 166.434C241.012 166.434 241.825 166.155 242.425 165.66C243.024 165.165 243.36 164.493 243.36 163.793C243.36 163.093 243.024 162.421 242.425 161.926C241.825 161.431 241.012 161.152 240.165 161.152C239.317 161.152 238.504 161.431 237.905 161.926C237.306 162.421 236.969 163.093 236.969 163.793Z" fill="#1F78B4"/>
<path d="M329.437 94.8057C329.437 95.506 329.774 96.1777 330.373 96.6729C330.972 97.1681 331.785 97.4463 332.633 97.4463C333.48 97.4463 334.293 97.1681 334.892 96.6729C335.491 96.1777 335.828 95.506 335.828 94.8057C335.828 94.1053 335.491 93.4337 334.892 92.9385C334.293 92.4432 333.48 92.165 332.633 92.165C331.785 92.165 330.972 92.4432 330.373 92.9385C329.774 93.4337 329.437 94.1053 329.437 94.8057Z" fill="#1F78B4"/>
<path d="M421.905 82.0977C421.905 82.798 422.242 83.4697 422.841 83.9649C423.44 84.4601 424.253 84.7383 425.101 84.7383C425.948 84.7383 426.761 84.4601 427.36 83.9649C427.96 83.4697 428.296 82.798 428.296 82.0977C428.296 81.3973 427.96 80.7257 427.36 80.2305C426.761 79.7352 425.948 79.457 425.101 79.457C424.253 79.457 423.44 79.7352 422.841 80.2305C422.242 80.7257 421.905 81.3973 421.905 82.0977Z" fill="#1F78B4"/>
<path d="M54.8159 154.091C54.8159 154.091 101.15 247.173 147.484 247.173C193.817 247.173 193.817 204.923 240.151 204.923C285.686 204.923 285.686 107.22 332.02 107.22C378.354 107.22 424.688 141.548 424.688 141.548" stroke="#B2DF8A" stroke-width="1.32032"/>
<path d="M52.0326 154.716C52.0326 155.416 52.3693 156.088 52.9686 156.583C53.5678 157.078 54.3805 157.356 55.228 157.356C56.0755 157.356 56.8882 157.078 57.4875 156.583C58.0868 156.088 58.4235 155.416 58.4235 154.716C58.4235 154.015 58.0868 153.344 57.4875 152.849C56.8882 152.353 56.0755 152.075 55.228 152.075C54.3805 152.075 53.5678 152.353 52.9686 152.849C52.3693 153.344 52.0326 154.015 52.0326 154.716Z" fill="#B2DF8A"/>
<path d="M144.501 247.303C144.501 248.003 144.838 248.675 145.437 249.17C146.036 249.665 146.849 249.943 147.697 249.943C148.544 249.943 149.357 249.665 149.956 249.17C150.555 248.675 150.892 248.003 150.892 247.303C150.892 246.602 150.555 245.931 149.956 245.436C149.357 244.94 148.544 244.662 147.697 244.662C146.849 244.662 146.036 244.94 145.437 245.436C144.838 245.931 144.501 246.602 144.501 247.303Z" fill="#B2DF8A"/>
<path d="M236.969 205.548C236.969 206.248 237.306 206.92 237.905 207.415C238.504 207.91 239.317 208.189 240.165 208.189C241.012 208.189 241.825 207.91 242.425 207.415C243.024 206.92 243.36 206.248 243.36 205.548C243.36 204.848 243.024 204.176 242.425 203.681C241.825 203.185 241.012 202.907 240.165 202.907C239.317 202.907 238.504 203.185 237.905 203.681C237.306 204.176 236.969 204.848 236.969 205.548Z" fill="#B2DF8A"/>
<path d="M329.437 107.514C329.437 108.214 329.774 108.886 330.373 109.381C330.972 109.876 331.785 110.154 332.633 110.154C333.48 110.154 334.293 109.876 334.892 109.381C335.491 108.886 335.828 108.214 335.828 107.514C335.828 106.813 335.491 106.142 334.892 105.646C334.293 105.151 333.48 104.873 332.633 104.873C331.785 104.873 330.972 105.151 330.373 105.646C329.774 106.142 329.437 106.813 329.437 107.514Z" fill="#B2DF8A"/>
<path d="M421.905 142.007C421.905 142.707 422.242 143.379 422.841 143.874C423.44 144.369 424.253 144.647 425.101 144.647C425.948 144.647 426.761 144.369 427.36 143.874C427.96 143.379 428.296 142.707 428.296 142.007C428.296 141.307 427.96 140.635 427.36 140.14C426.761 139.644 425.948 139.366 425.101 139.366C424.253 139.366 423.44 139.644 422.841 140.14C422.242 140.635 421.905 141.307 421.905 142.007Z" fill="#B2DF8A"/>
<path d="M54.8159 146.829C54.8159 146.829 101.15 216.146 147.484 216.146C193.817 216.146 193.817 197.661 240.151 197.661C285.686 197.661 285.686 161.353 332.02 161.353C378.354 161.353 424.688 138.247 424.688 138.247" stroke="#33A02C" stroke-width="1.32032"/>
<path d="M52.0326 147.453C52.0326 148.153 52.3693 148.825 52.9686 149.32C53.5678 149.816 54.3805 150.094 55.228 150.094C56.0755 150.094 56.8882 149.816 57.4875 149.32C58.0868 148.825 58.4235 148.153 58.4235 147.453C58.4235 146.753 58.0868 146.081 57.4875 145.586C56.8882 145.091 56.0755 144.812 55.228 144.812C54.3805 144.812 53.5678 145.091 52.9686 145.586C52.3693 146.081 52.0326 146.753 52.0326 147.453Z" fill="#33A02C"/>
<path d="M144.501 216.44C144.501 217.141 144.838 217.812 145.437 218.308C146.036 218.803 146.849 219.081 147.697 219.081C148.544 219.081 149.357 218.803 149.956 218.308C150.555 217.812 150.892 217.141 150.892 216.44C150.892 215.74 150.555 215.068 149.956 214.573C149.357 214.078 148.544 213.8 147.697 213.8C146.849 213.8 146.036 214.078 145.437 214.573C144.838 215.068 144.501 215.74 144.501 216.44Z" fill="#33A02C"/>
<path d="M236.969 198.286C236.969 198.986 237.306 199.658 237.905 200.153C238.504 200.649 239.317 200.927 240.165 200.927C241.012 200.927 241.825 200.649 242.425 200.153C243.024 199.658 243.36 198.986 243.36 198.286C243.36 197.586 243.024 196.914 242.425 196.419C241.825 195.924 241.012 195.646 240.165 195.646C239.317 195.646 238.504 195.924 237.905 196.419C237.306 196.914 236.969 197.586 236.969 198.286Z" fill="#33A02C"/>
<path d="M329.437 161.977C329.437 162.677 329.774 163.349 330.373 163.844C330.972 164.339 331.785 164.617 332.633 164.617C333.48 164.617 334.293 164.339 334.892 163.844C335.491 163.349 335.828 162.677 335.828 161.977C335.828 161.276 335.491 160.605 334.892 160.109C334.293 159.614 333.48 159.336 332.633 159.336C331.785 159.336 330.972 159.614 330.373 160.109C329.774 160.605 329.437 161.276 329.437 161.977Z" fill="#33A02C"/>
<path d="M421.905 138.377C421.905 139.077 422.242 139.749 422.841 140.244C423.44 140.739 424.253 141.018 425.101 141.018C425.948 141.018 426.761 140.739 427.36 140.244C427.96 139.749 428.296 139.077 428.296 138.377C428.296 137.677 427.96 137.005 427.36 136.51C426.761 136.015 425.948 135.736 425.101 135.736C424.253 135.736 423.44 136.015 422.841 136.51C422.242 137.005 421.905 137.677 421.905 138.377Z" fill="#33A02C"/>
<defs>
<filter id="filter0_d" x="0" y="0" width="495" height="297" filterUnits="userSpaceOnUse" color-interpolation-filters="sRGB">
<feFlood flood-opacity="0" result="BackgroundImageFix"/>
<feColorMatrix in="SourceAlpha" type="matrix" values="0 0 0 0 0 0 0 0 0 0 0 0 0 0 0 0 0 0 127 0"/>
<feOffset/>
<feGaussianBlur stdDeviation="4"/>
<feColorMatrix type="matrix" values="0 0 0 0 0 0 0 0 0 0 0 0 0 0 0 0 0 0 0.25 0"/>
<feBlend mode="normal" in2="BackgroundImageFix" result="effect1_dropShadow"/>
<feBlend mode="normal" in="SourceGraphic" in2="effect1_dropShadow" result="shape"/>
</filter>
</defs>
</svg>
