<svg width="495" height="297" viewBox="0 0 495 297" fill="none" xmlns="http://www.w3.org/2000/svg">
<g filter="url(#filter0_d)">
<rect x="8" y="8" width="479" height="281" rx="5" fill="white"/>
</g>
<path d="M82.5254 49.0352C82.5254 50.3242 82.0599 51.3398 81.1289 52.082C80.2044 52.8242 78.9154 53.1953 77.2617 53.1953C75.7383 53.1953 74.3906 52.9089 73.2188 52.3359V49.5234C74.1823 49.9531 74.9961 50.2559 75.6602 50.4316C76.3307 50.6074 76.9427 50.6953 77.4961 50.6953C78.1602 50.6953 78.668 50.5684 79.0195 50.3145C79.3776 50.0605 79.5566 49.6829 79.5566 49.1816C79.5566 48.9017 79.4785 48.6543 79.3223 48.4395C79.166 48.2181 78.9349 48.0065 78.6289 47.8047C78.3294 47.6029 77.7142 47.2806 76.7832 46.8379C75.9108 46.4277 75.2565 46.0339 74.8203 45.6562C74.3841 45.2786 74.0358 44.8392 73.7754 44.3379C73.515 43.8366 73.3848 43.2507 73.3848 42.5801C73.3848 41.3171 73.8112 40.3242 74.6641 39.6016C75.5234 38.8789 76.7083 38.5176 78.2188 38.5176C78.9609 38.5176 79.6673 38.6055 80.3379 38.7812C81.015 38.957 81.7214 39.2044 82.457 39.5234L81.4805 41.877C80.7188 41.5645 80.0872 41.3464 79.5859 41.2227C79.0911 41.099 78.6029 41.0371 78.1211 41.0371C77.5482 41.0371 77.1087 41.1706 76.8027 41.4375C76.4967 41.7044 76.3438 42.0527 76.3438 42.4824C76.3438 42.7493 76.4056 42.9837 76.5293 43.1855C76.653 43.3809 76.8483 43.5729 77.1152 43.7617C77.3887 43.944 78.0299 44.276 79.0391 44.7578C80.3737 45.3958 81.2884 46.0371 81.7832 46.6816C82.278 47.3197 82.5254 48.1042 82.5254 49.0352ZM91.8125 53L91.2363 51.5156H91.1582C90.6569 52.1471 90.1393 52.5866 89.6055 52.834C89.0781 53.0749 88.388 53.1953 87.5352 53.1953C86.487 53.1953 85.6602 52.8958 85.0547 52.2969C84.4557 51.6979 84.1562 50.8451 84.1562 49.7383C84.1562 48.5794 84.5599 47.7266 85.3672 47.1797C86.181 46.6263 87.4049 46.3203 89.0391 46.2617L90.9336 46.2031V45.7246C90.9336 44.6178 90.3672 44.0645 89.2344 44.0645C88.362 44.0645 87.3366 44.3281 86.1582 44.8555L85.1719 42.8438C86.4284 42.1862 87.8216 41.8574 89.3516 41.8574C90.8164 41.8574 91.9395 42.1764 92.7207 42.8145C93.502 43.4525 93.8926 44.4225 93.8926 45.7246V53H91.8125ZM90.9336 47.9414L89.7812 47.9805C88.9154 48.0065 88.2708 48.1628 87.8477 48.4492C87.4245 48.7357 87.2129 49.1719 87.2129 49.7578C87.2129 50.5977 87.6947 51.0176 88.6582 51.0176C89.3483 51.0176 89.8984 50.819 90.3086 50.4219C90.7253 50.0247 90.9336 49.4974 90.9336 48.8398V47.9414ZM99.5664 53L95.4062 42.082H98.5215L100.631 48.3027C100.865 49.0905 101.012 49.8359 101.07 50.5391H101.129C101.161 49.9141 101.308 49.1686 101.568 48.3027L103.668 42.082H106.783L102.623 53H99.5664ZM112.877 43.9961C112.245 43.9961 111.751 44.1979 111.393 44.6016C111.035 44.9987 110.829 45.5651 110.777 46.3008H114.957C114.944 45.5651 114.752 44.9987 114.381 44.6016C114.01 44.1979 113.508 43.9961 112.877 43.9961ZM113.297 53.1953C111.539 53.1953 110.165 52.7103 109.176 51.7402C108.186 50.7702 107.691 49.3965 107.691 47.6191C107.691 45.7897 108.147 44.377 109.059 43.3809C109.977 42.3783 111.243 41.877 112.857 41.877C114.4 41.877 115.602 42.3164 116.461 43.1953C117.32 44.0742 117.75 45.2884 117.75 46.8379V48.2832H110.709C110.742 49.1296 110.992 49.7904 111.461 50.2656C111.93 50.7409 112.587 50.9785 113.434 50.9785C114.091 50.9785 114.713 50.9102 115.299 50.7734C115.885 50.6367 116.497 50.4186 117.135 50.1191V52.4238C116.614 52.6842 116.057 52.8763 115.465 53C114.872 53.1302 114.15 53.1953 113.297 53.1953ZM123.629 53.1953C122.346 53.1953 121.337 52.6973 120.602 51.7012C119.872 50.7051 119.508 49.3249 119.508 47.5605C119.508 45.7702 119.879 44.377 120.621 43.3809C121.37 42.3783 122.398 41.877 123.707 41.877C125.081 41.877 126.129 42.4108 126.852 43.4785H126.949C126.799 42.6647 126.725 41.9388 126.725 41.3008V37.8047H129.713V53H127.428L126.852 51.584H126.725C126.048 52.6582 125.016 53.1953 123.629 53.1953ZM124.674 50.8223C125.436 50.8223 125.992 50.6009 126.344 50.1582C126.702 49.7155 126.897 48.9635 126.93 47.9023V47.5801C126.93 46.4082 126.747 45.5684 126.383 45.0605C126.025 44.5527 125.439 44.2988 124.625 44.2988C123.961 44.2988 123.443 44.582 123.072 45.1484C122.708 45.7083 122.525 46.5254 122.525 47.5996C122.525 48.6738 122.711 49.4811 123.082 50.0215C123.453 50.5553 123.984 50.8223 124.674 50.8223ZM144.02 53.1953C142.737 53.1953 141.731 52.7298 141.002 51.7988H140.846C140.95 52.7103 141.002 53.2376 141.002 53.3809V57.8047H138.023V42.082H140.445L140.865 43.498H141.002C141.699 42.4173 142.73 41.877 144.098 41.877C145.387 41.877 146.396 42.375 147.125 43.3711C147.854 44.3672 148.219 45.7507 148.219 47.5215C148.219 48.6868 148.046 49.6992 147.701 50.5586C147.363 51.418 146.878 52.0723 146.246 52.5215C145.615 52.9707 144.872 53.1953 144.02 53.1953ZM143.141 44.2598C142.405 44.2598 141.868 44.4876 141.529 44.9434C141.191 45.3926 141.015 46.138 141.002 47.1797V47.502C141.002 48.6738 141.174 49.5137 141.52 50.0215C141.871 50.5293 142.424 50.7832 143.18 50.7832C144.514 50.7832 145.182 49.6829 145.182 47.4824C145.182 46.4082 145.016 45.6042 144.684 45.0703C144.358 44.5299 143.844 44.2598 143.141 44.2598ZM156.773 41.877C157.177 41.877 157.512 41.9062 157.779 41.9648L157.555 44.7578C157.314 44.6927 157.021 44.6602 156.676 44.6602C155.725 44.6602 154.983 44.9043 154.449 45.3926C153.922 45.8809 153.658 46.5645 153.658 47.4434V53H150.68V42.082H152.936L153.375 43.918H153.521C153.86 43.306 154.316 42.8145 154.889 42.4434C155.468 42.0658 156.096 41.877 156.773 41.877ZM162.135 47.5215C162.135 48.6022 162.311 49.4193 162.662 49.9727C163.02 50.526 163.6 50.8027 164.4 50.8027C165.195 50.8027 165.764 50.5293 166.109 49.9824C166.461 49.429 166.637 48.6087 166.637 47.5215C166.637 46.4408 166.461 45.6302 166.109 45.0898C165.758 44.5495 165.182 44.2793 164.381 44.2793C163.587 44.2793 163.014 44.5495 162.662 45.0898C162.311 45.6237 162.135 46.4342 162.135 47.5215ZM169.684 47.5215C169.684 49.2988 169.215 50.6888 168.277 51.6914C167.34 52.694 166.035 53.1953 164.361 53.1953C163.313 53.1953 162.389 52.9674 161.588 52.5117C160.787 52.0495 160.172 51.3887 159.742 50.5293C159.312 49.6699 159.098 48.6673 159.098 47.5215C159.098 45.7376 159.563 44.3509 160.494 43.3613C161.425 42.3717 162.734 41.877 164.42 41.877C165.468 41.877 166.393 42.1048 167.193 42.5605C167.994 43.0163 168.609 43.6706 169.039 44.5234C169.469 45.3763 169.684 46.3757 169.684 47.5215ZM178.141 53.1953C176.858 53.1953 175.852 52.7298 175.123 51.7988H174.967C175.071 52.7103 175.123 53.2376 175.123 53.3809V57.8047H172.145V42.082H174.566L174.986 43.498H175.123C175.82 42.4173 176.852 41.877 178.219 41.877C179.508 41.877 180.517 42.375 181.246 43.3711C181.975 44.3672 182.34 45.7507 182.34 47.5215C182.34 48.6868 182.167 49.6992 181.822 50.5586C181.484 51.418 180.999 52.0723 180.367 52.5215C179.736 52.9707 178.993 53.1953 178.141 53.1953ZM177.262 44.2598C176.526 44.2598 175.989 44.4876 175.65 44.9434C175.312 45.3926 175.136 46.138 175.123 47.1797V47.502C175.123 48.6738 175.296 49.5137 175.641 50.0215C175.992 50.5293 176.546 50.7832 177.301 50.7832C178.635 50.7832 179.303 49.6829 179.303 47.4824C179.303 46.4082 179.137 45.6042 178.805 45.0703C178.479 44.5299 177.965 44.2598 177.262 44.2598ZM189.322 43.9961C188.691 43.9961 188.196 44.1979 187.838 44.6016C187.48 44.9987 187.275 45.5651 187.223 46.3008H191.402C191.389 45.5651 191.197 44.9987 190.826 44.6016C190.455 44.1979 189.954 43.9961 189.322 43.9961ZM189.742 53.1953C187.984 53.1953 186.611 52.7103 185.621 51.7402C184.632 50.7702 184.137 49.3965 184.137 47.6191C184.137 45.7897 184.592 44.377 185.504 43.3809C186.422 42.3783 187.688 41.877 189.303 41.877C190.846 41.877 192.047 42.3164 192.906 43.1953C193.766 44.0742 194.195 45.2884 194.195 46.8379V48.2832H187.154C187.187 49.1296 187.438 49.7904 187.906 50.2656C188.375 50.7409 189.033 50.9785 189.879 50.9785C190.536 50.9785 191.158 50.9102 191.744 50.7734C192.33 50.6367 192.942 50.4186 193.58 50.1191V52.4238C193.059 52.6842 192.503 52.8763 191.91 53C191.318 53.1302 190.595 53.1953 189.742 53.1953ZM202.711 41.877C203.115 41.877 203.45 41.9062 203.717 41.9648L203.492 44.7578C203.251 44.6927 202.958 44.6602 202.613 44.6602C201.663 44.6602 200.921 44.9043 200.387 45.3926C199.859 45.8809 199.596 46.5645 199.596 47.4434V53H196.617V42.082H198.873L199.312 43.918H199.459C199.798 43.306 200.253 42.8145 200.826 42.4434C201.406 42.0658 202.034 41.877 202.711 41.877ZM210.299 50.8223C210.82 50.8223 211.445 50.7083 212.174 50.4805V52.6973C211.432 53.0293 210.52 53.1953 209.439 53.1953C208.248 53.1953 207.379 52.8958 206.832 52.2969C206.292 51.6914 206.021 50.7865 206.021 49.582V44.3184H204.596V43.0586L206.236 42.0625L207.096 39.7578H209V42.082H212.057V44.3184H209V49.582C209 50.0052 209.117 50.3177 209.352 50.5195C209.592 50.7214 209.908 50.8223 210.299 50.8223ZM214.264 39.2598C214.264 38.2897 214.804 37.8047 215.885 37.8047C216.965 37.8047 217.506 38.2897 217.506 39.2598C217.506 39.722 217.369 40.0833 217.096 40.3438C216.829 40.5977 216.425 40.7246 215.885 40.7246C214.804 40.7246 214.264 40.2363 214.264 39.2598ZM217.369 53H214.391V42.082H217.369V53ZM225.025 43.9961C224.394 43.9961 223.899 44.1979 223.541 44.6016C223.183 44.9987 222.978 45.5651 222.926 46.3008H227.105C227.092 45.5651 226.9 44.9987 226.529 44.6016C226.158 44.1979 225.657 43.9961 225.025 43.9961ZM225.445 53.1953C223.688 53.1953 222.314 52.7103 221.324 51.7402C220.335 50.7702 219.84 49.3965 219.84 47.6191C219.84 45.7897 220.296 44.377 221.207 43.3809C222.125 42.3783 223.391 41.877 225.006 41.877C226.549 41.877 227.75 42.3164 228.609 43.1953C229.469 44.0742 229.898 45.2884 229.898 46.8379V48.2832H222.857C222.89 49.1296 223.141 49.7904 223.609 50.2656C224.078 50.7409 224.736 50.9785 225.582 50.9785C226.24 50.9785 226.861 50.9102 227.447 50.7734C228.033 50.6367 228.645 50.4186 229.283 50.1191V52.4238C228.762 52.6842 228.206 52.8763 227.613 53C227.021 53.1302 226.298 53.1953 225.445 53.1953ZM239.938 49.7578C239.938 50.8776 239.547 51.7305 238.766 52.3164C237.991 52.9023 236.829 53.1953 235.279 53.1953C234.485 53.1953 233.808 53.14 233.248 53.0293C232.688 52.9251 232.164 52.7689 231.676 52.5605V50.0996C232.229 50.36 232.851 50.5781 233.541 50.7539C234.238 50.9297 234.85 51.0176 235.377 51.0176C236.458 51.0176 236.998 50.7051 236.998 50.0801C236.998 49.8457 236.926 49.6569 236.783 49.5137C236.64 49.3639 236.393 49.1979 236.041 49.0156C235.689 48.8268 235.221 48.6087 234.635 48.3613C233.795 48.0098 233.176 47.6842 232.779 47.3848C232.389 47.0853 232.102 46.7435 231.92 46.3594C231.744 45.9688 231.656 45.4902 231.656 44.9238C231.656 43.9538 232.031 43.2051 232.779 42.6777C233.535 42.1439 234.602 41.877 235.982 41.877C237.298 41.877 238.577 42.1634 239.82 42.7363L238.922 44.8848C238.375 44.6504 237.864 44.4583 237.389 44.3086C236.913 44.1589 236.428 44.084 235.934 44.084C235.055 44.084 234.615 44.3216 234.615 44.7969C234.615 45.0638 234.755 45.2949 235.035 45.4902C235.322 45.6855 235.943 45.9753 236.9 46.3594C237.753 46.7044 238.378 47.0267 238.775 47.3262C239.173 47.6257 239.465 47.9707 239.654 48.3613C239.843 48.752 239.938 49.2174 239.938 49.7578Z" fill="#1F1F1F"/>
<path d="M105.68 152.195C77.7708 150.623 40 175.263 40 175.263V256H390V152.195C390 152.195 363.104 166.658 344.754 164.2C315.463 160.275 332.029 119.547 303.595 112.65C282.999 107.655 269.624 127.67 249.591 121.36C229.434 115.01 236.3 93.2973 217.189 85.1103C173.967 66.5944 209.492 176.035 160.559 175.263C136.395 174.882 129.79 153.553 105.68 152.195Z" fill="url(#paint0_linear)"/>
<path d="M40 174.996C40 174.996 77.7708 150.427 105.68 151.995C129.79 153.349 136.395 174.616 160.559 174.996C209.492 175.766 173.967 66.6418 217.189 85.1042C236.3 93.2675 229.434 114.917 249.591 121.249C269.624 127.541 282.999 107.583 303.595 112.565C332.029 119.441 315.463 160.052 344.754 163.965C363.104 166.416 390 151.995 390 151.995" stroke="url(#paint1_linear)" stroke-width="2.34804" stroke-linecap="round"/>
<path d="M40 124.827C40 124.827 69.1137 141.644 88.9592 140.335C113.752 138.699 115.098 110.76 139.958 110.013C169.49 109.125 169.087 154.892 197.66 148.899C213.708 145.533 213.267 130.082 229.134 126.215C256.639 119.512 264.132 158.779 292.664 155.843C316.234 153.417 315.969 124.639 339.584 122.512C359.795 120.691 366.686 131.539 390 136.631" stroke="url(#paint2_linear)" stroke-width="2.34804" stroke-linecap="round"/>
<path opacity="0.5" d="M63.0334 275.81C62.7274 275.81 62.4865 275.766 62.3107 275.678V274.97C62.5418 275.035 62.7827 275.067 63.0334 275.067C63.3556 275.067 63.5998 274.97 63.7658 274.774C63.9351 274.579 64.0197 274.298 64.0197 273.93V266.791H64.8498V273.861C64.8498 274.48 64.6935 274.958 64.381 275.297C64.0685 275.639 63.6193 275.81 63.0334 275.81ZM69.9181 273.93L69.757 273.168H69.7179C69.451 273.503 69.1841 273.731 68.9172 273.852C68.6535 273.969 68.3231 274.027 67.9259 274.027C67.3954 274.027 66.9787 273.891 66.6759 273.617C66.3765 273.344 66.2267 272.955 66.2267 272.45C66.2267 271.369 67.091 270.803 68.8195 270.751L69.7277 270.722V270.39C69.7277 269.97 69.6366 269.66 69.4543 269.462C69.2752 269.26 68.9871 269.159 68.59 269.159C68.144 269.159 67.6395 269.296 67.0763 269.569L66.8273 268.949C67.091 268.806 67.3791 268.694 67.6916 268.612C68.0073 268.531 68.3231 268.49 68.6388 268.49C69.2769 268.49 69.7489 268.632 70.0549 268.915C70.3641 269.198 70.5187 269.652 70.5187 270.277V273.93H69.9181ZM68.0871 273.358C68.5916 273.358 68.9871 273.22 69.2736 272.943C69.5633 272.667 69.7082 272.279 69.7082 271.781V271.298L68.8976 271.332C68.2531 271.355 67.7876 271.456 67.5011 271.635C67.2179 271.811 67.0763 272.086 67.0763 272.46C67.0763 272.753 67.1642 272.976 67.34 273.129C67.519 273.282 67.7681 273.358 68.0871 273.358ZM75.8556 273.93V270.468C75.8556 270.032 75.7564 269.706 75.5578 269.491C75.3592 269.276 75.0483 269.169 74.6252 269.169C74.0653 269.169 73.6551 269.32 73.3947 269.623C73.1343 269.926 73.0041 270.425 73.0041 271.122V273.93H72.1935V268.578H72.8527L72.9845 269.311H73.0236C73.1896 269.047 73.4224 268.843 73.7218 268.7C74.0213 268.554 74.355 268.48 74.7228 268.48C75.3674 268.48 75.8524 268.637 76.1779 268.949C76.5034 269.258 76.6662 269.755 76.6662 270.438V273.93H75.8556Z" fill="#6C6C6C"/>
<path opacity="0.5" d="M256.546 273.93L254.124 267.602H254.085C254.131 268.103 254.154 268.699 254.154 269.389V273.93H253.387V266.791H254.637L256.898 272.68H256.937L259.217 266.791H260.457V273.93H259.627V269.33C259.627 268.803 259.65 268.23 259.695 267.611H259.656L257.215 273.93H256.546ZM265.589 273.93L265.428 273.168H265.389C265.122 273.503 264.855 273.731 264.588 273.852C264.324 273.969 263.994 274.027 263.597 274.027C263.066 274.027 262.65 273.891 262.347 273.617C262.047 273.344 261.898 272.955 261.898 272.45C261.898 271.369 262.762 270.803 264.49 270.751L265.399 270.722V270.39C265.399 269.97 265.307 269.66 265.125 269.462C264.946 269.26 264.658 269.159 264.261 269.159C263.815 269.159 263.31 269.296 262.747 269.569L262.498 268.949C262.762 268.806 263.05 268.694 263.362 268.612C263.678 268.531 263.994 268.49 264.31 268.49C264.948 268.49 265.42 268.632 265.726 268.915C266.035 269.198 266.19 269.652 266.19 270.277V273.93H265.589ZM263.758 273.358C264.263 273.358 264.658 273.22 264.945 272.943C265.234 272.667 265.379 272.279 265.379 271.781V271.298L264.569 271.332C263.924 271.355 263.459 271.456 263.172 271.635C262.889 271.811 262.747 272.086 262.747 272.46C262.747 272.753 262.835 272.976 263.011 273.129C263.19 273.282 263.439 273.358 263.758 273.358ZM267.015 268.578H267.884L269.056 271.63C269.313 272.326 269.473 272.829 269.534 273.139H269.573C269.616 272.973 269.704 272.689 269.837 272.289C269.974 271.885 270.417 270.648 271.165 268.578H272.034L269.735 274.672C269.507 275.274 269.24 275.701 268.934 275.951C268.631 276.205 268.258 276.332 267.816 276.332C267.568 276.332 267.324 276.304 267.083 276.249V275.6C267.262 275.639 267.462 275.658 267.684 275.658C268.24 275.658 268.638 275.346 268.875 274.721L269.173 273.959L267.015 268.578Z" fill="#6C6C6C"/>
<path opacity="0.5" d="M111.147 273.93H110.317V266.791H114.296V267.528H111.147V270.141H114.106V270.878H111.147V273.93ZM117.621 274.027C116.83 274.027 116.205 273.786 115.746 273.305C115.291 272.823 115.063 272.154 115.063 271.298C115.063 270.435 115.274 269.75 115.698 269.242C116.124 268.734 116.695 268.48 117.411 268.48C118.082 268.48 118.613 268.702 119.003 269.145C119.394 269.584 119.589 270.165 119.589 270.888V271.4H115.903C115.919 272.029 116.077 272.506 116.376 272.831C116.679 273.157 117.104 273.319 117.651 273.319C118.227 273.319 118.796 273.199 119.36 272.958V273.681C119.073 273.804 118.801 273.892 118.544 273.944C118.29 274 117.983 274.027 117.621 274.027ZM117.402 269.159C116.972 269.159 116.629 269.299 116.371 269.579C116.117 269.859 115.968 270.246 115.922 270.741H118.72C118.72 270.23 118.606 269.84 118.378 269.569C118.15 269.296 117.825 269.159 117.402 269.159ZM123.466 268.49C124.169 268.49 124.714 268.731 125.102 269.213C125.492 269.691 125.688 270.37 125.688 271.249C125.688 272.128 125.491 272.812 125.097 273.3C124.706 273.785 124.163 274.027 123.466 274.027C123.118 274.027 122.799 273.964 122.509 273.837C122.223 273.707 121.982 273.508 121.786 273.241H121.728L121.557 273.93H120.976V266.332H121.786V268.178C121.786 268.591 121.773 268.962 121.747 269.291H121.786C122.164 268.757 122.724 268.49 123.466 268.49ZM123.349 269.169C122.796 269.169 122.397 269.328 122.153 269.647C121.908 269.963 121.786 270.497 121.786 271.249C121.786 272.001 121.912 272.54 122.162 272.865C122.413 273.188 122.815 273.349 123.368 273.349C123.866 273.349 124.238 273.168 124.482 272.807C124.726 272.442 124.848 271.92 124.848 271.239C124.848 270.543 124.726 270.023 124.482 269.682C124.238 269.34 123.86 269.169 123.349 269.169Z" fill="#6C6C6C"/>
<path opacity="0.5" d="M161.57 273.93L159.148 267.602H159.109C159.154 268.103 159.177 268.699 159.177 269.389V273.93H158.41V266.791H159.66L161.921 272.68H161.96L164.24 266.791H165.481V273.93H164.651V269.33C164.651 268.803 164.673 268.23 164.719 267.611H164.68L162.239 273.93H161.57ZM170.613 273.93L170.451 273.168H170.412C170.145 273.503 169.878 273.731 169.612 273.852C169.348 273.969 169.017 274.027 168.62 274.027C168.09 274.027 167.673 273.891 167.37 273.617C167.071 273.344 166.921 272.955 166.921 272.45C166.921 271.369 167.785 270.803 169.514 270.751L170.422 270.722V270.39C170.422 269.97 170.331 269.66 170.149 269.462C169.97 269.26 169.682 269.159 169.284 269.159C168.838 269.159 168.334 269.296 167.771 269.569L167.522 268.949C167.785 268.806 168.073 268.694 168.386 268.612C168.702 268.531 169.017 268.49 169.333 268.49C169.971 268.49 170.443 268.632 170.749 268.915C171.059 269.198 171.213 269.652 171.213 270.277V273.93H170.613ZM168.781 273.358C169.286 273.358 169.682 273.22 169.968 272.943C170.258 272.667 170.403 272.279 170.403 271.781V271.298L169.592 271.332C168.948 271.355 168.482 271.456 168.196 271.635C167.912 271.811 167.771 272.086 167.771 272.46C167.771 272.753 167.859 272.976 168.034 273.129C168.213 273.282 168.462 273.358 168.781 273.358ZM175.329 268.48C175.567 268.48 175.78 268.5 175.969 268.539L175.857 269.291C175.635 269.242 175.44 269.218 175.271 269.218C174.838 269.218 174.467 269.394 174.157 269.745C173.851 270.097 173.698 270.535 173.698 271.059V273.93H172.888V268.578H173.557L173.65 269.569H173.689C173.887 269.221 174.127 268.952 174.406 268.764C174.686 268.575 174.994 268.48 175.329 268.48Z" fill="#6C6C6C"/>
<path opacity="0.5" d="M303.102 275.81C302.796 275.81 302.556 275.766 302.38 275.678V274.97C302.611 275.035 302.852 275.067 303.102 275.067C303.425 275.067 303.669 274.97 303.835 274.774C304.004 274.579 304.089 274.298 304.089 273.93V266.791H304.919V273.861C304.919 274.48 304.763 274.958 304.45 275.297C304.138 275.639 303.688 275.81 303.102 275.81ZM307.458 268.578V272.05C307.458 272.486 307.557 272.812 307.756 273.026C307.954 273.241 308.265 273.349 308.688 273.349C309.248 273.349 309.657 273.196 309.914 272.89C310.174 272.584 310.305 272.084 310.305 271.391V268.578H311.115V273.93H310.446L310.329 273.212H310.285C310.119 273.476 309.888 273.677 309.592 273.817C309.299 273.957 308.963 274.027 308.586 274.027C307.935 274.027 307.447 273.873 307.121 273.563C306.799 273.254 306.638 272.759 306.638 272.079V268.578H307.458ZM316.501 273.93V270.468C316.501 270.032 316.402 269.706 316.203 269.491C316.004 269.276 315.694 269.169 315.27 269.169C314.711 269.169 314.3 269.32 314.04 269.623C313.78 269.926 313.649 270.425 313.649 271.122V273.93H312.839V268.578H313.498L313.63 269.311H313.669C313.835 269.047 314.068 268.843 314.367 268.7C314.667 268.554 315 268.48 315.368 268.48C316.013 268.48 316.498 268.637 316.823 268.949C317.149 269.258 317.311 269.755 317.311 270.438V273.93H316.501Z" fill="#6C6C6C"/>
<path d="M211.509 273.93L210.796 271.947H208.066L207.368 273.93H206.138L208.809 266.762H210.078L212.749 273.93H211.509ZM210.488 270.941L209.819 268.998C209.771 268.868 209.702 268.663 209.614 268.383C209.53 268.103 209.471 267.898 209.439 267.768C209.351 268.168 209.222 268.606 209.053 269.081L208.408 270.941H210.488ZM216.309 274.027C215.625 274.027 215.094 273.782 214.717 273.29H214.648C214.694 273.746 214.717 274.022 214.717 274.12V276.332H213.569V268.529H214.497C214.523 268.63 214.577 268.871 214.658 269.252H214.717C215.075 268.705 215.612 268.432 216.328 268.432C217.002 268.432 217.526 268.676 217.9 269.164C218.278 269.652 218.467 270.338 218.467 271.22C218.467 272.102 218.275 272.79 217.891 273.285C217.51 273.78 216.982 274.027 216.309 274.027ZM216.03 269.369C215.575 269.369 215.241 269.503 215.029 269.77C214.821 270.036 214.717 270.463 214.717 271.049V271.22C214.717 271.877 214.821 272.354 215.029 272.65C215.238 272.943 215.578 273.09 216.05 273.09C216.447 273.09 216.753 272.927 216.968 272.602C217.183 272.276 217.29 271.812 217.29 271.21C217.29 270.604 217.183 270.147 216.968 269.838C216.756 269.525 216.444 269.369 216.03 269.369ZM222.539 268.432C222.77 268.432 222.961 268.448 223.11 268.48L222.998 269.55C222.835 269.511 222.666 269.491 222.49 269.491C222.031 269.491 221.659 269.641 221.372 269.94C221.089 270.24 220.947 270.629 220.947 271.107V273.93H219.8V268.529H220.698L220.85 269.481H220.908C221.087 269.159 221.32 268.904 221.607 268.715C221.896 268.526 222.207 268.432 222.539 268.432Z" fill="#6C6C6C"/>
<path opacity="0.5" d="M352.387 275.81C352.081 275.81 351.84 275.766 351.664 275.678V274.97C351.895 275.035 352.136 275.067 352.387 275.067C352.709 275.067 352.953 274.97 353.119 274.774C353.288 274.579 353.373 274.298 353.373 273.93V266.791H354.203V273.861C354.203 274.48 354.047 274.958 353.734 275.297C353.422 275.639 352.973 275.81 352.387 275.81ZM356.742 268.578V272.05C356.742 272.486 356.841 272.812 357.04 273.026C357.239 273.241 357.549 273.349 357.973 273.349C358.532 273.349 358.941 273.196 359.198 272.89C359.459 272.584 359.589 272.084 359.589 271.391V268.578H360.399V273.93H359.73L359.613 273.212H359.569C359.403 273.476 359.172 273.677 358.876 273.817C358.583 273.957 358.248 274.027 357.87 274.027C357.219 274.027 356.731 273.873 356.405 273.563C356.083 273.254 355.922 272.759 355.922 272.079V268.578H356.742ZM362.934 273.93H362.123V266.332H362.934V273.93Z" fill="#6C6C6C"/>
<path opacity="0.3" d="M70 254V67" stroke="#171724" stroke-width="0.469609" stroke-linecap="round" stroke-dasharray="0 0.47 6.57 0 0.47 6.57"/>
<path opacity="0.3" d="M118 254V67" stroke="#171724" stroke-width="0.469609" stroke-linecap="round" stroke-dasharray="0 0.47 6.57 0 0.47 6.57"/>
<path opacity="0.3" d="M167 254V67" stroke="#171724" stroke-width="0.469609" stroke-linecap="round" stroke-dasharray="0 0.47 6.57 0 0.47 6.57"/>
<path opacity="0.3" d="M215 256V68" stroke="#171724" stroke-width="0.469609" stroke-linecap="round" stroke-dasharray="0 0.47 6.57 0 0.47 6.57"/>
<path opacity="0.3" d="M262 256V68" stroke="#171724" stroke-width="0.469609" stroke-linecap="round" stroke-dasharray="0 0.47 6.57 0 0.47 6.57"/>
<path opacity="0.3" d="M310 256V68" stroke="#171724" stroke-width="0.469609" stroke-linecap="round" stroke-dasharray="0 0.47 6.57 0 0.47 6.57"/>
<path opacity="0.3" d="M358 256V68" stroke="#171724" stroke-width="0.469609" stroke-linecap="round" stroke-dasharray="0 0.47 6.57 0 0.47 6.57"/>
<g filter="url(#filter1_d)">
<circle cx="214.413" cy="83.5396" r="9.39217" fill="url(#paint3_linear)"/>
<circle cx="214.413" cy="83.5396" r="7.51374" stroke="white" stroke-width="3.75687"/>
</g>
<path d="M49.625 35.4062C48.3227 35.4062 47.1287 35.8189 46.0762 36.6329C45.0673 37.4132 44.3955 38.4071 44 39.1298C43.6045 38.407 42.9327 37.4132 41.9238 36.6329C40.8713 35.8189 39.6773 35.4062 38.375 35.4062C34.7407 35.4062 32 38.3789 32 42.321C32 46.5798 35.4192 49.4935 40.5954 53.9046C41.4744 54.6537 42.4707 55.5028 43.5063 56.4084C43.6428 56.5279 43.8181 56.5938 44 56.5938C44.1819 56.5938 44.3572 56.5279 44.4937 56.4085C45.5293 55.5027 46.5256 54.6537 47.4051 53.9042C52.5808 49.4935 56 46.5798 56 42.321C56 38.3789 53.2593 35.4062 49.625 35.4062Z" fill="#B3404A"/>
<path d="M49.625 35.4062C48.3227 35.4062 47.1287 35.8189 46.0762 36.6329C45.0673 37.4132 44.3955 38.4071 44 39.1298C43.6045 38.407 42.9327 37.4132 41.9238 36.6329C40.8713 35.8189 39.6773 35.4062 38.375 35.4062C34.7407 35.4062 32 38.3789 32 42.321C32 46.5798 35.4192 49.4935 40.5954 53.9046C41.4744 54.6537 42.4707 55.5028 43.5063 56.4084C43.6428 56.5279 43.8181 56.5938 44 56.5938C44.1819 56.5938 44.3572 56.5279 44.4937 56.4085C45.5293 55.5027 46.5256 54.6537 47.4051 53.9042C52.5808 49.4935 56 46.5798 56 42.321C56 38.3789 53.2593 35.4062 49.625 35.4062Z" fill="#B3404A"/>
<defs>
<filter id="filter0_d" x="0" y="0" width="495" height="297" filterUnits="userSpaceOnUse" color-interpolation-filters="sRGB">
<feFlood flood-opacity="0" result="BackgroundImageFix"/>
<feColorMatrix in="SourceAlpha" type="matrix" values="0 0 0 0 0 0 0 0 0 0 0 0 0 0 0 0 0 0 127 0"/>
<feOffset/>
<feGaussianBlur stdDeviation="4"/>
<feColorMatrix type="matrix" values="0 0 0 0 0 0 0 0 0 0 0 0 0 0 0 0 0 0 0.25 0"/>
<feBlend mode="normal" in2="BackgroundImageFix" result="effect1_dropShadow"/>
<feBlend mode="normal" in="SourceGraphic" in2="effect1_dropShadow" result="shape"/>
</filter>
<filter id="filter1_d" x="193.281" y="64.7553" width="42.2648" height="42.2648" filterUnits="userSpaceOnUse" color-interpolation-filters="sRGB">
<feFlood flood-opacity="0" result="BackgroundImageFix"/>
<feColorMatrix in="SourceAlpha" type="matrix" values="0 0 0 0 0 0 0 0 0 0 0 0 0 0 0 0 0 0 127 0"/>
<feOffset dy="2.34804"/>
<feGaussianBlur stdDeviation="5.87011"/>
<feColorMatrix type="matrix" values="0 0 0 0 0 0 0 0 0 0 0 0 0 0 0 0 0 0 0.1 0"/>
<feBlend mode="normal" in2="BackgroundImageFix" result="effect1_dropShadow"/>
<feBlend mode="normal" in="SourceGraphic" in2="effect1_dropShadow" result="shape"/>
</filter>
<linearGradient id="paint0_linear" x1="215" y1="83" x2="215" y2="256" gradientUnits="userSpaceOnUse">
<stop stop-color="#FF9364" stop-opacity="0.3"/>
<stop offset="1" stop-color="#F25F33" stop-opacity="0"/>
</linearGradient>
<linearGradient id="paint1_linear" x1="215" y1="83" x2="215" y2="175" gradientUnits="userSpaceOnUse">
<stop stop-color="#FF9364"/>
<stop offset="1" stop-color="#F25F33"/>
</linearGradient>
<linearGradient id="paint2_linear" x1="215" y1="110" x2="215" y2="156" gradientUnits="userSpaceOnUse">
<stop stop-color="#B09FFF"/>
<stop offset="1" stop-color="#8D79F6"/>
</linearGradient>
<linearGradient id="paint3_linear" x1="214.413" y1="74.1475" x2="214.413" y2="92.9318" gradientUnits="userSpaceOnUse">
<stop stop-color="#FF9364"/>
<stop offset="1" stop-color="#F25F33"/>
</linearGradient>
</defs>
</svg>
