<svg width="96" height="95" viewBox="0 0 96 95" fill="none" xmlns="http://www.w3.org/2000/svg">
<path d="M94.2741 67.0479C92.8919 64.7432 90.4016 63.333 87.7141 63.333H87.38C86.1248 63.3338 84.8891 63.6426 83.7812 64.2323L71.6134 70.7223V49.0833H77.155C81.9645 49.0833 85.8632 45.1846 85.8632 40.3751C85.8632 35.5656 81.9645 31.6669 77.155 31.6669H43.1139C38.7418 31.6669 35.1974 28.1224 35.1974 23.7503C35.1974 19.3782 38.7418 15.8338 43.1139 15.8338H48.6555L57.6803 27.8669C57.9794 28.2655 58.4486 28.5003 58.947 28.5003H93.7797C94.6541 28.5003 95.363 27.7913 95.363 26.917V1.58404C95.363 0.709658 94.6541 0.000732422 93.7797 0.000732422H58.947C58.4486 0.000732422 57.9794 0.235458 57.6803 0.634055L48.6555 12.6672H43.1139C36.9928 12.6672 32.0308 17.6293 32.0308 23.7503C32.0308 29.8714 36.9928 34.8335 43.1139 34.8335H77.155C80.2155 34.8335 82.6966 37.3145 82.6966 40.3751C82.6966 43.4356 80.2155 45.9166 77.155 45.9166H71.6134V39.5834C71.6134 38.709 70.9045 38.0001 70.0301 38.0001H25.6975C24.8232 38.0001 24.1142 38.709 24.1142 39.5834V63.333C22.8866 63.7617 21.6967 64.2913 20.5565 64.9163H0.364624V68.0829H19.3643V91.8326H0.364624V94.9992H60.3593C61.7946 94.9992 63.2027 94.6089 64.4331 93.8703L91.6486 77.5416C95.2714 75.3687 96.4468 70.6707 94.2741 67.0479ZM62.1332 18.7287C64.6065 17.8543 65.9026 15.1403 65.0281 12.6672C64.1537 10.1939 61.4397 8.89773 58.9666 9.77231C57.6138 10.2505 56.5499 11.3146 56.0717 12.6672H52.6138L59.7386 3.16735H92.1964V25.3336H59.7386L52.6138 15.8338H56.0717C56.9461 18.3071 59.6601 19.6033 62.1332 18.7287ZM58.947 14.2505C58.947 13.3761 59.6559 12.6672 60.5303 12.6672C61.4047 12.6672 62.1136 13.3761 62.1136 14.2505C62.1136 15.1249 61.4047 15.8338 60.5303 15.8338C59.6559 15.8338 58.947 15.1249 58.947 14.2505ZM44.6972 41.1667H51.0304V47.5H44.6972V41.1667ZM27.2808 41.1667H41.5306V49.0833C41.5306 49.9576 42.2395 50.6666 43.1139 50.6666H52.6138C53.4881 50.6666 54.1971 49.9576 54.1971 49.0833V41.1667H68.4468V72.4101L65.8534 73.7924C66.8206 69.9782 64.5125 66.102 60.6981 65.1348C60.1258 64.9898 59.5376 64.9163 58.947 64.9163H43.5272C38.5688 62.2134 32.8167 61.3434 27.2808 62.459V41.1667ZM90.0194 74.8262L62.8039 91.1549C62.0655 91.5982 61.2206 91.8326 60.3593 91.8326H22.5309V67.4496C28.7802 64.2535 36.2184 64.4158 42.3223 67.8819C42.5639 68.0174 42.8368 68.0869 43.1139 68.0829H58.947C61.1331 68.0829 62.9053 69.8551 62.9053 72.0412C62.9053 74.2274 61.1331 75.9995 58.947 75.9995H44.6972C43.8228 75.9995 43.1139 76.7084 43.1139 77.5828C43.1139 78.4572 43.8228 79.1661 44.6972 79.1661H62.1136C62.3737 79.1665 62.6298 79.103 62.8593 78.9809L85.271 67.0269C85.9204 66.6813 86.6446 66.5002 87.38 66.4996H87.7141C90.1896 66.4994 92.1966 68.5061 92.1968 70.9816C92.1968 72.5568 91.3703 74.0162 90.0194 74.8262Z" fill="#B3404A"/>
</svg>
