<svg width="173" height="60" viewBox="0 0 173 60" fill="none" xmlns="http://www.w3.org/2000/svg">
<path fill-rule="evenodd" clip-rule="evenodd" d="M13.0156 3.91309H159.727C162.988 3.91309 164.168 4.2783 165.36 4.95656C166.537 5.62386 167.499 6.65558 168.121 7.91742C168.754 9.19567 169.094 10.4609 169.094 13.9435V46.0564C169.094 49.539 168.754 50.8042 168.121 52.0824C167.499 53.3443 166.537 54.376 165.36 55.0433C164.168 55.7216 162.988 56.0868 159.739 56.0868H13.0034C9.75534 56.0868 8.57532 55.7216 7.38314 55.0433C6.20627 54.376 5.24402 53.3443 4.62165 52.0824C3.98906 50.8042 3.64844 49.539 3.64844 46.0564V13.9435C3.64844 10.4609 3.98906 9.19567 4.62165 7.91742C5.24402 6.65558 6.20627 5.62386 7.38314 4.95656C8.57532 4.2783 9.75534 3.91309 13.0034 3.91309H13.0156Z" fill="black"/>
<path fill-rule="evenodd" clip-rule="evenodd" d="M22.8186 42.7435L22.9646 42.7827C22.9153 42.7729 22.8665 42.7598 22.8186 42.7435ZM43.621 27.874C44.1685 28.2001 44.5091 28.6305 44.6186 29.074L44.6429 29.2436C44.5943 29.7392 44.2415 30.2349 43.6089 30.6131L24.3879 42.3131C23.9987 42.5609 23.6215 42.6653 23.2931 42.6653C22.9525 42.6653 22.6605 42.5479 22.4172 42.3261L22.3442 42.2479C22.0254 41.8355 21.8645 41.3087 21.8941 40.774V17.7132C21.8941 17.0089 22.0887 16.4741 22.4172 16.148C22.6605 15.9263 22.9525 15.8089 23.2931 15.8089C23.6215 15.8089 23.9987 15.9263 24.3879 16.161L43.6089 27.874H43.621ZM23.2809 15.6523H23.4512H23.2809ZM134.957 42.2087H137.22V25.9045H134.957V42.2087ZM155.394 31.774L152.791 38.8435H152.718L150.017 31.774H147.572L151.623 41.6609L149.312 47.1522H151.684L157.925 31.774H155.394ZM142.524 40.3566C141.782 40.3566 140.748 39.9653 140.748 38.974C140.748 37.7088 142.037 37.2262 143.144 37.2262C144.154 37.2262 144.616 37.4609 145.224 37.774C145.142 38.482 144.823 39.1339 144.326 39.6089C143.83 40.0838 143.189 40.3494 142.524 40.3566ZM142.803 31.4218C141.149 31.4218 139.458 32.2044 138.752 33.9131L140.76 34.8262C141.198 33.9131 142.001 33.6262 142.828 33.6262C144.008 33.6262 145.2 34.3696 145.224 35.7131V35.8827C144.494 35.4679 143.679 35.2529 142.852 35.2566C140.687 35.2566 138.473 36.5349 138.473 38.9218C138.473 41.1131 140.261 42.5218 142.244 42.5218C143.777 42.5218 144.616 41.7783 145.151 40.9174H145.224V42.1827H147.414V35.9218C147.414 33.0392 145.395 31.4218 142.791 31.4218H142.803ZM128.765 33.7697H125.541V28.161H128.765C130.468 28.161 131.441 29.674 131.441 30.9653C131.441 32.2305 130.468 33.7566 128.765 33.7566V33.7697ZM128.716 25.9045H123.266V42.2087H125.541V36.0262H128.704C131.222 36.0262 133.692 34.0697 133.692 30.9653C133.692 27.861 131.222 25.9045 128.704 25.9045H128.716ZM99.0454 40.3566C97.4883 40.3566 96.1745 38.9479 96.1745 37.0175C96.1745 35.061 97.4883 33.6262 99.0454 33.6262C100.603 33.6262 101.819 35.061 101.819 37.0175C101.819 38.9479 100.603 40.3566 99.0454 40.3566ZM101.661 32.687H101.576C101.23 32.2846 100.808 31.9659 100.338 31.7522C99.8681 31.5386 99.3611 31.4348 98.8508 31.4479C97.5116 31.5022 96.245 32.1145 95.3203 33.1546C94.3957 34.1948 93.886 35.5806 93.8996 37.0175C93.8893 38.4495 94.4013 39.8292 95.3262 40.8623C96.2511 41.8955 97.5159 42.5003 98.8508 42.5479C99.3635 42.562 99.8729 42.4562 100.343 42.2376C100.814 42.0191 101.235 41.6932 101.576 41.2827H101.661V42.0783C101.661 44.2044 100.603 45.3392 98.8995 45.3392C98.3301 45.3275 97.777 45.1338 97.311 44.7829C96.845 44.432 96.4874 43.9399 96.284 43.3696L94.3132 44.2435C94.6846 45.2195 95.3198 46.054 96.1371 46.6397C96.9544 47.2255 97.9164 47.5357 98.8995 47.5305C101.564 47.5305 103.814 45.8348 103.814 41.7522V31.7871H101.661V32.7001V32.687ZM105.383 42.2087H107.658V25.9045H105.383V42.2087ZM111.004 36.8218C110.979 36.4184 111.03 36.0137 111.153 35.6315C111.276 35.2493 111.469 34.8973 111.72 34.5961C111.972 34.2948 112.277 34.0504 112.618 33.8772C112.958 33.7039 113.328 33.6053 113.704 33.587C114.617 33.587 115.383 34.0697 115.627 34.761L111.004 36.8349V36.8218ZM118.06 34.9827C117.634 33.7436 116.32 31.461 113.631 31.461C110.967 31.461 108.753 33.6914 108.753 36.9914C108.753 40.1088 110.943 42.5479 113.887 42.5479C116.259 42.5479 117.634 40.9827 118.206 40.0827L116.442 38.8305C116.176 39.3006 115.8 39.6884 115.353 39.956C114.905 40.2235 114.4 40.3616 113.887 40.3566C112.731 40.3566 111.904 39.7957 111.381 38.674L118.303 35.6088L118.06 34.9827ZM62.9515 33.1566V35.5044H68.1946C68.119 36.607 67.699 37.6501 67.0025 38.4653C66.4753 39.0412 65.8412 39.492 65.1413 39.7886C64.4414 40.0851 63.6912 40.2209 62.9393 40.187C62.1769 40.1854 61.4224 40.0216 60.7194 39.7053C60.0164 39.3889 59.3789 38.9262 58.8438 38.344C58.3087 37.7617 57.8865 37.0715 57.6018 36.3132C57.3171 35.5549 57.1755 34.7435 57.1852 33.9262C57.1709 32.7125 57.49 31.5211 58.1029 30.5006C58.7158 29.4801 59.5953 28.6757 60.6318 28.1875C61.6682 27.6993 62.8158 27.549 63.9314 27.7554C65.0469 27.9617 66.0812 28.5156 66.9051 29.3479L68.4501 27.6914C67.725 26.9225 66.8642 26.3165 65.9179 25.9089C64.9716 25.5012 63.959 25.3002 62.9393 25.3175C60.7985 25.3173 58.7436 26.2201 57.2185 27.8309C55.6934 29.4416 54.8206 31.6311 54.7886 33.9262C54.8206 36.2212 55.6934 38.4107 57.2185 40.0215C58.7436 41.6323 60.7985 42.5351 62.9393 42.5348C65.3358 42.5348 67.1363 41.7001 68.5474 40.1218C69.8264 38.6233 70.5076 36.6476 70.4452 34.6175C70.4452 34.0697 70.4087 33.574 70.3235 33.1566H62.9393H62.9515ZM76.4183 40.3566C74.849 40.3566 73.4986 38.974 73.4986 36.9914C73.4986 34.9957 74.849 33.6392 76.4183 33.6392C77.9997 33.6392 79.3379 34.9957 79.3379 36.9914C79.3379 38.974 77.9997 40.3566 76.4183 40.3566ZM76.4183 31.4479C75.735 31.4357 75.0564 31.5705 74.4226 31.8444C73.7888 32.1183 73.2127 32.5257 72.7284 33.0426C72.244 33.5595 71.8613 34.1753 71.6029 34.8535C71.3444 35.5318 71.2155 36.2587 71.2238 36.9914C71.2139 37.7251 71.3416 38.4535 71.5993 39.1332C71.857 39.813 72.2395 40.4304 72.724 40.9486C73.2085 41.4669 73.7851 41.8755 74.4197 42.1502C75.0544 42.425 75.734 42.5602 76.4183 42.5479C77.1026 42.5602 77.7822 42.425 78.4168 42.1502C79.0514 41.8755 79.6281 41.4669 80.1126 40.9486C80.5971 40.4304 80.9795 39.813 81.2372 39.1332C81.495 38.4535 81.6227 37.7251 81.6128 36.9914C81.621 36.2587 81.4921 35.5318 81.2337 34.8535C80.9752 34.1753 80.5925 33.5595 80.1082 33.0426C79.6238 32.5257 79.0477 32.1183 78.4139 31.8444C77.7801 31.5705 77.1015 31.4357 76.4183 31.4479ZM87.7562 40.3566C86.1747 40.3566 84.8366 38.974 84.8366 36.9914C84.8366 34.9957 86.1747 33.6392 87.7562 33.6392C89.3133 33.6392 90.6758 34.9957 90.6758 36.9914C90.6758 38.974 89.3133 40.3566 87.7562 40.3566ZM87.7562 31.4479C87.0729 31.4357 86.3943 31.5705 85.7605 31.8444C85.1267 32.1183 84.5506 32.5257 84.0663 33.0426C83.582 33.5595 83.1992 34.1753 82.9408 34.8535C82.6824 35.5318 82.5534 36.2587 82.5617 36.9914C82.5518 37.7251 82.6795 38.4535 82.9372 39.1332C83.1949 39.813 83.5774 40.4304 84.0619 40.9486C84.5464 41.4669 85.123 41.8755 85.7577 42.1502C86.3923 42.425 87.0719 42.5602 87.7562 42.5479C88.4405 42.5602 89.1201 42.425 89.7547 42.1502C90.3893 41.8755 90.966 41.4669 91.4505 40.9486C91.935 40.4304 92.3175 39.813 92.5752 39.1332C92.8329 38.4535 92.9606 37.7251 92.9507 36.9914C92.9589 36.2587 92.83 35.5318 92.5716 34.8535C92.3131 34.1753 91.9304 33.5595 91.4461 33.0426C90.9618 32.5257 90.3856 32.1183 89.7518 31.8444C89.118 31.5705 88.4394 31.4357 87.7562 31.4479Z" fill="white"/>
<path fill-rule="evenodd" clip-rule="evenodd" d="M61.4936 17.1263C61.4936 18.1046 61.226 18.8872 60.6786 19.4741C60.0703 20.1655 59.2553 20.5176 58.2699 20.5176C57.321 20.5176 56.5059 20.1655 55.8368 19.4611C55.5153 19.1213 55.262 18.7146 55.0926 18.266C54.9231 17.8174 54.8411 17.3363 54.8515 16.8524C54.8515 15.8089 55.1799 14.922 55.849 14.2176C56.5059 13.5133 57.3088 13.1611 58.2699 13.1611C58.7322 13.1611 59.1823 13.2655 59.608 13.4611C60.046 13.6568 60.3866 13.9177 60.6421 14.2437L60.0581 14.8568C59.8387 14.5812 59.5636 14.3629 59.2538 14.2182C58.944 14.0736 58.6075 14.0065 58.2699 14.022C57.5765 14.022 56.9804 14.2829 56.4694 14.8046C55.9707 15.3263 55.7152 16.0046 55.7152 16.8394C55.7152 17.6742 55.9585 18.3524 56.4694 18.8742C56.9804 19.3959 57.5643 19.6568 58.2699 19.6568C58.9998 19.6568 59.608 19.3959 60.0946 18.8742C60.4109 18.522 60.6056 18.0524 60.6542 17.4394H58.2699V16.5916H61.445C61.4815 16.7742 61.4936 16.9568 61.4936 17.1133" fill="white"/>
<path fill-rule="evenodd" clip-rule="evenodd" d="M61.4934 17.126H61.3839C61.3839 18.0913 61.1163 18.8217 60.6054 19.3956C59.9971 20.0608 59.2307 20.3999 58.2697 20.3999C57.3451 20.3999 56.5665 20.0608 55.9218 19.3826C55.6063 19.0528 55.3581 18.6566 55.1927 18.2188C55.0273 17.781 54.9483 17.3112 54.9607 16.8391C54.9607 15.8217 55.277 14.9869 55.9339 14.2956C56.2383 13.9647 56.6024 13.7037 57.004 13.5288C57.4056 13.3539 57.8363 13.2686 58.2697 13.2782C58.7198 13.2782 59.1577 13.3695 59.5713 13.5652C59.9849 13.7608 60.3012 14.0087 60.5567 14.3217L60.6419 14.2435L60.5567 14.1652L59.9849 14.7782L60.0579 14.8565L60.1431 14.7913C59.693 14.2043 59.0482 13.9043 58.2697 13.9043C57.5397 13.9043 56.9193 14.1782 56.3962 14.7261C55.8731 15.2608 55.6055 15.9782 55.6055 16.8391C55.6055 17.7 55.8731 18.4043 56.3962 18.9521C56.9193 19.4999 57.5519 19.7739 58.2697 19.7739C59.0239 19.7739 59.6686 19.4999 60.1796 18.9521C60.5202 18.5869 60.7149 18.0782 60.7635 17.4521V17.3217H58.3913V16.7087H61.4569V16.5913L61.3474 16.6174C61.3839 16.7869 61.3961 16.9565 61.3961 17.126H61.6151C61.6151 16.9434 61.6029 16.7608 61.5664 16.5782L61.5542 16.4739H58.148V17.5565H60.6419V17.4391H60.5202C60.4837 18.026 60.3012 18.4695 60.0093 18.7826C59.5348 19.2913 58.9631 19.5391 58.2575 19.5391C57.5884 19.5391 57.0166 19.2782 56.53 18.7826C56.0434 18.2869 55.8001 17.6478 55.8001 16.8391C55.8001 16.0304 56.0434 15.4043 56.53 14.8826C57.0166 14.3869 57.5884 14.1391 58.2575 14.1391C58.9874 14.1391 59.547 14.4 59.9606 14.9348L60.0458 15.0391L60.7027 14.3217L60.7757 14.2565L60.7149 14.1652C60.4234 13.8046 60.0566 13.523 59.6443 13.3435C59.2095 13.1455 58.742 13.0434 58.2697 13.0435C57.2964 13.0435 56.4449 13.4087 55.7758 14.1391C55.4411 14.4872 55.1766 14.9053 54.9987 15.3675C54.8209 15.8297 54.7334 16.3261 54.7418 16.826C54.7418 17.8956 55.0824 18.8086 55.7758 19.5391C56.1011 19.8916 56.49 20.1694 56.9188 20.3556C57.3476 20.5417 57.8072 20.6322 58.2697 20.6217C59.2794 20.6217 60.1188 20.2565 60.7513 19.5391L60.6784 19.4608L60.7513 19.5521C61.3231 18.9391 61.6029 18.1173 61.6029 17.113H61.4934V17.126ZM66.542 14.1782H63.5493V16.4217H66.25V17.2565H63.5493V19.4999H66.542V20.3608H62.7099V13.3174H66.542V14.1782Z" fill="white"/>
<path fill-rule="evenodd" clip-rule="evenodd" d="M66.542 14.1785V14.0611H63.4399V16.5393H66.1405V17.1393H63.4399V19.6176H66.4325V20.2436H62.8194V13.435H66.4325V14.1785H66.542V14.0611V14.1915H66.6515V13.2002H62.6005V20.4784H66.6515V19.3828H63.6588V17.3741H66.3595V16.3045H63.6588V14.2958H66.6515V14.1785H66.5298H66.542ZM70.0942 20.361H69.2548V14.1785H67.43V13.3176H71.9311V14.1785H70.1064V20.361" fill="white"/>
<path fill-rule="evenodd" clip-rule="evenodd" d="M70.0944 20.361V20.2436H69.3645V14.0611H67.5397V13.435H71.8219V14.0611H69.9971V20.361H70.0944V20.2436V20.3741H70.2161V14.2958H72.0408V13.2002H67.3086V14.2958H69.1455V20.4784H70.2039V20.361H70.0944ZM75.2038 20.361H76.0553V13.3176H75.2038V20.361Z" fill="white"/>
<path fill-rule="evenodd" clip-rule="evenodd" d="M75.2023 20.3605H75.3117V13.4475H75.9322V20.2432H75.2023V20.3736H75.3117H75.1901V20.4779H76.1633V13.1997H75.0928V20.4779H75.2023V20.3605ZM79.7885 20.3605H78.937V14.178H77.1122V13.3171H81.6133V14.178H79.7885V20.3605Z" fill="white"/>
<path fill-rule="evenodd" clip-rule="evenodd" d="M79.7896 20.3612V20.2438H79.0597V14.0612H77.2228V13.4351H81.5049V14.0612H79.6801V20.3612H79.7896V20.2438V20.3742H79.8991V14.296H81.7239V13.2004H77.0038V14.296H78.8286V20.4786H79.8991V20.3612H79.7774H79.7896ZM85.9695 18.8612C86.4561 19.3829 87.0644 19.6438 87.7578 19.6438C88.4634 19.6438 89.0595 19.3829 89.5461 18.8612C90.0327 18.3395 90.276 17.6612 90.276 16.8395C90.276 16.0177 90.0327 15.3525 89.5461 14.8177C89.0595 14.296 88.4634 14.0351 87.7578 14.0351C87.0522 14.0351 86.4561 14.296 85.9695 14.8177C85.4829 15.3395 85.2396 16.0177 85.2396 16.8395C85.2396 17.6612 85.4829 18.3395 85.9695 18.8612ZM90.1665 19.4482C89.5217 20.1656 88.7188 20.5177 87.7578 20.5177C86.7967 20.5177 85.9938 20.1656 85.3491 19.4482C85.032 19.1055 84.7825 18.698 84.6153 18.2498C84.4481 17.8017 84.3667 17.3221 84.3759 16.8395C84.3661 16.358 84.4465 15.8793 84.6124 15.4317C84.7783 14.9841 85.0262 14.5768 85.3416 14.2338C85.6569 13.8908 86.0333 13.6192 86.4483 13.4349C86.8633 13.2507 87.3086 13.1576 87.7578 13.1612C88.207 13.1576 88.6522 13.2507 89.0673 13.4349C89.4823 13.6192 89.8586 13.8908 90.174 14.2338C90.4893 14.5768 90.7373 14.9841 90.9032 15.4317C91.069 15.8793 91.1495 16.358 91.1397 16.8395C91.1397 17.8699 90.8112 18.7438 90.1665 19.4482Z" fill="white"/>
<path fill-rule="evenodd" clip-rule="evenodd" d="M85.9681 18.8609L85.8951 18.9392C86.406 19.487 87.0265 19.774 87.7564 19.774C88.4863 19.774 89.1189 19.487 89.6176 18.9392C90.1286 18.3914 90.3841 17.687 90.3841 16.8522C90.3841 15.9914 90.1286 15.287 89.6176 14.7392C89.3778 14.47 89.0887 14.2569 88.7684 14.1132C88.4481 13.9696 88.1035 13.8985 87.7564 13.9044C87.0265 13.9044 86.406 14.1914 85.8951 14.7392C85.6417 15.0156 85.4432 15.3442 85.3114 15.7051C85.1797 16.066 85.1176 16.4518 85.1287 16.8392C85.1287 17.687 85.3842 18.4044 85.8951 18.9392L86.0532 18.7827C85.8185 18.5272 85.6348 18.2231 85.5135 17.889C85.3922 17.5548 85.3357 17.1976 85.3477 16.8392C85.3477 16.0566 85.591 15.4044 86.0532 14.8957C86.2735 14.6511 86.5384 14.4577 86.8314 14.3275C87.1244 14.1974 87.4393 14.1333 87.7564 14.1392C88.4376 14.1392 88.9972 14.4001 89.4595 14.8957C89.9339 15.4175 90.1651 16.0435 90.1651 16.8522C90.1651 17.6348 89.9218 18.274 89.4595 18.7827C88.9972 19.2914 88.4376 19.5392 87.7564 19.5392C87.4393 19.5451 87.1244 19.481 86.8314 19.3509C86.5384 19.2207 86.2735 19.0273 86.0532 18.7827L85.9681 18.8609ZM90.1651 19.4479L90.0921 19.3696C89.4595 20.0609 88.6931 20.4 87.7564 20.4131C87.3226 20.4149 86.8929 20.3236 86.4925 20.1445C86.0922 19.9654 85.7294 19.7021 85.4255 19.3702C85.1216 19.0383 84.8828 18.6445 84.7232 18.2121C84.5636 17.7796 84.4864 17.3172 84.4961 16.8522C84.4847 16.3862 84.5607 15.9224 84.7196 15.4884C84.8785 15.0544 85.117 14.659 85.4211 14.3257C85.7251 13.9924 86.0885 13.728 86.4896 13.5481C86.8908 13.3682 87.3215 13.2764 87.7564 13.2783C88.6931 13.2783 89.4595 13.6175 90.0799 14.3218C90.7125 15.0131 91.0288 15.8479 91.0288 16.8392C91.0288 17.8435 90.7125 18.6783 90.0921 19.3696L90.2502 19.5392C90.9072 18.8087 91.2478 17.8957 91.2478 16.8392C91.2576 16.3423 91.1743 15.8483 91.0029 15.3865C90.8315 14.9247 90.5755 14.5044 90.25 14.1505C89.9245 13.7966 89.5361 13.5163 89.1078 13.3262C88.6794 13.1361 88.2199 13.04 87.7564 13.0436C87.2938 13.0417 86.8356 13.1391 86.4087 13.33C85.9819 13.5209 85.5949 13.8015 85.2707 14.1552C84.9465 14.5089 84.6916 14.9286 84.5209 15.3895C84.3503 15.8505 84.2674 16.3434 84.2771 16.8392C84.2771 17.8957 84.6056 18.7957 85.2747 19.5392C85.9316 20.2696 86.771 20.6348 87.7564 20.6348C88.7418 20.6348 89.5812 20.2696 90.2502 19.5392L90.1651 19.4479ZM92.3305 20.3609V13.3175H93.3523L96.5396 18.7957H96.5761L96.5396 17.4392V13.3175H97.3912V20.3609H96.5031L93.1577 14.6218H93.1212L93.1577 15.9783V20.3609H92.3183" fill="white"/>
<path fill-rule="evenodd" clip-rule="evenodd" d="M92.332 20.361H92.4293V13.448H93.2809L96.4803 18.9263H96.6871L96.6506 17.4393V13.435H97.271V20.2436H96.5654L93.22 14.5045H93.0132L93.0497 15.9784V20.2436H92.3198V20.3741H92.4415H92.3198V20.4784H93.2687V15.9784L93.2322 14.6089H93.1227V14.7393H93.1592V14.6089L93.0741 14.6741L96.4438 20.4784H97.49V13.2002H96.4316V17.4393L96.4681 18.7958H96.5776V18.6784H96.5411V18.8089L96.6384 18.7306L93.4147 13.2002H92.2103V20.4784H92.332V20.361Z" fill="white"/>
</svg>
