<svg width="60" height="60" viewBox="0 0 60 60" fill="none" xmlns="http://www.w3.org/2000/svg">
<circle cx="30" cy="30" r="30" fill="#B3404A"/>
<path d="M41.5833 43.5501V40.5316C42.2205 40.1561 42.5939 39.4552 42.55 38.7167C42.55 37.6491 41.901 36.7834 41.1 36.7834C40.299 36.7834 39.65 37.6491 39.65 38.7167C39.6061 39.4552 39.9795 40.1561 40.6167 40.5316V43.5501H37.2333V28.8655L34.3333 27.4155V30.0167H35.7833V30.9834H34.3333V32.9167H35.7833V33.8834H34.3333V35.8167H35.7833V36.7834H34.3333V38.7167H35.7833V39.6834H34.3333V41.6167H35.7833V42.5834H34.3333V43.5501H33.3667V24.0978L27.5667 22.441V24.2167H30.95V25.1834H27.5667V27.1167H30.95V28.0834H27.5667V30.0167H30.95V30.9834H27.5667V32.9167H30.95V33.8834H27.5667V35.8167H30.95V36.7834H27.5667V38.7167H30.95V39.6834H27.5667V41.6167H30.95V42.5834H27.5667V43.5501H26.6V16.4834H17.9V18.4167H22.25V19.3834H17.9V21.3167H22.25V22.2834H17.9V24.2167H22.25V25.1834H17.9V27.1167H22.25V28.0834H17.9V30.0167H22.25V30.9834H17.9V32.9167H22.25V33.8834H17.9V35.8167H22.25V36.7834H17.9V38.7167H22.25V39.6834H17.9V41.6167H22.25V42.5834H17.9V43.5501H15V44.5167H44V43.5501H41.5833Z" fill="white"/>
</svg>
