<svg width="31" height="31" viewBox="0 0 31 31" fill="none" xmlns="http://www.w3.org/2000/svg">
<circle cx="15.5" cy="15.5" r="15.5" fill="#B3404A"/>
<path d="M10.3112 8.8125C9.21133 8.8125 8.49219 9.53476 8.49219 10.4841C8.49219 11.4124 9.18991 12.1553 10.269 12.1553H10.2899C11.4113 12.1553 12.1093 11.4124 12.1093 10.4841C12.0883 9.53476 11.4113 8.8125 10.3112 8.8125Z" fill="white"/>
<path d="M8.68225 13.4761H11.8978V23.1501H8.68225V13.4761Z" fill="white"/>
<path d="M19.7903 13.249C18.0557 13.249 16.8925 14.879 16.8925 14.879V13.4761H13.6769V23.1501H16.8923V17.7478C16.8923 17.4585 16.9133 17.1698 16.9982 16.963C17.2307 16.3854 17.7597 15.7871 18.648 15.7871C19.8116 15.7871 20.2769 16.6743 20.2769 17.9748V23.1501H23.4922V17.6032C23.4922 14.6317 21.9057 13.249 19.7903 13.249Z" fill="white"/>
</svg>
