<svg width="96" height="79" viewBox="0 0 96 79" fill="none" xmlns="http://www.w3.org/2000/svg">
<path d="M95.1079 47.9236C94.899 47.5668 94.578 47.289 94.1947 47.1339L87.3814 44.3449L94.4381 40.1895C95.3302 39.6673 95.6302 38.5208 95.1079 37.6287C94.899 37.2719 94.578 36.9941 94.1947 36.839L87.3814 34.05L94.4381 29.8946C95.0544 29.5238 95.4037 28.8326 95.3365 28.1164C95.2825 27.4091 94.833 26.7928 94.176 26.5254L67.3531 15.5379L54.1382 9.92249C53.9236 9.83756 53.695 9.79334 53.4643 9.79147L31.9386 1.03144C31.4101 0.811969 30.8102 0.846597 30.3102 1.12503L1.46571 17.3348C0.542446 17.7997 0.170893 18.9252 0.635802 19.8484C0.847784 20.2696 1.21115 20.5953 1.65289 20.7602L8.61599 23.6428L1.46571 27.6297C0.566077 28.1389 0.249509 29.2811 0.758639 30.1808C0.961028 30.5383 1.27502 30.819 1.65289 30.9803L8.61599 33.8628L1.50315 37.8498C0.552039 38.255 0.109826 39.3547 0.515071 40.3056C0.72635 40.8014 1.14095 41.1818 1.65289 41.35L8.61599 44.2139L1.50315 48.2008C0.603514 48.71 0.286945 49.8522 0.796075 50.7519C0.998464 51.1094 1.31246 51.3901 1.69033 51.5514L25.8927 61.8275C25.9812 61.8919 26.0752 61.9483 26.1735 61.996L39.4071 67.6114L63.7405 77.9625C64.288 78.1948 64.9135 78.1532 65.4252 77.8502L94.4381 60.7793C95.3302 60.2571 95.6302 59.1106 95.1079 58.2185C94.899 57.8617 94.578 57.5839 94.1947 57.4288L87.3814 54.6398L94.4381 50.4844C95.3302 49.9624 95.6299 48.8157 95.1079 47.9236ZM89.2719 38.8421L64.3208 53.5357L42.0089 44.0644V37.8313L63.7218 47.0593C63.9528 47.1575 64.201 47.2085 64.4518 47.209C64.7878 47.209 65.1175 47.1185 65.4064 46.947L83.3196 36.4087L89.2719 38.8421ZM89.3468 28.5284L64.3208 43.2221L44.0492 34.6118L66.8852 19.3566L89.3468 28.5284ZM24.9755 57.4103L6.61316 49.6049L12.9211 46.0672L24.9943 51.1959L24.9755 57.4103ZM24.9755 47.1154L6.61316 39.31L12.9211 35.7349L24.9943 40.8636L24.9755 47.1154ZM24.9755 36.8205L6.61316 29.0338L12.9211 25.4961L24.9943 30.6248L24.9755 36.8205ZM6.61316 18.7389L31.3584 4.83143L49.3089 12.1876L26.6976 27.2743L6.61316 18.7389ZM39.0889 33.4513C38.573 33.7999 38.2644 34.3823 38.2653 35.0049V63.0819L28.7379 59.0388V30.419L53.5392 13.8909L62.7672 17.6345L39.0889 33.4513ZM89.2719 59.4319L64.3208 74.1068L42.0089 64.6355V58.4211L63.7218 67.5555C64.2693 67.7878 64.8947 67.7462 65.4064 67.4432L83.3196 56.9049L89.2719 59.4319ZM64.3208 63.8119L42.0089 54.3406V48.1262L63.7405 57.3542C64.288 57.5865 64.9135 57.5449 65.4252 57.2419L83.3383 46.7036L89.2719 49.137L64.3208 63.8119Z" fill="#B3404A"/>
</svg>
