<svg width="393" height="526" viewBox="0 0 393 526" fill="none" xmlns="http://www.w3.org/2000/svg">
<mask id="mask0" mask-type="alpha" maskUnits="userSpaceOnUse" x="0" y="0" width="393" height="526">
<path d="M0 4.99999C0 2.23857 2.23858 0 5 0H388C390.761 0 393 2.23858 393 5V521C393 523.761 390.761 526 388 526H5.00001C2.23859 526 0 523.761 0 521V4.99999Z" fill="#ED713C"/>
</mask>
<g mask="url(#mask0)">
<path opacity="0.1" d="M212.381 551.728C212.381 721.109 82.4269 856.761 -75.8879 856.761C-234.203 856.761 -364.157 721.109 -364.157 551.728C-364.157 382.347 -234.203 246.695 -75.8879 246.695C82.4269 246.695 212.381 382.347 212.381 551.728Z" fill="black" stroke="black" stroke-width="36"/>
<path opacity="0.1" d="M784.263 -75.7558C784.263 134.116 651.383 296.456 495.994 296.456C340.605 296.456 207.725 134.116 207.725 -75.7558C207.725 -285.628 340.605 -447.968 495.994 -447.968C651.383 -447.968 784.263 -285.628 784.263 -75.7558Z" fill="black" stroke="black" stroke-width="36"/>
</g>
</svg>
