<svg width="447" height="30" viewBox="0 0 447 30" fill="none" xmlns="http://www.w3.org/2000/svg">
<path d="M217.91 17.9609C217.91 18.9661 217.546 19.75 216.817 20.3125C216.087 20.875 215.098 21.1562 213.848 21.1562C212.494 21.1562 211.452 20.9818 210.723 20.6328V19.3516C211.192 19.5495 211.702 19.7057 212.254 19.8203C212.806 19.9349 213.353 19.9922 213.895 19.9922C214.78 19.9922 215.447 19.8255 215.895 19.4922C216.343 19.1536 216.567 18.6849 216.567 18.0859C216.567 17.6901 216.486 17.3672 216.324 17.1172C216.168 16.862 215.903 16.6276 215.528 16.4141C215.158 16.2005 214.593 15.9583 213.832 15.6875C212.77 15.3073 212.009 14.8568 211.551 14.3359C211.098 13.8151 210.871 13.1354 210.871 12.2969C210.871 11.4167 211.202 10.7161 211.864 10.1953C212.525 9.67448 213.4 9.41406 214.489 9.41406C215.624 9.41406 216.668 9.6224 217.621 10.0391L217.207 11.1953C216.265 10.7995 215.348 10.6016 214.457 10.6016C213.754 10.6016 213.205 10.7526 212.809 11.0547C212.413 11.3568 212.215 11.776 212.215 12.3125C212.215 12.7083 212.288 13.0339 212.434 13.2891C212.58 13.5391 212.824 13.7708 213.168 13.9844C213.517 14.1927 214.048 14.4245 214.762 14.6797C215.96 15.1068 216.783 15.5651 217.231 16.0547C217.684 16.5443 217.91 17.1797 217.91 17.9609ZM223.668 21.1562C222.403 21.1562 221.403 20.7708 220.668 20C219.939 19.2292 219.574 18.1589 219.574 16.7891C219.574 15.4089 219.913 14.3125 220.59 13.5C221.272 12.6875 222.186 12.2812 223.332 12.2812C224.405 12.2812 225.254 12.6354 225.879 13.3438C226.504 14.0469 226.817 14.9766 226.817 16.1328V16.9531H220.918C220.944 17.9583 221.197 18.7214 221.676 19.2422C222.16 19.763 222.84 20.0234 223.715 20.0234C224.637 20.0234 225.548 19.8307 226.449 19.4453V20.6016C225.991 20.7995 225.556 20.9401 225.145 21.0234C224.739 21.112 224.246 21.1562 223.668 21.1562ZM223.317 13.3672C222.629 13.3672 222.08 13.5911 221.668 14.0391C221.262 14.487 221.022 15.1068 220.949 15.8984H225.426C225.426 15.0807 225.244 14.4557 224.879 14.0234C224.515 13.5859 223.994 13.3672 223.317 13.3672ZM230.332 21H229.035V8.84375H230.332V21ZM236.699 21.1562C235.434 21.1562 234.434 20.7708 233.699 20C232.97 19.2292 232.606 18.1589 232.606 16.7891C232.606 15.4089 232.944 14.3125 233.621 13.5C234.304 12.6875 235.218 12.2812 236.364 12.2812C237.436 12.2812 238.285 12.6354 238.91 13.3438C239.535 14.0469 239.848 14.9766 239.848 16.1328V16.9531H233.949C233.976 17.9583 234.228 18.7214 234.707 19.2422C235.192 19.763 235.871 20.0234 236.746 20.0234C237.668 20.0234 238.58 19.8307 239.481 19.4453V20.6016C239.022 20.7995 238.587 20.9401 238.176 21.0234C237.77 21.112 237.278 21.1562 236.699 21.1562ZM236.348 13.3672C235.66 13.3672 235.111 13.5911 234.699 14.0391C234.293 14.487 234.054 15.1068 233.981 15.8984H238.457C238.457 15.0807 238.275 14.4557 237.91 14.0234C237.546 13.5859 237.025 13.3672 236.348 13.3672ZM245.489 21.1562C244.249 21.1562 243.288 20.776 242.606 20.0156C241.929 19.25 241.59 18.1693 241.59 16.7734C241.59 15.3411 241.934 14.2344 242.621 13.4531C243.314 12.6719 244.298 12.2812 245.574 12.2812C245.986 12.2812 246.397 12.3255 246.809 12.4141C247.22 12.5026 247.543 12.6068 247.778 12.7266L247.379 13.8281C247.093 13.7135 246.78 13.6198 246.442 13.5469C246.103 13.4688 245.804 13.4297 245.543 13.4297C243.804 13.4297 242.934 14.5391 242.934 16.7578C242.934 17.8099 243.145 18.6172 243.567 19.1797C243.994 19.7422 244.624 20.0234 245.457 20.0234C246.171 20.0234 246.903 19.8698 247.653 19.5625V20.7109C247.08 21.0078 246.358 21.1562 245.489 21.1562ZM252.457 20.0859C252.686 20.0859 252.908 20.0703 253.121 20.0391C253.335 20.0026 253.504 19.9661 253.629 19.9297V20.9219C253.489 20.9896 253.28 21.0443 253.004 21.0859C252.733 21.1328 252.489 21.1562 252.27 21.1562C250.614 21.1562 249.785 20.2839 249.785 18.5391V13.4453H248.559V12.8203L249.785 12.2812L250.332 10.4531H251.082V12.4375H253.567V13.4453H251.082V18.4844C251.082 19 251.205 19.3958 251.449 19.6719C251.694 19.9479 252.03 20.0859 252.457 20.0859ZM262.926 21.1562C261.686 21.1562 260.726 20.776 260.043 20.0156C259.366 19.25 259.028 18.1693 259.028 16.7734C259.028 15.3411 259.371 14.2344 260.059 13.4531C260.752 12.6719 261.736 12.2812 263.012 12.2812C263.423 12.2812 263.835 12.3255 264.246 12.4141C264.658 12.5026 264.981 12.6068 265.215 12.7266L264.817 13.8281C264.53 13.7135 264.218 13.6198 263.879 13.5469C263.541 13.4688 263.241 13.4297 262.981 13.4297C261.241 13.4297 260.371 14.5391 260.371 16.7578C260.371 17.8099 260.582 18.6172 261.004 19.1797C261.431 19.7422 262.061 20.0234 262.895 20.0234C263.608 20.0234 264.34 19.8698 265.09 19.5625V20.7109C264.517 21.0078 263.796 21.1562 262.926 21.1562ZM268.348 12.4375V17.9922C268.348 18.6901 268.507 19.2109 268.824 19.5547C269.142 19.8984 269.64 20.0703 270.317 20.0703C271.212 20.0703 271.866 19.8255 272.278 19.3359C272.694 18.8464 272.903 18.0469 272.903 16.9375V12.4375H274.199V21H273.129L272.942 19.8516H272.871C272.606 20.2734 272.236 20.5964 271.762 20.8203C271.293 21.0443 270.757 21.1562 270.153 21.1562C269.111 21.1562 268.33 20.9089 267.809 20.4141C267.293 19.9193 267.035 19.1276 267.035 18.0391V12.4375H268.348ZM280.864 12.2812C281.244 12.2812 281.585 12.3125 281.887 12.375L281.707 13.5781C281.353 13.5 281.041 13.4609 280.77 13.4609C280.077 13.4609 279.483 13.7422 278.989 14.3047C278.499 14.8672 278.254 15.5677 278.254 16.4062V21H276.957V12.4375H278.028L278.176 14.0234H278.239C278.556 13.4661 278.939 13.0365 279.387 12.7344C279.835 12.4323 280.327 12.2812 280.864 12.2812ZM287.395 12.2812C287.775 12.2812 288.116 12.3125 288.418 12.375L288.239 13.5781C287.884 13.5 287.572 13.4609 287.301 13.4609C286.608 13.4609 286.015 13.7422 285.52 14.3047C285.03 14.8672 284.785 15.5677 284.785 16.4062V21H283.489V12.4375H284.559L284.707 14.0234H284.77C285.087 13.4661 285.47 13.0365 285.918 12.7344C286.366 12.4323 286.858 12.2812 287.395 12.2812ZM293.637 21.1562C292.371 21.1562 291.371 20.7708 290.637 20C289.908 19.2292 289.543 18.1589 289.543 16.7891C289.543 15.4089 289.882 14.3125 290.559 13.5C291.241 12.6875 292.155 12.2812 293.301 12.2812C294.374 12.2812 295.223 12.6354 295.848 13.3438C296.473 14.0469 296.785 14.9766 296.785 16.1328V16.9531H290.887C290.913 17.9583 291.166 18.7214 291.645 19.2422C292.129 19.763 292.809 20.0234 293.684 20.0234C294.606 20.0234 295.517 19.8307 296.418 19.4453V20.6016C295.96 20.7995 295.525 20.9401 295.114 21.0234C294.707 21.112 294.215 21.1562 293.637 21.1562ZM293.285 13.3672C292.598 13.3672 292.048 13.5911 291.637 14.0391C291.231 14.487 290.991 15.1068 290.918 15.8984H295.395C295.395 15.0807 295.212 14.4557 294.848 14.0234C294.483 13.5859 293.962 13.3672 293.285 13.3672ZM304.864 21V15.4609C304.864 14.763 304.705 14.2422 304.387 13.8984C304.069 13.5547 303.572 13.3828 302.895 13.3828C301.999 13.3828 301.343 13.625 300.926 14.1094C300.509 14.5938 300.301 15.3932 300.301 16.5078V21H299.004V12.4375H300.059L300.27 13.6094H300.332C300.598 13.1875 300.97 12.862 301.449 12.6328C301.929 12.3984 302.462 12.2812 303.051 12.2812C304.082 12.2812 304.858 12.5312 305.379 13.0312C305.9 13.526 306.16 14.3203 306.16 15.4141V21H304.864ZM312.254 21.1562C311.015 21.1562 310.054 20.776 309.371 20.0156C308.694 19.25 308.356 18.1693 308.356 16.7734C308.356 15.3411 308.699 14.2344 309.387 13.4531C310.08 12.6719 311.064 12.2812 312.34 12.2812C312.752 12.2812 313.163 12.3255 313.574 12.4141C313.986 12.5026 314.309 12.6068 314.543 12.7266L314.145 13.8281C313.858 13.7135 313.546 13.6198 313.207 13.5469C312.869 13.4688 312.569 13.4297 312.309 13.4297C310.569 13.4297 309.699 14.5391 309.699 16.7578C309.699 17.8099 309.91 18.6172 310.332 19.1797C310.759 19.7422 311.39 20.0234 312.223 20.0234C312.936 20.0234 313.668 19.8698 314.418 19.5625V20.7109C313.845 21.0078 313.124 21.1562 312.254 21.1562ZM315.098 12.4375H316.489L318.364 17.3203C318.775 18.4349 319.03 19.2396 319.129 19.7344H319.192C319.259 19.4688 319.4 19.0156 319.614 18.375C319.832 17.7292 320.541 15.75 321.739 12.4375H323.129L319.449 22.1875C319.085 23.151 318.658 23.8333 318.168 24.2344C317.684 24.6406 317.087 24.8438 316.379 24.8438C315.983 24.8438 315.593 24.7995 315.207 24.7109V23.6719C315.494 23.7344 315.814 23.7656 316.168 23.7656C317.059 23.7656 317.694 23.2656 318.074 22.2656L318.551 21.0469L315.098 12.4375Z" fill="#213037"/>
<rect x="349.237" width="97.5526" height="29.1536" rx="5" fill="#213037"/>
<path d="M431.017 17.8162L426.812 13.6113H435.222L431.017 17.8162Z" fill="white"/>
<path d="M371.606 16.9775C371.606 17.6859 371.34 18.2718 370.809 18.7354C370.278 19.1937 369.535 19.4827 368.582 19.6025V21.415H367.574V19.6729C366.991 19.6729 366.426 19.6286 365.879 19.54C365.332 19.4463 364.884 19.3187 364.535 19.1572V17.9385C364.968 18.1312 365.465 18.29 366.028 18.415C366.595 18.5348 367.111 18.5947 367.574 18.5947V15.1572C366.507 14.8187 365.757 14.4255 365.324 13.9775C364.897 13.5296 364.684 12.9515 364.684 12.2432C364.684 11.5609 364.947 11.001 365.473 10.5635C366.004 10.126 366.705 9.86035 367.574 9.7666V8.34473H368.582V9.75098C369.541 9.77702 370.465 9.96973 371.356 10.3291L370.949 11.3525C370.173 11.0452 369.384 10.863 368.582 10.8057V14.1963C369.4 14.4567 370.012 14.7119 370.418 14.9619C370.824 15.2067 371.124 15.4906 371.317 15.8135C371.509 16.1312 371.606 16.5192 371.606 16.9775ZM370.278 17.0791C370.278 16.7041 370.16 16.402 369.926 16.1729C369.697 15.9385 369.249 15.7067 368.582 15.4775V18.5166C369.712 18.3604 370.278 17.8812 370.278 17.0791ZM366.004 12.2275C366.004 12.6234 366.121 12.9411 366.356 13.1807C366.59 13.4202 366.996 13.6468 367.574 13.8604V10.8369C367.059 10.9202 366.668 11.0843 366.403 11.3291C366.137 11.5687 366.004 11.8682 366.004 12.2275ZM387.02 9.06348V16.4541C387.02 17.7562 386.627 18.7796 385.84 19.5244C385.054 20.2692 383.973 20.6416 382.598 20.6416C381.223 20.6416 380.158 20.2666 379.403 19.5166C378.653 18.7666 378.278 17.7354 378.278 16.4229V9.06348H379.606V16.5166C379.606 17.4697 379.866 18.2015 380.387 18.7119C380.908 19.2223 381.673 19.4775 382.684 19.4775C383.647 19.4775 384.39 19.2223 384.91 18.7119C385.431 18.1963 385.692 17.4593 385.692 16.501V9.06348H387.02ZM396.496 17.4463C396.496 18.4515 396.132 19.2354 395.403 19.7979C394.673 20.3604 393.684 20.6416 392.434 20.6416C391.08 20.6416 390.038 20.4671 389.309 20.1182V18.8369C389.778 19.0348 390.288 19.1911 390.84 19.3057C391.392 19.4202 391.939 19.4775 392.481 19.4775C393.366 19.4775 394.033 19.3109 394.481 18.9775C394.929 18.639 395.153 18.1702 395.153 17.5713C395.153 17.1755 395.072 16.8525 394.91 16.6025C394.754 16.3473 394.489 16.113 394.114 15.8994C393.744 15.6859 393.179 15.4437 392.418 15.1729C391.356 14.7926 390.595 14.3421 390.137 13.8213C389.684 13.3005 389.457 12.6208 389.457 11.7822C389.457 10.902 389.788 10.2015 390.449 9.68066C391.111 9.15983 391.986 8.89941 393.074 8.89941C394.21 8.89941 395.254 9.10775 396.207 9.52441L395.793 10.6807C394.851 10.2848 393.934 10.0869 393.043 10.0869C392.34 10.0869 391.791 10.238 391.395 10.54C390.999 10.8421 390.801 11.2614 390.801 11.7979C390.801 12.1937 390.874 12.5192 391.02 12.7744C391.166 13.0244 391.41 13.2562 391.754 13.4697C392.103 13.6781 392.634 13.9098 393.348 14.165C394.546 14.5921 395.369 15.0505 395.817 15.54C396.27 16.0296 396.496 16.665 396.496 17.4463ZM407.949 14.665C407.949 16.5505 407.436 17.9932 406.41 18.9932C405.39 19.988 403.918 20.4854 401.996 20.4854H398.832V9.06348H402.332C404.108 9.06348 405.489 9.55566 406.473 10.54C407.457 11.5244 407.949 12.8994 407.949 14.665ZM406.543 14.7119C406.543 13.2223 406.168 12.0999 405.418 11.3447C404.673 10.5895 403.564 10.2119 402.09 10.2119H400.16V19.3369H401.778C403.361 19.3369 404.551 18.9489 405.348 18.1729C406.145 17.3916 406.543 16.238 406.543 14.7119Z" fill="white"/>
<path d="M8.8125 12.9062C8.8125 14.0625 8.41667 14.9531 7.625 15.5781C6.83854 16.1979 5.71094 16.5078 4.24219 16.5078H2.89844V21H1.57031V9.57812H4.53125C7.38542 9.57812 8.8125 10.6875 8.8125 12.9062ZM2.89844 15.3672H4.09375C5.27083 15.3672 6.1224 15.1771 6.64844 14.7969C7.17448 14.4167 7.4375 13.8073 7.4375 12.9688C7.4375 12.2135 7.1901 11.651 6.69531 11.2812C6.20052 10.9115 5.42969 10.7266 4.38281 10.7266H2.89844V15.3672ZM12.3125 21H11.0156V8.84375H12.3125V21ZM20.3281 21L20.0703 19.7812H20.0078C19.5807 20.3177 19.1536 20.6823 18.7266 20.875C18.3047 21.0625 17.776 21.1562 17.1406 21.1562C16.2917 21.1562 15.625 20.9375 15.1406 20.5C14.6615 20.0625 14.4219 19.4401 14.4219 18.6328C14.4219 16.9036 15.8047 15.9974 18.5703 15.9141L20.0234 15.8672V15.3359C20.0234 14.6641 19.8776 14.1693 19.5859 13.8516C19.2995 13.5286 18.8385 13.3672 18.2031 13.3672C17.4896 13.3672 16.6823 13.5859 15.7812 14.0234L15.3828 13.0312C15.8047 12.8021 16.2656 12.6224 16.7656 12.4922C17.2708 12.362 17.776 12.2969 18.2812 12.2969C19.3021 12.2969 20.0573 12.5234 20.5469 12.9766C21.0417 13.4297 21.2891 14.1562 21.2891 15.1562V21H20.3281ZM17.3984 20.0859C18.2057 20.0859 18.8385 19.8646 19.2969 19.4219C19.7604 18.9792 19.9922 18.3594 19.9922 17.5625V16.7891L18.6953 16.8438C17.6641 16.8802 16.9193 17.0417 16.4609 17.3281C16.0078 17.6094 15.7812 18.0495 15.7812 18.6484C15.7812 19.1172 15.9219 19.474 16.2031 19.7188C16.4896 19.9635 16.888 20.0859 17.3984 20.0859ZM29.8281 21V15.4609C29.8281 14.763 29.6693 14.2422 29.3516 13.8984C29.0339 13.5547 28.5365 13.3828 27.8594 13.3828C26.9635 13.3828 26.3073 13.625 25.8906 14.1094C25.474 14.5938 25.2656 15.3932 25.2656 16.5078V21H23.9688V12.4375H25.0234L25.2344 13.6094H25.2969C25.5625 13.1875 25.9349 12.862 26.4141 12.6328C26.8932 12.3984 27.4271 12.2812 28.0156 12.2812C29.0469 12.2812 29.8229 12.5312 30.3438 13.0312C30.8646 13.526 31.125 14.3203 31.125 15.4141V21H29.8281Z" fill="#213037"/>
<rect x="51.8813" width="109.887" height="29.1536" rx="5" fill="#213037"/>
<path d="M72.781 20.4854L68.906 10.3604H68.8435C68.9164 11.1624 68.9529 12.1156 68.9529 13.2197V20.4854H67.7263V9.06348H69.7263L73.3435 18.4854H73.406L77.0544 9.06348H79.0388V20.4854H77.7107V13.126C77.7107 12.2822 77.7472 11.3656 77.8201 10.376H77.7576L73.8513 20.4854H72.781ZM89.3748 16.1963C89.3748 17.5921 89.0232 18.6833 88.3201 19.4697C87.6169 20.251 86.6456 20.6416 85.406 20.6416C84.6404 20.6416 83.9607 20.4619 83.3669 20.1025C82.7732 19.7432 82.3149 19.2275 81.9919 18.5557C81.669 17.8838 81.5076 17.0973 81.5076 16.1963C81.5076 14.8005 81.8565 13.7145 82.5544 12.9385C83.2524 12.1572 84.2211 11.7666 85.4607 11.7666C86.6586 11.7666 87.6091 12.165 88.3123 12.9619C89.0206 13.7588 89.3748 14.8369 89.3748 16.1963ZM82.8513 16.1963C82.8513 17.29 83.0701 18.1234 83.5076 18.6963C83.9451 19.2692 84.5883 19.5557 85.4373 19.5557C86.2862 19.5557 86.9294 19.2718 87.3669 18.7041C87.8097 18.1312 88.031 17.2952 88.031 16.1963C88.031 15.1077 87.8097 14.2822 87.3669 13.7197C86.9294 13.152 86.281 12.8682 85.4216 12.8682C84.5727 12.8682 83.932 13.1468 83.4998 13.7041C83.0675 14.2614 82.8513 15.0921 82.8513 16.1963ZM97.5154 20.4854V14.9463C97.5154 14.2484 97.3565 13.7275 97.0388 13.3838C96.7211 13.04 96.2237 12.8682 95.5466 12.8682C94.6508 12.8682 93.9945 13.1104 93.5779 13.5947C93.1612 14.0791 92.9529 14.8786 92.9529 15.9932V20.4854H91.656V11.9229H92.7107L92.9216 13.0947H92.9841C93.2498 12.6729 93.6222 12.3473 94.1013 12.1182C94.5805 11.8838 95.1143 11.7666 95.7029 11.7666C96.7341 11.7666 97.5102 12.0166 98.031 12.5166C98.5518 13.0114 98.8123 13.8057 98.8123 14.8994V20.4854H97.5154ZM104.25 19.5713C104.479 19.5713 104.7 19.5557 104.914 19.5244C105.127 19.488 105.297 19.4515 105.422 19.415V20.4072C105.281 20.4749 105.073 20.5296 104.797 20.5713C104.526 20.6182 104.281 20.6416 104.062 20.6416C102.406 20.6416 101.578 19.7692 101.578 18.0244V12.9307H100.351V12.3057L101.578 11.7666L102.125 9.93848H102.875V11.9229H105.359V12.9307H102.875V17.9697C102.875 18.4854 102.997 18.8812 103.242 19.1572C103.487 19.4333 103.823 19.5713 104.25 19.5713ZM113 20.4854V14.9463C113 14.2484 112.841 13.7275 112.523 13.3838C112.205 13.04 111.708 12.8682 111.031 12.8682C110.13 12.8682 109.471 13.113 109.054 13.6025C108.643 14.0921 108.437 14.8942 108.437 16.0088V20.4854H107.14V8.3291H108.437V12.0088C108.437 12.4515 108.416 12.8187 108.375 13.1104H108.453C108.708 12.6989 109.07 12.376 109.539 12.1416C110.013 11.902 110.552 11.7822 111.156 11.7822C112.203 11.7822 112.987 12.0322 113.508 12.5322C114.034 13.027 114.297 13.8161 114.297 14.8994V20.4854H113ZM118.265 20.4854H116.969V8.3291H118.265V20.4854ZM119.656 11.9229H121.047L122.922 16.8057C123.333 17.9202 123.588 18.7249 123.687 19.2197H123.75C123.817 18.9541 123.958 18.501 124.172 17.8604C124.39 17.2145 125.099 15.2354 126.297 11.9229H127.687L124.008 21.6729C123.643 22.6364 123.216 23.3187 122.726 23.7197C122.242 24.126 121.646 24.3291 120.937 24.3291C120.541 24.3291 120.151 24.2848 119.765 24.1963V23.1572C120.052 23.2197 120.372 23.251 120.726 23.251C121.617 23.251 122.252 22.751 122.633 21.751L123.109 20.5322L119.656 11.9229Z" fill="white"/>
<path d="M147.205 17.9402L143 13.7354H151.409L147.205 17.9402Z" fill="white"/>
</svg>
