<svg width="60" height="60" viewBox="0 0 60 60" fill="none" xmlns="http://www.w3.org/2000/svg">
<circle cx="30" cy="30" r="30" fill="#B3404A"/>
<g clip-path="url(#clip0)">
<path d="M29.5002 24.9751C26.4533 24.9751 23.9746 27.4538 23.9746 30.5004C23.9746 33.5473 26.4533 36.026 29.5002 36.026C32.5468 36.026 35.0255 33.5473 35.0255 30.5004C35.0255 27.4538 32.5468 24.9751 29.5002 24.9751ZM32.7807 29.4599L28.8223 33.4183C28.6561 33.5845 28.4382 33.6677 28.2204 33.6677C28.0027 33.6677 27.785 33.5847 27.6189 33.4183L26.1062 31.9056C25.7738 31.5735 25.7738 31.0348 26.1062 30.7024C26.4383 30.3701 26.977 30.3701 27.3093 30.7024L28.2204 31.6136L31.5775 28.2567C31.9096 27.9244 32.4484 27.9244 32.7807 28.2567C33.113 28.5888 33.113 29.1276 32.7807 29.4599Z" fill="white"/>
<path d="M41.8186 23.8684L41.8177 23.8459C41.8051 23.5673 41.7967 23.2726 41.7916 22.9447C41.7679 21.3457 40.4968 20.0231 38.8976 19.9337C35.5634 19.7476 32.984 18.6604 30.7801 16.5123L30.7613 16.4943C30.0425 15.8352 28.9581 15.8352 28.239 16.4943L28.2202 16.5123C26.0163 18.6604 23.437 19.7476 20.1027 19.9339C18.5037 20.0231 17.2324 21.3457 17.2088 22.9449C17.2039 23.2706 17.1953 23.5653 17.1826 23.8459L17.1813 23.8983C17.1165 27.2983 17.036 31.5297 18.4515 35.3704C19.2299 37.4825 20.4087 39.3185 21.955 40.8276C23.7162 42.5463 26.023 43.9108 28.8112 44.8829C28.9019 44.9146 28.9962 44.9402 29.0922 44.9595C29.2276 44.9865 29.3639 45 29.5002 45C29.6365 45 29.773 44.9865 29.9082 44.9595C30.0042 44.9402 30.0991 44.9144 30.1903 44.8825C32.9752 43.9085 35.2795 42.5434 37.0391 40.825C38.5848 39.3154 39.7636 37.479 40.5426 35.3665C41.9635 31.5142 41.8832 27.2748 41.8186 23.8684ZM29.4997 37.7277C25.5145 37.7277 22.2725 34.4856 22.2725 30.5005C22.2725 26.5153 25.5145 23.2733 29.4997 23.2733C33.4847 23.2733 36.7269 26.5153 36.7269 30.5005C36.7269 34.4856 33.4847 37.7277 29.4997 37.7277Z" fill="white"/>
</g>
<defs>
<clipPath id="clip0">
<rect width="29" height="29" fill="white" transform="translate(15 16)"/>
</clipPath>
</defs>
</svg>
