<svg width="10" height="20" viewBox="0 0 10 20" fill="none" xmlns="http://www.w3.org/2000/svg">
<path d="M0.0658791 18.7458C0.0661709 18.4144 0.198057 18.0966 0.432545 17.8624L6.82588 11.4691C7.01939 11.2756 7.1729 11.046 7.27763 10.7932C7.38236 10.5404 7.43627 10.2694 7.43627 9.99577C7.43627 9.72214 7.38236 9.45118 7.27763 9.19839C7.1729 8.94559 7.01939 8.7159 6.82588 8.52244L0.440878 2.13744C0.213181 1.90168 0.087188 1.58593 0.0900357 1.25819C0.0928833 0.930439 0.224344 0.616925 0.456105 0.385165C0.687865 0.153403 1.00138 0.0219426 1.32913 0.0190949C1.65687 0.0162454 1.97263 0.142239 2.20838 0.369936L8.59338 6.74994C9.45191 7.61016 9.93408 8.77585 9.93408 9.99119C9.93408 11.2065 9.45191 12.3722 8.59338 13.2324L2.20005 19.6299C2.02523 19.8049 1.80245 19.924 1.5599 19.9723C1.31735 20.0206 1.06592 19.9958 0.837447 19.9012C0.60897 19.8065 0.413705 19.6462 0.276362 19.4405C0.139017 19.2349 0.0657666 18.9931 0.0658791 18.7458Z" fill="#6C6C6C"/>
</svg>
