<svg width="25" height="24" viewBox="0 0 25 24" fill="none" xmlns="http://www.w3.org/2000/svg">
<path d="M14.425 9.57215C14.2147 9.34547 13.9296 9.21813 13.6322 9.21813C13.3349 9.21813 13.0498 9.34547 12.8395 9.57215L12.0467 10.4258C11.8399 10.6568 11.5924 10.841 11.3188 10.9678C11.0452 11.0945 10.7509 11.1612 10.4532 11.164C10.1554 11.1668 9.86009 11.1056 9.58448 10.984C9.30888 10.8624 9.05849 10.6829 8.84793 10.4558C8.63736 10.2287 8.47084 9.95872 8.35808 9.66152C8.24533 9.36432 8.18858 9.04588 8.19117 8.72477C8.19376 8.40367 8.25562 8.08634 8.37316 7.7913C8.49069 7.49625 8.66153 7.2294 8.87572 7.00632L15.1886 0.196355C16.6832 -0.17023 18.2469 -0.0193607 19.6575 0.627509C21.068 1.27438 22.2535 2.38432 23.0454 3.79951C23.8373 5.2147 24.1953 6.86309 24.0685 8.51031C23.9417 10.1575 23.3365 11.7197 22.3391 12.9747L19.9754 15.5563L14.425 9.57094V9.57215ZM2.13563 2.30271C3.2959 1.05168 4.81352 0.259205 6.44315 0.0533917C8.07277 -0.152422 9.71913 0.240459 11.1161 1.16852L7.28909 5.29658C6.46023 6.1886 5.98776 7.39483 5.97262 8.6575C5.95749 9.92017 6.4009 11.1392 7.20811 12.054C8.01532 12.9688 9.12231 13.5069 10.2925 13.5534C11.4628 13.5998 12.6034 13.1508 13.4708 12.3024L13.6322 12.1368L18.3899 17.266L13.6322 22.3965C13.2117 22.8498 12.6414 23.1045 12.0467 23.1045C11.4521 23.1045 10.8818 22.8498 10.4612 22.3965L2.13451 13.4173C0.767799 11.9433 0 9.94435 0 7.85999C0 5.77563 0.767799 3.77663 2.13451 2.30271H2.13563Z" fill="white"/>
</svg>
