<svg width="45" height="45" viewBox="0 0 45 45" fill="none" xmlns="http://www.w3.org/2000/svg">
<g clip-path="url(#clip0)">
<path d="M23.2743 1.54883C20.6849 1.54883 18.2002 2.00505 15.8953 2.83995L16.1991 3.14374C17.1172 4.06181 17.5271 5.37256 17.2956 6.65013L16.6025 10.4736C18.5992 9.42862 20.8688 8.83644 23.2743 8.83644C31.2354 8.83644 37.7123 15.3133 37.7123 23.2745C37.7123 31.2356 31.2354 37.7125 23.2743 37.7125C15.3132 37.7125 8.83643 31.2356 8.83643 23.2745C8.83643 20.8689 9.42862 18.5994 10.4736 16.6026L6.65039 17.2957C6.41691 17.3379 6.17956 17.3592 5.94397 17.3592C4.88598 17.3592 3.89134 16.9471 3.14339 16.1989L2.83986 15.8954C2.00505 18.2003 1.54883 20.685 1.54883 23.2745C1.54883 35.254 11.2948 45.0002 23.2744 45.0002C35.254 45.0002 45.0001 35.254 45.0001 23.2745C45.0001 11.2949 35.2539 1.54883 23.2743 1.54883Z" fill="white"/>
<path d="M23.2737 24.5943C22.9359 24.5943 22.598 24.4654 22.3404 24.2077L19.2919 21.1592C18.9553 21.7906 18.7637 22.5104 18.7637 23.2742C18.7637 25.7611 20.7869 27.7843 23.2737 27.7843C25.7607 27.7843 27.7839 25.7611 27.7839 23.2742C27.7839 20.7874 25.7607 18.7642 23.2737 18.7642C22.5098 18.7642 21.79 18.9557 21.1587 19.2924L24.2072 22.3409C24.7227 22.8563 24.7227 23.6922 24.2072 24.2077C23.9494 24.4654 23.6116 24.5943 23.2737 24.5943Z" fill="white"/>
<path d="M14.0549 15.9219C12.4423 17.9399 11.4766 20.4963 11.4766 23.2744C11.4766 29.7797 16.769 35.0722 23.2743 35.0722C29.7796 35.0722 35.0722 29.7797 35.0722 23.2744C35.0722 16.7691 29.7796 11.4766 23.2743 11.4766C20.4963 11.4766 17.9398 12.4424 15.9218 14.055L19.2411 17.3743C20.39 16.5864 21.7789 16.1242 23.2743 16.1242C27.217 16.1242 30.4246 19.3317 30.4246 23.2744C30.4246 27.2171 27.217 30.4246 23.2743 30.4246C19.3316 30.4246 16.1241 27.2171 16.1241 23.2744C16.1241 21.779 16.5863 20.39 17.3742 19.2411L14.0549 15.9219Z" fill="white"/>
<path d="M14.6986 6.1794C14.7758 5.75345 14.6392 5.3166 14.3331 5.01052L9.70941 0.386741C9.3918 0.0689551 8.93417 -0.0653403 8.49521 0.030233C8.05624 0.125806 7.69594 0.438136 7.53903 0.859151L6.23242 4.36483L13.6778 11.8102L14.6986 6.1794Z" fill="white"/>
<path d="M5.94387 14.7188C6.0221 14.7188 6.10087 14.7119 6.17937 14.6977L11.8101 13.6768L4.36471 6.23145L0.859117 7.53806C0.438101 7.69497 0.125772 8.05526 0.0301982 8.49423C-0.0652871 8.9332 0.0689204 9.39074 0.386706 9.70844L5.0104 14.3321C5.26016 14.582 5.59686 14.7188 5.94387 14.7188Z" fill="white"/>
</g>
<defs>
<clipPath id="clip0">
<rect width="45" height="45" fill="white"/>
</clipPath>
</defs>
</svg>
