<svg width="60" height="60" viewBox="0 0 60 60" fill="none" xmlns="http://www.w3.org/2000/svg">
<path d="M60 30C60 46.5685 46.5685 60 30 60C13.4315 60 0 46.5685 0 30C0 13.4315 13.4315 0 30 0C46.5685 0 60 13.4315 60 30Z" fill="#B3404A"/>
<g clip-path="url(#clip0)">
<path d="M37.6367 24.9938L36.8215 24.1786C36.4897 23.8468 35.9518 23.8468 35.62 24.1786C35.2882 24.5104 35.2882 25.0483 35.62 25.3801L37.8856 27.6457C38.2174 27.9775 38.7553 27.9775 39.0871 27.6457L41.3527 25.3801C41.6845 25.0483 41.6845 24.5104 41.3527 24.1786C41.0209 23.8468 40.483 23.8468 40.1512 24.1786L39.3359 24.9938V20.248C39.3359 19.7788 38.9555 19.3984 38.4863 19.3984H31.6895C31.2202 19.3984 30.8398 19.7788 30.8398 20.248C30.8398 20.7173 31.2202 21.0977 31.6895 21.0977H37.6367V24.9938Z" fill="white"/>
<path d="M29.3106 39.9024H23.3633V36.0062L24.1785 36.8215C24.5103 37.1533 25.0483 37.1533 25.3801 36.8215C25.7119 36.4897 25.7119 35.9517 25.3801 35.6199L23.1144 33.3543C22.7826 33.0225 22.2447 33.0225 21.9129 33.3543L19.6473 35.6199C19.3155 35.9517 19.3155 36.4897 19.6473 36.8215C19.9791 37.1533 20.517 37.1533 20.8488 36.8215L21.6641 36.0062V40.752C21.6641 41.2212 22.0445 41.6016 22.5137 41.6016H29.3106C29.7798 41.6016 30.1602 41.2212 30.1602 40.752C30.1602 40.2828 29.7798 39.9024 29.3106 39.9024Z" fill="white"/>
<path d="M44.1504 43.3008H43.3008V37.6367H41.6016V43.3008H39.3359V37.6367H37.6367V43.3008H35.3711V37.6367H33.6719V43.3008H32.8223C32.3531 43.3008 31.9727 43.6812 31.9727 44.1504C31.9727 44.6196 32.3531 45 32.8223 45H44.1504C44.6196 45 45 44.6196 45 44.1504C45 43.6812 44.6196 43.3008 44.1504 43.3008Z" fill="white"/>
<path d="M44.5303 33.7616L38.8663 30.9295C38.6271 30.81 38.3456 30.81 38.1064 30.9295L32.4423 33.7616C32.1545 33.9055 31.9727 34.1996 31.9727 34.5214V35.0878C31.9727 35.5571 32.3531 35.9375 32.8223 35.9375H44.1504C44.6196 35.9375 45 35.5571 45 35.0878V34.5214C45 34.1996 44.8182 33.9055 44.5303 33.7616Z" fill="white"/>
<path d="M29.0273 29.3105C29.0273 28.8413 28.6469 28.4609 28.1777 28.4609H27.3281V22.7969H25.6289V28.4609H23.3633V22.7969H21.6641V28.4609H19.3984V22.7969H17.6992V28.4609H16.8496C16.3804 28.4609 16 28.8413 16 29.3105C16 29.7798 16.3804 30.1602 16.8496 30.1602H28.1777C28.6469 30.1602 29.0273 29.7798 29.0273 29.3105Z" fill="white"/>
<path d="M16.8496 21.0974H28.1777C28.6469 21.0974 29.0273 20.717 29.0273 20.2478V19.6814C29.0273 19.3596 28.8455 19.0654 28.5577 18.9215L22.8936 16.0894C22.6544 15.9699 22.3729 15.9699 22.1337 16.0894L16.4697 18.9215C16.1818 19.0654 16 19.3596 16 19.6814V20.2478C16 20.717 16.3804 21.0974 16.8496 21.0974Z" fill="white"/>
</g>
<defs>
<clipPath id="clip0">
<rect width="29" height="29" fill="white" transform="translate(16 16)"/>
</clipPath>
</defs>
</svg>
