<svg width="24" height="24" viewBox="0 0 24 24" fill="none" xmlns="http://www.w3.org/2000/svg">
<path d="M12.0455 11.826C11.134 11.826 10.2223 11.479 9.5285 10.785C8.14056 9.39728 8.14056 7.13904 9.5285 5.7511C10.2007 5.07874 11.0946 4.7085 12.0455 4.7085C12.9963 4.7085 13.8901 5.07892 14.5624 5.7511C15.9504 7.13904 15.9504 9.39728 14.5624 10.785C13.8685 11.479 12.957 11.826 12.0455 11.826ZM12.0455 6.11749C11.4945 6.11749 10.9435 6.32715 10.524 6.74664C9.68506 7.58563 9.68506 8.95068 10.524 9.78967C10.9304 10.196 11.4707 10.4197 12.0455 10.4197C12.6202 10.4197 13.1606 10.196 13.5669 9.78967C14.4059 8.95068 14.4059 7.58563 13.5669 6.74664C13.1474 6.32715 12.5964 6.11749 12.0455 6.11749Z" fill="white"/>
<path d="M12.0536 24L11.5093 23.3606C11.1907 22.9861 3.70312 14.1238 3.70312 8.34229C3.70312 3.74231 7.44543 0 12.0454 0C16.6454 0 20.3877 3.74231 20.3877 8.34229C20.3877 13.8395 12.9067 22.9666 12.5883 23.3524L12.0536 24ZM12.0454 1.4079C8.2218 1.4079 5.11102 4.51868 5.11102 8.34229C5.11102 10.4912 6.3924 13.6011 8.81671 17.3359C10.0748 19.274 11.3417 20.9154 12.0377 21.7841C12.7348 20.8916 14.0138 19.1962 15.2798 17.2213C17.7004 13.4454 18.9798 10.3749 18.9798 8.34229C18.9798 4.51868 15.869 1.4079 12.0454 1.4079Z" fill="white"/>
</svg>
