<svg width="60" height="60" viewBox="0 0 60 60" fill="none" xmlns="http://www.w3.org/2000/svg">
<path d="M60 30C60 46.5685 46.5685 60 30 60C13.4315 60 0 46.5685 0 30C0 13.4315 13.4315 0 30 0C46.5685 0 60 13.4315 60 30Z" fill="#B3404A"/>
<g clip-path="url(#clip0)">
<path d="M40.4199 16H29.4996C27.5225 16 25.9199 17.5997 25.9199 19.5796V35.9601C25.9199 36.655 26.7169 37.0615 27.2793 36.6398L30.6928 34.0796H40.4199C42.397 34.0796 43.9996 32.48 43.9996 30.5V19.5796C43.9996 17.6025 42.3999 16 40.4199 16V16ZM34.9596 29.9845C34.4908 29.9845 34.11 29.6039 34.11 29.1349C34.11 28.666 34.4908 28.2853 34.9596 28.2853C35.4287 28.2853 35.8092 28.666 35.8092 29.1349C35.8092 29.6039 35.4287 29.9845 34.9596 29.9845ZM35.8092 26.2272V26.4048C35.8092 26.8741 35.4289 27.2544 34.9596 27.2544C34.4906 27.2544 34.11 26.8741 34.11 26.4048V25.4948C34.11 25.0255 34.4906 24.6452 34.9596 24.6452C35.7457 24.6452 36.3852 24.0058 36.3852 23.2197C36.3852 22.4338 35.7457 21.7944 34.9596 21.7944C34.1695 21.7944 33.5343 22.4334 33.5343 23.2188C33.5343 23.6881 33.1538 24.0691 32.6847 24.0691C32.2154 24.0691 31.8351 23.689 31.8351 23.2199V23.2188C31.8351 21.4908 33.2339 20.0952 34.9587 20.0952C36.6827 20.0952 38.0844 21.4968 38.0844 23.2199C38.0844 24.6483 37.1208 25.8561 35.8092 26.2272Z" fill="white"/>
<path d="M24.4152 33.6661C24.4152 35.8841 22.617 37.6822 20.399 37.6822C18.1809 37.6822 16.3828 35.8841 16.3828 33.6661C16.3828 31.4478 18.1809 29.6497 20.399 29.6497C22.617 29.6497 24.4152 31.4478 24.4152 33.6661Z" fill="white"/>
<path d="M20.3997 37.6824C17.4176 37.6824 15 40.1 15 43.082V44.1505C15 44.6197 15.3803 45.0001 15.8496 45.0001H24.9499C25.419 45.0001 25.7996 44.6197 25.7996 44.1505V43.082C25.7996 40.1 23.3819 37.6824 20.3997 37.6824Z" fill="white"/>
</g>
<defs>
<clipPath id="clip0">
<rect width="29" height="29" fill="white" transform="translate(15 16)"/>
</clipPath>
</defs>
</svg>
