<svg width="174" height="60" viewBox="0 0 174 60" fill="none" xmlns="http://www.w3.org/2000/svg">
<path fill-rule="evenodd" clip-rule="evenodd" d="M13.8135 3.91309H160.525C163.785 3.91309 164.965 4.2783 166.158 4.95656C167.334 5.62386 168.297 6.65558 168.919 7.91742C169.552 9.19567 169.892 10.4609 169.892 13.9435V46.0564C169.892 49.539 169.552 50.8042 168.919 52.0824C168.297 53.3443 167.334 54.376 166.158 55.0433C164.965 55.7216 163.785 56.0868 160.537 56.0868H13.8013C10.5532 56.0868 9.37317 55.7216 8.18099 55.0433C7.00412 54.376 6.04187 53.3443 5.4195 52.0824C4.78691 50.8042 4.44629 49.539 4.44629 46.0564V13.9435C4.44629 10.4609 4.78691 9.19567 5.4195 7.91742C6.04187 6.65558 7.00412 5.62386 8.18099 4.95656C9.37317 4.2783 10.5532 3.91309 13.8013 3.91309H13.8135Z" fill="black"/>
<path d="M41.3658 30.0392C41.3902 27.6001 42.5824 25.3566 44.5166 24.0783C43.9106 23.1517 43.1111 22.3896 42.1818 21.8529C41.2525 21.3162 40.2191 21.0197 39.164 20.9871C36.9256 20.7262 34.748 22.4218 33.6045 22.4218C32.4366 22.4218 30.6727 21.0131 28.7749 21.0523C27.5471 21.0952 26.3506 21.4781 25.3018 22.1638C24.2529 22.8495 23.3875 23.8147 22.7897 24.9653C20.1985 29.7783 22.1327 36.8348 24.6144 40.7217C25.8553 42.613 27.2908 44.7391 29.2007 44.6609C31.0498 44.5826 31.7554 43.3956 33.9816 43.3956C36.2078 43.3956 36.8526 44.6609 38.7868 44.6217C40.7819 44.5826 42.0349 42.7043 43.2393 40.787C44.1273 39.4304 44.8208 37.9305 45.2709 36.3522C44.1138 35.8272 43.1265 34.9486 42.4321 33.8259C41.7376 32.7033 41.3668 31.3863 41.3658 30.0392ZM37.7041 18.4305C38.7919 17.0334 39.3287 15.2366 39.2005 13.4219C37.5338 13.6175 36.001 14.4653 34.9062 15.8088C34.3672 16.4657 33.9545 17.23 33.6914 18.0582C33.4284 18.8863 33.3203 19.7619 33.3733 20.6349C34.2039 20.6438 35.0254 20.4499 35.7758 20.068C36.5261 19.6861 37.1855 19.1262 37.7041 18.4305Z" fill="white"/>
<path d="M66.8523 38.6606H61.0982L59.7113 43.0432H57.2783L62.7283 26.8432H65.2708L70.7208 43.0432H68.2391L66.8523 38.6606ZM61.6943 36.6389H66.2562L64.0056 29.5302H63.9448L61.6943 36.6389ZM82.4967 37.1345C82.4967 40.7997 80.6719 43.1606 77.8982 43.1606C77.1982 43.2006 76.5018 43.0285 75.8886 42.6641C75.2755 42.2996 74.7704 41.7575 74.4312 41.0997H74.3825V46.9432H72.1198V31.2258H74.3095V33.1823H74.346C74.7006 32.5255 75.215 31.9844 75.8343 31.6168C76.4536 31.2492 77.1544 31.069 77.8617 31.0954C80.6597 31.0954 82.4967 33.4693 82.4967 37.1345ZM80.1731 37.1345C80.1731 34.7476 79.0174 33.1693 77.2535 33.1693C75.5382 33.1693 74.3704 34.7736 74.3704 37.1345C74.3704 39.5084 75.5382 41.1127 77.2657 41.1127C79.0174 41.1127 80.1731 39.5475 80.1731 37.1345ZM94.6132 37.1345C94.6132 40.7997 92.7884 43.1606 90.0269 43.1606C89.3268 43.2006 88.6304 43.0285 88.0173 42.6641C87.4042 42.2996 86.8991 41.7575 86.5598 41.0997H86.499V46.9432H84.2485V31.2258H86.4382V33.1823H86.4747C86.8283 32.5275 87.3408 31.9877 87.9577 31.6202C88.5746 31.2527 89.2729 31.0714 89.9782 31.0954C92.7762 31.0954 94.6132 33.4693 94.6132 37.1345ZM92.3018 37.1345C92.3018 34.7476 91.1461 33.1693 89.3821 33.1693C87.6547 33.1693 86.499 34.7736 86.499 37.1345C86.499 39.5084 87.6547 41.1127 89.3821 41.1127C91.1461 41.1127 92.3018 39.5475 92.3018 37.1345ZM102.63 38.5302C102.8 40.1345 104.248 41.191 106.243 41.191C108.153 41.191 109.528 40.1345 109.528 38.6867C109.528 37.4215 108.688 36.678 106.73 36.1562L104.783 35.6476C101.997 34.9302 100.72 33.5476 100.72 31.2911C100.72 28.4867 102.983 26.5693 106.207 26.5693C109.406 26.5693 111.596 28.4867 111.669 31.2911H109.382C109.248 29.6737 107.995 28.6824 106.182 28.6824C104.357 28.6824 103.117 29.6737 103.117 31.1215C103.117 32.2563 103.907 32.9476 105.854 33.4563L107.52 33.8867C110.622 34.6693 111.9 36.0128 111.9 38.3736C111.9 41.4127 109.649 43.304 106.073 43.304C102.727 43.304 100.465 41.4519 100.319 38.5302H102.63ZM116.79 28.4345V31.2258H118.883V33.1432H116.79V39.6649C116.79 40.6693 117.204 41.1388 118.128 41.1388C118.372 41.1388 118.615 41.1127 118.858 41.0867V42.991C118.457 43.0823 118.031 43.1214 117.617 43.1084C115.379 43.1084 114.515 42.1953 114.515 39.9128V33.1432H112.91V31.2258H114.515V28.4345H116.79ZM120.087 37.1345C120.087 33.4171 122.131 31.0824 125.318 31.0824C128.505 31.0824 130.549 33.4302 130.549 37.1345C130.549 40.8649 128.517 43.1866 125.318 43.1866C122.119 43.1866 120.087 40.8649 120.087 37.1345ZM128.238 37.1345C128.238 34.591 127.143 33.091 125.318 33.091C123.493 33.091 122.398 34.591 122.398 37.1345C122.398 39.691 123.493 41.178 125.318 41.178C127.143 41.178 128.238 39.691 128.238 37.1345ZM132.41 31.2258H134.564V33.2345H134.612C134.916 31.9432 136.023 31.0563 137.264 31.1084C137.52 31.1084 137.787 31.1345 138.043 31.1997V33.4693C137.712 33.3575 137.367 33.3046 137.021 33.3128C136.691 33.297 136.362 33.3584 136.057 33.4926C135.751 33.6269 135.477 33.8307 135.252 34.0901C135.028 34.3495 134.859 34.6581 134.756 34.9946C134.654 35.3312 134.622 35.6875 134.661 36.0389V43.0432H132.41V31.2258ZM148.456 39.5736C148.152 41.7127 146.206 43.1866 143.712 43.1866C140.512 43.1866 138.529 40.878 138.529 37.1867C138.529 33.4823 140.524 31.0824 143.627 31.0824C146.668 31.0824 148.59 33.3258 148.59 36.9128V37.7345H140.804V37.891C140.769 38.3256 140.821 38.7631 140.956 39.1746C141.091 39.5861 141.306 39.9621 141.586 40.2779C141.867 40.5936 142.207 40.8417 142.584 41.0059C142.961 41.1701 143.366 41.2465 143.773 41.2301C144.867 41.3345 145.901 40.6693 146.315 39.5736H148.456ZM140.816 36.0519H146.327C146.347 35.6611 146.292 35.27 146.165 34.9032C146.037 34.5364 145.841 34.2017 145.587 33.9201C145.334 33.6385 145.029 33.416 144.691 33.2666C144.354 33.1172 143.992 33.0441 143.627 33.0519C142.884 33.0519 142.173 33.368 141.648 33.9306C141.123 34.4932 140.829 35.2563 140.829 36.0519H140.816Z" fill="white"/>
<path d="M61.4138 14.6478C61.8876 14.6128 62.3628 14.6909 62.805 14.8765C63.2473 15.062 63.6457 15.3505 63.9714 15.721C64.2972 16.0915 64.5423 16.5349 64.6891 17.0192C64.8358 17.5035 64.8805 18.0166 64.82 18.5217C64.82 20.9999 63.567 22.4347 61.4138 22.4347H58.7861V14.6478H61.4138ZM59.9175 21.326H61.28C61.618 21.347 61.956 21.2872 62.2698 21.1511C62.5836 21.0149 62.8654 20.8058 63.0946 20.5387C63.3239 20.2717 63.495 19.9534 63.5957 19.6069C63.6963 19.2603 63.7239 18.8941 63.6765 18.5347C63.7239 18.1753 63.6963 17.8092 63.5957 17.4626C63.495 17.116 63.3239 16.7978 63.0946 16.5307C62.8654 16.2637 62.5836 16.0545 62.2698 15.9184C61.956 15.7822 61.618 15.7225 61.28 15.7434H59.9175V21.326ZM66.0974 19.4869C66.0731 19.1069 66.1219 18.7256 66.2408 18.3667C66.3597 18.0078 66.5461 17.679 66.7885 17.4006C67.031 17.1222 67.3242 16.9002 67.65 16.7485C67.9758 16.5967 68.3273 16.5184 68.6825 16.5184C69.0377 16.5184 69.3891 16.5967 69.7149 16.7485C70.0408 16.9002 70.334 17.1222 70.5764 17.4006C70.8188 17.679 71.0053 18.0078 71.1242 18.3667C71.2431 18.7256 71.2919 19.1069 71.2676 19.4869C71.2919 19.8669 71.2431 20.2482 71.1242 20.6071C71.0053 20.966 70.8188 21.2948 70.5764 21.5732C70.334 21.8516 70.0408 22.0736 69.7149 22.2253C69.3891 22.3771 69.0377 22.4554 68.6825 22.4554C68.3273 22.4554 67.9758 22.3771 67.65 22.2253C67.3242 22.0736 67.031 21.8516 66.7885 21.5732C66.5461 21.2948 66.3597 20.966 66.2408 20.6071C66.1219 20.2482 66.0731 19.8669 66.0974 19.4869ZM70.1484 19.4869C70.1484 18.2217 69.6253 17.4782 68.6886 17.4782C67.7397 17.4782 67.2166 18.2217 67.2166 19.4869C67.2166 20.7782 67.7397 21.5086 68.6764 21.5086C69.6253 21.5086 70.1484 20.7652 70.1484 19.4869ZM78.1287 22.4347H77.0095L75.8782 18.1043H75.793L74.6617 22.4347H73.5668L72.0461 16.5652H73.141L74.1142 21.0391H74.1994L75.3307 16.5521H76.3648L77.4961 21.0391H77.5813L78.5545 16.5521H79.6372L78.1287 22.4347ZM80.9024 16.5652H81.9486V17.4913H82.0337C82.3135 16.8 82.9704 16.3826 83.6639 16.4478C83.9302 16.425 84.1979 16.467 84.4471 16.5707C84.6962 16.6743 84.9203 16.8368 85.1027 17.0462C85.2851 17.2555 85.4211 17.5063 85.5006 17.7799C85.58 18.0534 85.6009 18.3426 85.5616 18.626V22.4347H84.4668V18.913C84.4668 17.9739 84.1018 17.5043 83.2989 17.5043C83.1174 17.4937 82.936 17.5255 82.7671 17.5976C82.5983 17.6697 82.4461 17.7804 82.3211 17.9218C82.1961 18.0633 82.1013 18.2322 82.0433 18.4169C81.9852 18.6015 81.9654 18.7975 81.9851 18.9913V22.4347H80.9024V16.5652ZM87.2891 14.2695H88.3596V22.4347H87.2769L87.2891 14.2695ZM89.8681 19.4869C89.8438 19.1069 89.8926 18.7256 90.0115 18.3667C90.1304 18.0078 90.3168 17.679 90.5592 17.4006C90.8017 17.1222 91.0949 16.9002 91.4207 16.7485C91.7465 16.5967 92.0979 16.5184 92.4532 16.5184C92.8084 16.5184 93.1598 16.5967 93.4856 16.7485C93.8115 16.9002 94.1047 17.1222 94.3471 17.4006C94.5895 17.679 94.776 18.0078 94.8949 18.3667C95.0138 18.7256 95.0626 19.1069 95.0383 19.4869C95.0626 19.8669 95.0138 20.2482 94.8949 20.6071C94.776 20.966 94.5895 21.2948 94.3471 21.5732C94.1047 21.8516 93.8115 22.0736 93.4856 22.2253C93.1598 22.3771 92.8084 22.4554 92.4532 22.4554C92.0979 22.4554 91.7465 22.3771 91.4207 22.2253C91.0949 22.0736 90.8017 21.8516 90.5592 21.5732C90.3168 21.2948 90.1304 20.966 90.0115 20.6071C89.8926 20.2482 89.8438 19.8669 89.8681 19.4869ZM93.9191 19.4869C93.9191 18.2217 93.3838 17.4782 92.4593 17.4782C91.5104 17.4782 90.9873 18.2217 90.9873 19.4869C90.9873 20.7782 91.5104 21.5086 92.4471 21.5086C93.3838 21.5086 93.9191 20.7652 93.9191 19.4869ZM96.1696 20.7652C96.1696 19.7217 96.8995 19.1086 98.2134 19.0173L99.6975 18.926V18.4173C99.6975 17.8043 99.3082 17.4521 98.5662 17.4521C97.9579 17.4521 97.5443 17.6869 97.4348 18.1043H96.3764C96.4981 17.0869 97.374 16.4478 98.6148 16.4478C99.9895 16.4478 100.768 17.1782 100.768 18.4173V22.4347H99.7219V21.5999H99.6367C99.2839 22.213 98.6635 22.5651 97.9944 22.526C97.7643 22.5516 97.5317 22.5251 97.3117 22.4482C97.0918 22.3714 96.8893 22.246 96.7173 22.0801C96.5453 21.9141 96.4078 21.7114 96.3134 21.4849C96.2191 21.2584 96.1701 21.0132 96.1696 20.7652ZM99.6975 20.2695V19.7739L98.3594 19.8652C97.6051 19.9173 97.2645 20.2043 97.2645 20.713C97.2645 21.2347 97.6903 21.5478 98.2742 21.5478C98.4465 21.5675 98.6208 21.5498 98.7866 21.4957C98.9524 21.4416 99.1063 21.3522 99.2392 21.2329C99.372 21.1136 99.4811 20.9668 99.5598 20.8012C99.6386 20.6357 99.6854 20.4549 99.6975 20.2695ZM102.191 19.4869C102.191 17.6347 103.079 16.4608 104.466 16.4608C105.16 16.4217 105.817 16.826 106.145 17.4913H106.218V14.2695H107.313V22.4347H106.267V21.5086H106.182C105.829 22.1608 105.172 22.5521 104.466 22.526C103.067 22.526 102.191 21.3521 102.191 19.4869ZM103.311 19.4869C103.311 20.7391 103.858 21.4825 104.77 21.4825C105.683 21.4825 106.242 20.726 106.242 19.4999C106.242 18.2739 105.671 17.5043 104.77 17.5043C103.858 17.5043 103.311 18.2608 103.311 19.4869ZM111.778 19.4869C111.753 19.1069 111.802 18.7256 111.921 18.3667C112.04 18.0078 112.226 17.679 112.469 17.4006C112.711 17.1222 113.004 16.9002 113.33 16.7485C113.656 16.5967 114.007 16.5184 114.363 16.5184C114.718 16.5184 115.069 16.5967 115.395 16.7485C115.721 16.9002 116.014 17.1222 116.257 17.4006C116.499 17.679 116.685 18.0078 116.804 18.3667C116.923 18.7256 116.972 19.1069 116.948 19.4869C116.972 19.8669 116.923 20.2482 116.804 20.6071C116.685 20.966 116.499 21.2948 116.257 21.5732C116.014 21.8516 115.721 22.0736 115.395 22.2253C115.069 22.3771 114.718 22.4554 114.363 22.4554C114.007 22.4554 113.656 22.3771 113.33 22.2253C113.004 22.0736 112.711 21.8516 112.469 21.5732C112.226 21.2948 112.04 20.966 111.921 20.6071C111.802 20.2482 111.753 19.8669 111.778 19.4869ZM115.829 19.4869C115.829 18.2217 115.293 17.4782 114.369 17.4782C113.42 17.4782 112.897 18.2217 112.897 19.4869C112.897 20.7782 113.42 21.5086 114.357 21.5086C115.293 21.5086 115.829 20.7652 115.829 19.4869ZM118.395 16.5652H119.429V17.4913H119.515C119.794 16.8 120.451 16.3826 121.157 16.4478C121.422 16.4271 121.689 16.4707 121.936 16.5752C122.184 16.6797 122.406 16.8425 122.587 17.0516C122.768 17.2607 122.903 17.5108 122.982 17.7833C123.061 18.0558 123.081 18.3438 123.042 18.626V22.4347H121.972V18.913C121.972 17.9739 121.583 17.5043 120.78 17.5043C120.599 17.4956 120.419 17.5289 120.252 17.6019C120.084 17.6749 119.934 17.7858 119.81 17.927C119.687 18.0682 119.593 18.2365 119.535 18.4202C119.478 18.6039 119.459 18.7987 119.478 18.9913V22.4347H118.383V16.5652H118.395ZM129.161 15.0913V16.5913H130.342V17.5565H129.161V20.5825C129.161 21.1956 129.393 21.4695 129.928 21.4695L130.342 21.4434V22.4086C130.147 22.4478 129.952 22.4608 129.758 22.4608C128.541 22.4608 128.079 22.0043 128.079 20.8825V17.5565H127.203V16.5913H128.079V15.0913H129.161ZM131.813 14.2695H132.896V17.5043H132.981C133.273 16.813 133.942 16.3826 134.648 16.4608C134.912 16.445 135.176 16.4918 135.422 16.598C135.667 16.7041 135.888 16.867 136.068 17.075C136.248 17.283 136.383 17.531 136.464 17.8013C136.544 18.0717 136.568 18.3577 136.534 18.6391V22.4217H135.451V18.926C135.451 17.9869 135.037 17.5173 134.283 17.5173C134.097 17.4993 133.909 17.5254 133.733 17.5938C133.557 17.6622 133.397 17.7711 133.265 17.913C133.133 18.0548 133.031 18.2261 132.968 18.4146C132.904 18.6032 132.879 18.8045 132.896 19.0043V22.4347H131.813V14.2695ZM142.835 20.8434C142.687 21.379 142.369 21.842 141.935 22.1518C141.502 22.4616 140.981 22.5987 140.463 22.5391C140.103 22.5481 139.745 22.4734 139.415 22.32C139.084 22.1667 138.788 21.9384 138.548 21.6508C138.307 21.3633 138.128 21.0233 138.022 20.6542C137.915 20.2852 137.885 19.8958 137.933 19.513C137.886 19.1283 137.916 18.7373 138.022 18.3663C138.128 17.9954 138.307 17.6531 138.547 17.3626C138.787 17.0721 139.082 16.8401 139.412 16.6823C139.743 16.5245 140.101 16.4445 140.463 16.4478C141.984 16.4478 142.896 17.5565 142.896 19.4086V19.7999H139.04V19.8782C139.023 20.0938 139.048 20.3109 139.114 20.5154C139.18 20.72 139.285 20.9075 139.422 21.0659C139.56 21.2244 139.726 21.3503 139.912 21.4355C140.098 21.5207 140.298 21.5634 140.499 21.5608C141.023 21.626 141.533 21.3391 141.801 20.8434H142.835ZM139.04 18.9521H141.801C141.815 18.7557 141.79 18.5585 141.729 18.3728C141.667 18.1872 141.571 18.0173 141.445 17.8738C141.319 17.7303 141.167 17.6165 140.998 17.5394C140.829 17.4623 140.647 17.4237 140.463 17.426C140.275 17.4225 140.089 17.4596 139.914 17.535C139.74 17.6104 139.582 17.7227 139.449 17.8651C139.316 18.0076 139.212 18.1772 139.141 18.364C139.071 18.5507 139.036 18.7507 139.04 18.9521Z" fill="white"/>
</svg>
