<svg width="28" height="24" viewBox="0 0 28 24" fill="none" xmlns="http://www.w3.org/2000/svg">
<path d="M7.11563 18.6353H20.5556V9.28977L13.8356 4.11142L7.11563 9.28977V18.6353ZM21.6756 20.5342H5.99563C5.69858 20.5342 5.41371 20.4342 5.20367 20.2561C4.99363 20.0781 4.87563 19.8366 4.87563 19.5847V11.0396H1.51562L13.0819 2.1261C13.2881 1.96705 13.5568 1.87891 13.8356 1.87891C14.1144 1.87891 14.3832 1.96705 14.5894 2.1261L26.1556 11.0396H22.7956V19.5847C22.7956 19.8366 22.6776 20.0781 22.4676 20.2561C22.2575 20.4342 21.9727 20.5342 21.6756 20.5342ZM8.79563 12.9385H11.0356C11.0356 13.5681 11.3306 14.1718 11.8557 14.617C12.3808 15.0621 13.093 15.3122 13.8356 15.3122C14.5782 15.3122 15.2904 15.0621 15.8155 14.617C16.3406 14.1718 16.6356 13.5681 16.6356 12.9385H18.8756C18.8756 14.0717 18.3446 15.1584 17.3994 15.9597C16.4543 16.761 15.1723 17.2111 13.8356 17.2111C12.4989 17.2111 11.217 16.761 10.2718 15.9597C9.32662 15.1584 8.79563 14.0717 8.79563 12.9385Z" fill="white"/>
</svg>
