<svg width="24" height="24" viewBox="0 0 24 24" fill="none" xmlns="http://www.w3.org/2000/svg">
<path d="M18.9675 14.8671C18.4762 14.3555 17.8835 14.082 17.2554 14.082C16.6324 14.082 16.0347 14.3505 15.5231 14.8621L13.9224 16.4576C13.7907 16.3867 13.659 16.3209 13.5324 16.255C13.35 16.1639 13.1778 16.0777 13.0309 15.9866C11.5316 15.0343 10.169 13.7933 8.8621 12.1875C8.22893 11.3872 7.80344 10.7135 7.49445 10.0297C7.90981 9.64979 8.29478 9.25469 8.66962 8.87479C8.81145 8.73296 8.95328 8.58607 9.09511 8.44423C10.1588 7.38051 10.1588 6.00273 9.09511 4.939L7.71227 3.55616C7.55524 3.39913 7.39315 3.23704 7.24119 3.07495C6.93726 2.7609 6.61815 2.43671 6.2889 2.13279C5.79756 1.64652 5.20998 1.38818 4.592 1.38818C3.97403 1.38818 3.37631 1.64652 2.86978 2.13279C2.86471 2.13786 2.86471 2.13786 2.85965 2.14292L1.13742 3.88034C0.489056 4.52871 0.119284 5.31891 0.0382382 6.23574C-0.0833305 7.71482 0.352291 9.0926 0.686605 9.99424C1.50719 12.2078 2.73301 14.2593 4.56161 16.4576C6.78024 19.1068 9.44969 21.1988 12.499 22.6728C13.6641 23.225 15.2191 23.8784 16.9566 23.9898C17.0629 23.9949 17.1744 24 17.2757 24C18.4458 24 19.4285 23.5795 20.1984 22.7438C20.2035 22.7336 20.2136 22.7286 20.2187 22.7184C20.482 22.3993 20.786 22.1106 21.1051 21.8016C21.3229 21.5939 21.5458 21.3761 21.7636 21.1482C22.2651 20.6264 22.5285 20.0186 22.5285 19.3956C22.5285 18.7674 22.26 18.1647 21.7484 17.6581L18.9675 14.8671ZM20.7809 20.2009C20.7758 20.2009 20.7758 20.206 20.7809 20.2009C20.5834 20.4137 20.3807 20.6062 20.1629 20.8189C19.8337 21.133 19.4994 21.4622 19.1853 21.832C18.6737 22.3791 18.0709 22.6374 17.2807 22.6374C17.2048 22.6374 17.1237 22.6374 17.0477 22.6323C15.5433 22.5361 14.1453 21.9485 13.0967 21.447C10.2298 20.0591 7.71227 18.0887 5.62027 15.5915C3.89298 13.5096 2.73808 11.5848 1.97321 9.51809C1.50213 8.25682 1.32991 7.27414 1.40589 6.34718C1.45654 5.75453 1.68448 5.26319 2.10491 4.84276L3.8322 3.11547C4.0804 2.88247 4.3438 2.75583 4.60213 2.75583C4.92125 2.75583 5.17958 2.94832 5.34167 3.11041C5.34674 3.11547 5.35181 3.12054 5.35687 3.1256C5.66586 3.41433 5.95965 3.71319 6.26864 4.0323C6.42566 4.1944 6.58775 4.35649 6.74985 4.52364L8.13269 5.90649C8.66962 6.44342 8.66962 6.93982 8.13269 7.47675C7.9858 7.62365 7.84396 7.77054 7.69707 7.91237C7.27158 8.34799 6.86635 8.75322 6.42566 9.14832C6.41553 9.15845 6.4054 9.16352 6.40034 9.17365C5.96472 9.60927 6.04576 10.0348 6.13694 10.3235C6.142 10.3387 6.14707 10.3539 6.15213 10.3691C6.51177 11.2403 7.01831 12.0609 7.78825 13.0385L7.79331 13.0436C9.19135 14.7658 10.6654 16.1081 12.2914 17.1364C12.499 17.2681 12.7118 17.3745 12.9144 17.4758C13.0967 17.567 13.269 17.6531 13.4159 17.7442C13.4361 17.7544 13.4564 17.7696 13.4767 17.7797C13.6489 17.8658 13.811 17.9063 13.9781 17.9063C14.3985 17.9063 14.6619 17.6429 14.7481 17.5568L16.4804 15.8245C16.6526 15.6522 16.9262 15.4446 17.2453 15.4446C17.5593 15.4446 17.8177 15.6421 17.9747 15.8143C17.9798 15.8194 17.9798 15.8194 17.9848 15.8245L20.7758 18.6155C21.2976 19.1322 21.2976 19.664 20.7809 20.2009Z" fill="white"/>
<path d="M12.9701 5.70859C14.2972 5.93147 15.5028 6.55957 16.4652 7.52199C17.4276 8.48441 18.0507 9.68997 18.2786 11.0171C18.3343 11.3514 18.6231 11.5844 18.9523 11.5844C18.9928 11.5844 19.0283 11.5793 19.0688 11.5743C19.4437 11.5135 19.6919 11.1589 19.6311 10.7841C19.3575 9.17837 18.5977 7.71448 17.4378 6.55451C16.2778 5.39454 14.8139 4.63474 13.2082 4.36121C12.8333 4.30042 12.4838 4.54862 12.418 4.9184C12.3521 5.28817 12.5953 5.64781 12.9701 5.70859Z" fill="white"/>
<path d="M23.9721 10.5869C23.5213 7.94279 22.2752 5.53674 20.3605 3.62203C18.4458 1.70732 16.0397 0.461243 13.3956 0.0104253C13.0258 -0.0554245 12.6763 0.197844 12.6105 0.567615C12.5497 0.942452 12.7979 1.29196 13.1727 1.35781C15.5332 1.75798 17.686 2.87742 19.3981 4.58445C21.1101 6.29654 22.2245 8.44932 22.6247 10.8098C22.6804 11.1441 22.9691 11.3771 23.2984 11.3771C23.3389 11.3771 23.3744 11.372 23.4149 11.367C23.7847 11.3113 24.0379 10.9567 23.9721 10.5869Z" fill="white"/>
</svg>
