<svg width="16" height="9" viewBox="0 0 16 9" fill="none" xmlns="http://www.w3.org/2000/svg">
<path d="M0.939009 2.56099L5.52501 7.14599C6.19164 7.78282 7.07808 8.13818 8.00001 8.13818C8.92193 8.13818 9.80838 7.78282 10.475 7.14599L15.061 2.56099C15.3424 2.27959 15.5005 1.89794 15.5005 1.49999C15.5005 1.10204 15.3424 0.720383 15.061 0.438988C14.7796 0.157594 14.398 -0.000493033 14 -0.000493033C13.6021 -0.000493033 13.2204 0.157594 12.939 0.438988L8.35301 5.02499C8.25924 5.11872 8.13209 5.17138 7.99951 5.17138C7.86693 5.17138 7.73977 5.11872 7.64601 5.02499L3.06101 0.438988C2.77962 0.157594 2.39796 -0.000493033 2.00001 -0.000493033C1.60206 -0.000493033 1.2204 0.157594 0.939009 0.438988C0.657614 0.720383 0.499529 1.10204 0.499529 1.49999C0.499529 1.89794 0.657614 2.27959 0.939009 2.56099Z" fill="#1F1F1F"/>
</svg>
