<svg width="25" height="19" viewBox="0 0 25 19" fill="none" xmlns="http://www.w3.org/2000/svg">
<path d="M21.9102 0H2.12742C0.965676 0 0.0178833 0.946687 0.0178833 2.10938V16.1719C0.0178833 17.3306 0.961456 18.2812 2.12742 18.2812H21.9102C23.069 18.2812 24.0197 17.3377 24.0197 16.1719V2.10938C24.0197 0.950625 23.0762 0 21.9102 0ZM21.6189 1.40625L12.0635 10.9609L2.42552 1.40625H21.6189ZM1.42424 15.8807V2.39386L8.19722 9.10823L1.42424 15.8807ZM2.41868 16.875L9.19592 10.0983L11.5707 12.4524C11.8456 12.725 12.2892 12.7241 12.5629 12.4503L14.8784 10.135L21.6189 16.875H2.41868ZM22.6134 15.8806L15.8728 9.14062L22.6134 2.40056V15.8806Z" fill="white"/>
</svg>
