<svg width="45" height="45" viewBox="0 0 45 45" fill="none" xmlns="http://www.w3.org/2000/svg">
<g clip-path="url(#clip0)">
<path d="M1.31836 7.99805C2.04706 7.99805 2.63672 7.40839 2.63672 6.67969V2.63672H6.67969C7.40839 2.63672 7.99805 2.04706 7.99805 1.31836C7.99805 0.589658 7.40839 0 6.67969 0H1.31836C0.589658 0 0 0.589658 0 1.31836V6.67969C0 7.40839 0.589658 7.99805 1.31836 7.99805Z" fill="white"/>
<path d="M1.31836 45H6.67969C7.40839 45 7.99805 44.4103 7.99805 43.6816C7.99805 42.9529 7.40839 42.3633 6.67969 42.3633H2.63672V38.3203C2.63672 37.5916 2.04706 37.002 1.31836 37.002C0.589658 37.002 0 37.5916 0 38.3203V43.6816C0 44.4103 0.589658 45 1.31836 45Z" fill="white"/>
<path d="M43.6816 0H38.3203C37.5916 0 37.002 0.589658 37.002 1.31836C37.002 2.04706 37.5916 2.63672 38.3203 2.63672H42.3633V6.67969C42.3633 7.40839 42.9529 7.99805 43.6816 7.99805C44.4103 7.99805 45 7.40839 45 6.67969V1.31836C45 0.589658 44.4103 0 43.6816 0Z" fill="white"/>
<path d="M43.6816 37.002C42.9529 37.002 42.3633 37.5916 42.3633 38.3203V42.3633H38.3203C37.5916 42.3633 37.002 42.9529 37.002 43.6816C37.002 44.4103 37.5916 45 38.3203 45H43.6816C44.4103 45 45 44.4103 45 43.6816V38.3203C45 37.5916 44.4103 37.002 43.6816 37.002Z" fill="white"/>
<path d="M22.5 15.9082C18.8655 15.9082 15.9082 18.8655 15.9082 22.5C15.9082 26.1345 18.8655 29.0918 22.5 29.0918C26.1345 29.0918 29.0918 26.1345 29.0918 22.5C29.0918 18.8655 26.1345 15.9082 22.5 15.9082ZM22.5 26.4551C20.3191 26.4551 18.5449 24.6809 18.5449 22.5C18.5449 20.3191 20.3191 18.5449 22.5 18.5449C24.6809 18.5449 26.4551 20.3191 26.4551 22.5C26.4551 24.6809 24.6809 26.4551 22.5 26.4551Z" fill="white"/>
<path d="M22.5 7.99805C10.3129 7.99805 0.648853 21.1714 0.247192 21.7327C-0.0823975 22.1911 -0.0823975 22.809 0.247192 23.2674C0.648853 23.8286 10.3129 37.002 22.5 37.002C34.687 37.002 44.3511 23.8286 44.7528 23.2673C45.0824 22.8089 45.0824 22.191 44.7528 21.7326C44.3511 21.1714 34.687 7.99805 22.5 7.99805ZM22.5 31.7285C17.4119 31.7285 13.2714 27.5881 13.2714 22.5C13.2714 17.4119 17.4119 13.2715 22.5 13.2715C27.588 13.2715 31.7285 17.4119 31.7285 22.5C31.7285 27.5881 27.588 31.7285 22.5 31.7285Z" fill="white"/>
<path d="M22.5 23.8184C23.2281 23.8184 23.8184 23.2281 23.8184 22.5C23.8184 21.7719 23.2281 21.1816 22.5 21.1816C21.7719 21.1816 21.1816 21.7719 21.1816 22.5C21.1816 23.2281 21.7719 23.8184 22.5 23.8184Z" fill="white"/>
</g>
<defs>
<clipPath id="clip0">
<rect width="45" height="45" fill="white"/>
</clipPath>
</defs>
</svg>
