<svg width="20" height="20" viewBox="0 0 20 20" fill="none" xmlns="http://www.w3.org/2000/svg">
<path d="M5.53631 5.57561C6.68027 4.422 8.26451 3.70615 10.0062 3.70784C11.6119 3.70941 13.0769 4.31227 14.188 5.30364C14.3473 5.44568 14.6028 5.43635 14.7536 5.28549L16.7922 3.24694C16.9582 3.08094 16.9536 2.80968 16.7811 2.65047C14.9641 0.973331 12.5242 -0.0387086 9.84753 0.00113452C7.14133 0.041409 4.69341 1.16553 2.91513 2.95443C2.71686 3.15388 2.94878 5.56851 2.94878 5.56851C2.94878 5.56851 4.42011 6.70125 5.53631 5.57561Z" fill="url(#paint0_linear)"/>
<path d="M5.53657 5.57564C6.68053 4.42203 8.26476 3.70619 10.0064 3.70788C11.6121 3.70945 13.0772 4.31231 14.1883 5.30368C14.3475 5.44572 14.603 5.43639 14.7539 5.28553L15.9237 4.11568C15.8219 4.03694 15.7214 3.95427 15.6234 3.86745C14.0982 2.51674 12.1139 1.65725 9.9112 1.68039C7.62672 1.70439 5.57484 2.63615 4.0912 4.13019C3.92896 4.29356 3.86523 5.57113 3.86523 5.57113C3.86523 5.57113 4.05559 5.55392 5.53657 5.57564Z" fill="url(#paint1_linear)"/>
<path d="M3.70849 9.9431C3.6928 11.7133 4.4081 13.3164 5.57045 14.469L4.67829 16.3943L2.94888 17.0905C1.13084 15.2823 0.00417602 12.78 0.000254452 10.0145C-0.00366712 7.26819 1.11123 4.76898 2.91555 2.95447L5.53673 5.57564C4.42065 6.70113 3.72339 8.24349 3.70849 9.9431Z" fill="url(#paint2_linear)"/>
<path d="M3.70832 9.94304C3.69263 11.7132 4.40793 13.3164 5.57028 14.4689L4.13695 15.9027C2.6491 14.425 1.71695 12.3885 1.68126 10.1344C1.64401 7.78971 2.56832 5.66383 4.09146 4.13049L5.53656 5.57559C4.42048 6.70108 3.72322 8.24343 3.70832 9.94304Z" fill="url(#paint3_linear)"/>
<path d="M14.4351 14.4742C13.2885 15.6103 11.7055 16.3031 9.95941 16.2921C8.24788 16.2813 6.69886 15.5869 5.57078 14.4686L2.94897 17.0904C4.75019 18.8817 7.2298 19.9916 9.96874 20C12.7133 20.0085 15.2093 18.8798 17.0252 17.0644L16.2759 15.4622L14.4351 14.4742Z" fill="url(#paint4_linear)"/>
<path d="M14.4352 14.474C13.2885 15.6102 11.7057 16.3032 9.9596 16.2922C8.24811 16.2814 6.69909 15.587 5.57101 14.4686L4.13721 15.9024C5.64125 17.3966 7.71293 18.3201 10.0003 18.3201C12.2878 18.3201 14.3594 17.3966 15.8635 15.9024L14.4352 14.474Z" fill="url(#paint5_linear)"/>
<path d="M20.0003 8.97295C20.0003 8.77581 19.8405 8.61597 19.6434 8.61597H10.3351C10.1586 8.61597 10.0154 8.75914 10.0154 8.93573V12.0134C10.0154 12.19 10.1586 12.3332 10.3351 12.3332H14.8811C15.3493 12.3332 15.64 12.8442 15.3992 13.2457C15.1304 13.6938 14.8071 14.1045 14.439 14.4698C14.4376 14.4713 14.4367 14.4726 14.4353 14.474L17.0258 17.0646C17.1482 16.9423 17.2723 16.8199 17.3974 16.6972C19.016 14.9022 20.0003 12.5206 20.0003 9.92251V8.97295Z" fill="url(#paint6_linear)"/>
<path d="M17.8999 12.6188C18.2658 11.513 17.4462 10.3726 16.2815 10.3726H10.0154V12.0135C10.0154 12.1901 10.1586 12.3333 10.3351 12.3333H14.8811C15.3493 12.3333 15.64 12.8443 15.3992 13.2458C15.1313 13.6925 14.8091 14.1019 14.4425 14.4663C14.44 14.469 14.4379 14.4715 14.4353 14.4741L15.8635 15.9024C16.6227 15.149 17.2368 14.2498 17.6615 13.2506C17.749 13.0439 17.8286 12.8333 17.8999 12.6188Z" fill="url(#paint7_linear)"/>
<defs>
<linearGradient id="paint0_linear" x1="2.83498" y1="3.03702" x2="16.9136" y2="3.03702" gradientUnits="userSpaceOnUse">
<stop stop-color="#FF637B"/>
<stop offset="1" stop-color="#F90217"/>
</linearGradient>
<linearGradient id="paint1_linear" x1="13.4971" y1="8.44611" x2="4.65186" y2="-0.399182" gradientUnits="userSpaceOnUse">
<stop stop-color="#FF637B"/>
<stop offset="1" stop-color="#F90217"/>
</linearGradient>
<linearGradient id="paint2_linear" x1="0.238058" y1="7.32839" x2="5.67602" y2="12.7664" gradientUnits="userSpaceOnUse">
<stop stop-color="#FFD833"/>
<stop offset="1" stop-color="#F2B631"/>
</linearGradient>
<linearGradient id="paint3_linear" x1="6.91154" y1="12.8139" x2="1.10114" y2="7.00355" gradientUnits="userSpaceOnUse">
<stop stop-color="#FFD833"/>
<stop offset="1" stop-color="#F2B631"/>
</linearGradient>
<linearGradient id="paint4_linear" x1="9.13874" y1="15.8026" x2="12.1729" y2="18.8367" gradientUnits="userSpaceOnUse">
<stop stop-color="#28A265"/>
<stop offset="1" stop-color="#28895E"/>
</linearGradient>
<linearGradient id="paint5_linear" x1="13.8765" y1="19.7786" x2="5.0998" y2="11.0019" gradientUnits="userSpaceOnUse">
<stop stop-color="#28A265"/>
<stop offset="1" stop-color="#28895E"/>
</linearGradient>
<linearGradient id="paint6_linear" x1="14.2742" y1="9.75181" x2="18.9282" y2="14.4057" gradientUnits="userSpaceOnUse">
<stop stop-color="#7FAEF4"/>
<stop offset="1" stop-color="#4C8DF1"/>
</linearGradient>
<linearGradient id="paint7_linear" x1="18.1718" y1="15.9294" x2="12.13" y2="9.88755" gradientUnits="userSpaceOnUse">
<stop stop-color="#7FAEF4"/>
<stop offset="1" stop-color="#4C8DF1"/>
</linearGradient>
</defs>
</svg>
