<svg width="60" height="60" viewBox="0 0 60 60" fill="none" xmlns="http://www.w3.org/2000/svg">
<circle cx="30" cy="30" r="30" fill="#B3404A"/>
<g clip-path="url(#clip0)">
<path d="M18.3984 28.8008C18.3984 28.3313 18.0183 27.9512 17.5488 27.9512H15.8496C15.3801 27.9512 15 28.3313 15 28.8008C15 29.2705 15.3801 29.6504 15.8496 29.6504H17.5488C18.0183 29.6504 18.3984 29.2705 18.3984 28.8008Z" fill="white"/>
<path d="M43.1504 27.9512H41.4512C40.9817 27.9512 40.6016 28.3313 40.6016 28.8008C40.6016 29.2705 40.9817 29.6504 41.4512 29.6504H43.1504C43.6199 29.6504 44 29.2705 44 28.8008C44 28.3313 43.6199 27.9512 43.1504 27.9512Z" fill="white"/>
<path d="M19.6237 22.1176L18.1517 21.268C17.7452 21.033 17.2257 21.1724 16.991 21.5791C16.7562 21.9857 16.8956 22.505 17.3021 22.7397L18.774 23.5894C19.1778 23.8226 19.698 23.6867 19.9347 23.2783C20.1695 22.8716 20.0301 22.3523 19.6237 22.1176Z" fill="white"/>
<path d="M41.6979 34.8618L40.2259 34.0122C39.8186 33.7781 39.2993 33.9166 39.0652 34.3233C38.8304 34.73 38.9698 35.2492 39.3763 35.484L40.8483 36.3336C41.2521 36.5668 41.7722 36.4309 42.009 36.0225C42.2437 35.6159 42.1043 35.0966 41.6979 34.8618Z" fill="white"/>
<path d="M22.8173 18.7462C23.0538 19.1546 23.5742 19.2905 23.978 19.0573C24.3846 18.8223 24.524 18.303 24.2891 17.8966L23.4395 16.4246C23.2047 16.0191 22.6828 15.8794 22.2788 16.1135C21.8721 16.3483 21.7327 16.8678 21.9677 17.2742L22.8173 18.7462Z" fill="white"/>
<path d="M18.774 34.0122L17.3021 34.8618C16.8956 35.0966 16.7562 35.6158 16.991 36.0225C17.2277 36.4312 17.7479 36.567 18.1517 36.3336L19.6237 35.484C20.0301 35.2492 20.1695 34.73 19.9347 34.3233C19.6991 33.9166 19.1772 33.7781 18.774 34.0122Z" fill="white"/>
<path d="M40.2259 23.5894L41.6979 22.7397C42.1043 22.505 42.2437 21.9857 42.009 21.5791C41.7733 21.1724 41.2514 21.033 40.8483 21.268L39.3763 22.1176C38.9698 22.3523 38.8304 22.8716 39.0652 23.2783C39.3019 23.6869 39.8221 23.8228 40.2259 23.5894Z" fill="white"/>
<path d="M35.0229 19.0572C35.4267 19.2904 35.9471 19.1545 36.1836 18.7461L37.0332 17.2741C37.2682 16.8677 37.1288 16.3482 36.7221 16.1134C36.3163 15.8796 35.7962 16.019 35.5614 16.4245L34.7118 17.8965C34.4769 18.3029 34.6162 18.8224 35.0229 19.0572Z" fill="white"/>
<path d="M35.3924 21.546C33.1978 19.7614 30.3222 19.0753 27.4985 19.6643C23.8306 20.4285 20.9366 23.436 20.2976 27.1466C19.7624 30.2545 20.7873 33.3965 23.0381 35.5531C24.2355 36.6987 24.9634 38.2318 25.1643 39.8458H28.651V35.8551L25.4418 31.0411L23.8023 29.4016C23.4704 29.0697 23.4704 28.5321 23.8023 28.2002C24.1342 27.8683 24.6718 27.8683 25.0037 28.2002L26.1022 29.2987L27.2007 28.2002C27.5326 27.8683 28.0702 27.8683 28.4021 28.2002L29.5006 29.2987L30.5992 28.2002C30.931 27.8683 31.4687 27.8683 31.8006 28.2002L32.8991 29.2987L33.9976 28.2002C34.3295 27.8683 34.8671 27.8683 35.199 28.2002C35.5309 28.5321 35.5309 29.0697 35.199 29.4016L33.5595 31.0411L30.3503 35.8551V39.8458H33.7883C33.8874 38.3194 34.612 36.8244 35.9059 35.6068C37.7744 33.8472 38.8463 31.3663 38.8463 28.8009C38.8463 25.9748 37.5876 23.3307 35.3924 21.546Z" fill="white"/>
<path d="M31.1998 30.002L30.1012 31.1005C29.7694 31.4324 29.2317 31.4324 28.8998 31.1005L27.8013 30.002L27.1953 30.608L29.5005 34.0659L31.8058 30.608L31.1998 30.002Z" fill="white"/>
<path d="M25.252 42.4512C25.252 43.8566 26.3954 45 27.8008 45H31.1992C32.6046 45 33.748 43.8566 33.748 42.4512V41.5449H25.252V42.4512Z" fill="white"/>
</g>
<defs>
<clipPath id="clip0">
<rect width="29" height="29" fill="white" transform="translate(15 16)"/>
</clipPath>
</defs>
</svg>
