<svg width="10" height="20" viewBox="0 0 10 20" fill="none" xmlns="http://www.w3.org/2000/svg">
<path d="M9.93412 1.25423C9.93383 1.58564 9.80194 1.90337 9.56745 2.13756L3.17412 8.5309C2.98061 8.72436 2.8271 8.95405 2.72237 9.20685C2.61764 9.45964 2.56373 9.7306 2.56373 10.0042C2.56373 10.2779 2.61764 10.5488 2.72237 10.8016C2.8271 11.0544 2.98061 11.2841 3.17412 11.4776L9.55912 17.8626C9.78682 18.0983 9.91281 18.4141 9.90996 18.7418C9.90711 19.0696 9.77565 19.3831 9.54389 19.6148C9.31213 19.8466 8.99862 19.9781 8.67087 19.9809C8.34313 19.9838 8.02737 19.8578 7.79162 19.6301L1.40662 13.2501C0.548093 12.3898 0.065918 11.2242 0.065918 10.0088C0.065918 8.79348 0.548093 7.62778 1.40662 6.76756L7.79995 0.370063C7.97477 0.195133 8.19755 0.0759905 8.4401 0.0277121C8.68265 -0.0205664 8.93407 0.00418877 9.16255 0.098845C9.39103 0.193501 9.58629 0.353804 9.72364 0.55947C9.86098 0.765136 9.93423 1.00692 9.93412 1.25423Z" fill="#6C6C6C"/>
</svg>
