<svg width="12" height="16" viewBox="0 0 12 16" fill="none" xmlns="http://www.w3.org/2000/svg">
<path d="M5.99998 0C2.80075 0 0.217346 2.5834 0.217346 5.78263C0.217346 6.8981 0.573677 7.96322 1.06944 8.83852L4.83803 15.3609C5.07429 15.7869 5.55069 16 5.99998 16C6.4493 16 6.90243 15.7869 7.16193 15.3609L10.9305 8.84239C11.4302 7.96702 11.7826 6.92126 11.7826 5.78643C11.7826 2.58727 9.19921 0 5.99998 0ZM5.99998 7.4907C4.83803 7.4907 3.88911 6.54177 3.88911 5.37982C3.88911 4.21787 4.83803 3.26895 5.99998 3.26895C7.16193 3.26895 8.11085 4.21787 8.11085 5.37982C8.11085 6.54565 7.16193 7.4907 5.99998 7.4907Z" fill="#B3404A"/>
</svg>
