<svg width="60" height="60" viewBox="0 0 60 60" fill="none" xmlns="http://www.w3.org/2000/svg">
<circle cx="30" cy="30" r="30" fill="#B3404A"/>
<path d="M43.8824 26.4647L38.728 17.6819C38.4917 17.2793 37.9748 17.1427 37.5705 17.3762L34.4815 19.1596L31.699 18.1362C31.5966 18.0985 31.4929 18.0669 31.3884 18.0404C30.605 17.8412 29.7746 17.953 29.066 18.3621L24.4667 21.0176C23.4508 21.6041 23.1027 22.9031 23.6892 23.919C24.2757 24.9349 25.5748 25.283 26.5907 24.6965L31.6378 21.7825C32.1635 21.479 32.8112 21.479 33.337 21.7825C33.337 21.7825 43.5055 27.6553 43.5381 27.6754L43.6896 27.5507C44.012 27.2853 44.0938 26.8249 43.8824 26.4647Z" fill="white"/>
<path d="M42.5909 29.087L32.4881 23.2541L27.441 26.1681C26.8519 26.5082 26.1981 26.6819 25.5356 26.6819C25.2035 26.6819 24.8692 26.6383 24.5399 26.5501C23.5534 26.2857 22.7289 25.6531 22.2183 24.7687C21.7077 23.8843 21.5721 22.854 21.8365 21.8675C22.0546 21.0531 22.5244 20.3497 23.1791 19.8416L21.096 18.6389C20.6806 18.3991 20.1492 18.5504 19.9225 18.9731L15.101 27.9621C14.8842 28.3664 15.0275 28.87 15.425 29.0994L15.8666 29.3543L16.6417 28.0117C17.2848 26.8979 18.4837 26.206 19.7705 26.206C20.402 26.206 21.0257 26.3733 21.5742 26.6901C21.8898 26.8722 22.1712 27.0968 22.4129 27.3558C22.8035 27.2132 23.2208 27.1365 23.648 27.1365C24.2794 27.1365 24.9031 27.3039 25.4517 27.6206C26.2869 28.1028 26.8844 28.8815 27.134 29.8131C27.1615 29.9156 27.1835 30.0186 27.2019 30.1218C27.5493 30.202 27.8849 30.3335 28.1962 30.5133C29.0315 30.9955 29.629 31.7742 29.8786 32.7058C29.9061 32.8083 29.9281 32.9113 29.9465 33.0145C30.2939 33.0947 30.6295 33.2262 30.9408 33.406C32.6651 34.4015 33.258 36.6143 32.2626 38.3384L31.2041 40.1717L33.4729 41.4816C34.3872 42.0094 35.5563 41.6962 36.0842 40.7819C36.6121 39.8675 36.2988 38.6984 35.3845 38.1705L36.8561 39.0201C37.7704 39.548 38.9395 39.2347 39.4674 38.3204C39.9953 37.4061 39.682 36.237 38.7677 35.7091L39.7488 36.2755C40.6631 36.8034 41.8322 36.4901 42.3601 35.5757C42.888 34.6615 42.5747 33.4923 41.6603 32.9644L40.6793 32.398C41.5936 32.9259 42.7627 32.6126 43.2906 31.6983C43.8185 30.784 43.5052 29.6149 42.5909 29.087Z" fill="white"/>
<path d="M30.0903 34.8776C29.176 34.3498 28.0069 34.663 27.479 35.5773L28.0454 34.5963C28.5733 33.682 28.26 32.5129 27.3457 31.985C26.4314 31.4571 25.2623 31.7704 24.7344 32.6847L25.3008 31.7036C25.8287 30.7893 25.5154 29.6202 24.6011 29.0923C23.6868 28.5644 22.5177 28.8777 21.9898 29.792L21.4234 30.773C21.9513 29.8587 21.638 28.6896 20.7237 28.1617C19.8094 27.6338 18.6403 27.9471 18.1124 28.8614L16.0592 32.4177C15.5313 33.332 15.8446 34.5012 16.7588 35.029C17.6731 35.5569 18.8423 35.2436 19.3702 34.3292C18.8423 35.2435 19.1555 36.4127 20.0698 36.9406C20.9841 37.4684 22.1533 37.1552 22.6811 36.2408C22.1532 37.1551 22.4665 38.3243 23.3809 38.8521C24.2952 39.38 25.4643 39.0667 25.9922 38.1524C25.4643 39.0667 25.7776 40.2358 26.6919 40.7637C27.6062 41.2916 28.7753 40.9783 29.3032 40.0639L30.79 37.4887C31.3179 36.5747 31.0046 35.4055 30.0903 34.8776Z" fill="white"/>
</svg>
