<svg width="95" height="89" viewBox="0 0 95 89" fill="none" xmlns="http://www.w3.org/2000/svg">
<path d="M91.8333 40.5416V17.2333L69.6667 9.84392V40.5416H66.5V5.70825H28.5V40.5416H25.3333V21.5416H22.1667V10.4583H15.8333V0.958252H12.6667V10.4583H6.33333V21.5416H3.16667V40.5416H0V84.8749H28.5V88.0416H66.5V84.8749H95V40.5416H91.8333ZM9.5 13.6249H19V21.5416H9.5V13.6249ZM6.33333 24.7082H22.1667V40.5416H6.33333V24.7082ZM28.5 81.7082H3.16667V43.7082H28.5V81.7082ZM50.6667 84.8749H44.3333V69.0416H50.6667V84.8749ZM63.3333 84.8749H53.8333V65.8749H41.1667V84.8749H31.6667V8.87492H63.3333V84.8749ZM72.8333 14.2392L88.6667 19.5165V40.5416H85.5V21.5416H82.3333V40.5416H79.1667V21.5416H76V40.5416H72.8333V14.2392ZM82.3333 81.7082H76V75.3749H82.3333V81.7082ZM91.8333 81.7082H85.5V72.2082H72.8333V81.7082H66.5V43.7082H91.8333V81.7082Z" fill="#CC465E"/>
</svg>
