<svg width="60" height="60" viewBox="0 0 60 60" fill="none" xmlns="http://www.w3.org/2000/svg">
<circle cx="30" cy="30" r="30" fill="#B3404A"/>
<path d="M38.1094 37.75C38.338 37.7501 38.5629 37.8079 38.7633 37.918C38.9637 38.0281 39.1331 38.1869 39.2558 38.3798C39.4584 38.2634 39.6882 38.2025 39.9219 38.2031C40.0738 38.2059 40.224 38.235 40.3659 38.2892C40.3659 38.2575 40.375 38.2303 40.375 38.2031V21.4375H16.8125V38.2031C16.8136 38.5633 16.9571 38.9085 17.2118 39.1632C17.4665 39.4179 17.8117 39.5614 18.1719 39.5625H32.98L33.0208 39.5353C33.1746 39.4454 33.3448 39.387 33.5214 39.3637C33.698 39.3404 33.8775 39.3525 34.0494 39.3994C34.1785 39.4369 34.302 39.4918 34.4164 39.5625H34.9375V36.3906C34.9381 36.2005 34.9788 36.0127 35.0569 35.8394C35.1349 35.666 35.2487 35.5111 35.3906 35.3847V25.9688C35.3906 25.8486 35.4384 25.7333 35.5233 25.6483C35.6083 25.5634 35.7236 25.5156 35.8438 25.5156H36.1111L34.4844 23.8889L32.8577 25.5156H33.125C33.2452 25.5156 33.3604 25.5634 33.4454 25.6483C33.5304 25.7333 33.5781 25.8486 33.5781 25.9688V38.6562H32.6719V26.4219H31.7656C31.676 26.4222 31.5883 26.3956 31.514 26.3455C31.4396 26.2954 31.3821 26.2241 31.3488 26.1409C31.3141 26.0584 31.3046 25.9675 31.3215 25.8796C31.3384 25.7917 31.381 25.7108 31.4439 25.647L34.1627 22.9283C34.2482 22.8434 34.3638 22.7957 34.4844 22.7957C34.6049 22.7957 34.7205 22.8434 34.8061 22.9283L37.5248 25.647C37.5877 25.7108 37.6303 25.7917 37.6472 25.8796C37.6642 25.9675 37.6547 26.0584 37.62 26.1409C37.5867 26.2241 37.5291 26.2954 37.4548 26.3455C37.3804 26.3956 37.2928 26.4222 37.2031 26.4219H36.2969V35.0312C36.6571 35.0323 37.0022 35.1759 37.2569 35.4306C37.5116 35.6853 37.6552 36.0304 37.6562 36.3906V37.8361C37.8008 37.7801 37.9544 37.751 38.1094 37.75ZM21.3438 23.25H24.0625V24.1562H21.3438V23.25ZM19.5312 23.25H20.4375V24.1562H19.5312V23.25ZM19.5312 25.0625H24.0625V25.9688H19.5312V25.0625ZM24.0625 26.875V27.7812H23.1562V26.875H24.0625ZM19.5312 26.875H22.25V27.7812H19.5312V26.875ZM25.8406 33.8454C25.8062 33.9282 25.7481 33.9989 25.6736 34.0487C25.5991 34.0985 25.5115 34.125 25.4219 34.125H24.5156V38.6562H23.6094V33.6719C23.6094 33.5517 23.6571 33.4364 23.7421 33.3515C23.8271 33.2665 23.9423 33.2188 24.0625 33.2188H24.328L22.7031 31.5938L21.0782 33.2188H21.3438C21.4639 33.2188 21.5792 33.2665 21.6642 33.3515C21.7491 33.4364 21.7969 33.5517 21.7969 33.6719V38.6562H20.8906V34.125H19.9844C19.8948 34.125 19.8072 34.0984 19.7327 34.0486C19.6582 33.9988 19.6001 33.9281 19.5658 33.8453C19.5315 33.7625 19.5226 33.6714 19.54 33.5835C19.5575 33.4956 19.6007 33.4149 19.664 33.3515L22.3828 30.6328C22.4677 30.5478 22.583 30.5001 22.7031 30.5001C22.8233 30.5001 22.9385 30.5478 23.0235 30.6328L25.7422 33.3515C25.8056 33.4149 25.8488 33.4956 25.8663 33.5836C25.8838 33.6715 25.8749 33.7626 25.8406 33.8454ZM31.6329 29.2734C31.6962 29.3368 31.7394 29.4175 31.7568 29.5054C31.7743 29.5933 31.7653 29.6844 31.731 29.7671C31.6968 29.8499 31.6387 29.9207 31.5642 29.9705C31.4897 30.0203 31.4021 30.0469 31.3125 30.0469H30.4062V38.6562H29.5V29.5938C29.5 29.4736 29.5477 29.3583 29.6327 29.2733C29.7177 29.1884 29.8329 29.1406 29.9531 29.1406H30.2187L28.5938 27.5157L26.9688 29.1406H27.2344C27.3546 29.1406 27.4698 29.1884 27.5548 29.2733C27.6398 29.3583 27.6875 29.4736 27.6875 29.5938V38.6562H26.7812V30.0469H25.875C25.7854 30.0469 25.6978 30.0203 25.6233 29.9705C25.5488 29.9207 25.4907 29.8499 25.4565 29.7671C25.4222 29.6844 25.4132 29.5933 25.4307 29.5054C25.4481 29.4175 25.4913 29.3368 25.5546 29.2734L28.2734 26.5546C28.3584 26.4697 28.4736 26.422 28.5938 26.422C28.7139 26.422 28.8291 26.4697 28.9141 26.5546L31.6329 29.2734Z" fill="white"/>
<path d="M18.707 40.4688C18.8011 40.7328 18.9742 40.9615 19.2029 41.1236C19.4315 41.2858 19.7045 41.3736 19.9848 41.375H32.5138C32.3603 41.0994 32.3089 40.7785 32.3688 40.4688H18.707Z" fill="white"/>
<path d="M42.1878 40.0156C42.1878 39.8954 42.1401 39.7802 42.0551 39.6952C41.9701 39.6102 41.8549 39.5625 41.7347 39.5625C41.6145 39.5625 41.4992 39.6102 41.4143 39.6952C41.3293 39.7802 41.2816 39.8954 41.2816 40.0156V40.9219C41.2816 41.0421 41.2338 41.1573 41.1488 41.2423C41.0639 41.3273 40.9486 41.375 40.8284 41.375C40.7083 41.375 40.593 41.3273 40.508 41.2423C40.423 41.1573 40.3753 41.0421 40.3753 40.9219V39.5625C40.3753 39.4423 40.3276 39.3271 40.2426 39.2421C40.1576 39.1571 40.0424 39.1094 39.9222 39.1094C39.802 39.1094 39.6868 39.1571 39.6018 39.2421C39.5168 39.3271 39.4691 39.4423 39.4691 39.5625V40.4688C39.4691 40.5889 39.4213 40.7042 39.3363 40.7892C39.2514 40.8741 39.1361 40.9219 39.0159 40.9219C38.8958 40.9219 38.7805 40.8741 38.6955 40.7892C38.6105 40.7042 38.5628 40.5889 38.5628 40.4688V39.1094C38.5628 38.9892 38.5151 38.8739 38.4301 38.789C38.3451 38.704 38.2299 38.6562 38.1097 38.6562C37.9921 38.6641 37.8813 38.7144 37.798 38.7977C37.7147 38.881 37.6644 38.9918 37.6566 39.1094V40.4688C37.6566 40.5889 37.6088 40.7042 37.5238 40.7892C37.4389 40.8741 37.3236 40.9219 37.2034 40.9219C37.0833 40.9219 36.968 40.8741 36.883 40.7892C36.7981 40.7042 36.7503 40.5889 36.7503 40.4688V36.3906C36.7503 36.2704 36.7026 36.1552 36.6176 36.0702C36.5326 35.9852 36.4174 35.9375 36.2972 35.9375C36.177 35.9375 36.0618 35.9852 35.9768 36.0702C35.8918 36.1552 35.8441 36.2704 35.8441 36.3906V41.8281C35.8445 41.9281 35.8119 42.0255 35.7512 42.105C35.6906 42.1845 35.6053 42.2417 35.5088 42.2677C35.4119 42.2922 35.3096 42.2847 35.2173 42.2463C35.125 42.2079 35.0477 42.1407 34.9967 42.0547L34.0905 40.4869C34.0619 40.4349 34.023 40.3892 33.9763 40.3526C33.9296 40.316 33.8759 40.2892 33.8186 40.2739C33.7316 40.2497 33.6394 40.2521 33.5538 40.2807C33.4682 40.3093 33.393 40.3628 33.338 40.4343C33.283 40.5059 33.2506 40.5923 33.245 40.6824C33.2394 40.7725 33.2608 40.8622 33.3066 40.94L34.8658 43.6406H42.1878V40.0156Z" fill="white"/>
<path d="M41.2821 19.7065V38.2031C41.2816 38.396 41.2557 38.5879 41.2051 38.774C41.3584 38.7031 41.5243 38.6633 41.6931 38.6571C41.8619 38.6509 42.0303 38.6783 42.1884 38.7378V20.9844C42.1869 20.7041 42.0991 20.431 41.937 20.2024C41.7748 19.9737 41.5462 19.8006 41.2821 19.7065Z" fill="white"/>
<path d="M40.375 19.1719C40.3739 18.8117 40.2304 18.4665 39.9757 18.2118C39.721 17.9571 39.3758 17.8136 39.0156 17.8125H18.1719C17.8117 17.8136 17.4665 17.9571 17.2118 18.2118C16.9571 18.4665 16.8136 18.8117 16.8125 19.1719V20.5312H40.375V19.1719ZM18.625 19.625H17.7188V18.7188H18.625V19.625ZM20.4375 19.625H19.5312V18.7188H20.4375V19.625ZM22.25 19.625H21.3438V18.7188H22.25V19.625Z" fill="white"/>
</svg>
