<svg width="67" height="50" viewBox="0 0 67 50" fill="none" xmlns="http://www.w3.org/2000/svg">
<path d="M67 25C67 38.8071 55.8071 50 42 50L0 50V0L42 0C55.8071 0 67 11.1929 67 25Z" fill="#B3404A"/>
<g clip-path="url(#clip0)">
<path d="M43.6342 32.8659L39.75 28.98C41.0806 27.2019 41.6882 24.9857 41.4505 22.7776C41.2128 20.5695 40.1475 18.5334 38.4689 17.0791C36.7904 15.6249 34.6232 14.8606 32.4038 14.9399C30.1843 15.0193 28.0773 15.9365 26.5069 17.5069C24.9365 19.0773 24.0193 21.1843 23.9399 23.4038C23.8606 25.6232 24.6249 27.7904 26.0791 29.4689C27.5334 31.1475 29.5695 32.2128 31.7776 32.4505C33.9857 32.6882 36.2019 32.0806 37.98 30.75L41.8659 34.6359C42.1004 34.8704 42.4184 35.0021 42.75 35.0021C43.0817 35.0021 43.3997 34.8704 43.6342 34.6359C43.8687 34.4014 44.0004 34.0833 44.0004 33.7517C44.0004 33.4201 43.8687 33.102 43.6342 32.8675V32.8659ZM32.75 30C31.5139 30 30.3055 29.6335 29.2777 28.9467C28.2499 28.26 27.4488 27.2839 26.9758 26.1418C26.5027 24.9998 26.379 23.7431 26.6201 22.5307C26.8613 21.3183 27.4565 20.2047 28.3306 19.3306C29.2047 18.4565 30.3183 17.8613 31.5307 17.6201C32.7431 17.379 33.9998 17.5027 35.1418 17.9758C36.2838 18.4488 37.26 19.2499 37.9467 20.2777C38.6335 21.3055 39 22.5139 39 23.75C38.9983 25.4071 38.3392 26.9958 37.1675 28.1675C35.9958 29.3392 34.4071 29.9983 32.75 30Z" fill="white"/>
</g>
<defs>
<clipPath id="clip0">
<rect width="20" height="20" fill="white" transform="translate(24 15)"/>
</clipPath>
</defs>
</svg>
