<svg width="60" height="60" viewBox="0 0 60 60" fill="none" xmlns="http://www.w3.org/2000/svg">
<circle cx="30" cy="30" r="30" fill="#B3404A"/>
<path d="M15 34.8052H18.4789V44.9999H15V34.8052Z" fill="white"/>
<path d="M26.7583 27.8958H32.8124C33.7517 26.6172 35.8735 24.8106 35.8735 21.9489C35.8735 18.6701 33.142 16.002 29.7854 16.002C26.4287 16.002 23.6973 18.6701 23.6973 21.9489C23.6973 24.7852 25.7756 26.558 26.7583 27.8958ZM28.6608 21.3482L29.7854 22.4467L30.9099 21.3482L32.1398 22.5496L30.6552 23.9998V26.1967H28.9157V23.9998L27.4311 22.5496L28.6608 21.3482Z" fill="white"/>
<path d="M29.785 32.993C31.2237 32.993 32.3942 31.8497 32.3942 30.4443V29.5947H27.1758V30.4443C27.1758 31.8497 28.3461 32.993 29.785 32.993Z" fill="white"/>
<path d="M18.4785 21.439H21.9574V23.1381H18.4785V21.439Z" fill="white"/>
<path d="M37.6133 21.439H41.0922V23.1381H37.6133V21.439Z" fill="white"/>
<path d="M19.5586 27.0732L22.5705 25.3746L23.4404 26.8463L20.4285 28.5449L19.5586 27.0732Z" fill="white"/>
<path d="M36.1289 17.6987L39.1408 16.0001L40.0107 17.4717L36.9988 19.1704L36.1289 17.6987Z" fill="white"/>
<path d="M19.5586 17.4731L20.4285 16.0015L23.4404 17.7001L22.5705 19.1718L19.5586 17.4731Z" fill="white"/>
<path d="M36.127 26.8447L36.9968 25.373L40.0088 27.0717L39.1389 28.5434L36.127 26.8447Z" fill="white"/>
<path d="M43.2173 32.2933C41.9273 31.67 40.3675 32.1817 39.7241 33.4372L36.4107 39.9028H25.4371V38.2037C25.7067 38.2037 36.2799 38.2037 35.8739 38.2037C35.8739 36.3268 34.3163 34.8054 32.3949 34.8054C32.2031 34.8054 28.1437 34.8054 28.3929 34.8054C26.1083 32.7949 22.7973 32.5381 20.2188 33.9801V43.4877H38.4626L44.0004 32.6715L43.2173 32.2933Z" fill="white"/>
</svg>
