<svg width="142" height="94" viewBox="0 0 142 94" fill="none" xmlns="http://www.w3.org/2000/svg">
<g filter="url(#filter0_d)">
<circle cx="71.5" cy="32.5" r="32.5" fill="#1BD741"/>
<g clip-path="url(#clip0)">
<path d="M72.5523 16.7755H72.5439C63.2951 16.7755 55.7739 24.2987 55.7739 33.5497C55.7739 37.2191 56.9565 40.62 58.9673 43.3815L56.8768 49.6131L63.3244 47.552C65.9768 49.3091 69.1409 50.3239 72.5523 50.3239C81.8012 50.3239 89.3223 42.7986 89.3223 33.5497C89.3223 24.3008 81.8012 16.7755 72.5523 16.7755ZM82.3128 40.4628C81.9081 41.6055 80.302 42.5532 79.0209 42.83C78.1444 43.0166 76.9996 43.1655 73.1457 41.5678C68.2162 39.5255 65.0417 34.5163 64.7942 34.1913C64.5573 33.8663 62.8023 31.5389 62.8023 29.1318C62.8023 26.7247 64.0247 25.5526 64.5175 25.0494C64.9222 24.6363 65.591 24.4476 66.2326 24.4476C66.4402 24.4476 66.6268 24.4581 66.7946 24.4665C67.2873 24.4874 67.5347 24.5168 67.8597 25.2947C68.2644 26.2697 69.2499 28.6768 69.3673 28.9242C69.4868 29.1716 69.6063 29.5071 69.4386 29.8321C69.2813 30.1676 69.143 30.3165 68.8955 30.6016C68.6481 30.8868 68.4133 31.1049 68.1659 31.411C67.9394 31.6773 67.6836 31.9624 67.9688 32.4552C68.2539 32.9374 69.2394 34.5457 70.6904 35.8373C72.5628 37.5042 74.0809 38.0368 74.6239 38.2633C75.0286 38.431 75.5109 38.3912 75.8065 38.0766C76.1818 37.672 76.6452 37.001 77.117 36.3405C77.4525 35.8666 77.876 35.8079 78.3205 35.9757C78.7734 36.1329 81.1701 37.3176 81.6628 37.5629C82.1555 37.8103 82.4805 37.9278 82.6 38.1353C82.7175 38.3429 82.7175 39.3179 82.3128 40.4628Z" fill="white"/>
</g>
</g>
<path d="M7.16309 76.7676C5.95605 76.7676 5.00684 77.1953 4.31543 78.0508C3.62402 78.9062 3.27832 80.0869 3.27832 81.5928C3.27832 83.1689 3.60938 84.3613 4.27148 85.1699C4.93945 85.9785 5.90332 86.3828 7.16309 86.3828C7.70801 86.3828 8.23535 86.3301 8.74512 86.2246C9.25488 86.1133 9.78516 85.9727 10.3359 85.8027V87.6045C9.32812 87.9854 8.18555 88.1758 6.9082 88.1758C5.02734 88.1758 3.58301 87.6074 2.5752 86.4707C1.56738 85.3281 1.06348 83.6963 1.06348 81.5752C1.06348 80.2393 1.30664 79.0703 1.79297 78.0684C2.28516 77.0664 2.99414 76.2988 3.91992 75.7656C4.8457 75.2324 5.93262 74.9658 7.18066 74.9658C8.49316 74.9658 9.70605 75.2412 10.8193 75.792L10.0635 77.541C9.62988 77.3359 9.16992 77.1572 8.68359 77.0049C8.20312 76.8467 7.69629 76.7676 7.16309 76.7676ZM21.5068 83.1221C21.5068 84.71 21.0996 85.9492 20.2852 86.8398C19.4707 87.7305 18.3369 88.1758 16.8838 88.1758C15.9756 88.1758 15.1729 87.9707 14.4756 87.5605C13.7783 87.1504 13.2422 86.5615 12.8672 85.7939C12.4922 85.0264 12.3047 84.1357 12.3047 83.1221C12.3047 81.5459 12.709 80.3154 13.5176 79.4307C14.3262 78.5459 15.4658 78.1035 16.9365 78.1035C18.3428 78.1035 19.4561 78.5576 20.2764 79.4658C21.0967 80.3682 21.5068 81.5869 21.5068 83.1221ZM14.4316 83.1221C14.4316 85.3662 15.2607 86.4883 16.9189 86.4883C18.5596 86.4883 19.3799 85.3662 19.3799 83.1221C19.3799 80.9014 18.5537 79.791 16.9014 79.791C16.0342 79.791 15.4043 80.0781 15.0117 80.6523C14.625 81.2266 14.4316 82.0498 14.4316 83.1221ZM32.4404 88H30.3662V82.0234C30.3662 81.2734 30.2139 80.7139 29.9092 80.3447C29.6104 79.9756 29.1328 79.791 28.4766 79.791C27.6035 79.791 26.9648 80.0488 26.5605 80.5645C26.1562 81.0801 25.9541 81.9443 25.9541 83.1572V88H23.8887V78.2793H25.5059L25.7959 79.5537H25.9014C26.1943 79.0908 26.6104 78.7334 27.1494 78.4814C27.6885 78.2295 28.2861 78.1035 28.9424 78.1035C31.2744 78.1035 32.4404 79.29 32.4404 81.6631V88ZM38.9355 86.5059C39.4395 86.5059 39.9434 86.4268 40.4473 86.2686V87.8242C40.2188 87.9238 39.9229 88.0059 39.5596 88.0703C39.2021 88.1406 38.8301 88.1758 38.4434 88.1758C36.4863 88.1758 35.5078 87.1445 35.5078 85.082V79.8438H34.1807V78.9297L35.6045 78.1738L36.3076 76.1172H37.582V78.2793H40.3506V79.8438H37.582V85.0469C37.582 85.5449 37.7051 85.9141 37.9512 86.1543C38.2031 86.3887 38.5312 86.5059 38.9355 86.5059ZM48.4805 88L48.0674 86.6465H47.9971C47.5283 87.2383 47.0566 87.6426 46.582 87.8594C46.1074 88.0703 45.498 88.1758 44.7539 88.1758C43.7988 88.1758 43.0518 87.918 42.5127 87.4023C41.9795 86.8867 41.7129 86.1572 41.7129 85.2139C41.7129 84.2119 42.085 83.4561 42.8291 82.9463C43.5732 82.4365 44.707 82.1582 46.2305 82.1113L47.9092 82.0586V81.54C47.9092 80.9189 47.7627 80.4561 47.4697 80.1514C47.1826 79.8408 46.7344 79.6855 46.125 79.6855C45.627 79.6855 45.1494 79.7588 44.6924 79.9053C44.2354 80.0518 43.7959 80.2246 43.374 80.4238L42.7061 78.9473C43.2334 78.6719 43.8105 78.4639 44.4375 78.3232C45.0645 78.1768 45.6562 78.1035 46.2129 78.1035C47.4492 78.1035 48.3809 78.373 49.0078 78.9121C49.6406 79.4512 49.957 80.2979 49.957 81.4521V88H48.4805ZM45.4043 86.5938C46.1543 86.5938 46.7549 86.3857 47.2061 85.9697C47.6631 85.5479 47.8916 84.959 47.8916 84.2031V83.3594L46.6436 83.4121C45.6709 83.4473 44.9619 83.6113 44.5166 83.9043C44.0771 84.1914 43.8574 84.6338 43.8574 85.2314C43.8574 85.665 43.9863 86.002 44.2441 86.2422C44.502 86.4766 44.8887 86.5938 45.4043 86.5938ZM56.7598 88.1758C55.2891 88.1758 54.1699 87.748 53.4023 86.8926C52.6406 86.0312 52.2598 84.7979 52.2598 83.1924C52.2598 81.5576 52.6582 80.3008 53.4551 79.4219C54.2578 78.543 55.415 78.1035 56.9268 78.1035C57.9521 78.1035 58.875 78.2939 59.6953 78.6748L59.0713 80.3359C58.1982 79.9961 57.4775 79.8262 56.9092 79.8262C55.2275 79.8262 54.3867 80.9424 54.3867 83.1748C54.3867 84.2646 54.5947 85.085 55.0107 85.6357C55.4326 86.1807 56.0479 86.4531 56.8564 86.4531C57.7764 86.4531 58.6465 86.2246 59.4668 85.7676V87.5693C59.0977 87.7861 58.7021 87.9414 58.2803 88.0352C57.8643 88.1289 57.3574 88.1758 56.7598 88.1758ZM65.373 86.5059C65.877 86.5059 66.3809 86.4268 66.8848 86.2686V87.8242C66.6562 87.9238 66.3604 88.0059 65.9971 88.0703C65.6396 88.1406 65.2676 88.1758 64.8809 88.1758C62.9238 88.1758 61.9453 87.1445 61.9453 85.082V79.8438H60.6182V78.9297L62.042 78.1738L62.7451 76.1172H64.0195V78.2793H66.7881V79.8438H64.0195V85.0469C64.0195 85.5449 64.1426 85.9141 64.3887 86.1543C64.6406 86.3887 64.9688 86.5059 65.373 86.5059ZM81.1406 84.5107C81.1406 85.6533 80.7275 86.5498 79.9014 87.2002C79.0752 87.8506 77.9355 88.1758 76.4824 88.1758C75.0293 88.1758 73.8398 87.9502 72.9141 87.499V85.5127C73.5 85.7881 74.1211 86.0049 74.7773 86.1631C75.4395 86.3213 76.0547 86.4004 76.623 86.4004C77.4551 86.4004 78.0674 86.2422 78.46 85.9258C78.8584 85.6094 79.0576 85.1846 79.0576 84.6514C79.0576 84.1709 78.876 83.7637 78.5127 83.4297C78.1494 83.0957 77.3994 82.7002 76.2627 82.2432C75.0908 81.7686 74.2646 81.2266 73.7842 80.6172C73.3037 80.0078 73.0635 79.2754 73.0635 78.4199C73.0635 77.3477 73.4443 76.5039 74.2061 75.8887C74.9678 75.2734 75.9902 74.9658 77.2734 74.9658C78.5039 74.9658 79.7285 75.2354 80.9473 75.7744L80.2793 77.4883C79.1367 77.0078 78.1172 76.7676 77.2207 76.7676C76.541 76.7676 76.0254 76.917 75.6738 77.2158C75.3223 77.5088 75.1465 77.8984 75.1465 78.3848C75.1465 78.7188 75.2168 79.0059 75.3574 79.2461C75.498 79.4805 75.7295 79.7031 76.0518 79.9141C76.374 80.125 76.9541 80.4033 77.792 80.749C78.7354 81.1416 79.4268 81.5078 79.8662 81.8477C80.3057 82.1875 80.6279 82.5713 80.833 82.999C81.0381 83.4268 81.1406 83.9307 81.1406 84.5107ZM90.2637 88L89.9736 86.7256H89.8682C89.5811 87.1768 89.1709 87.5312 88.6377 87.7891C88.1104 88.0469 87.5068 88.1758 86.8271 88.1758C85.6494 88.1758 84.7705 87.8828 84.1904 87.2969C83.6104 86.7109 83.3203 85.8232 83.3203 84.6338V78.2793H85.4033V84.2734C85.4033 85.0176 85.5557 85.5771 85.8604 85.9521C86.165 86.3213 86.6426 86.5059 87.293 86.5059C88.1602 86.5059 88.7959 86.248 89.2002 85.7324C89.6104 85.2109 89.8154 84.3408 89.8154 83.1221V78.2793H91.8896V88H90.2637ZM99.7646 88.1758C98.5342 88.1758 97.5791 87.7334 96.8994 86.8486H96.7764C96.8584 87.6689 96.8994 88.167 96.8994 88.3428V92.3242H94.834V78.2793H96.5039C96.5508 78.4609 96.6475 78.8945 96.7939 79.5801H96.8994C97.5439 78.5957 98.5107 78.1035 99.7998 78.1035C101.013 78.1035 101.956 78.543 102.63 79.4219C103.31 80.3008 103.649 81.5342 103.649 83.1221C103.649 84.71 103.304 85.9492 102.612 86.8398C101.927 87.7305 100.978 88.1758 99.7646 88.1758ZM99.2637 79.791C98.4434 79.791 97.8428 80.0312 97.4619 80.5117C97.0869 80.9922 96.8994 81.7598 96.8994 82.8145V83.1221C96.8994 84.3057 97.0869 85.1641 97.4619 85.6973C97.8369 86.2246 98.4492 86.4883 99.2988 86.4883C100.014 86.4883 100.564 86.1953 100.951 85.6094C101.338 85.0234 101.531 84.1885 101.531 83.1045C101.531 82.0146 101.338 81.1914 100.951 80.6348C100.57 80.0723 100.008 79.791 99.2637 79.791ZM110.979 88.1758C109.749 88.1758 108.794 87.7334 108.114 86.8486H107.991C108.073 87.6689 108.114 88.167 108.114 88.3428V92.3242H106.049V78.2793H107.719C107.766 78.4609 107.862 78.8945 108.009 79.5801H108.114C108.759 78.5957 109.726 78.1035 111.015 78.1035C112.228 78.1035 113.171 78.543 113.845 79.4219C114.524 80.3008 114.864 81.5342 114.864 83.1221C114.864 84.71 114.519 85.9492 113.827 86.8398C113.142 87.7305 112.192 88.1758 110.979 88.1758ZM110.479 79.791C109.658 79.791 109.058 80.0312 108.677 80.5117C108.302 80.9922 108.114 81.7598 108.114 82.8145V83.1221C108.114 84.3057 108.302 85.1641 108.677 85.6973C109.052 86.2246 109.664 86.4883 110.514 86.4883C111.229 86.4883 111.779 86.1953 112.166 85.6094C112.553 85.0234 112.746 84.1885 112.746 83.1045C112.746 82.0146 112.553 81.1914 112.166 80.6348C111.785 80.0723 111.223 79.791 110.479 79.791ZM125.886 83.1221C125.886 84.71 125.479 85.9492 124.664 86.8398C123.85 87.7305 122.716 88.1758 121.263 88.1758C120.354 88.1758 119.552 87.9707 118.854 87.5605C118.157 87.1504 117.621 86.5615 117.246 85.7939C116.871 85.0264 116.684 84.1357 116.684 83.1221C116.684 81.5459 117.088 80.3154 117.896 79.4307C118.705 78.5459 119.845 78.1035 121.315 78.1035C122.722 78.1035 123.835 78.5576 124.655 79.4658C125.476 80.3682 125.886 81.5869 125.886 83.1221ZM118.811 83.1221C118.811 85.3662 119.64 86.4883 121.298 86.4883C122.938 86.4883 123.759 85.3662 123.759 83.1221C123.759 80.9014 122.933 79.791 121.28 79.791C120.413 79.791 119.783 80.0781 119.391 80.6523C119.004 81.2266 118.811 82.0498 118.811 83.1221ZM133.198 78.1035C133.614 78.1035 133.957 78.1328 134.227 78.1914L134.024 80.1162C133.731 80.0459 133.427 80.0107 133.11 80.0107C132.284 80.0107 131.613 80.2803 131.098 80.8193C130.588 81.3584 130.333 82.0586 130.333 82.9199V88H128.268V78.2793H129.885L130.157 79.9932H130.263C130.585 79.4131 131.004 78.9531 131.52 78.6133C132.041 78.2734 132.601 78.1035 133.198 78.1035ZM139.658 86.5059C140.162 86.5059 140.666 86.4268 141.17 86.2686V87.8242C140.941 87.9238 140.646 88.0059 140.282 88.0703C139.925 88.1406 139.553 88.1758 139.166 88.1758C137.209 88.1758 136.23 87.1445 136.23 85.082V79.8438H134.903V78.9297L136.327 78.1738L137.03 76.1172H138.305V78.2793H141.073V79.8438H138.305V85.0469C138.305 85.5449 138.428 85.9141 138.674 86.1543C138.926 86.3887 139.254 86.5059 139.658 86.5059Z" fill="#1BD741"/>
<defs>
<filter id="filter0_d" x="31" y="-8" width="85" height="85" filterUnits="userSpaceOnUse" color-interpolation-filters="sRGB">
<feFlood flood-opacity="0" result="BackgroundImageFix"/>
<feColorMatrix in="SourceAlpha" type="matrix" values="0 0 0 0 0 0 0 0 0 0 0 0 0 0 0 0 0 0 127 0"/>
<feOffset dx="2" dy="2"/>
<feGaussianBlur stdDeviation="5"/>
<feColorMatrix type="matrix" values="0 0 0 0 0 0 0 0 0 0 0 0 0 0 0 0 0 0 0.25 0"/>
<feBlend mode="normal" in2="BackgroundImageFix" result="effect1_dropShadow"/>
<feBlend mode="normal" in="SourceGraphic" in2="effect1_dropShadow" result="shape"/>
</filter>
<clipPath id="clip0">
<rect width="33.5484" height="33.5484" fill="white" transform="translate(55.7739 16.7755)"/>
</clipPath>
</defs>
</svg>
