<svg width="13" height="13" viewBox="0 0 13 13" fill="none" xmlns="http://www.w3.org/2000/svg">
<path d="M3.03859 2.63523L8.22107 1.22064L7.94662 0.665891C7.76706 0.305307 7.3291 0.156402 6.96852 0.335964L2.3291 2.63523H3.03859Z" fill="#5D1763"/>
<path d="M9.82866 1.26172C9.76444 1.26172 9.7002 1.27048 9.63596 1.288L8.41846 1.62084L4.7002 2.63544H8.92063H10.76L10.5323 1.8004C10.4447 1.47486 10.1498 1.26172 9.82866 1.26172Z" fill="#5D1763"/>
<path d="M11.5212 3.14648H11.3547H11.1285H10.9022H9.17518H2.8292H1.99708H1.29635H1.16642H0.731387C0.50073 3.14648 0.294891 3.25305 0.160584 3.42094C0.0992701 3.49831 0.0525547 3.58736 0.0262774 3.68517C0.010219 3.74648 0 3.81072 0 3.87641V3.964V4.79612V12.0093C0 12.4122 0.327007 12.7392 0.729927 12.7392H11.5197C11.9226 12.7392 12.2496 12.4122 12.2496 12.0093V9.97276H7.91825C7.23358 9.97276 6.67737 9.41656 6.67737 8.73189V8.06327V7.837V7.61072V7.10853C6.67737 6.77276 6.81166 6.46767 7.0292 6.24431C7.2219 6.04575 7.48029 5.91145 7.76934 5.87787C7.81752 5.87205 7.86715 5.86911 7.91679 5.86911H11.6423H11.8686H12.0949H12.2496V3.87641C12.2511 3.47349 11.9241 3.14648 11.5212 3.14648Z" fill="#5D1763"/>
<path d="M12.7622 6.56623C12.6892 6.49907 12.6031 6.44798 12.5067 6.4144C12.4322 6.3896 12.3534 6.375 12.2702 6.375H12.2512H12.2366H12.0104H11.1943H7.9184C7.51547 6.375 7.18848 6.70199 7.18848 7.10493V7.46842V7.69469V7.92097V8.72973C7.18848 9.13265 7.51547 9.45966 7.9184 9.45966H12.2512H12.2702C12.3534 9.45966 12.4323 9.44506 12.5067 9.42024C12.6031 9.38812 12.6892 9.33557 12.7622 9.26842C12.9082 9.13557 13.0001 8.94287 13.0001 8.72974V7.10493C13.0001 6.89177 12.9082 6.69906 12.7622 6.56623ZM9.44249 8.06258C9.44249 8.26404 9.27898 8.42754 9.07752 8.42754H8.83519C8.63373 8.42754 8.47023 8.26404 8.47023 8.06258V7.82024C8.47023 7.70345 8.52424 7.59979 8.61037 7.5341C8.67314 7.48592 8.75053 7.45528 8.83519 7.45528H8.8965H9.07752C9.27898 7.45528 9.44249 7.61877 9.44249 7.82024V8.06258Z" fill="#5D1763"/>
</svg>
