<svg width="77" height="95" viewBox="0 0 77 95" fill="none" xmlns="http://www.w3.org/2000/svg">
<path d="M66.6358 63.2537C69.9426 65.6547 71.505 72.7407 71.8301 75.2738L74.2961 93.8751L76.8726 93.537L74.4088 74.9141C74.3567 74.5024 73.0522 64.6926 68.1744 61.1734C66.5405 60.0813 64.7896 59.1733 62.952 58.469C62.8415 58.3845 62.7223 58.3173 62.5901 58.2718L61.5175 57.8926C59.8966 57.2664 58.2042 56.6813 56.579 56.1742L55.5756 55.8232C55.476 55.7863 55.3741 55.7647 55.2679 55.7538C52.5506 54.8935 50.1647 54.2586 48.8862 53.9249V51.0819C52.7673 48.3081 55.0729 43.8312 55.0686 39.0617V36.8731C55.502 37.0313 55.9592 37.1136 56.4164 37.1201C58.5856 37.1201 60.343 35.3627 60.343 33.1936V29.6917C60.343 28.7404 59.9919 27.8238 59.3613 27.1174C59.7796 26.45 59.9919 25.6742 59.9746 24.8897V23.3945C60.0353 22.3046 59.6907 21.2297 59.0103 20.3738C58.6571 20.0054 58.2042 19.741 57.7058 19.6175C57.3981 16.0702 55.7143 5.65577 46.7323 1.58621H46.6543C44.3139 0.582904 41.8024 0.0454964 39.2606 0.00432408H38.513C36.0816 -0.0455161 33.6611 0.33587 31.3598 1.12898H31.2991C21.3528 4.78682 19.5607 15.9012 19.279 19.5828C18.7784 19.7064 18.3233 19.9686 17.9723 20.3391C17.2594 21.1842 16.8866 22.2612 16.9321 23.362V24.9006C16.9126 25.685 17.125 26.4586 17.5411 27.1217C16.9148 27.8347 16.5616 28.7513 16.5616 29.7026V33.2109C16.5616 35.38 18.3212 37.1353 20.4881 37.1353C20.9497 37.1353 21.4026 37.0508 21.8338 36.8882V39.0855C21.8425 43.8008 24.0983 48.228 27.9078 51.006V53.9249C23.3139 55.1232 18.7871 56.5773 14.3556 58.287H14.2971C12.3338 59.0216 10.4616 59.9816 8.71285 61.1387C3.83501 64.6926 2.53266 74.4916 2.47849 74.8816L0.0146484 93.5154L2.59117 93.8491L5.05501 75.2153C5.38439 72.6887 6.94244 65.6114 10.2081 63.1909C11.246 62.4996 12.3469 61.9102 13.4975 61.4291V72.5911C11.5992 73.2889 9.20475 75.2413 9.20475 79.3629V93.7126C9.20475 94.4212 9.779 94.9997 10.4919 94.9997H66.456C67.1689 94.9997 67.741 94.4212 67.741 93.7126V79.3867C67.741 75.2652 65.3313 73.3149 63.4482 72.6193V61.4573C64.5686 61.9513 65.6325 62.5538 66.6358 63.2537ZM57.7903 29.6917V33.2044C57.7339 33.9455 57.0817 34.5002 56.3406 34.4417C55.6818 34.3876 55.1574 33.8631 55.1033 33.2044V29.6917C55.0469 28.9485 55.5973 28.3006 56.3406 28.2377C57.0817 28.1792 57.7339 28.7339 57.7903 29.475C57.799 29.5466 57.799 29.6202 57.7903 29.6917ZM40.2725 2.64152C41.8393 2.7607 43.3843 3.10092 44.86 3.64266V10.1631C43.7982 11.6908 42.1231 12.6724 40.2725 12.8501V2.64152ZM33.1107 3.28511C34.6016 2.85822 36.1423 2.62202 37.6982 2.58085V12.8848C35.8476 12.7071 34.1682 11.7233 33.1107 10.1956V3.28511ZM21.8013 33.1936C21.7428 33.9347 21.0906 34.4916 20.3516 34.4309C19.6929 34.3811 19.1685 33.8566 19.1143 33.1936V29.6917C19.0536 28.9485 19.6084 28.3006 20.3516 28.2377C21.0906 28.1792 21.7428 28.7339 21.8013 29.475C21.8078 29.5466 21.8078 29.6202 21.8013 29.6917V33.1936ZM20.4535 25.7587C20.2086 25.7587 19.9702 25.7825 19.734 25.8259C19.5347 25.5593 19.4393 25.2235 19.474 24.8897V23.3295C19.4588 22.92 19.5607 22.5169 19.7752 22.168C19.8251 22.1269 19.8901 22.1117 19.9572 22.1204H20.4535C21.1642 22.1204 21.7428 21.5418 21.7428 20.8289C21.7428 20.2286 21.9118 8.80437 30.5277 4.32092V10.5076C30.5277 10.6983 30.571 10.8847 30.6534 11.0558C30.7422 11.2357 32.842 15.522 38.9745 15.522C45.1049 15.522 47.2133 11.2292 47.2978 11.0558C47.3759 10.8847 47.4214 10.6983 47.4149 10.5076V4.94067C54.9667 9.76 55.1466 20.2524 55.1466 20.8289C55.1466 21.5418 55.7252 22.1204 56.4338 22.1204H56.9322C57.06 22.1204 57.0882 22.1204 57.112 22.168C57.3309 22.5256 57.4327 22.9373 57.4132 23.3577V24.8897C57.4479 25.2278 57.3482 25.5658 57.138 25.8259C55.8747 25.5767 54.568 25.9754 53.6622 26.8942H23.2424C22.5034 26.1596 21.5001 25.7565 20.4621 25.7674L20.4535 25.7587ZM24.3778 39.0855V29.4707H52.5441V39.0855C52.5332 45.8378 47.0573 51.3029 40.3072 51.2964H36.5974C29.8538 51.2942 24.3865 45.8313 24.3778 39.0855ZM46.3422 52.5771V54.4818L38.4436 64.582L30.4562 54.4818V52.5229C32.3826 53.4178 34.4781 53.8794 36.5974 53.8816H40.3072C42.3897 53.8816 44.4483 53.4352 46.3422 52.5771ZM23.0127 57.9966C25.4678 57.2469 27.5828 56.6748 28.6793 56.3887L38.461 68.7556L48.1321 56.3887C49.2438 56.6813 51.3934 57.2469 53.9028 58.0291V72.7818H22.9845L23.0127 57.9966ZM65.1688 79.3867V92.447H11.7791V79.3867C11.7791 75.4992 14.6568 74.9401 14.9645 74.886C15.6038 74.7971 16.074 74.251 16.074 73.6096V60.3825C17.4891 59.8321 18.9929 59.3098 20.4535 58.8374V74.0712C20.4535 74.7841 21.0299 75.3627 21.7428 75.3627H55.2311C55.9419 75.3627 56.5204 74.7841 56.5204 74.0712V58.8634L60.8565 60.3825V73.6096C60.8565 74.2532 61.3354 74.8036 61.9725 74.886C62.1047 74.9033 65.1688 75.3627 65.1688 79.3867Z" fill="#B3404A"/>
</svg>
